<?xml version="1.0" encoding="utf-8"?>
<!-- Generator: Adobe Illustrator 24.0.2, SVG Export Plug-In . SVG Version: 6.00 Build 0)  -->
<svg version="1.1" id="Layer_1" xmlns="http://www.w3.org/2000/svg" xmlns:xlink="http://www.w3.org/1999/xlink" x="0px" y="0px"
	 viewBox="0 0 200 200" style="enable-background:new 0 0 200 200;" xml:space="preserve">
<g>
	<path d="M151.74,112.58l-15.09,9.09c-2.62,1.58-6,1-7.95-1.36l-8.4-10.17c-2.55-3.09-7.32-2.97-9.72,0.25l-6.14,8.26
		c-2.25,3.03-6.68,3.35-9.34,0.66l-9.63-9.71c-2.8-2.83-7.5-2.3-9.62,1.07l-4.54,7.24c-1.74,2.77-5.33,3.71-8.2,2.14l-14.9-8.16
		c-4.12-2.26-9.13,0.74-9.15,5.44c-0.19,45.07,32.71,76.97,59.41,77.49c27.07,0.52,61.92-30.95,62.63-76.83
		C161.19,113.13,155.9,110.07,151.74,112.58z"/>
	<path d="M148.78,68.52c3.49-2.66,5.84-6.73,5.79-11.57c-0.03-4.26-1.96-8.53-5.1-11.41c-1.67-1.51-3.6-2.65-5.75-3.32
		c-0.09-0.04-0.17-0.05-0.27-0.07c3.01-5.09,3.31-11.68-0.34-16.79c-2.43-3.43-6.1-6.11-10.31-6.8c-2.9-0.47-5.63-0.05-8.37,0.53
		c-0.61-6.6-5.45-12.68-12.49-13.86c-9.61-1.62-20.9,5.47-20.79,15.61c-2.63,0.48-5.18,1.13-7.54,1.98
		c-14.82,5.33-25.58,18.41-29.66,29.01c-2.71,7.01-2.83,13.43-0.36,18.1c3.2,5.98,10.17,8.42,15.77,10.38
		c5.58,1.95,11.59,2.76,17.61,2.39c0.25,6.49-0.02,12.97-0.79,19.39c1.49,0.64,2.87,1.58,4.07,2.77l3.51,3.55
		c1.64-10.08,2.1-20.4,1.34-30.68c-0.08-1.18-0.65-2.27-1.58-3c-0.92-0.74-2.11-1.04-3.27-0.85c-2.05,0.33-4.1,0.5-6.15,0.5
		c-4.11,0-8.15-0.67-11.95-2c-4.46-1.54-9.48-3.31-11.13-6.42c-1.31-2.42-1.02-6.48,0.76-11.12c3.39-8.81,12.35-19.68,24.68-24.12
		c12.15-4.37,29.43-2.94,37.28,7.04c4.53,5.77,3.44,19.9,1.64,43.31c-0.75,9.76-1.52,16.32-2.28,22.57
		c0.87,0.62,1.68,1.38,2.39,2.22l5.09,6.17l2.55,3.09c0.44,0.05,0.88,0.06,1.31,0.03l11.35-6.84c0.48-0.81,0.85-1.68,1.12-2.59
		c1.08-3.61,0.44-7.48-1.36-10.74c4.82-2.38,8.32-7,8.81-13.02c0.33-4.35-1.23-8.75-4.1-12C149.78,69.44,149.3,68.95,148.78,68.52z
		 M115.42,22.41c-4.94-1.7-10.29-2.45-15.58-2.39c0.19-1.97,2.55-3.96,4-4.81c1.9-1.12,4.17-1.73,6.34-1.38
		C114.3,14.52,116.9,19.25,115.42,22.41z M130.36,32.59c-1.43-1.82-3.07-3.4-4.84-4.8c3.63-0.85,7.25-1.28,9.95,2.01
		c2.58,3.16,1.63,7.78-1.59,10.1C133.1,37.04,131.96,34.62,130.36,32.59z M138.56,102.83c-0.54,2.72-3.51,3.97-5.68,3.28
		c-0.57-0.19-1.1-0.24-1.59-0.22c0.02-0.17,0.04-0.35,0.06-0.52c0.41-3.37,0.82-6.82,1.24-10.76c0.35,0.67,0.87,1.24,1.6,1.57
		C136.9,97.37,139.1,99.97,138.56,102.83z M137.6,88.11c-1.74-0.24-3.44,0.13-4.51,1.41c0.22-2.39,0.44-4.95,0.66-7.81
		c0.3-3.86,0.57-7.44,0.81-10.81c0.38,0.28,0.81,0.54,1.33,0.73c4.38,1.59,9.64,3.71,9.68,9.14C145.6,84.87,141.82,88.7,137.6,88.11
		z M138.24,63.12c-1.27-0.24-2.35-0.02-3.21,0.46c0.3-5.61,0.39-10.43,0.16-14.62c0.74,0.38,1.52,0.69,2.36,0.92
		c1.35,0.35,2.79,0.42,4.08,0.92c1.89,0.76,3.35,2.63,3.9,4.61C146.64,59.39,142.66,63.95,138.24,63.12z"/>
	<path d="M79.99,40.22c-2.78,0-5.04,2.26-5.04,5.04c0,2.78,2.26,5.04,5.04,5.04s5.04-2.26,5.04-5.04
		C85.04,42.47,82.78,40.22,79.99,40.22z"/>
	<path d="M111.92,45.26c0-2.78-2.26-5.04-5.04-5.04c-2.78,0-5.04,2.26-5.04,5.04c0,2.78,2.26,5.04,5.04,5.04
		C109.67,50.3,111.92,48.04,111.92,45.26z"/>
	<path d="M93.61,67.98c0.35,0,0.71-0.02,1.06-0.06c5.14-0.6,9.11-5.57,8.85-11.06c-0.09-1.85-1.7-3.3-3.52-3.2
		c-1.85,0.09-3.29,1.66-3.2,3.52c0.1,2.18-1.45,3.89-2.92,4.06c-0.81,0.1-1.73-0.25-2.46-0.93c-0.52-0.48-1.39-1.53-1.35-3.21
		c0.05-1.86-1.41-3.4-3.27-3.45c-1.87-0.11-3.4,1.41-3.45,3.27c-0.09,3.18,1.2,6.22,3.53,8.35C88.8,67.03,91.2,67.98,93.61,67.98z"
		/>
</g>
</svg>
