<?xml version="1.0" encoding="utf-8"?>
<!-- Generator: Adobe Illustrator 24.0.2, SVG Export Plug-In . SVG Version: 6.00 Build 0)  -->
<svg version="1.1" id="Layer_1" xmlns="http://www.w3.org/2000/svg" xmlns:xlink="http://www.w3.org/1999/xlink" x="0px" y="0px"
	 viewBox="0 0 200 200" style="enable-background:new 0 0 200 200;" xml:space="preserve">
<g>
	<path d="M158.29,110.27c3.06,0,5.55-2.48,5.55-5.55c0-3.06-2.48-5.55-5.55-5.55h-27.73V86.45c0-3.06-2.48-5.55-5.55-5.55
		c-3.06,0-5.55,2.48-5.55,5.55v12.73H80.65V86.45c0-3.06-2.48-5.55-5.55-5.55c-3.06,0-5.55,2.48-5.55,5.55v12.73H41.83
		c-3.06,0-5.55,2.48-5.55,5.55c0,3.06,2.48,5.55,5.55,5.55h27.73v25.47H41.83c-3.06,0-5.55,2.48-5.55,5.55
		c0,3.06,2.48,5.55,5.55,5.55h27.73v12.73c0,3.06,2.48,5.55,5.55,5.55c3.06,0,5.55-2.48,5.55-5.55v-12.73h38.82v12.73
		c0,3.06,2.48,5.55,5.55,5.55c3.06,0,5.55-2.48,5.55-5.55v-12.73h27.73c3.06,0,5.55-2.48,5.55-5.55c0-3.06-2.48-5.55-5.55-5.55
		h-27.73v-25.47H158.29z M119.47,135.74H80.65v-25.47h38.82V135.74z"/>
	<g>
		<path d="M102.05,41.17c-0.36-0.81-0.73-1.64-1.13-2.49c-0.06-0.14-0.13-0.29-0.19-0.44c-0.06,0.15-0.13,0.3-0.2,0.44
			c-0.39,0.84-0.77,1.67-1.12,2.48c-0.36,0.82-0.71,1.61-1.04,2.36l-0.45,1.11h5.63l-0.45-1.09
			C102.76,42.78,102.41,41.99,102.05,41.17z"/>
		<polygon points="92.84,55.23 92.84,55.23 92.84,55.23 		"/>
		<path d="M157.45,10H42.67C24.37,10,9.49,24.89,9.49,43.19v112.93c0,18.3,14.89,33.19,33.18,33.19h114.78
			c18.3,0,33.19-14.89,33.19-33.19V43.19C190.64,24.89,175.75,10,157.45,10z M125.65,51.58l0.08-3.08l0.04-5.75
			c0.03-0.84,0.04-1.7,0.04-2.58l0-2.7c-0.03-1.11-0.02-2.33,0.02-3.63c0.04-1.27,0.09-2.46,0.14-3.59
			c0.06-0.65,0.21-1.22,0.47-1.68c0.15-0.46,0.49-0.85,1.01-1.16c0.35-0.22,0.78-0.36,1.32-0.43c0.2-0.02,0.4-0.04,0.58-0.04
			c0.28,0,0.54,0.03,0.85,0.1c0.14,0.06,0.28,0.12,0.43,0.19c0.14,0.07,0.28,0.15,0.48,0.27c0.14,0.11,0.27,0.22,0.39,0.33
			c0.14,0.12,0.27,0.26,0.36,0.38c0.15,0.15,0.28,0.3,0.4,0.47c0.1,0.14,0.2,0.27,0.3,0.4l0.03,0.04l0.02,0.04
			c0.07,0.15,0.15,0.28,0.22,0.4c0.07,0.11,0.15,0.23,0.26,0.37l0.44,0.65l8.29,13.06v-1.02c0-0.84-0.01-1.7-0.02-2.58
			c-0.01-0.88-0.03-1.8-0.06-2.76c0-1.11,0.01-2.3,0.02-3.57c0.01-1.25,0.05-2.45,0.1-3.56c0-0.52,0.14-1.09,0.43-1.71
			c0.16-0.43,0.45-0.79,0.85-1.05c0.37-0.24,0.78-0.41,1.23-0.5c0.23-0.05,0.46-0.07,0.69-0.07s0.46,0.02,0.68,0.07
			c0.47,0.09,0.88,0.28,1.27,0.6c0.09,0.09,0.18,0.2,0.28,0.32c0.1,0.14,0.18,0.29,0.26,0.47c0.15,0.38,0.24,0.72,0.26,0.98
			c0.09,0.41,0.13,0.76,0.13,1.08c0,3.3,0,6.66,0.02,10.09c0.01,3.43,0.03,6.79,0.06,10.09c0,0.36,0.01,0.71,0.04,1.05
			c0.03,0.38,0.03,0.77,0,1.15c-0.03,0.46-0.09,0.96-0.18,1.48c-0.11,0.62-0.43,1.13-0.93,1.5c-0.38,0.32-0.82,0.51-1.3,0.58
			c-0.17,0.02-0.33,0.03-0.49,0.03c-0.28,0-0.57-0.03-0.84-0.1c-0.42-0.1-0.83-0.26-1.21-0.48c-0.4-0.23-0.73-0.52-0.96-0.84
			c-0.9-1.11-1.74-2.28-2.5-3.46c-0.75-1.17-1.51-2.36-2.27-3.54l-3.33-5.03c-0.45-0.71-0.93-1.52-1.44-2.41
			c-0.23-0.4-0.46-0.79-0.69-1.17l-0.11,13.58v0.36c0,0.47-0.08,0.94-0.25,1.4c-0.17,0.48-0.46,0.9-0.88,1.26
			c-0.32,0.26-0.74,0.44-1.23,0.53c-0.28,0.06-0.55,0.08-0.8,0.08c-0.42,0-0.8-0.08-1.13-0.24c-0.51-0.25-0.92-0.59-1.21-1.03
			c-0.28-0.42-0.48-0.91-0.59-1.46c-0.1-0.53-0.12-1.06-0.07-1.53L125.65,51.58z M88.05,53.47c0.01-0.16,0.04-0.32,0.07-0.52
			c0.06-0.25,0.13-0.5,0.21-0.76l0.13-0.38l8.23-20.25l0.23-0.62c0.06-0.19,0.14-0.36,0.24-0.53c0.06-0.09,0.11-0.22,0.16-0.4
			c0.14-0.37,0.3-0.7,0.45-0.95c0.09-0.18,0.2-0.36,0.33-0.52l0.31-0.39c0.2-0.27,0.49-0.49,0.89-0.67c0.42-0.15,0.9-0.23,1.44-0.23
			c0.54,0,1.02,0.08,1.48,0.24c0.36,0.16,0.65,0.39,0.85,0.65c0.19,0.25,0.39,0.53,0.62,0.87c0.17,0.28,0.33,0.61,0.49,1.02
			c0.04,0.14,0.09,0.26,0.15,0.36c0.1,0.17,0.18,0.34,0.23,0.51l0.23,0.62l8.24,20.29l0.12,0.36c0.08,0.25,0.15,0.5,0.21,0.78
			c0.03,0.17,0.05,0.34,0.06,0.49c0.01,0.16,0.02,0.33,0.02,0.54c0,0.41-0.12,0.79-0.34,1.11c-0.11,0.17-0.24,0.34-0.4,0.48
			c-0.17,0.15-0.37,0.28-0.56,0.36c-0.58,0.32-1.2,0.49-1.83,0.49c-0.18,0-0.37-0.01-0.61-0.05c-0.43-0.12-0.82-0.32-1.19-0.64
			c-0.1-0.05-0.18-0.13-0.25-0.24c-0.02-0.02-0.04-0.04-0.05-0.07l-0.04-0.02l-0.05-0.05c-0.16-0.16-0.28-0.31-0.37-0.45
			c-0.08-0.12-0.17-0.26-0.28-0.46c-0.05-0.11-0.1-0.22-0.15-0.32c-0.06-0.12-0.13-0.24-0.24-0.42c-0.05-0.09-0.09-0.17-0.14-0.25
			c-0.07-0.13-0.13-0.26-0.14-0.34c-0.11-0.26-0.18-0.48-0.22-0.69l-0.69-1.61c-1.72,0-3.43,0.01-5.13,0.02
			c-0.63,0.01-1.25,0.01-1.88,0.01c-1.08,0-2.17-0.01-3.26-0.02l-0.72,1.68c-0.03,0.06-0.05,0.11-0.05,0.17
			c-0.02,0.16-0.07,0.31-0.15,0.46c-0.05,0.1-0.09,0.18-0.12,0.27c-0.04,0.1-0.09,0.21-0.17,0.35c-0.08,0.13-0.15,0.25-0.21,0.37
			c-0.07,0.12-0.14,0.25-0.19,0.32c-0.06,0.16-0.15,0.32-0.24,0.46c-0.09,0.14-0.22,0.29-0.37,0.44l-0.05,0.05l-0.04,0.02
			c-0.02,0.03-0.04,0.05-0.06,0.07c-0.06,0.11-0.14,0.19-0.21,0.21l-0.14-0.18l0,0c-0.01,0.01-0.03,0.02-0.04,0.03l0.11,0.23
			c-0.34,0.28-0.73,0.48-1.22,0.61c-0.19,0.03-0.37,0.04-0.55,0.04c-0.64,0-1.25-0.16-1.79-0.47c-0.23-0.1-0.44-0.23-0.6-0.38
			c-0.17-0.15-0.3-0.31-0.39-0.46c-0.24-0.34-0.36-0.72-0.36-1.14C88.02,53.8,88.03,53.63,88.05,53.47z M52.21,49.77
			c0.19-0.6,0.64-1.1,1.32-1.47c0.39-0.23,0.78-0.34,1.15-0.34c0.21,0,0.42,0.04,0.62,0.11c0.46,0.18,0.9,0.46,1.38,0.88l1.14,1.03
			c0.35,0.31,0.73,0.52,1.17,0.61c0.52,0.13,0.99,0.19,1.4,0.19c0.37,0,0.7-0.05,0.99-0.16c0.6-0.22,1.06-0.56,1.4-1.04
			c0.36-0.5,0.62-1.12,0.78-1.85c0.17-0.77,0.27-1.55,0.31-2.34c0.04-0.79,0.05-1.58,0.02-2.33c-0.03-0.77-0.03-1.44,0-1.97
			c0.03-1.39,0.03-2.76,0-4.1c-0.03-1.34-0.04-2.7-0.04-4.09c-0.14-0.01-0.34-0.02-0.62-0.03c-0.5-0.01-1.03-0.02-1.61-0.02
			c-0.59,0-1.14-0.01-1.65-0.02c-0.51-0.01-0.84-0.02-1-0.02h-0.55l-0.46-0.04v-0.07c-0.09-0.02-0.19-0.04-0.28-0.06l-0.31-0.08
			l-0.35-0.09c-0.59-0.19-1.05-0.49-1.34-0.87c-0.2-0.2-0.34-0.48-0.42-0.86c-0.07-0.33-0.11-0.61-0.11-0.85v-0.43
			c0-0.2,0.03-0.39,0.1-0.56c0.08-0.39,0.33-0.73,0.72-1.03c0.26-0.19,0.56-0.34,0.9-0.43c0.21-0.06,0.41-0.1,0.62-0.13l0.59-0.08
			c0.21-0.03,0.41-0.04,0.62-0.04h0.59h3.8h0.55c0.2,0,0.42-0.01,0.71-0.04h3.05c1.01,0,1.99,0.01,2.93,0.04h0.24
			c0.3,0,0.59,0.01,0.87,0.02c0.27,0.01,0.55,0.02,0.85,0.02c0.66,0.03,1.28,0.16,1.79,0.37c0.52,0.13,0.95,0.41,1.28,0.84
			c0.32,0.42,0.49,0.87,0.48,1.24c0.03,0.19,0.04,0.43,0.03,0.7c-0.02,0.26-0.04,0.47-0.08,0.66c-0.1,0.34-0.33,0.68-0.67,0.99
			c-0.11,0.11-0.23,0.2-0.35,0.28c-0.13,0.09-0.3,0.16-0.5,0.23c-0.19,0.06-0.38,0.1-0.58,0.12c-0.15,0.01-0.31,0.03-0.48,0.05
			c-0.19,0.03-0.38,0.05-0.54,0.06c-0.17,0.02-0.36,0.02-0.56,0.02h-1.79V33c-0.03,2.34,0.02,4.73,0.14,7.1
			c0.12,2.39,0.1,4.8-0.06,7.19c-0.08,0.8-0.2,1.63-0.36,2.47c-0.17,0.87-0.44,1.7-0.81,2.45c-0.37,0.76-0.87,1.47-1.49,2.11
			c-0.63,0.65-1.43,1.17-2.39,1.54c-0.87,0.33-1.84,0.56-2.87,0.7c-0.57,0.08-1.16,0.11-1.73,0.11c-0.46,0-0.94-0.02-1.4-0.07
			c-1.04-0.11-2.06-0.34-3.02-0.7c-0.98-0.36-1.82-0.88-2.49-1.52c-0.37-0.34-0.72-0.77-1.03-1.26c-0.32-0.51-0.54-1.05-0.66-1.62
			C52,50.91,52.03,50.33,52.21,49.77z M175.85,156.12c0,10.14-8.25,18.4-18.4,18.4H42.67c-10.14,0-18.4-8.25-18.4-18.4V72.23h151.57
			V156.12z"/>
	</g>
</g>
</svg>
