<?xml version="1.0" encoding="utf-8"?>
<!-- Generator: Adobe Illustrator 24.0.2, SVG Export Plug-In . SVG Version: 6.00 Build 0)  -->
<svg version="1.1" id="Layer_1" xmlns="http://www.w3.org/2000/svg" xmlns:xlink="http://www.w3.org/1999/xlink" x="0px" y="0px"
	 viewBox="0 0 200 200" style="enable-background:new 0 0 200 200;" xml:space="preserve">
<g>
	<g>
		<ellipse cx="57.1" cy="55.34" rx="38.75" ry="38.34"/>
	</g>
	<g>
		<path d="M109.42,182.3H4.78v-59.32c0-13.35,10.83-24.18,24.18-24.18h56.28c13.35,0,24.18,10.83,24.18,24.18V182.3z"/>
	</g>
	<g>
		<path d="M153.84,174.61h-8.75c-8.76,0-15.88-7.12-15.88-15.88v-20.71c0-8.76,7.13-15.88,15.88-15.88h6.19
			c2.88,0,5.22-2.34,5.22-5.22V84.31c0-2.88-2.34-5.22-5.22-5.22h-6.19c-8.76,0-15.88-7.12-15.88-15.88V42.49
			c0-8.76,7.13-15.88,15.88-15.88h8.75c15.82,0,30.04,8.79,37.11,22.94c2.87,5.73,4.38,12.15,4.38,18.56v65.01
			c0,6.41-1.51,12.83-4.38,18.56C183.88,165.82,169.66,174.61,153.84,174.61z M145.1,133.67c-2.4,0-4.35,1.95-4.35,4.35v20.71
			c0,2.4,1.95,4.35,4.35,4.35h8.75c11.42,0,21.69-6.35,26.8-16.56c2.07-4.14,3.16-8.77,3.16-13.4V68.1c0-4.63-1.09-9.26-3.16-13.4
			c-5.11-10.22-15.38-16.56-26.8-16.56h-8.75c-2.4,0-4.35,1.95-4.35,4.35V63.2c0,2.4,1.95,4.35,4.35,4.35h6.19
			c9.24,0,16.75,7.52,16.75,16.76v32.61c0,9.24-7.52,16.76-16.75,16.76H145.1z"/>
	</g>
</g>
</svg>
