<?xml version="1.0" encoding="utf-8"?>
<!-- Generator: Adobe Illustrator 24.0.2, SVG Export Plug-In . SVG Version: 6.00 Build 0)  -->
<svg version="1.1" id="Layer_1" xmlns="http://www.w3.org/2000/svg" xmlns:xlink="http://www.w3.org/1999/xlink" x="0px" y="0px"
	 viewBox="0 0 200 200" style="enable-background:new 0 0 200 200;" xml:space="preserve">
<g>
	<g>
		<g>
			<g>
				<path d="M151.73,76.59c-0.56,0-1.13-0.1-1.69-0.32L98.79,56.61c-2.44-0.93-3.65-3.67-2.72-6.1c0.93-2.44,3.67-3.65,6.1-2.72
					l51.25,19.66c2.44,0.93,3.65,3.67,2.72,6.1C155.42,75.43,153.63,76.59,151.73,76.59z"/>
			</g>
			<g>
				<path d="M143.97,92.09L93.31,72.65c0.5,0.71,0.89,1.49,1.12,2.33c0.82,3.03,1.79,6.01,2.32,9.11l43.85,16.82
					c0.56,0.21,1.13,0.32,1.69,0.32c1.9,0,3.69-1.15,4.41-3.03C147.63,95.76,146.41,93.02,143.97,92.09z"/>
			</g>
			<g>
				<path d="M134.52,116.73l-35.89-13.77c0.97,3.4,1.16,6.98,1.18,10.57l31.32,12.01c0.56,0.21,1.13,0.32,1.69,0.32
					c1.9,0,3.69-1.15,4.41-3.03C138.18,120.39,136.96,117.66,134.52,116.73z"/>
			</g>
			<g>
				<path d="M125.07,141.36l-43.74-16.78c-4.1-0.33-7.97-1.19-11.8-2.4c-0.79,0.52-1.44,1.28-1.81,2.24
					c-0.93,2.44,0.28,5.17,2.72,6.1l51.25,19.66c0.56,0.21,1.13,0.32,1.69,0.32c1.9,0,3.69-1.15,4.41-3.03
					C128.72,145.03,127.51,142.3,125.07,141.36z"/>
			</g>
		</g>
		<g>
			<path d="M16.19,18.2L16.19,18.2c7.68-5.5,18.36-3.74,23.87,3.94l36.19,50.49L48.44,92.56L12.25,42.07
				C6.75,34.39,8.51,23.71,16.19,18.2z"/>
			<polygon points="54.63,97.51 88.75,113.14 78.94,80.08 			"/>
		</g>
	</g>
	<path d="M187.92,48.78l-79.27-30.41c-13.48-5.17-28.65,1.59-33.82,15.07l-3.05,7.95l8.79,12.26l6.02-15.7
		c2.68-7,10.56-10.5,17.55-7.82l73.39,28.15l-43.33,112.97l-86.08-33.02l8.3-21.62l-5.53-3.06c-1.91-1.05-3.49-2.52-4.71-4.25
		c-0.13-0.05-0.26-0.11-0.39-0.17L34.09,139.6c-0.6,1.56-0.55,3.29,0.13,4.82c0.68,1.53,1.94,2.72,3.5,3.32l97.84,37.53
		c0.74,0.28,1.5,0.42,2.25,0.42c2.53,0,4.92-1.54,5.88-4.04l47.85-124.73C192.79,53.66,191.16,50.02,187.92,48.78z"/>
</g>
</svg>
