<?xml version="1.0" encoding="utf-8"?>
<!-- Generator: Adobe Illustrator 24.0.2, SVG Export Plug-In . SVG Version: 6.00 Build 0)  -->
<svg version="1.1" id="Layer_1" xmlns="http://www.w3.org/2000/svg" xmlns:xlink="http://www.w3.org/1999/xlink" x="0px" y="0px"
	 viewBox="0 0 200 200" style="enable-background:new 0 0 200 200;" xml:space="preserve">
<g>
	<path d="M119.48,156.07c0,8.41-6.84,15.25-15.25,15.25H38.58c-8.41,0-15.26-6.84-15.26-15.25V43.23c0-8.41,6.85-15.25,15.26-15.25
		h65.64c8.41,0,15.25,6.84,15.25,15.25v0.11c4.08-2.31,8.75-3.69,13.74-3.82C131.39,25.15,119.09,14,104.23,14H38.58
		C22.46,14,9.34,27.11,9.34,43.23v112.84c0,16.12,13.12,29.23,29.24,29.23h65.64c14.86,0,27.16-11.15,28.99-25.52
		c-4.99-0.13-9.66-1.51-13.74-3.82V156.07z"/>
	<path d="M182.99,86.32l-39.58-29.68c-2.9-2.18-6.16-3.16-9.33-3.16c-0.21,0-0.41,0-0.62,0.02c-6.02,0.24-11.66,3.99-13.98,9.77
		c-0.73,1.79-1.13,3.77-1.13,5.9v9.87H77.15c-11.38,0-20.6,9.22-20.6,20.6c0,11.38,9.22,20.6,20.6,20.6h41.19v9.87
		c0,2.14,0.4,4.13,1.13,5.91c2.32,5.78,7.97,9.53,13.98,9.76c0.21,0.02,0.41,0.02,0.62,0.02c3.18,0,6.44-0.99,9.33-3.16l39.58-29.68
		C191.87,106.32,191.87,92.99,182.99,86.32z"/>
</g>
</svg>
