<svg width="80" height="80" viewBox="0 0 80 80" xmlns="http://www.w3.org/2000/svg" fill="none">
<rect x="29" y="6.25" width="21" height="10" rx="2.5" stroke="white" stroke-width="3" id="svg_1"/>
<path fill-rule="evenodd" clip-rule="evenodd" d="m27.5,9.75l-10,0c-3.86599,0 -7,3.13401 -7,7l0,50c0,3.866 3.13401,7 7,7l45,0c3.866,0 7,-3.134 7,-7l0,-50c0,-3.86599 -3.134,-7 -7,-7l-11,0l0,4c0,0.3453 -0.0438,0.68038 -0.126,1l11.126,0c1.1046,0 2,0.8954 2,2l0,50c0,1.1046 -0.8954,2 -2,2l-45,0c-1.10457,0 -2,-0.8954 -2,-2l0,-50c0,-1.1046 0.89543,-2 2,-2l10.126,0c-0.0822,-0.31962 -0.126,-0.6547 -0.126,-1l0,-4z" fill="white" id="svg_2"/>
<circle cx="32.2104" cy="38.4604" r="7.71036" fill="white" id="svg_3"/>
<circle cx="47.1171" cy="38.4604" r="7.71036" fill="white" id="svg_4"/>
<path d="m40.2063,57.2219l-12.1881,-12.1093l23.9117,-0.4503l-11.7236,12.5596z" fill="white" id="svg_5"/>
<path d="m39.6636,38.459l6.4547,7.7103l-12.9095,0l6.4548,-7.7103z" fill="white" id="svg_6"/>
</svg>