<svg width="41" height="41" viewBox="0 0 41 41" fill="none" xmlns="http://www.w3.org/2000/svg">
   <g clip-path="url(#clip0)">
   <path d="M32.6063 4.05759H29.0994C28.7523 3.08414 27.8307 2.38137 26.7395 2.38137H24.2079C23.4206 1.33697 22.183 0.705078 20.8727 0.705078C19.5623 0.705078 18.3248 1.33697 17.5374 2.38129H15.0058C13.9146 2.38129 12.993 3.08406 12.6458 4.05751H9.13901C7.29001 4.05759 5.7865 5.5611 5.7865 7.41002V37.5823C5.7865 39.4313 7.29001 40.9349 9.13901 40.9349H32.6064C34.4553 40.9349 35.9588 39.4313 35.9588 37.5823V7.41002C35.9588 5.5611 34.4553 4.05759 32.6063 4.05759ZM14.1677 4.89565C14.1677 4.43325 14.5434 4.05751 15.0059 4.05751H17.9852C18.2831 4.05751 18.5589 3.89871 18.7095 3.64091C19.1687 2.85187 19.9773 2.38129 20.8727 2.38129C21.7682 2.38129 22.5769 2.85195 23.036 3.64091C23.1866 3.89871 23.4624 4.05751 23.7603 4.05751H26.7396C27.202 4.05751 27.5778 4.43317 27.5778 4.89565V5.7338C27.5778 6.65783 26.8256 7.41002 25.9015 7.41002H15.8439C14.9199 7.41002 14.1677 6.65783 14.1677 5.7338V4.89565ZM34.2826 37.5823C34.2826 38.5064 33.5304 39.2586 32.6064 39.2586H9.13901C8.21498 39.2586 7.46279 38.5064 7.46279 37.5823V7.41002C7.46279 6.48599 8.21498 5.7338 9.13901 5.7338H12.4915C12.4915 7.58272 13.995 9.08631 15.844 9.08631H25.9015C27.7504 9.08631 29.254 7.5828 29.254 5.7338H32.6065C33.5305 5.7338 34.2827 6.48599 34.2827 7.41002V37.5823H34.2826Z" fill="#F5F5F5"/>
   <path d="M28.4158 34.2295H13.3296C12.8663 34.2295 12.4915 34.6044 12.4915 35.0676C12.4915 35.5309 12.8663 35.9058 13.3296 35.9058H28.4158C28.879 35.9058 29.2539 35.5309 29.2539 35.0676C29.2539 34.6044 28.879 34.2295 28.4158 34.2295Z" fill="#F5F5F5"/>
   <path d="M28.4158 29.2012H13.3296C12.8663 29.2012 12.4915 29.576 12.4915 30.0393C12.4915 30.5026 12.8663 30.8775 13.3296 30.8775H28.4158C28.879 30.8775 29.2539 30.5026 29.2539 30.0393C29.2539 29.576 28.879 29.2012 28.4158 29.2012Z" fill="#F5F5F5"/>
   <path d="M28.4158 20.8197H27.2576L25.813 17.9304C25.6649 17.6325 25.3645 17.4582 25.0191 17.468C24.6868 17.486 24.3954 17.6989 24.2784 18.0107L22.7093 22.1955L20.8473 14.7498C20.7622 14.4094 20.4749 14.1581 20.1262 14.1196C19.7734 14.0844 19.442 14.2645 19.2849 14.5779L16.164 20.8197H13.3296C12.8663 20.8197 12.4915 21.1946 12.4915 21.6578C12.4915 22.1211 12.8663 22.496 13.3296 22.496H16.6821C16.9997 22.496 17.2894 22.3167 17.4319 22.0327L19.7711 17.3543L21.7362 25.2133C21.8246 25.5693 22.1348 25.8263 22.5015 25.8468C22.5171 25.8476 22.5334 25.8485 22.549 25.8485C22.8968 25.8485 23.2103 25.6332 23.3339 25.305L25.173 20.399L25.9899 22.0327C26.1323 22.3167 26.422 22.496 26.7396 22.496H28.4158C28.879 22.496 29.2539 22.1211 29.2539 21.6578C29.2539 21.1946 28.879 20.8197 28.4158 20.8197Z" fill="#F5F5F5"/>
   </g>
   <defs>
   <clipPath id="clip0">
   <rect width="40.2298" height="40.2298" fill="white" transform="translate(0.757812 0.705078)"/>
   </clipPath>
   </defs>
   </svg>