<svg width="59" height="69" viewBox="0 0 59 69" fill="none" xmlns="http://www.w3.org/2000/svg">
<rect x="18.5" y="1.5" width="21" height="10" rx="2.5" stroke="white" stroke-width="3"/>
<path fill-rule="evenodd" clip-rule="evenodd" d="M17 5H7C3.13401 5 0 8.13401 0 12V62C0 65.866 3.13401 69 7 69H52C55.866 69 59 65.866 59 62V12C59 8.13401 55.866 5 52 5H41V9C41 9.3453 40.9562 9.68038 40.874 10H52C53.1046 10 54 10.8954 54 12V62C54 63.1046 53.1046 64 52 64H7C5.89543 64 5 63.1046 5 62V12C5 10.8954 5.89543 10 7 10H17.126C17.0438 9.68038 17 9.3453 17 9V5Z" fill="white"/>
<circle cx="21.7104" cy="33.7104" r="7.71036" fill="white"/>
<circle cx="36.6171" cy="33.7104" r="7.71036" fill="white"/>
<path d="M29.7063 52.4719L17.5182 40.3626L41.4299 39.9123L29.7063 52.4719Z" fill="white"/>
<path d="M29.1636 33.709L35.6183 41.4193H22.7088L29.1636 33.709Z" fill="white"/>
</svg>
