<svg width="40" height="38" viewBox="0 0 40 38" fill="none" xmlns="http://www.w3.org/2000/svg">
   <g clip-path="url(#clip0)">
   <path d="M38.2434 1.66885C35.8953 -0.546074 32.1059 -0.546074 29.7578 1.66885C29.6953 1.72845 29.6459 1.79928 29.6125 1.87716C29.5834 1.94673 29.5678 2.02073 29.5665 2.0956C29.5646 2.10272 29.563 2.10984 29.5619 2.11712C29.562 2.19991 29.5792 2.2819 29.6125 2.35836C29.6454 2.436 29.6947 2.50643 29.7571 2.5654L33.0582 5.7014L31.7819 6.91326C28.5843 4.10538 24.3903 2.54545 20.0359 2.5445C20.0246 2.54134 20.0159 2.53564 20.0046 2.53564C19.9933 2.53564 19.9846 2.54134 19.9733 2.54134C15.6183 2.54308 11.4241 4.10443 8.22729 6.91389L6.95098 5.7014L10.252 2.5654C10.3145 2.50643 10.3638 2.436 10.3967 2.35836C10.43 2.2819 10.4472 2.19991 10.4473 2.11712C10.4473 2.10953 10.4433 2.10319 10.4427 2.0956C10.4432 1.9495 10.3834 1.80894 10.276 1.70431C10.266 1.69354 10.2627 1.68025 10.252 1.67012C7.90863 -0.556442 4.10888 -0.556759 1.76513 1.66949C-0.578701 3.89573 -0.578951 7.50549 1.76446 9.73205C1.77379 9.74155 1.78712 9.74408 1.79712 9.75295C1.85144 9.80154 1.91409 9.84095 1.9824 9.86945C2.05513 9.89659 2.13228 9.91139 2.21034 9.91313C2.21833 9.91313 2.22633 9.91756 2.235 9.91756C2.32181 9.91725 2.40778 9.9011 2.48826 9.87008C2.56982 9.83818 2.64388 9.79133 2.7062 9.73205L6.00859 6.59668L7.28489 7.80917C0.786077 14.4832 1.21287 24.8984 8.23812 31.0723C8.8387 31.6 9.47776 32.0868 10.1507 32.5287L5.53672 36.9114C5.27196 37.1543 5.26463 37.5552 5.52039 37.8067C5.77607 38.0582 6.19803 38.0652 6.46279 37.8222C6.46837 37.8171 6.47379 37.8119 6.47912 37.8067L11.3024 33.2245C16.6794 36.2046 23.3285 36.2046 28.7054 33.2245L33.5287 37.8067C33.7935 38.0496 34.2154 38.0427 34.4711 37.7912C34.7206 37.5458 34.7206 37.1567 34.4711 36.9114L29.8571 32.5287C37.7295 27.3551 39.6965 17.0985 34.2506 9.61975C33.7868 8.98287 33.2763 8.37782 32.723 7.80917L34.0006 6.59668L37.3017 9.73268C37.364 9.79196 37.438 9.83882 37.5196 9.87071C37.6001 9.90174 37.6861 9.91788 37.7729 9.9182C37.7815 9.9182 37.7895 9.91377 37.7975 9.91377C37.8756 9.91202 37.9527 9.89722 38.0255 9.87008C38.0938 9.84159 38.1564 9.80217 38.2107 9.75358C38.2207 9.74471 38.2341 9.74218 38.2434 9.73268C40.5744 7.50209 40.5726 3.90111 38.2434 1.66885ZM2.27099 8.35684C0.734091 6.39003 1.16647 3.61208 3.23679 2.15195C4.88924 0.98663 7.15001 0.98663 8.80246 2.15195L2.27099 8.35684ZM35.9714 18.3645H32.6676C32.2996 18.3645 32.0012 18.6479 32.0012 18.9976C32.0012 19.3473 32.2996 19.6308 32.6676 19.6308H35.9834C35.6271 27.5202 28.9758 33.8389 20.6711 34.1774V31.0275C20.6711 30.6778 20.3727 30.3944 20.0046 30.3944C19.6365 30.3944 19.3381 30.6778 19.3381 31.0275V34.1774C11.0334 33.8389 4.38213 27.5202 4.02582 19.6308H7.34154C7.7096 19.6308 8.00802 19.3473 8.00802 18.9976C8.00802 18.6479 7.7096 18.3645 7.34154 18.3645H4.03782C4.18919 14.5686 5.83872 10.9658 8.6585 8.27263C8.66916 8.26377 8.68249 8.2606 8.69249 8.25111C8.70249 8.24161 8.70582 8.22895 8.71515 8.21882C11.5495 5.53916 15.3422 3.97194 19.3381 3.82917V6.96771C19.3381 7.31737 19.6365 7.60086 20.0046 7.60086C20.3727 7.60086 20.6711 7.31737 20.6711 6.96771V3.82917C24.667 3.97187 28.4598 5.53908 31.294 8.21882C31.3034 8.22895 31.3067 8.24161 31.3167 8.25111C31.3267 8.2606 31.34 8.26377 31.3507 8.27263C34.1704 10.9659 35.8199 14.5686 35.9714 18.3645ZM37.7369 8.35558L31.2054 2.15068C33.2666 0.682004 36.1909 1.07891 37.7369 3.0371C38.9809 4.61301 38.9809 6.77974 37.7369 8.35558Z" fill="#F5F5F5"/>
   <path d="M29.4835 13.0672H29.4848L21.9043 17.2245C20.8807 16.2279 19.2004 16.2083 18.1514 17.1808C18.1359 17.1952 18.1206 17.2098 18.1054 17.2245L13.9886 14.9667C13.671 14.7898 13.2627 14.891 13.0766 15.1927C12.8905 15.4944 12.9969 15.8823 13.3145 16.0591C13.317 16.0605 13.3196 16.0619 13.3222 16.0633L17.4457 18.3249C17.0321 19.6673 17.8425 21.074 19.2556 21.4668C20.6687 21.8597 22.1494 21.0899 22.5629 19.7474C22.7059 19.2829 22.7059 18.7893 22.5629 18.3248L30.15 14.1637C30.4676 13.9869 30.5741 13.599 30.388 13.2974C30.2035 12.9986 29.8005 12.896 29.4835 13.0672ZM20.0055 20.2636C19.2693 20.2636 18.6726 19.6967 18.6726 18.9973C18.6726 18.2979 19.2693 17.731 20.0055 17.731C20.7417 17.731 21.3385 18.2979 21.3385 18.9973C21.3385 19.6967 20.7417 20.2636 20.0055 20.2636Z" fill="#F5F5F5"/>
   </g>
   <defs>
   <clipPath id="clip0">
   <rect width="40" height="38" fill="white"/>
   </clipPath>
   </defs>
   </svg>   