<svg width="65" height="94" viewBox="0 0 65 94" fill="none" xmlns="http://www.w3.org/2000/svg">
<path d="M65 93.3223H0V67.7472C0 61.9915 6.72735 57.3223 15.0201 57.3223H49.9799C58.2726 57.3223 65 61.9915 65 67.7472V93.3223Z" fill="black"/>
<path fill-rule="evenodd" clip-rule="evenodd" d="M33 24.3221C36.6866 24.3221 40.0149 22.7875 42.3807 20.3223H55.4556C56.2904 22.8673 56.7433 25.5963 56.7433 28.4354C56.7433 42.3048 45.9341 53.5481 32.6002 53.5481C19.2663 53.5481 8.45703 42.3048 8.45703 28.4354C8.45703 25.5962 8.91 22.8671 9.74487 20.3219H23.6189C25.9848 22.7874 29.3132 24.3221 33 24.3221ZM22.0435 18.3219C20.7499 16.3014 20 13.8993 20 11.3221C20 9.59336 20.3374 7.94342 20.9501 6.43457C16.3302 9.08699 12.635 13.268 10.4948 18.3219H22.0435ZM54.7057 18.3223H43.9563C45.25 16.3016 46 13.8995 46 11.3221C46 9.83128 45.749 8.39905 45.2871 7.06537C49.4228 9.72746 52.7281 13.6522 54.7057 18.3223Z" fill="black"/>
<path fill-rule="evenodd" clip-rule="evenodd" d="M33.0001 22.6452C39.2534 22.6452 44.3227 17.5759 44.3227 11.3226C44.3227 5.06929 39.2534 0 33.0001 0C26.7468 0 21.6775 5.06929 21.6775 11.3226C21.6775 17.5759 26.7468 22.6452 33.0001 22.6452ZM33.0001 15.0968C35.0845 15.0968 36.7743 13.407 36.7743 11.3226C36.7743 9.23815 35.0845 7.54839 33.0001 7.54839C30.9156 7.54839 29.2259 9.23815 29.2259 11.3226C29.2259 13.407 30.9156 15.0968 33.0001 15.0968Z" fill="black"/>
</svg>
