<svg height="512pt" viewBox="0 -33 512 512" width="512pt" xmlns="http://www.w3.org/2000/svg"><path d="M512 10.3v425.516c0 5.688-4.613 10.305-10.3 10.305H10.3c-5.687 0-10.3-4.617-10.3-10.305V10.301C0 4.613 4.613 0 10.3 0h491.4c5.687 0 10.3 4.613 10.3 10.3zm0 0" fill="#e3f4ff"/><path d="M512 10.3v425.516c0 5.688-4.613 10.305-10.3 10.305h-30.567c5.687 0 10.3-4.617 10.3-10.305V10.301c0-5.688-4.613-10.301-10.3-10.301h30.566C507.387 0 512 4.613 512 10.3zm0 0" fill="#bddff4"/><path d="M512 10.3v55.188H0V10.301C0 4.613 4.613 0 10.3 0h491.4c5.687 0 10.3 4.613 10.3 10.3zm0 0" fill="#618baa"/><path d="M512 10.3v55.188h-30.566V10.301C481.434 4.613 476.82 0 471.133 0h30.566C507.387 0 512 4.613 512 10.3zm0 0" fill="#4e7693"/><path d="M150.293 0v65.488H0V10.301C0 4.613 4.613 0 10.3 0zm0 0" fill="#fd6096"/><path d="M47.879 40.39h-.149c-4.265-.023-7.71-3.495-7.69-7.761a7.729 7.729 0 017.726-7.691h.144a7.726 7.726 0 017.692 7.761 7.725 7.725 0 01-7.723 7.692zm28.34.083h-.11a7.727 7.727 0 010-15.453h.11c4.27 0 7.726 3.46 7.726 7.726s-3.457 7.727-7.726 7.727zm28.344.082h-.145a7.726 7.726 0 01.035-15.453h.145a7.726 7.726 0 017.691 7.761 7.726 7.726 0 01-7.727 7.692zm0 0" fill="#fc3e81"/><path d="M212.39 112.309H50.653a7.726 7.726 0 01-7.726-7.727 7.724 7.724 0 017.726-7.727h161.739a7.723 7.723 0 017.722 7.727 7.723 7.723 0 01-7.722 7.727zm92.372 0h-22.664a7.726 7.726 0 01-7.727-7.727 7.726 7.726 0 017.727-7.727h22.664a7.724 7.724 0 017.726 7.727 7.729 7.729 0 01-7.726 7.727zm52.195 0h-22.664a7.726 7.726 0 110-15.453h22.664a7.724 7.724 0 017.727 7.726 7.726 7.726 0 01-7.727 7.727zm52.195 0h-22.664a7.725 7.725 0 01-7.722-7.727 7.723 7.723 0 017.722-7.727h22.664a7.724 7.724 0 017.727 7.727 7.726 7.726 0 01-7.727 7.727zm52.196 0h-22.664a7.725 7.725 0 01-7.723-7.727 7.723 7.723 0 017.723-7.727h22.664a7.724 7.724 0 017.726 7.727 7.726 7.726 0 01-7.726 7.727zm0 0" fill="#93c0d1"/><path d="M193.242 317.125H69.797c-5.692 0-10.3-4.61-10.3-10.3V183.378c0-5.692 4.608-10.305 10.3-10.305h123.445c5.692 0 10.305 4.613 10.305 10.305v123.445c0 5.692-4.613 10.301-10.305 10.301zm0 0" fill="#32dfb7"/><path d="M111.309 226.645l3.55-3.551a7.728 7.728 0 000-10.926 7.733 7.733 0 00-10.93 0l-3.55 3.55-3.55-3.55a7.728 7.728 0 00-10.927 0 7.728 7.728 0 000 10.926l3.551 3.55-3.55 3.551a7.733 7.733 0 000 10.93 7.708 7.708 0 005.464 2.262 7.699 7.699 0 005.461-2.262l3.55-3.55 3.552 3.55a7.708 7.708 0 005.465 2.262 7.714 7.714 0 005.464-2.262 7.733 7.733 0 000-10.93zm62.277 0l3.55-3.551a7.728 7.728 0 000-10.926 7.728 7.728 0 00-10.925 0l-3.55 3.55-3.552-3.55a7.733 7.733 0 00-10.93 0 7.728 7.728 0 000 10.926l3.551 3.55-3.55 3.551a7.733 7.733 0 000 10.93 7.714 7.714 0 005.465 2.262 7.708 7.708 0 005.464-2.262l3.551-3.55 3.55 3.55c1.509 1.508 3.485 2.262 5.462 2.262s3.957-.754 5.465-2.262a7.733 7.733 0 000-10.93zm0 0" fill="#21c69c"/><path d="M171.672 268.207v43.434c0 7.875-6.383 14.254-14.254 14.254-7.871 0-14.254-6.38-14.254-14.254v-43.434" fill="#fd6096"/><path d="M171.672 275.934H91.367c-4.27 0-7.726-3.461-7.726-7.727s3.457-7.727 7.726-7.727h80.305c4.27 0 7.726 3.461 7.726 7.727s-3.457 7.727-7.726 7.727zm0 0" fill="#21c69c"/><path d="M304.762 232.32a7.724 7.724 0 00-7.727 7.727v12.8h-19.398a2.58 2.58 0 01-2.578-2.577v-72.81a7.725 7.725 0 10-15.45 0v72.81c0 9.94 8.086 18.03 18.028 18.03h19.398v53.212a7.726 7.726 0 1015.453 0v-81.465c0-4.27-3.46-7.727-7.726-7.727zm123.105 0a7.726 7.726 0 00-7.726 7.727v12.8h-19.403a2.58 2.58 0 01-2.574-2.577v-72.81a7.725 7.725 0 10-15.45 0v72.81c0 9.94 8.087 18.03 18.028 18.03h19.399v53.212a7.726 7.726 0 1015.453 0v-81.465a7.724 7.724 0 00-7.727-7.727zm-71.855 96.918h-16.824c-9.942 0-18.028-8.09-18.028-18.027V187.76c0-9.94 8.086-18.027 18.028-18.027h16.824c9.941 0 18.027 8.09 18.027 18.028V311.21c0 9.937-8.086 18.027-18.027 18.027zm-16.824-144.05a2.577 2.577 0 00-2.575 2.574V311.21a2.577 2.577 0 002.574 2.574h16.825a2.58 2.58 0 002.578-2.574V187.76a2.58 2.58 0 00-2.578-2.574zm0 0" fill="#749db7"/><path d="M327.77 382.906H184.23a7.726 7.726 0 01-7.726-7.726c0-4.27 3.46-7.727 7.726-7.727h143.54a7.724 7.724 0 017.726 7.727 7.729 7.729 0 01-7.726 7.726zm-40.52 22.664h-62.496a7.726 7.726 0 01-7.727-7.726 7.724 7.724 0 017.727-7.727h62.496a7.726 7.726 0 110 15.453zm0 0" fill="#93c0d1"/></svg>