<svg width="41" height="41" viewBox="0 0 41 41" fill="none" xmlns="http://www.w3.org/2000/svg">
   <g clip-path="url(#clip0)">
   <path d="M28.7994 0.705078C25.6243 0.705078 22.6385 1.94172 20.3956 4.18647L3.93794 20.6441C1.69318 22.8896 0.455688 25.8746 0.455688 29.0488C0.455688 35.6026 5.78797 40.9349 12.3418 40.9349C15.5187 40.9349 18.5027 39.6983 20.7457 37.4535L37.2033 20.9968C39.4498 18.7511 40.6856 15.7662 40.6856 12.5911C40.6855 6.03736 35.3532 0.705078 28.7994 0.705078ZM13.3025 19.0378L7.81663 24.5228C6.60768 25.7318 5.94157 27.3398 5.94157 29.0488C5.94157 29.5542 5.53262 29.9632 5.02723 29.9632C4.52184 29.9632 4.11289 29.5542 4.11289 29.0488C4.11289 26.8505 4.96826 24.7844 6.52367 23.2299L12.0096 17.7449C12.3667 17.3877 12.9453 17.3877 13.3024 17.7449C13.6597 18.102 13.6597 18.6806 13.3025 19.0378ZM34.6175 18.4109L27.0352 25.9923L15.3989 14.3547L22.9814 6.77221C24.535 5.21773 26.6011 4.36228 28.7994 4.36228C33.3371 4.36228 37.0283 8.0535 37.0283 12.5911C37.0283 14.7894 36.1729 16.8565 34.6175 18.4109Z" fill="#F5F5F5"/>
   </g>
   <defs>
   <clipPath id="clip0">
   <rect width="40.2298" height="40.2298" fill="white" transform="translate(0.455688 0.705078)"/>
   </clipPath>
   </defs>
   </svg>   