<svg xmlns="http://www.w3.org/2000/svg" viewBox="0 0 512 512"><path d="M305 148c11.046 0 20-8.954 20-20V90c0-11.046-8.954-20-20-20s-20 8.954-20 20v38c0 11.046 8.954 20 20 20z"/><path d="M492 352c11.046 0 20-8.954 20-20V102a19.998 19.998 0 00-5.858-14.142l-82-82A19.998 19.998 0 00410 0H80C35.888 0 0 35.888 0 80v352c0 44.112 35.888 80 80 80h352c44.112 0 80-35.888 80-80 0-11.046-8.954-20-20-20s-20 8.954-20 20c0 22.056-17.944 40-40 40V312c0-11.046-8.954-20-20-20H100c-11.046 0-20 8.954-20 20v160c-22.056 0-40-17.944-40-40V80c0-22.056 17.944-40 40-40v118c0 33.084 26.916 60 60 60h201c33.084 0 60-26.916 60-60V40h.716L472 110.284V332c0 11.046 8.954 20 20 20zm-372-20h272v140H120V332zm241-174c0 11.028-8.972 20-20 20H140c-11.028 0-20-8.972-20-20V40h241v118z"/></svg>