<svg width="72" height="69" viewBox="0 0 72 69" fill="none" xmlns="http://www.w3.org/2000/svg">
<path d="M33.1468 2.78114C34.0449 0.0172124 37.9551 0.0172205 38.8532 2.78115L45.2051 22.3303C45.6067 23.5664 46.7586 24.4033 48.0582 24.4033H68.6134C71.5196 24.4033 72.7279 28.1221 70.3768 29.8303L53.7473 41.9123C52.6958 42.6763 52.2559 44.0304 52.6575 45.2664L59.0094 64.8156C59.9074 67.5795 56.744 69.8779 54.3929 68.1697L37.7634 56.0877C36.7119 55.3237 35.2881 55.3237 34.2366 56.0877L17.6071 68.1697C15.256 69.8779 12.0926 67.5795 12.9906 64.8156L19.3425 45.2664C19.7441 44.0304 19.3042 42.6763 18.2527 41.9123L1.6232 29.8303C-0.727939 28.1221 0.480394 24.4033 3.38656 24.4033H23.9418C25.2414 24.4033 26.3933 23.5664 26.7949 22.3303L33.1468 2.78114Z" fill="black"/>
</svg>
