<?xml version="1.0" encoding="utf-8"?>
<!-- Generator: Adobe Illustrator 24.0.2, SVG Export Plug-In . SVG Version: 6.00 Build 0)  -->
<svg version="1.1" id="Layer_1" xmlns="http://www.w3.org/2000/svg" xmlns:xlink="http://www.w3.org/1999/xlink" x="0px" y="0px"
	 viewBox="0 0 1058 379" style="enable-background:new 0 0 1058 379;" xml:space="preserve">
<style type="text/css">
	.st0{fill:#103166;}
	.st1{fill:#383838;}
	.st2{fill:#F9F9F9;}
	.st3{fill:#565656;}
	.st4{fill:#757575;}
</style>
<g>
	<path class="st0" d="M123.25,205.89c-21.18,11.33-29.14,41.18-18.79,61.52c9.85,19.36,34.6,26.83,51.8,24.57
		c14.47-1.9,21.39-10.39,36.88-8.44c9.82,1.24,17.45,5.96,22.5,9.93c2.84-4.41,5.68-8.82,8.52-13.23
		c-7.07-3.49-16.56-9.47-23.76-19.8c-9.15-13.12-6.42-21.52-12.51-32.28C177.84,210.45,147.58,192.87,123.25,205.89z"/>
	<g>
		<path class="st1" d="M275.1,310.35c-18.56,0-37.74-8.36-52.45-16.87c-2.39-1.38-3.21-4.44-1.82-6.83s4.44-3.21,6.83-1.82
			c15.52,8.98,44.79,22.38,66.35,11.21c15.44-8,21.49-26.26,32.98-80.76c8.8-41.74,16.63-84.54,23.27-127.22
			c0.42-2.73,2.97-4.6,5.71-4.17c2.73,0.42,4.6,2.98,4.17,5.71c-6.67,42.85-14.53,85.83-23.37,127.74
			c-11.41,54.08-18.05,77.14-38.17,87.57C291.16,308.77,283.19,310.35,275.1,310.35z"/>
	</g>
	<g>
		<path class="st1" d="M422.27,151.35c-0.31,0-0.63-0.03-0.94-0.09l-40.16-7.68c-1.33-0.25-2.5-1.04-3.24-2.17s-0.99-2.52-0.69-3.84
			l6.27-27.74c0.61-2.69,3.29-4.38,5.98-3.77c2.69,0.61,4.38,3.29,3.77,5.98l-5.13,22.7l30.3,5.79l2.85-13.09
			c0.59-2.7,3.25-4.41,5.95-3.82c2.7,0.59,4.41,3.25,3.82,5.95l-3.88,17.85C426.64,149.75,424.58,151.35,422.27,151.35z"/>
	</g>
	<path class="st0" d="M352.09,35.43l76.41,9.34c11.52,1.41,18.94,12.9,15.49,23.98l-12.59,40.38c-2.75,8.81-11.54,14.27-20.66,12.83
		l-75.7-12.02c-11.21-1.78-18.23-13.11-14.81-23.94l11.88-37.7C334.8,39.75,343.2,34.34,352.09,35.43z"/>
	<g>
		<g>
			<g>
				<circle class="st2" cx="430.5" cy="105.92" r="26.5"/>
			</g>
			<g>
				<path class="st3" d="M430.5,81.92c13.25,0,24,10.75,24,24s-10.75,24-24,24s-24-10.75-24-24S417.24,81.92,430.5,81.92
					 M430.5,76.92c-15.99,0-29,13.01-29,29s13.01,29,29,29s29-13.01,29-29S446.49,76.92,430.5,76.92L430.5,76.92z"/>
			</g>
		</g>
		<g>
			<circle class="st3" cx="430.5" cy="105.92" r="3"/>
		</g>
		<g>
			<g>
				<path class="st3" d="M427.9,97.47c-0.25,0-0.51-0.06-0.74-0.2c-0.72-0.41-0.97-1.33-0.56-2.05l2.6-4.55
					c0.27-0.47,0.76-0.76,1.3-0.76l0,0c0.54,0,1.04,0.29,1.3,0.76l2.6,4.55c0.41,0.72,0.16,1.64-0.56,2.05
					c-0.72,0.41-1.63,0.16-2.05-0.56l-1.3-2.27l-1.3,2.27C428.92,97.2,428.42,97.47,427.9,97.47z"/>
			</g>
			<g>
				<path class="st3" d="M430.5,105.92c-0.83,0-1.5-0.67-1.5-1.5v-13c0-0.83,0.67-1.5,1.5-1.5s1.5,0.67,1.5,1.5v13
					C432,105.25,431.33,105.92,430.5,105.92z"/>
			</g>
		</g>
		<g>
			<path class="st3" d="M444.02,92.92c-0.43,0-0.86-0.18-1.15-0.54c-0.53-0.64-0.44-1.58,0.19-2.11l4.24-3.52
				c0.64-0.53,1.58-0.44,2.11,0.19s0.44,1.58-0.19,2.11l-4.24,3.52C444.7,92.81,444.36,92.92,444.02,92.92z"/>
		</g>
		<g>
			<path class="st3" d="M449.25,101.68c-0.58,0-1.13-0.34-1.38-0.91c-0.33-0.76,0.02-1.64,0.79-1.97l5.25-2.26
				c0.76-0.33,1.64,0.02,1.97,0.79c0.33,0.76-0.02,1.64-0.79,1.97l-5.25,2.26C449.65,101.64,449.45,101.68,449.25,101.68z"/>
		</g>
		<g>
			<path class="st3" d="M433.1,133.02c-0.77,0-1.43-0.59-1.49-1.38l-0.6-7.2c-0.07-0.83,0.54-1.55,1.37-1.62
				c0.82-0.06,1.55,0.54,1.62,1.37l0.6,7.2c0.07,0.83-0.54,1.55-1.37,1.62C433.18,133.02,433.14,133.02,433.1,133.02z"/>
		</g>
	</g>
	<path class="st4" d="M213.02,300.87l-3.64-1.55c-5.43-2.31-7.98-8.65-5.67-14.08l5.1-11.97c2.31-5.43,8.65-7.98,14.08-5.67
		l3.64,1.55c5.43,2.31,7.98,8.65,5.67,14.08l-5.1,11.97C224.79,300.63,218.45,303.18,213.02,300.87z"/>
</g>
<g>
	<path class="st0" d="M546.37,241.88c-11.39,3.09-20.51,19.82-16.38,31.06c3.75,10.19,17.41,13.22,31.62,16.38
		c18.51,4.11,24.98,0.18,38.96,5.08c11.4,4,19.33,10.89,24.04,15.77c2.84-4.41,5.68-8.82,8.52-13.23c-6.2-2.57-15.6-7.01-25.78-14.4
		c-10.33-7.48-12.24-11.29-23.15-20.33C566.41,247.46,556.39,239.16,546.37,241.88z"/>
	<g>
		<path class="st1" d="M684.1,327.05c-18.56,0-37.74-8.36-52.45-16.87c-2.39-1.38-3.21-4.44-1.82-6.83s4.44-3.21,6.83-1.82
			c15.52,8.98,44.79,22.38,66.35,11.21c15.44-8,21.49-26.26,32.98-80.76c8.8-41.74,16.63-84.54,23.27-127.22
			c0.42-2.73,2.97-4.6,5.71-4.17c2.73,0.42,4.6,2.98,4.17,5.71c-6.67,42.85-14.53,85.83-23.37,127.74
			c-11.41,54.08-18.05,77.14-38.17,87.57C700.16,325.46,692.19,327.05,684.1,327.05z"/>
	</g>
	<g>
		<path class="st1" d="M831.27,168.04c-0.31,0-0.63-0.03-0.94-0.09l-40.16-7.68c-1.33-0.25-2.5-1.04-3.24-2.17s-0.99-2.52-0.69-3.84
			l6.27-27.74c0.61-2.69,3.29-4.38,5.98-3.77c2.69,0.61,4.38,3.29,3.77,5.98l-5.13,22.7l30.3,5.79l2.85-13.09
			c0.59-2.7,3.25-4.41,5.95-3.82c2.7,0.59,4.41,3.25,3.82,5.95l-3.88,17.85C835.64,166.44,833.58,168.04,831.27,168.04z"/>
	</g>
	<path class="st0" d="M761.09,52.12l76.41,9.34c11.52,1.41,18.94,12.9,15.49,23.98l-12.59,40.38c-2.75,8.81-11.54,14.27-20.66,12.83
		l-75.7-12.02c-11.21-1.78-18.23-13.11-14.81-23.94l11.88-37.7C743.8,56.44,752.2,51.03,761.09,52.12z"/>
	<g>
		<g>
			<g>
				<circle class="st2" cx="839.5" cy="122.61" r="26.5"/>
			</g>
			<g>
				<path class="st3" d="M839.5,98.61c13.25,0,24,10.75,24,24s-10.75,24-24,24s-24-10.75-24-24S826.24,98.61,839.5,98.61
					 M839.5,93.61c-15.99,0-29,13.01-29,29s13.01,29,29,29s29-13.01,29-29S855.49,93.61,839.5,93.61L839.5,93.61z"/>
			</g>
		</g>
		<g>
			<circle class="st3" cx="839.5" cy="122.61" r="3"/>
		</g>
		<g>
			<g>
				<path class="st3" d="M836.9,114.16c-0.25,0-0.51-0.06-0.74-0.2c-0.72-0.41-0.97-1.33-0.56-2.05l2.6-4.55
					c0.27-0.47,0.76-0.76,1.3-0.76l0,0c0.54,0,1.04,0.29,1.3,0.76l2.6,4.55c0.41,0.72,0.16,1.64-0.56,2.05
					c-0.72,0.41-1.63,0.16-2.05-0.56l-1.3-2.27l-1.3,2.27C837.92,113.89,837.42,114.16,836.9,114.16z"/>
			</g>
			<g>
				<path class="st3" d="M839.5,122.61c-0.83,0-1.5-0.67-1.5-1.5v-13c0-0.83,0.67-1.5,1.5-1.5s1.5,0.67,1.5,1.5v13
					C841,121.94,840.33,122.61,839.5,122.61z"/>
			</g>
		</g>
		<g>
			<path class="st3" d="M853.02,109.61c-0.43,0-0.86-0.18-1.15-0.54c-0.53-0.64-0.44-1.58,0.19-2.11l4.24-3.52
				c0.64-0.53,1.58-0.44,2.11,0.19s0.44,1.58-0.19,2.11l-4.24,3.52C853.7,109.5,853.36,109.61,853.02,109.61z"/>
		</g>
		<g>
			<path class="st3" d="M858.25,118.37c-0.58,0-1.13-0.34-1.38-0.91c-0.33-0.76,0.02-1.64,0.79-1.97l5.25-2.26
				c0.76-0.33,1.64,0.02,1.97,0.79c0.33,0.76-0.02,1.64-0.79,1.97l-5.25,2.26C858.65,118.33,858.45,118.37,858.25,118.37z"/>
		</g>
		<g>
			<path class="st3" d="M842.1,149.71c-0.77,0-1.43-0.59-1.49-1.38l-0.6-7.2c-0.07-0.83,0.54-1.55,1.37-1.62
				c0.82-0.06,1.55,0.54,1.62,1.37l0.6,7.2c0.07,0.83-0.54,1.55-1.37,1.62C842.18,149.71,842.14,149.71,842.1,149.71z"/>
		</g>
	</g>
	<path class="st4" d="M622.02,317.56l-3.64-1.55c-5.43-2.31-7.98-8.65-5.67-14.08l5.1-11.97c2.31-5.43,8.65-7.98,14.08-5.67
		l3.64,1.55c5.43,2.31,7.98,8.65,5.67,14.08l-5.1,11.97C633.79,317.32,627.45,319.87,622.02,317.56z"/>
</g>
</svg>
