<?xml version="1.0" encoding="utf-8"?>
<!-- Generator: Adobe Illustrator 24.0.2, SVG Export Plug-In . SVG Version: 6.00 Build 0)  -->
<svg version="1.1" id="Layer_1" xmlns="http://www.w3.org/2000/svg" xmlns:xlink="http://www.w3.org/1999/xlink" x="0px" y="0px"
	 viewBox="0 0 355 446" style="enable-background:new 0 0 355 446;" xml:space="preserve">
<style type="text/css">
	.st0{fill:url(#SVGID_1_);}
	.st1{fill:#082847;}
	.st2{opacity:0.31;fill:url(#SVGID_2_);}
	.st3{fill:#F74D6B;}
	.st4{fill:#AFAFAF;}
	.st5{fill:#E0FF5C;}
	.st6{opacity:0.19;}
	.st7{fill:#2F3133;}
	.st8{fill:#5B6E84;}
	.st9{fill:#D82A36;}
	.st10{opacity:0.19;fill:#2F3133;}
	.st11{fill:none;}
	.st12{fill:#FCFAED;}
	.st13{opacity:0.47;fill:#AFAFAF;}
	.st14{fill:#DBDBDB;}
</style>
<g>
	<linearGradient id="SVGID_1_" gradientUnits="userSpaceOnUse" x1="176.5659" y1="415.6609" x2="173.8025" y2="24.1811">
		<stop  offset="0" style="stop-color:#ABABAB"/>
		<stop  offset="0.486" style="stop-color:#DBDBDB"/>
		<stop  offset="0.9581" style="stop-color:#ABABAB"/>
	</linearGradient>
	<path class="st0" d="M270.95,24.85H79.42C45.55,24.85,18,55.19,18,92.48v254.88c0,37.29,27.55,67.63,61.42,67.63h191.53
		c33.87,0,61.42-30.34,61.42-67.63V92.48C332.37,55.19,304.82,24.85,270.95,24.85z"/>
	<path class="st1" d="M306.77,84.57v220.52c0,18.85-16.04,34.12-35.82,34.12H79.42c-19.78,0-35.82-15.28-35.82-34.12V84.57
		c0-18.85,16.04-34.12,35.82-34.12h191.53C290.73,50.45,306.77,65.73,306.77,84.57z"/>
	<radialGradient id="SVGID_2_" cx="176.7202" cy="182.033" r="126.9762" gradientUnits="userSpaceOnUse">
		<stop  offset="0" style="stop-color:#BFFFE1"/>
		<stop  offset="0.9581" style="stop-color:#BFFFDC;stop-opacity:0"/>
	</radialGradient>
	<circle class="st2" cx="176.72" cy="182.03" r="126.98"/>
	<g>
		<path class="st3" d="M217,125.82c-0.37-3.67-2.73-9.43-7.75-10.72c-4.54-1.17-10.07,1.61-13.23,7.14
			c-3.15-5.54-8.69-8.32-13.23-7.14c-5.02,1.3-7.37,7.05-7.75,10.72c-0.84,8.34,7.36,17.64,20.79,22.8v0.14
			c0.06-0.02,0.12-0.05,0.18-0.07c0.06,0.02,0.12,0.05,0.18,0.07v-0.14C209.64,143.45,217.84,134.15,217,125.82z"/>
	</g>
	<g>
		<path class="st4" d="M68.38,371.29c1.92,1.16,3.43,2.43,4.76,3.55c2.43,2.03,4.35,3.64,7.69,3.91c3.51,0.28,5.76-1.14,8.37-2.79
			c2.74-1.73,5.84-3.69,10.79-3.96c4.02-0.22,6.32,0.85,8.74,1.98c2.02,0.94,4.31,2.01,8.17,2.54c6.04,0.83,10.07-0.39,15.17-1.92
			c1.85-0.56,3.77-1.13,5.93-1.66c9.28-2.24,19.35-2.45,29.98-0.66c-0.31-3.69-3.4-6.58-7.17-6.58H56.43
			c-1.77,0-3.39,0.63-4.64,1.69C58.27,367.24,63.81,368.54,68.38,371.29z"/>
		<path class="st4" d="M138.64,375.56c-2.09,0.5-3.96,1.07-5.78,1.61c-5.21,1.57-9.7,2.92-16.32,2.01
			c-4.25-0.58-6.74-1.74-8.94-2.76c-2.29-1.07-4.1-1.91-7.45-1.72c-4.26,0.23-6.92,1.92-9.5,3.55c-2.53,1.6-5.14,3.24-8.93,3.24
			c-0.36,0-0.73-0.01-1.11-0.04c-4.2-0.34-6.64-2.38-9.21-4.54c-1.32-1.11-2.69-2.25-4.43-3.3c-4.59-2.77-10.36-3.91-17.22-3.42
			c-0.34,0.84-0.53,1.75-0.53,2.71v5.85c0,3.98,3.22,7.2,7.2,7.2h104.39c3.98,0,7.2-3.22,7.2-7.2v-3.73
			C157.56,373.2,147.69,373.38,138.64,375.56z"/>
		<path class="st5" d="M167.99,372.28c-10.63-1.8-20.71-1.58-29.98,0.66c-2.16,0.52-4.08,1.1-5.93,1.66
			c-5.1,1.53-9.13,2.75-15.17,1.92c-3.85-0.53-6.14-1.6-8.17-2.54c-2.43-1.13-4.72-2.2-8.74-1.98c-4.95,0.28-8.05,2.24-10.79,3.96
			c-2.61,1.65-4.86,3.07-8.37,2.79c-3.34-0.27-5.26-1.88-7.69-3.91c-1.34-1.12-2.85-2.39-4.76-3.55c-4.56-2.75-10.11-4.05-16.58-3.9
			c-0.89,0.75-1.59,1.71-2.03,2.79c6.86-0.49,12.63,0.65,17.22,3.42c1.74,1.05,3.1,2.19,4.43,3.3c2.57,2.16,5.01,4.19,9.21,4.54
			c0.38,0.03,0.75,0.04,1.11,0.04c3.79,0,6.4-1.65,8.93-3.24c2.58-1.63,5.24-3.31,9.5-3.55c3.35-0.18,5.16,0.66,7.45,1.72
			c2.2,1.02,4.68,2.18,8.94,2.76c6.62,0.91,11.11-0.44,16.32-2.01c1.81-0.54,3.69-1.11,5.78-1.61c9.06-2.19,18.93-2.36,29.38-0.54
			v-2.12C168.02,372.69,168.01,372.48,167.99,372.28z"/>
	</g>
	<g class="st6">
		<rect x="218.7" y="356.11" class="st7" width="18.43" height="18.43"/>
		<rect x="244.82" y="356.11" class="st7" width="18.43" height="18.43"/>
		<rect x="270.93" y="356.11" class="st7" width="18.43" height="18.43"/>
		<rect x="270.93" y="381.2" class="st7" width="18.43" height="18.43"/>
		<rect x="244.82" y="381.2" class="st7" width="18.43" height="18.43"/>
		<rect x="218.7" y="381.2" class="st7" width="18.43" height="18.43"/>
	</g>
	<g>
		<rect x="217.17" y="354.58" class="st8" width="18.43" height="18.43"/>
		<rect x="243.28" y="354.58" class="st8" width="18.43" height="18.43"/>
		<rect x="269.39" y="354.58" class="st9" width="18.43" height="18.43"/>
		<rect x="269.39" y="379.67" class="st8" width="18.43" height="18.43"/>
		<rect x="243.28" y="379.67" class="st8" width="18.43" height="18.43"/>
		<rect x="217.17" y="379.67" class="st8" width="18.43" height="18.43"/>
	</g>
	<circle class="st10" cx="193.36" cy="377.36" r="9.98"/>
	<circle class="st9" cx="192.34" cy="375.83" r="9.98"/>
	<g>
		<g>
			<line class="st11" x1="184.39" y1="50.45" x2="171.61" y2="50.45"/>
			<path class="st12" d="M184.4,50.7v169.98c0,3.08-2.18,5.66-5.08,6.27c-0.42,0.09-0.87,0.13-1.32,0.13
				c-0.47,0-0.93-0.05-1.37-0.15c-2.88-0.62-5.03-3.19-5.03-6.25V50.7c0-0.09,0-0.17,0.01-0.26h12.78
				C184.4,50.53,184.4,50.62,184.4,50.7z"/>
		</g>
		<g>
			<path class="st12" d="M148.79,104.22c-3.93,0-8.67-0.46-9.59-4.47c-1.1-4.72,4.61-7.33,8.78-9.24c5.28-2.42,13.74-5.58,25.14-9.4
				c2.15-0.72,4.47,0.44,5.18,2.58c0.72,2.15-0.44,4.47-2.58,5.18c-8.57,2.87-14.62,5.08-18.91,6.78c4.18-0.33,9.86-0.92,17.59-1.92
				c2.25-0.29,4.3,1.29,4.59,3.53c0.29,2.24-1.29,4.3-3.53,4.59c-11.08,1.44-19.44,2.22-24.85,2.33
				C150.03,104.21,149.42,104.22,148.79,104.22z"/>
		</g>
		<g>
			<path class="st12" d="M142.01,130.27c-8.45,0-11.49-2.02-12.65-5.2c-1.76-4.8,2.86-9.34,7.07-12.76
				c4.74-3.84,11.89-8.49,21.87-14.22c1.97-1.13,4.47-0.45,5.59,1.52c1.13,1.96,0.45,4.47-1.51,5.59
				c-16.71,9.58-22.37,14.48-24.29,16.68c3.33,0.51,12.76,0.52,38.84-4.79c2.21-0.45,4.38,0.98,4.83,3.2
				c0.45,2.22-0.98,4.38-3.2,4.83C160.76,128.74,149.35,130.27,142.01,130.27z"/>
		</g>
		<g>
			<path class="st12" d="M126,156.19c-6.57,0-8.78-1.9-9.83-4.19c-2.08-4.53,2.41-9.19,4.1-10.94c4.43-4.6,12.67-10.91,24.5-18.76
				c1.89-1.25,4.43-0.74,5.68,1.15c1.25,1.89,0.74,4.43-1.15,5.68c-16.25,10.79-22.16,16.35-24.3,18.9
				c3.51,0.12,11.2-0.69,25.12-4.26c8.89-2.28,17.59-5.46,25.87-9.45c2.04-0.98,4.49-0.13,5.47,1.91c0.98,2.04,0.13,4.49-1.91,5.47
				c-8.76,4.22-17.97,7.59-27.38,10.01C139.46,154.95,131.3,156.19,126,156.19z"/>
		</g>
		<g>
			<path class="st12" d="M124.8,194.37c-2.88,0-5.55-0.73-7.67-2.64c-6.11-5.53-4.19-17.6,6.23-39.13c0.99-2.04,3.44-2.89,5.47-1.9
				c2.04,0.99,2.89,3.44,1.9,5.47c-12.25,25.31-8.28,29.32-8.11,29.48c0.67,0.6,7.75,5,50.67-25.89c1.84-1.32,4.4-0.9,5.72,0.93
				c1.32,1.84,0.9,4.4-0.93,5.72c-15.76,11.34-28.56,19.3-38.06,23.66C135.55,192.13,129.85,194.37,124.8,194.37z"/>
		</g>
		<g>
			<path class="st12" d="M207.14,105.76c-0.63,0-1.24-0.01-1.81-0.02c-5.41-0.11-13.78-0.89-24.85-2.33
				c-2.24-0.29-3.83-2.35-3.53-4.59c0.29-2.24,2.34-3.82,4.59-3.53c7.73,1,13.41,1.6,17.59,1.92c-4.28-1.7-10.34-3.91-18.91-6.78
				c-2.14-0.72-3.3-3.04-2.58-5.18c0.72-2.14,3.04-3.3,5.18-2.58c11.4,3.82,19.86,6.98,25.14,9.4c4.17,1.91,9.87,4.52,8.78,9.24
				C215.8,105.3,211.06,105.76,207.14,105.76z M209.3,102.13L209.3,102.13L209.3,102.13z"/>
		</g>
		<g>
			<path class="st12" d="M213.92,131.81c-7.34,0-18.75-1.53-36.55-5.15c-2.22-0.45-3.65-2.61-3.2-4.83c0.45-2.22,2.62-3.65,4.83-3.2
				c26.08,5.31,35.51,5.3,38.84,4.79c-1.92-2.2-7.58-7.09-24.29-16.68c-1.96-1.13-2.64-3.63-1.51-5.59
				c1.13-1.96,3.63-2.64,5.59-1.52c9.98,5.72,17.13,10.38,21.87,14.22c4.22,3.42,8.83,7.96,7.07,12.76
				C225.41,129.78,222.36,131.81,213.92,131.81z"/>
		</g>
		<g>
			<path class="st12" d="M229.93,157.73c-5.31,0-13.46-1.24-26.14-4.49c-9.41-2.42-18.63-5.78-27.38-10.01
				c-2.04-0.98-2.89-3.43-1.91-5.47c0.98-2.04,3.43-2.89,5.47-1.91c8.27,3.99,16.97,7.17,25.86,9.45
				c13.91,3.57,21.61,4.38,25.12,4.26c-2.14-2.55-8.05-8.11-24.3-18.9c-1.88-1.25-2.4-3.79-1.15-5.68c1.25-1.89,3.79-2.4,5.68-1.15
				c11.83,7.85,20.07,14.16,24.5,18.76c1.69,1.75,6.17,6.41,4.1,10.94C238.71,155.83,236.5,157.72,229.93,157.73z M232.14,151.37
				L232.14,151.37L232.14,151.37z"/>
		</g>
		<g>
			<path class="st12" d="M231.12,195.91c-5.05,0-10.74-2.24-15.23-4.3c-9.5-4.36-22.3-12.32-38.06-23.66
				c-1.84-1.32-2.25-3.88-0.93-5.72c1.32-1.84,3.88-2.25,5.72-0.93c42.92,30.89,50,26.49,50.67,25.89
				c0.18-0.16,4.15-4.17-8.11-29.48c-0.99-2.04-0.13-4.49,1.9-5.47c2.04-0.99,4.49-0.13,5.47,1.9
				c10.42,21.53,12.34,33.59,6.23,39.13C236.67,195.17,234,195.9,231.12,195.91z"/>
		</g>
		<g>
			<path class="st12" d="M127.59,257.6c-1.1,0-2.04-0.03-2.78-0.05c-5.05-0.14-12.67-0.36-20.69-5.03
				c-7.45-4.34-16.04-11.32-14.6-19.91c2.02-12.11,20.34-15,48.05-18.02c11.5-1.25,23.16-1.78,34.67-1.58
				c2.24,0.04,4.32,1.16,5.58,3.01c1.26,1.85,1.55,4.2,0.77,6.3c-2.57,6.92-9.03,19.78-23.5,28.16
				C144.1,256.84,133.48,257.6,127.59,257.6z M103.88,235.06c1.1,1.27,3.38,3.29,7.2,5.52c4.98,2.9,9.84,3.04,14.12,3.16
				c3.98,0.11,13.31,0.37,22.97-5.22c5.72-3.31,9.75-7.59,12.57-11.64c-7.23,0.18-14.48,0.67-21.67,1.45
				c-7.71,0.84-16.44,1.79-23.72,3.23C108.56,232.9,105.34,234.24,103.88,235.06z"/>
		</g>
		<g>
			<path class="st12" d="M228.35,257.6c-5.89,0-16.51-0.75-27.5-7.12c-14.47-8.38-20.93-21.24-23.5-28.16
				c-0.78-2.1-0.49-4.45,0.77-6.3c1.26-1.85,3.34-2.97,5.58-3.01c11.51-0.21,23.17,0.32,34.67,1.58
				c27.71,3.02,46.03,5.91,48.05,18.02c1.43,8.59-7.15,15.57-14.6,19.91c-8.03,4.68-15.65,4.89-20.69,5.03
				C230.39,257.57,229.45,257.6,228.35,257.6z M195.2,226.88c2.82,4.06,6.85,8.33,12.57,11.64c9.66,5.59,18.98,5.33,22.97,5.22
				c4.28-0.12,9.14-0.26,14.12-3.16c3.81-2.22,6.1-4.25,7.2-5.52c-1.46-0.81-4.68-2.15-11.46-3.49c-7.28-1.44-16.02-2.39-23.72-3.23
				C209.69,227.55,202.44,227.06,195.2,226.88z"/>
		</g>
		<g>
			<path class="st12" d="M136.33,287.34c-0.18,8.29-0.2,16.83-0.04,25.61c0.17,9,0.53,17.76,1.05,26.28h-19.59
				c0.08-8.37-0.05-17.01-0.4-25.92c-0.38-9.47-0.99-18.6-1.79-27.37c-9.51-1.52-14.79-10.3-12.86-16.91
				c1.84-6.31,10.29-10.86,16.75-8c5.46,2.42,6.71,8.91,6.84,9.61c1.35-5.74,6.38-9.84,12.11-9.96c6.35-0.13,11.35,4.67,12.47,9.5
				C152.44,277.04,146.56,285.81,136.33,287.34z"/>
		</g>
		<g>
			<path class="st12" d="M233.1,287.34c-0.18,8.29-0.2,16.83-0.04,25.61c0.17,9,0.53,17.76,1.05,26.28h-19.59
				c0.08-8.37-0.05-17.01-0.4-25.92c-0.38-9.47-0.99-18.6-1.79-27.37c-9.51-1.52-14.79-10.3-12.86-16.91
				c1.84-6.31,10.29-10.86,16.75-8c5.46,2.42,6.71,8.91,6.84,9.61c1.35-5.74,6.38-9.84,12.11-9.96c6.35-0.13,11.35,4.67,12.47,9.5
				C249.21,277.04,243.33,285.81,233.1,287.34z"/>
		</g>
	</g>
	<path class="st13" d="M31.57,337.68L31.57,337.68c-2.69,0-4.86-2.18-4.86-4.86V83.47c0-2.69,2.18-4.86,4.86-4.86h0
		c2.69,0,4.86,2.18,4.86,4.86v249.34C36.43,335.5,34.25,337.68,31.57,337.68z"/>
	<path class="st13" d="M319.31,337.68L319.31,337.68c-2.69,0-4.86-2.18-4.86-4.86V83.47c0-2.69,2.18-4.86,4.86-4.86l0,0
		c2.69,0,4.86,2.18,4.86,4.86v249.34C324.18,335.5,322,337.68,319.31,337.68z"/>
	<circle class="st14" cx="271.7" cy="37.9" r="7.42"/>
	<circle class="st14" cx="78.67" cy="37.9" r="7.42"/>
</g>
</svg>
