<?xml version="1.0" encoding="utf-8"?>
<!-- Generator: Adobe Illustrator 24.0.2, SVG Export Plug-In . SVG Version: 6.00 Build 0)  -->
<svg version="1.1" id="Layer_1" xmlns="http://www.w3.org/2000/svg" xmlns:xlink="http://www.w3.org/1999/xlink" x="0px" y="0px"
	 viewBox="0 0 1080 983" style="enable-background:new 0 0 1080 983;" xml:space="preserve">
<style type="text/css">
	.st0{fill:#091B47;}
	.st1{fill:#203675;}
	.st2{fill:#406991;}
	.st3{fill:#FFFFFF;}
	.st4{fill:#BCBCBC;}
	.st5{fill:#43484C;}
	.st6{opacity:0.12;}
	.st7{fill:#BECDEA;}
	.st8{fill:#D6DCE5;}
	.st9{fill:#9AA3AD;}
	.st10{fill:#D9DEE2;}
	.st11{fill:#DD2F2F;}
	.st12{fill:#6E83A0;}
	.st13{opacity:0.31;fill:#FFFFFF;}
	.st14{fill:#A0D33C;}
	.st15{fill:#EDF2F9;}
</style>
<g>
	<g>
		<g>
			<path class="st0" d="M1060.89,1685.54c-18.27,0-36.43-4.93-50.23-15.05c-28.03-20.55-30.26-54.66-33.09-159.37
				c-1.36-50.3-2.36-101.36-2.98-151.77l23.78-0.29c0.61,50.29,1.61,101.23,2.97,151.41c2.72,100.65,5.37,127.63,23.38,140.84
				c21.57,15.81,61.08,13.4,79.78-4.86c13.56-13.25,13.8-39.79,14.25-92.66c0.19-21.42-0.79-42.99-2.91-64.1l23.66-2.37
				c2.2,21.96,3.23,44.4,3.03,66.68c-0.52,59.45-0.78,89.3-21.41,109.46C1106.22,1678.01,1083.47,1685.54,1060.89,1685.54z"/>
		</g>
	</g>
	<g>
		<path class="st1" d="M1201.65,1571.12h-127.18c-14.13,0-25.58-11.45-25.58-25.58v-247.82c0-14.13,11.45-25.58,25.58-25.58h127.18
			c14.13,0,25.58,11.45,25.58,25.58v247.82C1227.24,1559.66,1215.78,1571.12,1201.65,1571.12z"/>
	</g>
	<g>
		<path class="st2" d="M1033.62,1281.35c-0.79-37.5-23.39-67.43-50.47-66.85c-27.08,0.57-48.39,31.44-47.59,68.93
			c0.52,24.7,10.51,46.11,25,57.69c4.24,3.38,6.59,8.6,6.71,14.03l0.31,14.4c0.22,10.42,8.84,18.68,19.26,18.46h0
			c10.42-0.22,18.68-8.84,18.46-19.26l-0.31-14.4c-0.11-5.42,2.02-10.74,6.11-14.3C1025.08,1327.86,1034.15,1306.04,1033.62,1281.35
			z"/>
	</g>
	<g>
		<g>
			<circle class="st3" cx="1201.97" cy="1500.39" r="69.85"/>
			<path class="st4" d="M1201.97,1576.19c-41.79,0-75.79-34-75.79-75.79s34-75.79,75.79-75.79c41.79,0,75.79,34,75.79,75.79
				S1243.76,1576.19,1201.97,1576.19z M1201.97,1436.49c-35.24,0-63.91,28.67-63.91,63.91s28.67,63.91,63.91,63.91
				c35.24,0,63.91-28.67,63.91-63.91S1237.21,1436.49,1201.97,1436.49z"/>
		</g>
		<g>
			<polygon class="st5" points="1236.15,1503.36 1196.03,1503.36 1196.03,1478.1 1204.94,1478.1 1204.94,1494.45 1236.15,1494.45 
							"/>
		</g>
	</g>
	<g class="st6">
		<path class="st7" d="M950.81,1299.76c-1.46-4.47-7.73-25.25,2.97-47.56c9.08-18.94,24.81-27.34,29.72-29.72
			c-4.28,12.31-9.2,25.23-14.86,38.64C962.82,1274.92,956.81,1287.81,950.81,1299.76z"/>
	</g>
</g>
<g>
	<g>
		<path class="st8" d="M924.15,1800.97C924.15,1800.97,924.14,1800.97,924.15,1800.97l11.64,25.38l124.88,133.48
			c5.01,5.35,11.89,7.04,15.37,3.78s2.25-10.24-2.75-15.59L947.62,1813.7L924.15,1800.97z"/>
		<g>
			
				<rect x="1232.44" y="2104.44" transform="matrix(0.7303 -0.6832 0.6832 0.7303 -1129.3663 1429.6227)" class="st9" width="26.53" height="81.06"/>
		</g>
		<g>
			<path class="st9" d="M1319.05,2150.02l-73.19,68.47c-5.35,5.01-13.74,4.73-18.75-0.62c-5.01-5.35-4.73-13.74,0.62-18.75
				l73.19-68.47c5.35-5.01,13.74-4.73,18.75,0.62C1324.68,2136.62,1324.4,2145.02,1319.05,2150.02z"/>
		</g>
		<g>
			<path class="st9" d="M1053.95,1911.62l-28.32,26.5c-5.26,4.92-13.5,4.64-18.42-0.61l-38.58-41.24
				c-4.92-5.26-4.64-13.5,0.61-18.42l28.32-26.5c5.26-4.92,13.5-4.64,18.42,0.61l38.58,41.24
				C1059.48,1898.45,1059.21,1906.7,1053.95,1911.62z"/>
		</g>
		<g>
			<g>
				<path class="st10" d="M1073.62,1882.07l172.22,184.09c16.96,18.13,20.16,42.66,7.15,54.83l-31.7,29.66
					c-13.01,12.17-37.28,7.34-54.23-10.78l-172.22-184.09c-16.96-18.13-20.16-42.66-7.15-54.83l31.7-29.66
					C1032.4,1859.12,1056.67,1863.95,1073.62,1882.07z"/>
			</g>
			<path class="st11" d="M1072.68,1886.95l122.51,130.95c-3.06,0.3-6.12,0.37-9.16,0.2c-30.1-1.73-44.51-26.77-75.52-27.93
				c-25.87-0.96-25,16.14-49.02,16.09c-4.8-0.01-9.93-0.7-15.21-1.99l-46.21-49.4c-15.63-16.7-18.57-39.32-6.59-50.53l29.21-27.33
				C1034.69,1865.8,1057.06,1870.25,1072.68,1886.95z"/>
			<g>
				<path class="st12" d="M1101.84,1912.23l9.06,9.69l-32.29,30.21c-1.92,1.8-5.5,1.09-8.01-1.59c-2.51-2.68-2.98-6.3-1.06-8.1
					L1101.84,1912.23z"/>
			</g>
			<g>
				<path class="st12" d="M1147.15,1960.66l9.06,9.69l-32.29,30.21c-1.92,1.8-5.5,1.09-8.01-1.59s-2.98-6.3-1.06-8.1
					L1147.15,1960.66z"/>
			</g>
			<g>
				<path class="st12" d="M1192.46,2009.1l9.06,9.69l-32.29,30.21c-1.92,1.8-5.5,1.09-8.01-1.59c-2.51-2.68-2.98-6.3-1.06-8.1
					L1192.46,2009.1z"/>
			</g>
			<path class="st13" d="M1218.9,2138.76l-12.23,11.44c-4.54,4.25-11.66,4.01-15.91-0.53l-206.14-220.35
				c-4.25-4.54-4.01-11.66,0.53-15.91l12.23-11.44L1218.9,2138.76z"/>
		</g>
	</g>
	<path class="st11" d="M914.12,1795.06c-5.66-2.05-14.4-4.87-25.42-6.99c-11.74-2.26-14.64-1.52-20.05-4.14
		c-13.14-6.36-22.8-23.63-18.32-30.33c4.21-6.3,21.83-4.59,32.54,3.47c5.74,4.32,6.46,8.18,14.59,19.05
		C903.83,1784.65,909.91,1790.99,914.12,1795.06z"/>
</g>
<g>
	<g>
		<g>
			<g>
				<path class="st0" d="M2258.63,1699.33c-18.27,0-36.43-4.93-50.23-15.05c-28.03-20.55-30.26-54.66-33.09-159.37
					c-1.36-50.3-2.36-101.36-2.98-151.77l23.78-0.29c0.61,50.29,1.61,101.23,2.97,151.41c2.72,100.65,5.37,127.63,23.38,140.84
					c21.57,15.81,61.08,13.4,79.78-4.86c13.56-13.25,13.8-39.79,14.25-92.66c0.19-21.42-0.79-42.99-2.91-64.1l23.66-2.37
					c2.2,21.96,3.23,44.4,3.03,66.68c-0.52,59.45-0.78,89.3-21.41,109.46C2303.97,1691.8,2281.22,1699.33,2258.63,1699.33z"/>
			</g>
		</g>
		<g>
			<path class="st1" d="M2399.4,1584.91h-127.18c-14.13,0-25.58-11.45-25.58-25.58v-247.82c0-14.13,11.45-25.58,25.58-25.58h127.18
				c14.13,0,25.58,11.45,25.58,25.58v247.82C2424.98,1573.46,2413.53,1584.91,2399.4,1584.91z"/>
		</g>
		<g>
			<path class="st2" d="M2231.37,1295.14c-0.79-37.5-23.39-67.43-50.47-66.85c-27.08,0.57-48.39,31.44-47.59,68.93
				c0.52,24.7,10.51,46.11,25,57.69c4.24,3.38,6.59,8.6,6.71,14.03l0.31,14.4c0.22,10.42,8.84,18.68,19.26,18.46l0,0
				c10.42-0.22,18.68-8.84,18.46-19.26l-0.31-14.4c-0.11-5.42,2.02-10.74,6.11-14.3
				C2222.82,1341.65,2231.89,1319.84,2231.37,1295.14z"/>
		</g>
		<g>
			<g>
				<circle class="st3" cx="2399.72" cy="1514.19" r="69.85"/>
				<path class="st4" d="M2399.72,1589.98c-41.79,0-75.79-34-75.79-75.79s34-75.79,75.79-75.79s75.79,34,75.79,75.79
					S2441.51,1589.98,2399.72,1589.98z M2399.72,1450.28c-35.24,0-63.91,28.67-63.91,63.91c0,35.24,28.67,63.91,63.91,63.91
					c35.24,0,63.91-28.67,63.91-63.91C2463.62,1478.95,2434.96,1450.28,2399.72,1450.28z"/>
			</g>
			<g>
				<polygon class="st5" points="2433.9,1517.16 2393.77,1517.16 2393.77,1491.89 2402.69,1491.89 2402.69,1508.24 2433.9,1508.24 
									"/>
			</g>
		</g>
		<g class="st6">
			<path class="st7" d="M2148.55,1313.55c-1.46-4.47-7.73-25.25,2.97-47.56c9.08-18.94,24.81-27.34,29.72-29.72
				c-4.28,12.31-9.2,25.23-14.86,38.64C2160.56,1288.72,2154.56,1301.6,2148.55,1313.55z"/>
		</g>
	</g>
	<g>
		<path class="st14" d="M2347.66,1578.64l-25.78-30.37l7.17-39.19l-37.55-13.36l-13.36-37.55l-39.19,7.17l-30.37-25.78l-30.37,25.78
			l-39.19-7.17l-13.36,37.55l-37.55,13.36l7.17,39.19l-25.78,30.37l25.78,30.37l-7.17,39.19l37.55,13.36l13.36,37.55l39.19-7.17
			l30.37,25.78l30.37-25.78l39.19,7.17l13.36-37.55l37.55-13.36l-7.17-39.19L2347.66,1578.64z M2191.01,1657.28l-65.75-84.4
			l29.3-22.82l37.96,48.73l70.69-81.7l28.08,24.3L2191.01,1657.28z"/>
		<polygon class="st3" points="2192.51,1598.79 2154.56,1550.06 2125.26,1572.88 2191.01,1657.28 2291.28,1541.39 2263.2,1517.09 		
			"/>
	</g>
</g>
<g>
	<g>
		<g>
			<path class="st8" d="M2121.89,1814.76C2121.89,1814.76,2121.89,1814.76,2121.89,1814.76l11.64,25.38l124.88,133.48
				c5.01,5.35,11.89,7.04,15.37,3.78s2.25-10.24-2.75-15.59l-125.66-134.32L2121.89,1814.76z"/>
			<g>
				
					<rect x="2430.18" y="2118.23" transform="matrix(0.7303 -0.6832 0.6832 0.7303 -815.7059 2251.6108)" class="st9" width="26.53" height="81.06"/>
			</g>
			<g>
				<path class="st9" d="M2516.8,2163.82l-73.19,68.47c-5.35,5.01-13.74,4.73-18.75-0.62c-5-5.35-4.73-13.74,0.62-18.75l73.19-68.47
					c5.35-5.01,13.74-4.73,18.75,0.62S2522.15,2158.81,2516.8,2163.82z"/>
			</g>
			<g>
				<path class="st9" d="M2251.7,1925.41l-28.32,26.5c-5.26,4.92-13.5,4.64-18.42-0.61l-38.58-41.24
					c-4.92-5.26-4.64-13.5,0.61-18.42l28.32-26.5c5.26-4.92,13.5-4.64,18.42,0.61l38.58,41.24
					C2257.23,1912.25,2256.95,1920.49,2251.7,1925.41z"/>
			</g>
			<g>
				<g>
					<path class="st10" d="M2271.37,1895.86l172.22,184.09c16.96,18.13,20.16,42.66,7.15,54.83l-31.7,29.66
						c-13.01,12.17-37.28,7.34-54.23-10.78l-172.22-184.09c-16.96-18.13-20.16-42.66-7.15-54.83l31.7-29.66
						C2230.14,1872.92,2254.41,1877.74,2271.37,1895.86z"/>
				</g>
				<path class="st11" d="M2270.43,1900.74l122.51,130.95c-3.06,0.3-6.12,0.37-9.16,0.2c-30.1-1.73-44.51-26.77-75.52-27.93
					c-25.87-0.96-25,16.14-49.02,16.09c-4.8-0.01-9.93-0.7-15.21-1.99l-46.21-49.4c-15.63-16.7-18.57-39.32-6.59-50.53l29.21-27.33
					C2232.44,1879.59,2254.8,1884.04,2270.43,1900.74z"/>
				<g>
					<path class="st12" d="M2299.58,1926.02l9.06,9.69l-32.29,30.21c-1.92,1.8-5.5,1.09-8.01-1.59c-2.51-2.68-2.98-6.3-1.06-8.1
						L2299.58,1926.02z"/>
				</g>
				<g>
					<path class="st12" d="M2344.9,1974.46l9.06,9.69l-32.29,30.21c-1.92,1.8-5.5,1.09-8.01-1.59c-2.51-2.68-2.98-6.3-1.06-8.1
						L2344.9,1974.46z"/>
				</g>
				<g>
					<path class="st12" d="M2390.21,2022.89l9.06,9.69l-32.29,30.21c-1.92,1.8-5.5,1.09-8.01-1.59c-2.51-2.68-2.98-6.3-1.06-8.1
						L2390.21,2022.89z"/>
				</g>
				<path class="st13" d="M2416.65,2152.55l-12.23,11.44c-4.54,4.25-11.66,4.01-15.91-0.53l-206.14-220.35
					c-4.25-4.54-4.01-11.66,0.53-15.91l12.23-11.44L2416.65,2152.55z"/>
			</g>
		</g>
		<path class="st11" d="M2111.86,1808.86c-5.66-2.05-14.4-4.87-25.42-6.99c-11.74-2.26-14.64-1.52-20.05-4.14
			c-13.14-6.36-22.8-23.63-18.32-30.33c4.21-6.3,21.83-4.59,32.54,3.47c5.74,4.32,6.46,8.18,14.59,19.05
			C2101.58,1798.45,2107.65,1804.78,2111.86,1808.86z"/>
	</g>
	<g>
		<path class="st14" d="M2347.66,2130.38l-25.78-30.37l7.17-39.19l-37.55-13.36l-13.36-37.55l-39.19,7.17l-30.37-25.78l-30.37,25.78
			l-39.19-7.17l-13.36,37.55l-37.55,13.36l7.17,39.19l-25.78,30.37l25.78,30.37l-7.17,39.19l37.55,13.36l13.36,37.55l39.19-7.17
			l30.37,25.78l30.37-25.78l39.19,7.17l13.36-37.55l37.55-13.36l-7.17-39.19L2347.66,2130.38z M2191.01,2209.03l-65.75-84.4
			l29.3-22.82l37.96,48.73l70.69-81.7l28.08,24.3L2191.01,2209.03z"/>
		<polygon class="st3" points="2192.51,2150.53 2154.56,2101.8 2125.26,2124.62 2191.01,2209.03 2291.28,2093.13 2263.2,2068.83 		
			"/>
	</g>
</g>
<g>
	<path class="st0" d="M701.36,488.56c-21.14,40.65-44.06,107.49-51.89,222.44H475.22c3.05-53.03-11.43-82.68-25.95-100.11
		c-33-39.62-87.98-42.43-92.68-77.84c-0.22-1.65-2.14-18.08,7.41-25.95c22.03-18.11,77.16,32.38,92.68,18.54
		c9.62-8.57-4.81-33.95-25.95-114.92c-10.51-40.33-14.27-62.19-3.7-70.44c6.92-5.43,18.46-3.76,25.95,0
		c16.49,8.24,12.57,28.78,29.65,66.73c6.05,13.41,15.57,34.57,22.24,33.35c3.73-0.68,7.65-8.49,11.14-88.98
		c2.16-50.22,1.57-70.79,14.81-77.84c9.14-4.87,21.7-2.03,29.68,3.7c14.92,10.76,14.03,32.54,14.81,63.03
		c1.46,56.06,7.51,103.65,11.14,103.79c3.16,0.14,6.27-36.03,22.24-88.98c8.27-27.43,15.35-43.97,29.65-48.19
		c6.76-1.97,16.03-1.49,22.24,3.7c10.78,9.03,6.54,28.06,0,66.73c-12.87,76.03-11.08,87.68-7.41,88.98
		c3.62,1.3,13.16-6.03,18.14-14.19c0.16-0.22,0.24-0.38,0.41-0.62c13.97-23.62,17.05-37.51,29.65-40.79
		c5.73-1.49,13.95-0.92,18.54,3.7C733.91,428.56,708.42,474.96,701.36,488.56z"/>
	<path class="st15" d="M604.39,711h-92.87c-19.11-63.6-16.19-82.84-8.49-87.11c8.73-4.89,19.92,11.57,48.19,14.81
		c36.22,4.16,56.03-18.49,66.73-11.11C625.41,632.73,627.25,651.7,604.39,711z"/>
	<path class="st15" d="M495.61,560.85c-8.04,9.16-1.17,31.58,11.12,44.49c16.28,17.1,40.51,15.82,59.31,14.83
		c21.83-1.15,44.17-2.33,51.9-18.54c7.87-16.5-2.83-41.4-18.54-48.19c-12.24-5.3-18.67,4.22-44.49,7.41
		C520.21,565.15,503.92,551.39,495.61,560.85z"/>
	<path class="st15" d="M473.37,579.39c7.61-7.29,5.43-26.57-3.71-33.36c-7.09-5.27-13.37,0.71-29.66-3.71
		c-13.25-3.59-18.21-10.03-22.24-7.41c-4.49,2.9-3.59,14.22,0,22.24C427.38,578.64,462.35,589.94,473.37,579.39z"/>
	<path class="st15" d="M376.98,520.08c5.36-2.68,21.26,9.42,18.54,18.54c-1.6,5.37-9.57,9.35-14.83,7.41
		C371.76,542.73,371.63,522.75,376.98,520.08z"/>
	<path class="st15" d="M461.61,463.72c3.61-4.67,15.09-3.84,22.52,1.16c9.72,6.54,6.62,16.24,15.26,35.57
		c9.79,21.9,22.39,28.75,18.94,35.15c-2.81,5.2-14.15,6.29-22.1,2.52c-9.08-4.31-9.26-12.85-18.94-35.15
		C465.98,476.94,457.65,468.85,461.61,463.72z"/>
	<path class="st15" d="M632.48,457.22c-4.09-4.26-15.41-2.21-22.27,3.55c-8.97,7.54-4.85,16.86-11.38,36.99
		c-7.4,22.82-19.2,30.97-15.09,36.97c3.34,4.87,14.74,4.75,22.24,0.16c8.57-5.25,7.83-13.76,15.09-36.97
		C629.54,470.82,636.96,461.9,632.48,457.22z"/>
	<path class="st15" d="M540.1,442.23c5.82-5.38,16.44-7.94,22.24-3.71c8.77,6.4-2.1,22.08,0,55.61c1.39,22.19,7.29,33.31,0,40.78
		c-4.5,4.61-12.9,6.69-18.54,3.71c-7.57-4-5.73-14.8-7.41-51.9C535.05,457.17,533.18,448.62,540.1,442.23z"/>
	<path class="st15" d="M665.76,499.97c5.66-0.46,12.73,2.67,13.57,7.03c1.25,6.43-12.31,9.12-24.88,24.58
		c-11.46,14.11-12.11,26.57-17.66,26.29c-4.1-0.2-7.98-7.22-8.26-13.39c-0.29-6.52,3.56-9.45,17.66-26.29
		C657.84,504.3,660.13,500.43,665.76,499.97z"/>
	<path class="st15" d="M441.15,395.72c2.38-3.85,10.18-4.96,14.69-2.01c4,2.62,2.98,6.86,6.18,17.86
		c4.11,14.13,9.09,18.48,6.68,21.54c-2.45,3.11-10.55,2.29-15.19-1.67c-3.27-2.79-2.98-5.57-5.68-14.19
		C443.25,402.6,438.9,399.35,441.15,395.72z"/>
	<path class="st15" d="M642.96,384.6c-2.38-3.85-10.18-4.96-14.69-2.01c-4,2.62-2.98,6.86-6.18,17.86
		c-4.11,14.13-9.09,18.48-6.68,21.54c2.45,3.11,10.55,2.29,15.19-1.67c3.27-2.79,2.98-5.57,5.68-14.19
		C640.86,391.48,645.2,388.23,642.96,384.6z"/>
	<path class="st15" d="M536.39,353.25c5.01-5.83,18.31-5.56,22.24,0c3.81,5.38-4.2,11.41-3.71,25.95c0.43,12.6,6.73,16.6,3.71,22.24
		c-4.16,7.76-21.16,9.73-25.95,3.71c-3.65-4.59,2.75-10.1,3.71-25.95C537.31,363.98,532.05,358.3,536.39,353.25z"/>
	<path class="st15" d="M692.09,449.64c5.1-3.65,13.41-2.98,14.83,0c1.62,3.42-7.23,6.92-11.12,18.54
		c-2.71,8.08-0.3,11.94-3.71,14.83c-5.19,4.4-17.4,1.03-18.54-3.71c-0.88-3.64,5.55-5.02,11.12-14.83
		C689.13,456.64,687.72,452.77,692.09,449.64z"/>
</g>
<g>
	<g>
		<path class="st0" d="M1664.53,377.56c-21.14,40.65-44.06,107.49-51.89,222.44h-174.25c3.05-53.03-11.43-82.68-25.95-100.11
			c-33-39.62-87.98-42.43-92.68-77.84c-0.22-1.65-2.14-18.08,7.41-25.95c22.03-18.11,77.16,32.38,92.68,18.54
			c9.62-8.57-4.81-33.95-25.95-114.92c-10.51-40.33-14.27-62.19-3.7-70.44c6.92-5.43,18.46-3.76,25.95,0
			c16.49,8.24,12.57,28.78,29.65,66.73c6.05,13.41,15.57,34.57,22.24,33.35c3.73-0.68,7.65-8.49,11.14-88.98
			c2.16-50.22,1.57-70.79,14.81-77.84c9.14-4.87,21.7-2.03,29.68,3.7c14.92,10.76,14.03,32.54,14.81,63.03
			c1.46,56.06,7.51,103.65,11.14,103.79c3.16,0.14,6.27-36.03,22.24-88.98c8.27-27.43,15.35-43.97,29.65-48.19
			c6.76-1.97,16.03-1.49,22.24,3.7c10.78,9.03,6.54,28.06,0,66.73c-12.87,76.03-11.08,87.68-7.41,88.98
			c3.62,1.3,13.16-6.03,18.14-14.19c0.16-0.22,0.24-0.38,0.41-0.62c13.97-23.62,17.05-37.51,29.65-40.79
			c5.73-1.49,13.95-0.92,18.54,3.7C1697.07,317.56,1671.59,363.96,1664.53,377.56z"/>
		<path class="st15" d="M1567.56,600h-92.87c-19.11-63.6-16.19-82.84-8.49-87.11c8.73-4.89,19.92,11.57,48.19,14.81
			c36.22,4.16,56.03-18.49,66.73-11.11C1588.58,521.73,1590.42,540.7,1567.56,600z"/>
		<path class="st15" d="M1458.78,449.85c-8.04,9.16-1.17,31.58,11.12,44.49c16.28,17.1,40.51,15.82,59.31,14.83
			c21.83-1.15,44.17-2.33,51.9-18.54c7.87-16.5-2.83-41.4-18.54-48.19c-12.24-5.3-18.67,4.22-44.49,7.41
			C1483.38,454.15,1467.09,440.39,1458.78,449.85z"/>
		<path class="st15" d="M1436.54,468.39c7.61-7.29,5.43-26.57-3.71-33.36c-7.09-5.27-13.37,0.71-29.66-3.71
			c-13.25-3.59-18.21-10.03-22.24-7.41c-4.49,2.9-3.59,14.22,0,22.24C1390.55,467.64,1425.52,478.94,1436.54,468.39z"/>
		<path class="st15" d="M1340.15,409.08c5.36-2.68,21.26,9.42,18.54,18.54c-1.6,5.37-9.57,9.35-14.83,7.41
			C1334.93,431.73,1334.8,411.75,1340.15,409.08z"/>
		<path class="st15" d="M1424.78,352.72c3.61-4.67,15.09-3.84,22.52,1.16c9.72,6.54,6.62,16.24,15.26,35.57
			c9.79,21.9,22.39,28.75,18.94,35.15c-2.81,5.2-14.15,6.29-22.1,2.52c-9.08-4.31-9.26-12.85-18.94-35.15
			C1429.15,365.94,1420.82,357.85,1424.78,352.72z"/>
		<path class="st15" d="M1595.65,346.22c-4.09-4.26-15.41-2.21-22.27,3.55c-8.97,7.54-4.85,16.86-11.38,36.99
			c-7.4,22.82-19.2,30.97-15.09,36.97c3.34,4.87,14.74,4.75,22.24,0.16c8.57-5.25,7.83-13.76,15.09-36.97
			C1592.71,359.82,1600.13,350.9,1595.65,346.22z"/>
		<path class="st15" d="M1503.27,331.23c5.82-5.38,16.44-7.94,22.24-3.71c8.77,6.4-2.1,22.08,0,55.61c1.39,22.19,7.29,33.31,0,40.78
			c-4.5,4.61-12.9,6.69-18.54,3.71c-7.57-4-5.73-14.8-7.41-51.9C1498.22,346.17,1496.35,337.62,1503.27,331.23z"/>
		<path class="st15" d="M1628.93,388.97c5.66-0.46,12.73,2.67,13.57,7.03c1.25,6.43-12.31,9.12-24.88,24.58
			c-11.46,14.11-12.11,26.57-17.66,26.29c-4.1-0.2-7.98-7.22-8.26-13.39c-0.29-6.52,3.56-9.45,17.66-26.29
			C1621.01,393.3,1623.3,389.43,1628.93,388.97z"/>
		<path class="st15" d="M1404.32,284.72c2.38-3.85,10.18-4.96,14.69-2.01c4,2.62,2.98,6.86,6.18,17.86
			c4.11,14.13,9.09,18.48,6.68,21.54c-2.45,3.11-10.55,2.29-15.19-1.67c-3.27-2.79-2.98-5.57-5.68-14.19
			C1406.42,291.6,1402.07,288.35,1404.32,284.72z"/>
		<path class="st15" d="M1606.13,273.6c-2.38-3.85-10.18-4.96-14.69-2.01c-4,2.62-2.98,6.86-6.18,17.86
			c-4.11,14.13-9.09,18.48-6.68,21.54c2.45,3.11,10.55,2.29,15.19-1.67c3.27-2.79,2.98-5.57,5.68-14.19
			C1604.03,280.48,1608.37,277.23,1606.13,273.6z"/>
		<path class="st15" d="M1499.56,242.25c5.01-5.83,18.31-5.56,22.24,0c3.81,5.38-4.2,11.41-3.71,25.95
			c0.43,12.6,6.73,16.6,3.71,22.24c-4.16,7.76-21.16,9.73-25.95,3.71c-3.65-4.59,2.75-10.1,3.71-25.95
			C1500.48,252.98,1495.22,247.3,1499.56,242.25z"/>
		<path class="st15" d="M1655.26,338.64c5.1-3.65,13.41-2.98,14.83,0c1.62,3.42-7.23,6.92-11.12,18.54
			c-2.71,8.08-0.3,11.94-3.71,14.83c-5.19,4.4-17.4,1.03-18.54-3.71c-0.88-3.64,5.55-5.02,11.12-14.83
			C1652.29,345.64,1650.89,341.77,1655.26,338.64z"/>
	</g>
	<g>
		<path class="st14" d="M1555.59,539.08l-25.78-30.37l7.17-39.19l-37.55-13.36l-13.36-37.55l-39.19,7.17l-30.37-25.78l-30.37,25.78
			l-39.19-7.17l-13.36,37.55l-37.55,13.36l7.17,39.19l-25.78,30.37l25.78,30.37l-7.17,39.19l37.55,13.36l13.36,37.55l39.19-7.17
			l30.37,25.78l30.37-25.78l39.19,7.17l13.36-37.55l37.55-13.36l-7.17-39.19L1555.59,539.08z M1398.94,617.73l-65.75-84.4
			l29.3-22.82l37.96,48.73l70.69-81.7l28.08,24.3L1398.94,617.73z"/>
		<polygon class="st3" points="1400.44,559.23 1362.49,510.5 1333.19,533.32 1398.94,617.73 1499.22,501.83 1471.13,477.53 		"/>
	</g>
</g>
</svg>
