<?xml version="1.0" encoding="utf-8"?>
<!-- Generator: Adobe Illustrator 24.0.2, SVG Export Plug-In . SVG Version: 6.00 Build 0)  -->
<svg version="1.1" id="Layer_1" xmlns="http://www.w3.org/2000/svg" xmlns:xlink="http://www.w3.org/1999/xlink" x="0px" y="0px"
	 viewBox="0 0 1080 983" style="enable-background:new 0 0 1080 983;" xml:space="preserve">
<style type="text/css">
	.st0{fill:#D6DCE5;}
	.st1{fill:#9AA3AD;}
	.st2{fill:#D9DEE2;}
	.st3{fill:#DD2F2F;}
	.st4{fill:#6E83A0;}
	.st5{opacity:0.31;fill:#FFFFFF;}
	.st6{fill:#A0D33C;}
	.st7{fill:#FFFFFF;}
</style>
<g>
	<g>
		<g>
			<path class="st0" d="M417.89,289.76C417.89,289.76,417.89,289.76,417.89,289.76l11.64,25.38l124.88,133.48
				c5.01,5.35,11.89,7.04,15.37,3.78c3.49-3.26,2.25-10.24-2.75-15.59L441.37,302.49L417.89,289.76z"/>
			<g>
				
					<rect x="726.18" y="593.23" transform="matrix(0.7303 -0.6832 0.6832 0.7303 -233.5099 676.126)" class="st1" width="26.53" height="81.06"/>
			</g>
			<g>
				<path class="st1" d="M812.8,638.82l-73.19,68.47c-5.35,5.01-13.74,4.73-18.75-0.62c-5.01-5.35-4.73-13.74,0.62-18.75
					l73.19-68.47c5.35-5.01,13.74-4.73,18.75,0.62C818.43,625.42,818.15,633.81,812.8,638.82z"/>
			</g>
			<g>
				<path class="st1" d="M547.7,400.41l-28.32,26.5c-5.26,4.92-13.5,4.64-18.42-0.61l-38.58-41.24c-4.92-5.26-4.64-13.5,0.61-18.42
					l28.32-26.5c5.26-4.92,13.5-4.64,18.42,0.61l38.58,41.24C553.23,387.25,552.95,395.49,547.7,400.41z"/>
			</g>
			<g>
				<g>
					<path class="st2" d="M567.37,370.86l172.22,184.09c16.96,18.13,20.16,42.66,7.15,54.83l-31.7,29.66
						c-13.01,12.17-37.28,7.34-54.23-10.78L488.58,444.57c-16.96-18.13-20.16-42.66-7.15-54.83l31.7-29.66
						C526.14,347.91,550.41,352.74,567.37,370.86z"/>
				</g>
				<path class="st3" d="M566.43,375.74l122.51,130.95c-3.06,0.3-6.12,0.37-9.16,0.2c-30.1-1.73-44.51-26.77-75.52-27.93
					c-25.87-0.96-25,16.14-49.02,16.09c-4.8-0.01-9.93-0.7-15.21-1.99l-46.21-49.4c-15.63-16.7-18.57-39.32-6.59-50.53l29.21-27.33
					C528.44,354.59,550.8,359.04,566.43,375.74z"/>
				<g>
					<path class="st4" d="M595.58,401.02l9.06,9.69l-32.29,30.21c-1.92,1.8-5.5,1.09-8.01-1.59c-2.51-2.68-2.98-6.3-1.06-8.1
						L595.58,401.02z"/>
				</g>
				<g>
					<path class="st4" d="M640.89,449.46l9.06,9.69l-32.29,30.21c-1.92,1.8-5.5,1.09-8.01-1.59s-2.98-6.3-1.06-8.1L640.89,449.46z"
						/>
				</g>
				<g>
					<path class="st4" d="M686.21,497.89l9.06,9.69l-32.29,30.21c-1.92,1.8-5.5,1.09-8.01-1.59s-2.98-6.3-1.06-8.1L686.21,497.89z"
						/>
				</g>
				<path class="st5" d="M712.65,627.55L700.42,639c-4.54,4.25-11.66,4.01-15.91-0.53L478.37,418.12
					c-4.25-4.54-4.01-11.66,0.53-15.91l12.23-11.44L712.65,627.55z"/>
			</g>
		</g>
		<path class="st3" d="M407.86,283.86c-5.66-2.05-14.4-4.87-25.42-6.99c-11.74-2.26-14.64-1.52-20.05-4.14
			c-13.14-6.36-22.8-23.63-18.32-30.33c4.21-6.3,21.83-4.59,32.54,3.47c5.74,4.32,6.46,8.18,14.59,19.05
			C397.58,273.45,403.65,279.78,407.86,283.86z"/>
	</g>
	<g>
		<path class="st6" d="M643.66,605.38l-25.78-30.37l7.17-39.19l-37.55-13.36l-13.36-37.55l-39.19,7.17l-30.37-25.78l-30.37,25.78
			l-39.19-7.17l-13.36,37.55l-37.55,13.36l7.17,39.19l-25.78,30.37l25.78,30.37l-7.17,39.19l37.55,13.36l13.36,37.55l39.19-7.17
			l30.37,25.78l30.37-25.78l39.19,7.17l13.36-37.55l37.55-13.36l-7.17-39.19L643.66,605.38z M487.01,684.03l-65.75-84.4l29.3-22.82
			l37.96,48.73l70.69-81.7l28.08,24.3L487.01,684.03z"/>
		<polygon class="st7" points="488.51,625.53 450.56,576.8 421.26,599.62 487.01,684.03 587.28,568.13 559.2,543.83 		"/>
	</g>
</g>
</svg>
