<svg xmlns="http://www.w3.org/2000/svg" viewBox="0 0 512.003 512.003"><path d="M506.388 269.6c-2.239-23.261-10.61-41.933-28.519-56.541-3.167-2.583-6.229-5.406-9.728-7.453-8.15-4.766-10.494-11.493-9.387-20.698 2.875-23.903-.531-47.673-2.717-71.426-.543-5.907-2.604-11.674-4.75-20.857-3.098 6.518-5.007 9.931-6.389 13.544-7.057 18.449-13.749 37.042-21.089 55.376-1.609 4.02-2.589 8.924-6.702 11.845a3.163 3.163 0 01-.263.406c.364 1.205-.489 2.314-1.572 2.716-.948.352-2.075.231-2.788-.54a2.24 2.24 0 01-.343-.501c-.066.014-.125.033-.193.046-1.279-2.675-2.819-5.491-4.006-8.447-4.806-11.969-9.322-24.058-14.377-35.919-1.17-2.746-2.973-6.413-9.06-4.641-1.711 7-3.031 14.986-5.679 22.505a106.04 106.04 0 01-1.567 4.138c-.905 3.665-2.254 7.392-4.472 9.894a160.092 160.092 0 01-4.271 7.897c-.281.487-.714.887-1.259 1.241-.487.79-.99 1.568-1.521 2.323-1.398 1.986-4.23 1.952-5.723.613-.333.139-.668.283-1.007.439-1.274-13.427-2.073-24.903-3.506-36.299-2.692-21.406-10.006-40.997-24.392-57.44-1.985-2.269-5.133-3.521-10.228-6.885 1.065 10.263 2.389 17.597 2.42 24.938.024 5.409.131 11.265-1.205 16.415-.083.427-.178.855-.304 1.288a3.642 3.642 0 01-.329.768c-.174.489-.358.972-.566 1.443-6.319 14.308-14.027 28.021-21.614 41.731-1.342 2.425-4.802 3.678-8.087 6.054-2.872-5.502-4.948-9.741-7.253-13.85-8.954-15.963-21.66-27.935-38.373-35.494-2.967-1.342-6.199-3.08-10.101.602 3.186 8.397 6.939 16.993 9.688 25.898 2.816 9.127 3.734 18.569.993 28.221-4.109 1.678-7.77 4.236-11.61 4.543-7.806.625-15.692.508-23.522.789-.102.037-.199.082-.301.117-2.544.876-4.843.756-7.194.319-1.752.148-3.5.325-5.24.564-12.485 1.723-25.245 2.248-36.739 9.676-15.017 9.704-26.546 22.858-39.032 35.141-2.888 2.84-5.792 5.665-8.687 8.498a82.252 82.252 0 01-1.876 2.287c-2.697 3.142-6.033 6.298-9.689 9.027-1.013.988-2.021 1.98-3.034 2.968-2.433 2.374-5.712 4.276-7.228 7.126-7.107 13.366-16.843 23.874-28.62 33.629-11.797 9.771-20.961 22.782-30.951 34.65-5.2 6.179-9.234 13.36-14.578 19.395-27.25 30.776-19.694 73.285 23.255 90.07 18.3 7.152 36.341 1.697 51.905-8.712 11.335-7.581 22.007-15.826 34.867-20.956 5.551-2.215 9.93-7.218 15.331-10.006 5.946-3.069 12.272-5.883 18.762-7.302 9.235-2.019 13.859.699 18.463 8.971 1.938 3.483 3.447 7.205 5.15 10.818 3.445-1.129 5.902.53 8.212 2.667a2.7 2.7 0 011.368 1.31l.082.08c.483.296.892.686 1.194 1.146 2.708 2.527 5.653 4.506 10.169 2.272a.675.675 0 01.184-.051 2.98 2.98 0 01.965-.318c1.301-.196 2.853.667 3.125 2.04.056.286.129.568.202.85.636.548 1.246 1.098 1.76 1.557 2.395 2.138 4.441 4.667 6.867 7.273l7.811-8.446c2.384 1.208 4.597 2.878 7.057 3.417 2.357.516 6.405.781 7.207-.46 2.498-3.867 4.546-6.622 9.555-3.995 5.838 3.063 6.696-6.243 12.023-4.972 3.187.761 8.082 2.638 9.461 1.261 1.694-1.691 3.515-2.512 5.39-2.885.851-.499 1.917-.641 2.889-.277 3.73-.044 7.529.821 10.862-.493l4.547-8.427c.428-.063.847-.12 1.265-.175a3.136 3.136 0 011.751-.309c.121.015.245.034.366.051 6.933-.771 12.393-.732 16.844-2.829 1.826-.86 3.646-1.727 5.465-2.577.603-.524 1.365-.9 2.305-1.064.756-.346 1.512-.686 2.27-1.02a5.993 5.993 0 011.618-.699c11.424-4.887 23.065-8.049 36.306-3.61 2.478.831 5.417.324 8.145.368 6.426.104 12.356 2.15 16.713 6.662 7.937 8.218 17.376 12.954 28.539 14.596 5.994.882 9.638 4.694 12.146 9.858 1.191 2.451 2.104 5.048 3.422 7.424 7.257 13.07 15.493 15.16 28.545 7.199 11.592-7.069 19.003-17.643 23.294-30.171 14.663-42.812 25.323-86.092 20.883-132.215zm-306.944-3.808c-1.649 3.058-4.404 5.724-7.064 7.383-5.339 3.331-13.729 3.264-18.825-.59-2.926-2.213-3.572-8.359 1.184-9.057.278-.041.542-.071.799-.095.12-1.253.686-2.486 1.55-3.594 4.335-5.565 12.38-13.015 19.962-9.709.786.137 1.547.39 2.238.8 2.285 1.355 3.087 4.059 2.649 6.553-.016.09-.046.17-.066.257.099.445.172.889.193 1.31.129 2.557-.623 5.154-2.62 6.742z" fill="#af957b"/><g fill="#937a63"><path d="M258.417 198.235c-.305-.723-.826-1.421-1.538-1.798-.833-.44-1.983-.753-2.897-.379-.621.254-1.241.506-1.859.767-.634.268-1.164.659-1.729 1.046-1.525 1.043-2.25 2.833-1.506 4.595.09.215.207.419.339.613-4.661-.687-9.739 1.502-13.91 3.35-2.795 1.238-3.774 1.824-6.625 1.693-2.721-.125-5.262.75-7.217 2.712-1.962 1.969-3.066 4.46-5.199 6.321a81.322 81.322 0 01-7.403 5.715c-4.057 2.789-7.962 5.415-12.19 7.579-2.741.259-5.482.55-8.25.368-5.337-.351-10.043-.945-15.12 1.22-7.934 3.384-10.363 11.53-14.604 18.274-7.912 2.461-15.183 6.759-21.684 11.878-3.478 2.738-6.372 5.8-9.214 9.175-2.888 3.43-6.394 6.126-9.462 9.376-2.844 3.011-4.92 6.36-7.187 9.791-2.595 3.927-5.859 7.415-8.901 10.995-3.51 4.132-7.17 8.434-11.343 12.044-.719-.138-1.534-.099-2.439.19-5.09 1.622-10.174 3.358-15.015 5.638-4.348 2.047-9.041 2.641-12.852 5.743-7.825 6.368-13.611 16.012-18.743 24.542-.978 1.625 1.472 3.654 2.701 2.084 5.541-7.071 12.521-15.192 20.494-19.603 3.622-2.003 7.992-2.368 11.84-3.938 3.494-1.426 7.101-2.521 10.659-3.76a65.886 65.886 0 00-3.34 4.25c-1.586-.801-3.553-.583-4.521 1.505-3.359 7.248-6.612 14.392-8.38 22.136.233-3.099.309-6.194.176-9.316-.085-2-2.813-1.904-3.04 0-.454 3.811-1.262 7.565-2.122 11.303-2.259-.911-5.241 1.292-3.52 3.744 3.846 5.478 7.614 10.334 8.425 17.201.78 6.611-.058 13.248 1.151 19.793.566 3.068 5.448 2.96 6.094 0 .685-3.142 1.227-6.19 1.475-9.224a3.9 3.9 0 001.453-.248c7.118-2.691 14.548-4.428 21.669-7.103 6.388-2.399 12.125-5.759 17.708-9.658 11.017-7.692 22.4-16.173 31.434-26.162.784-.867.976-1.958.774-2.964 4.517-3.276 8.878-6.765 12.999-10.57a4.986 4.986 0 001.236-1.734c.49 1.133 1.708 2.044 3.104 1.746 14.393-3.071 28.994-7.161 39.408-18.251 4.797-5.109 8.522-10.982 11.68-17.18a50.51 50.51 0 002.977-5.37c2.967-6.278 5.759-12.667 6.667-19.61.962-7.363-1.892-14.279-4.199-21.134-.817-2.429-4.456-1.459-3.857 1.063 1.59 6.693 2.03 13.02.173 19.731-.753 2.722-1.83 5.387-3.027 8.008.31-1.558.5-3.192.535-4.929.842-.236 1.528-.878 1.719-2.055 1.365-8.417-2.982-16.689-7.176-23.764-1.234-2.082-4.858-.727-4.021 1.695.606 1.753 1.071 3.545 1.469 5.354-1.236.13-2.455.56-3.495 1.36-4.464-5.859-10.71-6.626-17.065-4.729a9.764 9.764 0 014.923.772c.786.137 1.547.39 2.238.8 2.285 1.355 3.087 4.059 2.649 6.553-.016.09-.046.17-.066.257.099.445.172.889.193 1.31.129 2.557-.623 5.154-2.62 6.742-1.649 3.058-4.404 5.724-7.064 7.383-5.339 3.331-13.729 3.264-18.825-.59-2.926-2.213-3.572-8.359 1.184-9.057.278-.041.542-.071.799-.095.12-1.253.686-2.486 1.55-3.594 1.529-1.963 3.521-4.16 5.79-6.039a54.478 54.478 0 00-7.187 5.621c-7.387 4.299-13.797 11.241-18.042 18.47-2.092 1.906-4.039 4.04-6.248 5.702-4.259 3.205-8.996 6.183-13.679 8.724-9.941 5.394-20.602 9.455-30.247 15.394-4.58 2.82-9.051 6.119-13.148 9.826a5.602 5.602 0 00-.265-1.087 77.976 77.976 0 009.549-6.624c7.161-5.791 13.429-12.061 19.996-18.446 3.232-3.143 7.208-5.309 10.461-8.403 3.081-2.93 5.561-6.371 8.847-9.111 6.968-5.809 15.679-8.839 22.274-15.153 1.574-1.507 1.819-3.501 1.23-5.234 1.23-1.015 2.422-2.085 3.508-3.315 3.086-3.499 5.624-7.142 10.743-7.27 4.723-.118 9.03 1.214 13.805.389 4.683-.809 8.746-2.65 12.361-5.729 1.896-1.615 1.586-3.964.268-5.577 1.105-.408 2.211-.822 3.319-1.248 5.491-2.109 11.336-4.106 15.842-8.035.785-.685 1.709-1.449 2.36-2.306l.691.131c3.07.473 5.699-.306 8.561-1.339 5.585-2.018 13.351-3.781 16.532-9.246 1.04-1.786.505-4.146-1.146-5.349a26.482 26.482 0 001.846-.678c.625-.264 1.189-.629 1.771-.978a3.766 3.766 0 001.538-4.69zM197.57 302.341a65.691 65.691 0 004.676-5.014 39.29 39.29 0 003.844-2.244c3.351-2.234 6.215-4.625 8.496-7.3-2.172 4.302-4.637 8.755-7.49 12.872a53.574 53.574 0 01-3.828 3.781c-4.769 4.235-10.521 7.216-16.067 10.283-.393.218-.787.429-1.18.646 4.616-3.556 8.48-7.774 11.549-13.024zm-100.227 46.03a246.557 246.557 0 0110.398-12.706c.137-.035.273-.073.403-.132 1.614.615 3.504.667 5.061-.033 5.574-2.503 10.311-7.754 14.942-11.649 2.442-2.054 4.782-4.222 7.222-6.277 1.286-.7 2.586-1.377 3.901-2.031 6.226-3.096 12.744-5.791 19.099-8.756 3.267.856 6.615.892 10.011.442-.428.247-.852.502-1.281.745a594.505 594.505 0 00-28.379 17.075c-2.675 1.715-3.253 4.288-2.542 6.481-5.153 3.322-9.877 7.184-14.307 11.526-1.75 1.715-.559 4.213 1.329 4.772-9.536 7.268-19.345 14.095-30.131 19.301-1.603.773-1.708 2.65-.98 4.012-4.133 1.777-8.307 3.53-12.463 5.465a32.67 32.67 0 00-.988-4.157c-1.802-5.854-5.617-10.254-9.317-14.911a2.295 2.295 0 001.248-.878c.136 2.024 2.793 3.259 4.039 1.147.161-.272.311-.55.468-.824.674 1.523 1.732 2.903 3.281 4.066 1.303.979 3.778.935 5.087 0 1.183-.844 2.02-1.85 2.679-2.948.74.547 1.826.558 2.441-.516 1.671-2.915 3.368-5.813 5.061-8.713 1.053.735 2.718.811 3.718-.501zm254.525-27.786c-9.538 1.782-19.112.54-28.525-1.451-9.651-2.041-17.799-6.84-26.013-12.115-1.312-.842-2.967 1.215-1.696 2.199 8.395 6.496 16.78 12.536 27.194 15.228 10.377 2.683 20.033 4.529 30.508 1.462 3.451-1.011 1.988-5.968-1.468-5.323zm108.356-69.155c-1.545 6.642-4.617 11.729-9.357 16.588-2.218 2.274-4.333 4.6-6.413 6.957-14.044-2.364-28.274-3.82-41.876-8.409-6.795-2.293-13.602-5.528-19.792-9.141-7.186-4.193-11.594-9.259-15.644-16.45-2.156-3.83-7.886-.439-5.872 3.432l.139.271c-6.44 1.454-12.935 3.257-19.364 5.104-13.263-2.868-26.927-1.979-39.906-6.55-13.143-4.628-21.384-15.775-26.941-28.041-2.051-4.527-10.057-1.234-8.115 3.421 2.803 6.722 5.77 13.08 9.604 18.671-3.878-4.344-7.043-9.432-9.784-14.522-2.658-4.934-9.888-.591-7.461 4.361 5.5 11.219 13.327 22.987 25.04 28.368 12.966 5.957 26.675 8.808 40.814 10.073 3.435.307 5.049-3.642 4.046-6.347 5.011-.269 9.948-1.002 14.638-2.208 1.167-.3 1.922-1.125 2.276-2.103 2.497-.284 4.994-.562 7.49-.858 3.951-.469 7.551-.959 10.696-3.214a84.24 84.24 0 001.935 3.74c-2.38.945-3.91 4.175-1.643 6.705 14.414 16.077 31.534 31.008 54.753 25.907 1.789-.393 2.869-1.646 3.33-3.135 5.065.897 9.88 1.463 14.7 1.291.426 1.259 1.608 2.19 3.199 1.655 2.138-.719 4.136-1.75 6.017-2.985.327-.085.654-.175.981-.267-.327.427-.656.855-.98 1.283-2.828 3.72 3.176 8.038 6.345 4.896 4.002-3.969 7.624-8.061 10.673-12.823 2.06-3.217-.547-6.309-3.491-6.752 3.481-5.271 4.558-10.774 5.902-17.279.798-3.857-5.036-5.523-5.939-1.639zm-75.451-53.54c-7.693 5.564-15.357 10.023-20.503 18.268-2.294 3.676 3.167 8.07 6.094 4.702 5.49-6.318 14.213-9.604 20.759-14.74 4.635-3.637-1.525-11.72-6.35-8.23z"/><path d="M471.079 420.868c-.494-9.162-6.785-14.854-15.894-14.942l-2.093.032c-.284-.851-.627-1.716-.828-2.562-.991-4.172-1.605-8.415-2.621-12.588-.922-3.789-5.162-5.984-8.824-5.01-1.661.441-2.975 1.313-4.107 2.433-3.723-3.894-7.874-7.279-12.299-10.492-2.056-2.333-4.481-4.571-7.247-5.316-6.073-4.641-12.314-9.669-19.033-12.643-1.65-.73-3.241-.583-4.531.067-4.242-2.415-8.577-4.677-13.011-6.721-.733-1.397-1.347-2.854-1.94-4.402-.774-2.021-1.737-4.33-2.991-6.395 3.594 3.765 7.566 7.162 11.925 10.03 9.739 6.408 20.421 9.169 31.917 10.221 2.121.194 3.547-.676 4.307-1.986 4.76-.188 9.471-.993 13.908-2.462 3.752-1.242 4.454-7.449 0-8.332-14.009-2.774-28.611-.138-40.897-9.18-9.399-6.917-13.572-19.77-16.904-30.417-1.087-3.473-6.491-2.024-5.478 1.51 2.199 7.664 3.302 15.748 5.976 23.095a72.916 72.916 0 01-8.009-9.464c-2.901-4.086-9.606-.378-6.839 3.998a85.83 85.83 0 006.244 8.62c-1.819-1.271-4.02-1.851-6.708-1.201-3.423.827-5.49 3.857-7.147 6.695-.095.164-.243.442-.423.78-2.598-.912-5.197-1.82-7.798-2.727-.903-2.486-1.794-5.076-3.045-7.325-3.382-6.081-11.597-7.799-15.949-1.997-1.494-.373-2.991-.753-4.477-1.203-5.833-1.766-11.654-3.788-17.106-6.535-10.73-5.405-17.777-14.22-25.119-23.432-1.388-1.742-3.651-1.185-4.938.215-.35-.835-.709-1.663-1.046-2.506 1.142-6.594 1.925-13.445 1.609-20.05-.164-3.419-.59-6.868-1.611-10.147-1.274-4.092-4.347-7.072-5.722-11.083-.415-1.21-2.348-.691-1.929.532 1.506 4.394 1.641 9.586 1.211 14.563-.236-13.511-3.577-26.814-10.861-38.566-3.476-5.607-11.786-.687-8.808 5.148 4.188 8.201 6.192 16.493 6.59 24.785-.176.291-.33.606-.428.975-5.763 21.67-16.325 43.202-30.946 60.286-6.999 8.177-14.237 16.201-21.87 23.792-2.256 2.244-4.594 4.458-6.937 6.681-4.899 2.799-9.929 5.151-14.914 6.958-10.966 3.973-22.593 5.608-33.478 9.938-5.74 2.284-11.041 5.278-16.117 8.64-7.414 3.022-14.568 6.595-21.491 11.191-9.773 6.488-19.601 14.64-26.17 24.675-.023-.22-.041-.438-.078-.66-.173-1.063-.724-2.023-1.479-2.823 1.381-3.484 2.622-7.028 3.681-10.706 1.483-5.156-6.882-7.39-7.984-2.201-.743 3.496-1.404 7.002-2.058 10.511a6.893 6.893 0 00-1.432.323 2.482 2.482 0 00-1.332-.828c-1.433-.327-3.086.431-3.444 1.956l-.644 2.741c-.137.581-.076 1.2.137 1.756-.613 1.624-.949 3.354-1.348 5.051-.516 2.191-1.314 4.4-2.168 6.48-.611 1.487.308 3.473 1.483 4.352.35.261.709.455 1.075.591.298.327.641.615 1.003.876 2.121-.447 4.343-.544 6.501-.847 2.073-.29 4.074-.729 6.043-.965 3.339-1.905 6.564-4.065 9.673-6.322 7.433-5.396 16.118-15.881 26.026-15.904a7.103 7.103 0 001.922-2.692l.051-.043c.372-.304.75-.605 1.125-.908a7.824 7.824 0 004.376-.764c2.441-1.211 4.87-2.418 7.298-3.613 4.459-5.74 12.118-10.394 18.235-13.054 4.928-2.144 13.755-5.547 18.846-2.002l1.87-.586c.066.767.24 1.521.499 2.237.83.098 1.581.496 2.151 1.079.638.423 1.221.97 1.712 1.623 1.628 2.163 2.555 4.848 3.517 7.358.952 2.483 2.113 5.095 2.59 7.714.223 1.225.081 2.289-.302 3.169 1.397 1.062 3.119 1.713 4.838 1.746.062.001.12-.004.181-.003.021-.576.193-1.12.476-1.609-.271-3.086 4.591-4.39 5.959-1.495.879.521 1.568 1.329 1.725 2.352.283 1.685.918 3.378.881 5.102l-.003.021c2.54 1.176 4.992 1.149 7.301.367.106-.639.18-1.21.198-1.953.035-1.447 1.062-2.585 2.469-2.796 1.301-.196 2.853.667 3.125 2.04.128.651.328 1.283.466 1.933a3.112 3.112 0 01-.279 2.108 5.923 5.923 0 01-.205.952c.283.535.605 1.054.979 1.552 2.872 3.82 7.892 5.225 12.332 3.306a10.248 10.248 0 002.49-1.535c-.098-.109-.2-.21-.288-.341a5.318 5.318 0 01-.643-1.097c-.762-1.171-.361-2.444.486-3.274 1.068-1.165 3.152-1.435 4.546-.261 1.904 1.602 3.086 3.598 5.505 4.518 2.057.782 4.25 1.066 6.339 1.748a8.871 8.871 0 001.998-1.832c-.267-.896-.451-1.828-.638-2.724-.426-2.038.433-4.037 2.387-4.862 1.825-.771 4.161-.117 5.146 1.686.581.89 1.102 1.856 1.486 2.863 2.099-.553 3.674-1.738 4.806-3.308.332.182.67.341 1.013.486a5.366 5.366 0 01.579-1.576c-.221-.738-.357-1.494-.073-2.217l.077.021c.306-1.098 1.186-2.035 2.506-1.988 1.257.044 2.125.708 2.876 1.553a5.852 5.852 0 012.414.679c.613.335 1.176.673 1.713 1.097.35-.369.671-.75.967-1.142 2.33.536 4.667.139 6.77-.894-.02-.345-.004-.685-.018-1.047-.087-2.387 2.519-3.919 4.605-3.039.07.03.129.075.197.109a14.823 14.823 0 002.09-3.696c.053-.139.091-.286.143-.425 1.098 2.488 2.341 4.89 3.798 7.154.249.388.522.744.811 1.079 1.89-.737 4.04-1.065 5.799-2.104 2.762-1.63 1.119-4.464 1.173-7.271.041-2.099 1.955-4.572 4.293-4.293 2.55.304 5.313 1.104 7.102 2.797l.003-.02c3.384.458 6.918-.718 9.052-3.363.443.245.945.398 1.5.398 1.393 0 2.724-1.024 3.092-2.362.112.045.223.095.335.138.345-2.063 1.696-3.733 4.112-4.058.294-.04.598-.039.905-.015.054-.061.106-.125.163-.181 1.033-1.033 2.567-1.668 4.028-1.668 1.362 0 2.588.503 3.624 1.325.159-.302.307-.607.437-.917.51.49 1.043.955 1.592 1.398 6.296-4.673 15.711-5.682 23.19-5.126 5.663.421 11.79.62 17.294 2.057 5.526 1.443 10.344 4.434 14.748 7.988 4.641 3.745 8.295 7.723 14.169 9.479 5.087 1.521 10.472 2.186 15.293 4.52 4.607 2.23 7.134 5.908 9.702 10.17 1.499 2.487 3.022 4.898 3.688 7.54a9.857 9.857 0 003.252-.319c.143.125.278.257.422.381 6.783 5.809 17.094 10.943 24.833 5.102 2.927.631 6.163-.557 7.052-4.305.275-1.158.37-2.266.33-3.333 1.073-1.074 1.737-2.554 1.638-4.391zm-181.599-21.9c-.019.338-.023.672.024.977.271 1.722-1.964.407-.024-.977zm8.4-65.385c-4.271-5.396-8.042-11.108-11.389-17.089 2.456 3.237 5.065 6.313 7.97 9.139-.158 1.643.507 3.406 2.349 4.696 1.266.888 2.538 1.765 3.812 2.634a8.353 8.353 0 00-2.742.62zm18.818 10.023a122.989 122.989 0 00-4.526-.749c-.649-1.339-1.365-2.632-2.19-3.842a128.64 128.64 0 007.636 4.277 7.97 7.97 0 00-.92.314zm83.918 39.397a173.136 173.136 0 00-2.637-1.914c-.374-.678-.748-1.356-1.121-2.039 1.494.997 2.981 2.002 4.457 3.021a6.046 6.046 0 00-.699.932z"/></g><path d="M246.925 195.127c-1.239-7.304-10.277-12.514-16.382-15.262-2.54-1.143-5.385-2.183-8.403-3.048-1.667-.8-3.44-1.314-5.275-1.61-1.923 1.286-3.931 2.431-6.149 3.195-3.378 1.164-6.325.571-9.535-.189-.117.011-.231.026-.353.021-1.339-.056-2.128-.466-3.146-1.335a2.823 2.823 0 01-.889-1.3c-.08-.117-.152-.25-.228-.375-2.669.57-5.222 1.429-7.571 2.643-.116-.042-.236-.069-.354-.106-.407.149-.825.276-1.234.426-.817.299-1.624.607-2.46.847-.259.074-.52.094-.771.068a9.192 9.192 0 01-1.763 1.424c-1.551.985-3.255 1.388-5.048 1.554a.194.194 0 01-.024.002c-.138.013-.275.027-.414.037l.011-.026a4.52 4.52 0 01-3.249-1.425c-3.211 1.53-6.289 3.356-9.106 4.937-7.547 4.237-15.263 8.362-22.237 13.509-3.565 2.631-4.068 6.771-2.207 9.68-2.772.666-5.188 2.185-7.425 4.081a8.638 8.638 0 00-1.902-.781 3.964 3.964 0 01-.308.497c-3.015 3.97-6.761 7.314-9.89 11.216-2.932 3.655-5.612 7.525-8.665 11.082-5.179 6.034-12.7 12.128-20.368 15.112a163.25 163.25 0 00-3.083 4.364c-.63.924-1.462 2.043-2.347 3.278.217.669.268 1.412.068 2.199-1.505 5.915-4.742 10.706-9.576 14.379-3.237 2.459-7.163 4.082-10.625 6.229-2.768 3.594-5.171 7.461-7.878 11.101-.854 1.149-1.717 2.186-2.733 3.069-.652.804-1.597 1.542-2.277 2.005a10.8 10.8 0 01-3.01 1.433c-.712.727-1.396 1.477-2.002 2.276-.408.538-.869.847-1.331.987-3.624 6.407-8.161 12.322-13.301 17.577a.176.176 0 00-.014-.023c-.826.818-1.828 1.007-2.729.784l-.206.15c-.054.152-.098.304-.174.458-1.793 3.664-3.794 7.334-5.207 11.163-.396 1.072-1.052 1.779-1.808 2.188-.301.554-.694.923-1.13 1.154.026.041.043.088.07.129-1.885 1.75-3.625 3.917-5.171 6.042-4.28 1.884-5.947 6.167-7.612 10.423-.589 1.504-1.218 3.067-1.838 4.661-.435.822-.876 1.641-1.288 2.472-.526 1.061-.733 2.111-.707 3.101-.837 2.623-1.501 5.266-1.752 7.843-.084.872.15 1.74.288 2.583-.259.19-.854 2.467-.961 2.942-.822 3.629-1.039 7.193-.838 10.914.354 6.569.219 14.285 2.333 20.55 1.22 3.617 3.79 7.328 6.908 10.035 1.13-.934 3.129-1.215 4.313-.339l1.46 1.101c.81.61 1.39 1.245 1.751 2.155.424.519.811.995 1.115 1.543.969.337 1.922.706 2.818 1.197 2.743 1.503 4.835 4.06 7.478 5.749 9.759 6.238 20.738 7.742 31.903 9.242 2.044.275 4.096-1.338 5.112-2.932.848-1.331 1.293-2.736 1.33-4.189 1.259-.813 2.133-2.221 2.147-3.841.053-6.043-1.425-11.737-3.716-17.269a165.165 165.165 0 001.839-5.69c7.025-10.187 7.432-26.402-5.514-31.461-1.945-.759-4.883-3.205-7.734-4.366-1.803-.734-3.947-1.087-5.654-1.986-1.753-.923-3.228-2.425-4.778-3.648-3.707-2.924-6.896-5.971-10.024-9.505-.146-.164-.293-.334-.439-.502a3.89 3.89 0 00-.063-.7c-.407-2.16-.487-4.887-.979-7.426.029.027.054.056.083.083 1.626 1.487 3.97 1.887 5.873.851a4.427 4.427 0 002.517-1.73c1.72-.623 3.414-1.249 4.991-2.356 2.371-1.666 4.25-3.898 6.021-6.167l.144-.187c.488-.471.971-.973 1.448-1.529 2.466-2.88 5.002-5.995 6.56-9.423 5.262 4.685 13.945-.333 19.123-7.561 1.717.07 3.528-.306 5.132-.972 1.949-.809 3.66-2.072 5.647-2.771 2.219-.779 4.441-1.139 6.544-2.312 3.679-2.051 6.59-6.007 9.185-9.278 2.902-3.66 4.6-7.523 5.926-11.981.37-1.241.694-2.485.976-3.738a15.881 15.881 0 001.98-1.282c3.257-1.47 6.103-4.191 8.585-6.53 2.887-2.722 6.753-6.083 8.609-9.978.397-.405.784-.819 1.177-1.227.053-.01.105-.016.158-.026 2.348 1.165 5.49.882 6.954-1.857a27.736 27.736 0 011-1.699c1.84-1.32 3.416-2.888 4.465-4.571.423-.68.65-1.38.743-2.074 1.248-1.367 2.531-2.699 3.789-4.023.105-.111.216-.234.326-.357 2.699-2.02 5.279-4.377 7.704-6.707 1.382-1.004 2.722-2.062 3.925-3.316.436-.454.76-.951 1.02-1.465.525-.489 1.079-1 1.637-1.53 1.424.42 3.068.299 4.756-.645.426-.238.86-.447 1.298-.642.535-.176 1.096-.293 1.72-.459s1.175-.393 1.671-.66c6.384-1.517 13.436-.487 19.118-4.604 4.107-2.977 7.754-6.083 11.1-9.525.988-.512 1.888-1.173 2.758-1.883.431.111.893.182 1.393.196.5.014.993-.005 1.476-.048 2.255-.004 4.553.258 6.73-.228 3.022-.674 5.335-2.664 7.813-4.349 3.197-2.174 6.708-4.395 9.478-7.216 5.968-2.168 12.707-4.742 11.358-12.697zM58.95 421.877v.018c.048.462.101.893.165 1.317-.335-.055-.673-.104-1.01-.153.295-.375.576-.769.845-1.182z" fill="#915953"/><path d="M52.771 328.393c.289-.335.585-.665.868-1.005 2.718-3.272-2.161-7.104-4.649-3.587-1.599 2.26-3.153 4.533-4.713 6.797-1.155.963-2.235 2.044-3.316 3.081-2.037 1.952-4.162 3.738-5.374 6.368-.335.728-.318 1.543.214 2.165-.117.146-.23.295-.348.44-1.222 1.506.916 3.669 2.15 2.149.436-.538.889-1.059 1.339-1.583 2.044-.258 4.304-1.611 5.829-2.347 4.15-2.001 7.307-5.013 9.102-9.286.583-1.39-.066-2.519-1.102-3.192zm22.357-11.792c-.081-.104-.179-.199-.276-.294.306-3.267-3.621-6.561-7.218-3.597-1.703 1.403-2.672 2.292-4.607 1.423a21.154 21.154 0 00-.325-.498c-.379-.542-.792-1.063-1.191-1.589-1.006-1.33-1.998-2.539-3.415-3.464-.043-.028-.086-.05-.129-.077-.455-1.938-2.743-2.424-3.963-1.346-2.091-.212-4.222.159-6.554.193-2.423.036-3.172 3.977-.596 4.4 3.184.523 4.773 2.335 5.839 4.712 1.331 2.967 3.08 5.282 6.315 6.245.344.103.675.156.996.183.136.754.729 1.436 1.781 1.551 4.922.537 9.742.303 13.101-3.798.984-1.2 1.24-2.749.242-4.044zm32.429-27.482c-.172-3.026-4.228-5.729-7.014-2.891-3.371 3.435-5.723 7.667-8.489 11.55-2.486 1.784-4.841 3.022-7.686 1.335-1.546-2.266-3.861-4.29-5.959-5.532-5.386-3.187-13.788-6.979-18.935-1.035-2.771 3.201-1.393 7.153 2.296 8.699 1.379.578 3.03.709 4.5.92 2.1.301 3.694 1.035 5.672 1.771 3.186 1.187 8.408 3.076 9.5 6.754.438 1.472 2.581 1.495 3.009 0l.039-.126c1.049.307 2.185.49 3.44.501 9.263.084 19.789-7.064 22.713-15.749.988-2.929-.73-5.271-3.086-6.197zm90.079-71.43c-9.096.116-16.536 5.933-25.097 8.152-1.237-1.944-2.781-3.71-4.321-5.577-3.307-4.008-7.244-7.338-11.611-10.127-5.765-3.682-13.631-7.412-18.318-.02-1.203 1.898 1.25 4.512 3.174 3.174 3.751-2.607 10.309 5.245 12.709 7.678 2.465 2.499 6.301 6.469 8.175 10.16-6.942 1.492-13.666 5.91-18.333 11.15a37.47 37.47 0 00-3.575 4.709c-.555-.692-1.103-1.359-1.582-1.999-3.355-4.488-6.685-7.392-11.944-9.437-4.157-1.617-8.789-3.579-13.299-2.698-.548.683-1.096 1.367-1.667 2.032a56.281 56.281 0 01-1.455 1.623c.177.943.812 1.787 1.959 2.084 6.126 1.589 13.127 5.86 16.735 11.061 1.215 1.75 2.242 3.639 3.582 5.281a4.111 4.111 0 00-1.124.54c-5.064 3.542-9.853 7.396-13.782 12.2a55.343 55.343 0 00-2.334 3.061c-3.505-3.591-9.891-5.289-14.081-6.011-5.053-.87-14.905-1.988-17.695 3.864-.557 1.168.354 2.358 1.626 2.115 4.042-.771 9.03 1.995 12.621 3.375 3.395 1.304 6.66 2.751 9.678 4.838 2.031 1.404 4.214 3.667 6.989 2.899a3.992 3.992 0 001.423-.743c.61-.036 1.192-.102 1.616-.255 2.829-1.021 5.217-2.741 7.554-4.594 4.294-3.405 8.009-7.206 11.323-11.484.586.559 1.749.613 2.118-.221 1.233-2.784 3.081-5.115 5.134-7.304.848-.392 1.573-.734 1.835-.92 2.378-1.683 4.512-3.745 6.71-5.65 4.754-4.118 9.967-8.129 13.964-13.018.865.46 1.81.713 2.688.647 6.006-.452 11.377-1.419 16.822-4.085 5.623-2.752 11.557-5.299 15.097-10.724 1.603-2.451-.5-5.812-3.314-5.776zm27.598-13.709c-3.201 1.254-5.535 2.833-7.854 5.393-.134.147-.273.306-.414.469.4-4.497.16-9.701-2.003-13.627-4.552-8.263-13.991-11.595-22.788-12.536-2.681-.287-5.217 3.069-4.243 5.569 2.428 6.23 9.178 6.445 14.112 9.947 2.741 1.946 4.064 4.063 4.604 7.399.539 3.331 1.986 9.17-.441 11.9-2.011 2.263 1.106 5.43 3.338 3.338.769-.722 1.495-1.355 2.173-1.957 3.624-.33 6.674-.111 10.033-2.046 3.534-2.035 5.961-4.441 8.045-7.915 1.683-2.803-1.173-7.262-4.562-5.934zm19.329-4.642c-.123-.914-.863-2.018-1.862-2.162-1.309-.188-2.595-.265-3.752.512-.296.198-.568.432-.865.629-.122.082-.25.154-.377.227-.017-.008-.348.129-.441.152-1.167.287-1.922 1.52-1.748 2.677.195 1.298 1.154 1.957 2.396 2.116.952.122 1.927-.067 2.845-.317.511-.14 1.02-.286 1.491-.536.242-.128.709-.469.693-.478.124-.079.246-.16.379-.229.918-.475 1.372-1.618 1.241-2.591zM73.453 386.734c.42-3.14-2.614-4.916-5.372-4.687-.005-.414-.018-.83-.069-1.251h-.16a5.854 5.854 0 00-.244-1.197l.103-.061c.65-.383 1.178-1.174 1.122-1.956-.359-4.994-6.186-8.215-10.437-9.654-3.754-1.271-6.752-.93-9.814-3.733-2.833-2.594-5.544-5.077-8.686-7.313-3.167-2.254-7.714.631-8.035 4.164-1.502.085-3.004.691-4.271 1.957-1.353 1.354-1.965 3.121-1.938 4.868l-.059-.045c-.048.826.03 1.644.235 2.455.191.781.261.777.21-.013.107.695-.018 1.499-.116 2.24-1.095 2.293-2.553 5.335-1.493 7.921 1.273 3.104 4.497 5 7.73 3.145 3.446-1.977 6.141-6.336 7.058-10.75.669.543 1.37 1.042 2.094 1.495.321 1.411.554 2.849.673 4.281-2.241 2.465-3.752 5.987-5.69 8.338-3.988 4.835-10.013 7.806-14.143 12.646-2.341 2.743-4.449 7.059-2.737 10.065a6.306 6.306 0 00-.333.817c-.019.025-.039.048-.058.074-.735 1.009-.602 2.027-.037 2.816.308 1.076 1.052 2.034 2.345 2.665 4.227 3.039 9.301.763 10.23-2.936 4.285-.98 8.418-2.395 12.167-4.958 3.782-2.586 7.393-5.224 10.57-8.353a47.285 47.285 0 005.679-3.992 88.137 88.137 0 00-2.136 8.987c-1.033 5.733.042 11.77 1.18 17.496-.734-.212-1.467-.433-2.212-.574-2.919-.555-5.896-.081-8.845-.219-2.642-.124-5.675-.13-8.621-.321-2.414-.646-4.937-1.237-7.411-1.028-3.821.324-5.645 4.482-3.073 7.42 2.061 2.354 5.345 2.812 8.244 3.516 2.81.682 5.611 1.492 8.452 2.059 3.406 1.167 6.723 1.773 9.326 1.124 4.753.208 9.277-.709 9.98-6.548a3.017 3.017 0 00-.008-.664c.998-.395 1.789-1.189 1.966-2.421.349-2.429.386-4.889.395-7.349.793-1.867 1.189-3.835 1.026-5.949a3.883 3.883 0 00-.73-2.005c.137-1.171.34-2.335.641-3.487 1.695-6.516 4.395-12.315 5.302-19.085zm-18.526-8.224c-.562.372-1.068.89-1.539 1.435-.382-1.267-1.269-2.318-2.394-3.044 1.028-.069 2.053-.202 3.079-.314.331.537.657 1.123 1.079 1.773l-.225.15z" fill="#7a4c48"/><g fill="#eacda2"><path d="M282.751 145.875c-3.504-4.821-6.235-9.941-10.201-14.409a4.056 4.056 0 01-1-.205c-3.498-1.222-6.152-4.397-8.971-6.733-3.293-2.73-6.732-5.242-10.446-7.374-3.518-2.019-7.379-3.904-11.451-4.441-3.721-.491-6.567 1.162-9.965 1.804v.025c.234 3.131 1.848 5.93 2.704 8.887l-.089.024c.023.101.024.196.041.295.512.444 1.038.873 1.58 1.287.84 2.194 1.871 4.331 2.958 6.448.04.475.112.957.192 1.44.193.164.366.35.498.572 3.736 4.006 4.661 9.839 5.428 15.116.745 5.125 2.897 12.001 1.471 17.092.333 2.692.538 4.833 3.192 6.595 2.672 1.774 5.852 1.497 8.775.666 5.828-1.657 11.415-2.588 17.4-1.959a11.52 11.52 0 003.167-.097c1.617.992 3.277 1.182 5.207 1.405 4.174.483 8.409-4.122 8.134-8.134-.509-7.401-4.416-12.514-8.624-18.304z"/><path d="M358.382 192.001c-.184-11.288-.733-22.587-.661-33.876.079-12.207.662-24.552-1.717-36.591-.303-1.534-1.106-2.657-2.168-3.401-.49-1.921-1.207-3.661-2.199-5.045a9.83 9.83 0 00-3.028-2.74 196.724 196.724 0 00-3.012-10.383 101.488 101.488 0 00-2.773-7.55c-1.799-2.784-3.523-5.621-5.659-8.2-3.359-4.058-8.576-7.377-11.097-11.96-1.191.065-2.397.395-3.588 1.028a10.366 10.366 0 00-3.029 2.429c0 .024.007.044.007.069.09 4.479.972 8.904.315 13.352.435 2.768 1.154 5.455 1.783 8.185.015.065.027.13.04.195.051.147.092.305.117.479.579 3.96.476 7.854.344 11.771.421 2.57.513 5.137-.267 7.817-.32 1.099-1.069 1.834-1.969 2.25-.942 4.192-2.129 8.329-3.476 12.413-.928 2.064-1.678 4.296-2.309 6.554-2.004 5.31-4.486 10.397-7.299 15.33-.428.75-.859 1.502-1.297 2.251-1.024.874-1.959 1.944-2.82 3.108a7.116 7.116 0 00-3.102 1.94c-3.036 3.248-6.521 8.222-6.662 12.805-.002.063.008.121.007.184-.897.467-1.714 1.227-2.351 2.35l-.067.122c-2.735 3.716-4.984 7.978-7.221 12.117-3.024.138-5.628 1.763-7.564 4.488-2.488 3.501-1.103 6.567.357 10.119 3.796 9.233 8.671 16.624 16.66 22.758 7.377 5.665 16.905 8.797 25.984 10.388 3.582.628 7.082.687 10.536.364 1.424 1.454 3.604 2.222 6.366 1.59 2.815-.644 5.515-1.695 8.333-2.312 2.475-.541 5.046-.613 7.452-1.455 4.651-1.626 7.272-5.29 7.399-10.199.282-10.896-.187-21.839-.365-32.744zm102.483-54.649c-.628-5.564-1.084-11.148-1.644-16.72-.607-6.06-1.006-12.259-2.452-18.188-.987-4.052-2.079-6.833-.569-10.408a8.507 8.507 0 00-1.196-.99c-1.291-1.257-3.307-1.863-5.031-1.344a7.444 7.444 0 00-1.505.294c.002.352-.035.715-.158 1.097-3.059 9.477-6.469 18.837-9.606 28.288-.484 1.458-1.499 2.299-2.652 2.659-1.604 4.955-3.411 9.87-4.917 14.81-3.243 10.645-7.039 21.084-11.071 31.438-.932 1.501-1.779 3.118-2.549 4.773-.062-.061-.127-.118-.19-.179a3.18 3.18 0 01-.482.903c.373 1.21-.483 2.325-1.57 2.728-.948.352-2.075.231-2.788-.54-.483-.522-.701-1.222-.508-1.922.003-.018.013-.034.017-.052-.489-.378-.888-.876-1.093-1.486-.398-1.186-.197-2.423-.193-3.652a44.95 44.95 0 00-.14-3.482c-.069-.92.365-1.762 1.028-2.369-1.586-4.453-3.166-8.898-4.604-13.412-.063-.198-.138-.392-.202-.589a4.083 4.083 0 01-1.602-1.728c-4.235-8.434-6.634-19.167-13.475-25.962a2.92 2.92 0 01-.875-1.758c-4.628.757-6.945 3.854-8.193 7.721a7.544 7.544 0 00-1.22 1.45c-.567 5.714-1.807 11.549-2.688 16.8-.933 5.551-2.373 15.184-7.525 18.941-1.509 3.549-3.299 6.947-5.476 10.037-.666.946-1.66 1.431-2.678 1.539.248 1.892 1.748 3.496 3.576 4.144 2.604.922 4.879.199 7.489.633 2.415.401 4.676 1.492 7.155 1.854 5.281.771 9.902 3.586 15.232 4.04 3.806.325 7.73 2.173 11.599 1.606-1.359 2.857-2.291 5.877-3.479 8.832-.301.75-.629 1.583-.981 2.448-.109.043-.223.081-.33.128-4.613 2.05-6.365 6.924-9.325 10.631-3.54 4.434-7.767 7.454-12.533 10.462-4.014 2.533-9.697 4.035-11.585 8.81-2.106 5.326 1.831 9.507 6.171 11.96 8.671 4.9 18.018 7.754 27.2 11.238 2.736 1.038 5.652 1.006 8.437 1.939 2.853.956 5.626 1.791 8.581 2.406 6.628 1.381 13.217 1.308 19.754 3.131 2.984.832 6.344-.551 7.905-3.217 4.229-7.223 6.848-13.253 7.498-21.688.69-8.956.88-17.997.575-26.975-.011-.329-.033-.654-.047-.982.615-1.955 1.004-3.954 1.28-5.608.54-3.226.95-6.475 1.301-9.732.62-3.999.885-8.076 1.038-11.98.015-.216.033-.432.048-.647.529-7.673.636-15.358.963-23.042.21-4.924.483-9.8.72-14.665-.14-1.492-.272-2.974-.435-4.423zm-58.272 100.607c.462-.192.926-.409 1.391-.647.104.422.225.829.369 1.214-.586-.186-1.173-.375-1.76-.567zm45.133 81.69c-1.931-9.365-14.781-16.389-23.045-18.81-9.156-2.682-20.904-6.84-30.107-2.562-.322.149-.638.312-.95.479-1.766.165-3.503.401-5.137.791-4.981 1.188-8.541 6.999-7.567 11.9.963 4.848 5.792 7.838 9.398 10.706 4.534 3.604 8.334 8.212 13.581 10.856 3.781 1.905 8.493 3.223 12.596 4.228 5.106 1.25 9.9 3.148 15.163 1.463.496-.159 1.003-.34 1.52-.541 1.538.962 3.233 1.328 5.053 1.087 3.95-.522 5.823-3.452 7.041-6.913a2.833 2.833 0 00-.289-2.542c2.267-2.928 3.521-6.374 2.743-10.142zm-88.03-28.158c-.927-3.965-3.896-6.846-6.979-9.34a44.586 44.586 0 00-6.716-4.507c-1.573-2.825-3.758-5.17-7.006-6.878-4.725-2.484-11.848-1.793-16.615.446-.842-.344-1.712-.644-2.65-.824-3.17-.61-6.328-.39-9.413.555-3.958 1.212-8.006 3.379-11.208 6.223-.448.046-.89.094-1.366.129-2.295.17-4.452.81-5.909 2.698-3.04 3.939.092 10.177 2.64 13.6.65.874 1.43 1.533 2.259 2.123-.329 2.158.398 4.473 2.617 5.779 1.23.726 2.372 1.219 3.723 1.675.273.092.548.153.821.195 5.816 2.386 11.71 4.844 17.781 6.401.057.023.112.052.169.074 2.496.979 5.034 1.329 7.592 1.326 2.85.282 5.741.305 8.691-.06 9.337-1.154 26.415-2.29 26.424-15.167.002-2.489-2.355-4.754-4.855-4.448z"/></g><g fill="#ccae85"><path d="M286.685 162.108c-.3-.422-.852-1.085-1.355-1.782a4.964 4.964 0 00-.328-.571c.121-1.478-.255-2.928-1.366-4.129.339-9.542-9.152-19.191-15.376-25.419-6.482-6.487-15.803-13.965-25.394-14.072-1.1-.012-1.781.881-1.888 1.889l-.045.422c-.156 1.459 2.079 2.406 3.004 1.245-.329.413 4.268 2.443 5.098 2.943a46.366 46.366 0 012.59 1.692c-.015.299.034.619.166.955 3.802 9.636 5.96 19.883 9.479 29.596-.414 2.04-1.243 3.738-3.686 4.939-2.502 1.229-5.247 2.76-5.628 5.83-1.112 8.953 12.716 7.216 17.746 7.292 2.46.037 4.034-1.303 4.733-3.043 1.456-.409 2.871-.927 4.219-1.658.532.283.973.536 1.213.69 4.05 2.593 9.738-2.712 6.818-6.819zm-16.138-5.135c.063-1.112-.038-2.227-.256-3.34.419 1.01.835 2.021 1.239 3.038a3.725 3.725 0 00-.983.302zm133.976-8.803c-.321-.969-.66-1.931-1-2.893a112.96 112.96 0 00-1.018-4.048c-1.844-4.535-3.598-9.276-6.005-13.484-.014-.008-.025-.021-.04-.028-1.947-3.467-4.76-6.652-7.921-4.121-.554.443-.469 1.229-.231 1.791l.19.45a.84.84 0 00.384.41c.6 1.256 1.06 3.78 1.445 5.134a621.852 621.852 0 012.165 7.837 322.95 322.95 0 011.721 6.724c-1.739.294-3.331 1.451-3.817 3.362-.84 3.296.047 7.102.188 10.457l.039.951c-.832.988-1.412 2.185-1.553 3.473-.085.777-.054 1.765-.138 2.638-1.65.699-3.422 1.029-5.056 1.817-3.599 1.736-6.486 4.973-5.164 9.232.796 2.565 2.848 3.856 5.401 4.112 3.132.313 6.7-.058 9.645-1.462 2.251.525 4.893-.167 6.445-2.063 2.121.765 4.813-.012 6.412-1.402 2.789-2.425 3.065-6.196 2.437-10.101.069-6.308-2.579-12.891-4.529-18.786zm-15.238 30.832c.063-.003.132-.017.197-.023-.768 1.577-2.526.124-.197.023zm-32.095-7.395c1.257-7.656 2.375-15.706 1.61-23.474-1.455-14.767-4.253-28.918-10.263-42.561-2.877-6.533-6.076-12.724-10.511-18.341-2.019-2.557-4.119-5.055-6.16-7.593-2.262-2.813-3.518-3.183-6.487-4.83-1.442-.8-3.253 1.291-1.842 2.388 2.071 1.61 2.199 4.101 2.931 6.489a40.395 40.395 0 003.251 7.675c3.299 6.005 6.263 12.066 8.648 18.499 2.196 5.923 3.903 11.962 4.916 18.203 1.037 6.39.756 12.897 1.389 19.316.081.817.142 1.637.186 2.457a3.992 3.992 0 00-1.891.525c.331-2.254.668-4.492 1.025-6.7.492-3.046-3.521-4.19-4.629-1.276-5.161 13.58-7.91 28.225-11.843 42.211-1.855 6.6-4.253 12.969-7.459 19.037-3.319 6.281-7.616 10.813-12.366 15.869-5.009-1.385-9.714-2.53-13.964-5.721-4.531-3.402-8.799-7.357-10.717-12.814-1.248-3.551-6.125-2.097-5.554 1.531 2.073 13.157 12.416 22.161 24.591 26.052 5.537 1.77 10.629 3.674 16.189 4.922.726 1.253 1.95 2.28 3.761 2.797.882.252 1.761.425 2.636.526 4.919.963 10.575 1.875 15.223.967 2.757-.539 5.03-1.763 6.938-3.442.188-.058.374-.129.558-.206 9.099-.349 10.559-11.129 10.709-18.418.283-13.682.653-27.169-1.363-40.753.148-1.11.305-2.222.488-3.335z"/><path d="M458.064 179.677a6.73 6.73 0 00-1.333-.879c.25-1.426.51-2.854.745-4.279 1.931-11.717 2.065-23.284 1.985-35.126-.058-8.594-.541-17.111-.906-25.651-.392-3.805-.886-7.603-1.786-11.296-.345-1.417-.705-2.678-.96-3.872-2.678-1.254-6.665.042-6.729 3.922-.013.774-.015 1.55-.022 2.325-.094 2.654-.429 5.294-.848 7.928-.957.66-1.694 1.669-1.979 3.09-.703 3.487-.181 7.086-.04 10.623.005.128.021.25.033.374-.217 2.094-.394 4.194-.61 6.288-.57 5.495-1.511 10.929-2.398 16.379-1.908 11.723-3.873 23.469-6.921 34.959-2.815 10.61-6.784 20.833-10.64 31.094-.353.939-.692 1.884-1.041 2.825-1.305-.538-2.831-.594-4.158.082l-.036-.062a149.19 149.19 0 00-7.053 4.583c-.767.352-1.546.678-2.334.989-4.12-.451-9.06.975-11.936 2.531-1.997 1.08-3.042 4.268-1.626 6.202a7.07 7.07 0 001.843 1.765c-.451.54-.858 1.098-1.234 1.669-.586-.643-1.408-1.109-2.47-1.223-2.448-.262-4.88-.584-7.305-.952a4.751 4.751 0 00-1.903-.884 30.899 30.899 0 00-4.08-.644c-.11-.046-.222-.083-.331-.137-2.478-1.179-4.798-.438-6.254 1.082-2.866 2.279-1.948 7.595 2.027 8.504 4.053 2.425 8.527 4.862 12.815 6.675 4.934 2.085 10.28 2.879 15.46 4.128 3.722.897 7.488 1.862 11.307 2.326 2.079 2.215 5.522 2.872 8.747 2.19.67-.142 1.309-.267 1.937-.384 7.632 4.496 16.991 5.146 21.356-3.891 4.982-10.313 5.03-21.676 7.926-32.5.602-2.25-.008-3.968-1.184-5.102.004-.058.011-.115.016-.172.303-2.864.448-5.706.368-8.49a7.394 7.394 0 00-.046-.607c.257-1.309.515-2.617.764-3.927.793-4.179 1.578-8.364 2.177-12.576.441-3.108 1.458-7.481-1.343-9.879zm-47.574 63.819c.53-.161 1.049-.317 1.553-.457.103-.028.197-.067.298-.097.11.373.242.737.423 1.08-.757-.167-1.516-.349-2.274-.526zm-55.955 50.233c-.455.177-.898.369-1.343.559-5.552-4.389-13.242-1.807-19.758-1.249a33.24 33.24 0 01-11.27-.934c-3.448-.882-9.409-1.287-12.129-3.433-1.517-1.197-3.091-1.116-4.232-.393a58.209 58.209 0 01-1.488-1.119c-.514-.402-1.136-.697-1.804-.891-.69-.631-1.469-1.173-2.708-1.685-4.937-2.04-7.713 4.234-6.108 7.945.998 2.306 2.436 3.324 4.207 4.989 1.787 1.681 3.013 3.692 4.955 5.241 4.37 3.486 8.764 3.884 13.716 5.691 1.694.618 3.444 1.39 5.273 1.45 2.787.092 5.385-.725 8.226-.405 6.261.706 11.775 1.336 17.642-1.365a2.96 2.96 0 001.005-.771c4.57-1.872 8.754-5.181 9.507-9.939.315-1.993-1.32-4.609-3.691-3.691zm85.551 37.682a7.527 7.527 0 00-.688-2.8 5.397 5.397 0 00.566-1.698c.295-1.968-.474-3.662-2.458-4.33-1.999-.673-3.888-.88-5.796-.865-.712-1.092-1.904-1.829-3.332-1.829h-3.81c-7.88-2.607-15.953-5.401-23.983-4.755-.313-.236-.63-.467-.93-.721-.211-.178-.417-.365-.626-.545-.015-.519-.067-1.04-.258-1.565-.474-1.301-1.861-3.261-2.896-4.226a6.007 6.007 0 00-2.295-1.338c.321.101-.903-.174-1.58-.286a27.346 27.346 0 00-1.619-.768c-1.149-.416-2.096-.572-3.336-.415-5.128.652-6.752 6.31-2.564 9.468.177.133.346.276.52.413-.514 1.571-.392 3.392.37 5.062.411.901.996 1.642 1.74 2.294l.035-.045c1.302 1.248 3.075 1.895 4.833 1.687.754.629 1.529 1.236 2.387 1.709 1.834 6.519 9.768 9.92 15.979 11.148 4.568.902 9.093.719 13.712.832 2.053.05 4.001.171 5.896.121 1.232.112 2.459.192 3.674.212 3.339.054 5.368-1.812 6.127-4.168a4.312 4.312 0 00.332-2.592z"/></g><path d="M202.277 253.594c-1.044-4.295-6.336-4.511-9.876-3.534-3.866 1.067-19.085 10.086-19.504 16.686-.151.119-.31.221-.459.346-1.332 1.114-1.074 3.285 0 4.437 2.107 2.259 4.751 2.959 7.552 3.065 2.381 1.295 6.066.99 8.39.04a25.347 25.347 0 002.359-1.121c3.712-.857 7.164-2.488 8.979-5.93 2.035-3.857 3.623-9.615 2.559-13.989z" fill="#fff"/><path d="M72.912 360.671c-3.456-3.409-7.979-4.912-12.542-6.21-.419-.12-.583.508-.178.647 4.838 1.667 9.674 5.359 12.39 9.655 2.155 3.409 3.048 7.748 5.681 10.777.983 1.131 2.435-.311 1.919-1.481-2.108-4.771-3.417-9.586-7.27-13.388zm20.12 25.412c-1.242 6.847-4.281 13.08-6.257 19.707-.357 1.199 1.437 1.983 2.037.859 3.378-6.327 4.227-13.428 5.038-20.455.054-.463-.734-.572-.818-.111zm-59.508-6.121c2.373-.404 2.893-3.14 3.304-5.12.834-4.016-.513-11.009-4.687-12.938-4.936-2.281-7.174 5.085-7.949 8.353-.26 1.095 1.341 1.534 1.683.464.833-2.612 4.354-8.712 6.279-3.281.126.358.23.722.321 1.089a1.268 1.268 0 00-.248.368c-1.074 2.466-2.761 6.248-1.895 8.992.437 1.384 1.717 2.324 3.192 2.073zm2.447 5.689c-.643 1.055.816 2.141 1.687 1.301 4.788-4.611 3.632-13.51 2.666-19.334-.054-.327-.602-.252-.58.079.383 5.903-.622 12.782-3.773 17.954zm8.956 5.717c1.847-4.897 2.027-10.108 1.824-15.295-.04-1.001-1.518-1.003-1.558 0-.197 5.034-1.188 9.836-2.364 14.717-.332 1.382 1.611 1.871 2.098.578zm116.077-117.322a14.067 14.067 0 003.296-1.061c.194.154.425.252.675.231 1.529-.125 3.004-.814 4.397-1.805.066 14.185 15.067 21.11 27.533 14.817 1.079-.544.309-2.148-.797-1.89-6.969 1.63-16.828 1.584-20.99-5.587-.411-.707-.756-1.611-1.092-2.59 6.756 5.551 18.662 2.649 25.451-3.947 3.095-3.007 5.39-7.325 6.04-11.78.288 1.532.471 2.94.563 3.986.501 5.641-.977 11.217-2.875 16.492-.352.979 1.1 1.497 1.62.683 4.327-6.764 5.785-12.917 3.996-20.889-.724-3.227-2.553-8.388-5.469-11.066a61.901 61.901 0 004.153-.731c8.391 2.904 13.683 9.899 16.498 18.903.33 1.055 2.166.936 2.03-.274-1.039-9.318-6.909-16.767-15.051-19.52 2.507-.775 4.88-1.829 6.869-3.307.923-.686.414-2.195-.807-1.915-8.541 1.966-16.647 3.391-25.369 4.255-3.896.386-7.897 1.907-10.711 4.658-6.253 4.373-10.962 11.448-15.432 17.669-3.505 1.29-7.361 2.223-10.799.663-.985-.446-2.182.5-1.562 1.562 1.62 2.775 4.938 3.015 7.833 2.443zm27.558-21.422c2.222-.875 4.666-1.911 7.097-2.004 1.062-.04 2.087.123 3.102.349.414.386.833.894 1.318 1.622 1.956 2.937 1.577 5.074.632 8.319-1.3 4.463-3.486 8.037-7.406 10.7-3.011 2.046-6.754 3.286-10.404 3.362 1.816-2.27 2.76-5.431 2.402-7.964-.372-2.627-2.39-6.68-5.357-7.59 2.337-2.855 4.781-5.285 8.616-6.794zm-12.152 11.288c.282.626.676 1.243 1.031 2.094.43 1.03.739 2.088.648 3.191-.041.17-.07.341-.124.509-.563 1.773-1.858 1.754-3.031 2.52-1.026-.895-1.955-1.961-2.87-3.146 1.648-1.673 3.11-3.565 4.346-5.168z"/><path d="M206.682 286.923c-.598.994.761 2.004 1.582 1.221 4.202-4.011 7.598-7.878 8.711-13.765 1.23-6.502-.523-12.367-2.326-18.581-.304-1.048-1.874-.611-1.631.45 1.395 6.101 2.072 11.885.315 17.997-1.345 4.675-4.176 8.564-6.651 12.678zm-29.64 7.843c6.361 2.726 13.424 1.384 20.04.544 1.145-.145 1.167-1.673 0-1.799-5.818-.63-11.936.738-17.644-.69-5.646-1.413-8.471-5.44-11.913-9.684-.456-.563-1.443.188-1.012.781 3.067 4.227 5.519 8.7 10.529 10.848zm-12.152 5.273c5.616 2.97 10.517 5.677 16.982 6.065 6.165.37 11.781-1.704 16.825-5.135.996-.678.414-2.496-.869-2.062-4.955 1.676-9.753 3.895-15.063 4.105-6.313.25-11.441-1.739-17.007-4.458-.985-.48-1.853.964-.868 1.485zm36.38-58.23c6.317-.354 12.13-1.458 18.026-3.803 1.002-.398.617-2.007-.457-1.657-5.881 1.915-11.397 3.787-17.57 4.573-.548.071-.583.919.001.887zm-59.649 97.52c-13.546 9.589-26.156 21.769-43.65 22.758-.483.027-.484.725 0 .752 17.92 1.007 32.4-10.233 45.261-21.422 1.125-.979-.373-2.965-1.611-2.088z"/><path d="M186.263 320.262c-11.958.382-22.723 1.684-33.563 7.119-11.414 5.722-21.928 13.425-32.719 20.217-.701.441-.079 1.517.65 1.113 10.29-5.702 20.555-11.707 31.022-17.088 5.265-2.707 10.78-4.84 16.575-6.086 6.091-1.31 12.283-1.604 18.306-3.271 1.092-.301.9-2.041-.271-2.004zm15.007-4.872c-17.653-1.311-35.654 2.167-52.893 5.529-.938.183-.533 1.583.393 1.424 17.522-3.002 34.877-3.316 52.5-4.94 1.285-.117 1.304-1.916 0-2.013zm29.114-21.569c-14.372 8.887-28.484 14.988-45.286 17.612-.488.076-.379.925.118.87 16.749-1.862 33.29-5.693 46.485-16.774.952-.799-.278-2.351-1.317-1.708zm33.396 32.636c6.748-10.409 13.387-23.568 13.461-36.233.007-1.223-1.79-1.193-1.88 0-.947 12.498-8.409 23.93-13.761 34.959-.705 1.454 1.288 2.649 2.18 1.274zm-9.311 17.664c12.223-9.802 21.384-22.488 28.437-36.404.451-.89-.875-1.677-1.345-.786-7.242 13.709-17.046 25.391-28.099 36.184-.67.655.309 1.565 1.007 1.006z"/><path d="M508.975 256.682a97.043 97.043 0 00-.508-3.622l-.007-.036c-.16-1.103-.317-2.208-.485-3.305a1.137 1.137 0 00-.255-.563c-1.3-6.036-3.363-11.834-6.759-17.092a83.23 83.23 0 00-7.104-9.449c-2.189-2.519-4.798-4.385-7.066-6.847a85.498 85.498 0 00-17.228-14.354c-1.794-1.132-3.658-2.218-5.102-3.772-3.085-3.321-1.577-7.059-1.345-11.099.283-4.917.456-9.841.532-14.766.152-9.847-.084-19.698-.621-29.531-.526-9.608-1.334-19.397-2.587-28.941-.589-4.486-1.406-8.96-2.19-13.416-.576-3.276-.765-7.044-2.475-9.985-3.19-5.49-7.209-1.815-8.942 2.434-2.115 5.186-3.689 10.657-5.268 16.101a1798.982 1798.982 0 01-12.694 30.686c-3.397 7.984-4.817 16.932-8.726 24.667-1.975 3.908-4.125 7.894-6.487 11.742.06-1.773-.057-3.616-.402-5.667-1.217-7.25-3.986-14.852-6.473-21.745-2.296-6.362-4.269-11.954-8.097-17.64-2.805-4.167-6.269-11.727-11.009-14.018-.643-.31-1.308-.245-1.842.238-2.895 2.615-3.79 8.523-4.808 12.119-1.886 6.659-3.204 13.217-4.399 20.013-1.821 10.353-7.897 17.934-13.847 26.022-.525-6.526-1.511-12.982-1.842-19.546-.437-8.647-.255-17.553-1.971-26.075-1.731-8.606-5.271-16.163-8.19-24.364-2.502-7.031-6.354-13.906-11.022-19.745-4.125-5.16-8.314-11.596-15.006-13.649-5.306-1.628-6.702 2.075-6.478 6.615.197 3.991.925 7.863 1.698 11.734.429 3.245.886 6.492 1.196 9.763.446 4.699 1.174 9.407-.098 14.051-1.312 4.787-4.471 9.011-6.905 13.279-7.11 12.467-12.272 26.697-20.313 38.718-3.283-12.085-10.122-22.355-18.694-31.549-4.783-5.13-9.597-9.352-15.642-12.941-6.043-3.587-13.532-8.106-20.558-9.33-2.492-.435-8.209-.761-9.171 2.682-.367 1.315.354 2.158.766 3.307 1.312 3.654 3.288 7.24 5.112 10.652 3.919 7.332 7.205 14.953 8.692 23.203.738 4.095.726 8.219.864 12.357.061 1.847.81 5.225.156 7.27-4.718.806-9.201 2.107-12.629 4.64a25.942 25.942 0 00-4.86-1.611c-3.789-.84-7.625-.67-11.435.001s-6.794 2.452-10.255 3.694a25.124 25.124 0 01-1.58-.665c-3.847-1.782-6.77-2.626-11.058-1.978a31.558 31.558 0 00-7.712 2.192c-1.74.745-3.365 2.148-5.098 2.768-.095.034-.17.09-.247.145-5.165-1.148-10.382-.8-14.703 2.006-3.087 2.005-5.831 4.52-8.821 6.659-3.531 2.526-7.477 4.316-11.088 6.707-5.626 3.724-8.489 8.035-10.059 14.27-2.046.155-4.044.725-5.938 1.834-5.7 3.338-8.49 9.684-12.637 14.541-2.709 3.175-5.889 5.906-8.754 8.938-1.464 1.55-2.866 3.642-4.515 5.111a33.75 33.75 0 00-6.585 3.76c-9.333 6.84-14.253 17.536-18.538 27.983-4.622 3.207-9.547 5.551-13.971 9.088-2.195 1.755-4.28 3.569-5.875 5.908-1.945 2.853-3.174 6.288-5.315 9-4.528.988-8.484 3.981-11.342 7.682-2.485 3.218-3.704 7.123-6.185 10.293-2.509 3.206-5.876 5.478-8.441 8.62-2.56 3.137-6.578 8.687-5.87 13.286-5.725 1.562-9.912 6.475-13.02 11.402-9.204 14.593-11.2 36.516-6.099 52.699 1.93 6.123 3.585 14.768 10.534 17.022 1.532.497 3.151.757 4.815.836 1.016 2.102 1.999 4.209 3.555 6.154 3.423 4.279 7.283 6.949 12.291 9.16 5.097 2.25 10.662 3.328 16.02 4.798 4.415 1.211 9.646 2.053 13.951-.021a15.034 15.034 0 004.615-3.478c10.092 2.756 20.219-2.091 28.491-8.245 5.416-4.029 10.108-8.936 15.913-12.455 5.613-3.403 11.763-5.219 17.69-7.927 5.637-2.576 10.312-6.06 14.941-10.123 6.072-5.329 11.393-7.332 19.432-7.829 2.148-.133 4.236-.245 6.301-.389 4.506 2.901 7.206 7.314 8.888 12.613 1.104 3.476 1.472 9.109 4.419 11.641 3.791 3.257 6.419-.33 8.176-4.58.046.203.091.41.144.587.632 2.154 1.402 4.317 2.494 6.286 1.318 2.376 3.303 5.153 6.209 5.518 4.958.623 5.865-3.171 6.178-7.285.11.371.227.712.354 1.007a43.38 43.38 0 005.149 8.866c2.349 3.128 6.098 7.519 10.586 6.075 3.417-1.099 4.146-5.037 4.051-8.153a44.307 44.307 0 00-.297-3.757c.656.848 1.341 1.678 2.107 2.463 2.912 2.984 8.208 7.524 12.792 6.447 5.312-1.248 5.473-5.901 4.165-10.964 2.583 2.825 6.513 5.957 10.517 5.569 5.753-.558 5.443-5.121 3.946-9.917 3.82 3.822 8.161 6.932 13.516 5.937 2.599-.483 4.505-2.045 4.8-4.786.108-1.005-.045-1.974-.329-2.919 5.041 2.97 10.681 5.016 16.105 2.785 2.87-1.18 4.191-3.323 4.111-6.381-.042-1.632-.48-3.255-1.081-4.76a4.838 4.838 0 00-.334-.648c6.525 1.94 13.208 3.24 19.961.946 2.429-.825 4.823-2.18 5.844-4.665.487-1.185.55-2.26.405-3.297 4.222 1.623 8.487 2.43 13.046.189 3.564-1.752 5.098-5.905 9.405-5.895 2.05.005 4.154.447 6.28.854 4.725 2.217 14.203 1.856 16.42 1.76 6.354-.275 11.162 1.14 16.429 4.715 5.171 3.51 8.7 8.875 14.11 12.005 4.507 2.608 9.637 3.343 14.674 4.338 3.073.606 6.52.919 9.164 2.78 3.23 2.274 4.408 6.528 5.876 9.965 3.192 7.475 6.628 15.304 15.146 17.338 8.596 2.053 19.162-2.894 25.704-8.232 9.341-7.622 15.133-16.824 19.482-27.896 4.582-11.666 7.52-23.491 10.785-35.544 3.225-11.902 5.722-24.395 8.113-36.497 4.87-24.622 3.567-50.707.171-75.59zm-91.144-75.804c3.734-6.522 7.695-13.093 9.719-20.369 2.227-8.009 3.978-15.799 7.095-23.537 4.328-10.745 8.295-21.427 11.435-32.447l1.156-3.203c.535-1.478.934-3 1.506-4.464.411-1.05.95-4.189 2.184-4.418 2.645-.488 2.248 8.074 2.504 9.801 2.198 14.816 3.367 29.887 4.13 44.846.325 6.381.636 12.887.587 19.276-.061 7.889.267 15.908-.146 23.778-.816 15.572-.953 31.344-3.891 46.706-1.14 5.963-2.207 13.578-5.31 18.845-5.052 8.578-16.722 2.117-23.558.31-6.752-1.785-13.741-2.31-20.472-4.11-7.006-1.874-15.013-3.808-21.314-7.361-5.798-3.27-16.45-12.55-9.148-19.681 2.421-2.364 5.887-3.877 8.635-5.802 2.781-1.946 5.272-4.193 7.705-6.556 9.652-9.382 20.453-19.862 27.183-31.614zm-47.276-8.138c3.661-4.377 7.113-8.751 9.28-14.078 2.503-6.151 2.487-12.581 3.669-19.016.658-3.579 1.351-7.146 1.959-10.735.229-1.355.396-2.722.639-4.075.139-.772.132-2.71.753-3.231.438-.367 1.095-.401 1.616-.168 1.614.723 2.452 4.238 3.32 5.729 1.548 2.657 3.238 5.235 4.751 7.912 3.052 5.4 4.574 11.361 6.321 17.274a158.522 158.522 0 014.023 16.858 146.8 146.8 0 011.281 8.527c.299 2.491.886 4.968-1.619 6.559-1.305.829-3.209-.04-4.583-.354-1.995-.457-3.99-.913-5.987-1.363-4.09-.921-8.188-1.814-12.305-2.605-3.76-.723-7.552-.56-11.334-1.139-2.106-.322-4.122-.728-6.157-.9 1.634-1.607 3.03-3.59 4.373-5.195zm-6.888 10.291c1.272-1.445 2.41-.379 3.806.09 1.769.594 3.626.957 5.46 1.281 3.799.67 7.656 1.032 11.404 1.973 2.722.683 5.4 1.525 8.115 2.232 1.438.375 2.889.738 4.355.986.975.165 2.407-.022 3.076.818 1.69 2.125-2.326 5.683-3.578 7.095a381.57 381.57 0 01-7.743 8.491c-2.802 2.974-5.598 5.886-8.816 8.414a57.3 57.3 0 01-1.555 1.168c-2.172-1.647-3.831-2.595-6.94-2.246-2.866.321-5.51 1.502-7.831 3.151-.041-2.671-.152-5.32-.193-7.818-.073-4.5-.058-9-.046-13.5.006-2.25.012-4.5.006-6.75-.005-1.518-.612-4.146.48-5.385zm-59.984-22.1c3.959-7.486 7.059-15.416 10.776-23.024 3.158-6.46 7.306-12.616 9.931-19.313 2.814-7.18 1.543-14.177.395-21.577-.942-6.073-2.166-12.211-4.022-18.088.029-2.033.754-3.546 2.938-3.471 2.5.086 5.702 3.931 7.124 5.553 9.433 10.76 15.454 22.442 20.256 35.858 5.087 14.214 2.922 30.234 4.931 44.997.915 6.729 2.144 13.271 2.382 20.087.273 7.803.12 15.646.103 23.453-.017 7.383.025 14.867-1.729 22.083-2.018 8.304-8.85 9.343-16.493 9.659-14.481.598-30.798-3.026-43.678-9.669-5.6-2.888-10.437-6.894-14.416-11.814-2.572-3.181-4.468-6.834-5.709-10.732-1.617-5.084.075-8.688 3.346-12.666 4.103-4.99 8.746-9.512 12.887-14.472 4.394-5.264 7.778-10.812 10.978-16.864zm-59.928-27.932c-1.574-2.937-3.579-5.678-5.511-8.389-1.204-1.688-2.538-3.307-3.698-5.024-1.37-2.029-2.389-2.363-.321-4.222 4.276-3.844 16.687 4.821 20.79 7.319 5.987 3.646 10.785 8.118 15.268 13.439 8.021 9.521 14.886 19.307 18.114 31.29-2.672-.379-5.483-.172-8.18-.269-5.646-.202-11.172.775-16.708 1.862-4.106.806-9.142 1.098-14.166 1.712.295-.97.456-2.003.585-2.916.813-5.697.579-11.915-.356-17.578-.962-5.833-3.017-12-5.817-17.224zm-23.661 44.764c7.652-.265 13.475 2.534 18.82 7.736 4.498 4.377 11.435 11.958 4.615 17.476-2.446 1.979-5.704 2.749-8.662 3.875.757-5.768-.896-11.955-3.706-16.938-3.949-7.003-13.155-8.393-20.921-10.59 3.298-.471 6.68-1.449 9.854-1.559zm-30.744 2.383c5.584-1.294 8.855-1.02 13.921 1.394 6.779 3.23 16.618 3.624 22.038 8.895 6.002 5.835 6.18 18.535-.784 23.682-3.536 2.613-8.201 4.183-12.549 4.659l-.349.035c.674-2.244.882-4.57.34-6.823-1.637-6.8-7.337-13.854-11.616-19.207-3.544-4.435-9.453-8.772-15.836-11.122 1.61-.503 3.209-1.136 4.835-1.513zm-48.774 26.47c2.079-3.187 5.137-5.467 8.41-7.299 4.956-2.774 9.846-5.103 14.471-8.453 2.577-1.866 5.394-4.289 8.522-4.906 2.968-.585 6.711-.288 9.639.218 7.141 1.235 13.219 5.169 17.264 11.1 3.329 4.88 8.601 13.082 7.689 19.049-.944 6.183-7.95 11.832-13 14.669-7.503 4.215-17.247 2.276-24.906 5.946.002-5.761-3.09-11.813-7.691-15.369-5.671-4.382-14.118-10.583-22.202-11.403.586-1.17 1.052-2.399 1.804-3.552zm-30.679 31.741c4.247-3.538 8.766-6.861 12.516-10.941 3.565-3.88 7.203-10.565 12.875-11.624 5.135-.958 12.393 2.304 16.69 4.594 5.049 2.691 10.576 5.232 12.257 11.161.911 3.21.884 6.393-.86 9.256-1.854 3.045-4.708 3.849-7.562 5.624-3.209 1.997-6.971 4.153-9.206 7.292-2.889 4.058-3.397 7.525-7.631 10.055.186-8.771-5.785-18.825-13.096-23.009-5.068-2.901-10.903-3.268-16.454-2.005.159-.137.318-.276.471-.403zm-14.915 15.127c6.375-6.718 18.625-14.54 28.211-10.923 10.276 3.877 13.869 20.815 7.271 29.078-2.688 3.367-6.782 5.246-10.164 7.803a28.956 28.956 0 00-5.878 5.949c-.552-4.294-3.182-6.623-6.605-10.037-3.729-3.719-7.927-7.92-13.377-8.678-3.458-.48-6.532.349-9.417 1.773 3.297-4.968 5.795-10.576 9.959-14.965zm-35.19 40.04c4.062-5.122 8.57-9.699 14.731-12.23 4.296-1.766 7.58-4.818 11.47-7.333 7.18-4.641 13.216-2.517 19.109 2.873 5.366 4.909 6.686 8.952 3.649 15.768-2.162 4.852-4.741 10-9.11 13.252-4.554 3.389-12.253 3.048-17.048 6.25-.376-2.719-1.755-5.273-4.158-7.066-2.389-1.781-5.858-3.194-8.563-4.411-3.896-1.753-7.257-4.252-11.683-4.641-.109-.009-.215-.008-.324-.015.688-.791 1.31-1.67 1.927-2.447zM44.951 310.39c3.528-5.677 9.23-10.258 16.245-8.381 3.804 1.018 15.669 3.813 17.122 7.951 1.544 4.397-1.232 8.105-4.341 10.712-1.901 1.595-3.193 3.093-6.346 2.878-1.021-.069-2.006-.75-3.068-.811-1.081-.063-2.143.203-3.132.679-.164-1.445-.795-3.007-2.073-4.73-3.693-4.98-9.962-6.859-15.822-6.081.468-.716.936-1.447 1.415-2.217zm-9.722 11.616c2.565-2.024 4.477-4.093 6.204-6.388 3.008-.702 5.727-.56 8.807 1.268 2.708 1.607 5.605 3.285 6.579 6.501.63 2.082-.135 4.259-1.284 6.398-1.932 3.05-3.712 6.015-6.54 8.702-2.238 2.128-4.613 3.95-7.426 5.178-1.405.613-2.743 1.044-4.014 1.771-3.052-5.039-6.523-10.222-13.014-9.73 1.681-5.461 6.48-10.381 10.688-13.7zm-18.12 89.918c-5.273-.873-6.562-6.001-8.166-10.473-3.423-9.546-4.852-18.759-3.651-28.914 1.111-9.395 3.718-19.343 9.882-26.708 3.457-4.13 9.767-8.049 13.932-2.549 2.465 3.255 4.028 7.202 6.36 10.574 4.23 6.118 10.45 12.271 17.413 15.149 3.55 1.468 7.372 2.13 10.997 3.384 4.512 1.562 5.97 5.029 8.14 8.572-1.331 6.927-11.394 12.306-16.527 15.484-7.763 4.806-16.028 10.087-24.715 13.002-4.18 1.405-9.229 3.213-13.665 2.479zm50.6 15.079c-1.123 2.172-3.261 4.366-5.475 5.443-5.076 2.471-10.755-.141-15.772-1.333-4.819-1.145-9.357-2.07-13.901-4.21-3.911-1.842-7.106-4.426-10.054-7.585a27.49 27.49 0 01-1.094-1.268c6.018-.507 12.3-2.931 17.16-5.241 9.083-4.318 18.561-9.325 26.588-15.432 2.281-1.735 5.082-4.137 7.291-6.903-.562 2.935-.98 5.729-2.559 8.578-1.805 3.258-3.909 5.802-4.386 9.602-.375 2.985.218 5.413 1.31 8.14 1.49 3.725 3.113 5.91.892 10.209zm436.737-109.19c-1.12 11.633-4.556 22.631-6.843 34.022-2.131 10.609-4.362 21.139-7.317 31.561-5.819 20.521-15.468 47.152-39.752 51-11.476 1.818-15.259-12.26-19.625-20.102-4.505-8.089-12.924-8.819-21.09-11.2-7.035-2.05-10.114-6.545-15.379-11.09-3.532-3.049-7.91-5.878-12.278-7.547-5.574-2.129-10.856-1.183-16.636-.858-2.944.165-5.628-.094-8.539-.402-.532-.057-1.642-.241-2.57-.305-2.766-.539-5.473-1.247-8.278-1.615-1.966-.257-4.117-.212-5.855.898-2.708 1.729-3.202 4.811-6.616 6.027-4.269 1.521-8.24-.723-12.076-2.342-1.915-.809-4.284.524-3.673 2.823.5 1.877 1.512 4.382-.354 6.064-1.537 1.385-6.112 1.597-7.708 1.637-5.63.141-10.965-1.557-16.161-3.496-1.515-.565-3.145.888-3.126 2.381.042 3.35 5.716 9.534.437 10.229-5.589.737-12.006-4.522-16.202-7.536-1.905-1.368-4.783.459-4.678 2.685.065 1.379.584 2.438 1.103 3.692 1.06 2.562 3.775 6.747-1.481 4.881-5.351-1.899-8.601-7.839-12.773-11.338-1.675-1.404-4.733-.611-4.627 1.917.081 1.922.922 3.504 1.588 5.283.922 2.46 4.064 9.957-1.005 7.691-5.477-2.447-7.424-10.337-11.741-14-1.593-1.352-4.645-.598-4.49 1.859.192 3.057 1.688 5.418 2.559 8.329.719 2.403 3.704 9.377-.278 9.478-2.972.075-7.688-6.834-9.138-8.848-2.031-2.822-3.383-6.03-5.413-8.82-1.98-2.722-6.046-1.113-5.416 2.283.839 4.519 1.771 8.932 2.339 13.508.132 1.064.825 3.696.412 4.832-.709 1.952-1.389.062-2.656-1.412-3.276-3.813-5.794-8.302-7.503-13.026-.911-2.518-1.262-4.486-3.481-6.141-1.097-.817-2.905-.19-3.52.923-.875 1.586-.896 3.19-1.006 4.969-.149 2.408.187 9.512-3.188 5.688-3.73-4.227-1.862-11.476-5.798-15.615-1.568-1.649-3.971-.64-4.685 1.237-.724 1.902-1.32 6.29-2.751 8.622-1.305-2.065-1.856-5.664-2.549-7.484-.989-2.598-2.102-5.182-3.706-7.465-1.28-1.823-2.816-3.302-4.559-4.39 2.814-.335 5.62-.823 8.492-1.641 4.848-1.38 9.339-3.343 13.619-5.822 1.068-.455 2.086-.902 3.02-1.307 6.779-2.939 13.833-5.938 19.689-10.544 5.874-4.62 9.991-11.351 14.928-16.898 5.382-6.046 11.581-11.236 17.1-17.147 7.305-7.824 11.151-17.661 13.226-27.931 6.761-16.742 10.147-32.536 9.581-50.685-.03-.982-1.524-.989-1.531 0-.077 11.093-2.019 21.379-4.84 31.584 2.499-13.62 2.234-27.625-2.355-40.869-.332-.956-1.854-.551-1.528.421 2.95 8.783 2.822 18.444 1.952 27.582l-.011.092c-1.09-8.511-3.268-16.883-6.242-24.983-.392-1.069-2.064-.651-1.735.479 4.012 13.792 5.237 27.656 3.57 41.963-1.676 14.389-6.025 29.124-16.462 39.604-4.594 4.613-9.531 8.929-13.828 13.824-4.64 5.286-8.483 11.287-13.229 16.453-4.564 4.968-11.029 8.208-16.937 11.307-2.955 1.55-5.945 2.958-8.93 4.438-1.045.518-2.116 1.178-3.203 1.851-2.295.883-4.622 1.692-7.021 2.355-7.292 2.013-14.282 1.857-21.783 1.995-5.178.095-9.931.761-14.498 3.356-5.483 3.115-9.864 7.788-15.309 10.983-5.37 3.15-11.425 4.639-16.895 7.533a66.987 66.987 0 00-13.731 9.682c-5.432 4.959-10.578 10.231-17.224 13.624-3.481 1.777-7.159 2.91-11.04 3.346-.903.102-1.808.107-2.71.098 2.47-4.242 3.014-9.557 1.026-14.093-1.961-4.476-3.502-8.015-1.054-12.805 1.044-2.042 2.551-3.804 3.545-5.883 1.631-3.414 2.479-6.882 1.675-10.514 2.914-1.813 5.778-4.238 8.979-4.902-.247 5.031-1.641 9.995-2.614 14.913-.331 1.67 1.898 2.236 2.511.692 2.225-5.592 3.088-10.7 2.843-15.762 2.808.056 4.917-.145 7.716-1.624 4.202-2.218 7.521-5.45 12.147-6.896.91-.284.787-1.751-.231-1.714-3.399.125-5.949 1.284-8.961 2.714-3.277 1.557-6.409 3.295-10.195 2.708a8.782 8.782 0 01-1.089-.247c-.684-3.604-1.877-7.257-3.522-11.116-.167-.391-.752-.103-.663.279.772 3.315 1.502 6.837 1.865 10.318a4.964 4.964 0 00-.89.031c-2.097.27-4.194 1.569-5.556 3.152-.565.658-.627 1.295-1.654 1.045-.936-.228-1.31-1.389-1.429-2.217-.9-6.253-5.244-11.294-11.148-13.511-4.552-1.709-9.076-2.886-12.984-5.913-4.012-3.106-7.6-6.649-10.471-10.821 4.994-1.419 8.833-4.571 12.076-8.745 2.576-3.316 4.107-6.987 6.389-10.43 3.185-4.806 4.648-2.597 9.013-1.928 5.551.85 10.791-4.917 13.324-9.336.089-.037.18-.058.266-.114 2.343-1.51 4.106-3.119 6.856-3.918 3.165-.92 6.478-1.393 9.62-2.394 5.026-1.601 8.783-5.86 11.509-10.246 2.043-3.285 3.827-7.343 4.649-11.339.454.008.923-.15 1.331-.543 2.741-2.64 5.227-5.271 8.476-7.333 2.114-1.342 4.382-2.449 6.385-3.96 4.097-3.089 6.777-6.658 8.098-11.551.148.051.302.091.462.104 4.86.417 8.068-3.607 10.117-7.542 1.823-3.501 3.186-5.476 6.512-7.831 2.493-1.765 5.313-3.057 7.753-4.832 2.334-1.698 3.849-3.84 4.684-6.19 3.434-.619 6.657-1.841 10.263-2.161 3.493-.31 6.949-.879 10.408-1.479 6.826-1.185 12.704-4.868 17.461-9.944a27.915 27.915 0 002.86-3.615c4.577-.934 9.102-1.065 13.668-2.862 3.407-1.341 6.94-3.538 9.124-6.542.522-.718.959-1.47 1.354-2.236 6.173-.815 13.32-3.075 17.093-8.218 4.135-5.638.882-12.558-3.146-17.308-2.798-3.3-5.889-6.372-9.399-8.768 2.968-.631 5.937-1.425 8.947-1.729 5.222-.526 10.465-.718 15.646-1.613 9.057-1.565 17.809-2.781 26.93-3.218-.122.146-.236.299-.36.444-3.83 4.488-8.265 8.688-12.1 13.261-8.703.778-13.458 13.081-13.652 20.737-.315 12.362 5.499 20.47 15.572 26.744 1.091.68 2.163-.83 1.334-1.729-2.852-3.097-6.369-5.667-8.807-9.155-2.793-3.996-3.959-9.129-4.165-13.928-.212-4.954.854-9.871 3.696-13.979.229-.332.476-.64.724-.944-1.967 4.363-1.509 8.357.563 13.36 5.652 13.651 17.248 23.795 31.058 28.798 14.68 5.319 29.941 8.858 45.58 6.51 3.344-.503 5.938-1.585 7.968-3.087-1.417 2.131-3.115 4.069-4.525 5.59-4.128 4.456-9.367 5.978-15.287 6.458-1.126.091-1.483 1.739-.279 2.057 7.206 1.903 13.855-1.015 18.389-6.682 3.656-4.569 5.931-9.675 7.076-15.404.408-2.042 1.039-3.968 1.268-6.086.348-3.226-.08-5.819 3.225-7.403 1.719-.823 7.331-3.623 8.583-.809.231.521.093 1.149-.229 1.62s-.802.808-1.292 1.098c-1.633.967-3.478 1.528-5.133 2.455-3.414 1.913-4.697 6.227-5.22 9.907-1.196 8.418 3.283 15.473 10.583 19.43 1.377.747 2.952-1.102 1.725-2.235-4.331-4-8.703-7.701-8.964-14.111-.07-1.724.138-3.417.549-5.047.203 8.384 10.381 16.491 17.192 20.063 14.582 7.647 31.062 8.602 46.221 14.323 6.042 2.28 13.825 2.952 19.501-.711a12.044 12.044 0 002.51-2.182c-3.631 6.601-11.306 11.039-18.961 12.116-1.168.165-.839 1.984.271 2.005 12.013.223 23.968-9.134 22.391-21.188a46.6 46.6 0 00.846-3.061c1.763 7.061 1.078 13.989-1.254 21.542-.359 1.164 1.419 1.943 1.988.838 4.228-8.207 4.897-18.338.124-26.154l.069-.316c1.594-7.327 2.432-14.791 2.966-22.264.277-3.881.472-7.768.656-11.655.087-1.823-.933-7.379 1.488-8.122 1.646-.504 4.911 2.905 6.212 4.003 2.655 2.244 4.871 4.874 7.689 6.995 6.886 5.182 13.205 11.098 18.136 18.263 4.384 6.369 6.942 13.336 8.574 20.855.843 3.886.829 9.409 1.996 13.896.303 16.241.424 32.578-1.123 48.641z"/><path d="M371.577 260.748c4.661 3.451 10.549 5.905 16.152 7.336 1.186.303 1.568-1.348.492-1.787-5.065-2.065-10.562-4.504-15.178-7.451-5.264-3.36-8.71-8.161-12.313-13.134-.278-.383-.908-.041-.649.38 3.338 5.416 6.285 10.799 11.496 14.656zm42.572 9.53c1.139.144 1.303-1.649.265-1.952-11.653-3.395-22.473-5.715-32.513-12.905-1.006-.721-2.322.96-1.334 1.729 10.114 7.866 20.9 11.53 33.582 13.128zm-2.982 3.17c5.802 3.479 11.51 6.903 18.519 4.872.709-.205.61-1.445-.182-1.345-6.473.822-12.273-1.349-17.958-4.177-.43-.213-.798.399-.379.65zm-11.237 7.378c-.421-.126-.575.496-.179.647 8.561 3.268 16.655 6.127 25.908 6.311 8.697.172 15.938-2.109 23.67-5.905 1.252-.615.367-2.791-.963-2.282-7.801 2.985-15.302 5.327-23.74 5.552-8.633.229-16.507-1.865-24.696-4.323zm64.084-28.884c1.231 8.174.365 15.137-1.979 23.007-.317 1.065 1.387 1.844 1.84.776 3.494-8.228 3.025-15.485.915-23.997-.127-.515-.851-.285-.776.214zM285.5 243.695c-6.244-2.863-11.967-6.757-16.983-11.452-5.183-4.851-8.35-10.788-11.737-16.918-.27-.488-.985-.058-.742.434 3.329 6.734 6.029 13.429 11.308 18.92 4.951 5.151 10.591 8.667 17.43 10.734.996.301 1.707-1.267.724-1.718zm15.432 3.302c6.088 2.706 12.735 3.525 19.341 3.335 1.24-.036 1.174-1.74 0-1.88-6.212-.743-12.591-1.715-18.463-3.986-5.525-2.137-10.008-6.132-14.667-9.671-.662-.503-1.538.624-.895 1.16 4.689 3.905 9.032 8.531 14.684 11.042zm10.729 8.562c-2.764-.258-5.525-.577-8.22-1.256-4.685-1.182-9.222-2.903-13.598-4.942-1.447-.674-2.718 1.475-1.261 2.157 5.542 2.594 12.21 5.569 18.437 5.749 3.375.097 6.719.597 10.052 1.098 3.079.462 6.54.474 9.481 1.456 5.817 1.941 13.296.808 19.043-.99.918-.288.534-1.594-.393-1.424-6.965 1.273-14.185 1.247-21.171.146-3.391-.535-6.553-1.468-9.972-1.775-.798-.074-1.598-.144-2.398-.219zm13.369 10.672c-7.562.334-14.796 1.058-21.788 4.152-4.26 1.885-15.084 5.622-15.459 11.407-.186 2.876 2.018 6.518 2.988 9.192 1.301 3.587 2.659 7.14 4.949 10.232 4.019 5.427 10.65 8.929 16.831 11.316 12.765 4.93 30.703 4.872 42.824-1.794 5.776-3.177 10.441-8.476 10.065-15.526-.293-5.509-3.514-10.509-8.466-12.808-8.622-9.297-17.803-16.795-31.944-16.171zm31.62 19.63c4.59 5.896 7.473 12.707-.065 18.511-5.308 4.086-13.599 5.906-20.161 6.435-12.82 1.033-31.669-2.623-39.177-14.187-2.022-3.114-4.066-7.079-4.821-10.734a5.168 5.168 0 01-.085-1.698c1.56 2.266 3.899 3.251 7.133 3.905 2.499.505 4.818-.119 7.293-.063 3.654.081 6.414 3.356 9.599 4.872 5.239 2.494 11.171 2.992 16.845 3.743 6.625.877 11.904 4.614 18.572 1.841 1.682-.7 1.591-3.258-.45-3.323-5.01-.159-9.156-1.789-13.951-2.715-5.852-1.13-11.887-.662-17.707-2.193-3.881-1.021-7.108-4.005-10.936-4.711-4.941-.911-11.933 1.535-15.357-3.507 1.366-1.418 3.793-2.146 5.913-3.236 7.295-3.748 13.834-6.329 22.027-7.249 7.952-.893 14.403-.442 21.556 3.463 5.195 2.836 9.629 6.676 13.772 10.846zm88.426 25.266c-4.851-10.193-18.446-16.214-28.608-17.78-7.499-1.155-15.303-1.127-22.696.747-5.09 1.291-13.572 4.341-15.62 9.69-2.091 5.46 2.754 12.277 5.584 16.496 3.781 5.638 10.117 10.247 15.839 13.776 12.315 7.596 28.729 13.066 42.719 6.539 12.358-5.764 11.035-21.028 2.782-29.468zm-17.756 27.025c-13.833-.43-28.503-7.342-37.989-17.456-2.269-2.419-5.211-6.927-6.069-10.183-.598-2.27.133-4.058 1.446-5.515 1.694 2.968 3.12 6.013 6.285 7.744 4.363 2.387 9.789 2.087 14.385 4.116 4.605 2.033 9.266 3 13.998 4.641 4.981 1.728 10.393 3.729 15.711 3.327a.756.756 0 00.2-1.477c-5.423-1.955-11.08-2.9-16.519-4.955-4.083-1.542-7.804-2.881-11.595-5.104-3.028-1.776-5.84-2.718-9.299-3.18-5.272-.705-8.111-3.401-11.934-6.27 1.279-1.03 2.802-1.87 4.194-2.591 6.247-3.234 13.636-4.165 20.592-3.8 8.115.426 15.424 2.373 22.244 6.85 4.553 2.989 7.647 6.788 11.171 10.544 1.812 3.289 3.149 6.906 2.967 10.452-.521 10.204-11.399 13.117-19.788 12.857zm-141.972-58.747c-.04-.404-.657-.422-.645 0 .247 8.528.597 18.157 7.138 24.592.563.555 1.655-.205 1.139-.878-5.007-6.529-6.846-15.772-7.632-23.714zm4.656 29.92c3.214 3.685 6.498 7.513 10.686 10.127 4.77 2.978 10.441 4.277 15.886 5.374.979.197 1.375-1.193.414-1.502-5.107-1.643-10.632-2.894-15.367-5.467-4.257-2.314-7.704-5.659-11.106-9.044-.335-.334-.817.163-.513.512z"/><path d="M366.979 303.248c-6.596 9.045-18.672 13.736-29.205 16.263-1.417.34-.796 2.383.592 2.149 11.649-1.965 23.167-7.637 29.424-17.938.322-.528-.462-.953-.811-.474zm-13.828 17.387c-8.819 3.439-17.372 6.492-26.946 6.419-1.107-.009-1.105 1.691 0 1.718 9.829.245 19.064-1.346 27.743-6.248.99-.559.319-2.325-.797-1.889zm45.893 20.607c1.021.475 1.879-.917.895-1.53-5.651-3.525-11.263-7.279-15.652-12.356-4.842-5.602-7.068-11.681-8.849-18.739-.124-.491-.844-.28-.751.207 1.436 7.509 2.878 13.878 7.584 20.088 4.38 5.78 10.283 9.31 16.773 12.33zm-30.842-15.433c3.611 6.511 6.958 13.351 12.912 18.069 7.54 5.975 15.686 7.937 25.032 9.293 1.515.22 2.221-2.034.65-2.356-8.175-1.679-15.743-3.505-22.807-8.173-6.558-4.333-10.616-10.938-14.628-17.51-.45-.738-1.58-.081-1.159.677zm76.007-23.893c3.727 5.243 6.859 11.073 8.863 17.196 2.408 7.358.427 13.933-1.61 21.069-.341 1.197 1.437 1.99 2.037.858 3.553-6.699 5.506-13.523 3.028-20.938-2.375-7.105-7.2-12.822-11.77-18.608-.243-.308-.778.1-.548.423zm17.361 23.903c-1.036 8.922-3.463 15.119-9.869 21.5-.919.916.318 2.667 1.432 1.855 8.09-5.894 10.395-13.612 9.215-23.355-.059-.498-.719-.502-.778 0zm-40.533 20.356c-1.208-.238-1.734 1.561-.514 1.864 5.5 1.371 10.34 1.366 15.961.8 1.296-.131 1.358-2.073 0-2.068-5.289.019-10.207.438-15.447-.596zm-101.282 19.296c-2.244.901-4.567 1.935-6.954 2.395-3.627.699-5.75-1.293-8.798-2.085-1.762-.458-2.483-.598-3.859.75-3.58 3.508-4.056 7.778-9.8 9.195-4.219 1.041-6.877-.394-10.364-2.274-1.35-.729-1.234-1.195-2.801-1.622-1.313-.357-2.233.63-2.393 1.824-.253 1.887.037 4.36-.885 6.051-.307 2.701-2.114 3.287-5.42 1.759a14.536 14.536 0 01-2.549-2.248c-2.024-2.122-2.731-4.796-5.62-5.748-1.252-.413-3.132.485-3.321 1.886-.306 2.266-.06 9.451-3.641 8.51-2.017-.53-3.56-5.413-4.523-7.106-1.252-2.201-3.146-4.976-5.977-3.239-3.291 2.018-1.996 7.249-3.99 9.943-2.702 3.653-3.816-2.224-4.379-4.7-1.028-4.512-1.153-8.906-1.17-13.506-.005-1.263-1.932-1.261-1.96 0-.135 5.898-2.008 19.125 3.866 23.412 5.197 3.792 7.66-4.191 8.63-7.747.086-.315.615-2.915.659-2.93.139-.048 2.012 4.809 2.46 5.62 1.366 2.47 3.371 5.242 6.131 6.247 5.603 2.04 7.52-2.519 8.38-7.296a20.621 20.621 0 003.566 3.36c2.376 1.745 5.155 2.969 8.133 2.151 5.259-1.445 5.474-6.524 5.415-11.142.94.761 1.885 1.598 2.771 1.975a16.382 16.382 0 005.937 1.281c5.148.131 9.471-2.136 12.76-6.014.545-.643 3.078-4.117 2.546-4.494.844.187 3.066 2.019 4.017 2.314 5.16 1.606 10.285-.076 14.635-2.962 1.718-1.143.662-4.429-1.502-3.56zm89.695 25.041c-5.191-3.111-9.79-6.63-15.348-9.212a85.113 85.113 0 00-16.817-5.795c-12.324-2.837-24.891-2.978-37.469-3.338-.541-.016-.529.792 0 .833 12.621.946 25.363 2.736 37.572 6.162 11.031 3.095 20.414 10.055 31.245 13.289 1.163.347 1.84-1.325.817-1.939zm-16.447-20.301c-10.381-4.565-20.727-6.188-31.899-7.507-.507-.06-.629.812-.122.897 11.214 1.897 21.957 4.843 32.09 10.133 9.418 4.917 17.532 12.417 26.152 18.563.988.704 1.913-.767 1.22-1.582-7.082-8.333-17.426-16.101-27.441-20.504zm58.057 22.605c-7.777-4.14-16.193-6.72-23.762-11.368-7.942-4.877-14.437-10.893-20.57-17.846-.314-.355-.797.156-.513.513 5.753 7.209 11.102 14.092 18.644 19.572 7.696 5.593 16.124 8.979 25.259 11.363 1.31.341 2.193-1.568.942-2.234zm-176.461-53.447c.739-1.438-1.395-2.707-2.18-1.274-2.194 4.005-7.635 14.675-3.49 19.039 1.483 1.561 3.653 1.308 5.385.37.855-.462 3.029-3.863 4.437-5.922.526 3.688.992 8.185 5.228 8.521 3.22.256 4.699-2.399 5.614-5.437.928 1.5 2.318 3.038 4.059 3.495 4.012 1.055 6.354-2.963 7.707-6.04 1.07-2.434.098-2.292 2.154-.489 1.434 1.259 3.659 1.759 5.488 1.99 4.674.591 9.667-.645 11.966-5.005.899-1.706-1.132-3.052-2.531-1.953-2.304 1.811-5.006 2.961-7.957 2.983-2.757.02-4.046-1.409-6.086-2.688-1.445-.906-2.368-1.851-4.13-.777-1.887 1.148-1.687 4.058-3.235 5.429-4.908 4.349-4.316-3.87-5.601-6.279-.77-1.443-3.154-1.505-3.906 0-.499.998-2.554 8.981-3.111 8.938-1.967-.152-2.172-5.763-2.767-7.133-.258-.595-1.037-.943-1.646-.944-3.037-.004-3.714 2.991-5.156 5.206-.829 1.273-2.088 3.429-3.411 1.295-.779-1.257-.649-3.077-.412-4.46.54-3.156 2.134-6.048 3.581-8.865zm-127.956-59.291c7.012 1.896 12.174.222 18.021-3.851.657-.458.274-1.739-.59-1.399-2.468.97-4.781 2.287-7.276 3.195-3.324 1.21-6.284 1.322-9.784.708-.87-.152-1.255 1.108-.371 1.347zm-2.169 8.724c6.599-.958 12.403-1.393 17.591-6.026.688-.615-.214-1.801-.993-1.287-2.564 1.695-5.145 3.385-8.037 4.477-2.814 1.063-5.815 1.534-8.739 2.188-.431.098-.237.709.178.648zm84.832-6.729c3.822-9.284 4.482-17.398.943-26.848-.167-.445-.867-.271-.725.2 2.741 9.091 1.156 17.421-1.849 26.198-.36 1.051 1.228 1.429 1.631.45zm22.668 16.362c-1.987 9.284-5.336 17.961-9.173 26.629-.334.755.644 1.756 1.265.976 5.962-7.483 7.563-18.146 9.1-27.277.13-.77-1.023-1.116-1.192-.328zm-7.457 8.785c-4.833 13.353-12.205 23.792-21.859 34.055-.766.814.36 1.854 1.196 1.196 12.014-9.445 16.727-20.877 21.414-35.044.158-.48-.582-.674-.751-.207z"/></svg>