<?xml version="1.0" encoding="iso-8859-1"?>
<!-- Generator: Adobe Illustrator 19.0.0, SVG Export Plug-In . SVG Version: 6.00 Build 0)  -->
<svg version="1.1" id="Capa_1" xmlns="http://www.w3.org/2000/svg" xmlns:xlink="http://www.w3.org/1999/xlink" x="0px" y="0px"
	 viewBox="0 0 512.003 512.003" style="enable-background:new 0 0 512.003 512.003;" xml:space="preserve">
<path style="fill:#AF957B;" d="M506.388,269.6c-2.239-23.261-10.61-41.933-28.519-56.541c-3.167-2.583-6.229-5.406-9.728-7.453
	c-8.15-4.766-10.494-11.493-9.387-20.698c2.875-23.903-0.531-47.673-2.717-71.426c-0.543-5.907-2.604-11.674-4.75-20.857
	c-3.098,6.518-5.007,9.931-6.389,13.544c-7.057,18.449-13.749,37.042-21.089,55.376c-1.609,4.02-2.589,8.924-6.702,11.845
	c-0.075,0.143-0.167,0.276-0.263,0.406c0.364,1.205-0.489,2.314-1.572,2.716c-0.948,0.352-2.075,0.231-2.788-0.54
	c-0.141-0.152-0.251-0.323-0.343-0.501c-0.066,0.014-0.125,0.033-0.193,0.046c-1.279-2.675-2.819-5.491-4.006-8.447
	c-4.806-11.969-9.322-24.058-14.377-35.919c-1.17-2.746-2.973-6.413-9.06-4.641c-1.711,7-3.031,14.986-5.679,22.505
	c-0.489,1.389-1.019,2.767-1.567,4.138c-0.905,3.665-2.254,7.392-4.472,9.894c-1.35,2.678-2.781,5.313-4.271,7.897
	c-0.281,0.487-0.714,0.887-1.259,1.241c-0.487,0.79-0.99,1.568-1.521,2.323c-1.398,1.986-4.23,1.952-5.723,0.613
	c-0.333,0.139-0.668,0.283-1.007,0.439c-1.274-13.427-2.073-24.903-3.506-36.299c-2.692-21.406-10.006-40.997-24.392-57.44
	c-1.985-2.269-5.133-3.521-10.228-6.885c1.065,10.263,2.389,17.597,2.42,24.938c0.024,5.409,0.131,11.265-1.205,16.415
	c-0.083,0.427-0.178,0.855-0.304,1.288c-0.082,0.281-0.197,0.533-0.329,0.768c-0.174,0.489-0.358,0.972-0.566,1.443
	c-6.319,14.308-14.027,28.021-21.614,41.731c-1.342,2.425-4.802,3.678-8.087,6.054c-2.872-5.502-4.948-9.741-7.253-13.85
	c-8.954-15.963-21.66-27.935-38.373-35.494c-2.967-1.342-6.199-3.08-10.101,0.602c3.186,8.397,6.939,16.993,9.688,25.898
	c2.816,9.127,3.734,18.569,0.993,28.221c-4.109,1.678-7.77,4.236-11.61,4.543c-7.806,0.625-15.692,0.508-23.522,0.789
	c-0.102,0.037-0.199,0.082-0.301,0.117c-2.544,0.876-4.843,0.756-7.194,0.319c-1.752,0.148-3.5,0.325-5.24,0.564
	c-12.485,1.723-25.245,2.248-36.739,9.676c-15.017,9.704-26.546,22.858-39.032,35.141c-2.888,2.84-5.792,5.665-8.687,8.498
	c-0.615,0.771-1.234,1.539-1.876,2.287c-2.697,3.142-6.033,6.298-9.689,9.027c-1.013,0.988-2.021,1.98-3.034,2.968
	c-2.433,2.374-5.712,4.276-7.228,7.126c-7.107,13.366-16.843,23.874-28.62,33.629c-11.797,9.771-20.961,22.782-30.951,34.65
	c-5.2,6.179-9.234,13.36-14.578,19.395c-27.25,30.776-19.694,73.285,23.255,90.07c18.3,7.152,36.341,1.697,51.905-8.712
	c11.335-7.581,22.007-15.826,34.867-20.956c5.551-2.215,9.93-7.218,15.331-10.006c5.946-3.069,12.272-5.883,18.762-7.302
	c9.235-2.019,13.859,0.699,18.463,8.971c1.938,3.483,3.447,7.205,5.15,10.818c3.445-1.129,5.902,0.53,8.212,2.667
	c0.564,0.246,1.053,0.67,1.368,1.31c0.027,0.027,0.055,0.053,0.082,0.08c0.483,0.296,0.892,0.686,1.194,1.146
	c2.708,2.527,5.653,4.506,10.169,2.272c0.055-0.027,0.119-0.04,0.184-0.051c0.292-0.156,0.617-0.266,0.965-0.318
	c1.301-0.196,2.853,0.667,3.125,2.04c0.056,0.286,0.129,0.568,0.202,0.85c0.636,0.548,1.246,1.098,1.76,1.557
	c2.395,2.138,4.441,4.667,6.867,7.273c3.02-3.265,5.126-5.543,7.811-8.446c2.384,1.208,4.597,2.878,7.057,3.417
	c2.357,0.516,6.405,0.781,7.207-0.46c2.498-3.867,4.546-6.622,9.555-3.995c5.838,3.063,6.696-6.243,12.023-4.972
	c3.187,0.761,8.082,2.638,9.461,1.261c1.694-1.691,3.515-2.512,5.39-2.885c0.851-0.499,1.917-0.641,2.889-0.277
	c3.73-0.044,7.529,0.821,10.862-0.493c1.753-3.25,3.34-6.19,4.547-8.427c0.428-0.063,0.847-0.12,1.265-0.175
	c0.536-0.258,1.128-0.384,1.751-0.309c0.121,0.015,0.245,0.034,0.366,0.051c6.933-0.771,12.393-0.732,16.844-2.829
	c1.826-0.86,3.646-1.727,5.465-2.577c0.603-0.524,1.365-0.9,2.305-1.064c0.756-0.346,1.512-0.686,2.27-1.02
	c0.499-0.311,1.049-0.547,1.618-0.699c11.424-4.887,23.065-8.049,36.306-3.61c2.478,0.831,5.417,0.324,8.145,0.368
	c6.426,0.104,12.356,2.15,16.713,6.662c7.937,8.218,17.376,12.954,28.539,14.596c5.994,0.882,9.638,4.694,12.146,9.858
	c1.191,2.451,2.104,5.048,3.422,7.424c7.257,13.07,15.493,15.16,28.545,7.199c11.592-7.069,19.003-17.643,23.294-30.171
	C500.168,359.003,510.828,315.723,506.388,269.6z M199.444,265.792c-1.649,3.058-4.404,5.724-7.064,7.383
	c-5.339,3.331-13.729,3.264-18.825-0.59c-2.926-2.213-3.572-8.359,1.184-9.057c0.278-0.041,0.542-0.071,0.799-0.095
	c0.12-1.253,0.686-2.486,1.55-3.594c4.335-5.565,12.38-13.015,19.962-9.709c0.786,0.137,1.547,0.39,2.238,0.8
	c2.285,1.355,3.087,4.059,2.649,6.553c-0.016,0.09-0.046,0.17-0.066,0.257c0.099,0.445,0.172,0.889,0.193,1.31
	C202.193,261.607,201.441,264.204,199.444,265.792z"/>
<g>
	<path style="fill:#937A63;" d="M258.417,198.235c-0.305-0.723-0.826-1.421-1.538-1.798c-0.833-0.44-1.983-0.753-2.897-0.379
		c-0.621,0.254-1.241,0.506-1.859,0.767c-0.634,0.268-1.164,0.659-1.729,1.046c-1.525,1.043-2.25,2.833-1.506,4.595
		c0.09,0.215,0.207,0.419,0.339,0.613c-4.661-0.687-9.739,1.502-13.91,3.35c-2.795,1.238-3.774,1.824-6.625,1.693
		c-2.721-0.125-5.262,0.75-7.217,2.712c-1.962,1.969-3.066,4.46-5.199,6.321c-2.353,2.054-4.832,3.946-7.403,5.715
		c-4.057,2.789-7.962,5.415-12.19,7.579c-2.741,0.259-5.482,0.55-8.25,0.368c-5.337-0.351-10.043-0.945-15.12,1.22
		c-7.934,3.384-10.363,11.53-14.604,18.274c-7.912,2.461-15.183,6.759-21.684,11.878c-3.478,2.738-6.372,5.8-9.214,9.175
		c-2.888,3.43-6.394,6.126-9.462,9.376c-2.844,3.011-4.92,6.36-7.187,9.791c-2.595,3.927-5.859,7.415-8.901,10.995
		c-3.51,4.132-7.17,8.434-11.343,12.044c-0.719-0.138-1.534-0.099-2.439,0.19c-5.09,1.622-10.174,3.358-15.015,5.638
		c-4.348,2.047-9.041,2.641-12.852,5.743c-7.825,6.368-13.611,16.012-18.743,24.542c-0.978,1.625,1.472,3.654,2.701,2.084
		c5.541-7.071,12.521-15.192,20.494-19.603c3.622-2.003,7.992-2.368,11.84-3.938c3.494-1.426,7.101-2.521,10.659-3.76
		c-1.176,1.376-2.29,2.795-3.34,4.25c-1.586-0.801-3.553-0.583-4.521,1.505c-3.359,7.248-6.612,14.392-8.38,22.136
		c0.233-3.099,0.309-6.194,0.176-9.316c-0.085-2-2.813-1.904-3.04,0c-0.454,3.811-1.262,7.565-2.122,11.303
		c-2.259-0.911-5.241,1.292-3.52,3.744c3.846,5.478,7.614,10.334,8.425,17.201c0.78,6.611-0.058,13.248,1.151,19.793
		c0.566,3.068,5.448,2.96,6.094,0c0.685-3.142,1.227-6.19,1.475-9.224c0.464,0.006,0.947-0.057,1.453-0.248
		c7.118-2.691,14.548-4.428,21.669-7.103c6.388-2.399,12.125-5.759,17.708-9.658c11.017-7.692,22.4-16.173,31.434-26.162
		c0.784-0.867,0.976-1.958,0.774-2.964c4.517-3.276,8.878-6.765,12.999-10.57c0.573-0.529,0.977-1.118,1.236-1.734
		c0.49,1.133,1.708,2.044,3.104,1.746c14.393-3.071,28.994-7.161,39.408-18.251c4.797-5.109,8.522-10.982,11.68-17.18
		c1.088-1.724,2.095-3.504,2.977-5.37c2.967-6.278,5.759-12.667,6.667-19.61c0.962-7.363-1.892-14.279-4.199-21.134
		c-0.817-2.429-4.456-1.459-3.857,1.063c1.59,6.693,2.03,13.02,0.173,19.731c-0.753,2.722-1.83,5.387-3.027,8.008
		c0.31-1.558,0.5-3.192,0.535-4.929c0.842-0.236,1.528-0.878,1.719-2.055c1.365-8.417-2.982-16.689-7.176-23.764
		c-1.234-2.082-4.858-0.727-4.021,1.695c0.606,1.753,1.071,3.545,1.469,5.354c-1.236,0.13-2.455,0.56-3.495,1.36
		c-4.464-5.859-10.71-6.626-17.065-4.729c1.635-0.16,3.289,0.06,4.923,0.772c0.786,0.137,1.547,0.39,2.238,0.8
		c2.285,1.355,3.087,4.059,2.649,6.553c-0.016,0.09-0.046,0.17-0.066,0.257c0.099,0.445,0.172,0.889,0.193,1.31
		c0.129,2.557-0.623,5.154-2.62,6.742c-1.649,3.058-4.404,5.724-7.064,7.383c-5.339,3.331-13.729,3.264-18.825-0.59
		c-2.926-2.213-3.572-8.359,1.184-9.057c0.278-0.041,0.542-0.071,0.799-0.095c0.12-1.253,0.686-2.486,1.55-3.594
		c1.529-1.963,3.521-4.16,5.79-6.039c-2.565,1.669-5.004,3.603-7.187,5.621c-7.387,4.299-13.797,11.241-18.042,18.47
		c-2.092,1.906-4.039,4.04-6.248,5.702c-4.259,3.205-8.996,6.183-13.679,8.724c-9.941,5.394-20.602,9.455-30.247,15.394
		c-4.58,2.82-9.051,6.119-13.148,9.826c-0.051-0.374-0.143-0.737-0.265-1.087c3.289-1.936,6.441-4.11,9.549-6.624
		c7.161-5.791,13.429-12.061,19.996-18.446c3.232-3.143,7.208-5.309,10.461-8.403c3.081-2.93,5.561-6.371,8.847-9.111
		c6.968-5.809,15.679-8.839,22.274-15.153c1.574-1.507,1.819-3.501,1.23-5.234c1.23-1.015,2.422-2.085,3.508-3.315
		c3.086-3.499,5.624-7.142,10.743-7.27c4.723-0.118,9.03,1.214,13.805,0.389c4.683-0.809,8.746-2.65,12.361-5.729
		c1.896-1.615,1.586-3.964,0.268-5.577c1.105-0.408,2.211-0.822,3.319-1.248c5.491-2.109,11.336-4.106,15.842-8.035
		c0.785-0.685,1.709-1.449,2.36-2.306c0.23,0.043,0.46,0.087,0.691,0.131c3.07,0.473,5.699-0.306,8.561-1.339
		c5.585-2.018,13.351-3.781,16.532-9.246c1.04-1.786,0.505-4.146-1.146-5.349c0.623-0.211,1.239-0.421,1.846-0.678
		c0.625-0.264,1.189-0.629,1.771-0.978C258.491,201.965,259.142,199.954,258.417,198.235z M197.57,302.341
		c1.655-1.6,3.214-3.271,4.676-5.014c1.316-0.676,2.603-1.417,3.844-2.244c3.351-2.234,6.215-4.625,8.496-7.3
		c-2.172,4.302-4.637,8.755-7.49,12.872c-1.212,1.316-2.48,2.584-3.828,3.781c-4.769,4.235-10.521,7.216-16.067,10.283
		c-0.393,0.218-0.787,0.429-1.18,0.646C190.637,311.809,194.501,307.591,197.57,302.341z M97.343,348.371
		c3.319-4.355,6.797-8.582,10.398-12.706c0.137-0.035,0.273-0.073,0.403-0.132c1.614,0.615,3.504,0.667,5.061-0.033
		c5.574-2.503,10.311-7.754,14.942-11.649c2.442-2.054,4.782-4.222,7.222-6.277c1.286-0.7,2.586-1.377,3.901-2.031
		c6.226-3.096,12.744-5.791,19.099-8.756c3.267,0.856,6.615,0.892,10.011,0.442c-0.428,0.247-0.852,0.502-1.281,0.745
		c-9.646,5.452-19.042,11.091-28.379,17.075c-2.675,1.715-3.253,4.288-2.542,6.481c-5.153,3.322-9.877,7.184-14.307,11.526
		c-1.75,1.715-0.559,4.213,1.329,4.772c-9.536,7.268-19.345,14.095-30.131,19.301c-1.603,0.773-1.708,2.65-0.98,4.012
		c-4.133,1.777-8.307,3.53-12.463,5.465c-0.233-1.372-0.556-2.754-0.988-4.157c-1.802-5.854-5.617-10.254-9.317-14.911
		c0.483-0.142,0.929-0.426,1.248-0.878c0.136,2.024,2.793,3.259,4.039,1.147c0.161-0.272,0.311-0.55,0.468-0.824
		c0.674,1.523,1.732,2.903,3.281,4.066c1.303,0.979,3.778,0.935,5.087,0c1.183-0.844,2.02-1.85,2.679-2.948
		c0.74,0.547,1.826,0.558,2.441-0.516c1.671-2.915,3.368-5.813,5.061-8.713C94.678,349.607,96.343,349.683,97.343,348.371z"/>
	<path style="fill:#937A63;" d="M351.868,320.585c-9.538,1.782-19.112,0.54-28.525-1.451c-9.651-2.041-17.799-6.84-26.013-12.115
		c-1.312-0.842-2.967,1.215-1.696,2.199c8.395,6.496,16.78,12.536,27.194,15.228c10.377,2.683,20.033,4.529,30.508,1.462
		C356.787,324.897,355.324,319.94,351.868,320.585z"/>
	<path style="fill:#937A63;" d="M460.224,251.43c-1.545,6.642-4.617,11.729-9.357,16.588c-2.218,2.274-4.333,4.6-6.413,6.957
		c-14.044-2.364-28.274-3.82-41.876-8.409c-6.795-2.293-13.602-5.528-19.792-9.141c-7.186-4.193-11.594-9.259-15.644-16.45
		c-2.156-3.83-7.886-0.439-5.872,3.432c0.047,0.09,0.092,0.18,0.139,0.271c-6.44,1.454-12.935,3.257-19.364,5.104
		c-13.263-2.868-26.927-1.979-39.906-6.55c-13.143-4.628-21.384-15.775-26.941-28.041c-2.051-4.527-10.057-1.234-8.115,3.421
		c2.803,6.722,5.77,13.08,9.604,18.671c-3.878-4.344-7.043-9.432-9.784-14.522c-2.658-4.934-9.888-0.591-7.461,4.361
		c5.5,11.219,13.327,22.987,25.04,28.368c12.966,5.957,26.675,8.808,40.814,10.073c3.435,0.307,5.049-3.642,4.046-6.347
		c5.011-0.269,9.948-1.002,14.638-2.208c1.167-0.3,1.922-1.125,2.276-2.103c2.497-0.284,4.994-0.562,7.49-0.858
		c3.951-0.469,7.551-0.959,10.696-3.214c0.626,1.275,1.26,2.523,1.935,3.74c-2.38,0.945-3.91,4.175-1.643,6.705
		c14.414,16.077,31.534,31.008,54.753,25.907c1.789-0.393,2.869-1.646,3.33-3.135c5.065,0.897,9.88,1.463,14.7,1.291
		c0.426,1.259,1.608,2.19,3.199,1.655c2.138-0.719,4.136-1.75,6.017-2.985c0.327-0.085,0.654-0.175,0.981-0.267
		c-0.327,0.427-0.656,0.855-0.98,1.283c-2.828,3.72,3.176,8.038,6.345,4.896c4.002-3.969,7.624-8.061,10.673-12.823
		c2.06-3.217-0.547-6.309-3.491-6.752c3.481-5.271,4.558-10.774,5.902-17.279C466.961,249.212,461.127,247.546,460.224,251.43z"/>
	<path style="fill:#937A63;" d="M384.773,197.89c-7.693,5.564-15.357,10.023-20.503,18.268c-2.294,3.676,3.167,8.07,6.094,4.702
		c5.49-6.318,14.213-9.604,20.759-14.74C395.758,202.483,389.598,194.4,384.773,197.89z"/>
	<path style="fill:#937A63;" d="M471.079,420.868c-0.494-9.162-6.785-14.854-15.894-14.942c-0.698,0.01-1.395,0.021-2.093,0.032
		c-0.284-0.851-0.627-1.716-0.828-2.562c-0.991-4.172-1.605-8.415-2.621-12.588c-0.922-3.789-5.162-5.984-8.824-5.01
		c-1.661,0.441-2.975,1.313-4.107,2.433c-3.723-3.894-7.874-7.279-12.299-10.492c-2.056-2.333-4.481-4.571-7.247-5.316
		c-6.073-4.641-12.314-9.669-19.033-12.643c-1.65-0.73-3.241-0.583-4.531,0.067c-4.242-2.415-8.577-4.677-13.011-6.721
		c-0.733-1.397-1.347-2.854-1.94-4.402c-0.774-2.021-1.737-4.33-2.991-6.395c3.594,3.765,7.566,7.162,11.925,10.03
		c9.739,6.408,20.421,9.169,31.917,10.221c2.121,0.194,3.547-0.676,4.307-1.986c4.76-0.188,9.471-0.993,13.908-2.462
		c3.752-1.242,4.454-7.449,0-8.332c-14.009-2.774-28.611-0.138-40.897-9.18c-9.399-6.917-13.572-19.77-16.904-30.417
		c-1.087-3.473-6.491-2.024-5.478,1.51c2.199,7.664,3.302,15.748,5.976,23.095c-2.941-2.926-5.628-6.11-8.009-9.464
		c-2.901-4.086-9.606-0.378-6.839,3.998c1.894,2.996,3.988,5.875,6.244,8.62c-1.819-1.271-4.02-1.851-6.708-1.201
		c-3.423,0.827-5.49,3.857-7.147,6.695c-0.095,0.164-0.243,0.442-0.423,0.78c-2.598-0.912-5.197-1.82-7.798-2.727
		c-0.903-2.486-1.794-5.076-3.045-7.325c-3.382-6.081-11.597-7.799-15.949-1.997c-1.494-0.373-2.991-0.753-4.477-1.203
		c-5.833-1.766-11.654-3.788-17.106-6.535c-10.73-5.405-17.777-14.22-25.119-23.432c-1.388-1.742-3.651-1.185-4.938,0.215
		c-0.35-0.835-0.709-1.663-1.046-2.506c1.142-6.594,1.925-13.445,1.609-20.05c-0.164-3.419-0.59-6.868-1.611-10.147
		c-1.274-4.092-4.347-7.072-5.722-11.083c-0.415-1.21-2.348-0.691-1.929,0.532c1.506,4.394,1.641,9.586,1.211,14.563
		c-0.236-13.511-3.577-26.814-10.861-38.566c-3.476-5.607-11.786-0.687-8.808,5.148c4.188,8.201,6.192,16.493,6.59,24.785
		c-0.176,0.291-0.33,0.606-0.428,0.975c-5.763,21.67-16.325,43.202-30.946,60.286c-6.999,8.177-14.237,16.201-21.87,23.792
		c-2.256,2.244-4.594,4.458-6.937,6.681c-4.899,2.799-9.929,5.151-14.914,6.958c-10.966,3.973-22.593,5.608-33.478,9.938
		c-5.74,2.284-11.041,5.278-16.117,8.64c-7.414,3.022-14.568,6.595-21.491,11.191c-9.773,6.488-19.601,14.64-26.17,24.675
		c-0.023-0.22-0.041-0.438-0.078-0.66c-0.173-1.063-0.724-2.023-1.479-2.823c1.381-3.484,2.622-7.028,3.681-10.706
		c1.483-5.156-6.882-7.39-7.984-2.201c-0.743,3.496-1.404,7.002-2.058,10.511c-0.496,0.055-0.972,0.169-1.432,0.323
		c-0.343-0.401-0.794-0.705-1.332-0.828c-1.433-0.327-3.086,0.431-3.444,1.956c-0.215,0.914-0.43,1.827-0.644,2.741
		c-0.137,0.581-0.076,1.2,0.137,1.756c-0.613,1.624-0.949,3.354-1.348,5.051c-0.516,2.191-1.314,4.4-2.168,6.48
		c-0.611,1.487,0.308,3.473,1.483,4.352c0.35,0.261,0.709,0.455,1.075,0.591c0.298,0.327,0.641,0.615,1.003,0.876
		c2.121-0.447,4.343-0.544,6.501-0.847c2.073-0.29,4.074-0.729,6.043-0.965c3.339-1.905,6.564-4.065,9.673-6.322
		c7.433-5.396,16.118-15.881,26.026-15.904c0.854-0.735,1.497-1.662,1.922-2.692c0.017-0.014,0.034-0.029,0.051-0.043
		c0.372-0.304,0.75-0.605,1.125-0.908c1.444,0.158,2.943-0.053,4.376-0.764c2.441-1.211,4.87-2.418,7.298-3.613
		c4.459-5.74,12.118-10.394,18.235-13.054c4.928-2.144,13.755-5.547,18.846-2.002c0.624-0.195,1.247-0.391,1.87-0.586
		c0.066,0.767,0.24,1.521,0.499,2.237c0.83,0.098,1.581,0.496,2.151,1.079c0.638,0.423,1.221,0.97,1.712,1.623
		c1.628,2.163,2.555,4.848,3.517,7.358c0.952,2.483,2.113,5.095,2.59,7.714c0.223,1.225,0.081,2.289-0.302,3.169
		c1.397,1.062,3.119,1.713,4.838,1.746c0.062,0.001,0.12-0.004,0.181-0.003c0.021-0.576,0.193-1.12,0.476-1.609
		c-0.271-3.086,4.591-4.39,5.959-1.495c0.879,0.521,1.568,1.329,1.725,2.352c0.283,1.685,0.918,3.378,0.881,5.102
		c0,0.007-0.003,0.014-0.003,0.021c2.54,1.176,4.992,1.149,7.301,0.367c0.106-0.639,0.18-1.21,0.198-1.953
		c0.035-1.447,1.062-2.585,2.469-2.796c1.301-0.196,2.853,0.667,3.125,2.04c0.128,0.651,0.328,1.283,0.466,1.933
		c0.157,0.737,0.052,1.488-0.279,2.108c-0.042,0.335-0.115,0.648-0.205,0.952c0.283,0.535,0.605,1.054,0.979,1.552
		c2.872,3.82,7.892,5.225,12.332,3.306c0.936-0.404,1.756-0.927,2.49-1.535c-0.098-0.109-0.2-0.21-0.288-0.341
		c-0.258-0.34-0.473-0.706-0.643-1.097c-0.762-1.171-0.361-2.444,0.486-3.274c1.068-1.165,3.152-1.435,4.546-0.261
		c1.904,1.602,3.086,3.598,5.505,4.518c2.057,0.782,4.25,1.066,6.339,1.748c0.77-0.515,1.435-1.13,1.998-1.832
		c-0.267-0.896-0.451-1.828-0.638-2.724c-0.426-2.038,0.433-4.037,2.387-4.862c1.825-0.771,4.161-0.117,5.146,1.686
		c0.581,0.89,1.102,1.856,1.486,2.863c2.099-0.553,3.674-1.738,4.806-3.308c0.332,0.182,0.67,0.341,1.013,0.486
		c0.115-0.555,0.302-1.091,0.579-1.576c-0.221-0.738-0.357-1.494-0.073-2.217c0.025,0.007,0.051,0.014,0.077,0.021
		c0.306-1.098,1.186-2.035,2.506-1.988c1.257,0.044,2.125,0.708,2.876,1.553c0.848,0.055,1.685,0.281,2.414,0.679
		c0.613,0.335,1.176,0.673,1.713,1.097c0.35-0.369,0.671-0.75,0.967-1.142c2.33,0.536,4.667,0.139,6.77-0.894
		c-0.02-0.345-0.004-0.685-0.018-1.047c-0.087-2.387,2.519-3.919,4.605-3.039c0.07,0.03,0.129,0.075,0.197,0.109
		c0.86-1.117,1.576-2.363,2.09-3.696c0.053-0.139,0.091-0.286,0.143-0.425c1.098,2.488,2.341,4.89,3.798,7.154
		c0.249,0.388,0.522,0.744,0.811,1.079c1.89-0.737,4.04-1.065,5.799-2.104c2.762-1.63,1.119-4.464,1.173-7.271
		c0.041-2.099,1.955-4.572,4.293-4.293c2.55,0.304,5.313,1.104,7.102,2.797c0.001-0.006,0.002-0.013,0.003-0.02
		c3.384,0.458,6.918-0.718,9.052-3.363c0.443,0.245,0.945,0.398,1.5,0.398c1.393,0,2.724-1.024,3.092-2.362
		c0.112,0.045,0.223,0.095,0.335,0.138c0.345-2.063,1.696-3.733,4.112-4.058c0.294-0.04,0.598-0.039,0.905-0.015
		c0.054-0.061,0.106-0.125,0.163-0.181c1.033-1.033,2.567-1.668,4.028-1.668c1.362,0,2.588,0.503,3.624,1.325
		c0.159-0.302,0.307-0.607,0.437-0.917c0.51,0.49,1.043,0.955,1.592,1.398c6.296-4.673,15.711-5.682,23.19-5.126
		c5.663,0.421,11.79,0.62,17.294,2.057c5.526,1.443,10.344,4.434,14.748,7.988c4.641,3.745,8.295,7.723,14.169,9.479
		c5.087,1.521,10.472,2.186,15.293,4.52c4.607,2.23,7.134,5.908,9.702,10.17c1.499,2.487,3.022,4.898,3.688,7.54
		c1.095,0.078,2.201-0.036,3.252-0.319c0.143,0.125,0.278,0.257,0.422,0.381c6.783,5.809,17.094,10.943,24.833,5.102
		c2.927,0.631,6.163-0.557,7.052-4.305c0.275-1.158,0.37-2.266,0.33-3.333C470.514,424.185,471.178,422.705,471.079,420.868z
		 M289.48,398.968c-0.019,0.338-0.023,0.672,0.024,0.977C289.775,401.667,287.54,400.352,289.48,398.968z M297.88,333.583
		c-4.271-5.396-8.042-11.108-11.389-17.089c2.456,3.237,5.065,6.313,7.97,9.139c-0.158,1.643,0.507,3.406,2.349,4.696
		c1.266,0.888,2.538,1.765,3.812,2.634C299.674,333.011,298.75,333.227,297.88,333.583z M316.698,343.606
		c-1.503-0.279-3.012-0.526-4.526-0.749c-0.649-1.339-1.365-2.632-2.19-3.842c2.497,1.508,5.038,2.94,7.636,4.277
		C317.302,343.377,316.997,343.485,316.698,343.606z M400.616,383.003c-0.874-0.647-1.753-1.285-2.637-1.914
		c-0.374-0.678-0.748-1.356-1.121-2.039c1.494,0.997,2.981,2.002,4.457,3.021C401.05,382.357,400.821,382.672,400.616,383.003z"/>
</g>
<path style="fill:#915953;" d="M246.925,195.127c-1.239-7.304-10.277-12.514-16.382-15.262c-2.54-1.143-5.385-2.183-8.403-3.048
	c-1.667-0.8-3.44-1.314-5.275-1.61c-1.923,1.286-3.931,2.431-6.149,3.195c-3.378,1.164-6.325,0.571-9.535-0.189
	c-0.117,0.011-0.231,0.026-0.353,0.021c-1.339-0.056-2.128-0.466-3.146-1.335c-0.46-0.392-0.742-0.838-0.889-1.3
	c-0.08-0.117-0.152-0.25-0.228-0.375c-2.669,0.57-5.222,1.429-7.571,2.643c-0.116-0.042-0.236-0.069-0.354-0.106
	c-0.407,0.149-0.825,0.276-1.234,0.426c-0.817,0.299-1.624,0.607-2.46,0.847c-0.259,0.074-0.52,0.094-0.771,0.068
	c-0.494,0.521-1.077,0.988-1.763,1.424c-1.551,0.985-3.255,1.388-5.048,1.554c-0.008,0.001-0.016,0.002-0.024,0.002
	c-0.138,0.013-0.275,0.027-0.414,0.037c0.004-0.009,0.007-0.018,0.011-0.026c-1.209-0.014-2.407-0.516-3.249-1.425
	c-3.211,1.53-6.289,3.356-9.106,4.937c-7.547,4.237-15.263,8.362-22.237,13.509c-3.565,2.631-4.068,6.771-2.207,9.68
	c-2.772,0.666-5.188,2.185-7.425,4.081c-0.593-0.333-1.236-0.595-1.902-0.781c-0.092,0.167-0.184,0.333-0.308,0.497
	c-3.015,3.97-6.761,7.314-9.89,11.216c-2.932,3.655-5.612,7.525-8.665,11.082c-5.179,6.034-12.7,12.128-20.368,15.112
	c-1.048,1.434-2.076,2.887-3.083,4.364c-0.63,0.924-1.462,2.043-2.347,3.278c0.217,0.669,0.268,1.412,0.068,2.199
	c-1.505,5.915-4.742,10.706-9.576,14.379c-3.237,2.459-7.163,4.082-10.625,6.229c-2.768,3.594-5.171,7.461-7.878,11.101
	c-0.854,1.149-1.717,2.186-2.733,3.069c-0.652,0.804-1.597,1.542-2.277,2.005c-0.905,0.615-1.945,1.124-3.01,1.433
	c-0.712,0.727-1.396,1.477-2.002,2.276c-0.408,0.538-0.869,0.847-1.331,0.987c-3.624,6.407-8.161,12.322-13.301,17.577
	c-0.004-0.008-0.009-0.016-0.014-0.023c-0.826,0.818-1.828,1.007-2.729,0.784c-0.068,0.05-0.137,0.1-0.206,0.15
	c-0.054,0.152-0.098,0.304-0.174,0.458c-1.793,3.664-3.794,7.334-5.207,11.163c-0.396,1.072-1.052,1.779-1.808,2.188
	c-0.301,0.554-0.694,0.923-1.13,1.154c0.026,0.041,0.043,0.088,0.07,0.129c-1.885,1.75-3.625,3.917-5.171,6.042
	c-4.28,1.884-5.947,6.167-7.612,10.423c-0.589,1.504-1.218,3.067-1.838,4.661c-0.435,0.822-0.876,1.641-1.288,2.472
	c-0.526,1.061-0.733,2.111-0.707,3.101c-0.837,2.623-1.501,5.266-1.752,7.843c-0.084,0.872,0.15,1.74,0.288,2.583
	c-0.259,0.19-0.854,2.467-0.961,2.942c-0.822,3.629-1.039,7.193-0.838,10.914c0.354,6.569,0.219,14.285,2.333,20.55
	c1.22,3.617,3.79,7.328,6.908,10.035c1.13-0.934,3.129-1.215,4.313-0.339c0.487,0.367,0.974,0.734,1.46,1.101
	c0.81,0.61,1.39,1.245,1.751,2.155c0.424,0.519,0.811,0.995,1.115,1.543c0.969,0.337,1.922,0.706,2.818,1.197
	c2.743,1.503,4.835,4.06,7.478,5.749c9.759,6.238,20.738,7.742,31.903,9.242c2.044,0.275,4.096-1.338,5.112-2.932
	c0.848-1.331,1.293-2.736,1.33-4.189c1.259-0.813,2.133-2.221,2.147-3.841c0.053-6.043-1.425-11.737-3.716-17.269
	c0.647-1.889,1.263-3.786,1.839-5.69c7.025-10.187,7.432-26.402-5.514-31.461c-1.945-0.759-4.883-3.205-7.734-4.366
	c-1.803-0.734-3.947-1.087-5.654-1.986c-1.753-0.923-3.228-2.425-4.778-3.648c-3.707-2.924-6.896-5.971-10.024-9.505
	c-0.146-0.164-0.293-0.334-0.439-0.502c-0.001-0.226-0.018-0.458-0.063-0.7c-0.407-2.16-0.487-4.887-0.979-7.426
	c0.029,0.027,0.054,0.056,0.083,0.083c1.626,1.487,3.97,1.887,5.873,0.851c1.102-0.288,1.935-0.921,2.517-1.73
	c1.72-0.623,3.414-1.249,4.991-2.356c2.371-1.666,4.25-3.898,6.021-6.167c0.048-0.061,0.096-0.125,0.144-0.187
	c0.488-0.471,0.971-0.973,1.448-1.529c2.466-2.88,5.002-5.995,6.56-9.423c5.262,4.685,13.945-0.333,19.123-7.561
	c1.717,0.07,3.528-0.306,5.132-0.972c1.949-0.809,3.66-2.072,5.647-2.771c2.219-0.779,4.441-1.139,6.544-2.312
	c3.679-2.051,6.59-6.007,9.185-9.278c2.902-3.66,4.6-7.523,5.926-11.981c0.37-1.241,0.694-2.485,0.976-3.738
	c0.687-0.371,1.346-0.806,1.98-1.282c3.257-1.47,6.103-4.191,8.585-6.53c2.887-2.722,6.753-6.083,8.609-9.978
	c0.397-0.405,0.784-0.819,1.177-1.227c0.053-0.01,0.105-0.016,0.158-0.026c2.348,1.165,5.49,0.882,6.954-1.857
	c0.268-0.502,0.559-0.991,0.857-1.475c0.047-0.075,0.095-0.15,0.143-0.224c1.84-1.32,3.416-2.888,4.465-4.571
	c0.423-0.68,0.65-1.38,0.743-2.074c1.248-1.367,2.531-2.699,3.789-4.023c0.105-0.111,0.216-0.234,0.326-0.357
	c2.699-2.02,5.279-4.377,7.704-6.707c1.382-1.004,2.722-2.062,3.925-3.316c0.436-0.454,0.76-0.951,1.02-1.465
	c0.525-0.489,1.079-1,1.637-1.53c1.424,0.42,3.068,0.299,4.756-0.645c0.426-0.238,0.86-0.447,1.298-0.642
	c0.535-0.176,1.096-0.293,1.72-0.459s1.175-0.393,1.671-0.66c6.384-1.517,13.436-0.487,19.118-4.604
	c4.107-2.977,7.754-6.083,11.1-9.525c0.988-0.512,1.888-1.173,2.758-1.883c0.431,0.111,0.893,0.182,1.393,0.196
	c0.5,0.014,0.993-0.005,1.476-0.048c2.255-0.004,4.553,0.258,6.73-0.228c3.022-0.674,5.335-2.664,7.813-4.349
	c3.197-2.174,6.708-4.395,9.478-7.216C241.535,205.656,248.274,203.082,246.925,195.127z M58.95,421.877
	c0.001,0.006,0,0.012,0,0.018c0.048,0.462,0.101,0.893,0.165,1.317c-0.335-0.055-0.673-0.104-1.01-0.153
	C58.4,422.684,58.681,422.29,58.95,421.877z"/>
<g>
	<path style="fill:#7A4C48;" d="M52.771,328.393c0.289-0.335,0.585-0.665,0.868-1.005c2.718-3.272-2.161-7.104-4.649-3.587
		c-1.599,2.26-3.153,4.533-4.713,6.797c-1.155,0.963-2.235,2.044-3.316,3.081c-2.037,1.952-4.162,3.738-5.374,6.368
		c-0.335,0.728-0.318,1.543,0.214,2.165c-0.117,0.146-0.23,0.295-0.348,0.44c-1.222,1.506,0.916,3.669,2.15,2.149
		c0.436-0.538,0.889-1.059,1.339-1.583c2.044-0.258,4.304-1.611,5.829-2.347c4.15-2.001,7.307-5.013,9.102-9.286
		C54.456,330.195,53.807,329.066,52.771,328.393z"/>
	<path style="fill:#7A4C48;" d="M75.128,316.601c-0.081-0.104-0.179-0.199-0.276-0.294c0.306-3.267-3.621-6.561-7.218-3.597
		c-1.703,1.403-2.672,2.292-4.607,1.423c-0.149-0.234-0.284-0.439-0.325-0.498c-0.379-0.542-0.792-1.063-1.191-1.589
		c-1.006-1.33-1.998-2.539-3.415-3.464c-0.043-0.028-0.086-0.05-0.129-0.077c-0.455-1.938-2.743-2.424-3.963-1.346
		c-2.091-0.212-4.222,0.159-6.554,0.193c-2.423,0.036-3.172,3.977-0.596,4.4c3.184,0.523,4.773,2.335,5.839,4.712
		c1.331,2.967,3.08,5.282,6.315,6.245c0.344,0.103,0.675,0.156,0.996,0.183c0.136,0.754,0.729,1.436,1.781,1.551
		c4.922,0.537,9.742,0.303,13.101-3.798C75.87,319.445,76.126,317.896,75.128,316.601z"/>
	<path style="fill:#7A4C48;" d="M107.557,289.119c-0.172-3.026-4.228-5.729-7.014-2.891c-3.371,3.435-5.723,7.667-8.489,11.55
		c-2.486,1.784-4.841,3.022-7.686,1.335c-1.546-2.266-3.861-4.29-5.959-5.532c-5.386-3.187-13.788-6.979-18.935-1.035
		c-2.771,3.201-1.393,7.153,2.296,8.699c1.379,0.578,3.03,0.709,4.5,0.92c2.1,0.301,3.694,1.035,5.672,1.771
		c3.186,1.187,8.408,3.076,9.5,6.754c0.438,1.472,2.581,1.495,3.009,0c0.013-0.043,0.026-0.083,0.039-0.126
		c1.049,0.307,2.185,0.49,3.44,0.501c9.263,0.084,19.789-7.064,22.713-15.749C111.631,292.387,109.913,290.045,107.557,289.119z"/>
	<path style="fill:#7A4C48;" d="M197.636,217.689c-9.096,0.116-16.536,5.933-25.097,8.152c-1.237-1.944-2.781-3.71-4.321-5.577
		c-3.307-4.008-7.244-7.338-11.611-10.127c-5.765-3.682-13.631-7.412-18.318-0.02c-1.203,1.898,1.25,4.512,3.174,3.174
		c3.751-2.607,10.309,5.245,12.709,7.678c2.465,2.499,6.301,6.469,8.175,10.16c-6.942,1.492-13.666,5.91-18.333,11.15
		c-1.278,1.435-2.502,3.029-3.575,4.709c-0.555-0.692-1.103-1.359-1.582-1.999c-3.355-4.488-6.685-7.392-11.944-9.437
		c-4.157-1.617-8.789-3.579-13.299-2.698c-0.548,0.683-1.096,1.367-1.667,2.032c-0.465,0.542-0.954,1.083-1.455,1.623
		c0.177,0.943,0.812,1.787,1.959,2.084c6.126,1.589,13.127,5.86,16.735,11.061c1.215,1.75,2.242,3.639,3.582,5.281
		c-0.383,0.123-0.761,0.286-1.124,0.54c-5.064,3.542-9.853,7.396-13.782,12.2c-0.819,1.001-1.596,2.019-2.334,3.061
		c-3.505-3.591-9.891-5.289-14.081-6.011c-5.053-0.87-14.905-1.988-17.695,3.864c-0.557,1.168,0.354,2.358,1.626,2.115
		c4.042-0.771,9.03,1.995,12.621,3.375c3.395,1.304,6.66,2.751,9.678,4.838c2.031,1.404,4.214,3.667,6.989,2.899
		c0.551-0.152,1.014-0.42,1.423-0.743c0.61-0.036,1.192-0.102,1.616-0.255c2.829-1.021,5.217-2.741,7.554-4.594
		c4.294-3.405,8.009-7.206,11.323-11.484c0.586,0.559,1.749,0.613,2.118-0.221c1.233-2.784,3.081-5.115,5.134-7.304
		c0.848-0.392,1.573-0.734,1.835-0.92c2.378-1.683,4.512-3.745,6.71-5.65c4.754-4.118,9.967-8.129,13.964-13.018
		c0.865,0.46,1.81,0.713,2.688,0.647c6.006-0.452,11.377-1.419,16.822-4.085c5.623-2.752,11.557-5.299,15.097-10.724
		C202.553,221.014,200.45,217.653,197.636,217.689z"/>
	<path style="fill:#7A4C48;" d="M225.234,203.98c-3.201,1.254-5.535,2.833-7.854,5.393c-0.134,0.147-0.273,0.306-0.414,0.469
		c0.4-4.497,0.16-9.701-2.003-13.627c-4.552-8.263-13.991-11.595-22.788-12.536c-2.681-0.287-5.217,3.069-4.243,5.569
		c2.428,6.23,9.178,6.445,14.112,9.947c2.741,1.946,4.064,4.063,4.604,7.399c0.539,3.331,1.986,9.17-0.441,11.9
		c-2.011,2.263,1.106,5.43,3.338,3.338c0.769-0.722,1.495-1.355,2.173-1.957c3.624-0.33,6.674-0.111,10.033-2.046
		c3.534-2.035,5.961-4.441,8.045-7.915C231.479,207.111,228.623,202.652,225.234,203.98z"/>
	<path style="fill:#7A4C48;" d="M244.563,199.338c-0.123-0.914-0.863-2.018-1.862-2.162c-1.309-0.188-2.595-0.265-3.752,0.512
		c-0.296,0.198-0.568,0.432-0.865,0.629c-0.122,0.082-0.25,0.154-0.377,0.227c-0.017-0.008-0.348,0.129-0.441,0.152
		c-1.167,0.287-1.922,1.52-1.748,2.677c0.195,1.298,1.154,1.957,2.396,2.116c0.952,0.122,1.927-0.067,2.845-0.317
		c0.511-0.14,1.02-0.286,1.491-0.536c0.242-0.128,0.709-0.469,0.693-0.478c0.124-0.079,0.246-0.16,0.379-0.229
		C244.24,201.454,244.694,200.311,244.563,199.338z"/>
	<path style="fill:#7A4C48;" d="M73.453,386.734c0.42-3.14-2.614-4.916-5.372-4.687c-0.005-0.414-0.018-0.83-0.069-1.251h-0.16
		c-0.037-0.421-0.128-0.815-0.244-1.197l0.103-0.061c0.65-0.383,1.178-1.174,1.122-1.956c-0.359-4.994-6.186-8.215-10.437-9.654
		c-3.754-1.271-6.752-0.93-9.814-3.733c-2.833-2.594-5.544-5.077-8.686-7.313c-3.167-2.254-7.714,0.631-8.035,4.164
		c-1.502,0.085-3.004,0.691-4.271,1.957c-1.353,1.354-1.965,3.121-1.938,4.868c-0.02-0.015-0.04-0.03-0.059-0.045
		c-0.048,0.826,0.03,1.644,0.235,2.455c0.191,0.781,0.261,0.777,0.21-0.013c0.107,0.695-0.018,1.499-0.116,2.24
		c-1.095,2.293-2.553,5.335-1.493,7.921c1.273,3.104,4.497,5,7.73,3.145c3.446-1.977,6.141-6.336,7.058-10.75
		c0.669,0.543,1.37,1.042,2.094,1.495c0.321,1.411,0.554,2.849,0.673,4.281c-2.241,2.465-3.752,5.987-5.69,8.338
		c-3.988,4.835-10.013,7.806-14.143,12.646c-2.341,2.743-4.449,7.059-2.737,10.065c-0.128,0.267-0.245,0.539-0.333,0.817
		c-0.019,0.025-0.039,0.048-0.058,0.074c-0.735,1.009-0.602,2.027-0.037,2.816c0.308,1.076,1.052,2.034,2.345,2.665
		c4.227,3.039,9.301,0.763,10.23-2.936c4.285-0.98,8.418-2.395,12.167-4.958c3.782-2.586,7.393-5.224,10.57-8.353
		c1.841-1.106,3.813-2.453,5.679-3.992c-0.895,3.057-1.621,6.133-2.136,8.987c-1.033,5.733,0.042,11.77,1.18,17.496
		c-0.734-0.212-1.467-0.433-2.212-0.574c-2.919-0.555-5.896-0.081-8.845-0.219c-2.642-0.124-5.675-0.13-8.621-0.321
		c-2.414-0.646-4.937-1.237-7.411-1.028c-3.821,0.324-5.645,4.482-3.073,7.42c2.061,2.354,5.345,2.812,8.244,3.516
		c2.81,0.682,5.611,1.492,8.452,2.059c3.406,1.167,6.723,1.773,9.326,1.124c4.753,0.208,9.277-0.709,9.98-6.548
		c0.025-0.214,0.016-0.438-0.008-0.664c0.998-0.395,1.789-1.189,1.966-2.421c0.349-2.429,0.386-4.889,0.395-7.349
		c0.793-1.867,1.189-3.835,1.026-5.949c-0.061-0.784-0.331-1.456-0.73-2.005c0.137-1.171,0.34-2.335,0.641-3.487
		C69.846,399.303,72.546,393.504,73.453,386.734z M54.927,378.51c-0.562,0.372-1.068,0.89-1.539,1.435
		c-0.382-1.267-1.269-2.318-2.394-3.044c1.028-0.069,2.053-0.202,3.079-0.314c0.331,0.537,0.657,1.123,1.079,1.773
		C55.079,378.408,55.012,378.454,54.927,378.51z"/>
</g>
<g>
	<path style="fill:#EACDA2;" d="M282.751,145.875c-3.504-4.821-6.235-9.941-10.201-14.409c-0.326-0.029-0.658-0.085-1-0.205
		c-3.498-1.222-6.152-4.397-8.971-6.733c-3.293-2.73-6.732-5.242-10.446-7.374c-3.518-2.019-7.379-3.904-11.451-4.441
		c-3.721-0.491-6.567,1.162-9.965,1.804c0,0.008,0,0.017,0,0.025c0.234,3.131,1.848,5.93,2.704,8.887
		c-0.029,0.008-0.06,0.017-0.089,0.024c0.023,0.101,0.024,0.196,0.041,0.295c0.512,0.444,1.038,0.873,1.58,1.287
		c0.84,2.194,1.871,4.331,2.958,6.448c0.04,0.475,0.112,0.957,0.192,1.44c0.193,0.164,0.366,0.35,0.498,0.572
		c3.736,4.006,4.661,9.839,5.428,15.116c0.745,5.125,2.897,12.001,1.471,17.092c0.333,2.692,0.538,4.833,3.192,6.595
		c2.672,1.774,5.852,1.497,8.775,0.666c5.828-1.657,11.415-2.588,17.4-1.959c1.098,0.115,2.163,0.077,3.167-0.097
		c1.617,0.992,3.277,1.182,5.207,1.405c4.174,0.483,8.409-4.122,8.134-8.134C290.866,156.778,286.959,151.665,282.751,145.875z"/>
	<path style="fill:#EACDA2;" d="M358.382,192.001c-0.184-11.288-0.733-22.587-0.661-33.876c0.079-12.207,0.662-24.552-1.717-36.591
		c-0.303-1.534-1.106-2.657-2.168-3.401c-0.49-1.921-1.207-3.661-2.199-5.045c-0.816-1.139-1.865-2.058-3.028-2.74
		c-0.917-3.486-1.905-6.953-3.012-10.383c-0.824-2.551-1.749-5.071-2.773-7.55c-1.799-2.784-3.523-5.621-5.659-8.2
		c-3.359-4.058-8.576-7.377-11.097-11.96c-1.191,0.065-2.397,0.395-3.588,1.028c-1.193,0.636-2.211,1.467-3.029,2.429
		c0,0.024,0.007,0.044,0.007,0.069c0.09,4.479,0.972,8.904,0.315,13.352c0.435,2.768,1.154,5.455,1.783,8.185
		c0.015,0.065,0.027,0.13,0.04,0.195c0.051,0.147,0.092,0.305,0.117,0.479c0.579,3.96,0.476,7.854,0.344,11.771
		c0.421,2.57,0.513,5.137-0.267,7.817c-0.32,1.099-1.069,1.834-1.969,2.25c-0.942,4.192-2.129,8.329-3.476,12.413
		c-0.928,2.064-1.678,4.296-2.309,6.554c-2.004,5.31-4.486,10.397-7.299,15.33c-0.428,0.75-0.859,1.502-1.297,2.251
		c-1.024,0.874-1.959,1.944-2.82,3.108c-1.146,0.358-2.215,0.992-3.102,1.94c-3.036,3.248-6.521,8.222-6.662,12.805
		c-0.002,0.063,0.008,0.121,0.007,0.184c-0.897,0.467-1.714,1.227-2.351,2.35c-0.023,0.04-0.044,0.082-0.067,0.122
		c-2.735,3.716-4.984,7.978-7.221,12.117c-3.024,0.138-5.628,1.763-7.564,4.488c-2.488,3.501-1.103,6.567,0.357,10.119
		c3.796,9.233,8.671,16.624,16.66,22.758c7.377,5.665,16.905,8.797,25.984,10.388c3.582,0.628,7.082,0.687,10.536,0.364
		c1.424,1.454,3.604,2.222,6.366,1.59c2.815-0.644,5.515-1.695,8.333-2.312c2.475-0.541,5.046-0.613,7.452-1.455
		c4.651-1.626,7.272-5.29,7.399-10.199C359.029,213.849,358.56,202.906,358.382,192.001z"/>
	<path style="fill:#EACDA2;" d="M460.865,137.352c-0.628-5.564-1.084-11.148-1.644-16.72c-0.607-6.06-1.006-12.259-2.452-18.188
		c-0.987-4.052-2.079-6.833-0.569-10.408c-0.374-0.365-0.769-0.704-1.196-0.99c-1.291-1.257-3.307-1.863-5.031-1.344
		c-0.505,0.043-1.008,0.145-1.505,0.294c0.002,0.352-0.035,0.715-0.158,1.097c-3.059,9.477-6.469,18.837-9.606,28.288
		c-0.484,1.458-1.499,2.299-2.652,2.659c-1.604,4.955-3.411,9.87-4.917,14.81c-3.243,10.645-7.039,21.084-11.071,31.438
		c-0.932,1.501-1.779,3.118-2.549,4.773c-0.062-0.061-0.127-0.118-0.19-0.179c-0.106,0.33-0.279,0.626-0.482,0.903
		c0.373,1.21-0.483,2.325-1.57,2.728c-0.948,0.352-2.075,0.231-2.788-0.54c-0.483-0.522-0.701-1.222-0.508-1.922
		c0.003-0.018,0.013-0.034,0.017-0.052c-0.489-0.378-0.888-0.876-1.093-1.486c-0.398-1.186-0.197-2.423-0.193-3.652
		c0.003-1.164-0.053-2.322-0.14-3.482c-0.069-0.92,0.365-1.762,1.028-2.369c-1.586-4.453-3.166-8.898-4.604-13.412
		c-0.063-0.198-0.138-0.392-0.202-0.589c-0.638-0.375-1.201-0.929-1.602-1.728c-4.235-8.434-6.634-19.167-13.475-25.962
		c-0.534-0.53-0.804-1.143-0.875-1.758c-4.628,0.757-6.945,3.854-8.193,7.721c-0.455,0.409-0.857,0.903-1.22,1.45
		c-0.567,5.714-1.807,11.549-2.688,16.8c-0.933,5.551-2.373,15.184-7.525,18.941c-1.509,3.549-3.299,6.947-5.476,10.037
		c-0.666,0.946-1.66,1.431-2.678,1.539c0.248,1.892,1.748,3.496,3.576,4.144c2.604,0.922,4.879,0.199,7.489,0.633
		c2.415,0.401,4.676,1.492,7.155,1.854c5.281,0.771,9.902,3.586,15.232,4.04c3.806,0.325,7.73,2.173,11.599,1.606
		c-1.359,2.857-2.291,5.877-3.479,8.832c-0.301,0.75-0.629,1.583-0.981,2.448c-0.109,0.043-0.223,0.081-0.33,0.128
		c-4.613,2.05-6.365,6.924-9.325,10.631c-3.54,4.434-7.767,7.454-12.533,10.462c-4.014,2.533-9.697,4.035-11.585,8.81
		c-2.106,5.326,1.831,9.507,6.171,11.96c8.671,4.9,18.018,7.754,27.2,11.238c2.736,1.038,5.652,1.006,8.437,1.939
		c2.853,0.956,5.626,1.791,8.581,2.406c6.628,1.381,13.217,1.308,19.754,3.131c2.984,0.832,6.344-0.551,7.905-3.217
		c4.229-7.223,6.848-13.253,7.498-21.688c0.69-8.956,0.88-17.997,0.575-26.975c-0.011-0.329-0.033-0.654-0.047-0.982
		c0.615-1.955,1.004-3.954,1.28-5.608c0.54-3.226,0.95-6.475,1.301-9.732c0.62-3.999,0.885-8.076,1.038-11.98
		c0.015-0.216,0.033-0.432,0.048-0.647c0.529-7.673,0.636-15.358,0.963-23.042c0.21-4.924,0.483-9.8,0.72-14.665
		C461.16,140.283,461.028,138.801,460.865,137.352z M402.593,237.959c0.462-0.192,0.926-0.409,1.391-0.647
		c0.104,0.422,0.225,0.829,0.369,1.214C403.767,238.34,403.18,238.151,402.593,237.959z"/>
	<path style="fill:#EACDA2;" d="M447.726,319.649c-1.931-9.365-14.781-16.389-23.045-18.81c-9.156-2.682-20.904-6.84-30.107-2.562
		c-0.322,0.149-0.638,0.312-0.95,0.479c-1.766,0.165-3.503,0.401-5.137,0.791c-4.981,1.188-8.541,6.999-7.567,11.9
		c0.963,4.848,5.792,7.838,9.398,10.706c4.534,3.604,8.334,8.212,13.581,10.856c3.781,1.905,8.493,3.223,12.596,4.228
		c5.106,1.25,9.9,3.148,15.163,1.463c0.496-0.159,1.003-0.34,1.52-0.541c1.538,0.962,3.233,1.328,5.053,1.087
		c3.95-0.522,5.823-3.452,7.041-6.913c0.335-0.952,0.166-1.833-0.289-2.542C447.25,326.863,448.504,323.417,447.726,319.649z"/>
	<path style="fill:#EACDA2;" d="M359.696,291.491c-0.927-3.965-3.896-6.846-6.979-9.34c-2.145-1.737-4.386-3.236-6.716-4.507
		c-1.573-2.825-3.758-5.17-7.006-6.878c-4.725-2.484-11.848-1.793-16.615,0.446c-0.842-0.344-1.712-0.644-2.65-0.824
		c-3.17-0.61-6.328-0.39-9.413,0.555c-3.958,1.212-8.006,3.379-11.208,6.223c-0.448,0.046-0.89,0.094-1.366,0.129
		c-2.295,0.17-4.452,0.81-5.909,2.698c-3.04,3.939,0.092,10.177,2.64,13.6c0.65,0.874,1.43,1.533,2.259,2.123
		c-0.329,2.158,0.398,4.473,2.617,5.779c1.23,0.726,2.372,1.219,3.723,1.675c0.273,0.092,0.548,0.153,0.821,0.195
		c5.816,2.386,11.71,4.844,17.781,6.401c0.057,0.023,0.112,0.052,0.169,0.074c2.496,0.979,5.034,1.329,7.592,1.326
		c2.85,0.282,5.741,0.305,8.691-0.06c9.337-1.154,26.415-2.29,26.424-15.167C364.553,293.45,362.196,291.185,359.696,291.491z"/>
</g>
<g>
	<path style="fill:#CCAE85;" d="M286.685,162.108c-0.3-0.422-0.852-1.085-1.355-1.782c-0.098-0.197-0.205-0.389-0.328-0.571
		c0.121-1.478-0.255-2.928-1.366-4.129c0.339-9.542-9.152-19.191-15.376-25.419c-6.482-6.487-15.803-13.965-25.394-14.072
		c-1.1-0.012-1.781,0.881-1.888,1.889c-0.015,0.141-0.03,0.282-0.045,0.422c-0.156,1.459,2.079,2.406,3.004,1.245
		c-0.329,0.413,4.268,2.443,5.098,2.943c0.881,0.531,1.743,1.101,2.59,1.692c-0.015,0.299,0.034,0.619,0.166,0.955
		c3.802,9.636,5.96,19.883,9.479,29.596c-0.414,2.04-1.243,3.738-3.686,4.939c-2.502,1.229-5.247,2.76-5.628,5.83
		c-1.112,8.953,12.716,7.216,17.746,7.292c2.46,0.037,4.034-1.303,4.733-3.043c1.456-0.409,2.871-0.927,4.219-1.658
		c0.532,0.283,0.973,0.536,1.213,0.69C283.917,171.52,289.605,166.215,286.685,162.108z M270.547,156.973
		c0.063-1.112-0.038-2.227-0.256-3.34c0.419,1.01,0.835,2.021,1.239,3.038C271.176,156.723,270.854,156.836,270.547,156.973z"/>
	<path style="fill:#CCAE85;" d="M404.523,148.17c-0.321-0.969-0.66-1.931-1-2.893c-0.316-1.353-0.652-2.707-1.018-4.048
		c-1.844-4.535-3.598-9.276-6.005-13.484c-0.014-0.008-0.025-0.021-0.04-0.028c-1.947-3.467-4.76-6.652-7.921-4.121
		c-0.554,0.443-0.469,1.229-0.231,1.791c0.064,0.15,0.127,0.3,0.19,0.45c0.08,0.188,0.219,0.32,0.384,0.41
		c0.6,1.256,1.06,3.78,1.445,5.134c0.741,2.608,1.458,5.219,2.165,7.837c0.602,2.233,1.167,4.478,1.721,6.724
		c-1.739,0.294-3.331,1.451-3.817,3.362c-0.84,3.296,0.047,7.102,0.188,10.457c0.014,0.319,0.026,0.634,0.039,0.951
		c-0.832,0.988-1.412,2.185-1.553,3.473c-0.085,0.777-0.054,1.765-0.138,2.638c-1.65,0.699-3.422,1.029-5.056,1.817
		c-3.599,1.736-6.486,4.973-5.164,9.232c0.796,2.565,2.848,3.856,5.401,4.112c3.132,0.313,6.7-0.058,9.645-1.462
		c2.251,0.525,4.893-0.167,6.445-2.063c2.121,0.765,4.813-0.012,6.412-1.402c2.789-2.425,3.065-6.196,2.437-10.101
		C409.121,160.648,406.473,154.065,404.523,148.17z M389.285,179.002c0.063-0.003,0.132-0.017,0.197-0.023
		C388.714,180.556,386.956,179.103,389.285,179.002z"/>
	<path style="fill:#CCAE85;" d="M357.19,171.607c1.257-7.656,2.375-15.706,1.61-23.474c-1.455-14.767-4.253-28.918-10.263-42.561
		c-2.877-6.533-6.076-12.724-10.511-18.341c-2.019-2.557-4.119-5.055-6.16-7.593c-2.262-2.813-3.518-3.183-6.487-4.83
		c-1.442-0.8-3.253,1.291-1.842,2.388c2.071,1.61,2.199,4.101,2.931,6.489c0.827,2.694,1.898,5.213,3.251,7.675
		c3.299,6.005,6.263,12.066,8.648,18.499c2.196,5.923,3.903,11.962,4.916,18.203c1.037,6.39,0.756,12.897,1.389,19.316
		c0.081,0.817,0.142,1.637,0.186,2.457c-0.675,0.023-1.324,0.193-1.891,0.525c0.331-2.254,0.668-4.492,1.025-6.7
		c0.492-3.046-3.521-4.19-4.629-1.276c-5.161,13.58-7.91,28.225-11.843,42.211c-1.855,6.6-4.253,12.969-7.459,19.037
		c-3.319,6.281-7.616,10.813-12.366,15.869c-5.009-1.385-9.714-2.53-13.964-5.721c-4.531-3.402-8.799-7.357-10.717-12.814
		c-1.248-3.551-6.125-2.097-5.554,1.531c2.073,13.157,12.416,22.161,24.591,26.052c5.537,1.77,10.629,3.674,16.189,4.922
		c0.726,1.253,1.95,2.28,3.761,2.797c0.882,0.252,1.761,0.425,2.636,0.526c4.919,0.963,10.575,1.875,15.223,0.967
		c2.757-0.539,5.03-1.763,6.938-3.442c0.188-0.058,0.374-0.129,0.558-0.206c9.099-0.349,10.559-11.129,10.709-18.418
		c0.283-13.682,0.653-27.169-1.363-40.753C356.85,173.832,357.007,172.72,357.19,171.607z"/>
	<path style="fill:#CCAE85;" d="M458.064,179.677c-0.404-0.346-0.855-0.636-1.333-0.879c0.25-1.426,0.51-2.854,0.745-4.279
		c1.931-11.717,2.065-23.284,1.985-35.126c-0.058-8.594-0.541-17.111-0.906-25.651c-0.392-3.805-0.886-7.603-1.786-11.296
		c-0.345-1.417-0.705-2.678-0.96-3.872c-2.678-1.254-6.665,0.042-6.729,3.922c-0.013,0.774-0.015,1.55-0.022,2.325
		c-0.094,2.654-0.429,5.294-0.848,7.928c-0.957,0.66-1.694,1.669-1.979,3.09c-0.703,3.487-0.181,7.086-0.04,10.623
		c0.005,0.128,0.021,0.25,0.033,0.374c-0.217,2.094-0.394,4.194-0.61,6.288c-0.57,5.495-1.511,10.929-2.398,16.379
		c-1.908,11.723-3.873,23.469-6.921,34.959c-2.815,10.61-6.784,20.833-10.64,31.094c-0.353,0.939-0.692,1.884-1.041,2.825
		c-1.305-0.538-2.831-0.594-4.158,0.082c-0.012-0.021-0.024-0.042-0.036-0.062c-2.353,1.433-4.727,2.979-7.053,4.583
		c-0.767,0.352-1.546,0.678-2.334,0.989c-4.12-0.451-9.06,0.975-11.936,2.531c-1.997,1.08-3.042,4.268-1.626,6.202
		c0.543,0.743,1.164,1.32,1.843,1.765c-0.451,0.54-0.858,1.098-1.234,1.669c-0.586-0.643-1.408-1.109-2.47-1.223
		c-2.448-0.262-4.88-0.584-7.305-0.952c-0.513-0.399-1.138-0.712-1.903-0.884c-1.412-0.316-2.741-0.526-4.08-0.644
		c-0.11-0.046-0.222-0.083-0.331-0.137c-2.478-1.179-4.798-0.438-6.254,1.082c-2.866,2.279-1.948,7.595,2.027,8.504
		c4.053,2.425,8.527,4.862,12.815,6.675c4.934,2.085,10.28,2.879,15.46,4.128c3.722,0.897,7.488,1.862,11.307,2.326
		c2.079,2.215,5.522,2.872,8.747,2.19c0.67-0.142,1.309-0.267,1.937-0.384c7.632,4.496,16.991,5.146,21.356-3.891
		c4.982-10.313,5.03-21.676,7.926-32.5c0.602-2.25-0.008-3.968-1.184-5.102c0.004-0.058,0.011-0.115,0.016-0.172
		c0.303-2.864,0.448-5.706,0.368-8.49c-0.006-0.208-0.024-0.409-0.046-0.607c0.257-1.309,0.515-2.617,0.764-3.927
		c0.793-4.179,1.578-8.364,2.177-12.576C459.848,186.448,460.865,182.075,458.064,179.677z M410.49,243.496
		c0.53-0.161,1.049-0.317,1.553-0.457c0.103-0.028,0.197-0.067,0.298-0.097c0.11,0.373,0.242,0.737,0.423,1.08
		C412.007,243.855,411.248,243.673,410.49,243.496z"/>
	<path style="fill:#CCAE85;" d="M354.535,293.729c-0.455,0.177-0.898,0.369-1.343,0.559c-5.552-4.389-13.242-1.807-19.758-1.249
		c-3.845,0.33-7.525,0.024-11.27-0.934c-3.448-0.882-9.409-1.287-12.129-3.433c-1.517-1.197-3.091-1.116-4.232-0.393
		c-0.513-0.376-1.016-0.749-1.488-1.119c-0.514-0.402-1.136-0.697-1.804-0.891c-0.69-0.631-1.469-1.173-2.708-1.685
		c-4.937-2.04-7.713,4.234-6.108,7.945c0.998,2.306,2.436,3.324,4.207,4.989c1.787,1.681,3.013,3.692,4.955,5.241
		c4.37,3.486,8.764,3.884,13.716,5.691c1.694,0.618,3.444,1.39,5.273,1.45c2.787,0.092,5.385-0.725,8.226-0.405
		c6.261,0.706,11.775,1.336,17.642-1.365c0.4-0.185,0.732-0.453,1.005-0.771c4.57-1.872,8.754-5.181,9.507-9.939
		C358.541,295.427,356.906,292.811,354.535,293.729z"/>
	<path style="fill:#CCAE85;" d="M440.086,331.411c-0.048-0.961-0.277-1.919-0.688-2.8c0.276-0.531,0.476-1.095,0.566-1.698
		c0.295-1.968-0.474-3.662-2.458-4.33c-1.999-0.673-3.888-0.88-5.796-0.865c-0.712-1.092-1.904-1.829-3.332-1.829h-3.81
		c-7.88-2.607-15.953-5.401-23.983-4.755c-0.313-0.236-0.63-0.467-0.93-0.721c-0.211-0.178-0.417-0.365-0.626-0.545
		c-0.015-0.519-0.067-1.04-0.258-1.565c-0.474-1.301-1.861-3.261-2.896-4.226c-0.653-0.61-1.443-1.071-2.295-1.338
		c0.321,0.101-0.903-0.174-1.58-0.286c-0.562-0.292-1.471-0.714-1.619-0.768c-1.149-0.416-2.096-0.572-3.336-0.415
		c-5.128,0.652-6.752,6.31-2.564,9.468c0.177,0.133,0.346,0.276,0.52,0.413c-0.514,1.571-0.392,3.392,0.37,5.062
		c0.411,0.901,0.996,1.642,1.74,2.294c0.012-0.015,0.023-0.03,0.035-0.045c1.302,1.248,3.075,1.895,4.833,1.687
		c0.754,0.629,1.529,1.236,2.387,1.709c1.834,6.519,9.768,9.92,15.979,11.148c4.568,0.902,9.093,0.719,13.712,0.832
		c2.053,0.05,4.001,0.171,5.896,0.121c1.232,0.112,2.459,0.192,3.674,0.212c3.339,0.054,5.368-1.812,6.127-4.168
		C440.135,333.191,440.242,332.285,440.086,331.411z"/>
</g>
<path style="fill:#FFFFFF;" d="M202.277,253.594c-1.044-4.295-6.336-4.511-9.876-3.534c-3.866,1.067-19.085,10.086-19.504,16.686
	c-0.151,0.119-0.31,0.221-0.459,0.346c-1.332,1.114-1.074,3.285,0,4.437c2.107,2.259,4.751,2.959,7.552,3.065
	c2.381,1.295,6.066,0.99,8.39,0.04c0.787-0.322,1.577-0.702,2.359-1.121c3.712-0.857,7.164-2.488,8.979-5.93
	C201.753,263.726,203.341,257.968,202.277,253.594z"/>
<path d="M72.912,360.671c-3.456-3.409-7.979-4.912-12.542-6.21c-0.419-0.12-0.583,0.508-0.178,0.647
	c4.838,1.667,9.674,5.359,12.39,9.655c2.155,3.409,3.048,7.748,5.681,10.777c0.983,1.131,2.435-0.311,1.919-1.481
	C78.074,369.288,76.765,364.473,72.912,360.671z"/>
<path d="M93.032,386.083c-1.242,6.847-4.281,13.08-6.257,19.707c-0.357,1.199,1.437,1.983,2.037,0.859
	c3.378-6.327,4.227-13.428,5.038-20.455C93.904,385.731,93.116,385.622,93.032,386.083z"/>
<path d="M33.524,379.962c2.373-0.404,2.893-3.14,3.304-5.12c0.834-4.016-0.513-11.009-4.687-12.938
	c-4.936-2.281-7.174,5.085-7.949,8.353c-0.26,1.095,1.341,1.534,1.683,0.464c0.833-2.612,4.354-8.712,6.279-3.281
	c0.126,0.358,0.23,0.722,0.321,1.089c-0.101,0.106-0.187,0.228-0.248,0.368c-1.074,2.466-2.761,6.248-1.895,8.992
	C30.769,379.273,32.049,380.213,33.524,379.962z"/>
<path d="M35.971,385.651c-0.643,1.055,0.816,2.141,1.687,1.301c4.788-4.611,3.632-13.51,2.666-19.334
	c-0.054-0.327-0.602-0.252-0.58,0.079C40.127,373.6,39.122,380.479,35.971,385.651z"/>
<path d="M44.927,391.368c1.847-4.897,2.027-10.108,1.824-15.295c-0.04-1.001-1.518-1.003-1.558,0
	c-0.197,5.034-1.188,9.836-2.364,14.717C42.497,392.172,44.44,392.661,44.927,391.368z"/>
<path d="M161.004,274.046c1.175-0.231,2.281-0.582,3.296-1.061c0.194,0.154,0.425,0.252,0.675,0.231
	c1.529-0.125,3.004-0.814,4.397-1.805c0.066,14.185,15.067,21.11,27.533,14.817c1.079-0.544,0.309-2.148-0.797-1.89
	c-6.969,1.63-16.828,1.584-20.99-5.587c-0.411-0.707-0.756-1.611-1.092-2.59c6.756,5.551,18.662,2.649,25.451-3.947
	c3.095-3.007,5.39-7.325,6.04-11.78c0.288,1.532,0.471,2.94,0.563,3.986c0.501,5.641-0.977,11.217-2.875,16.492
	c-0.352,0.979,1.1,1.497,1.62,0.683c4.327-6.764,5.785-12.917,3.996-20.889c-0.724-3.227-2.553-8.388-5.469-11.066
	c1.365-0.194,2.761-0.435,4.153-0.731c8.391,2.904,13.683,9.899,16.498,18.903c0.33,1.055,2.166,0.936,2.03-0.274
	c-1.039-9.318-6.909-16.767-15.051-19.52c2.507-0.775,4.88-1.829,6.869-3.307c0.923-0.686,0.414-2.195-0.807-1.915
	c-8.541,1.966-16.647,3.391-25.369,4.255c-3.896,0.386-7.897,1.907-10.711,4.658c-6.253,4.373-10.962,11.448-15.432,17.669
	c-3.505,1.29-7.361,2.223-10.799,0.663c-0.985-0.446-2.182,0.5-1.562,1.562C154.791,274.378,158.109,274.618,161.004,274.046z
	 M188.562,252.624c2.222-0.875,4.666-1.911,7.097-2.004c1.062-0.04,2.087,0.123,3.102,0.349c0.414,0.386,0.833,0.894,1.318,1.622
	c1.956,2.937,1.577,5.074,0.632,8.319c-1.3,4.463-3.486,8.037-7.406,10.7c-3.011,2.046-6.754,3.286-10.404,3.362
	c1.816-2.27,2.76-5.431,2.402-7.964c-0.372-2.627-2.39-6.68-5.357-7.59C182.283,256.563,184.727,254.133,188.562,252.624z
	 M176.41,263.912c0.282,0.626,0.676,1.243,1.031,2.094c0.43,1.03,0.739,2.088,0.648,3.191c-0.041,0.17-0.07,0.341-0.124,0.509
	c-0.563,1.773-1.858,1.754-3.031,2.52c-1.026-0.895-1.955-1.961-2.87-3.146C173.712,267.407,175.174,265.515,176.41,263.912z"/>
<path d="M206.682,286.923c-0.598,0.994,0.761,2.004,1.582,1.221c4.202-4.011,7.598-7.878,8.711-13.765
	c1.23-6.502-0.523-12.367-2.326-18.581c-0.304-1.048-1.874-0.611-1.631,0.45c1.395,6.101,2.072,11.885,0.315,17.997
	C211.988,278.92,209.157,282.809,206.682,286.923z"/>
<path d="M177.042,294.766c6.361,2.726,13.424,1.384,20.04,0.544c1.145-0.145,1.167-1.673,0-1.799
	c-5.818-0.63-11.936,0.738-17.644-0.69c-5.646-1.413-8.471-5.44-11.913-9.684c-0.456-0.563-1.443,0.188-1.012,0.781
	C169.58,288.145,172.032,292.618,177.042,294.766z"/>
<path d="M164.89,300.039c5.616,2.97,10.517,5.677,16.982,6.065c6.165,0.37,11.781-1.704,16.825-5.135
	c0.996-0.678,0.414-2.496-0.869-2.062c-4.955,1.676-9.753,3.895-15.063,4.105c-6.313,0.25-11.441-1.739-17.007-4.458
	C164.773,298.074,163.905,299.518,164.89,300.039z"/>
<path d="M201.27,241.809c6.317-0.354,12.13-1.458,18.026-3.803c1.002-0.398,0.617-2.007-0.457-1.657
	c-5.881,1.915-11.397,3.787-17.57,4.573C200.721,240.993,200.686,241.841,201.27,241.809z"/>
<path d="M141.621,339.329c-13.546,9.589-26.156,21.769-43.65,22.758c-0.483,0.027-0.484,0.725,0,0.752
	c17.92,1.007,32.4-10.233,45.261-21.422C144.357,340.438,142.859,338.452,141.621,339.329z"/>
<path d="M186.263,320.262c-11.958,0.382-22.723,1.684-33.563,7.119c-11.414,5.722-21.928,13.425-32.719,20.217
	c-0.701,0.441-0.079,1.517,0.65,1.113c10.29-5.702,20.555-11.707,31.022-17.088c5.265-2.707,10.78-4.84,16.575-6.086
	c6.091-1.31,12.283-1.604,18.306-3.271C187.626,321.965,187.434,320.225,186.263,320.262z"/>
<path d="M201.27,315.39c-17.653-1.311-35.654,2.167-52.893,5.529c-0.938,0.183-0.533,1.583,0.393,1.424
	c17.522-3.002,34.877-3.316,52.5-4.94C202.555,317.286,202.574,315.487,201.27,315.39z"/>
<path d="M230.384,293.821c-14.372,8.887-28.484,14.988-45.286,17.612c-0.488,0.076-0.379,0.925,0.118,0.87
	c16.749-1.862,33.29-5.693,46.485-16.774C232.653,294.73,231.423,293.178,230.384,293.821z"/>
<path d="M263.78,326.457c6.748-10.409,13.387-23.568,13.461-36.233c0.007-1.223-1.79-1.193-1.88,0
	c-0.947,12.498-8.409,23.93-13.761,34.959C260.895,326.637,262.888,327.832,263.78,326.457z"/>
<path d="M254.469,344.121c12.223-9.802,21.384-22.488,28.437-36.404c0.451-0.89-0.875-1.677-1.345-0.786
	c-7.242,13.709-17.046,25.391-28.099,36.184C252.792,343.77,253.771,344.68,254.469,344.121z"/>
<path d="M508.975,256.682c-0.15-1.211-0.313-2.421-0.508-3.622c-0.002-0.012-0.005-0.024-0.007-0.036
	c-0.16-1.103-0.317-2.208-0.485-3.305c-0.036-0.235-0.133-0.414-0.255-0.563c-1.3-6.036-3.363-11.834-6.759-17.092
	c-2.139-3.313-4.518-6.474-7.104-9.449c-2.189-2.519-4.798-4.385-7.066-6.847c-5.08-5.513-10.888-10.354-17.228-14.354
	c-1.794-1.132-3.658-2.218-5.102-3.772c-3.085-3.321-1.577-7.059-1.345-11.099c0.283-4.917,0.456-9.841,0.532-14.766
	c0.152-9.847-0.084-19.698-0.621-29.531c-0.526-9.608-1.334-19.397-2.587-28.941c-0.589-4.486-1.406-8.96-2.19-13.416
	c-0.576-3.276-0.765-7.044-2.475-9.985c-3.19-5.49-7.209-1.815-8.942,2.434c-2.115,5.186-3.689,10.657-5.268,16.101
	c-4.143,10.261-8.358,20.493-12.694,30.686c-3.397,7.984-4.817,16.932-8.726,24.667c-1.975,3.908-4.125,7.894-6.487,11.742
	c0.06-1.773-0.057-3.616-0.402-5.667c-1.217-7.25-3.986-14.852-6.473-21.745c-2.296-6.362-4.269-11.954-8.097-17.64
	c-2.805-4.167-6.269-11.727-11.009-14.018c-0.643-0.31-1.308-0.245-1.842,0.238c-2.895,2.615-3.79,8.523-4.808,12.119
	c-1.886,6.659-3.204,13.217-4.399,20.013c-1.821,10.353-7.897,17.934-13.847,26.022c-0.525-6.526-1.511-12.982-1.842-19.546
	c-0.437-8.647-0.255-17.553-1.971-26.075c-1.731-8.606-5.271-16.163-8.19-24.364c-2.502-7.031-6.354-13.906-11.022-19.745
	c-4.125-5.16-8.314-11.596-15.006-13.649c-5.306-1.628-6.702,2.075-6.478,6.615c0.197,3.991,0.925,7.863,1.698,11.734
	c0.429,3.245,0.886,6.492,1.196,9.763c0.446,4.699,1.174,9.407-0.098,14.051c-1.312,4.787-4.471,9.011-6.905,13.279
	c-7.11,12.467-12.272,26.697-20.313,38.718c-3.283-12.085-10.122-22.355-18.694-31.549c-4.783-5.13-9.597-9.352-15.642-12.941
	c-6.043-3.587-13.532-8.106-20.558-9.33c-2.492-0.435-8.209-0.761-9.171,2.682c-0.367,1.315,0.354,2.158,0.766,3.307
	c1.312,3.654,3.288,7.24,5.112,10.652c3.919,7.332,7.205,14.953,8.692,23.203c0.738,4.095,0.726,8.219,0.864,12.357
	c0.061,1.847,0.81,5.225,0.156,7.27c-4.718,0.806-9.201,2.107-12.629,4.64c-1.543-0.681-3.158-1.233-4.86-1.611
	c-3.789-0.84-7.625-0.67-11.435,0.001s-6.794,2.452-10.255,3.694c-0.543-0.208-1.071-0.429-1.58-0.665
	c-3.847-1.782-6.77-2.626-11.058-1.978c-2.653,0.401-5.241,1.134-7.712,2.192c-1.74,0.745-3.365,2.148-5.098,2.768
	c-0.095,0.034-0.17,0.09-0.247,0.145c-5.165-1.148-10.382-0.8-14.703,2.006c-3.087,2.005-5.831,4.52-8.821,6.659
	c-3.531,2.526-7.477,4.316-11.088,6.707c-5.626,3.724-8.489,8.035-10.059,14.27c-2.046,0.155-4.044,0.725-5.938,1.834
	c-5.7,3.338-8.49,9.684-12.637,14.541c-2.709,3.175-5.889,5.906-8.754,8.938c-1.464,1.55-2.866,3.642-4.515,5.111
	c-2.355,1.013-4.582,2.292-6.585,3.76c-9.333,6.84-14.253,17.536-18.538,27.983c-4.622,3.207-9.547,5.551-13.971,9.088
	c-2.195,1.755-4.28,3.569-5.875,5.908c-1.945,2.853-3.174,6.288-5.315,9c-4.528,0.988-8.484,3.981-11.342,7.682
	c-2.485,3.218-3.704,7.123-6.185,10.293c-2.509,3.206-5.876,5.478-8.441,8.62c-2.56,3.137-6.578,8.687-5.87,13.286
	c-5.725,1.562-9.912,6.475-13.02,11.402c-9.204,14.593-11.2,36.516-6.099,52.699c1.93,6.123,3.585,14.768,10.534,17.022
	c1.532,0.497,3.151,0.757,4.815,0.836c1.016,2.102,1.999,4.209,3.555,6.154c3.423,4.279,7.283,6.949,12.291,9.16
	c5.097,2.25,10.662,3.328,16.02,4.798c4.415,1.211,9.646,2.053,13.951-0.021c1.787-0.861,3.332-2.061,4.615-3.478
	c10.092,2.756,20.219-2.091,28.491-8.245c5.416-4.029,10.108-8.936,15.913-12.455c5.613-3.403,11.763-5.219,17.69-7.927
	c5.637-2.576,10.312-6.06,14.941-10.123c6.072-5.329,11.393-7.332,19.432-7.829c2.148-0.133,4.236-0.245,6.301-0.389
	c4.506,2.901,7.206,7.314,8.888,12.613c1.104,3.476,1.472,9.109,4.419,11.641c3.791,3.257,6.419-0.33,8.176-4.58
	c0.046,0.203,0.091,0.41,0.144,0.587c0.632,2.154,1.402,4.317,2.494,6.286c1.318,2.376,3.303,5.153,6.209,5.518
	c4.958,0.623,5.865-3.171,6.178-7.285c0.11,0.371,0.227,0.712,0.354,1.007c1.354,3.145,3.094,6.128,5.149,8.866
	c2.349,3.128,6.098,7.519,10.586,6.075c3.417-1.099,4.146-5.037,4.051-8.153c-0.038-1.254-0.152-2.506-0.297-3.757
	c0.656,0.848,1.341,1.678,2.107,2.463c2.912,2.984,8.208,7.524,12.792,6.447c5.312-1.248,5.473-5.901,4.165-10.964
	c2.583,2.825,6.513,5.957,10.517,5.569c5.753-0.558,5.443-5.121,3.946-9.917c3.82,3.822,8.161,6.932,13.516,5.937
	c2.599-0.483,4.505-2.045,4.8-4.786c0.108-1.005-0.045-1.974-0.329-2.919c5.041,2.97,10.681,5.016,16.105,2.785
	c2.87-1.18,4.191-3.323,4.111-6.381c-0.042-1.632-0.48-3.255-1.081-4.76c-0.082-0.204-0.2-0.423-0.334-0.648
	c6.525,1.94,13.208,3.24,19.961,0.946c2.429-0.825,4.823-2.18,5.844-4.665c0.487-1.185,0.55-2.26,0.405-3.297
	c4.222,1.623,8.487,2.43,13.046,0.189c3.564-1.752,5.098-5.905,9.405-5.895c2.05,0.005,4.154,0.447,6.28,0.854
	c4.725,2.217,14.203,1.856,16.42,1.76c6.354-0.275,11.162,1.14,16.429,4.715c5.171,3.51,8.7,8.875,14.11,12.005
	c4.507,2.608,9.637,3.343,14.674,4.338c3.073,0.606,6.52,0.919,9.164,2.78c3.23,2.274,4.408,6.528,5.876,9.965
	c3.192,7.475,6.628,15.304,15.146,17.338c8.596,2.053,19.162-2.894,25.704-8.232c9.341-7.622,15.133-16.824,19.482-27.896
	c4.582-11.666,7.52-23.491,10.785-35.544c3.225-11.902,5.722-24.395,8.113-36.497C513.674,307.65,512.371,281.565,508.975,256.682z
	 M417.831,180.878c3.734-6.522,7.695-13.093,9.719-20.369c2.227-8.009,3.978-15.799,7.095-23.537
	c4.328-10.745,8.295-21.427,11.435-32.447c0.388-1.074,0.775-2.149,1.156-3.203c0.535-1.478,0.934-3,1.506-4.464
	c0.411-1.05,0.95-4.189,2.184-4.418c2.645-0.488,2.248,8.074,2.504,9.801c2.198,14.816,3.367,29.887,4.13,44.846
	c0.325,6.381,0.636,12.887,0.587,19.276c-0.061,7.889,0.267,15.908-0.146,23.778c-0.816,15.572-0.953,31.344-3.891,46.706
	c-1.14,5.963-2.207,13.578-5.31,18.845c-5.052,8.578-16.722,2.117-23.558,0.31c-6.752-1.785-13.741-2.31-20.472-4.11
	c-7.006-1.874-15.013-3.808-21.314-7.361c-5.798-3.27-16.45-12.55-9.148-19.681c2.421-2.364,5.887-3.877,8.635-5.802
	c2.781-1.946,5.272-4.193,7.705-6.556C400.3,203.11,411.101,192.63,417.831,180.878z M370.555,172.74
	c3.661-4.377,7.113-8.751,9.28-14.078c2.503-6.151,2.487-12.581,3.669-19.016c0.658-3.579,1.351-7.146,1.959-10.735
	c0.229-1.355,0.396-2.722,0.639-4.075c0.139-0.772,0.132-2.71,0.753-3.231c0.438-0.367,1.095-0.401,1.616-0.168
	c1.614,0.723,2.452,4.238,3.32,5.729c1.548,2.657,3.238,5.235,4.751,7.912c3.052,5.4,4.574,11.361,6.321,17.274
	c1.639,5.543,2.999,11.169,4.023,16.858c0.51,2.829,0.938,5.673,1.281,8.527c0.299,2.491,0.886,4.968-1.619,6.559
	c-1.305,0.829-3.209-0.04-4.583-0.354c-1.995-0.457-3.99-0.913-5.987-1.363c-4.09-0.921-8.188-1.814-12.305-2.605
	c-3.76-0.723-7.552-0.56-11.334-1.139c-2.106-0.322-4.122-0.728-6.157-0.9C367.816,176.328,369.212,174.345,370.555,172.74z
	 M363.667,183.031c1.272-1.445,2.41-0.379,3.806,0.09c1.769,0.594,3.626,0.957,5.46,1.281c3.799,0.67,7.656,1.032,11.404,1.973
	c2.722,0.683,5.4,1.525,8.115,2.232c1.438,0.375,2.889,0.738,4.355,0.986c0.975,0.165,2.407-0.022,3.076,0.818
	c1.69,2.125-2.326,5.683-3.578,7.095c-2.542,2.866-5.116,5.703-7.743,8.491c-2.802,2.974-5.598,5.886-8.816,8.414
	c-0.507,0.398-1.03,0.784-1.555,1.168c-2.172-1.647-3.831-2.595-6.94-2.246c-2.866,0.321-5.51,1.502-7.831,3.151
	c-0.041-2.671-0.152-5.32-0.193-7.818c-0.073-4.5-0.058-9-0.046-13.5c0.006-2.25,0.012-4.5,0.006-6.75
	C363.182,186.898,362.575,184.27,363.667,183.031z M303.683,160.931c3.959-7.486,7.059-15.416,10.776-23.024
	c3.158-6.46,7.306-12.616,9.931-19.313c2.814-7.18,1.543-14.177,0.395-21.577c-0.942-6.073-2.166-12.211-4.022-18.088
	c0.029-2.033,0.754-3.546,2.938-3.471c2.5,0.086,5.702,3.931,7.124,5.553c9.433,10.76,15.454,22.442,20.256,35.858
	c5.087,14.214,2.922,30.234,4.931,44.997c0.915,6.729,2.144,13.271,2.382,20.087c0.273,7.803,0.12,15.646,0.103,23.453
	c-0.017,7.383,0.025,14.867-1.729,22.083c-2.018,8.304-8.85,9.343-16.493,9.659c-14.481,0.598-30.798-3.026-43.678-9.669
	c-5.6-2.888-10.437-6.894-14.416-11.814c-2.572-3.181-4.468-6.834-5.709-10.732c-1.617-5.084,0.075-8.688,3.346-12.666
	c4.103-4.99,8.746-9.512,12.887-14.472C297.099,172.531,300.483,166.983,303.683,160.931z M243.755,132.999
	c-1.574-2.937-3.579-5.678-5.511-8.389c-1.204-1.688-2.538-3.307-3.698-5.024c-1.37-2.029-2.389-2.363-0.321-4.222
	c4.276-3.844,16.687,4.821,20.79,7.319c5.987,3.646,10.785,8.118,15.268,13.439c8.021,9.521,14.886,19.307,18.114,31.29
	c-2.672-0.379-5.483-0.172-8.18-0.269c-5.646-0.202-11.172,0.775-16.708,1.862c-4.106,0.806-9.142,1.098-14.166,1.712
	c0.295-0.97,0.456-2.003,0.585-2.916c0.813-5.697,0.579-11.915-0.356-17.578C248.61,144.39,246.555,138.223,243.755,132.999z
	 M220.094,177.763c7.652-0.265,13.475,2.534,18.82,7.736c4.498,4.377,11.435,11.958,4.615,17.476
	c-2.446,1.979-5.704,2.749-8.662,3.875c0.757-5.768-0.896-11.955-3.706-16.938c-3.949-7.003-13.155-8.393-20.921-10.59
	C213.538,178.851,216.92,177.873,220.094,177.763z M189.35,180.146c5.584-1.294,8.855-1.02,13.921,1.394
	c6.779,3.23,16.618,3.624,22.038,8.895c6.002,5.835,6.18,18.535-0.784,23.682c-3.536,2.613-8.201,4.183-12.549,4.659
	c-0.121,0.013-0.231,0.023-0.349,0.035c0.674-2.244,0.882-4.57,0.34-6.823c-1.637-6.8-7.337-13.854-11.616-19.207
	c-3.544-4.435-9.453-8.772-15.836-11.122C186.125,181.156,187.724,180.523,189.35,180.146z M140.576,206.616
	c2.079-3.187,5.137-5.467,8.41-7.299c4.956-2.774,9.846-5.103,14.471-8.453c2.577-1.866,5.394-4.289,8.522-4.906
	c2.968-0.585,6.711-0.288,9.639,0.218c7.141,1.235,13.219,5.169,17.264,11.1c3.329,4.88,8.601,13.082,7.689,19.049
	c-0.944,6.183-7.95,11.832-13,14.669c-7.503,4.215-17.247,2.276-24.906,5.946c0.002-5.761-3.09-11.813-7.691-15.369
	c-5.671-4.382-14.118-10.583-22.202-11.403C139.358,208.998,139.824,207.769,140.576,206.616z M109.897,238.357
	c4.247-3.538,8.766-6.861,12.516-10.941c3.565-3.88,7.203-10.565,12.875-11.624c5.135-0.958,12.393,2.304,16.69,4.594
	c5.049,2.691,10.576,5.232,12.257,11.161c0.911,3.21,0.884,6.393-0.86,9.256c-1.854,3.045-4.708,3.849-7.562,5.624
	c-3.209,1.997-6.971,4.153-9.206,7.292c-2.889,4.058-3.397,7.525-7.631,10.055c0.186-8.771-5.785-18.825-13.096-23.009
	c-5.068-2.901-10.903-3.268-16.454-2.005C109.585,238.623,109.744,238.484,109.897,238.357z M94.982,253.484
	c6.375-6.718,18.625-14.54,28.211-10.923c10.276,3.877,13.869,20.815,7.271,29.078c-2.688,3.367-6.782,5.246-10.164,7.803
	c-2.281,1.725-4.222,3.705-5.878,5.949c-0.552-4.294-3.182-6.623-6.605-10.037c-3.729-3.719-7.927-7.92-13.377-8.678
	c-3.458-0.48-6.532,0.349-9.417,1.773C88.32,263.481,90.818,257.873,94.982,253.484z M59.792,293.524
	c4.062-5.122,8.57-9.699,14.731-12.23c4.296-1.766,7.58-4.818,11.47-7.333c7.18-4.641,13.216-2.517,19.109,2.873
	c5.366,4.909,6.686,8.952,3.649,15.768c-2.162,4.852-4.741,10-9.11,13.252c-4.554,3.389-12.253,3.048-17.048,6.25
	c-0.376-2.719-1.755-5.273-4.158-7.066c-2.389-1.781-5.858-3.194-8.563-4.411c-3.896-1.753-7.257-4.252-11.683-4.641
	c-0.109-0.009-0.215-0.008-0.324-0.015C58.553,295.18,59.175,294.301,59.792,293.524z M44.951,310.39
	c3.528-5.677,9.23-10.258,16.245-8.381c3.804,1.018,15.669,3.813,17.122,7.951c1.544,4.397-1.232,8.105-4.341,10.712
	c-1.901,1.595-3.193,3.093-6.346,2.878c-1.021-0.069-2.006-0.75-3.068-0.811c-1.081-0.063-2.143,0.203-3.132,0.679
	c-0.164-1.445-0.795-3.007-2.073-4.73c-3.693-4.98-9.962-6.859-15.822-6.081C44.004,311.891,44.472,311.16,44.951,310.39z
	 M35.229,322.006c2.565-2.024,4.477-4.093,6.204-6.388c3.008-0.702,5.727-0.56,8.807,1.268c2.708,1.607,5.605,3.285,6.579,6.501
	c0.63,2.082-0.135,4.259-1.284,6.398c-1.932,3.05-3.712,6.015-6.54,8.702c-2.238,2.128-4.613,3.95-7.426,5.178
	c-1.405,0.613-2.743,1.044-4.014,1.771c-3.052-5.039-6.523-10.222-13.014-9.73C26.222,330.245,31.021,325.325,35.229,322.006z
	 M17.109,411.924c-5.273-0.873-6.562-6.001-8.166-10.473c-3.423-9.546-4.852-18.759-3.651-28.914
	c1.111-9.395,3.718-19.343,9.882-26.708c3.457-4.13,9.767-8.049,13.932-2.549c2.465,3.255,4.028,7.202,6.36,10.574
	c4.23,6.118,10.45,12.271,17.413,15.149c3.55,1.468,7.372,2.13,10.997,3.384c4.512,1.562,5.97,5.029,8.14,8.572
	c-1.331,6.927-11.394,12.306-16.527,15.484c-7.763,4.806-16.028,10.087-24.715,13.002C26.594,410.85,21.545,412.658,17.109,411.924z
	 M67.709,427.003c-1.123,2.172-3.261,4.366-5.475,5.443c-5.076,2.471-10.755-0.141-15.772-1.333
	c-4.819-1.145-9.357-2.07-13.901-4.21c-3.911-1.842-7.106-4.426-10.054-7.585c-0.374-0.4-0.733-0.831-1.094-1.268
	c6.018-0.507,12.3-2.931,17.16-5.241c9.083-4.318,18.561-9.325,26.588-15.432c2.281-1.735,5.082-4.137,7.291-6.903
	c-0.562,2.935-0.98,5.729-2.559,8.578c-1.805,3.258-3.909,5.802-4.386,9.602c-0.375,2.985,0.218,5.413,1.31,8.14
	C68.307,420.519,69.93,422.704,67.709,427.003z M504.446,317.813c-1.12,11.633-4.556,22.631-6.843,34.022
	c-2.131,10.609-4.362,21.139-7.317,31.561c-5.819,20.521-15.468,47.152-39.752,51c-11.476,1.818-15.259-12.26-19.625-20.102
	c-4.505-8.089-12.924-8.819-21.09-11.2c-7.035-2.05-10.114-6.545-15.379-11.09c-3.532-3.049-7.91-5.878-12.278-7.547
	c-5.574-2.129-10.856-1.183-16.636-0.858c-2.944,0.165-5.628-0.094-8.539-0.402c-0.532-0.057-1.642-0.241-2.57-0.305
	c-2.766-0.539-5.473-1.247-8.278-1.615c-1.966-0.257-4.117-0.212-5.855,0.898c-2.708,1.729-3.202,4.811-6.616,6.027
	c-4.269,1.521-8.24-0.723-12.076-2.342c-1.915-0.809-4.284,0.524-3.673,2.823c0.5,1.877,1.512,4.382-0.354,6.064
	c-1.537,1.385-6.112,1.597-7.708,1.637c-5.63,0.141-10.965-1.557-16.161-3.496c-1.515-0.565-3.145,0.888-3.126,2.381
	c0.042,3.35,5.716,9.534,0.437,10.229c-5.589,0.737-12.006-4.522-16.202-7.536c-1.905-1.368-4.783,0.459-4.678,2.685
	c0.065,1.379,0.584,2.438,1.103,3.692c1.06,2.562,3.775,6.747-1.481,4.881c-5.351-1.899-8.601-7.839-12.773-11.338
	c-1.675-1.404-4.733-0.611-4.627,1.917c0.081,1.922,0.922,3.504,1.588,5.283c0.922,2.46,4.064,9.957-1.005,7.691
	c-5.477-2.447-7.424-10.337-11.741-14c-1.593-1.352-4.645-0.598-4.49,1.859c0.192,3.057,1.688,5.418,2.559,8.329
	c0.719,2.403,3.704,9.377-0.278,9.478c-2.972,0.075-7.688-6.834-9.138-8.848c-2.031-2.822-3.383-6.03-5.413-8.82
	c-1.98-2.722-6.046-1.113-5.416,2.283c0.839,4.519,1.771,8.932,2.339,13.508c0.132,1.064,0.825,3.696,0.412,4.832
	c-0.709,1.952-1.389,0.062-2.656-1.412c-3.276-3.813-5.794-8.302-7.503-13.026c-0.911-2.518-1.262-4.486-3.481-6.141
	c-1.097-0.817-2.905-0.19-3.52,0.923c-0.875,1.586-0.896,3.19-1.006,4.969c-0.149,2.408,0.187,9.512-3.188,5.688
	c-3.73-4.227-1.862-11.476-5.798-15.615c-1.568-1.649-3.971-0.64-4.685,1.237c-0.724,1.902-1.32,6.29-2.751,8.622
	c-1.305-2.065-1.856-5.664-2.549-7.484c-0.989-2.598-2.102-5.182-3.706-7.465c-1.28-1.823-2.816-3.302-4.559-4.39
	c2.814-0.335,5.62-0.823,8.492-1.641c4.848-1.38,9.339-3.343,13.619-5.822c1.068-0.455,2.086-0.902,3.02-1.307
	c6.779-2.939,13.833-5.938,19.689-10.544c5.874-4.62,9.991-11.351,14.928-16.898c5.382-6.046,11.581-11.236,17.1-17.147
	c7.305-7.824,11.151-17.661,13.226-27.931c6.761-16.742,10.147-32.536,9.581-50.685c-0.03-0.982-1.524-0.989-1.531,0
	c-0.077,11.093-2.019,21.379-4.84,31.584c2.499-13.62,2.234-27.625-2.355-40.869c-0.332-0.956-1.854-0.551-1.528,0.421
	c2.95,8.783,2.822,18.444,1.952,27.582c-0.003,0.031-0.008,0.062-0.011,0.092c-1.09-8.511-3.268-16.883-6.242-24.983
	c-0.392-1.069-2.064-0.651-1.735,0.479c4.012,13.792,5.237,27.656,3.57,41.963c-1.676,14.389-6.025,29.124-16.462,39.604
	c-4.594,4.613-9.531,8.929-13.828,13.824c-4.64,5.286-8.483,11.287-13.229,16.453c-4.564,4.968-11.029,8.208-16.937,11.307
	c-2.955,1.55-5.945,2.958-8.93,4.438c-1.045,0.518-2.116,1.178-3.203,1.851c-2.295,0.883-4.622,1.692-7.021,2.355
	c-7.292,2.013-14.282,1.857-21.783,1.995c-5.178,0.095-9.931,0.761-14.498,3.356c-5.483,3.115-9.864,7.788-15.309,10.983
	c-5.37,3.15-11.425,4.639-16.895,7.533c-4.932,2.609-9.611,5.92-13.731,9.682c-5.432,4.959-10.578,10.231-17.224,13.624
	c-3.481,1.777-7.159,2.91-11.04,3.346c-0.903,0.102-1.808,0.107-2.71,0.098c2.47-4.242,3.014-9.557,1.026-14.093
	c-1.961-4.476-3.502-8.015-1.054-12.805c1.044-2.042,2.551-3.804,3.545-5.883c1.631-3.414,2.479-6.882,1.675-10.514
	c2.914-1.813,5.778-4.238,8.979-4.902c-0.247,5.031-1.641,9.995-2.614,14.913c-0.331,1.67,1.898,2.236,2.511,0.692
	c2.225-5.592,3.088-10.7,2.843-15.762c2.808,0.056,4.917-0.145,7.716-1.624c4.202-2.218,7.521-5.45,12.147-6.896
	c0.91-0.284,0.787-1.751-0.231-1.714c-3.399,0.125-5.949,1.284-8.961,2.714c-3.277,1.557-6.409,3.295-10.195,2.708
	c-0.399-0.062-0.754-0.151-1.089-0.247c-0.684-3.604-1.877-7.257-3.522-11.116c-0.167-0.391-0.752-0.103-0.663,0.279
	c0.772,3.315,1.502,6.837,1.865,10.318c-0.276-0.013-0.565-0.011-0.89,0.031c-2.097,0.27-4.194,1.569-5.556,3.152
	c-0.565,0.658-0.627,1.295-1.654,1.045c-0.936-0.228-1.31-1.389-1.429-2.217c-0.9-6.253-5.244-11.294-11.148-13.511
	c-4.552-1.709-9.076-2.886-12.984-5.913c-4.012-3.106-7.6-6.649-10.471-10.821c4.994-1.419,8.833-4.571,12.076-8.745
	c2.576-3.316,4.107-6.987,6.389-10.43c3.185-4.806,4.648-2.597,9.013-1.928c5.551,0.85,10.791-4.917,13.324-9.336
	c0.089-0.037,0.18-0.058,0.266-0.114c2.343-1.51,4.106-3.119,6.856-3.918c3.165-0.92,6.478-1.393,9.62-2.394
	c5.026-1.601,8.783-5.86,11.509-10.246c2.043-3.285,3.827-7.343,4.649-11.339c0.454,0.008,0.923-0.15,1.331-0.543
	c2.741-2.64,5.227-5.271,8.476-7.333c2.114-1.342,4.382-2.449,6.385-3.96c4.097-3.089,6.777-6.658,8.098-11.551
	c0.148,0.051,0.302,0.091,0.462,0.104c4.86,0.417,8.068-3.607,10.117-7.542c1.823-3.501,3.186-5.476,6.512-7.831
	c2.493-1.765,5.313-3.057,7.753-4.832c2.334-1.698,3.849-3.84,4.684-6.19c3.434-0.619,6.657-1.841,10.263-2.161
	c3.493-0.31,6.949-0.879,10.408-1.479c6.826-1.185,12.704-4.868,17.461-9.944c1.002-1.069,1.981-2.292,2.86-3.615
	c4.577-0.934,9.102-1.065,13.668-2.862c3.407-1.341,6.94-3.538,9.124-6.542c0.522-0.718,0.959-1.47,1.354-2.236
	c6.173-0.815,13.32-3.075,17.093-8.218c4.135-5.638,0.882-12.558-3.146-17.308c-2.798-3.3-5.889-6.372-9.399-8.768
	c2.968-0.631,5.937-1.425,8.947-1.729c5.222-0.526,10.465-0.718,15.646-1.613c9.057-1.565,17.809-2.781,26.93-3.218
	c-0.122,0.146-0.236,0.299-0.36,0.444c-3.83,4.488-8.265,8.688-12.1,13.261c-8.703,0.778-13.458,13.081-13.652,20.737
	c-0.315,12.362,5.499,20.47,15.572,26.744c1.091,0.68,2.163-0.83,1.334-1.729c-2.852-3.097-6.369-5.667-8.807-9.155
	c-2.793-3.996-3.959-9.129-4.165-13.928c-0.212-4.954,0.854-9.871,3.696-13.979c0.229-0.332,0.476-0.64,0.724-0.944
	c-1.967,4.363-1.509,8.357,0.563,13.36c5.652,13.651,17.248,23.795,31.058,28.798c14.68,5.319,29.941,8.858,45.58,6.51
	c3.344-0.503,5.938-1.585,7.968-3.087c-1.417,2.131-3.115,4.069-4.525,5.59c-4.128,4.456-9.367,5.978-15.287,6.458
	c-1.126,0.091-1.483,1.739-0.279,2.057c7.206,1.903,13.855-1.015,18.389-6.682c3.656-4.569,5.931-9.675,7.076-15.404
	c0.408-2.042,1.039-3.968,1.268-6.086c0.348-3.226-0.08-5.819,3.225-7.403c1.719-0.823,7.331-3.623,8.583-0.809
	c0.231,0.521,0.093,1.149-0.229,1.62s-0.802,0.808-1.292,1.098c-1.633,0.967-3.478,1.528-5.133,2.455
	c-3.414,1.913-4.697,6.227-5.22,9.907c-1.196,8.418,3.283,15.473,10.583,19.43c1.377,0.747,2.952-1.102,1.725-2.235
	c-4.331-4-8.703-7.701-8.964-14.111c-0.07-1.724,0.138-3.417,0.549-5.047c0.203,8.384,10.381,16.491,17.192,20.063
	c14.582,7.647,31.062,8.602,46.221,14.323c6.042,2.28,13.825,2.952,19.501-0.711c0.959-0.619,1.784-1.358,2.51-2.182
	c-3.631,6.601-11.306,11.039-18.961,12.116c-1.168,0.165-0.839,1.984,0.271,2.005c12.013,0.223,23.968-9.134,22.391-21.188
	c0.323-1.01,0.594-2.037,0.846-3.061c1.763,7.061,1.078,13.989-1.254,21.542c-0.359,1.164,1.419,1.943,1.988,0.838
	c4.228-8.207,4.897-18.338,0.124-26.154c0.023-0.104,0.046-0.212,0.069-0.316c1.594-7.327,2.432-14.791,2.966-22.264
	c0.277-3.881,0.472-7.768,0.656-11.655c0.087-1.823-0.933-7.379,1.488-8.122c1.646-0.504,4.911,2.905,6.212,4.003
	c2.655,2.244,4.871,4.874,7.689,6.995c6.886,5.182,13.205,11.098,18.136,18.263c4.384,6.369,6.942,13.336,8.574,20.855
	c0.843,3.886,0.829,9.409,1.996,13.896C505.872,285.413,505.993,301.75,504.446,317.813z"/>
<path d="M371.577,260.748c4.661,3.451,10.549,5.905,16.152,7.336c1.186,0.303,1.568-1.348,0.492-1.787
	c-5.065-2.065-10.562-4.504-15.178-7.451c-5.264-3.36-8.71-8.161-12.313-13.134c-0.278-0.383-0.908-0.041-0.649,0.38
	C363.419,251.508,366.366,256.891,371.577,260.748z"/>
<path d="M414.149,270.278c1.139,0.144,1.303-1.649,0.265-1.952c-11.653-3.395-22.473-5.715-32.513-12.905
	c-1.006-0.721-2.322,0.96-1.334,1.729C390.681,265.016,401.467,268.68,414.149,270.278z"/>
<path d="M411.167,273.448c5.802,3.479,11.51,6.903,18.519,4.872c0.709-0.205,0.61-1.445-0.182-1.345
	c-6.473,0.822-12.273-1.349-17.958-4.177C411.116,272.585,410.748,273.197,411.167,273.448z"/>
<path d="M399.93,280.826c-0.421-0.126-0.575,0.496-0.179,0.647c8.561,3.268,16.655,6.127,25.908,6.311
	c8.697,0.172,15.938-2.109,23.67-5.905c1.252-0.615,0.367-2.791-0.963-2.282c-7.801,2.985-15.302,5.327-23.74,5.552
	C415.993,285.378,408.119,283.284,399.93,280.826z"/>
<path d="M464.014,251.942c1.231,8.174,0.365,15.137-1.979,23.007c-0.317,1.065,1.387,1.844,1.84,0.776
	c3.494-8.228,3.025-15.485,0.915-23.997C464.663,251.213,463.939,251.443,464.014,251.942z"/>
<path d="M285.5,243.695c-6.244-2.863-11.967-6.757-16.983-11.452c-5.183-4.851-8.35-10.788-11.737-16.918
	c-0.27-0.488-0.985-0.058-0.742,0.434c3.329,6.734,6.029,13.429,11.308,18.92c4.951,5.151,10.591,8.667,17.43,10.734
	C285.772,245.714,286.483,244.146,285.5,243.695z"/>
<path d="M300.932,246.997c6.088,2.706,12.735,3.525,19.341,3.335c1.24-0.036,1.174-1.74,0-1.88
	c-6.212-0.743-12.591-1.715-18.463-3.986c-5.525-2.137-10.008-6.132-14.667-9.671c-0.662-0.503-1.538,0.624-0.895,1.16
	C290.937,239.86,295.28,244.486,300.932,246.997z"/>
<path d="M311.661,255.559c-2.764-0.258-5.525-0.577-8.22-1.256c-4.685-1.182-9.222-2.903-13.598-4.942
	c-1.447-0.674-2.718,1.475-1.261,2.157c5.542,2.594,12.21,5.569,18.437,5.749c3.375,0.097,6.719,0.597,10.052,1.098
	c3.079,0.462,6.54,0.474,9.481,1.456c5.817,1.941,13.296,0.808,19.043-0.99c0.918-0.288,0.534-1.594-0.393-1.424
	c-6.965,1.273-14.185,1.247-21.171,0.146c-3.391-0.535-6.553-1.468-9.972-1.775C313.261,255.704,312.461,255.634,311.661,255.559z"
	/>
<path d="M325.03,266.231c-7.562,0.334-14.796,1.058-21.788,4.152c-4.26,1.885-15.084,5.622-15.459,11.407
	c-0.186,2.876,2.018,6.518,2.988,9.192c1.301,3.587,2.659,7.14,4.949,10.232c4.019,5.427,10.65,8.929,16.831,11.316
	c12.765,4.93,30.703,4.872,42.824-1.794c5.776-3.177,10.441-8.476,10.065-15.526c-0.293-5.509-3.514-10.509-8.466-12.808
	C348.352,273.105,339.171,265.607,325.03,266.231z M356.65,285.861c4.59,5.896,7.473,12.707-0.065,18.511
	c-5.308,4.086-13.599,5.906-20.161,6.435c-12.82,1.033-31.669-2.623-39.177-14.187c-2.022-3.114-4.066-7.079-4.821-10.734
	c-0.132-0.638-0.147-1.196-0.085-1.698c1.56,2.266,3.899,3.251,7.133,3.905c2.499,0.505,4.818-0.119,7.293-0.063
	c3.654,0.081,6.414,3.356,9.599,4.872c5.239,2.494,11.171,2.992,16.845,3.743c6.625,0.877,11.904,4.614,18.572,1.841
	c1.682-0.7,1.591-3.258-0.45-3.323c-5.01-0.159-9.156-1.789-13.951-2.715c-5.852-1.13-11.887-0.662-17.707-2.193
	c-3.881-1.021-7.108-4.005-10.936-4.711c-4.941-0.911-11.933,1.535-15.357-3.507c1.366-1.418,3.793-2.146,5.913-3.236
	c7.295-3.748,13.834-6.329,22.027-7.249c7.952-0.893,14.403-0.442,21.556,3.463C348.073,277.851,352.507,281.691,356.65,285.861z"/>
<path d="M445.076,311.127c-4.851-10.193-18.446-16.214-28.608-17.78c-7.499-1.155-15.303-1.127-22.696,0.747
	c-5.09,1.291-13.572,4.341-15.62,9.69c-2.091,5.46,2.754,12.277,5.584,16.496c3.781,5.638,10.117,10.247,15.839,13.776
	c12.315,7.596,28.729,13.066,42.719,6.539C454.652,334.831,453.329,319.567,445.076,311.127z M427.32,338.152
	c-13.833-0.43-28.503-7.342-37.989-17.456c-2.269-2.419-5.211-6.927-6.069-10.183c-0.598-2.27,0.133-4.058,1.446-5.515
	c1.694,2.968,3.12,6.013,6.285,7.744c4.363,2.387,9.789,2.087,14.385,4.116c4.605,2.033,9.266,3,13.998,4.641
	c4.981,1.728,10.393,3.729,15.711,3.327c0.854-0.065,1.011-1.185,0.2-1.477c-5.423-1.955-11.08-2.9-16.519-4.955
	c-4.083-1.542-7.804-2.881-11.595-5.104c-3.028-1.776-5.84-2.718-9.299-3.18c-5.272-0.705-8.111-3.401-11.934-6.27
	c1.279-1.03,2.802-1.87,4.194-2.591c6.247-3.234,13.636-4.165,20.592-3.8c8.115,0.426,15.424,2.373,22.244,6.85
	c4.553,2.989,7.647,6.788,11.171,10.544c1.812,3.289,3.149,6.906,2.967,10.452C446.587,335.499,435.709,338.412,427.32,338.152z"/>
<path d="M285.348,279.405c-0.04-0.404-0.657-0.422-0.645,0c0.247,8.528,0.597,18.157,7.138,24.592
	c0.563,0.555,1.655-0.205,1.139-0.878C287.973,296.59,286.134,287.347,285.348,279.405z"/>
<path d="M290.004,309.325c3.214,3.685,6.498,7.513,10.686,10.127c4.77,2.978,10.441,4.277,15.886,5.374
	c0.979,0.197,1.375-1.193,0.414-1.502c-5.107-1.643-10.632-2.894-15.367-5.467c-4.257-2.314-7.704-5.659-11.106-9.044
	C290.182,308.479,289.7,308.976,290.004,309.325z"/>
<path d="M366.979,303.248c-6.596,9.045-18.672,13.736-29.205,16.263c-1.417,0.34-0.796,2.383,0.592,2.149
	c11.649-1.965,23.167-7.637,29.424-17.938C368.112,303.194,367.328,302.769,366.979,303.248z"/>
<path d="M353.151,320.635c-8.819,3.439-17.372,6.492-26.946,6.419c-1.107-0.009-1.105,1.691,0,1.718
	c9.829,0.245,19.064-1.346,27.743-6.248C354.938,321.965,354.267,320.199,353.151,320.635z"/>
<path d="M399.044,341.242c1.021,0.475,1.879-0.917,0.895-1.53c-5.651-3.525-11.263-7.279-15.652-12.356
	c-4.842-5.602-7.068-11.681-8.849-18.739c-0.124-0.491-0.844-0.28-0.751,0.207c1.436,7.509,2.878,13.878,7.584,20.088
	C386.651,334.692,392.554,338.222,399.044,341.242z"/>
<path d="M368.202,325.809c3.611,6.511,6.958,13.351,12.912,18.069c7.54,5.975,15.686,7.937,25.032,9.293
	c1.515,0.22,2.221-2.034,0.65-2.356c-8.175-1.679-15.743-3.505-22.807-8.173c-6.558-4.333-10.616-10.938-14.628-17.51
	C368.911,324.394,367.781,325.051,368.202,325.809z"/>
<path d="M444.209,301.916c3.727,5.243,6.859,11.073,8.863,17.196c2.408,7.358,0.427,13.933-1.61,21.069
	c-0.341,1.197,1.437,1.99,2.037,0.858c3.553-6.699,5.506-13.523,3.028-20.938c-2.375-7.105-7.2-12.822-11.77-18.608
	C444.514,301.185,443.979,301.593,444.209,301.916z"/>
<path d="M461.57,325.819c-1.036,8.922-3.463,15.119-9.869,21.5c-0.919,0.916,0.318,2.667,1.432,1.855
	c8.09-5.894,10.395-13.612,9.215-23.355C462.289,325.321,461.629,325.317,461.57,325.819z"/>
<path d="M421.037,346.175c-1.208-0.238-1.734,1.561-0.514,1.864c5.5,1.371,10.34,1.366,15.961,0.8c1.296-0.131,1.358-2.073,0-2.068
	C431.195,346.79,426.277,347.209,421.037,346.175z"/>
<path d="M319.755,365.471c-2.244,0.901-4.567,1.935-6.954,2.395c-3.627,0.699-5.75-1.293-8.798-2.085
	c-1.762-0.458-2.483-0.598-3.859,0.75c-3.58,3.508-4.056,7.778-9.8,9.195c-4.219,1.041-6.877-0.394-10.364-2.274
	c-1.35-0.729-1.234-1.195-2.801-1.622c-1.313-0.357-2.233,0.63-2.393,1.824c-0.253,1.887,0.037,4.36-0.885,6.051
	c-0.307,2.701-2.114,3.287-5.42,1.759c-0.941-0.653-1.791-1.402-2.549-2.248c-2.024-2.122-2.731-4.796-5.62-5.748
	c-1.252-0.413-3.132,0.485-3.321,1.886c-0.306,2.266-0.06,9.451-3.641,8.51c-2.017-0.53-3.56-5.413-4.523-7.106
	c-1.252-2.201-3.146-4.976-5.977-3.239c-3.291,2.018-1.996,7.249-3.99,9.943c-2.702,3.653-3.816-2.224-4.379-4.7
	c-1.028-4.512-1.153-8.906-1.17-13.506c-0.005-1.263-1.932-1.261-1.96,0c-0.135,5.898-2.008,19.125,3.866,23.412
	c5.197,3.792,7.66-4.191,8.63-7.747c0.086-0.315,0.615-2.915,0.659-2.93c0.139-0.048,2.012,4.809,2.46,5.62
	c1.366,2.47,3.371,5.242,6.131,6.247c5.603,2.04,7.52-2.519,8.38-7.296c1.056,1.252,2.234,2.383,3.566,3.36
	c2.376,1.745,5.155,2.969,8.133,2.151c5.259-1.445,5.474-6.524,5.415-11.142c0.94,0.761,1.885,1.598,2.771,1.975
	c1.86,0.791,3.912,1.229,5.937,1.281c5.148,0.131,9.471-2.136,12.76-6.014c0.545-0.643,3.078-4.117,2.546-4.494
	c0.844,0.187,3.066,2.019,4.017,2.314c5.16,1.606,10.285-0.076,14.635-2.962C322.975,367.888,321.919,364.602,319.755,365.471z"/>
<path d="M409.45,390.512c-5.191-3.111-9.79-6.63-15.348-9.212c-5.409-2.513-11.004-4.457-16.817-5.795
	c-12.324-2.837-24.891-2.978-37.469-3.338c-0.541-0.016-0.529,0.792,0,0.833c12.621,0.946,25.363,2.736,37.572,6.162
	c11.031,3.095,20.414,10.055,31.245,13.289C409.796,392.798,410.473,391.126,409.45,390.512z"/>
<path d="M393.003,370.211c-10.381-4.565-20.727-6.188-31.899-7.507c-0.507-0.06-0.629,0.812-0.122,0.897
	c11.214,1.897,21.957,4.843,32.09,10.133c9.418,4.917,17.532,12.417,26.152,18.563c0.988,0.704,1.913-0.767,1.22-1.582
	C413.362,382.382,403.018,374.614,393.003,370.211z"/>
<path d="M451.06,392.816c-7.777-4.14-16.193-6.72-23.762-11.368c-7.942-4.877-14.437-10.893-20.57-17.846
	c-0.314-0.355-0.797,0.156-0.513,0.513c5.753,7.209,11.102,14.092,18.644,19.572c7.696,5.593,16.124,8.979,25.259,11.363
	C451.428,395.391,452.311,393.482,451.06,392.816z"/>
<path d="M274.599,339.369c0.739-1.438-1.395-2.707-2.18-1.274c-2.194,4.005-7.635,14.675-3.49,19.039
	c1.483,1.561,3.653,1.308,5.385,0.37c0.855-0.462,3.029-3.863,4.437-5.922c0.526,3.688,0.992,8.185,5.228,8.521
	c3.22,0.256,4.699-2.399,5.614-5.437c0.928,1.5,2.318,3.038,4.059,3.495c4.012,1.055,6.354-2.963,7.707-6.04
	c1.07-2.434,0.098-2.292,2.154-0.489c1.434,1.259,3.659,1.759,5.488,1.99c4.674,0.591,9.667-0.645,11.966-5.005
	c0.899-1.706-1.132-3.052-2.531-1.953c-2.304,1.811-5.006,2.961-7.957,2.983c-2.757,0.02-4.046-1.409-6.086-2.688
	c-1.445-0.906-2.368-1.851-4.13-0.777c-1.887,1.148-1.687,4.058-3.235,5.429c-4.908,4.349-4.316-3.87-5.601-6.279
	c-0.77-1.443-3.154-1.505-3.906,0c-0.499,0.998-2.554,8.981-3.111,8.938c-1.967-0.152-2.172-5.763-2.767-7.133
	c-0.258-0.595-1.037-0.943-1.646-0.944c-3.037-0.004-3.714,2.991-5.156,5.206c-0.829,1.273-2.088,3.429-3.411,1.295
	c-0.779-1.257-0.649-3.077-0.412-4.46C271.558,345.078,273.152,342.186,274.599,339.369z"/>
<path d="M146.643,280.078c7.012,1.896,12.174,0.222,18.021-3.851c0.657-0.458,0.274-1.739-0.59-1.399
	c-2.468,0.97-4.781,2.287-7.276,3.195c-3.324,1.21-6.284,1.322-9.784,0.708C146.144,278.579,145.759,279.839,146.643,280.078z"/>
<path d="M144.474,288.802c6.599-0.958,12.403-1.393,17.591-6.026c0.688-0.615-0.214-1.801-0.993-1.287
	c-2.564,1.695-5.145,3.385-8.037,4.477c-2.814,1.063-5.815,1.534-8.739,2.188C143.865,288.252,144.059,288.863,144.474,288.802z"/>
<path d="M229.306,282.073c3.822-9.284,4.482-17.398,0.943-26.848c-0.167-0.445-0.867-0.271-0.725,0.2
	c2.741,9.091,1.156,17.421-1.849,26.198C227.315,282.674,228.903,283.052,229.306,282.073z"/>
<path d="M251.974,298.435c-1.987,9.284-5.336,17.961-9.173,26.629c-0.334,0.755,0.644,1.756,1.265,0.976
	c5.962-7.483,7.563-18.146,9.1-27.277C253.296,297.993,252.143,297.647,251.974,298.435z"/>
<path d="M244.517,307.22c-4.833,13.353-12.205,23.792-21.859,34.055c-0.766,0.814,0.36,1.854,1.196,1.196
	c12.014-9.445,16.727-20.877,21.414-35.044C245.426,306.947,244.686,306.753,244.517,307.22z"/>
<g>
</g>
<g>
</g>
<g>
</g>
<g>
</g>
<g>
</g>
<g>
</g>
<g>
</g>
<g>
</g>
<g>
</g>
<g>
</g>
<g>
</g>
<g>
</g>
<g>
</g>
<g>
</g>
<g>
</g>
</svg>
