<svg height="512" viewBox="0 0 256 256" width="512" xmlns="http://www.w3.org/2000/svg"><path d="M36.245 180.546c-7.535 0-13.665-6.13-13.665-13.665V43.105c0-7.535 6.13-13.665 13.665-13.665h191.931c7.535 0 13.665 6.13 13.665 13.665v123.776c0 7.535-6.13 13.665-13.665 13.665z" fill="#63bce7"/><path d="M233.432 154.881c0 2.891-2.365 5.256-5.256 5.256H36.245c-2.891 0-5.256-2.365-5.256-5.256V43.105c0-2.891 2.365-5.256 5.256-5.256h191.931c2.891 0 5.256 2.365 5.256 5.256z" fill="#f46275"/><path d="M49.048 154.881V43.105c0-2.891 2.365-5.256 5.256-5.256H36.245c-2.891 0-5.256 2.365-5.256 5.256v111.777c0 2.891 2.365 5.256 5.256 5.256h18.059c-2.891-.001-5.256-2.366-5.256-5.257z" fill="#f43075"/><path d="M215.373 154.881V43.105c0-2.891-2.365-5.256-5.256-5.256h18.059c2.891 0 5.256 2.365 5.256 5.256v111.777c0 2.891-2.365 5.256-5.256 5.256h-18.059c2.891-.001 5.256-2.366 5.256-5.257z" fill="#f48875"/><path d="M100.962 180.546h62.496v19.017h-62.496z" fill="#f8af23"/><path d="M100.962 180.546h18.059v19.017h-18.059z" fill="#f87023"/><path d="M145.4 180.546h18.059v19.017H145.4z" fill="#f8d323"/><circle cx="132.211" cy="170.342" fill="#f8af23" r="4.5"/><path d="M182.898 215.014H81.523v-10.45a5 5 0 015-5h91.375a5 5 0 015 5z" fill="#9e9e9e"/><path d="M104.582 199.564H86.523a5 5 0 00-5 5v10.45h18.059v-10.45a5 5 0 015-5z" fill="#707070"/><path d="M159.839 199.564h18.059a5 5 0 015 5v10.45h-18.059v-10.45a5 5 0 00-5-5z" fill="#cecece"/><path d="M79.382 76.588v44.809a5 5 0 005 5h81.921l15.259 16.723c1.231 1.349 3.477.478 3.477-1.348V76.588a5 5 0 00-5-5H84.382a5 5 0 00-5 5z" fill="#f8af23"/><path d="M90.064 108.741v-5.799c0-.083.026-.164.075-.231l14.078-19.307a.392.392 0 01.316-.161h7.539a.39.39 0 01.391.391v18.524a.39.39 0 00.391.391h2.973a.39.39 0 01.391.391v5.8a.39.39 0 01-.391.391h-2.973a.39.39 0 00-.391.391v4.961a.39.39 0 01-.391.391h-6.86a.39.39 0 01-.391-.391v-4.961a.39.39 0 00-.391-.391H90.455a.39.39 0 01-.391-.39zm14.666-15.778l-6.527 8.965a.391.391 0 00.316.622h6.527a.39.39 0 00.391-.391v-8.965a.39.39 0 00-.707-.231zm14.934 5.964c0-4.86.987-8.71 2.96-11.553 1.973-2.842 5.125-4.263 9.454-4.263 4.3 0 7.445 1.422 9.433 4.263 1.988 2.843 2.982 6.693 2.982 11.553 0 4.889-.994 8.762-2.982 11.619-1.988 2.858-5.132 4.285-9.433 4.285-4.329 0-7.481-1.428-9.454-4.285-1.974-2.857-2.96-6.729-2.96-11.619zm17.318 0c0-2.798-.331-4.941-.994-6.428-.662-1.487-1.966-2.231-3.91-2.231-1.973 0-3.299.751-3.976 2.253-.678 1.502-1.016 3.638-1.016 6.406 0 2.798.338 4.955 1.016 6.472.677 1.517 2.003 2.275 3.976 2.275 1.944 0 3.248-.758 3.91-2.275.663-1.517.994-3.674.994-6.472zm11.221 9.814v-5.799c0-.083.026-.164.075-.231l14.078-19.307a.392.392 0 01.316-.161h7.539a.39.39 0 01.391.391v18.524a.39.39 0 00.391.391h2.973a.39.39 0 01.391.391v5.8a.39.39 0 01-.391.391h-2.973a.39.39 0 00-.391.391v4.961a.39.39 0 01-.391.391h-6.86a.39.39 0 01-.391-.391v-4.961a.39.39 0 00-.391-.391h-13.973a.39.39 0 01-.393-.39zm14.667-15.778l-6.527 8.965a.391.391 0 00.316.622h6.527a.39.39 0 00.391-.391v-8.965a.39.39 0 00-.707-.231z" fill="#f46275"/><circle cx="79.382" cy="71.588" fill="#63bce7" r="17.75"/><g fill="#3f3679"><path d="M27.7 225.06H9.528a1.5 1.5 0 100 3H27.7a1.5 1.5 0 100-3zm218.772 0H228.3a1.5 1.5 0 100 3h18.172a1.5 1.5 0 100-3zm-32.684 0H42.211a1.5 1.5 0 100 3h171.577a1.5 1.5 0 100-3zm23.381-10.046a1.5 1.5 0 001.5 1.5h7.803a1.5 1.5 0 100-3h-7.803a1.5 1.5 0 00-1.5 1.5zm-227.641 1.5H228.3a1.5 1.5 0 100-3h-43.901v-8.95c0-3.584-2.916-6.5-6.5-6.5H164.96v-16.018h63.217c8.362 0 15.165-6.803 15.165-15.165V43.105c0-8.362-6.803-15.165-15.165-15.165H36.245c-8.362 0-15.165 6.803-15.165 15.165v123.776c0 8.362 6.803 15.165 15.165 15.165h63.217v16.018H86.523a6.508 6.508 0 00-6.5 6.5v8.95H9.528a1.5 1.5 0 100 3zm14.553-49.633V43.105c0-6.708 5.457-12.165 12.165-12.165h191.931c6.708 0 12.165 5.457 12.165 12.165v123.776c0 6.708-5.457 12.165-12.165 12.165H36.245c-6.707 0-12.164-5.457-12.164-12.165zm78.381 15.165h59.497v16.018h-59.497zm-19.439 22.518c0-1.93 1.57-3.5 3.5-3.5h91.375c1.93 0 3.5 1.57 3.5 3.5v8.95H83.023z"/><path d="M234.932 154.881V43.105a6.763 6.763 0 00-6.756-6.756H36.245a6.763 6.763 0 00-6.755 6.756v111.776a6.763 6.763 0 006.755 6.756h191.931a6.764 6.764 0 006.756-6.756zm-202.442 0V43.105a3.76 3.76 0 013.755-3.756h191.931a3.76 3.76 0 013.756 3.756v111.776a3.76 3.76 0 01-3.756 3.756H36.245a3.76 3.76 0 01-3.755-3.756zm99.721 9.461c-3.309 0-6 2.691-6 6s2.692 6 6 6 6-2.691 6-6-2.691-6-6-6zm0 9c-1.654 0-3.001-1.346-3.001-3s1.347-3 3.001-3 3 1.346 3 3-1.346 3-3 3z"/><path d="M180.039 70.088H98.556c-.77-9.914-9.066-17.75-19.174-17.75-10.614 0-19.25 8.636-19.25 19.25 0 10.108 7.836 18.404 17.75 19.174v30.636c0 3.584 2.916 6.5 6.5 6.5h81.259l14.813 16.234a3.478 3.478 0 003.85.904 3.477 3.477 0 002.234-3.263V76.588a6.506 6.506 0 00-6.499-6.5zm-116.907 1.5c0-8.96 7.29-16.25 16.25-16.25s16.25 7.29 16.25 16.25-7.29 16.25-16.25 16.25-16.25-7.289-16.25-16.25zm120.407 70.185c0 .283-.174.41-.319.466a.469.469 0 01-.55-.129l-15.259-16.723a1.499 1.499 0 00-1.108-.489H84.382c-1.93 0-3.5-1.57-3.5-3.5V90.762c9.417-.732 16.942-8.257 17.674-17.674h81.483c1.93 0 3.5 1.57 3.5 3.5z"/><path d="M105.631 91.395a1.886 1.886 0 00-2.114.686l-6.527 8.966c-.42.578-.48 1.333-.155 1.971s.97 1.033 1.685 1.033h6.527a1.894 1.894 0 001.891-1.892v-8.965c0-.822-.525-1.545-1.307-1.799zm-1.693 9.655h-3.24l3.24-4.45z"/><path d="M115.827 101.05h-1.864V83.635a1.894 1.894 0 00-1.892-1.892h-7.539c-.604 0-1.176.292-1.528.777l-14.078 19.307a1.878 1.878 0 00-.364 1.115v5.799c0 1.043.849 1.892 1.892 1.892h12.865v3.852c0 1.043.848 1.891 1.891 1.891h6.86a1.894 1.894 0 001.892-1.891v-3.852h1.864a1.894 1.894 0 001.891-1.892v-5.8a1.891 1.891 0 00-1.89-1.891zm-1.109 6.582h-1.864a1.893 1.893 0 00-1.891 1.891v3.852h-4.643v-3.852a1.894 1.894 0 00-1.892-1.891H91.563v-4.329l13.534-18.56h5.866v17.415c0 1.043.848 1.892 1.891 1.892h1.864zm17.36-26.021c-4.83 0-8.425 1.651-10.686 4.908-2.142 3.085-3.228 7.26-3.228 12.409 0 5.177 1.085 9.374 3.226 12.471 2.26 3.273 5.856 4.933 10.688 4.933 4.801 0 8.389-1.658 10.664-4.928 2.157-3.1 3.251-7.297 3.251-12.476 0-5.15-1.095-9.327-3.253-12.413-2.276-3.254-5.864-4.904-10.662-4.904zm8.201 28.078c-1.705 2.451-4.388 3.642-8.201 3.642-3.841 0-6.53-1.19-8.22-3.638-1.788-2.587-2.694-6.209-2.694-10.766 0-4.525.906-8.125 2.692-10.698 1.691-2.435 4.38-3.619 8.222-3.619 3.814 0 6.498 1.185 8.203 3.623 1.8 2.572 2.712 6.17 2.712 10.693 0 4.555-.913 8.176-2.714 10.763z"/><path d="M132.078 88.768c-3.248 0-4.699 1.706-5.343 3.136-.773 1.713-1.149 4.011-1.149 7.023 0 3.04.375 5.357 1.146 7.083.644 1.443 2.094 3.164 5.346 3.164 3.222 0 4.651-1.727 5.285-3.175.753-1.725 1.119-4.039 1.119-7.072 0-3.038-.367-5.34-1.124-7.039-.634-1.423-2.065-3.12-5.28-3.12zm2.535 16.03c-.297.68-.83 1.376-2.535 1.376-1.762 0-2.318-.741-2.606-1.387-.588-1.315-.886-3.287-.886-5.86 0-2.542.297-4.49.884-5.79.287-.637.844-1.369 2.608-1.369 1.722 0 2.262.717 2.54 1.341.573 1.289.864 3.246.864 5.818 0 2.576-.292 4.551-.869 5.871zm39.353-3.748h-1.863V83.635a1.894 1.894 0 00-1.892-1.892h-7.538c-.604 0-1.177.292-1.528.777l-14.078 19.307a1.884 1.884 0 00-.363 1.115v5.799c0 1.043.849 1.892 1.892 1.892h12.864v3.852c0 1.043.849 1.891 1.892 1.891h6.86a1.894 1.894 0 001.892-1.891v-3.852h1.863a1.894 1.894 0 001.892-1.892v-5.8a1.896 1.896 0 00-1.893-1.891zm-1.109 6.582h-1.863a1.894 1.894 0 00-1.892 1.891v3.852h-4.644v-3.852a1.893 1.893 0 00-1.891-1.891h-12.865v-4.329l13.533-18.56h5.866v17.415c0 1.043.849 1.892 1.892 1.892h1.863v3.582z"/><path d="M163.771 91.395a1.887 1.887 0 00-2.114.686l-6.526 8.964a1.883 1.883 0 00-.156 1.972c.324.638.97 1.034 1.686 1.034h6.526a1.894 1.894 0 001.892-1.892v-8.965a1.889 1.889 0 00-1.308-1.799zm-1.693 9.655h-3.24l3.24-4.45z"/></g><path d="M81.674 64.027l-.381 8.858a1.772 1.772 0 01-1.771 1.696h-.282c-.949 0-1.73-.748-1.771-1.696l-.381-8.858a1.772 1.772 0 011.771-1.848h1.043c1.01 0 1.815.84 1.772 1.848zm-.022 14.406v.792c0 .979-.794 1.772-1.772 1.772h-.97a1.772 1.772 0 01-1.772-1.772v-.792c0-.979.794-1.772 1.772-1.772h.97c.978 0 1.772.794 1.772 1.772z" fill="#3f3679"/></svg>