<?xml version="1.0" encoding="utf-8"?>
<!-- Generator: Adobe Illustrator 24.0.2, SVG Export Plug-In . SVG Version: 6.00 Build 0)  -->
<svg version="1.1" id="Layer_1" xmlns="http://www.w3.org/2000/svg" xmlns:xlink="http://www.w3.org/1999/xlink" x="0px" y="0px"
	 viewBox="0 0 1080 1920" style="enable-background:new 0 0 1080 1920;" xml:space="preserve">
<style type="text/css">
	.st0{fill:#3DAAD1;}
	.st1{fill:#4CC0E0;}
	.st2{fill:#FFFFFF;}
	.st3{fill:#063154;}
	.st4{fill:#111111;}
	.st5{fill:#2097C6;}
	.st6{fill:#0A3438;}
	.st7{fill:#06343F;}
	.st8{fill:#2A292D;}
	.st9{fill:#414142;}
	.st10{opacity:0.82;}
	.st11{fill:#0D638E;}
</style>
<g>
	<g>
		<path class="st0" d="M359.05,1228.56c-10.99,68.35-8.63,125.13-4.2,169.43c-7.59,30.24-11.51,56.89-13.55,79.12
			c-9.07,98.24,11.32,184.96-16.27,195.29c-3.09,1.15-9.78,2.47-23.67-5.92c-65.85-39.78-70.56-163.04-73.97-287.02
			c-2.56-93.24,5.93-123.53,13.32-143.51c20.92-56.53,56.53-93.78,79.3-113.9l77.46-31.17
			C383.21,1126.14,368.03,1172.68,359.05,1228.56z"/>
	</g>
	<g>
		<path class="st1" d="M649.56,1452.04c0.33-2.03,0.64-4.01,0.95-5.99c9.1-58.73,16.78-108.27,14.79-174.58
			c-1.98-66.41-12.83-121.63-23.18-161.26c-0.67-2.53-1.32-5-1.97-7.4c-3.52-9.78-9.68-22.35-20.71-34.03
			c-33.69-35.61-83.6-31.81-91.73-31.07c-40.94,11.84-81.86,23.67-122.8,35.51c-2.43,5.53-4.93,11.42-7.46,17.66
			c-14.25,35.26-29.43,81.8-38.41,137.68c-10.99,68.35-8.63,125.13-4.2,169.43c1.32,13.2,2.81,25.27,4.2,36.22
			c6.36,50.38,16.63,180.45,45.86,257.43c-4.26,0.43-16.19,2.22-26.63,11.84c-7.03,6.48-10.34,13.69-11.84,17.75
			c32.55,0.49,65.1,0.99,97.64,1.48c0.49-28.6,0.99-57.21,1.48-85.81c3.89-41.54,26.78-69.73,44.38-69.53
			c18.78,0.21,43.85,32.87,41.42,81.37c-0.49,25.64-0.99,51.29-1.48,76.93h97.64c-0.81-3.21-4.28-15.27-16.27-23.67
			c-10.65-7.46-21.59-7.53-25.15-7.4c9.64-41.05,18.66-84.49,26.65-130.2C639.55,1525.58,645.08,1488.07,649.56,1452.04z"/>
	</g>
	<g>
		<path class="st0" d="M717.08,1667.96c-9.71,10.61-18.93,17.94-28.11,16.27c-33.41-6.06-39.7-126.32-39.41-232.19c0,0,0,0,0-0.01
			c0.33-2.03,0.64-4.01,0.95-5.99c4.84-30.9,16.15-103.82,14.79-174.58c-0.76-39.85-5.96-100.25-28.11-174.58
			c9.37,4.44,18.74,8.88,28.11,13.32c12.56,4.81,30.17,13.18,47.34,28.11c49.95,43.41,60.66,245.59,60.66,245.59
			C778.56,1561.18,754,1627.62,717.08,1667.96z"/>
	</g>
	<g>
		<path class="st0" d="M841.35,920.84c-7.31,6.79-27.59-8.67-88.77-41.42c-37.19-19.91-68.26-34.84-88.77-44.38l-54.8-10.45
			l-38.41-7.31c8.58,3.61,16.82,7.01,24.71,10.19c28.41,11.52,52.15,20.37,69.98,26.79c25.65,9.23,38.73,13.29,53.26,25.15
			c14.4,11.75,23.95,26.07,30.4,39.77c4.29,9.11-5.62,18.42-14.51,13.68c-13.51-7.16-25.36-13.15-35.12-17.95
			c-34.72-17.06-55.7-27.13-74-30.51c-8.08-1.48-15.64-1.66-23.64-0.56c-5.83,0.8-10.4,2.04-14,3.43c-4.59,1.78-7.56,3.79-9.53,5.43
			c-0.01,0-0.01,0.01-0.03,0.01c-0.64,0.55-1.15,1.04-1.6,1.48c-17.47,17.27-9.73,48.54-8.88,51.78c1.27,4.78,3.02,9.2,5.12,13.3
			c10.81,21.22,30.99,33.89,43.7,42.92c0,0,6.05,4.29,16.1,13.49c5.7,5.22,12.69,12.03,20.61,20.53
			c5.04,5.41,10.46,11.54,16.16,18.37c4.38,5.25,8.94,10.95,13.6,17.07c10.92,14.32,22.49,31.05,34.15,50.36
			c35.76,59.21,63.99,159.23,23.67,193.81c-5.98,5.12-30.39,23.33-93.21,2.96c0.33,36.53-8.18,62.83-20.71,65.1
			c-11.87,2.15-25.51-17.61-31.07-29.59c-6.32-13.6-12.72-39.8,0-53.26c11.76-12.46,27.73-1.15,54.74-11.84
			c2.44-0.96,28.76-11.75,41.42-35.51c20.86-39.13-7.03-86.9-13.32-97.64c-15.52-26.54-35.57-40.6-56.22-54.74
			c-30.79-21.08-65.57-44.92-110.96-44.38c-44.28,0.52-74.54,23.94-125.75,63.62c-13.11,10.15-43.98,35.31-69.53,76.93
			c-12.86,20.93-27.19,44.81-17.75,62.14c8.2,15.05,31.26,19.16,39.95,20.71c27.98,4.99,37.42-7.32,51.78,0
			c26.07,13.3,32.83,66.64,17.75,76.93c-7.9,5.39-21.47-1.24-34.03-7.4c-20.14-9.85-32.33-24.16-38.47-32.55
			c-40.6,17.89-79.83,15.96-97.64-4.44c-17.4-19.93-9.35-51.74-2.96-76.93c3-11.85,14.96-54.95,73.97-122.8
			c12.86-14.79,23.98-27.58,34.31-38.88c5.98-6.55,11.7-12.61,17.32-18.26c6.58-6.58,13.03-12.65,19.68-18.32
			c7.2-6.17,14.62-11.88,22.64-17.35c5.37-3.67,11.01-7.23,17.01-10.76c25.24-14.77,45.6-21.97,57.7-45.86
			c11.41-22.53,13.34-55.69-2.96-75.45c-7.6-9.22-12.13-6.97-23.67-16.27c-28.35-22.83-33.42-62.68-35.51-79.89
			c-5.1-42.15,8.94-58.1-5.92-88.77c-1.86-3.86-6.7-13.66-16.27-23.67c-5.09-5.33-13.24-12.55-45.86-28.11
			c-9.07-4.33-21.63-10.06-36.99-16.27c22.41-10.1,41.85-16.57,56.22-20.71c6.39-1.85,12.28-3.54,17.8-5.03
			c14.96-4.02,27.15-6.55,38.89-6.55c6.75,0,13.34,0.84,20.24,2.71c3.02,0.81,5.89,1.78,8.61,2.83c4.57,1.79,8.7,3.86,12.4,6.01
			h0.01c5.99,3.49,10.8,7.23,14.48,10.4c23.57,0.81,64.19,5.44,108,28.11c25.67,13.29,65.6,33.94,88.77,76.93
			c11.63,21.56,10.56,19.97,19.37,32.28c2.74,3.82,6.41,8.97,11.7,16.54c7.86,11.24,21.04,29.74,44.38,44.38
			c22,13.8,31.28,10.53,46.63,19.04c0.04,0.03,0.09,0.06,0.13,0.07c0.83,0.44,1.66,0.95,2.52,1.48c0.81,0.49,1.64,1.02,2.5,1.6
			C835.08,867,851,911.89,841.35,920.84z"/>
	</g>
	<g>
		<path class="st1" d="M403.78,1370.93c-10.3,0-22.45-5.96-33.54-11.39c-16.81-8.23-31.38-20.05-43.37-35.19
			c-10.49,7.3-38.35,23.31-67.48,11.67c-10.24-4.09-19.42-11.26-26.54-20.75c-1.72-2.29-1.26-5.53,1.03-7.25
			c2.29-1.72,5.53-1.26,7.25,1.03c5.99,7.97,13.63,13.97,22.1,17.35c30.48,12.17,61.01-12.99,61.32-13.25
			c1.1-0.92,2.52-1.34,3.95-1.17c1.42,0.17,2.71,0.93,3.56,2.08c11.55,15.78,25.93,27.95,42.73,36.18
			c12.3,6.02,27.6,13.52,34.29,8.96c4.96-3.39,7.62-14.22,6.76-27.58c-1.24-19.48-10.16-44.31-26.8-52.8
			c-7.11-3.63-13.5-2.36-22.34-0.61c-9.23,1.83-20.71,4.1-36.37,1.08c-17.37-3.35-33.79-11.84-48.82-25.25
			c-2.13-1.9-2.32-5.18-0.42-7.31c1.91-2.14,5.18-2.32,7.31-0.42c13.61,12.15,28.38,19.82,43.88,22.81
			c13.67,2.63,23.62,0.67,32.4-1.07c9.64-1.91,18.75-3.71,29.06,1.55c20.36,10.39,30.96,38.31,32.43,61.37
			c1.13,17.72-2.97,31.13-11.26,36.79C411.62,1370,407.84,1370.93,403.78,1370.93z"/>
	</g>
	<g>
		<path class="st1" d="M626.84,1404.23c-17.79,0-34.61-25.81-41.32-40.26c-8.27-17.79-17.37-53.08,0.93-72.45
			c9.19-9.73,19.86-9.8,32.22-9.88c10.72-0.07,22.88-0.15,38.2-6.21c3.47-1.37,34.34-14.17,49.22-42.1
			c1.35-2.52,4.48-3.48,7.01-2.13s3.48,4.48,2.13,7.01c-16.63,31.2-50.72,45.35-54.56,46.86c-17.12,6.77-30.88,6.86-41.94,6.93
			c-11.21,0.07-18.61,0.12-24.76,6.63c-13.48,14.26-6.83,44.28,0.93,60.97c7.21,15.54,22.75,36.02,33.3,34.15
			c10.83-1.96,22.11-29.39,21.69-76.39c-0.02-2.08,1.21-3.97,3.12-4.8s4.13-0.43,5.63,1c4.15,3.96,19.4,16.8,41.14,15.61
			c30.29-1.62,45.41-28.71,46.03-29.86c1.37-2.51,4.52-3.44,7.03-2.06c2.51,1.37,3.43,4.52,2.06,7.03
			c-0.74,1.36-18.58,33.31-54.57,35.24c-17.57,0.91-31.5-5.73-40.19-11.58c-1.25,43.45-12.7,72.86-30.1,76.01
			C628.98,1404.14,627.91,1404.23,626.84,1404.23z"/>
	</g>
	<g>
		<g>
			<path class="st2" d="M618.69,744.04c-0.44,1.1-8.02,19.38-22.19,19.23c-12.02-0.13-19.18-13.42-20.71-16.27
				c-5.44-10.11-9.87-30.27,2.96-39.95c10.16-7.66,26.41-5.18,35.51,4.44C626.27,724.18,619.34,742.43,618.69,744.04z"/>
			<path class="st3" d="M596.67,764.02c-0.06,0-0.12,0-0.18,0c-8.03-0.09-15.62-6-21.36-16.66c-5.7-10.59-9.88-31.05,3.17-40.89
				c10.19-7.68,26.89-5.61,36.49,4.52c12.22,12.91,5.41,31.28,4.59,33.33l0,0C619.06,745.12,611.35,764.02,596.67,764.02z
				 M593.13,703.28c-5.09,0-10.03,1.42-13.94,4.37c-12.31,9.28-8.22,28.85-2.75,39c5.47,10.17,12.6,15.81,20.07,15.89
				c0.05,0,0.11,0,0.16,0c13.68,0,21.03-18,21.33-18.77c0.78-1.96,7.3-19.52-4.29-31.77C608.32,706.3,600.56,703.28,593.13,703.28z"
				/>
		</g>
		<g>
			<path class="st4" d="M612.04,741.82c-0.9,10.23-8.75,22.14-18.86,22.19c-11.29,0.06-19.86-14.69-18.86-26.26
				c0.18-2.11,1.09-8.78,6.66-13.68c5.53-4.87,14.75-7.2,22.19-2.96C613.08,726.76,612.22,739.77,612.04,741.82z"/>
		</g>
		<g>
			<circle class="st2" cx="605.38" cy="733.68" r="9.62"/>
		</g>
	</g>
	<g>
		<g>
			<path class="st2" d="M680.99,744.73c0.4,1.01,7.34,17.73,20.3,17.6c11-0.12,17.55-12.28,18.95-14.89
				c4.98-9.25,9.03-27.69-2.71-36.55c-9.3-7.01-24.16-4.74-32.49,4.06C674.06,726.57,680.4,743.26,680.99,744.73z"/>
			<path class="st3" d="M701.13,763.07c-13.47,0-20.54-17.32-20.83-18.06l0,0c-0.75-1.88-7-18.72,4.21-30.56
				c8.8-9.29,24.12-11.19,33.47-4.14c11.97,9.02,8.14,27.78,2.91,37.49c-5.26,9.78-12.22,15.2-19.6,15.28
				C701.24,763.07,701.19,763.07,701.13,763.07z M681.67,744.46c0.28,0.71,7.01,17.3,19.61,17.13c6.81-0.07,13.32-5.22,18.31-14.5
				c4.99-9.27,8.73-27.14-2.5-35.61c-8.77-6.62-23.2-4.8-31.51,3.98C675.01,726.64,680.96,742.67,681.67,744.46L681.67,744.46z"/>
		</g>
		<g>
			<path class="st4" d="M716.99,740.7c-0.82,10.06-8.04,21.78-17.34,21.83c-10.38,0.06-18.26-14.45-17.34-25.83
				c0.17-2.08,1-8.64,6.12-13.46c5.08-4.79,13.56-7.08,20.4-2.91C717.95,725.89,717.15,738.68,716.99,740.7z"/>
		</g>
		<g>
			<circle class="st2" cx="711.9" cy="732.21" r="9.62"/>
		</g>
	</g>
	<g>
		<path class="st5" d="M841.35,920.84c-7.31,6.79-27.59-8.67-88.77-41.42c-37.19-19.91-68.26-34.84-88.77-44.38l-93.21-17.75
			c39.49,16.61,71.9,28.79,94.69,36.99c25.65,9.23,38.73,13.29,53.26,25.15c9.14,7.47,16.35,15.98,22.01,24.69
			c3,4.6,5.59,9.27,7.81,13.88c4.57,9.47-5.74,19.23-15.03,14.31c-13.05-6.92-24.53-12.71-34.03-17.37
			c-34.72-17.06-55.7-27.13-74-30.51c-3.82-2.81-8.21-5.95-13.29-9.44c-26.25-18.01-31.75-18.21-42.9-28.11
			c-19.87-17.64-34.69-45.64-28.11-53.26c6.07-7.03,22.99,11.7,51.78,11.84c47.03,0.22,67.73-49.44,102.22-43.17
			c2.74,3.82,6.41,8.97,11.7,16.54c7.86,11.24,21.04,29.74,44.38,44.38c22,13.8,31.28,10.53,46.63,19.04
			c0.04,0.03,0.09,0.06,0.13,0.07c0.84,0.5,1.69,0.99,2.52,1.48c0.81,0.49,1.64,1.02,2.5,1.6C835.08,867,851,911.89,841.35,920.84z"
			/>
	</g>
	<g>
		<path class="st6" d="M691.93,830.59c4.58-4.02,8.43-4.46,10.36-4.44c6.81,0.06,11.68,5.97,17.75,13.32
			c4.08,4.94,6.93,9.63,8.88,13.32c-6.27-4.41-13.17-8.89-20.71-13.32C702.61,836.19,697.17,833.24,691.93,830.59z"/>
	</g>
	<g>
		<path class="st7" d="M615,658.97c-0.98-4.66-22.35-9.04-32.55,1.48c-5.38,5.56-7.5,15.11-4.44,17.75
			c2.84,2.45,9.75-1.36,20.71-7.4C609.93,664.63,615.54,661.54,615,658.97z"/>
	</g>
	<g>
		<path class="st7" d="M678.64,659.42c0.83-4.56,18.95-8.84,27.6,1.45c4.56,5.43,6.36,14.77,3.76,17.35
			c-2.41,2.4-8.27-1.33-17.56-7.23C682.94,664.95,678.18,661.94,678.64,659.42z"/>
	</g>
	<g>
		<path class="st8" d="M639.45,780.51l-4.53-9.31c12.21-5.94,25.26-9.59,38.77-10.85c13.03-1.22,26.08-0.18,38.77,3.1l-2.59,10.03
			c-11.52-2.98-23.37-3.93-35.21-2.82C662.39,771.8,650.54,775.12,639.45,780.51z"/>
	</g>
	<g>
		<g>
			<path class="st8" d="M744.89,771.04c0,13.89-11.26,25.15-25.15,25.15c-0.22,0-0.43-0.03-0.65-0.03
				c-1.98-2.68-3.73-5.16-5.27-7.37c-2.17-3.11-4.05-5.8-5.71-8.15c-1.72-2.41-3.18-4.47-4.45-6.26c-0.55-0.75-1.05-1.46-1.54-2.13
				c-2.91-4.05-4.73-6.6-6.3-8.97c3.27-10.09,12.74-17.4,23.92-17.4c7.13,0,13.58,2.97,18.15,7.75c2.1,2.17,3.8,4.73,5,7.56
				C744.18,764.24,744.89,767.55,744.89,771.04z"/>
		</g>
		<g>
			<path class="st9" d="M742.89,761.2l-34.78,19.44c-1.72-2.41-3.18-4.47-4.45-6.26l34.23-20.74
				C739.99,755.82,741.7,758.38,742.89,761.2z"/>
		</g>
	</g>
	<g>
		<g>
			<g>
				<path class="st7" d="M572.17,813.99c-1.87-0.85-3.75-1.81-5.64-2.89c-7.71-4.41-14.59-10.33-20.17-17.34
					c-1.32-1.66-2.56-3.37-3.73-5.15c-1.12-1.72-3.42-2.19-5.12-1.07c-1.72,1.12-2.19,3.42-1.07,5.12c0.16,0.25,0.33,0.5,0.5,0.74
					c6.67,9.93,15.62,18.24,25.91,24.12c11.63,6.64,23.05,9.22,32.46,9.94c-7.89-3.18-16.13-6.58-24.71-10.19l8.5,1.62
					C576.74,817.32,574.43,815.66,572.17,813.99z"/>
			</g>
		</g>
		<g>
			<g>
				<path class="st7" d="M543.67,793.85c-1.74,0-3.49-0.09-5.23-0.26c-11.43-1.14-20.14-5.81-25.43-9.53
					c-1.67-1.17-2.07-3.48-0.9-5.15c1.18-1.67,3.48-2.07,5.15-0.9c4.57,3.21,12.07,7.24,21.91,8.22c5.5,0.55,11.02,0.09,16.42-1.37
					c1.97-0.53,4,0.63,4.53,2.61c0.53,1.97-0.63,4-2.61,4.54C552.96,793.23,548.32,793.85,543.67,793.85z"/>
			</g>
		</g>
	</g>
	<g>
		<g>
			<path class="st8" d="M644.58,774.37c0,17.98-14.57,32.55-32.55,32.55c-9.51,0-18.05-4.07-24-10.56
				c-1.36-1.48-2.57-3.08-3.64-4.79c-1.14-1.8-2.09-3.74-2.86-5.77c-1.33-3.55-2.06-7.4-2.06-11.42c0-0.99,0.04-1.97,0.13-2.93
				c1.48-16.6,15.43-29.62,32.41-29.62c6.49,0,12.53,1.89,17.61,5.16c4.76,3.06,8.67,7.34,11.29,12.4c1.23,2.35,2.17,4.88,2.8,7.55
				c0.43,1.79,0.7,3.64,0.8,5.53C644.57,773.1,644.58,773.73,644.58,774.37z"/>
		</g>
		<g>
			<path class="st9" d="M640.93,759.38l-59.39,26.41c-1.33-3.55-2.06-7.4-2.06-11.42c0-0.99,0.04-1.97,0.13-2.93l50.02-24.46
				C634.41,750.05,638.31,754.32,640.93,759.38z"/>
		</g>
		<g>
			<path class="st9" d="M644.53,772.46l-56.49,23.89c-1.36-1.48-2.57-3.08-3.64-4.79l59.33-24.63
				C644.16,768.72,644.42,770.57,644.53,772.46z"/>
		</g>
	</g>
	<g class="st10">
		<path class="st11" d="M740.57,904.1c-6.58-1.02-15.18-2.68-24.97-5.46c-26.38-7.49-44.44-18.26-60.66-28.11
			c-31.16-18.95-59.18-36.75-84.33-53.26c39.49,16.61,71.9,28.79,94.69,36.99c25.65,9.23,38.73,13.29,53.26,25.15
			C727.7,886.88,734.91,895.39,740.57,904.1z"/>
	</g>
	<g>
		<path class="st5" d="M576.53,894.21c-17.47,17.27-9.73,48.54-8.88,51.78c1.27,4.78,3.02,9.2,5.12,13.3
			c-6.95-0.43-16.73-2.31-25.83-8.86c-16.97-12.21-24.57-35.57-19.23-59.18c4.9,2.52,18.32,8.55,35.51,5.92
			c5.8-0.89,10.8-2.57,14.91-4.44C577.49,893.27,576.97,893.76,576.53,894.21z"/>
	</g>
	<g>
		<path class="st5" d="M423.14,603l-72.97,32.3l34.07-25.74C399.2,605.53,411.39,603,423.14,603z"/>
	</g>
	<g>
		<path class="st5" d="M478.88,610.15"/>
	</g>
	<g>
		<path class="st5" d="M464.39,614.54l-68.35,20.76l55.95-26.76C456.56,610.33,460.69,612.4,464.39,614.54z"/>
	</g>
	<g>
		<path class="st5" d="M430.06,1037.71h-50.01c7.2-6.17,14.62-11.88,22.64-17.35L430.06,1037.71z"/>
	</g>
	<g>
		<path class="st5" d="M397.51,1059.91l-54.46,14.38c5.98-6.55,11.7-12.61,17.32-18.26L397.51,1059.91z"/>
	</g>
	<g>
		<path class="st5" d="M653.18,1036.23H600.2l32.37-20.53C638.27,1020.92,645.27,1027.73,653.18,1036.23z"/>
	</g>
	<g>
		<path class="st5" d="M682.93,1071.68l-50.18-13.26l36.59-3.82C673.72,1059.86,678.27,1065.56,682.93,1071.68z"/>
	</g>
</g>
</svg>
