<?xml version="1.0" encoding="utf-8"?>
<!-- Generator: Adobe Illustrator 24.0.2, SVG Export Plug-In . SVG Version: 6.00 Build 0)  -->
<svg version="1.1" id="Layer_1" xmlns="http://www.w3.org/2000/svg" xmlns:xlink="http://www.w3.org/1999/xlink" x="0px" y="0px"
	 viewBox="100 500 880 1200" style="enable-background:new 0 0 1080 1920;" xml:space="preserve">
<style type="text/css">
	.trex2-style0{fill:#ffabab;}
	.trex2-style1{fill:#CECECE;}
	.trex2-style2{fill:#8E3203;}
	.trex2-style3{fill:#FFFEF3;}
	.trex2-style4{fill:#9B531E;}
	.trex2-style5{opacity:0.41;fill:#9B531E;}
	.trex2-style6{fill:#593206;}
	.trex2-style7{fill:#FFFFFF;stroke:#9B531E;stroke-miterlimit:10;}
	.trex2-style8{fill:#FFFFFF;}
	.trex2-style9{opacity:0.38;fill:#FFF5E6;}
	.trex2-style10{fill:#F7F7F7;}
	.trex2-style11{fill:#E6E7E8;}
	.trex2-style12{fill:#5497B2;}
	.trex2-style13{fill:#FFF9EE;}
	.trex2-style14{fill:#B2AFAA;}
	.trex2-style15{opacity:0.36;fill:#F0F6F7;}
	.trex2-style16{fill:#262626;}
	.trex2-style17{fill:#37383A;}
	.trex2-style18{fill:#A8A8A8;}
	.trex2-style19{fill:#3599BC;}
	.trex2-style20{fill:#D6D6D6;}
    
</style>
<g>
	<path class="trex2-style0" d="M320.25,1044.91c2.52-1.95,5.94-3.99,10.27-5.13c15.52-4.09,28.98,7.01,30.8,8.56l-10.27,44.5L320.25,1044.91z
		"/>
	<path class="trex2-style1" d="M448.91,1481.39l185.58,29.23c-1.49,18.18-2.99,36.36-4.48,54.54c-26.89-1.13-54.86-1.75-83.86-1.71
		c-28.24,0.04-55.51,0.69-81.74,1.83C459.24,1537.33,454.08,1509.36,448.91,1481.39z"/>
	<g>
		<path class="trex2-style2" d="M706.53,543.9c3.7,20.34-2.64,45.42-12.63,46.99c-9.5,1.49-21.86-18.38-25.48-35.88
			c-4.35-21.07,2.23-47.1,12.37-48.68C690.42,504.83,703.17,525.41,706.53,543.9z"/>
		<path class="trex2-style2" d="M729.34,574.84c-1.83,20.59-14.61,43.09-24.65,41.95c-9.56-1.09-16.2-23.53-15.04-41.36
			c1.4-21.47,14.66-44.82,24.85-43.65C724.18,532.9,731.01,556.12,729.34,574.84z"/>
		<path class="trex2-style2" d="M740.19,620.26c-8.08,19.03-27.15,36.51-36.36,32.33c-8.76-3.98-8.18-27.37-1.59-43.98
			c7.93-20,27.73-38.14,37.07-33.88C748.18,578.76,747.53,602.96,740.19,620.26z"/>
		<path class="trex2-style2" d="M740.74,669.11c-10.76,17.65-32.18,32.16-40.68,26.69c-8.09-5.21-4.1-28.27,4.84-43.74
			c10.76-18.63,32.99-33.69,41.61-28.12C754.69,629.22,750.52,653.07,740.74,669.11z"/>
		<path class="trex2-style2" d="M900.64,1496.47c-15.17,3.29-34.16-0.83-35.59-8.29c-1.36-7.1,13.24-16.88,26.29-20.04
			c15.7-3.8,35.41,0.48,36.85,8.05C929.56,1483.39,914.44,1493.48,900.64,1496.47z"/>
		<path class="trex2-style2" d="M866.8,1471.19c-13.23,4.65-30.75,2.99-32.89-3.62c-2.04-6.29,9.93-16.78,21.27-21.08
			c13.65-5.17,31.83-3.45,34,3.27C891.23,1456.13,878.83,1466.96,866.8,1471.19z"/>
		<path class="trex2-style2" d="M839.06,1449.66c-14.65,5.15-34,3.41-36.34-3.82c-2.23-6.87,11.05-18.39,23.6-23.14
			c15.11-5.72,35.2-3.91,37.57,3.42C866.14,1433.09,852.38,1444.98,839.06,1449.66z"/>
		<path class="trex2-style2" d="M811.08,1416.59c-15.5-0.91-32.68-9.98-32.06-17.55c0.6-7.2,17.29-12.7,30.71-12.24
			c16.15,0.56,33.98,9.98,33.34,17.66C842.46,1411.76,825.17,1417.42,811.08,1416.59z"/>
		<path class="trex2-style2" d="M792.26,1384.08c-15.5-0.91-32.68-9.98-32.06-17.55c0.6-7.2,17.29-12.7,30.71-12.24
			c16.15,0.56,33.98,9.98,33.34,17.66C823.63,1379.24,806.35,1384.9,792.26,1384.08z"/>
		<path class="trex2-style2" d="M734.44,713.81c-12.69,16.32-35.61,28.31-43.44,21.91c-7.45-6.09-0.88-28.55,9.76-42.91
			c12.8-17.29,36.59-29.74,44.53-23.24C752.82,675.76,745.98,698.98,734.44,713.81z"/>
		<path class="trex2-style2" d="M708.79,765.54c-16.44,12.53-41.67,18.26-47.6,10.07c-5.64-7.79,6.45-27.82,20.41-38.99
			c16.8-13.44,42.98-19.39,48.99-11.07C736.29,733.44,723.74,754.15,708.79,765.54z"/>
	</g>
	<path class="trex2-style0" d="M773.77,1392.32c-10.7,52.73-25.57,54.54-47.92,128.35c-17.49,57.74-24.1,108.48-26.66,145.55
		c-0.46,6.73-6.02,11.96-12.78,12.05l-96.16,1.27c-11.95,0.15-17.73-14.51-8.93-22.59c1.75-1.59,3.7-3.11,5.92-4.5
		c14.84-9.31,29.91-5.78,32.52-5.13c-15.92-33.95-31.83-67.89-47.73-101.83c-2.19-4.69-6.95-7.62-12.1-7.48l-43.59,1.15
		c-7.15,0.19-12.82,6.14-12.65,13.3l2.79,114.08c0.17,7.29-5.68,13.3-12.99,13.3h-83.43c-7.68,0-14.39-5.73-15.04-13.4
		c-0.36-4.4,1.64-6.66,3.97-8.85c15.61-14.67,35.39-13.93,39.36-13.69c-23.26-34.19-53.89-83.26-83.86-145.47
		c-35.68-74.07-53.51-111.1-59.9-160.87c-12.13-94.57,21.14-173.38,46.21-232.75c18.6-44.05,32.62-77.27,51.39-108.18
		c3.59-5.94,7.38-11.79,11.4-17.63c0.07-0.1,0.14-0.19,0.21-0.29l0.02-0.02c0.99-1.45,2-2.91,3.05-4.35
		c3.18-4.48,6.54-8.95,10.08-13.45c0.84-1.1,1.71-2.17,2.58-3.27c0.05-0.07,0.14-0.17,0.24-0.29c3.06-3.82,26.56-33.58,47.68-76.72
		c2.48-5.07,4.72-9.91,6.73-14.65c0.31-0.7,0.6-1.42,0.89-2.12c6.61-0.17,13.71,1.15,21.22,3.97c2.64,1.01,5.61-0.34,6.61-2.99
		c0.99-2.65-0.34-5.61-2.99-6.61c-7.27-2.72-14.31-4.26-21-4.59c4.42-13.09,6.54-25.74,5.66-39.76
		c-0.87-14.26-4.59-26.13-8.23-34.79c-1.1-2.6-3.01-4.76-5.44-6.16c-0.02,0-0.02-0.02-0.03-0.02c-0.27-0.17-0.55-0.33-0.84-0.46
		c-11.84-5.73-23.7-11.47-35.55-17.2c-9.1-4.42-16.6-11.59-21.36-20.52c-5.32-9.96-9.65-17.8-12.41-26.95
		c-3.7-12.3-8.59-31.52-11.89-57.47c-0.33-2.64-0.65-5.36-0.94-8.13l1.52-2.38l33.47-52.08c5.39-8.37,14.67-13.43,24.61-13.43h76.45
		c0.77-1.93,1.71-4.11,2.86-6.49c4.06-8.4,10.59-19.2,21.1-29.45c24.4-23.82,53.52-27.86,63.32-29.09c2.82-0.36,6.37-0.8,10.41-1.06
		c8.16-0.55,18.38-0.36,28.96,2.77c60.62,17.94,81.22,116.85,77.01,162.58c-1.32,14.29-4.38,27.01-4.38,27.01
		c-7.68,28.89-22.49,43.4-33.27,101.35c-2.21,11.91-4.84,26.41-6.4,43.2c-7.38-1.35-16.05-2.05-26.08-2.12c-0.02,0-0.02,0-0.03,0
		c-2.82,0-5.12,2.28-5.13,5.1c-0.02,2.84,2.26,5.15,5.1,5.17c9.94,0.05,18.41,0.79,25.36,2.16c-0.74,12.46-0.8,26.03,0.34,40.63
		c0.45,5.63,1.03,10.94,1.73,15.97c0.65,4.62,1.42,9.04,2.28,13.28c7.39,36.44,22.16,61.23,38.78,112.8
		c3.94,12.24,14.38,52.83,29.09,135.2C774.69,1283.82,784.57,1339.08,773.77,1392.32z"/>
	<path class="trex2-style3" d="M541.02,661.56l10.83-28.89c1.2-3.19,5.67-3.31,7.03-0.19l12.72,29.08H541.02z"/>
	<g>
		<g>
			<path class="trex2-style4" d="M645.02,632.08l-34.23,34.23c-0.8,0.8-1.9,1.25-3.03,1.25h-0.21l-107.82-5.13c-0.7-0.03-1.39-0.24-2-0.62
				l-66.09-39.65c-9.46,6.43-19.08,12.84-28.63,19.05c-4.71,3.05-9.46,6.09-14.22,9.1c-0.33-2.64-0.65-5.36-0.94-8.13l1.52-2.38
				c3.01-1.92,6.01-3.85,8.98-5.78c10.25-6.66,20.59-13.54,30.72-20.47c1.37-0.96,3.18-1.01,4.62-0.14l67.53,40.51l104.84,5
				l30.24-30.24l2.65-2.65c1.68-1.66,4.38-1.66,6.06,0C646.68,627.69,646.68,630.4,645.02,632.08z"/>
		</g>
		<g>
			<path class="trex2-style4" d="M657.4,636.75c-0.18,0-0.36-0.01-0.54-0.03c-4.6-0.58-9.05-1.85-13.23-3.78
				c-5.78-2.67-10.87-6.48-15.12-11.34c-1.56-1.78-1.38-4.48,0.4-6.04c1.78-1.56,4.48-1.37,6.04,0.4c3.45,3.94,7.58,7.04,12.26,9.2
				c3.39,1.56,6.99,2.59,10.72,3.06c2.34,0.3,4,2.44,3.71,4.78C661.36,635.17,659.52,636.75,657.4,636.75z"/>
		</g>
	</g>
	<path class="trex2-style0" d="M730.15,1248.66c17.37,18.97,42.38,49.65,64.15,92.33c17.37,34.04,19.03,48.96,32.52,70.17
		c16.43,25.85,48.72,58.35,119.32,79.2c-12.4,6.49-31.62,14.31-55.45,14.84c-10.9,0.24-36.43-0.75-98.83-37.73
		c-22.44-13.3-51.77-32.51-83.96-59.14L730.15,1248.66z"/>
	<path class="trex2-style5" d="M621.59,508.19c-13.76,4.26-31.78,12.82-46.34,30.15c-11.09,13.19-16.28,26.83-18.83,35.94h-32.52
		c0.96-2.16,1.92-4.33,2.86-6.49c4.06-8.4,10.59-19.2,21.1-29.45c24.4-23.82,53.52-27.86,63.32-29.09
		C614.01,508.89,617.55,508.44,621.59,508.19z"/>
	<g>
		
			<ellipse transform="matrix(0.1189 -0.9929 0.9929 0.1189 -179.2071 982.558)" class="trex2-style6" cx="464.01" cy="592.25" rx="9.41" ry="5.13"/>
		
			<ellipse transform="matrix(0.9941 -0.1083 0.1083 0.9941 -61.4178 50.2041)" class="trex2-style6" cx="431.49" cy="590.54" rx="5.13" ry="9.41"/>
	</g>
	<g>
		
			<ellipse transform="matrix(0.1871 -0.9823 0.9823 0.1871 -29.4386 1052.5398)" class="trex2-style7" cx="621.27" cy="544.06" rx="31.52" ry="25.89"/>
		<ellipse transform="matrix(0.0999 -0.995 0.995 0.0999 13.5705 1111.3668)" cx="621.03" cy="548.18" rx="23.53" ry="19.25"/>
		<circle class="trex2-style8" cx="634.29" cy="535.78" r="7.7"/>
	</g>
	<g>
		
			<ellipse transform="matrix(0.1119 -0.9937 0.9937 0.1119 -76.3412 1004.7278)" class="trex2-style7" cx="523.96" cy="545.08" rx="27.07" ry="22.24"/>
		<ellipse transform="matrix(0.0264 -0.9997 0.9997 0.0264 -38.2636 1057.9596)" cx="524.03" cy="548.62" rx="20.21" ry="16.54"/>
		<circle class="trex2-style8" cx="534.57" cy="537.13" r="6.61"/>
	</g>
	<path class="trex2-style9" d="M385.28,1065.45c18.36-61.69,41.77-136.76,99.26-154.02c4.91-1.47,31.7-9.52,54.76,3.42
		c37.76,21.18,39.61,84.05,39.36,123.22c-0.28,42.96-2.88,447.63-99.26,455.23c-47.83,3.77-89.99-92.51-102.68-121.51
		C327.54,1259.45,358.05,1156.96,385.28,1065.45z"/>
	<g>
		<path class="trex2-style10" d="M681.01,1351.27c12.7-1.28,25.32-3.83,37.56-7.55c-0.58-4.7-1.25-9.48-2.03-14.37l-83.39,6.45
			c-0.64,4.78-1.17,9.5-1.61,14.18C647.95,1352.47,664.57,1352.92,681.01,1351.27z"/>
		<path class="trex2-style10" d="M681.7,1358.08c-6.78,0.68-13.6,1.03-20.42,1.03c-10.13,0-20.25-0.79-30.3-2.3
			c-4.58,62.06,8.5,113.42,33.56,126.46c2.21,1.15,13.81,6.55,25.66,0.04c21.37-11.74,36.86-60.21,29.17-132.67
			C707.07,1354.29,694.42,1356.79,681.7,1358.08z"/>
		<path class="trex2-style10" d="M773.77,1284.51c-7.19-97.93-27.02-181.41-29.09-189.96c-7.96-32.91-18.06-67.98-30.67-120.62
			c-0.46-1.95-3.53-14.08-7.56-29.98c-0.31-1.2-0.38-2.28-0.26-3.27l-73.74,64.52l47.83,8.97c1.08,0.21,1.99,0.91,2.46,1.9
			c0.46,0.99,0.43,2.16-0.1,3.11l-99.93,182.42c-2.04,24.01-3.95,48.23-5.75,72.65c-7.48,101.47-12.46,199.67-15.4,294.36
			c67.31-12.54,134.63-25.11,201.94-37.65C779.19,1429.19,778.18,1344.78,773.77,1284.51z M693.49,1489.3
			c-5.43,2.98-10.81,3.99-15.58,3.99c-8.31,0-14.79-3.04-16.53-3.95c-31.18-16.23-45.42-80.88-34.63-157.22
			c0.23-1.59,1.52-2.81,3.13-2.93l89.28-6.91c1.78-0.13,3.35,1.1,3.64,2.85c1.11,6.66,2.03,13.23,2.79,19.7
			c0.03,0.08,0.08,0.16,0.1,0.24c0.17,0.52,0.19,1.05,0.11,1.55C733.75,1416.88,721.27,1474.04,693.49,1489.3z"/>
		<path class="trex2-style10" d="M624.24,1010.63c-1.28-0.26-2.33-1.2-2.67-2.46c-0.34-1.27,0.07-2.62,1.04-3.49l93.72-81.99l-37.45-64.4
			c-23.14,27.98-46.28,55.96-69.41,83.94c-9.57,78.23-18.11,159.11-25.33,242.52l90.22-164.72L624.24,1010.63z"/>
		<path class="trex2-style10" d="M410.95,998.7c0,0.86-0.33,1.68-0.89,2.29l-38.44,42.31l3.06,102.61c1.18-6.25,2.43-12.54,3.75-18.86
			c19.83-94.98,53.63-174.15,83.65-235.61l-51.14,55.53V998.7z"/>
		<path class="trex2-style10" d="M321.79,1348.44c-12.92-4.42-26.08-8.59-39.14-12.44c-4.74,47.87-5.49,91.59-4.23,129.93
			c0.19,0,0.36,0,0.55-0.02C295.4,1464.9,310.72,1422.51,321.79,1348.44z"/>
		<path class="trex2-style10" d="M365.64,1039.73l38.47-42.34v-45.71c-33.65,59.73-72,142.34-97.55,245.55
			c-9.62,38.8-16.31,76.07-20.81,111.36l43.83,10.23c1.71,0.39,2.84,2.02,2.62,3.77c-12.13,98.23-29.91,148.75-52.81,150.17
			c-0.22,0.02-0.46,0.02-0.68,0.02c0.82,20.52,2.22,39.41,3.9,56.46c31.95,5.7,63.89,11.41,95.84,17.11
			c-17.17-83.77-33.22-213.12-9.58-366.41l-4.11-137.8C364.73,1041.25,365.04,1040.39,365.64,1039.73z"/>
		<path class="trex2-style10" d="M322.78,1341.55c0.77-5.43,1.52-11.02,2.24-16.75l-40.11-9.36c-0.56,4.59-1.08,9.14-1.56,13.66
			c0.07,0.02,0.14,0.03,0.21,0.05C296.65,1332.95,309.81,1337.13,322.78,1341.55z"/>
		<path class="trex2-style11" d="M467.02,877.22c-1.06,0.25-1.77,0.8-2.1,1.09l-59.9,65.03c-0.58,0.62-0.91,1.45-0.91,2.31v6.02v45.71
			l-38.47,42.34c-0.6,0.67-0.91,1.52-0.89,2.41l4.11,137.8c1.71-11.21,3.66-22.56,5.84-34.02l-3.06-102.61l38.44-42.31
			c0.56-0.62,0.89-1.44,0.89-2.29v-51.72l51.14-55.53c1.8-3.68,3.58-7.29,5.34-10.83c0.21-0.49,0.43-0.98,0.64-1.46
			c0.36-0.65,0.72-1.31,1.07-1.96C468.72,877.11,467.95,877,467.02,877.22z"/>
		<path class="trex2-style11" d="M332.2,1322.58c0.22-1.75-0.91-3.37-2.62-3.77l-43.83-10.23c-0.29,2.29-0.58,4.57-0.84,6.85l40.11,9.36
			c-0.72,5.73-1.47,11.33-2.24,16.75c-12.97-4.42-26.13-8.59-39.22-12.41c-0.07-0.02-0.14-0.03-0.21-0.05
			c-0.24,2.31-0.48,4.62-0.7,6.91c13.06,3.85,26.22,8.03,39.14,12.44c-11.07,74.07-26.39,116.46-42.82,117.47
			c-0.19,0.02-0.36,0.02-0.55,0.02c0.09,2.31,0.17,4.59,0.27,6.85c0.22,0,0.46,0,0.68-0.02
			C302.28,1471.34,320.06,1420.82,332.2,1322.58z"/>
		<path class="trex2-style11" d="M725.69,1345.07c-0.03-0.08-0.07-0.16-0.1-0.24c-0.76-6.47-1.68-13.04-2.79-19.7
			c-0.29-1.75-1.86-2.97-3.64-2.85l-89.28,6.91c-1.6,0.12-2.9,1.34-3.13,2.93c-10.79,76.34,3.45,140.99,34.63,157.22
			c1.75,0.91,8.22,3.95,16.53,3.95c4.77,0,10.15-1,15.58-3.99c27.78-15.27,40.26-72.43,32.31-142.68
			C725.87,1346.12,725.85,1345.59,725.69,1345.07z M716.54,1329.35c0.78,4.89,1.45,9.67,2.03,14.37
			c-12.24,3.72-24.86,6.27-37.56,7.55c-16.44,1.66-33.06,1.21-49.46-1.28c0.44-4.68,0.97-9.41,1.61-14.18L716.54,1329.35z
			 M690.2,1483.3c-11.85,6.51-23.45,1.11-25.66-0.04c-25.06-13.04-38.14-64.4-33.56-126.46c10.05,1.5,20.17,2.3,30.3,2.3
			c6.82,0,13.64-0.34,20.42-1.03c12.73-1.28,25.38-3.79,37.67-7.45C727.05,1423.09,711.56,1471.56,690.2,1483.3z"/>
		<path class="trex2-style11" d="M682.74,1016.06c-0.48-0.99-1.39-1.69-2.46-1.9l-47.83-8.97l73.74-64.52l16.79-14.68
			c1.23-1.08,1.52-2.89,0.7-4.31l-39.63-68.17c-0.24,0.02-0.56-0.06-0.98-0.27c-1.39,1.68-2.79,3.37-4.18,5.05l37.45,64.4
			l-93.72,81.99c-0.98,0.87-1.39,2.22-1.04,3.49c0.34,1.27,1.39,2.21,2.67,2.46l50.13,9.4l-90.22,164.72
			c-0.5,5.6-0.98,11.21-1.44,16.84l99.93-182.42C683.17,1018.21,683.2,1017.05,682.74,1016.06z"/>
	</g>
	<path class="trex2-style0" d="M655.57,1119.72l-8.13,61.29c-3.08,3.3-8.06,9.74-8.82,18.66c-0.18,2.06-1.1,12.84,4.15,14.93
		c3.89,1.55,8.8-2.61,9.58-3.28c-0.19,3.75-0.14,9.13,1.06,15.43c1.46,7.69,3.82,20.07,12.83,25.66c0,0,7.25,4.5,17.71,2.33
		c27.36-5.66,35.77-115.18,37.15-134.53L655.57,1119.72z"/>
	<g>
		<path class="trex2-style10" d="M665.58,1082.44c1.65,15.55-19.92,26.82-34.11,38.52l-11.73,62.57l102.68,23.96l10.27-102.68L665.58,1082.44
			z"/>
		<g>
			<path class="trex2-style11" d="M724.68,1150.58l-5.27,52.69l-95.7-22.33l8.85-47.22c0.33-1.75-0.76-3.45-2.48-3.9
				c-0.02-0.01-0.04-0.01-0.07-0.02c-1.9-0.5-3.82,0.72-4.18,2.65l-9.46,50.45c-0.34,1.8,0.8,3.55,2.59,3.96l102.68,23.96
				c0.26,0.06,0.52,0.09,0.78,0.09c0.71,0,1.41-0.22,1.99-0.64c0.8-0.57,1.32-1.46,1.41-2.44l5.66-56.57
				c0.18-1.78-1.06-3.4-2.82-3.69c-0.02,0-0.05-0.01-0.07-0.01C726.67,1147.25,724.87,1148.63,724.68,1150.58z"/>
		</g>
	</g>
	<g>
		<path class="trex2-style12" d="M138.22,1027.52l121.85-68.71c9.58-5.4,21.74-1.93,27.01,7.73l91.11,166.79c4.46,8.16,2.61,18.33-4.44,24.41
			l-97.39,83.93c-9.12,7.86-23.09,5.79-29.54-4.37l-115.57-182.01C125.19,1045.75,128.37,1033.07,138.22,1027.52z"/>
		<polygon class="trex2-style13" points="150.82,1041.49 267.2,973.03 364.75,1142.46 268.91,1224.61 		"/>
		<path class="trex2-style14" d="M191.9,1000.42c-7.69-2.16-13.28-7.76-13.69-13.69c-0.66-9.59,12.32-19.08,22.25-15.4
			c6.07,2.25,10.28,9.15,10.27,17.11c12.55,2.28,25.1,4.56,37.65,6.85c-21.68,11.41-43.35,22.82-65.03,34.23
			C186.19,1019.81,189.05,1010.11,191.9,1000.42z"/>
	</g>
	<path class="trex2-style0" d="M330.52,1041.49c-7.14-1.18-16.35,15.85-13.69,18.83c0.71,0.79,3.9-0.03,10.27-1.71
		c8.55-2.25,9.34-3.22,9.72-3.86C339.13,1050.73,335.16,1042.25,330.52,1041.49z"/>
	<g>
		<g>
			<path class="trex2-style15" d="M527.33,569.15c0,1.75-0.12,3.46-0.36,5.13h-74.58c-0.24-1.68-0.36-3.39-0.36-5.13
				c0-1.2,0.05-2.4,0.17-3.56c1.8-19.12,17.88-34.09,37.48-34.09c10.66,0,20.3,4.43,27.14,11.55c2.86,2.96,5.22,6.38,6.97,10.17
				C526.06,558.04,527.33,563.45,527.33,569.15z"/>
			<polygon class="trex2-style15" points="527.33,552.03 460.58,574.28 449.17,574.28 446.89,567.44 452.2,565.59 516.82,543.05 
				520.48,541.77 			"/>
		</g>
		<g>
			<circle class="trex2-style15" cx="611.19" cy="570.86" r="44.5"/>
			<polygon class="trex2-style15" points="566.69,587.97 652.92,555.41 647.31,544.06 563.27,577.7 			"/>
			<polygon class="trex2-style15" points="573.54,599.95 657.39,565.72 657.39,572.57 575.91,606.16 			"/>
		</g>
		<g>
			<g>
				<path class="trex2-style16" d="M452.03,569.84c0-20.5,16.68-37.18,37.18-37.18s37.18,16.68,37.18,37.18c0,1.43-0.09,2.83-0.25,4.22
					c0.33,0.4,1.27,1.46,2.9,1.93c1.82,0.53,3.32,0,3.78-0.19c0.27-1.95,0.41-3.94,0.41-5.96c0-24.28-19.75-44.03-44.03-44.03
					c-24.28,0-44.03,19.75-44.03,44.03c0,1.5,0.08,2.98,0.22,4.44c2.3,0,4.6,0,6.9,0C452.13,572.83,452.03,571.35,452.03,569.84z"/>
			</g>
			<g>
				<path class="trex2-style16" d="M610,619.96c-27.07,0-49.1-22.03-49.1-49.1s22.03-49.1,49.1-49.1c27.07,0,49.1,22.03,49.1,49.1
					S637.08,619.96,610,619.96z M610,528.6c-23.3,0-42.26,18.96-42.26,42.26s18.96,42.26,42.26,42.26
					c23.3,0,42.26-18.96,42.26-42.26S633.3,528.6,610,528.6z"/>
			</g>
			<g>
				<path class="trex2-style16" d="M530.71,576.27c0.68-0.18,1.38-0.32,2.07-0.47c-0.9-0.25-1.7-0.68-2.47-1.09L530.71,576.27z"/>
				<path class="trex2-style16" d="M544.37,567.44c-5.17,0.16-10.34,0.9-15.37,2.2l1.31,5.07c0.77,0.41,1.57,0.84,2.47,1.09
					c3.88-0.86,7.84-1.39,11.8-1.51c5.99-0.19,12,0.48,17.84,1.98l1.7-6.63C557.65,567.97,551,567.23,544.37,567.44z"/>
			</g>
		</g>
	</g>
	<g>
		<g>
			<path class="trex2-style0" d="M502.87,864.82c-0.99,2.65-3.97,4-6.61,2.99c-7.51-2.82-14.62-4.14-21.22-3.97
				c0.29-0.72,0.58-1.45,0.87-2.17c1.08-2.7,2.05-5.39,2.96-8.04c6.69,0.33,13.73,1.87,21,4.59
				C502.53,859.21,503.87,862.17,502.87,864.82z"/>
			<path class="trex2-style17" d="M478.88,853.63c-0.91,2.65-1.88,5.34-2.96,8.04c-0.29,0.72-0.58,1.45-0.87,2.17
				c-3.39,0.09-6.64,0.56-9.75,1.44c-20.16,5.66-35.65,27.04-43.23,56.51c-3.06,11.88-4.84,25.09-5.13,39.11
				c-0.09,5.1,0,10.32,0.31,15.62c0.05,0.92,0.1,1.85,0.17,2.77c0.02,0.29,0.02,0.58,0,0.87c0,0.07-0.02,0.12-0.02,0.19
				c-0.02,0.1-0.02,0.19-0.05,0.29c-0.44,2.22-2.31,3.95-4.69,4.12c-0.12,0.02-0.24,0.02-0.36,0.02c-2.67,0-4.93-2.07-5.12-4.77
				c-0.07-0.98-0.14-1.95-0.19-2.91c-0.05-0.92-0.1-1.85-0.14-2.76c-0.87-19.75,1.08-38.4,5.36-54.87
				c8.63-33.15,26.7-57.45,50.31-64.09C467.72,853.94,473.18,853.34,478.88,853.63z"/>
		</g>
		<g>
			<path class="trex2-style18" d="M395.02,1106.88c-1.23,0-2.4-0.21-3.53-0.63c-8.03-2.99-14.85-14.73-4.54-79.13
				c0.37-2.33,2.57-3.92,4.9-3.55c2.33,0.37,3.92,2.57,3.55,4.9c-10.3,64.31-1.92,69.39-0.93,69.76c0.79,0.29,2.64-0.1,5.48-2.07
				c1.94-1.35,4.61-0.86,5.95,1.08c1.35,1.94,0.86,4.61-1.08,5.95C401.29,1105.65,398.01,1106.88,395.02,1106.88z"/>
		</g>
		<g>
			<path class="trex2-style18" d="M444.35,1101.68c-2.69,0-5.7-0.92-9-2.75c-2.07-1.14-2.81-3.75-1.67-5.82c1.14-2.06,3.75-2.82,5.82-1.67
				c3.03,1.68,4.91,1.89,5.66,1.52c0.95-0.47,8.78-6.36-7.88-69.32c-0.6-2.28,0.76-4.63,3.04-5.23c2.28-0.61,4.63,0.76,5.23,3.04
				c16.69,63.06,11.07,75.42,3.38,79.19C447.53,1101.33,446,1101.68,444.35,1101.68z"/>
		</g>
		<g>
			<path class="trex2-style19" d="M400.9,1097.97l1.17,3.11c1.11,2.96,4.48,4.37,7.36,3.09l4.54-2.02c2.97-1.32,4.14-4.91,2.53-7.73
				l-1.52-2.66c-1.33-2.34-4.17-3.36-6.69-2.41l-4.19,1.57C401.27,1091.97,399.84,1095.13,400.9,1097.97z"/>
		</g>
		<g>
			<path class="trex2-style19" d="M439.6,1095.17l-0.68,1.81c-1.24,3.32-5.03,4.9-8.26,3.46l-3.21-1.43c-3.33-1.48-4.65-5.51-2.84-8.68
				l0.87-1.52c1.5-2.62,4.68-3.77,7.51-2.71l3.02,1.13C439.18,1088.44,440.79,1091.99,439.6,1095.17z"/>
		</g>
		<g>
			<path class="trex2-style0" d="M683.51,845.09c-0.31,3.34-0.58,6.78-0.79,10.3c-6.95-1.37-15.42-2.11-25.36-2.16
				c-2.84-0.02-5.12-2.33-5.1-5.17c0.02-2.82,2.31-5.1,5.13-5.1c0.02,0,0.02,0,0.03,0C667.46,843.04,676.13,843.74,683.51,845.09z"
				/>
			<path class="trex2-style17" d="M687.07,925.27c-14.99,16.86-36.04,36.4-63.32,58.91c-2.69,2.22-5.44,4.48-8.27,6.76
				c-4.76,3.85-9.69,7.79-14.8,11.81c-0.94,0.74-2.07,1.1-3.18,1.1c-1.52,0-3.03-0.67-4.04-1.97c-1.75-2.22-1.37-5.44,0.86-7.2
				c4.76-3.75,9.31-7.38,13.67-10.9c2.98-2.41,5.85-4.76,8.64-7.07c33.42-27.59,54.8-48.65,68.16-64.71
				c21.15-25.4,22.23-38.27,19.29-44.62c-2.64-5.66-9.89-9.69-21.36-11.98c0.21-3.53,0.48-6.97,0.79-10.3
				c15.81,2.93,25.67,8.88,29.88,17.97C720.05,877.4,711.59,897.75,687.07,925.27z"/>
		</g>
		<circle class="trex2-style19" cx="600.06" cy="999.56" r="28.24"/>
		<circle class="trex2-style20" cx="599.21" cy="998.7" r="18.83"/>
		<g>
			<path class="trex2-style19" d="M410.59,986.5c-0.24,0-0.47-0.01-0.71-0.04c-3.76-0.39-6.49-3.75-6.1-7.51c0.7-6.77,1.4-13.54,2.08-20.3
				c1.16-11.43,2.3-22.83,3.42-34.21c0.37-3.76,3.73-6.51,7.48-6.14c3.76,0.37,6.51,3.72,6.14,7.48
				c-1.12,11.39-2.26,22.81-3.43,34.25c-0.69,6.77-1.38,13.54-2.09,20.33C417.03,983.88,414.05,986.5,410.59,986.5z"/>
		</g>
		<g>
			<path class="trex2-style19" d="M392.14,1029.51c-0.24,0-0.49-0.01-0.74-0.04c-3.76-0.4-6.48-3.77-6.08-7.53c0.9-8.47,3.09-16.7,6.49-24.45
				c4.38-9.99,8.52-19.42,18.2-21.26c11.13-2.11,20,8.22,24.27,13.18c6.74,7.84,11.08,17.84,12.55,28.92
				c0.5,3.75-2.14,7.19-5.88,7.69c-3.76,0.49-7.19-2.14-7.69-5.88c-0.78-5.89-3.04-14.44-9.36-21.8c-1.98-2.3-7.99-9.27-11.34-8.66
				c-2.59,0.49-5.57,7.3-8.21,13.3c-2.84,6.46-4.66,13.33-5.41,20.4C398.56,1026.9,395.59,1029.51,392.14,1029.51z"/>
		</g>
	</g>
	<path class="trex2-style5" d="M631.72,760.82c-8.47,14.41-28.99,48.11-54.76,66.74c-39.16,28.31-79.97,33.34-101.04,34.11
		c6.38-16.07,9.67-30.94,8.63-47.8c-0.87-14.26-4.59-26.13-8.23-34.79c-1.1-2.6-3.01-4.76-5.44-6.16l85.55,13.57L631.72,760.82z"/>
</g>
</svg>
