<?xml version="1.0" encoding="utf-8"?>
<!-- Generator: Adobe Illustrator 24.0.2, SVG Export Plug-In . SVG Version: 6.00 Build 0)  -->
<svg version="1.1" id="Layer_1" xmlns="http://www.w3.org/2000/svg" xmlns:xlink="http://www.w3.org/1999/xlink" x="0px" y="0px"
	 viewBox="0 0 200 200" style="enable-background:new 0 0 200 200;" xml:space="preserve">
<style type="text/css">
	.st0{fill:#FFFFFF;}
</style>
<g>
	<g>
		<path class="st0" d="M178.75,112.11l-5.47-3.76c-0.82-0.56-1.25-1.51-1.18-2.5c0.14-1.83,0.21-3.67,0.21-5.54
			c0-2.35-0.13-4.68-0.35-6.98c-0.1-1.08,0.42-2.13,1.36-2.67l3.72-2.15c11.86-6.85,15.95-22.14,9.11-34l-2.74-4.74
			c-6.85-11.86-22.14-15.95-34-9.11l-3.04,1.76c-0.97,0.56-2.16,0.47-3.05-0.21c-4.46-3.37-9.31-6.23-14.48-8.51
			c-1.01-0.44-1.67-1.42-1.67-2.52v-0.3C127.16,17.2,115.96,6,102.28,6h-1.69h-1.04h-1.69C84.16,6,72.96,17.2,72.96,30.89v0.3
			c0,1.1-0.66,2.08-1.67,2.52c-5.17,2.28-10.02,5.14-14.48,8.51c-0.89,0.67-2.09,0.76-3.05,0.21l-3.04-1.76
			c-11.86-6.85-27.15-2.75-34,9.11l-2.74,4.74c-6.85,11.86-2.75,27.15,9.11,34l3.72,2.15c0.94,0.54,1.46,1.59,1.36,2.67
			c-0.22,2.3-0.35,4.63-0.35,6.98c0,1.87,0.07,3.71,0.21,5.54c0.08,0.99-0.36,1.94-1.18,2.5l-5.47,3.76
			c-11.28,7.75-14.18,23.33-6.43,34.6l3.1,4.51c7.75,11.28,23.33,14.18,34.6,6.43c1-0.69,2.32-0.63,3.28,0.12
			c4.96,3.86,10.45,7.08,16.32,9.57c0.43,0.18,0.71,0.6,0.71,1.06v0c0,13.69,11.2,24.89,24.89,24.89h1.69h1.04h1.69
			c13.69,0,24.89-11.2,24.89-24.89v0c0-0.47,0.28-0.88,0.71-1.06c5.87-2.49,11.36-5.71,16.32-9.57c0.96-0.75,2.28-0.81,3.28-0.12
			c11.28,7.75,26.86,4.85,34.6-6.43l3.1-4.51C192.92,135.44,190.02,119.86,178.75,112.11z M100.06,133.75
			c-19.21,0-34.77-15.57-34.77-34.77c0-19.21,15.57-34.77,34.77-34.77s34.77,15.57,34.77,34.77
			C134.84,118.18,119.27,133.75,100.06,133.75z"/>
	</g>
</g>
</svg>
