<?xml version="1.0" encoding="utf-8"?>
<!-- Generator: Adobe Illustrator 25.0.0, SVG Export Plug-In . SVG Version: 6.00 Build 0)  -->
<svg version="1.1" xmlns="http://www.w3.org/2000/svg" xmlns:xlink="http://www.w3.org/1999/xlink" x="0px" y="0px"
	 viewBox="170 300 745 1250" style="enable-background:new 0 0 1080 1920;" xml:space="preserve">
<style type="text/css">
	.dino-style0{fill:none;}
	.dino-style1{fill:url(#SVGID_1_);}
	.dino-style2{fill:#FFFFFF;}
	.dino-style3{fill:url(#SVGID_2_);}
	.dino-style4{fill:url(#SVGID_3_);}
	.dino-style5{fill:url(#SVGID_4_);}
	.dino-style6{fill:url(#SVGID_5_);}
	.dino-style7{fill:url(#SVGID_6_);}
	.dino-style8{fill:url(#SVGID_7_);}
	.dino-style9{fill:url(#SVGID_8_);}
	.dino-style10{fill:url(#SVGID_9_);}
	.dino-style11{fill:url(#SVGID_10_);}
	.dino-style12{fill:url(#SVGID_11_);}
	.dino-style13{fill:url(#SVGID_12_);}
	.dino-style14{fill:url(#SVGID_13_);}
	.dino-style15{fill:url(#SVGID_14_);}
	.dino-style16{fill:url(#SVGID_15_);}
	.dino-style17{fill:url(#SVGID_16_);}
	.dino-style18{fill:url(#SVGID_17_);}
	.dino-style19{fill:url(#SVGID_18_);}
	.dino-style20{fill:url(#SVGID_19_);}
	.dino-style21{fill:url(#SVGID_20_);}
	.dino-style22{fill:url(#SVGID_21_);}
	.dino-style23{fill:url(#SVGID_22_);}
	.dino-style24{fill:url(#SVGID_23_);}
	.dino-style25{fill:url(#SVGID_24_);}
	.dino-style26{fill:url(#SVGID_25_);}
	.dino-style27{fill:url(#SVGID_26_);}
	.dino-style28{fill:url(#SVGID_27_);}
	.dino-style29{fill:url(#SVGID_28_);}
	.dino-style30{fill:url(#SVGID_29_);}
	.dino-style31{fill:url(#SVGID_30_);}
	.dino-style32{fill:url(#SVGID_31_);}
	.dino-style33{fill:url(#SVGID_32_);}
	.dino-style34{fill:url(#SVGID_33_);}
	.dino-style35{fill:url(#SVGID_34_);}
	.dino-style36{fill:url(#SVGID_35_);}
	.dino-style37{fill:url(#SVGID_36_);}
	.dino-style38{fill:url(#SVGID_37_);}
	.dino-style39{fill:url(#SVGID_38_);}
	.dino-style40{fill:url(#SVGID_39_);}
	.dino-style41{fill:url(#SVGID_40_);}
	.dino-style42{fill:url(#SVGID_41_);}
	.dino-style43{fill:url(#SVGID_42_);}
	.dino-style44{fill:url(#SVGID_43_);}
	.dino-style45{fill:url(#SVGID_44_);}
	.dino-style46{fill:url(#SVGID_45_);}
	.dino-style47{fill:url(#SVGID_46_);}
	.dino-style48{fill:url(#SVGID_47_);}
	.dino-style49{fill:url(#SVGID_48_);}
	.dino-style50{fill:url(#SVGID_49_);}
	.dino-style51{fill:url(#SVGID_50_);}
	.dino-style52{fill:url(#SVGID_51_);}
	.dino-style53{fill:url(#SVGID_52_);}
	.dino-style54{fill:url(#SVGID_53_);}
	.dino-style55{fill:url(#SVGID_54_);}
	.dino-style56{fill:url(#SVGID_55_);}
	.dino-style57{fill:url(#SVGID_56_);}
	.dino-style58{fill:url(#SVGID_57_);}
	.dino-style59{fill:url(#SVGID_58_);}
	.dino-style60{fill:url(#SVGID_59_);}
	.dino-style61{fill:url(#SVGID_60_);}
	.dino-style62{fill:url(#SVGID_61_);}
	.dino-style63{fill:url(#SVGID_62_);}
	.dino-style64{fill:url(#SVGID_63_);}
	.dino-style65{fill:url(#SVGID_64_);}
	.dino-style66{fill:url(#SVGID_65_);}
	.dino-style67{fill:url(#SVGID_66_);}
	.dino-style68{fill:url(#SVGID_67_);}
	.dino-style69{fill:url(#SVGID_68_);}
	.dino-style70{fill:url(#SVGID_69_);}
	.dino-style71{fill:url(#SVGID_70_);}
	.dino-style72{fill:url(#SVGID_71_);}
	.dino-style73{fill:url(#SVGID_72_);}
	.dino-style74{fill:url(#SVGID_73_);}
	.dino-style75{fill:url(#SVGID_74_);}
	.dino-style76{fill:url(#SVGID_75_);}
	.dino-style77{fill:url(#SVGID_76_);}
	.dino-style78{fill:url(#SVGID_77_);}
	.dino-style79{fill:url(#SVGID_78_);}
	.dino-style80{fill:url(#SVGID_79_);}
	.dino-style81{fill:url(#SVGID_80_);}
	.dino-style82{fill:url(#SVGID_81_);}
	.dino-style83{fill:url(#SVGID_82_);}
	.dino-style84{fill:url(#SVGID_83_);}
	.dino-main-color{fill:var(--dino-main-color);}
	.dino-dark-color{fill:var(--dino-dark-color);}
	.dino-back-color{fill:var(--dino-back-color);}
	.dino-style88{fill:#FFFFFF;stroke: var(--dino-details-color);stroke-width:2;stroke-miterlimit:10;}
	.dino-style89{clip-path:url(#SVGID_85_);}
	.dino-style90{clip-path:url(#SVGID_85_);fill:#FFFFFF;}
	.dino-style91{clip-path:url(#SVGID_87_);}
	.dino-style92{clip-path:url(#SVGID_87_);fill:#FFFFFF;}
	.dino-style93{fill: var(--dino-face-details-color);}
	.dino-style94{opacity: 0.35; fill:var(--dino-belly-color);}
	.dino-style95{opacity:0.4;}
	.dino-style96{fill:#A3B5C9;}
	.dino-style97{clip-path:url(#SVGID_89_);}
	.dino-style98{clip-path:url(#SVGID_89_);fill:#FFFFFF;}
	.dino-style99{clip-path:url(#SVGID_91_);}
	.dino-style100{clip-path:url(#SVGID_91_);fill:#FFFFFF;}
	.dino-style101{fill: var(--dino-details-color);}
	.dino-style102{fill:#F0F6F7;}
	.dino-style103{opacity:0.2;}
	.dino-style104{fill:#D3D3D3;}
	.dino-style105{fill:#A54830;}
	.dino-style106{opacity:0.13;fill:#491913;}
	.dino-style107{fill:#B55848;}
	.dino-style108{fill:#FFC0DA;}
	.dino-style109{fill:#FFCCE3;}
	.dino-style110{fill:#F7B0D0;}
	.dino-style111{fill:#F7D02D;}
	.dino-style112{fill:#F7D548;}
	.dino-style113{fill:#FF6F48;}
	.dino-style114{opacity:0.24;fill:url(#SVGID_92_);}
	.dino-style115{opacity:0.38;fill:#AD5225;}
	.dino-style116{fill:#4848D3;}
	.dino-style117{clip-path:url(#SVGID_94_);fill:#F4E49F;}
	.dino-style118{opacity:0.64;fill:#1D1D96;}
	.dino-style119{fill:url(#SVGID_95_);}
	.dino-style120{fill:#082847;}
	.dino-style121{opacity:0.31;fill:url(#SVGID_96_);}
	.dino-style122{fill:#F74D6B;}
	.dino-style123{fill:#AFAFAF;}
	.dino-style124{fill:#E0FF5C;}
	.dino-style125{opacity:0.19;}
	.dino-style126{fill:#2F3133;}
	.dino-style127{fill:#5B6E84;}
	.dino-style128{fill:#D82A36;}
	.dino-style129{opacity:0.19;fill:#2F3133;}
	.dino-style130{fill:#FCFAED;}
	.dino-style131{opacity:0.47;fill:#AFAFAF;}
	.dino-style132{fill:#DBDBDB;}
</style>
<g id="Layer_1">
	<g>
		<path class="dino-main-color" d="M726.53,1384.97c15.42-13.5,39.09-13.79,52.92-6c26.13,14.73,36.15,69.07,14.85,132
			c10.74,2.16,16.61,9.24,15.78,14c-0.77,4.47-7.4,6.69-8.36,7c-29.09,0-58.18,0-87.26,0c-12.75-48.61-9.35-85.83-5.57-107
			C712.89,1402.58,718.41,1392.08,726.53,1384.97z"/>
		<path class="dino-dark-color" d="M732.75,989.29c36.36,23.14,67.72,34.02,89.4,39.68c34.07,8.89,64,10.05,80,34c2.03,3.04,11.93,18.56,6,27
			c-4.8,6.83-18.77,8-33.82,1.12c2.39,4.35,2.41,9.31,0,12.87c-2.77,4.07-7.59,4.62-8.19,4.68c-8.44,0.82-15.82-8.51-17.55-10.53
			c-7.26-8.51-28.1-20.9-88.93-37.44"/>
		<g>
			<path class="dino-back-color" d="M704.65,475.47c32.81-20.55,65.62-41.09,98.43-61.64c2.71-10.54-4.47-22.6-15.02-25.25
				c-10.56-2.65-22.57,4.58-25.17,15.15c-13.27-10.69-30.67-13.92-44.73-7.76c-19.44,8.51-30.3,34-21.5,58.5
				c-18.33-5.54-37.4,3.1-44.5,18.5c-8.27,17.94,1.22,41.79,22.5,49.5c-16.97-3.49-34.32,2.47-44.5,15.5
				c-12.93,16.54-11.21,40.49,0.98,54.68c6.7,7.79,15.13,10.98,19.76,12.32c-18.23,4.73-33.31,20.85-36.03,39.6
				c-3.05,21.03,9.76,43.32,29.46,51.28c-21.08,3.93-37.74,19.41-42.18,39.12c-3.68,16.36,1.38,34.21,13,46
				c6.31,6.4,13.18,9.63,17.55,11.26c-24.42,8.42-41.28,30.24-42.55,54.74c-1.62,31.31,23.06,50.44,25.13,51.99
				c-3.13-0.05-21.87-0.02-36.13,15.01c-0.79,0.83-17,18.51-12.25,42.63c2.36,11.99,8.81,20.03,12.15,23.65
				c-17.17-3.73-37.47,6.08-46.78,21.95c-10.23,17.43-9.95,38.95-5,58.8c-4.05-0.42-24.35-2.1-40.11,11.97
				c-16.59,14.8-21.36,40.98-10.86,64.45c-27.51,7.34-46.8,29.74-48.14,54.55c-1.3,24.13,14.91,40.91,18,44
				c-19.44,0.11-36.86,11.64-44,29c-8.01,19.49-1.56,42.71,16,56c-20.41-2.25-40.23,8.07-50,26c-9.97,18.3-7.59,41.05,6,57
				c-3.41-1.49-27.34-11.47-53,1c-26.73,12.99-33.23,39.61-34,43c-2.84-1.66-27.75-15.62-56-4c-26.37,10.85-34.84,35.44-36,39
				c11.1-1.77,28.64-4.72,50-9c113.48-22.74,225.05-45.1,239.5-102.5c2.34-9.3,3.52-25.04-8-48c17-28.67,34-57.33,51-86
				c18-18.67,36-37.33,54-56c11-22,22-44,33-66c12.67-31,25.33-62,38-93c-1.67-36.67-3.33-73.33-5-110c3-37.67,6-75.33,9-113
				c7.33-54.67,14.67-109.33,22-164c0-9.33,0-18.67,0-28C687.32,563.47,695.99,519.47,704.65,475.47z"/>
		</g>
		<path class="dino-main-color" d="M894.16,546.97c-4.85,30.04-27.86,49.38-39.57,57.65c-0.73,0.52-1.41,0.99-2.05,1.43
			c-0.49,0.33-0.95,0.64-1.38,0.92c-10.08,2.34-17.97,1.89-23.53,0.89c-0.71,0.69-2.1,1.47-3.9,2.2c-2.87,1.18-6.78,2.26-10.59,2.79
			c-8.04,1.11-14.84-0.38-22-2c-10.69-2.43-12.42-4.48-18-4c-6.67,0.58-11.8,4.18-15,7c-5.15,6.4-10.16,13.1-14.98,20.12
			c-0.26,0.37-0.51,0.74-0.76,1.11c-0.17,0.25-0.33,0.49-0.5,0.74c-6.59,9.82-11.62,19.54-15.46,28.58
			c-0.08,0.19-0.16,0.39-0.24,0.58c-11.12,26.45-12.04,46.99-12.04,46.99c-6.7,40.44-3.73,70.33,1,118
			c1.69,17.01,4.36,36.74,11.86,60.39c0.82,2.56,2.96,8.12,6.87,18.57c0.68,1.79,1.43,3.78,2.27,6.04
			c18.62,49.94,35.11,86.2,37.5,91.5c30.34,67.29,142.42,315.8,52.5,421.5c-23.17,27.23-56.18,40.8-81,51
			c-55.15,22.66-106.78,20.78-130.44,19.9c-3.2-0.12-0.76-0.07-14.52-0.84c-0.34-0.02-0.68-0.04-1.04-0.06
			c-75.08-4.17-88.48-2.5-108-11c-8.77-3.82-21.57-10.91-35-25c-31.27,28.12-59.56,36.81-76,40c-20.9,4.06-44.81,3.55-74.43,2.92
			c-15.77-0.33-19.3-1.28-32.07-1.42c-67.48-0.73-100.74,10.55-103.5,2.5c-3.18-9.27,36.79-36.3,80-51c43.69-14.86,59.75-6.78,90-24
			c23.79-13.54,36.37-31.35,52-54c37.82-54.82,31.21-113.11,71-199c9.38-20.25,24.58-52.78,49.5-92.5c17.92-28.56,26.81-38.14,47-71
			c17.76-28.91,32.27-52.53,44-79c22.3-50.31,26.4-93.45,34-170c0.89-8.96,0.64-7.71,8.5-95.5c1.01-11.29,2.59-28.82,5-52
			c2.31-22.17,4.48-40.8,5-45c1.37-11.02,19.44-144.4,93.5-167.5c4.93-1.54,25.31-7.68,45,1c26.67,11.76,42.8,45.89,42.64,88.14
			c0,1.98-0.04,3.98-0.13,6.01c0,0.12-0.01,0.23-0.01,0.35c5.35-0.16,13.36-0.12,23,1c14.45,1.68,21.78,2.39,27,7
			C898.66,519.12,895.31,539.83,894.16,546.97z"/>
		<g>
			
				<ellipse transform="matrix(0.9984 -0.0563 0.0563 0.9984 -25.3816 45.1595)" class="dino-style88" cx="788.65" cy="472.97" rx="17.8" ry="27"/>
			<g>
				<defs>
					
						<ellipse id="SVGID_84_" transform="matrix(0.9984 -0.0563 0.0563 0.9984 -25.3816 45.1595)" cx="788.65" cy="472.97" rx="17.8" ry="27"/>
				</defs>
				<clipPath id="SVGID_85_">
					<use xlink:href="#SVGID_84_"  style="overflow:visible;"/>
				</clipPath>
				<g class="dino-style89">
					<ellipse transform="matrix(0.9984 -0.0563 0.0563 0.9984 -26.2493 45.2613)" cx="790.03" cy="488.42" rx="18" ry="24.5"/>
				</g>
				
					<ellipse transform="matrix(0.9984 -0.0563 0.0563 0.9984 -25.3426 44.6192)" class="dino-style90" cx="779.08" cy="472.01" rx="5" ry="5.5"/>
			</g>
		</g>
		<g>
			
				<ellipse transform="matrix(0.0558 -0.9984 0.9984 0.0558 338.1352 1301.1835)" class="dino-style88" cx="857.04" cy="471.81" rx="23.2" ry="15.29"/>
			<g>
				<defs>
					
						<ellipse id="SVGID_86_" transform="matrix(0.0558 -0.9984 0.9984 0.0558 338.1352 1301.1835)" cx="857.04" cy="471.81" rx="23.2" ry="15.29"/>
				</defs>
				<clipPath id="SVGID_87_">
					<use xlink:href="#SVGID_86_"  style="overflow:visible;"/>
				</clipPath>
				<g class="dino-style91">
					
						<ellipse transform="matrix(0.0558 -0.9984 0.9984 0.0558 324.5357 1313.4497)" cx="856.72" cy="485.13" rx="21.05" ry="15.47"/>
				</g>
				
					<ellipse transform="matrix(0.0558 -0.9984 0.9984 0.0558 335.2822 1291.9475)" class="dino-style92" cx="850.73" cy="468.7" rx="4.73" ry="4.3"/>
			</g>
		</g>
		<path class="dino-style93" d="M778.33,420.61c-8.87,1.15-16.26,9.16-15.04,12.06c1.19,2.82,10.72,1.26,20.29-0.3
			c7.85-1.28,12.14-1.98,12.46-3.9C796.52,425.47,787.31,419.45,778.33,420.61z"/>
		<path class="dino-style93" d="M863.43,420.15c8.29,1.07,15.21,8.56,14.07,11.27c-1.11,2.64-10.02,1.19-18.97-0.27
			c-7.34-1.19-11.36-1.85-11.65-3.64C846.43,424.7,855.04,419.06,863.43,420.15z"/>
		
			<ellipse transform="matrix(0.9188 -0.3948 0.3948 0.9188 -140.6812 380.2641)" class="dino-style93" cx="853.65" cy="531.97" rx="4.01" ry="6.24"/>
		
			<ellipse transform="matrix(0.2245 -0.9745 0.9745 0.2245 166.4686 1269.1305)" class="dino-style93" cx="880.65" cy="529.97" rx="5.72" ry="3.68"/>
		<g>
			<path class="dino-style93" d="M837.29,494.61c0,1.98-0.04,3.98-0.13,6.01c-7.91,0.1-15.79,0.89-23.57,2.38
				c-1.59,0.31-3.23-0.43-3.69-2.09c-0.4-1.48,0.51-3.38,2.1-3.69C820.34,495.61,828.8,494.72,837.29,494.61z"/>
		</g>
		<path class="dino-style94" d="M826.15,1427.97c-23.17,27.23-56.18,40.8-81,51c-55.15,22.66-106.78,20.78-130.44,19.9
			c-3.2-0.12-0.76-0.07-14.52-0.84c-27.6-57.5-37.53-133.48-35.04-187.06c4.04-87.07,44.84-200.81,71-249
			c4.33-7.98,19.48-34.81,31-74c7.01-23.84,10.17-43.73,12-58c8.83-68.99,2.37-131.09,1-159c-2.21-45.18,3.56-110.16,41-193
			c3.5,7.19,10.14,18.73,22,29c4.99,4.32,10.02,7.65,14.5,10.16c-4.25,3.62-9.07,8.98-14.5,16.84c-0.25,0.36-0.5,0.73-0.76,1.11
			c-0.17,0.24-0.33,0.49-0.5,0.74c-4.22,6.21-10.07,15.51-15.46,28.58c-0.08,0.19-0.16,0.39-0.24,0.58
			c-4.99,12.23-9.56,27.71-12.04,46.99c-6.7,40.44-3.73,70.33,1,118c1.69,17.01,4.36,36.74,11.86,60.39
			c1.09,4.28,2.13,6.1,6.87,18.57c0.68,1.79,1.43,3.78,2.27,6.04c18.62,49.94,35.11,86.2,37.5,91.5
			C803.99,1073.76,916.07,1322.27,826.15,1427.97z"/>
		<path class="dino-dark-color" d="M624.98,923.36c-14.34,0.11-17.02,29.01-47.73,97.29c-20.35,45.25-32.32,61.92-24.74,84.2
			c0.8,2.36,8.47,23.77,29.79,31.9c10.76,4.1,29.37,6.48,39.26-3.19c11.35-11.11,6.52-33.54,12.73-34.52
			c3.26-0.51,5.27,5.55,9.24,4.95c4.59-0.69,7.57-9.66,8-16.98c0.54-9.12-2.81-16.71-4.83-20.49c-0.65-1.22-1.18-2.08-1.31-2.28
			c-8.11-13.36,15.94-68.47,7.5-104.75C649.05,942.99,636.85,923.27,624.98,923.36z"/>
		<path class="dino-main-color" d="M513.52,1332.14c22.43-18.36,56.86-18.75,76.97-8.16c38.01,20.02,52.58,93.89,21.6,179.44
			c15.62,2.94,24.15,12.56,22.95,19.03c-1.12,6.07-10.76,9.09-12.15,9.52c-42.31,0-84.62,0-126.92,0
			c-18.54-66.08-13.61-116.67-8.1-145.45C493.69,1356.08,501.72,1341.81,513.52,1332.14z"/>
		<g class="dino-style95">
			<path class="dino-dark-color" d="M812.08,512.2c0.23,1.92-4.37,4.04-10.26,4.75c-5.9,0.7-10.86-0.28-11.09-2.2
				c-0.23-1.92,4.37-4.04,10.26-4.75C806.89,509.29,811.85,510.28,812.08,512.2z"/>
			<ellipse class="dino-dark-color" cx="835.15" cy="507.97" rx="5" ry="2"/>
			<ellipse class="dino-dark-color" cx="777.15" cy="519.97" rx="5" ry="2"/>
			
				<ellipse transform="matrix(0.9984 -0.0563 0.0563 0.9984 -27.977 47.5647)" class="dino-dark-color" cx="830.03" cy="520.23" rx="9.01" ry="2.25"/>
			<ellipse class="dino-dark-color" cx="864.15" cy="507.97" rx="7" ry="2"/>
			<ellipse class="dino-dark-color" cx="879.65" cy="516.97" rx="6.5" ry="2"/>
			
				<ellipse transform="matrix(0.1538 -0.9881 0.9881 0.1538 149.2193 1186.181)" class="dino-dark-color" cx="767.15" cy="505.97" rx="4" ry="10"/>
			
				<ellipse transform="matrix(0.338 -0.9412 0.9412 0.338 -782.4683 1238.5426)" class="dino-dark-color" cx="489.15" cy="1175.47" rx="42.5" ry="10"/>
			
				<ellipse transform="matrix(0.338 -0.9412 0.9412 0.338 -880.4117 1252.3999)" class="dino-dark-color" cx="450.03" cy="1252.02" rx="26.38" ry="6.21"/>
			
				<ellipse transform="matrix(0.338 -0.9412 0.9412 0.338 -847.253 1280.5625)" class="dino-dark-color" cx="486.63" cy="1242.53" rx="13.07" ry="6.31"/>
			<ellipse transform="matrix(0.6 -0.8 0.8 0.6 -634.5753 861.9341)" class="dino-dark-color" cx="544.63" cy="1065.53" rx="13.07" ry="6.31"/>
			
				<ellipse transform="matrix(0.9915 -0.1305 0.1305 0.9915 -188.2687 49.5057)" class="dino-dark-color" cx="283.65" cy="1461.47" rx="21.5" ry="7.5"/>
			
				<ellipse transform="matrix(0.9118 -0.4107 0.4107 0.9118 -588.5474 219.6888)" class="dino-dark-color" cx="217.06" cy="1479.72" rx="15.8" ry="4.11"/>
			
				<ellipse transform="matrix(0.9774 -0.2112 0.2112 0.9774 -307.2705 86.371)" class="dino-dark-color" cx="250.65" cy="1481.47" rx="11.5" ry="4.5"/>
			
				<ellipse transform="matrix(0.7071 -0.7071 0.7071 0.7071 -876.7007 693.3969)" class="dino-dark-color" cx="398.65" cy="1404.97" rx="24.5" ry="7"/>
			
				<ellipse transform="matrix(0.4272 -0.9042 0.9042 0.4272 -32.7029 905.3195)" class="dino-dark-color" cx="698.15" cy="478.47" rx="25.5" ry="7"/>
			
				<ellipse transform="matrix(0.2281 -0.9736 0.9736 0.2281 -42.8498 1092.4584)" class="dino-dark-color" cx="667.54" cy="573.25" rx="15.64" ry="4.35"/>
			
				<ellipse transform="matrix(0.2281 -0.9736 0.9736 0.2281 14.6648 1059.5015)" class="dino-dark-color" cx="675.52" cy="520.5" rx="7.87" ry="3.53"/>
		</g>
		<g>
			<path class="dino-style2" d="M681.14,757.85c-5.86-4.6-10.04-7.89-16-8c-5.4-0.1-9.24,2.47-16,7c-5.8,3.88-9.07,6.07-8.96,8.6
				c0.24,5.78,18.03,9.33,23.96,10.4c5.14-0.26,24.95-1.52,25.96-7.6C690.59,765.28,686.45,762.03,681.14,757.85z M648.64,767.45
				c-1.93,0-3.5-0.94-3.5-2.1s1.57-2.1,3.5-2.1s3.5,0.94,3.5,2.1S650.57,767.45,648.64,767.45z M655.64,762.45
				c-1.93,0-3.5-0.94-3.5-2.1s1.57-2.1,3.5-2.1s3.5,0.94,3.5,2.1S657.57,762.45,655.64,762.45z M672.14,761.35
				c0-1.16,1.57-2.1,3.5-2.1s3.5,0.94,3.5,2.1s-1.57,2.1-3.5,2.1S672.14,762.51,672.14,761.35z M680.64,769.45
				c-1.93,0-3.5-0.94-3.5-2.1s1.57-2.1,3.5-2.1s3.5,0.94,3.5,2.1S682.57,769.45,680.64,769.45z"/>
			<path class="dino-style96" d="M658.14,780.85c2.36-8.58,4.72-17.17,7.08-25.75c0.97,8.58,1.95,17.17,2.92,25.75c-0.83,7.62-3.06,13-5,13
				S658.97,788.47,658.14,780.85z"/>
		</g>
		<path class="dino-style93" d="M852.54,606.05c-0.49,0.33-0.95,0.64-1.38,0.92c-10.08,2.34-17.97,1.89-23.53,0.89
			c-0.71,0.69-2.1,1.47-3.9,2.2c-10.08-2.45-19.92-5.83-29.43-10.11c-16.08-7.22-30.89-16.85-44.03-28.63
			c-0.4,0.21-0.81,0.41-1.22,0.6c-3.56,1.68-7.35,2.81-11.26,3.38c-0.22,0.03-0.44,0.05-0.66,0.05c-2.19,0-4.12-1.61-4.44-3.85
			c-0.36-2.46,1.34-4.74,3.8-5.1c3.03-0.45,5.97-1.33,8.74-2.62c3.24-1.53,6.18-3.58,8.74-6.12c1.76-1.75,4.61-1.75,6.36,0.02
			c1.75,1.76,1.74,4.61-0.02,6.36c-0.73,0.73-1.49,1.42-2.28,2.09c12.02,10.47,25.43,19.09,39.95,25.62
			c16.65,7.47,34.32,12.05,52.54,13.62C851.26,605.43,851.95,605.67,852.54,606.05z"/>
	</g>
</g>
<g id="mascara">
	<g>
		<g>
			<path class="dino-style102" d="M904.72,553.74c-0.11,5.88-0.18,11.83-0.04,18.17c0.06,3.33-0.65,6.63-2.09,9.64
				c-10.34,21.6-27.69,32.05-27.69,32.05c-13.42,8-26.1,8.92-31.97,9.28c-18.86,1.16-32.34-5.07-52.59-14.44
				c-17.77-8.21-27.29-12.78-34.03-23.72c-3.04-4.95-4.63-10.31-6.99-19.73c-0.4-1.56-0.81-3.23-1.26-5.02
				c-4.35-17.57-6.75-27.31-3.09-29.91c6.35-4.52,19.44,20.56,40.22,21.66c29.56,1.56,38.96-47.27,75.28-48.47
				c2.2-0.07,21.25-0.42,34.24,12.84c7,7.14,10.31,15.32,10.3,18.2C904.99,540.95,904.84,547.29,904.72,553.74z"/>
		</g>
		<g>
			<path class="dino-style102" d="M748.57,536.77c-0.56,0-1.12-0.23-1.53-0.68l-58.27-64.45c-0.76-0.84-0.7-2.15,0.15-2.91
				c0.84-0.76,2.15-0.7,2.91,0.15l58.27,64.45c0.76,0.84,0.7,2.15-0.15,2.91C749.56,536.6,749.06,536.77,748.57,536.77z"/>
		</g>
		<g>
			<path class="dino-style102" d="M762.35,589.12c-0.53,0-1.07-0.21-1.47-0.62l-85.45-86.89c-0.8-0.81-0.79-2.12,0.02-2.92
				c0.81-0.8,2.12-0.79,2.92,0.02l85.45,86.89c0.8,0.81,0.79,2.12-0.02,2.92C763.39,588.92,762.87,589.12,762.35,589.12z"/>
		</g>
		<g class="dino-style103">
			<path class="dino-style104" d="M904.68,571.91c0.06,3.33-0.65,6.63-2.09,9.64c-10.34,21.6-27.69,32.05-27.69,32.05
				c-13.42,8-26.1,8.92-31.97,9.28c-18.86,1.16-32.34-5.07-52.59-14.44c-17.77-8.21-27.29-12.78-34.03-23.72
				c-3.04-4.95-4.63-10.31-6.99-19.73c20.72,16.19,37.36,19.26,49.27,18.7c23.98-1.14,35.58-17.31,72.19-25.78
				c13.09-3.02,24.77-4,33.95-4.18C904.61,559.61,904.55,565.56,904.68,571.91z"/>
		</g>
	</g>
</g>
<g id="bone">
	<g>
		<g>
			<path class="dino-style105" d="M848.32,434.53c-88.64,5.91-123.06,19.59-136.82,32.32c-0.43,0.4-1.02,0.96-1.77,1.64
				c-4.67,4.29-15.5,13.3-31.1,15.55c-11.03,1.59-20.7-0.75-27.2-3c1.13-11.41,3.76-27.61,10.88-46c5.37-13.89,10.08-26.05,20.67-38
				c17-19.21,40.06-27.57,56.74-31.21c1.1-0.24,2.17-0.45,3.2-0.65c0.34-0.07,0.67-0.13,1-0.19c6.07-1.12,11.01-1.6,14.06-1.81
				c1.86-0.12,3.02-0.14,3.33-0.14c11.63-0.09,40.24-0.27,63.1,20C846.24,402.4,848.06,427.91,848.32,434.53z"/>
			<path class="dino-style105" d="M758.04,364.04c0,3.87-3.41,7-7.61,7c-2.44,0-4.61-1.05-5.99-2.69c-0.79-0.9-1.32-1.98-1.52-3.17
				c-0.01-0.01-0.01-0.02-0.01-0.03c-0.07-0.36-0.1-0.73-0.1-1.11c0-3.87,3.41-7,7.62-7c3.88,0,7.09,2.68,7.55,6.14
				C758.02,363.46,758.04,363.75,758.04,364.04z"/>
		</g>
		<path class="dino-style106" d="M750.43,364.04c-1.91,1.3-3.92,2.74-5.99,4.31c-12.47,9.48-26.93,23.94-34.01,44.69
			c-7.71,22.63-2.46,40.46-0.7,55.45c-4.67,4.29-15.5,13.3-31.1,15.55c-11.03,1.59-20.7-0.75-27.2-3c1.13-11.41,3.76-27.61,10.88-46
			c5.37-13.89,10.08-26.05,20.67-38c17-19.21,40.06-27.57,56.74-31.21c1.1-0.24,2.17-0.45,3.2-0.65c-0.01-0.01-0.01-0.02-0.01-0.03
			c0.34-0.05,0.68-0.11,1.01-0.16C746.2,364.62,748.37,364.3,750.43,364.04z"/>
		<path class="dino-style107" d="M703.64,473.04c4.42-5.72,11.73-13.75,22.85-21c13.1-8.54,25.75-12.27,33.72-14
			c29.69-2.32,59.38-4.63,89.07-6.95c49.52,26.35,59.96,33.93,59.09,35.49c-1.11,2.01-19.61-8.01-46.06-9.4
			c-25.24-1.33-41.56,6.03-58.76,11.02C781.57,474.57,748.93,479.71,703.64,473.04z"/>
	</g>
</g>
<g id="laco">
	<g>
		<path class="dino-style108" d="M754.75,415.81c-4.92,6.98-11.87,16.02-21.1,25.85c-1.73,1.85-3.55,3.73-5.45,5.63
			c-4.01,4-7.45,7.44-10.46,10.27c-7.5,7.08-12.34,10.5-16.78,10.03c-20.89-2.23-38.76-69.78-21.61-81.96
			c4.38-3.12,10.72-2.36,19.35,0.48c5.11,1.69,11.02,4.11,17.82,6.89c0.08,0.03,0.16,0.07,0.24,0.1
			C733.77,400.09,746.43,409,754.75,415.81z"/>
		<path class="dino-style108" d="M750.43,416.67c5.11-9.52,13.45-22.67,26.6-35.7c14.03-13.9,23.17-22.95,31.52-21.04
			c20.5,4.7,29.84,73.94,11.39,83.99c-5.5,3-14.65-0.78-32.93-8.34C771.35,429.11,759.01,422.08,750.43,416.67z"/>
		<path class="dino-style109" d="M733.65,441.66c-1.73,1.85-3.55,3.73-5.45,5.63c-4.01,4-7.45,7.44-10.46,10.27
			c-10.66-7.59-17.8-23.34-20.57-34.63c-0.37-1.53-5.07-21.68,1.53-36.82c5.11,1.69,11.02,4.11,17.82,6.89
			c0.08,0.03,0.16,0.07,0.24,0.1c-0.82,7.93-0.97,17.3,2.41,26.83C722.56,429.47,728.48,436.3,733.65,441.66z"/>
		<path class="dino-style109" d="M779.43,432.12c2.28,1.11,4.65,2.22,7.1,3.31c5.17,2.3,9.62,4.29,13.44,5.86
			c7.25-10.9,8.29-28.16,6.84-39.69c-0.2-1.56-3.01-22.06-14.58-33.84c-4.17,3.4-8.82,7.78-14.18,12.8
			c-0.06,0.06-0.12,0.12-0.19,0.18c3.6,7.11,7.09,15.81,7.33,25.92C785.43,416.78,782.34,425.27,779.43,432.12z"/>
		<path class="dino-style110" d="M732.17,416.93c-6.67-1-13.33-2-20-3c-9.22,2.85-15.43,6.69-15,9c0.43,2.3,7.54,3.62,17,3
			C720.17,422.93,726.17,419.93,732.17,416.93z"/>
		<path class="dino-style110" d="M771.1,410.81c5.98-3.12,11.95-6.24,17.93-9.36c9.65-0.31,16.77,1.29,17.12,3.61
			c0.34,2.31-5.95,5.88-15.09,8.39C784.4,412.57,777.75,411.69,771.1,410.81z"/>
		<circle class="dino-style108" cx="751.08" cy="414.17" r="19"/>
	</g>
</g>
<g id="moicano">
	<g>
		<path class="dino-style111" d="M683.88,497.72c1.8-6.98,5.4-17.7,13-29c4.29-6.37,14.24-21.17,32-29c9.43-4.16,15.34-3.84,37-5
			c11.96-0.64,29.81-1.8,52-4c4.56-5.96,18.9-26.25,17-54c-2.25-32.88-25.68-52.54-31-57c-53.36-44.77-144.51-6.07-144,0
			c0.34,4.04,41.66-2.68,54,19c3.69,6.49,3.71,13.63,3,19c-8.31-3.21-21.91-7.25-39-7c-21.92,0.32-38.49,7.54-47,12
			c7.65,0.09,24.22,1.44,39,13c4.18,3.27,7.45,6.76,10,10c-6.05,1.31-14.29,3.83-23,9c-14.79,8.77-23.07,20.45-27,27
			c2.65-1.24,18.41-8.35,35-1c8.41,3.72,13.5,9.6,16,13C681.88,455.05,682.88,476.38,683.88,497.72z"/>
		<path class="dino-style112" d="M720.88,308.72c4.95-1.46,36.74-10.26,68,9c32.43,19.98,38.25,54.13,39,59c-10.18-12.65-27.3-30.74-53-46
			C754.28,318.49,735.02,312.16,720.88,308.72z"/>
	</g>
</g>
<g id="lenco">
	<g>
		<path class="dino-style113" d="M663.81,486.69c4.67-2.18,11.67-5.56,20-10c34.97-18.63,47.53-31.54,64-40c15.15-7.78,38.99-14.57,76-8
			c0.52-7.84,1.05-31.46-15-48c-23.58-24.3-66.69-16.56-91,0c-11.45,7.81-17.53,16.76-25,28
			C674.21,436.69,666.82,465.18,663.81,486.69z"/>
		
			<ellipse transform="matrix(0.6845 -0.729 0.729 0.6845 -137.4899 639.6982)" class="dino-style113" cx="670.31" cy="478.69" rx="7.5" ry="15"/>
		<path class="dino-style113" d="M676.45,457.91c0.38,30.42-3.49,94.22-46,149.82c-5.54,7.24-23.43,30.64-28.18,27.91
			C593.39,630.54,637.01,537.78,676.45,457.91z"/>
		<path class="dino-style113" d="M667.12,480.13c-4.9,22.07-18.57,67.58-58.79,100.57c-5.24,4.3-22.17,18.18-25.14,15.4
			C577.63,590.9,624.99,531.21,667.12,480.13z"/>
		<pattern  id="SVGID_92_" xlink:href="#Vortex_1" patternTransform="matrix(1 0 0 1 -135.6494 43.7362)">
		</pattern>
		<path class="dino-style114" d="M808.99,380.61c-23.58-24.3-66.69-16.56-91,0c-11.45,7.81-17.53,16.76-25,28
			c-13.59,20.46-21.19,41.18-25.48,59.26c-3.38-1.29-6.36-1.22-7.96,0.48c-2.66,2.83-0.54,9.21,4.72,14.66
			c-0.29,0.59-0.57,1.17-0.86,1.76c-41.1,49.97-85.43,106.21-80.04,111.25c2.97,2.78,19.9-11.1,25.14-15.4
			c6.71-5.51,12.67-11.37,17.99-17.4c-17.73,39.66-28.98,69.51-24.05,72.34c4.75,2.72,22.64-20.67,28.18-27.91
			c30.74-40.2,41.27-84.68,44.61-117.74c2.63,0.65,4.88,0.37,6.19-1.02c1.96-2.09,1.32-6.1-1.26-10.26
			c1.24-0.65,2.51-1.31,3.82-2.01c34.97-18.63,47.53-31.54,64-40c15.15-7.78,38.99-14.57,76-8
			C824.51,420.78,825.03,397.15,808.99,380.61z"/>
		<path class="dino-style115" d="M626.31,563.33c4.56-11.58,10.29-24.28,17.5-37.64c8.56-15.86,17.53-29.51,26-41
			c-8.2,11.05-14.85,19.67-19,25c-14.75,18.94-21.69,26.76-24,40C625.81,555.45,626.02,560.3,626.31,563.33z"/>
		<path class="dino-style115" d="M669.81,475.08c8.3-8.22,21.25-19.7,39-30.39c34.03-20.48,63.8-24.8,63-29c-0.58-3.07-17.21-4.62-33,0
			c-16.67,4.87-27.09,15.07-46,34C682.53,459.99,674.76,469.04,669.81,475.08z"/>
	</g>
</g>
<g id="gorro">
	<g>
		<path class="dino-style116" d="M827.96,427.29c-5.3-1.91-29.59-10.36-55.17-10.56c-16.71-0.14-33.97,3.26-46.84,14.3
			c-11.27,9.67-23.59,29.01-26.08,32.93c-9.22,14.47-15.14,27.69-18.9,37.43c-0.07,0.18-0.13,0.35-0.2,0.52
			c-0.04-0.07-0.11-0.18-0.19-0.32c-4.77-8-20.27-33.97-13.58-56.59c1.23-4.15,7.85-22.47,9.33-28.74c0.31-1.31,0.51-2.55,0.55-3.73
			c0.13-2.5-0.39-4.69-1.88-6.53c-1.44-1.78-3.42-2.78-5.71-3.33c-3.06-0.75-6.67-0.71-10.29-0.67c-19.78,0.22-34.2,13.21-39,18
			c-13.95,13.91-18.02,29.71-18.1,29.71c0-0.42,9.36-34.95,37.1-70.71c16.99-21.89,30.91-39.84,57-49
			c34.8-12.22,65.6,0.19,70.21,2.13c42.75,17.95,56,61.61,57.79,67.87C827.17,411.08,827.88,420.72,827.96,427.29z"/>
		<g>
			<path class="dino-style2" d="M578,437c0-2.2,4.18-3.97,4.59-6.05c0.42-2.15-2.75-5.37-1.93-7.35c0.83-2.01,5.37-2.04,6.56-3.82
				c1.2-1.8-0.49-6,1.03-7.53c1.53-1.53,5.73,0.17,7.53-1.03c1.79-1.2,1.82-5.73,3.82-6.56c1.97-0.82,5.2,2.36,7.35,1.93
				c2.08-0.41,3.85-4.59,6.05-4.59s3.97,4.18,6.05,4.59c2.15,0.42,5.37-2.75,7.35-1.93c2.01,0.83,2.04,5.37,3.82,6.56
				c1.8,1.2,6-0.49,7.53,1.03c1.53,1.53-0.17,5.73,1.03,7.53c1.2,1.79,5.73,1.82,6.56,3.82c0.82,1.97-2.36,5.2-1.93,7.35
				c0.41,2.08,4.59,3.85,4.59,6.05c0,2.2-4.18,3.97-4.59,6.05c-0.42,2.15,2.75,5.37,1.93,7.35c-0.83,2.01-5.37,2.04-6.56,3.82
				c-1.2,1.8,0.49,6-1.03,7.53c-1.53,1.53-5.73-0.17-7.53,1.03c-1.79,1.2-1.82,5.73-3.82,6.56c-1.97,0.82-5.2-2.36-7.35-1.93
				c-2.08,0.41-3.85,4.59-6.05,4.59s-3.97-4.18-6.05-4.59c-2.15-0.42-5.37,2.75-7.35,1.93c-2.01-0.83-2.04-5.37-3.82-6.56
				c-1.8-1.2-6,0.49-7.53-1.03c-1.53-1.53,0.17-5.73-1.03-7.53c-1.2-1.79-5.73-1.82-6.56-3.82c-0.82-1.97,2.36-5.2,1.93-7.35
				C582.18,440.97,578,439.2,578,437z"/>
		</g>
		<g>
			<defs>
				<path id="SVGID_93_" d="M828.03,426.61c-5.3-1.91-29.59-10.36-55.17-10.56c-16.71-0.14-33.97,3.26-46.84,14.3
					c-11.27,9.67-23.59,29.01-26.08,32.93c-9.22,14.47-15.14,27.69-18.9,37.43c-0.07,0.18-0.13,0.35-0.2,0.52
					c-0.04-0.07-0.11-0.18-0.19-0.32c-4.77-8-20.27-33.97-13.58-56.59c1.23-4.15,7.85-22.47,9.33-28.74
					c0.31-1.31,0.51-2.55,0.55-3.73c0.13-2.5-0.39-4.69-1.88-6.53c-1.44-1.78-3.42-2.78-5.71-3.33c-3.06-0.75-6.67-0.71-10.29-0.67
					c-19.78,0.22-34.2,13.21-39,18c-13.95,13.91-18.02,29.71-18.1,29.71c0-0.42,9.36-34.95,37.1-70.71
					c16.99-21.89,30.91-39.84,57-49c34.8-12.22,65.6,0.19,70.21,2.13c42.75,17.95,56,61.61,57.79,67.87
					C827.24,410.4,827.95,420.04,828.03,426.61z"/>
			</defs>
			<clipPath id="SVGID_94_">
				<use xlink:href="#SVGID_93_"  style="overflow:visible;"/>
			</clipPath>
			<polygon class="dino-style117" points="759.33,339.63 768,310 776.67,335.3 809.2,341.08 790.41,351.2 804.86,365.65 773.06,359.87 
				756.44,383 750.65,352.64 726.8,341.08 			"/>
			<polygon class="dino-style117" points="697.22,405.44 714.91,388.27 714.18,412.45 734.45,427.45 712.56,424.36 714.1,449.48 
				699.06,423.41 674.47,428.47 685.43,413.15 671.58,392.2 			"/>
			<polygon class="dino-style117" points="659.39,358 651.24,334.73 672.88,345.56 695.01,333.47 683.01,352.03 706.44,361.2 676.47,363.88 
				670.72,388.32 661.42,371.93 636.6,375.69 			"/>
		</g>
		<path class="dino-style118" d="M715.75,374.69c-8.73,3.85-19.97,10.38-29.1,21.8c-4.49,5.61-7.55,11.26-9.77,16.04
			c0.13-2.5-0.39-4.69-1.88-6.53c-1.44-1.78-3.42-2.78-5.71-3.33c0.6-1.96,1.37-3.91,2.34-5.79
			C682.39,376.07,712.32,374.79,715.75,374.69z"/>
		<path class="dino-style118" d="M784,397c-3.7,6.86-7.44,13.44-11.21,19.73c-16.71-0.14-33.97,3.26-46.84,14.3
			c-11.27,9.67-23.59,29.01-26.08,32.93c-9.22,14.47-15.14,27.69-18.9,37.43c-0.19-0.03-0.38-0.07-0.57-0.11
			c-15.23-25.65-15.74-44.14-13.4-56.28c2.17-11.26,7.57-21.1,9.33-28.74c17.54-0.68,26.16-13.83,39.67-21.26
			C728.21,388.28,748.63,383.93,784,397z"/>
		<path class="dino-style2" d="M659.1,473.64l9.7,21.44c3.15,7.12,6.1,8.74,8.2,8.92c8.27,0.72,10.97-20.18,30-41
			c10.23-11.19,20.68-17.44,30-23c13.11-7.82,23.52-14.03,38-16c16.55-2.25,30.98,2.04,41.02,6.57c3.32,1.5,7.22,0.58,9.51-2.26
			c2.92-3.61,6.23-9.07,7.47-16.32c0.98-5.69,0.37-10.65-0.51-14.29c-0.7-2.87-2.89-5.13-5.76-5.87
			c-11.71-2.99-29.03-5.87-49.73-3.84c-6.43,0.63-36.5,4.03-68,25c-26.64,17.74-41.8,39.73-49.56,53.39
			C658.18,468.61,658.04,471.3,659.1,473.64z"/>
	</g>
</g>
<g id="raiox">
	<g>
		<linearGradient id="SVGID_95_" gradientUnits="userSpaceOnUse" x1="655.0319" y1="1463.6373" x2="649.6347" y2="699.0294">
			<stop  offset="0" style="stop-color:#ABABAB"/>
			<stop  offset="0.486" style="stop-color:#DBDBDB"/>
			<stop  offset="0.9581" style="stop-color:#ABABAB"/>
		</linearGradient>
		<path class="dino-style119" d="M839.37,700.33H465.29c-66.15,0-119.96,59.26-119.96,132.09v497.81c0,72.84,53.81,132.09,119.96,132.09
			h374.08c66.15,0,119.96-59.26,119.96-132.09V832.43C959.33,759.59,905.52,700.33,839.37,700.33z"/>
		<path class="dino-style120" d="M909.33,816.98v430.7c0,36.81-31.32,66.65-69.96,66.65H465.29c-38.64,0-69.96-29.84-69.96-66.65v-430.7
			c0-36.81,31.32-66.65,69.96-66.65h374.08C878.01,750.33,909.33,780.17,909.33,816.98z"/>
		<radialGradient id="SVGID_96_" cx="655.3333" cy="1007.3333" r="248" gradientUnits="userSpaceOnUse">
			<stop  offset="0" style="stop-color:#BFFFE1"/>
			<stop  offset="0.9581" style="stop-color:#BFFFDC;stop-opacity:0"/>
		</radialGradient>
		<circle class="dino-style121" cx="655.33" cy="1007.33" r="248"/>
		<g>
			<path class="dino-style122" d="M734,897.53c-0.72-7.18-5.33-18.41-15.13-20.95c-8.86-2.29-19.67,3.14-25.83,13.95
				c-6.16-10.81-16.97-16.24-25.83-13.95c-9.8,2.53-14.4,13.77-15.13,20.95c-1.64,16.28,14.38,34.45,40.61,44.53v0.27
				c0.12-0.04,0.23-0.09,0.35-0.14c0.12,0.04,0.23,0.09,0.35,0.14v-0.27C719.62,931.98,735.65,913.82,734,897.53z"/>
		</g>
		<g>
			<path class="dino-style123" d="M443.73,1376.98c3.74,2.26,6.7,4.74,9.31,6.92c4.75,3.97,8.5,7.12,15.03,7.65
				c6.86,0.55,11.26-2.23,16.35-5.45c5.34-3.37,11.41-7.2,21.07-7.74c7.86-0.43,12.34,1.65,17.07,3.86
				c3.95,1.84,8.43,3.92,15.95,4.96c11.79,1.62,19.66-0.76,29.62-3.75c3.62-1.09,7.36-2.21,11.58-3.23
				c18.12-4.37,37.8-4.79,58.56-1.28c-0.62-7.2-6.64-12.85-14.01-12.85H420.39c-3.45,0-6.62,1.24-9.06,3.3
				C423.98,1369.07,434.81,1371.61,443.73,1376.98z"/>
			<path class="dino-style123" d="M580.95,1385.32c-4.08,0.98-7.74,2.08-11.28,3.15c-10.17,3.07-18.95,5.71-31.87,3.93
				c-8.3-1.14-13.16-3.4-17.45-5.4c-4.48-2.08-8.01-3.73-14.55-3.37c-8.31,0.46-13.52,3.74-18.55,6.92
				c-4.94,3.12-10.04,6.34-17.44,6.34c-0.7,0-1.42-0.03-2.16-0.09c-8.21-0.67-12.96-4.65-17.99-8.86c-2.58-2.17-5.26-4.4-8.65-6.45
				c-8.97-5.41-20.23-7.65-33.63-6.68c-0.67,1.63-1.04,3.43-1.04,5.3v11.42c0,7.77,6.29,14.06,14.06,14.06h203.88
				c7.77,0,14.06-6.29,14.06-14.06v-7.28C617.92,1380.71,598.64,1381.05,580.95,1385.32z"/>
			<path class="dino-style124" d="M638.28,1378.91c-20.77-3.51-40.44-3.08-58.56,1.28c-4.23,1.02-7.96,2.14-11.58,3.23
				c-9.97,3-17.83,5.37-29.62,3.75c-7.52-1.04-12-3.12-15.95-4.96c-4.74-2.21-9.22-4.29-17.07-3.86
				c-9.67,0.54-15.73,4.37-21.07,7.74c-5.1,3.22-9.49,6-16.35,5.45c-6.53-0.53-10.28-3.67-15.03-7.65
				c-2.61-2.19-5.56-4.67-9.31-6.92c-8.91-5.38-19.75-7.92-32.39-7.62c-1.73,1.46-3.1,3.33-3.96,5.46
				c13.4-0.97,24.66,1.27,33.63,6.68c3.39,2.05,6.06,4.28,8.65,6.45c5.03,4.21,9.78,8.19,17.99,8.86c0.74,0.06,1.46,0.09,2.16,0.09
				c7.4,0,12.5-3.22,17.44-6.34c5.04-3.18,10.24-6.47,18.55-6.92c6.54-0.36,10.07,1.28,14.55,3.37c4.29,1.99,9.15,4.25,17.45,5.4
				c12.93,1.78,21.71-0.86,31.87-3.93c3.54-1.06,7.21-2.16,11.28-3.15c17.69-4.27,36.97-4.61,57.38-1.05v-4.15
				C638.33,1379.72,638.32,1379.3,638.28,1378.91z"/>
		</g>
		<g class="dino-style125">
			<rect x="737.33" y="1347.33" class="dino-style126" width="36" height="36"/>
			<rect x="788.33" y="1347.33" class="dino-style126" width="36" height="36"/>
			<rect x="839.33" y="1347.33" class="dino-style126" width="36" height="36"/>
			<rect x="839.33" y="1396.33" class="dino-style126" width="36" height="36"/>
			<rect x="788.33" y="1396.33" class="dino-style126" width="36" height="36"/>
			<rect x="737.33" y="1396.33" class="dino-style126" width="36" height="36"/>
		</g>
		<g>
			<rect x="734.33" y="1344.33" class="dino-style127" width="36" height="36"/>
			<rect x="785.33" y="1344.33" class="dino-style127" width="36" height="36"/>
			<rect x="836.33" y="1344.33" class="dino-style128" width="36" height="36"/>
			<rect x="836.33" y="1393.33" class="dino-style127" width="36" height="36"/>
			<rect x="785.33" y="1393.33" class="dino-style127" width="36" height="36"/>
			<rect x="734.33" y="1393.33" class="dino-style127" width="36" height="36"/>
		</g>
		<circle class="dino-style129" cx="687.83" cy="1388.83" r="19.5"/>
		<circle class="dino-style128" cx="685.83" cy="1385.83" r="19.5"/>
		<g>
			<g>
				<line class="dino-style0" x1="670.31" y1="750.33" x2="645.35" y2="750.33"/>
				<path class="dino-style130" d="M670.33,750.83v332c0,6.02-4.26,11.05-9.93,12.24c-0.83,0.17-1.69,0.26-2.57,0.26
					c-0.92,0-1.81-0.1-2.67-0.29c-5.62-1.22-9.83-6.23-9.83-12.21v-332c0-0.17,0-0.34,0.02-0.5h24.96
					C670.33,750.49,670.33,750.66,670.33,750.83z"/>
			</g>
			<g>
				<path class="dino-style130" d="M600.78,855.36c-7.67,0-16.92-0.91-18.74-8.72c-2.14-9.22,9.01-14.32,17.14-18.04
					c10.31-4.72,26.83-10.89,49.11-18.35c4.19-1.4,8.72,0.86,10.13,5.05c1.4,4.19-0.86,8.72-5.05,10.13
					c-16.73,5.6-28.56,9.93-36.93,13.24c8.16-0.64,19.26-1.8,34.35-3.76c4.39-0.56,8.39,2.52,8.96,6.9c0.57,4.38-2.52,8.39-6.9,8.96
					c-21.63,2.81-37.97,4.34-48.54,4.55C603.21,855.34,602.01,855.36,600.78,855.36z"/>
			</g>
			<g>
				<path class="dino-style130" d="M587.53,906.23c-16.5,0-22.44-3.95-24.71-10.15c-3.43-9.37,5.58-18.24,13.82-24.92
					c9.25-7.51,23.22-16.59,42.71-27.77c3.84-2.2,8.72-0.87,10.92,2.96c2.2,3.83,0.87,8.72-2.96,10.92
					c-32.63,18.72-43.69,28.27-47.44,32.57c6.51,1,24.92,1.02,75.86-9.35c4.32-0.88,8.55,1.91,9.43,6.24
					c0.88,4.33-1.91,8.55-6.24,9.44C624.17,903.25,601.87,906.23,587.53,906.23z"/>
			</g>
			<g>
				<path class="dino-style130" d="M556.27,956.86c-12.84,0-17.15-3.7-19.21-8.19c-4.05-8.84,4.71-17.94,8-21.37
					c8.65-8.98,24.75-21.31,47.84-36.64c3.68-2.44,8.65-1.44,11.09,2.24c2.44,3.68,1.44,8.65-2.24,11.09
					c-31.75,21.07-43.29,31.93-47.47,36.91c6.86,0.24,21.88-1.35,49.06-8.33c17.37-4.46,34.36-10.67,50.52-18.46
					c3.98-1.92,8.76-0.25,10.68,3.73c1.92,3.98,0.25,8.76-3.73,10.68c-17.11,8.25-35.1,14.82-53.48,19.54
					C582.55,954.44,566.63,956.86,556.27,956.86z"/>
			</g>
			<g>
				<path class="dino-style130" d="M553.93,1031.43c-5.63,0-10.84-1.43-14.97-5.16c-11.94-10.81-8.19-34.38,12.17-76.42
					c1.92-3.98,6.71-5.64,10.69-3.71c3.98,1.92,5.64,6.71,3.71,10.69c-23.93,49.43-16.17,57.27-15.83,57.58
					c1.3,1.18,15.14,9.77,98.96-50.56c3.59-2.58,8.59-1.77,11.17,1.82c2.58,3.59,1.77,8.58-1.82,11.17
					c-30.77,22.15-55.78,37.7-74.33,46.21C574.92,1027.05,563.79,1031.43,553.93,1031.43z"/>
			</g>
			<g>
				<path class="dino-style130" d="M714.74,858.36c-1.24,0-2.43-0.02-3.54-0.04c-10.58-0.21-26.91-1.74-48.54-4.55
					c-4.38-0.57-7.47-4.58-6.9-8.96s4.58-7.46,8.96-6.9c15.09,1.96,26.2,3.12,34.35,3.76c-8.36-3.31-20.2-7.64-36.92-13.24
					c-4.19-1.4-6.45-5.94-5.05-10.13c1.4-4.19,5.94-6.45,10.13-5.05c22.27,7.46,38.8,13.63,49.11,18.35
					c8.14,3.72,19.28,8.82,17.14,18.04C731.67,857.46,722.41,858.36,714.74,858.36z M718.96,851.27h0.01H718.96z"/>
			</g>
			<g>
				<path class="dino-style130" d="M727.99,909.23c-14.33,0-36.63-2.98-71.4-10.06c-4.33-0.88-7.12-5.11-6.24-9.44
					c0.88-4.33,5.11-7.13,9.43-6.24c50.94,10.37,69.36,10.35,75.86,9.35c-3.75-4.3-14.81-13.85-47.44-32.57
					c-3.83-2.2-5.16-7.09-2.96-10.92c2.2-3.83,7.09-5.16,10.92-2.96c19.49,11.18,33.46,20.27,42.71,27.77
					c8.23,6.68,17.25,15.55,13.82,24.92C750.43,905.28,744.48,909.23,727.99,909.23z"/>
			</g>
			<g>
				<path class="dino-style130" d="M759.25,959.86c-10.36,0-26.28-2.41-51.06-8.78c-18.38-4.72-36.38-11.3-53.48-19.54
					c-3.98-1.92-5.65-6.7-3.73-10.68c1.92-3.98,6.7-5.65,10.68-3.73c16.16,7.79,33.15,14,50.52,18.46
					c27.17,6.98,42.2,8.56,49.06,8.33c-4.18-4.98-15.72-15.85-47.47-36.91c-3.68-2.44-4.69-7.41-2.24-11.09
					c2.44-3.68,7.41-4.69,11.09-2.24c23.1,15.33,39.2,27.65,47.84,36.64c3.3,3.42,12.06,12.52,8,21.36
					C776.4,956.16,772.09,959.86,759.25,959.86z M763.57,947.44L763.57,947.44L763.57,947.44z"/>
			</g>
			<g>
				<path class="dino-style130" d="M761.59,1034.43c-9.86,0-20.98-4.38-29.74-8.4c-18.55-8.51-43.56-24.05-74.33-46.21
					c-3.59-2.58-4.4-7.58-1.82-11.17c2.58-3.59,7.58-4.4,11.17-1.82c83.82,60.34,97.66,51.74,98.96,50.56
					c0.34-0.31,8.1-8.15-15.83-57.58c-1.93-3.98-0.26-8.76,3.71-10.69c3.98-1.93,8.76-0.26,10.69,3.71
					c20.36,42.04,24.11,65.61,12.17,76.42C772.43,1033,767.21,1034.43,761.59,1034.43z"/>
			</g>
			<g>
				<path class="dino-style130" d="M559.38,1154.92c-2.15,0-3.98-0.05-5.43-0.09c-9.85-0.28-24.74-0.7-40.42-9.83
					c-14.56-8.48-31.32-22.11-28.52-38.89c3.95-23.66,39.73-29.3,93.85-35.2c22.46-2.45,45.23-3.48,67.71-3.08
					c4.38,0.08,8.44,2.27,10.91,5.89s3.03,8.2,1.51,12.3c-5.01,13.51-17.63,38.63-45.89,54.99
					C591.63,1153.45,570.89,1154.92,559.38,1154.92z M513.07,1110.89c2.14,2.48,6.61,6.43,14.06,10.77
					c9.73,5.67,19.21,5.93,27.58,6.17c7.78,0.22,26,0.73,44.86-10.19c11.16-6.46,19.05-14.81,24.55-22.74
					c-14.13,0.36-28.29,1.31-42.32,2.84c-15.05,1.64-32.11,3.5-46.33,6.31C522.22,1106.69,515.92,1109.31,513.07,1110.89z"/>
			</g>
			<g>
				<path class="dino-style130" d="M756.17,1154.92c-11.5,0-32.24-1.47-53.72-13.9c-28.27-16.37-40.89-41.48-45.89-54.99
					c-1.52-4.1-0.96-8.69,1.51-12.3c2.47-3.61,6.53-5.81,10.91-5.89c22.47-0.4,45.25,0.63,67.71,3.08
					c54.13,5.9,89.9,11.54,93.85,35.2c2.8,16.78-13.96,30.41-28.52,38.89c-15.68,9.14-30.57,9.55-40.42,9.83
					C760.15,1154.87,758.32,1154.92,756.17,1154.92z M691.43,1094.92c5.5,7.92,13.39,16.27,24.55,22.74
					c18.86,10.92,37.08,10.41,44.86,10.19c8.37-0.23,17.85-0.5,27.58-6.17c7.45-4.34,11.91-8.29,14.06-10.77
					c-2.85-1.59-9.14-4.2-22.39-6.83c-14.22-2.82-31.28-4.67-46.33-6.32C719.72,1096.22,705.56,1095.28,691.43,1094.92z"/>
			</g>
			<g>
				<path class="dino-style130" d="M576.44,1213c-0.35,16.19-0.39,32.87-0.07,50.01c0.33,17.58,1.03,34.69,2.05,51.32h-38.26
					c0.15-16.34-0.09-33.23-0.78-50.63c-0.74-18.5-1.94-36.33-3.5-53.45c-18.58-2.96-28.89-20.12-25.12-33.03
					c3.59-12.32,20.1-21.21,32.71-15.62c10.66,4.73,13.11,17.41,13.35,18.76c2.64-11.21,12.47-19.21,23.65-19.45
					c12.4-0.26,22.17,9.12,24.35,18.55C607.91,1192.89,596.42,1210.01,576.44,1213z"/>
			</g>
			<g>
				<path class="dino-style130" d="M765.44,1213c-0.35,16.19-0.39,32.87-0.07,50.01c0.33,17.58,1.03,34.69,2.05,51.32h-38.26
					c0.15-16.34-0.09-33.23-0.78-50.63c-0.74-18.5-1.94-36.33-3.5-53.45c-18.58-2.96-28.89-20.12-25.12-33.03
					c3.59-12.32,20.1-21.21,32.71-15.62c10.66,4.73,13.11,17.41,13.35,18.76c2.64-11.21,12.47-19.21,23.65-19.45
					c12.4-0.26,22.17,9.12,24.35,18.55C796.91,1192.89,785.42,1210.01,765.44,1213z"/>
			</g>
		</g>
		<path class="dino-style131" d="M371.83,1311.33L371.83,1311.33c-5.25,0-9.5-4.25-9.5-9.5v-487c0-5.25,4.25-9.5,9.5-9.5h0
			c5.25,0,9.5,4.25,9.5,9.5v487C381.33,1307.08,377.08,1311.33,371.83,1311.33z"/>
		<path class="dino-style131" d="M933.83,1311.33L933.83,1311.33c-5.25,0-9.5-4.25-9.5-9.5v-487c0-5.25,4.25-9.5,9.5-9.5l0,0
			c5.25,0,9.5,4.25,9.5,9.5v487C943.33,1307.08,939.08,1311.33,933.83,1311.33z"/>
		<circle class="dino-style132" cx="840.83" cy="725.83" r="14.5"/>
		<circle class="dino-style132" cx="463.83" cy="725.83" r="14.5"/>
	</g>
</g>
</svg>
