<?xml version="1.0" encoding="utf-8"?>
<!-- Generator: Adobe Illustrator 25.0.0, SVG Export Plug-In . SVG Version: 6.00 Build 0)  -->
<svg version="1.1" xmlns="http://www.w3.org/2000/svg" xmlns:xlink="http://www.w3.org/1999/xlink" x="0px" y="0px"
	 viewBox="100 950 890 470" style="enable-background:new 0 0 1080 1920;" xml:space="preserve">
<style type="text/css">
	.dino-style0{fill:none;}
	.dino-style1{fill:url(#SVGID_1_);}
	.dino-style2{fill:#FFFFFF;}
	.dino-style3{fill:url(#SVGID_2_);}
	.dino-style4{fill:url(#SVGID_3_);}
	.dino-style5{fill:url(#SVGID_4_);}
	.dino-style6{fill:url(#SVGID_5_);}
	.dino-style7{fill:url(#SVGID_6_);}
	.dino-style8{fill:url(#SVGID_7_);}
	.dino-style9{fill:url(#SVGID_8_);}
	.dino-style10{fill:url(#SVGID_9_);}
	.dino-style11{fill:url(#SVGID_10_);}
	.dino-style12{fill:url(#SVGID_11_);}
	.dino-style13{fill:url(#SVGID_12_);}
	.dino-style14{fill:url(#SVGID_13_);}
	.dino-style15{fill:url(#SVGID_14_);}
	.dino-style16{fill:url(#SVGID_15_);}
	.dino-style17{fill:url(#SVGID_16_);}
	.dino-style18{fill:url(#SVGID_17_);}
	.dino-style19{fill:url(#SVGID_18_);}
	.dino-style20{fill:url(#SVGID_19_);}
	.dino-style21{fill:url(#SVGID_20_);}
	.dino-style22{fill:url(#SVGID_21_);}
	.dino-style23{fill:url(#SVGID_22_);}
	.dino-style24{fill:url(#SVGID_23_);}
	.dino-style25{fill:url(#SVGID_24_);}
	.dino-style26{fill:url(#SVGID_25_);}
	.dino-style27{fill:url(#SVGID_26_);}
	.dino-style28{fill:url(#SVGID_27_);}
	.dino-style29{fill:url(#SVGID_28_);}
	.dino-style30{fill:url(#SVGID_29_);}
	.dino-style31{fill:url(#SVGID_30_);}
	.dino-style32{fill:url(#SVGID_31_);}
	.dino-style33{fill:url(#SVGID_32_);}
	.dino-style34{fill:url(#SVGID_33_);}
	.dino-style35{fill:url(#SVGID_34_);}
	.dino-style36{fill:url(#SVGID_35_);}
	.dino-style37{fill:url(#SVGID_36_);}
	.dino-style38{fill:url(#SVGID_37_);}
	.dino-style39{fill:url(#SVGID_38_);}
	.dino-style40{fill:url(#SVGID_39_);}
	.dino-style41{fill:url(#SVGID_40_);}
	.dino-style42{fill:url(#SVGID_41_);}
	.dino-style43{fill:url(#SVGID_42_);}
	.dino-style44{fill:url(#SVGID_43_);}
	.dino-style45{fill:url(#SVGID_44_);}
	.dino-style46{fill:url(#SVGID_45_);}
	.dino-style47{fill:url(#SVGID_46_);}
	.dino-style48{fill:url(#SVGID_47_);}
	.dino-style49{fill:url(#SVGID_48_);}
	.dino-style50{fill:url(#SVGID_49_);}
	.dino-style51{fill:url(#SVGID_50_);}
	.dino-style52{fill:url(#SVGID_51_);}
	.dino-style53{fill:url(#SVGID_52_);}
	.dino-style54{fill:url(#SVGID_53_);}
	.dino-style55{fill:url(#SVGID_54_);}
	.dino-style56{fill:url(#SVGID_55_);}
	.dino-style57{fill:url(#SVGID_56_);}
	.dino-style58{fill:url(#SVGID_57_);}
	.dino-style59{fill:url(#SVGID_58_);}
	.dino-style60{fill:url(#SVGID_59_);}
	.dino-style61{fill:url(#SVGID_60_);}
	.dino-style62{fill:url(#SVGID_61_);}
	.dino-style63{fill:url(#SVGID_62_);}
	.dino-style64{fill:url(#SVGID_63_);}
	.dino-style65{fill:url(#SVGID_64_);}
	.dino-style66{fill:url(#SVGID_65_);}
	.dino-style67{fill:url(#SVGID_66_);}
	.dino-style68{fill:url(#SVGID_67_);}
	.dino-style69{fill:url(#SVGID_68_);}
	.dino-style70{fill:url(#SVGID_69_);}
	.dino-style71{fill:url(#SVGID_70_);}
	.dino-style72{fill:url(#SVGID_71_);}
	.dino-style73{fill:url(#SVGID_72_);}
	.dino-style74{fill:url(#SVGID_73_);}
	.dino-style75{fill:url(#SVGID_74_);}
	.dino-style76{fill:url(#SVGID_75_);}
	.dino-style77{fill:url(#SVGID_76_);}
	.dino-style78{fill:url(#SVGID_77_);}
	.dino-style79{fill:url(#SVGID_78_);}
	.dino-style80{fill:url(#SVGID_79_);}
	.dino-style81{fill:url(#SVGID_80_);}
	.dino-style82{fill:url(#SVGID_81_);}
	.dino-style83{fill:url(#SVGID_82_);}
	.dino-style84{fill:url(#SVGID_83_);}
	.dino-main-color{fill: var(--dino-main-color);}
	.dino-dark-color{fill: var(--dino-dark-color);}
	.dino-back-color{fill: var(--dino-back-color);}
	.dino-style88{fill:#FFFFFF;stroke:var(--dino-details-color);stroke-width:2;stroke-miterlimit:10;}
	.dino-style89{clip-path:url(#SVGID_85_);}
	.dino-style90{clip-path:url(#SVGID_85_);fill:#FFFFFF;}
	.dino-style91{clip-path:url(#SVGID_87_);}
	.dino-style92{clip-path:url(#SVGID_87_);fill:#FFFFFF;}
	.dino-style93{fill: var(--dino-face-details-color);}
	.dino-style94{opacity:0.35;fill:var(--dino-belly-color);}
	.dino-style95{opacity:0.4;}
	.dino-style96{fill:#A3B5C9;}
	.dino-style97{clip-path:url(#SVGID_89_);}
	.dino-style98{clip-path:url(#SVGID_89_);fill:#FFFFFF;}
	.dino-style99{clip-path:url(#SVGID_91_);}
	.dino-style100{clip-path:url(#SVGID_91_);fill:#FFFFFF;}
	.dino-style101{clip-path:url(#SVGID_93_);}
	.dino-style102{clip-path:url(#SVGID_93_);fill:#FFFFFF;}
	.dino-style103{clip-path:url(#SVGID_95_);}
	.dino-style104{clip-path:url(#SVGID_95_);fill:#FFFFFF;}
	.dino-style105{fill:#CAE2FF;}
	.dino-style106{fill:none;stroke:#F7263A;stroke-width:6;stroke-linecap:round;stroke-linejoin:round;stroke-miterlimit:10;}
	.dino-style107{clip-path:url(#SVGID_97_);}
	.dino-style108{clip-path:url(#SVGID_97_);fill:#FFFFFF;}
	.dino-style109{clip-path:url(#SVGID_99_);}
	.dino-style110{clip-path:url(#SVGID_99_);fill:#FFFFFF;}
	.dino-style111{clip-path:url(#SVGID_101_);}
	.dino-style112{clip-path:url(#SVGID_101_);fill:#FFFFFF;}
	.dino-style113{clip-path:url(#SVGID_103_);}
	.dino-style114{clip-path:url(#SVGID_103_);fill:#FFFFFF;}
	.dino-style115{clip-path:url(#SVGID_105_);}
	.dino-style116{clip-path:url(#SVGID_105_);fill:#FFFFFF;}
	.dino-style117{clip-path:url(#SVGID_107_);}
	.dino-style118{clip-path:url(#SVGID_107_);fill:#FFFFFF;}
	.dino-style119{clip-path:url(#SVGID_109_);}
	.dino-style120{clip-path:url(#SVGID_109_);fill:#FFFFFF;}
	.dino-style121{clip-path:url(#SVGID_111_);}
	.dino-style122{clip-path:url(#SVGID_111_);fill:#FFFFFF;}
	.dino-style123{fill:var(--dino-details-color);}
	.dino-style124{fill:#143321;}
	.dino-style125{opacity:0.5;fill:var(--dino-dark-color);}
	.dino-style126{fill:#43609B;}
	.dino-style127{fill:#FFC0DA;}
	.dino-style128{fill:#FFCCE3;}
	.dino-style129{fill:#F7B0D0;}
	.dino-style130{fill:#F7D02D;}
	.dino-style131{fill:#F7D548;}
	.dino-style132{fill:#A54830;}
	.dino-style133{opacity:0.13;fill:#491913;}
	.dino-style134{fill:#B55848;}
	.dino-style135{fill:#FF6F48;}
	.dino-style136{opacity:0.24;fill:url(#SVGID_112_);}
	.dino-style137{opacity:0.38;fill:#AD5225;}
	.dino-style138{fill:#4848D3;}
	.dino-style139{clip-path:url(#SVGID_114_);fill:#F4E49F;}
	.dino-style140{opacity:0.64;fill:#1D1D96;}
</style>
<g id="dino">
	<g>
		<path class="dino-main-color" d="M476.34,1353.06c-31.08-0.77-69.84-24.99-92.31-40.97C408.64,1313.63,439.6,1323.37,476.34,1353.06z"/>
		<path class="dino-main-color" d="M871.25,1310.64c-15.55,18.88-33.01,28.81-59.71,44c0,0-39.44,22.44-87.5,33.9
			c-3.42,0.82-6.2,1.33-7.17,1.52c-9.79,1.92-23.29,3.71-38.17,1.56c-4.91-0.7-9.97-1.84-15.1-3.54
			c-5.85-1.95-45.5-15.17-45.43-40.76c0-2.43,0.39-4.86,1.13-7.24c3.6-11.67,15.49-22.59,31.63-29.63c1.23-0.54,2.5-1.05,3.78-1.54
			c0.02-0.09,0.02-0.17,0.04-0.26c0.22-1.64,0.44-3.28,0.67-4.92c0.27-2,0.54-4,0.82-5.99c0.43-3.15,0.86-6.29,1.29-9.44
			c-0.27,0.16-0.55,0.32-0.82,0.48c-2.91,1.72-6.17,3.54-9.74,5.4c-1.15,0.59-2.32,1.18-3.53,1.78c-1.14,0.57-2.29,1.12-3.49,1.67
			c-11.56,5.41-25.78,10.7-42.39,14.1c-23.84,4.87-37.9,2.84-82.44,0.93c-6.32-0.28-12.09-0.49-17.38-0.67
			c-0.13-0.01-0.27-0.01-0.39-0.02c-21.88-0.72-35.34-0.7-44.62-0.53c-16.73,0.27-19.84,0.96-34.11-1.59
			c-8.12-1.45-15.04-3.1-21.07-4.84c-13.42-3.89-22.52-8.32-30.99-12.45c-0.37-0.18-0.74-0.36-1.11-0.54
			c-12.06-5.88-23.19-11.05-44.27-13.08c-47.99-4.62-97.8,11.89-100.17,26.33c-0.05,0.28-0.07,0.56-0.09,0.83
			c-0.08,2.35,1,8.69,24.36,18.74c54.03,23.23,102.09-12.65,130.23-12.96c2.75-0.03,5.59,0.04,8.52,0.21
			c22.47,15.98,61.23,40.2,92.31,40.97c18.37,14.84,38.18,34.66,59.38,60.94c-28.05-17.23-70.08-37.43-122.74-41.23
			c-58.29-4.21-72.59,15.77-130.23,14.05c-59.76-1.78-155.16-1.42-171.46-61.99c-11.9-44.22,23.47-88.57,29.04-95.56
			c24.88-31.2,51.65-37.19,84.2-50.7c9.06-3.76,18.56-8.11,28.59-13.73c5.04-2.84,10.24-5.99,15.57-9.58
			c6.98-4.68,13.07-9.51,18.23-13.98c9.36-8.09,15.76-14.8,17.54-16.66c15.16-15.84,38.92-31.78,51.83-40.44
			c62.03-41.6,138.59-61.14,147.28-64.22c19.99-7.08,50.61-15.06,91.92-14.93c49.95,2.22,90.61,10.47,119.42,18.07
			c67.21,17.73,106.53,41.55,128.84,58.14c13.43,9.98,25.39,21.26,36.13,37.23c8.42,12.52,15.83,29.14,19.65,52.33
			C902.33,1187.78,914.02,1258.73,871.25,1310.64z"/>
		<g>
			<path class="dino-main-color" d="M798.47,1206.41c-1.63,0.84-3.37,1.59-5.2,2.23c-0.85,0.3-1.67,0.56-2.49,0.78
				c-9.76,2.69-17.38,0.43-25.41-1.93c-2.29-0.68-4.7-1.4-7.31-2.03c-0.7-0.17-1.42-0.34-2.15-0.49c-3.53-0.77-7.42-1.37-11.9-1.58
				c-0.11-0.01-5.52-0.21-13.53,0.93c-5.21,0.75-11.5,2.06-18.15,4.36c-4.45,1.53-9.05,3.51-13.59,6.07
				c-11.01,6.18-19.19,14.97-25.26,24.51c-1.01,1.58-1.95,3.18-2.84,4.8c-2.53,4.56-4.63,9.23-6.36,13.8
				c-4.61,12.16-6.67,23.68-7.58,30.91c-0.05,0.02-0.09,0.05-0.13,0.08c0.7-9.11,2.75-30.1,8.46-48.52
				c2.99-9.62,4.47-14.42,7.86-19.64c1.69-2.61,3.39-4.71,4.83-6.49c4.27-3.92,9.06-7.48,14.44-10.53
				c-0.01,0.04-0.02,0.09-0.02,0.13c20.43-10.76,36.57-11.52,45.57-11c6.67,0.38,13.19,1.69,20.43,3.14
				c16.45,3.29,18.43,5.46,32.21,8.64C793.13,1205.23,795.84,1205.85,798.47,1206.41z"/>
			<path class="dino-dark-color" d="M800.99,1160.99c-0.24,1.93-2.07,14.78-10.29,26.12c-2.31,3.19-5.13,6.26-8.56,8.94
				c-2.68-0.07-5.46-0.17-8.34-0.28c-14.13-0.56-16.48-2.32-33.26-2.5c-7.38-0.08-14.03-0.15-20.65,0.71
				c-8.93,1.16-24.66,4.91-42.72,19.29c0-0.04,0-0.09,0-0.13c0.08-0.07,0.16-0.14,0.25-0.21c22.01-18.49,47.75-22.32,48.83-22.47
				c0.81-0.11,1.61-0.22,2.39-0.3c1-0.12,1.98-0.21,2.94-0.28c3.44-0.27,6.61-0.29,9.53-0.19c3.72,0.13,7.02,0.46,10,0.76
				c8.09,0.81,13.42,1.35,19.91-2.39c5.09-2.94,8.71-7.21,11.27-11.56c4.78-8.12,5.87-16.53,5.92-17.07
				c1.99-16.27-6.55-28.02-9.22-31.23c-2.27-2.74-1.89-6.8,0.85-9.07c2.74-2.27,6.8-1.89,9.07,0.84
				C792.4,1124.2,803.6,1139.61,800.99,1160.99z"/>
		</g>
		<path class="dino-style93" d="M638.21,1362.83c-5.54-1.19-9.32-5.59-9.39-10.29c-0.05-3.48,1.93-7.58,3.73-7.5
			C634.11,1345.11,636.18,1348.32,638.21,1362.83z"/>
		<path class="dino-style93" d="M656.62,1364.22c5.64,0.53,10.57-2.53,12.04-7c1.09-3.31,0.44-7.81-1.31-8.28
			C665.84,1348.55,662.91,1350.99,656.62,1364.22z"/>
		<g>
			<path class="dino-style93" d="M761.99,1348.46c-9.17,14.53-20.99,26.58-35.14,35.79c-3.32,2.16-6.67,4.1-9.99,5.81
				c-9.79,1.92-23.29,3.71-38.17,1.56c12.69-1.91,27.78-6.39,42.53-16c12.89-8.4,23.67-19.39,32.05-32.66
				c1.52-2.4,4.7-3.12,7.11-1.61C762.78,1342.87,763.51,1346.05,761.99,1348.46z"/>
		</g>
		<path class="dino-style94" d="M644.42,1259.44c0.58,1.15,2.63,1.31,5.37,1.06c-3.58,11.27-5.24,21.39-6.02,27.87
			c-0.56-0.21-1.18-0.28-1.82-0.19c-2.11,0.3-3.59,2.25-3.28,4.37c0.07,0.52,0.39,2.54,1.27,5.07c-11.56,5.41-25.79,10.7-42.38,14.1
			c-23.85,4.88-37.91,2.85-82.45,0.93c-6.32-0.27-12.09-0.49-17.38-0.66c1.78-11.12,3.57-28,1.94-47.89
			c13.23,2.77,27.67,4.66,43.19,4.88c49.74,0.69,87.65-16.17,113.4-24.99c-0.52,1.09-1.02,2.19-1.51,3.28
			C647.82,1251.11,643.28,1257.18,644.42,1259.44z"/>
		<path class="dino-dark-color" d="M511.36,1336.52c-0.08,0.57-0.21,1.13-0.38,1.67c-2.73,8.96-15.12,12.01-21.25,13.53
			c-4.23,1.05-8.72,1.45-13.39,1.34c-36.74-29.69-67.71-39.43-92.31-40.97c-5.63-4-10.24-7.49-13.44-9.95
			c-1.29-2.83-2.66-6.03-4.05-9.58c-0.37-0.94-0.74-1.91-1.11-2.9c-4.47-12.04-8.88-27.62-10.65-45.9
			c-0.56-5.67-0.86-11.6-0.82-17.78c0.15-31.54,9.23-95.25,41.1-104.15c29.81-8.32,69.97,41.3,87.58,77.28
			c10.78,22.01,15.46,43.69,17.02,62.65c1.63,19.88-0.16,36.77-1.94,47.88c-0.13,0.81-0.26,1.6-0.39,2.34
			c-0.01,0.07-0.02,0.13-0.03,0.2C506.97,1319.76,512.54,1328.99,511.36,1336.52z"/>
		<path class="dino-style94" d="M365.44,1292.01c-12.06-5.88-23.2-11.06-44.27-13.09c-47.98-4.62-97.8,11.89-100.17,26.33
			c-1.71-5.16,1.52-10.91,3.41-14.29c8.67-15.54,27.76-19.19,46.69-23.51c45.51-10.37,64.51-18.77,83.69-21.36
			C356.56,1264.38,360.96,1279.96,365.44,1292.01z"/>
		<g>
			<path class="dino-dark-color" d="M703.59,1307.39c-0.99,2.64-3.94,3.98-6.58,2.99c-7.82-2.93-16.04-4.4-24.34-4.31
				c-6.11,0.06-12.12,0.91-17.94,2.58c0.22-1.64,0.44-3.28,0.67-4.92c0.27-2,0.54-4,0.82-5.99c5.35-1.21,10.82-1.84,16.36-1.89
				c9.56-0.09,19.01,1.59,28.01,4.97C703.25,1301.8,704.58,1304.74,703.59,1307.39z"/>
		</g>
		<g>
			<path class="dino-dark-color" d="M751.05,1152.73c-6.89-20.96-10.67-32.47-21.21-38.5c-16.47-9.42-40.98-0.63-54.99,11.78
				c-13.02,11.53-16.8,27.06-24.35,58.14c-3.91,16.09-5.44,29.41-6.1,37.7c-0.18,2.3-0.33,4.11-0.44,6.71
				c-0.66,15.51,1.5,21.62,1.83,38.87c0.15,8.07-0.23,11.61-0.79,14.14c-0.11,0.5-0.86,3.83-1.21,6.8c-0.2,1.64-0.26,2.3-0.41,4.06
				c-0.05,0.57-0.09,1.07-0.12,1.51c-0.05,0.69,0.02,1.37,0.17,2c1.22-0.6,2.39-1.19,3.54-1.78c1.78-0.93,3.49-1.85,5.11-2.75h0.01
				c1.57-0.88,3.06-1.73,4.49-2.57c0.7-9.11,2.75-30.1,8.46-48.52c2.99-9.62,4.47-14.42,7.86-19.64c1.69-2.61,3.39-4.71,4.83-6.49
				c-0.05,0.05-0.11,0.1-0.16,0.15c4.38-4.04,9.32-7.72,14.88-10.84c25.06-14.07,51.07-13.05,52.16-12.99
				c5.63,0.26,10.48,1.05,14.74,2.01C758.46,1183.15,756.42,1169.07,751.05,1152.73z M659.22,1238.2c-0.05,0.1-0.11,0.2-0.16,0.3
				C659.11,1238.4,659.17,1238.3,659.22,1238.2z"/>
		</g>
		<g>
			<path class="dino-style93" d="M754.34,1265.54c-11-3.08-27.62-10.38-26.62-15.04c0.78-3.61,12.13-5.58,21.3-2.68
				c11.91,3.77,20.27,15.8,18.21,18.96C765.92,1268.78,760.38,1267.23,754.34,1265.54z"/>
			<path class="dino-style93" d="M665.77,1256.47c-3.21,0.84-6.41,1.53-9.23,1.99c-2.48,0.4-4.89,0.79-6.95,0.97
				c-3.07,0.28-5.35,0.09-6-1.19c-1.27-2.52,3.8-9.3,11.55-13.59c2.63-1.45,5.56-2.61,8.66-3.22c2.99-0.59,6.15-0.67,9.08-0.38
				c6.3,0.6,11.53,2.91,11.79,5.42C685.02,1250.03,675.37,1253.96,665.77,1256.47z"/>
		</g>
		<g>
			<g>
				<path class="dino-style124" d="M735.53,1314.94c-1.01,0-2.02-0.06-3.03-0.18c-14.8-1.74-21.51-15.65-21.78-16.25
					c-0.91-1.93-0.08-4.23,1.85-5.14c1.93-0.91,4.23-0.08,5.14,1.85c0.05,0.11,5.11,10.62,15.69,11.86
					c8.88,1.04,17.62-4.52,21.26-13.54c0.8-1.98,3.05-2.93,5.03-2.14c1.98,0.8,2.94,3.05,2.14,5.03
					C757.3,1307.67,746.77,1314.94,735.53,1314.94z"/>
			</g>
			<g>
				<path class="dino-style124" d="M672.14,1295.6c-4.63,8.11-11.98,12.85-19.18,12.85c-1.92,0-3.83-0.33-5.68-1.04
					c-0.09-0.03-0.18-0.07-0.27-0.11c-6.35-2.52-9.49-8.46-10.99-12.83c-0.88-2.53-1.2-4.55-1.27-5.07
					c-0.3-2.11,1.17-4.07,3.28-4.37c0.64-0.09,1.26-0.02,1.82,0.19c1.31,0.46,2.34,1.62,2.54,3.1c0.01,0.03,0.17,1.15,0.63,2.7
					c0.9,2.99,2.9,7.61,6.99,9.16c0.48,0.18,0.97,0.32,1.47,0.4c4.79,0.81,10.43-2.67,13.94-8.82c1.06-1.85,3.42-2.5,5.27-1.44
					C672.54,1291.39,673.19,1293.75,672.14,1295.6z"/>
			</g>
		</g>
		<g>
			<path class="dino-back-color" d="M584.73,973.09c-4.82-0.56-20.19-2.11-35.6,7.5c-16.15,10.06-21.62,25.59-23.14,30.85
				c-1.6-4.55-5.35-13.04-13.77-18.97c-16.84-11.88-40.55-5.19-54.21,4.71c-13.45,9.75-18,23.25-18.86,25.93
				c-3.29,10.31-2.47,19.23-1.7,23.93c-2.9-3.53-8.96-9.88-18.73-13.72c-2.11-0.83-15.8-6-31.43-0.79
				c-19.22,6.41-27.46,23.89-30.64,30.64c-10.51,22.31-5.13,43.67-3.2,50.21c-2.49-2.85-8.14-8.49-17.25-11.55
				c-2.79-0.94-13.41-4.34-24.33-0.17c-12.66,4.84-18.01,16.93-22,25.93c-8.8,19.86-6.99,39.04-4.97,49.75
				c16.6-14.59,20.05-22.42,46.85-44.97c8.73-7.34,16.26-13.15,21.57-17.12c-0.01,0.08-0.01,0.17-0.02,0.25
				c18.42-18.81,45.63-42.71,82.71-63.95c35.25-20.19,67.95-31.4,92.69-37.88c16.08-2.51,33.96-4.53,53.42-5.5
				c18.43-0.92,35.54-0.78,51.07,0C631.45,1004.93,615.62,976.68,584.73,973.09z"/>
			<path class="dino-back-color" d="M686.85,988.08c-0.43-0.21-1.11-0.55-1.99-0.94c-6.92-3.1-20.74-6.7-35.48-0.93
				c-15.49,6.06-22.39,18.75-24.03,21.97c14.87,0.47,32.45,2.15,51.85,6.29c14.46,3.08,27.34,6.97,38.5,11
				c-1.51-5.49-4.2-12.5-9.17-19.58C703.67,1001.8,697.77,993.46,686.85,988.08z"/>
			<path class="dino-back-color" d="M236.19,1171.71c-6.72,4.71-9.42,11.02-13.12,19.68c-5.22,12.21-6.35,23.17-6.56,29.98
				c-0.46-0.66-11.15-15.57-27.17-14.05c-11.16,1.05-18.29,9.44-20.61,12.18c-0.96,1.13-4.84,5.84-7.5,14.05
				c-5.13,15.89-1.13,30.9,1.52,38.36c-2.16-0.32-5.86-0.53-9.95,0.99c-7.14,2.65-11.9,9.28-13.12,15.93
				c-1.53,8.37,2.74,14.86,4.68,17.8c5.78,8.75,14.48,11.77,17.45,12.65c6.76,1.81,12.57,3.76,17.28,5.5
				c6.3,2.33,11.11,4.47,13.36,5.5c7.95,3.63,9.39,4.96,14.14,7.07c6.93,3.08,12.38,4.06,20.43,5.5c7.59,1.36,18.06,2.62,30.76,2.28
				c-0.01,0.02-0.03,0.04-0.05,0.06c9.15,1.35,20.24,2.28,32.79,1.87c13.46-0.44,25.17-2.31,34.69-4.48c0,0.01-0.01,0.01-0.01,0.02
				c0.17-0.04,0.35-0.09,0.52-0.13c0.13-0.03,0.27-0.06,0.4-0.09c0,0-0.01-0.01-0.01-0.01c9.98-2.59,21.96-4.82,35.61-5.61
				c7.77-0.45,14.99-0.38,21.55,0c-1.8-3.27-6.48-10.68-15.63-15.13c-2.22-1.08-18.6-8.72-31.43,0.79
				c-8.74,6.48-10.29,16.82-10.6,19.43c-1.4-2.23-10.73-16.57-27.89-18.65c-10.27-1.24-18.3,2.52-21.21,3.93
				c-10.9,5.28-16.32,13.9-18.23,17.31c-1.4-2.69-3.85-6.44-8.05-9.55c-6.41-4.76-13.22-5.31-17.55-5.66
				c-3.97-0.32-8.61-0.84-14.31,0.98c-5.81,1.86-9.72,5.13-11.79,7.14c-0.42-3.26-2.06-12.37-9.76-19.32
				c-0.57-0.51-13.9-12.21-26.38-6.6c-4.58,2.06-7.28,5.65-8.64,7.86c-1.3-5.58-2.44-12.74-2.46-21.09
				c-0.02-10.56,1.76-19.38,3.58-25.76c0.06,0.16,0.11,0.31,0.17,0.46c1.94-4.9,5.34-12.15,11.24-19.68
				c9.43-12.02,20.08-18.13,24.36-20.61c45.58-26.4,68.37-39.61,86.2-55.28c-2.55-2.21-6.61-5.24-12.18-7.5
				C270.59,1168.97,250.98,1161.35,236.19,1171.71z"/>
			<path class="dino-back-color" d="M432.01,1345.2c-0.17-2.18-1.07-10.37-7.79-16.49c-10.06-9.17-23.77-5.14-25.14-4.71
				c-9.65,3.01-14.49,10.57-15.79,12.77c7.37,0.44,15.55,1.3,24.36,2.81C416.65,1341.13,424.8,1343.1,432.01,1345.2z"/>
			<path class="dino-back-color" d="M449.81,1355.51c0.11-0.34,1.84-5.87-1.87-10.31c-0.37-0.44-3.44-3.98-8.43-3.75
				c-4.44,0.21-7.07,3.24-7.5,3.75c2.38,0.37,6.22,1.28,10.31,3.75C445.95,1351.14,448.37,1353.72,449.81,1355.51z"/>
			<path class="dino-back-color" d="M851.61,1197.51c-5.3,5.12-11.46,7.38-14.93,8.64c-12.62,4.62-24.32,3.24-38.21,0.26
				c-2.62-0.57-5.33-1.19-8.14-1.83c-13.78-3.18-15.76-5.35-32.21-8.64c-7.24-1.45-13.76-2.76-20.43-3.14
				c-9-0.52-25.14,0.24-45.57,11c0.01-0.04,0.02-0.09,0.02-0.13c2.8-16.31,16.36-27.69,30.62-27.37
				c9.62,0.22,18.67,5.76,24.23,14.36c0.61,0.93,1.18,1.92,1.7,2.92c0.25-0.61,0.66-1.53,1.24-2.65c1.92-3.67,5.82-9.41,12.9-13.07
				c13.56-7,27.02-0.28,29.07,0.79c4.44,2.31,7.79,5.36,10.34,8.57c3.27,4.14,5.19,8.55,6.3,12c1.03,3.21,1.36,5.59,1.43,6.14
				c2.95-15.48,15.59-25.01,26.71-23.57c5.08,0.66,9.01,3.49,11.78,6.33c-2.93-4.97-5.91-12.55-4.89-21.91
				c1.61-14.86,12.08-23.13,14.45-24.85c-5.3-6.61-11.53-15.83-16.58-27.75c-3.13-7.37-5.15-14.24-6.47-20.18
				c-2.9-3.52-7.6-8.82-14.13-14.49c-5.06-4.38-8.31-6.46-15.93-12.18c-4.25-3.2-10.42-7.94-17.8-14.06
				c0.19-0.06,0.38-0.11,0.57-0.17c-17.62-8.01-41.95-18-71.77-27c2.17-1.37,20.45-12.48,42.16-4.68
				c21.87,7.86,28.9,28.31,29.91,31.6c12.49-3.92,26.13-1.01,35.68,7.75c14.12,12.93,11.47,31.39,11.24,32.79
				c4.26,2.52,12.05,7.97,17.8,17.8c1.97,3.36,6.3,10.98,6.56,21.55c0.09,3.7-0.34,6.8-0.78,9.01c0.02,0.01,0.02,0.02,0.04,0.04
				C859.26,1143.73,870.42,1179.35,851.61,1197.51z"/>
		</g>
		<g>
			
				<ellipse transform="matrix(0.9748 -0.2229 0.2229 0.9748 -218.3056 139.6791)" class="dino-style125" cx="509.49" cy="1036.72" rx="34.29" ry="6.77"/>
			
				<ellipse transform="matrix(1 -6.562487e-03 6.562487e-03 1 -7.0614 4.1781)" class="dino-style125" cx="633.13" cy="1078.1" rx="22.81" ry="6.43"/>
			
				<ellipse transform="matrix(0.0797 -0.9968 0.9968 0.0797 -520.6451 1848.3861)" class="dino-style125" cx="740.73" cy="1206.17" rx="6.35" ry="13.82"/>
			
				<ellipse transform="matrix(0.0797 -0.9968 0.9968 0.0797 -475.2439 1936.4728)" class="dino-style125" cx="811.14" cy="1225.62" rx="4.87" ry="29.95"/>
			
				<ellipse transform="matrix(0.8173 -0.5762 0.5762 0.8173 -598.9385 405.5941)" class="dino-style125" cx="340.09" cy="1147.23" rx="22.81" ry="6.43"/>
			
				<ellipse transform="matrix(0.5553 -0.8317 0.8317 0.5553 -970.2091 716.2098)" class="dino-style125" cx="184.6" cy="1265.31" rx="16.55" ry="5.96"/>
			
				<ellipse transform="matrix(0.3284 -0.9445 0.9445 0.3284 -1146.6799 1077.7892)" class="dino-style125" cx="184.54" cy="1345.21" rx="6.43" ry="22.81"/>
			
				<ellipse transform="matrix(0.9995 -0.0327 0.0327 0.9995 -44.2937 9.4692)" class="dino-style125" cx="267.34" cy="1358.87" rx="11.44" ry="3.22"/>
			
				<ellipse transform="matrix(0.05 -0.9987 0.9987 0.05 -1176.7206 1373.7279)" class="dino-style125" cx="133.78" cy="1305.45" rx="11.44" ry="3.22"/>
			
				<ellipse transform="matrix(0.9748 -0.2229 0.2229 0.9748 -226.032 134.8751)" class="dino-style125" cx="484.35" cy="1068.54" rx="13.77" ry="4.89"/>
			
				<ellipse transform="matrix(0.3108 -0.9505 0.9505 0.3108 -484.844 1419.7227)" class="dino-style125" cx="736.54" cy="1044.18" rx="4.89" ry="13.77"/>
			
				<ellipse transform="matrix(0.9996 -0.0282 0.0282 0.9996 -28.5925 17.9821)" class="dino-style125" cx="623.4" cy="1022.97" rx="22.61" ry="8.53"/>
			
				<ellipse transform="matrix(0.5 -0.866 0.866 0.5 -536.1724 1221.2622)" class="dino-style125" cx="789.56" cy="1074.97" rx="4.46" ry="25.24"/>
			
				<ellipse transform="matrix(0.866 -0.5 0.5 0.866 -448.9092 565.7217)" class="dino-style125" cx="831.2" cy="1120.54" rx="4.51" ry="12.57"/>
			
				<ellipse transform="matrix(0.4602 -0.8878 0.8878 0.4602 -596.0887 1420.958)" class="dino-style125" cx="870.48" cy="1200.67" rx="12.57" ry="4.51"/>
			<path class="dino-style125" d="M846.91,1079.08c-1.31,0.76-3.62-0.78-5.15-3.43c-1.53-2.65-1.71-5.41-0.39-6.17"/>
			
				<ellipse transform="matrix(0.8711 -0.4911 0.4911 0.8711 -471.7383 349.4332)" class="dino-style125" cx="429.84" cy="1073.43" rx="14.01" ry="5.45"/>
			<ellipse class="dino-style125" cx="673.27" cy="1322.03" rx="9.43" ry="1.96"/>
			<ellipse class="dino-style125" cx="724.34" cy="1336.17" rx="16.5" ry="4.32"/>
			<ellipse class="dino-style125" cx="706.66" cy="1323.21" rx="6.68" ry="3.14"/>
			<ellipse class="dino-style125" cx="647.74" cy="1320.86" rx="4.32" ry="0.79"/>
			<ellipse class="dino-style125" cx="764.4" cy="1317.71" rx="8.64" ry="1.57"/>
		</g>
		<g>
			<g>
				<path class="dino-style126" d="M936.52,1209.77c4.71,1.32,9.71,1.98,14.42,3.21c2.36,0.57,5.56,2.26,5.56,5.09
					c0,3.77-4.53,5.28-7.64,5.28c-7.54,0-16.97-3.3-24.13-5.47c-3.68-1.04-6.13-3.02-5.47-7.17c0.66-3.96,1.7-7.92,2.92-11.78
					c2.36-7.64,5.09-13.48,9.24-20.27c0.19-0.28,0.28-0.57,0.28-0.94c0-0.75-0.66-0.94-1.23-1.04c-4.05-0.66-11.22,0.09-14.33-2.92
					c-0.85-0.85-1.51-1.79-1.51-3.11c0-2.64,2.73-4.53,5.09-5c1.13-0.19,2.36-0.28,3.49-0.28c-0.85,0,21.02-0.38,26.49,3.68
					c1.13,0.85,2.26,1.98,2.26,3.49c0,2.54-3.3,5.47-4.81,7.35c-5.47,7.17-10.09,18.57-12.25,27.34
					C934.92,1208.45,935.11,1209.3,936.52,1209.77z"/>
			</g>
			<g>
				<path class="dino-style126" d="M951.59,1115.6c4.34,3.25,9.24,5.94,13.62,9.09c2.21,1.53,4.84,4.57,3.71,7.49
					c-1.51,3.9-6.79,3.64-10.01,2.4c-7.8-3.02-16.22-10.21-22.75-15.32c-3.38-2.55-5.12-5.57-2.78-9.6
					c2.27-3.83,4.93-7.5,7.74-11.01c5.5-6.95,10.66-11.89,17.67-17.25c0.31-0.22,0.52-0.47,0.67-0.86c0.3-0.78-0.3-1.24-0.85-1.56
					c-3.93-2.31-11.63-4.4-13.64-8.76c-0.54-1.22-0.84-2.46-0.31-3.82c1.06-2.73,4.64-3.58,7.26-3.12c1.24,0.26,2.55,0.65,3.72,1.11
					c-0.88-0.34,21.88,8.04,25.91,14.42c0.83,1.33,1.55,2.95,0.94,4.51c-1.02,2.63-5.6,4.33-7.92,5.67
					c-8.52,5.21-17.87,15.15-23.62,23.35C950.46,1113.59,950.31,1114.55,951.59,1115.6z"/>
			</g>
			<g>
				<path class="dino-style126" d="M892.58,1144.23c3.46,0.08,6.99-0.35,10.43-0.34c1.71-0.03,4.2,0.57,4.7,2.5
					c0.66,2.58-2.17,4.41-4.3,4.95c-5.16,1.32-12.19,0.72-17.47,0.5c-2.7-0.06-4.72-0.99-5-3.94c-0.24-2.82-0.23-5.71-0.07-8.57
					c0.27-5.64,1.11-10.11,2.76-15.48c0.08-0.23,0.09-0.44,0.03-0.69c-0.13-0.52-0.62-0.53-1.02-0.49
					c-2.89,0.26-7.66,2.03-10.31,0.52c-0.73-0.43-1.35-0.96-1.58-1.86c-0.46-1.81,1.07-3.57,2.6-4.31c0.74-0.33,1.56-0.61,2.34-0.81
					c-0.58,0.15,14.31-3.95,18.76-2.14c0.92,0.38,1.9,0.96,2.16,1.99c0.45,1.74-1.3,4.32-2,5.87c-2.48,5.86-3.64,14.47-3.58,20.85
					C891.25,1143.61,891.53,1144.16,892.58,1144.23z"/>
			</g>
		</g>
	</g>
</g>
<g id="laco">
	<g>
		<path class="dino-style127" d="M704.81,1195.72c-4.92,6.98-11.87,16.02-21.1,25.85c-1.73,1.85-3.55,3.73-5.45,5.63
			c-4.01,4-7.45,7.44-10.46,10.27c-7.5,7.08-12.34,10.5-16.78,10.03c-20.89-2.23-38.76-69.78-21.61-81.96
			c4.38-3.12,10.72-2.36,19.35,0.48c5.11,1.69,11.02,4.11,17.82,6.89c0.08,0.03,0.16,0.07,0.24,0.1
			C683.83,1180,696.49,1188.91,704.81,1195.72z"/>
		<path class="dino-style127" d="M700.49,1196.58c5.11-9.52,13.45-22.67,26.6-35.7c14.03-13.9,23.17-22.95,31.52-21.04
			c20.5,4.7,29.84,73.94,11.39,83.99c-5.5,3-14.65-0.78-32.93-8.34C721.41,1209.02,709.07,1201.99,700.49,1196.58z"/>
		<path class="dino-style128" d="M683.71,1221.57c-1.73,1.85-3.55,3.73-5.45,5.63c-4.01,4-7.45,7.44-10.46,10.27
			c-10.66-7.59-17.8-23.34-20.57-34.63c-0.37-1.53-5.07-21.68,1.53-36.82c5.11,1.69,11.02,4.11,17.82,6.89
			c0.08,0.03,0.16,0.07,0.24,0.1c-0.82,7.93-0.97,17.3,2.41,26.83C672.62,1209.38,678.54,1216.21,683.71,1221.57z"/>
		<path class="dino-style128" d="M729.49,1212.03c2.28,1.11,4.65,2.22,7.1,3.31c5.17,2.3,9.62,4.29,13.44,5.86
			c7.25-10.9,8.29-28.16,6.84-39.69c-0.2-1.56-3.01-22.06-14.58-33.84c-4.17,3.4-8.82,7.78-14.18,12.8
			c-0.06,0.06-0.12,0.12-0.19,0.18c3.6,7.11,7.09,15.81,7.33,25.92C735.49,1196.68,732.4,1205.18,729.49,1212.03z"/>
		<path class="dino-style129" d="M682.23,1196.84c-6.67-1-13.33-2-20-3c-9.22,2.85-15.43,6.69-15,9c0.43,2.3,7.54,3.62,17,3
			C670.23,1202.84,676.23,1199.84,682.23,1196.84z"/>
		<path class="dino-style129" d="M721.16,1190.72c5.98-3.12,11.95-6.24,17.93-9.36c9.65-0.31,16.77,1.29,17.12,3.61
			c0.34,2.31-5.95,5.88-15.09,8.39C734.46,1192.47,727.81,1191.6,721.16,1190.72z"/>
		<circle class="dino-style127" cx="701.14" cy="1194.08" r="19"/>
	</g>
</g>
<g id="moicano">
	<g>
		<path class="dino-style130" d="M819.09,1280.56c-1.8-6.98-5.4-17.7-13-29c-4.29-6.37-14.24-21.17-32-29c-9.43-4.16-15.34-3.84-37-5
			c-11.96-0.64-29.81-1.8-52-4c-4.56-5.96-18.9-26.25-17-54c2.25-32.88,25.68-52.54,31-57c53.36-44.77,144.51-6.07,144,0
			c-0.34,4.04-41.66-2.68-54,19c-3.69,6.49-3.71,13.63-3,19c8.31-3.21,21.91-7.25,39-7c21.92,0.32,38.49,7.54,47,12
			c-7.65,0.09-24.22,1.44-39,13c-4.18,3.27-7.45,6.76-10,10c6.05,1.31,14.29,3.83,23,9c14.79,8.77,23.07,20.45,27,27
			c-2.65-1.24-18.41-8.35-35-1c-8.41,3.72-13.5,9.6-16,13C821.09,1237.89,820.09,1259.23,819.09,1280.56z"/>
		<path class="dino-style131" d="M782.09,1091.56c-4.95-1.46-36.74-10.26-68,9c-32.43,19.98-38.25,54.13-39,59c10.18-12.65,27.3-30.74,53-46
			C748.69,1101.33,767.95,1095,782.09,1091.56z"/>
	</g>
</g>
<g id="bone">
	<g>
		<g>
			<path class="dino-style132" d="M652.57,1209.37c88.64,5.91,123.06,19.59,136.82,32.32c0.43,0.4,1.02,0.96,1.77,1.64
				c4.67,4.29,15.5,13.3,31.1,15.55c11.03,1.59,20.7-0.75,27.2-3c-1.13-11.41-3.76-27.61-10.88-46c-5.37-13.89-10.08-26.05-20.67-38
				c-17-19.21-40.06-27.57-56.74-31.21c-1.1-0.24-2.17-0.45-3.2-0.65c-0.34-0.07-0.67-0.13-1-0.19c-6.07-1.12-11.01-1.6-14.06-1.81
				c-1.86-0.12-3.02-0.14-3.33-0.14c-11.63-0.09-40.24-0.27-63.1,20C654.65,1177.24,652.83,1202.75,652.57,1209.37z"/>
			<path class="dino-style132" d="M742.85,1138.88c0,3.87,3.41,7,7.61,7c2.44,0,4.61-1.05,5.99-2.69c0.79-0.9,1.32-1.98,1.52-3.17
				c0.01-0.01,0.01-0.02,0.01-0.03c0.07-0.36,0.1-0.73,0.1-1.11c0-3.87-3.41-7-7.62-7c-3.88,0-7.09,2.68-7.55,6.14
				C742.87,1138.3,742.85,1138.59,742.85,1138.88z"/>
		</g>
		<path class="dino-style133" d="M750.46,1138.88c1.91,1.3,3.92,2.74,5.99,4.31c12.47,9.48,26.93,23.94,34.01,44.69
			c7.71,22.63,2.46,40.46,0.7,55.45c4.67,4.29,15.5,13.3,31.1,15.55c11.03,1.59,20.7-0.75,27.2-3c-1.13-11.41-3.76-27.61-10.88-46
			c-5.37-13.89-10.08-26.05-20.67-38c-17-19.21-40.06-27.57-56.74-31.21c-1.1-0.24-2.17-0.45-3.2-0.65
			c0.01-0.01,0.01-0.02,0.01-0.03c-0.34-0.05-0.68-0.11-1.01-0.16C754.69,1139.46,752.52,1139.14,750.46,1138.88z"/>
		<path class="dino-style134" d="M797.24,1247.88c-4.42-5.72-11.73-13.75-22.85-21c-13.1-8.54-25.75-12.27-33.72-14
			c-29.69-2.31-59.38-4.63-89.07-6.95c-49.52,26.35-59.96,33.93-59.09,35.49c1.11,2.01,19.61-8.01,46.06-9.4
			c25.24-1.33,41.56,6.03,58.76,11.02C719.32,1249.41,751.95,1254.55,797.24,1247.88z"/>
	</g>
</g>
<g id="lenco">
	<g>
		<path class="dino-style135" d="M825.14,1281.54c-4.67-2.18-11.67-5.56-20-10c-34.97-18.63-47.53-31.54-64-40c-15.15-7.78-38.99-14.57-76-8
			c-0.52-7.84-1.05-31.46,15-48c23.58-24.3,66.69-16.56,91,0c11.45,7.81,17.53,16.76,25,28
			C814.74,1231.53,822.13,1260.03,825.14,1281.54z"/>
		
			<ellipse transform="matrix(0.729 -0.6845 0.6845 0.729 -649.8918 905.4633)" class="dino-style135" cx="818.64" cy="1273.54" rx="15" ry="7.5"/>
		<path class="dino-style135" d="M812.5,1252.75c-0.38,30.42,3.49,94.22,46,149.82c5.54,7.24,23.43,30.64,28.18,27.91
			C895.57,1425.38,851.95,1332.62,812.5,1252.75z"/>
		<path class="dino-style135" d="M821.83,1274.98c4.9,22.07,18.57,67.58,58.79,100.57c5.24,4.3,22.17,18.18,25.14,15.4
			C911.32,1385.75,863.97,1326.05,821.83,1274.98z"/>
		<pattern  id="SVGID_112_" xlink:href="#Vortex_1" patternTransform="matrix(1 0 0 1 -135.6494 43.7362)">
		</pattern>
		<path class="dino-style136" d="M679.97,1175.46c23.58-24.3,66.69-16.56,91,0c11.45,7.81,17.53,16.77,25,28
			c13.59,20.46,21.19,41.18,25.48,59.26c3.38-1.29,6.36-1.22,7.96,0.48c2.66,2.83,0.54,9.21-4.72,14.66
			c0.29,0.59,0.57,1.17,0.86,1.76c41.1,49.97,85.43,106.21,80.04,111.25c-2.97,2.78-19.9-11.1-25.14-15.4
			c-6.71-5.51-12.67-11.37-17.99-17.4c17.73,39.66,28.98,69.51,24.05,72.34c-4.75,2.72-22.64-20.67-28.18-27.91
			c-30.74-40.2-41.27-84.68-44.61-117.74c-2.63,0.65-4.88,0.37-6.19-1.02c-1.96-2.09-1.32-6.1,1.26-10.26
			c-1.24-0.65-2.51-1.31-3.82-2.01c-34.97-18.63-47.53-31.54-64-40c-15.15-7.78-38.99-14.57-76-8
			C664.44,1215.62,663.92,1192,679.97,1175.46z"/>
		<path class="dino-style137" d="M862.64,1358.17c-4.56-11.58-10.29-24.28-17.5-37.64c-8.56-15.86-17.53-29.51-26-41
			c8.2,11.05,14.85,19.67,19,25c14.75,18.94,21.69,26.76,24,40C863.15,1350.29,862.94,1355.15,862.64,1358.17z"/>
		<path class="dino-style137" d="M819.14,1269.93c-8.3-8.22-21.25-19.7-39-30.39c-34.03-20.48-63.8-24.8-63-29c0.58-3.07,17.21-4.62,33,0
			c16.67,4.87,27.09,15.07,46,34C806.43,1254.83,814.19,1263.88,819.14,1269.93z"/>
	</g>
</g>
<g id="gorro">
	<g>
		<path class="dino-style138" d="M653.75,1236.89c5.12-2.35,28.61-12.81,54.09-15.16c16.64-1.55,34.12,0.39,47.88,10.31
			c12.04,8.69,25.95,26.92,28.76,30.62c10.4,13.64,17.42,26.32,21.98,35.71c0.08,0.17,0.16,0.34,0.24,0.5
			c0.04-0.07,0.09-0.19,0.16-0.33c4.08-8.37,17.34-35.56,8.77-57.54c-1.57-4.03-9.71-21.73-11.71-27.85
			c-0.42-1.28-0.72-2.5-0.86-3.67c-0.34-2.48-0.01-4.71,1.32-6.66c1.29-1.89,3.17-3.06,5.41-3.8c2.99-1,6.59-1.27,10.2-1.53
			c19.73-1.44,35.19,10.29,40.38,14.66c15.07,12.69,20.46,28.09,20.53,28.08c-0.04-0.42-12.27-34.04-42.92-67.34
			c-18.77-20.38-34.15-37.1-60.92-44.03c-35.7-9.25-65.35,5.71-69.78,8.03c-41.09,21.48-50.62,66.1-51.88,72.49
			C653.18,1220.67,653.28,1230.34,653.75,1236.89z"/>
		<g>
			<path class="dino-style2" d="M899.66,1225.88c-0.19-2.2,3.33-5.04,2.75-7.08c-0.6-2.1-5.11-2.64-6.09-4.54c-1-1.93,1.16-5.91-0.18-7.59
				c-1.35-1.69-5.72-0.47-7.37-1.86c-1.65-1.39-1.17-5.9-3.07-6.95c-1.88-1.04-5.44,1.75-7.52,1.09c-2.04-0.65-3.32-5-5.5-5.24
				c-2.11-0.24-4.33,3.71-6.52,3.9c-2.2,0.19-5.04-3.33-7.08-2.75c-2.1,0.6-2.64,5.11-4.54,6.09c-1.93,1-5.92-1.16-7.59,0.18
				c-1.69,1.35-0.47,5.72-1.86,7.37c-1.39,1.65-5.9,1.17-6.95,3.07c-1.04,1.88,1.75,5.44,1.09,7.52c-0.65,2.04-5,3.32-5.24,5.5
				c-0.24,2.11,3.71,4.33,3.9,6.52c0.19,2.2-3.33,5.04-2.75,7.08c0.6,2.1,5.11,2.64,6.09,4.54c1,1.93-1.16,5.92,0.18,7.59
				c1.35,1.69,5.72,0.47,7.37,1.86c1.65,1.39,1.17,5.9,3.07,6.95c1.88,1.04,5.44-1.75,7.52-1.09c2.04,0.65,3.32,5,5.5,5.24
				c2.11,0.24,4.33-3.71,6.52-3.9c2.2-0.19,5.04,3.33,7.08,2.75c2.1-0.6,2.64-5.11,4.54-6.09c1.93-1,5.91,1.16,7.59-0.18
				c1.69-1.35,0.47-5.72,1.86-7.37c1.39-1.65,5.9-1.17,6.95-3.07c1.04-1.88-1.75-5.44-1.09-7.52c0.65-2.04,5-3.32,5.24-5.5
				C903.79,1230.29,899.84,1228.07,899.66,1225.88z"/>
		</g>
		<g>
			<defs>
				<path id="SVGID_113_" d="M653.63,1236.22c5.12-2.35,28.61-12.81,54.09-15.16c16.64-1.55,34.12,0.39,47.88,10.31
					c12.04,8.69,25.95,26.92,28.76,30.62c10.4,13.64,17.42,26.32,21.98,35.71c0.08,0.17,0.16,0.34,0.24,0.5
					c0.04-0.07,0.09-0.19,0.16-0.33c4.08-8.37,17.34-35.56,8.77-57.54c-1.57-4.03-9.71-21.73-11.71-27.85
					c-0.42-1.28-0.72-2.5-0.86-3.67c-0.34-2.48-0.01-4.71,1.32-6.66c1.29-1.89,3.17-3.06,5.41-3.8c2.99-1,6.59-1.27,10.2-1.53
					c19.73-1.44,35.19,10.29,40.38,14.66c15.07,12.69,20.46,28.09,20.53,28.08c-0.04-0.42-12.27-34.04-42.92-67.34
					c-18.77-20.38-34.15-37.1-60.92-44.03c-35.7-9.25-65.35,5.71-69.78,8.03c-41.09,21.48-50.62,66.1-51.88,72.49
					C653.05,1220,653.15,1229.66,653.63,1236.22z"/>
			</defs>
			<clipPath id="SVGID_114_">
				<use xlink:href="#SVGID_113_"  style="overflow:visible;"/>
			</clipPath>
			<polygon class="dino-style139" points="714.77,1143.77 703.63,1114.97 697.12,1140.91 665.2,1149.41 684.77,1157.91 671.58,1173.53 
				702.79,1165.09 721.3,1186.74 724.51,1156 747.3,1142.47 			"/>
			<polygon class="dino-style139" points="782.19,1204.12 763.12,1188.49 765.88,1212.53 746.94,1229.18 768.49,1224.26 769.08,1249.42 
				781.87,1222.18 806.8,1225.15 794.59,1210.81 806.62,1188.77 			"/>
			<polygon class="dino-style139" points="815.9,1153.66 822.06,1129.79 801.41,1142.4 778.34,1132.22 791.86,1149.7 769.28,1160.81 
				799.38,1160.96 807.16,1184.83 815.04,1167.72 840.1,1169.37 			"/>
		</g>
		<path class="dino-style140" d="M761.14,1175.04c9.02,3.1,20.77,8.66,30.83,19.27c4.95,5.21,8.47,10.58,11.08,15.16
			c-0.34-2.48-0.01-4.71,1.32-6.66c1.29-1.89,3.17-3.06,5.41-3.8c-0.76-1.9-1.69-3.78-2.82-5.57
			C794.5,1173.61,764.57,1174.85,761.14,1175.04z"/>
		<path class="dino-style140" d="M695.01,1203.01c4.26,6.52,8.54,12.77,12.83,18.72c16.64-1.55,34.12,0.39,47.88,10.31
			c12.04,8.69,25.95,26.92,28.76,30.62c10.4,13.64,17.42,26.32,21.98,35.71c0.19-0.05,0.37-0.1,0.56-0.16
			c13.02-26.84,11.97-45.31,8.62-57.21c-3.11-11.04-9.32-20.39-11.71-27.85c-17.54,0.8-27.23-11.58-41.32-17.85
			C749.87,1189.63,729.15,1187.01,695.01,1203.01z"/>
		<path class="dino-style2" d="M825.92,1268.87l-7.86,22.18c-2.54,7.36-5.35,9.22-7.42,9.58c-8.18,1.41-12.63-19.19-33.34-38.33
			c-11.14-10.29-22.08-15.64-31.83-20.4c-13.72-6.69-24.62-12-39.21-12.75c-16.68-0.85-30.69,4.64-40.32,10
			c-3.18,1.77-7.14,1.18-9.66-1.45c-3.22-3.36-6.97-8.51-8.82-15.63c-1.45-5.59-1.27-10.58-0.69-14.29
			c0.45-2.92,2.45-5.36,5.24-6.33c11.41-3.97,28.44-8.29,49.23-8.01c6.46,0.09,36.71,0.94,69.86,19.19
			c28.04,15.43,45,36.07,53.87,49.03C826.41,1263.78,826.77,1266.45,825.92,1268.87z"/>
	</g>
</g>
</svg>
