<?xml version="1.0" encoding="UTF-8"?>
<svg enable-background="new 0 0 1080 1920" version="1.1" viewBox="150 370 780 1200" xml:space="preserve" xmlns="http://www.w3.org/2000/svg" xmlns:xlink="http://www.w3.org/1999/xlink">
<style type="text/css">
	.dino2-style0{fill:none;}
	.dino2-style1{fill:url(#SVGID_1_);}
	.dino2-style2{fill:#FFFFFF;}
	.dino2-style3{fill:url(#SVGID_2_);}
	.dino2-style4{fill:url(#SVGID_3_);}
	.dino2-style5{fill:url(#SVGID_4_);}
	.dino2-style6{fill:url(#SVGID_5_);}
	.dino2-style7{fill:url(#SVGID_6_);}
	.dino2-style8{fill:url(#SVGID_7_);}
	.dino2-style9{fill:url(#SVGID_8_);}
	.dino2-style10{fill:url(#SVGID_9_);}
	.dino2-style11{fill:url(#SVGID_10_);}
	.dino2-style12{fill:url(#SVGID_11_);}
	.dino2-style13{fill:url(#SVGID_12_);}
	.dino2-style14{fill:url(#SVGID_13_);}
	.dino2-style15{fill:url(#SVGID_14_);}
	.dino2-style16{fill:url(#SVGID_15_);}
	.dino2-style17{fill:url(#SVGID_16_);}
	.dino2-style18{fill:url(#SVGID_17_);}
	.dino2-style19{fill:url(#SVGID_18_);}
	.dino2-style20{fill:url(#SVGID_19_);}
	.dino2-style21{fill:url(#SVGID_20_);}
	.dino2-style22{fill:url(#SVGID_21_);}
	.dino2-style23{fill:url(#SVGID_22_);}
	.dino2-style24{fill:url(#SVGID_23_);}
	.dino2-style25{fill:url(#SVGID_24_);}
	.dino2-style26{fill:url(#SVGID_25_);}
	.dino2-style27{fill:url(#SVGID_26_);}
	.dino2-style28{fill:url(#SVGID_27_);}
	.dino2-style29{fill:url(#SVGID_28_);}
	.dino2-style30{fill:url(#SVGID_29_);}
	.dino2-style31{fill:url(#SVGID_30_);}
	.dino2-style32{fill:url(#SVGID_31_);}
	.dino2-style33{fill:url(#SVGID_32_);}
	.dino2-style34{fill:url(#SVGID_33_);}
	.dino2-style35{fill:url(#SVGID_34_);}
	.dino2-style36{fill:url(#SVGID_35_);}
	.dino2-style37{fill:url(#SVGID_36_);}
	.dino2-style38{fill:url(#SVGID_37_);}
	.dino2-style39{fill:url(#SVGID_38_);}
	.dino2-style40{fill:url(#SVGID_39_);}
	.dino2-style41{fill:url(#SVGID_40_);}
	.dino2-style42{fill:url(#SVGID_41_);}
	.dino2-style43{fill:url(#SVGID_42_);}
	.dino2-style44{fill:url(#SVGID_43_);}
	.dino2-style45{fill:url(#SVGID_44_);}
	.dino2-style46{fill:url(#SVGID_45_);}
	.dino2-style47{fill:url(#SVGID_46_);}
	.dino2-style48{fill:url(#SVGID_47_);}
	.dino2-style49{fill:url(#SVGID_48_);}
	.dino2-style50{fill:url(#SVGID_49_);}
	.dino2-style51{fill:url(#SVGID_50_);}
	.dino2-style52{fill:url(#SVGID_51_);}
	.dino2-style53{fill:url(#SVGID_52_);}
	.dino2-style54{fill:url(#SVGID_53_);}
	.dino2-style55{fill:url(#SVGID_54_);}
	.dino2-style56{fill:url(#SVGID_55_);}
	.dino2-style57{fill:url(#SVGID_56_);}
	.dino2-style58{fill:url(#SVGID_57_);}
	.dino2-style59{fill:url(#SVGID_58_);}
	.dino2-style60{fill:url(#SVGID_59_);}
	.dino2-style61{fill:url(#SVGID_60_);}
	.dino2-style62{fill:url(#SVGID_61_);}
	.dino2-style63{fill:url(#SVGID_62_);}
	.dino2-style64{fill:url(#SVGID_63_);}
	.dino2-style65{fill:url(#SVGID_64_);}
	.dino2-style66{fill:url(#SVGID_65_);}
	.dino2-style67{fill:url(#SVGID_66_);}
	.dino2-style68{fill:url(#SVGID_67_);}
	.dino2-style69{fill:url(#SVGID_68_);}
	.dino2-style70{fill:url(#SVGID_69_);}
	.dino2-style71{fill:url(#SVGID_70_);}
	.dino2-style72{fill:url(#SVGID_71_);}
	.dino2-style73{fill:url(#SVGID_72_);}
	.dino2-style74{fill:url(#SVGID_73_);}
	.dino2-style75{fill:url(#SVGID_74_);}
	.dino2-style76{fill:url(#SVGID_75_);}
	.dino2-style77{fill:url(#SVGID_76_);}
	.dino2-style78{fill:url(#SVGID_77_);}
	.dino2-style79{fill:url(#SVGID_78_);}
	.dino2-style80{fill:url(#SVGID_79_);}
	.dino2-style81{fill:url(#SVGID_80_);}
	.dino2-style82{fill:url(#SVGID_81_);}
	.dino2-style83{fill:url(#SVGID_82_);}
	.dino2-style84{fill:url(#SVGID_83_);}
	.dino2-style85{fill: #FFAFCC;}
	.dino2-style86{fill: #e67ca3;}
	.dino2-style87{fill:#279c92;}
	.dino2-style88{fill:#FFFFFF;stroke:#3E6D51;stroke-width:2;stroke-miterlimit:10;}
	.dino2-style89{clip-path:url(#b);}
	.dino2-style90{clip-path:url(#b);fill:#FFFFFF;}
	.dino2-style91{clip-path:url(#a);}
	.dino2-style92{clip-path:url(#a);fill:#FFFFFF;}
	.dino2-style93{fill:#af758a;}
	.dino2-style94{opacity:0.35;fill:#F2F9D9;}
	.dino2-style95{opacity:0.4;}
	.dino2-style96{fill:#A3B5C9;}
	.dino2-style97{clip-path:url(#SVGID_89_);}
	.dino2-style98{clip-path:url(#SVGID_89_);fill:#FFFFFF;}
	.dino2-style99{clip-path:url(#SVGID_91_);}
	.dino2-style100{clip-path:url(#SVGID_91_);fill:#FFFFFF;}
	.dino2-style101{clip-path:url(#SVGID_93_);}
	.dino2-style102{clip-path:url(#SVGID_93_);fill:#FFFFFF;}
	.dino2-style103{clip-path:url(#SVGID_95_);}
	.dino2-style104{clip-path:url(#SVGID_95_);fill:#FFFFFF;}
	.dino2-style105{fill:#CAE2FF;}
	.dino2-style106{fill:none;stroke:#F7263A;stroke-width:6;stroke-linecap:round;stroke-linejoin:round;stroke-miterlimit:10;}
	.dino2-style107{clip-path:url(#SVGID_97_);}
	.dino2-style108{clip-path:url(#SVGID_97_);fill:#FFFFFF;}
	.dino2-style109{clip-path:url(#SVGID_99_);}
	.dino2-style110{clip-path:url(#SVGID_99_);fill:#FFFFFF;}
	.dino2-style111{clip-path:url(#SVGID_101_);}
	.dino2-style112{clip-path:url(#SVGID_101_);fill:#FFFFFF;}
	.dino2-style113{clip-path:url(#SVGID_103_);}
	.dino2-style114{clip-path:url(#SVGID_103_);fill:#FFFFFF;}
	.dino2-style115{clip-path:url(#SVGID_105_);}
	.dino2-style116{clip-path:url(#SVGID_105_);fill:#FFFFFF;}
	.dino2-style117{clip-path:url(#SVGID_107_);}
	.dino2-style118{clip-path:url(#SVGID_107_);fill:#FFFFFF;}
	.dino2-style119{clip-path:url(#SVGID_109_);}
	.dino2-style120{clip-path:url(#SVGID_109_);fill:#FFFFFF;}
	.dino2-style121{clip-path:url(#SVGID_111_);}
	.dino2-style122{clip-path:url(#SVGID_111_);fill:#FFFFFF;}
	.dino2-style123{fill:#3E6D51;}
	.dino2-style124{fill:#F9E178;}
	.dino2-style125{fill:#FFC0DA;}
	.dino2-style126{fill:#FFCCE3;}
	.dino2-style127{fill:#F7B0D0;}
	.dino2-style128{fill:#F7D02D;}
	.dino2-style129{fill:#F7D548;}
	.dino2-style130{fill:#A54830;}
	.dino2-style131{opacity:0.13;fill:#491913;}
	.dino2-style132{fill:#B55848;}
	.dino2-style133{fill:#F0F6F7;}
	.dino2-style134{opacity:0.2;}
	.dino2-style135{fill:#D3D3D3;}
	.dino2-style136{fill:#FF6F48;}
	.dino2-style137{opacity:0.24;fill:url(#SVGID_112_);}
	.dino2-style138{opacity:0.38;fill:#AD5225;}
	.dino2-style139{fill:#4848D3;}
	.dino2-style140{clip-path:url(#SVGID_114_);fill:#F4E49F;}
	.dino2-style141{opacity:0.64;fill:#1D1D96;}
</style>
<path transform="translate(150,370)" d="m400.74 320.02c-2e-3 0.0176-6e-3 0.0351-8e-3 0.0527a212.83 212.83 0 0 0 8e-3 -0.0137c2e-5 -0.013-2e-5 -0.026 0-0.0391zm-37.346 21.889c-2e-3 0.0274-6e-3 0.0546-8e-3 0.082-0.0231 0.2884-0.0948 1.934-0.125 2.3887 0.0443-1e-3 0.0885-3e-3 0.13282-4e-3z"/><g transform="translate(-5.0777 -18.857)"><g transform="translate(9.606 19.212)">
			<path class="dino2-style85" d="m726.53 1385c15.42-13.5 39.09-13.79 52.92-6 26.13 14.73 36.15 69.07 14.85 132 10.74 2.16 16.61 9.24 15.78 14-0.77 4.47-7.4 6.69-8.36 7h-87.26c-12.75-48.61-9.35-85.83-5.57-107 4-22.39 9.52-32.89 17.64-40z"/>
			<path class="dino2-style86" d="m732.75 989.29c36.36 23.14 67.72 34.02 89.4 39.68 34.07 8.89 64 10.05 80 34 2.03 3.04 11.93 18.56 6 27-4.8 6.83-18.77 8-33.82 1.12 2.39 4.35 2.41 9.31 0 12.87-2.77 4.07-7.59 4.62-8.19 4.68-8.44 0.82-15.82-8.51-17.55-10.53-7.26-8.51-28.1-20.9-88.93-37.44"/>
				<path class="dino2-style87" transform="translate(145.47 369.64)" d="m638.59 18.393c-9.4087-0.24691-18.889 6.4446-21.164 15.693-13.27-10.69-30.669-13.922-44.729-7.7617-19.44 8.51-30.3 34-21.5 58.5-18.33-5.54-37.4 3.1-44.5 18.5-8.27 17.94 1.22 41.79 22.5 49.5-16.97-3.49-34.32 2.47-44.5 15.5-12.93 16.54-11.211 40.492 0.97851 54.682 6.7 7.79 15.13 10.978 19.76 12.318-18.23 4.73-33.309 20.852-36.029 39.602-3.05 21.03 9.7609 43.319 29.461 51.279-21.08 3.93-37.742 19.409-42.182 39.119-3.68 16.36 1.38 34.21 13 46 6.31 6.4 13.181 9.6317 17.551 11.262-24.42 8.42-41.281 30.238-42.551 54.738-1.62 31.31 23.061 50.44 25.131 51.99-3.13-0.05-21.871-0.0202-36.131 15.01-0.79 0.83-17 18.511-12.25 42.631 2.36 11.99 8.8104 20.03 12.15 23.65-17.17-3.73-37.469 6.0792-46.779 21.949-10.23 17.43-9.95 38.951-5 58.801-4.05-0.42-24.349-2.1012-40.109 11.969-16.59 14.8-21.361 40.981-10.861 64.451-27.51 7.34-46.799 29.739-48.139 54.549-1.3 24.13 14.91 40.91 18 44-19.44 0.11-36.86 11.64-44 29-8.01 19.49-1.56 42.71 16 56-20.41-2.25-40.23 8.07-50 26-9.97 18.3-7.59 41.05 6 57-3.41-1.49-27.34-11.47-53 1-26.73 12.99-33.23 39.61-34 43-2.84-1.66-27.75-15.62-56-4-26.37 10.85-34.84 35.44-36 39 11.1-1.77 28.64-4.72 50-9 113.48-22.74 225.05-45.1 239.5-102.5 2.34-9.2997 3.52-25.04-8-48 17-28.67 34-57.33 51-86 18-18.67 36-37.33 54-56l33-66c12.67-31 25.33-62 38-93-1.67-36.67-3.33-73.33-5-110 3-37.67 6-75.33 9-113 7.33-54.67 14.67-109.33 22-164v-28c8.65-44 17.318-88 25.988-132 32.81-20.55 65.622-41.089 98.432-61.639 2.71-10.54-4.4715-22.6-15.021-25.25-1.32-0.33125-2.6618-0.5077-4.0059-0.54297z"/>
			<path class="dino2-style85" transform="translate(145.47 369.64)" d="m627.6 32.289c-11.211-0.18496-20.329 2.5727-23.41 3.5352-74.06 23.1-92.13 156.48-93.5 167.5-0.52 4.2-2.69 22.83-5 45-2.41 23.18-3.99 40.71-5 52-7.86 87.79-7.61 86.54-8.5 95.5-7.6 76.55-11.7 119.69-34 170-11.73 26.47-26.24 50.09-44 79-20.19 32.86-29.08 42.44-47 71-24.92 39.72-40.12 72.25-49.5 92.5-39.79 85.89-33.18 144.18-71 199-15.63 22.65-28.21 40.46-52 54-30.25 17.22-46.31 9.14-90 24-43.21 14.7-83.18 41.73-80 51 2.76 8.05 36.02-3.23 103.5-2.5 12.77 0.14 16.3 1.0899 32.07 1.4199 29.62 0.63 53.53 1.1401 74.43-2.9199 16.44-3.19 44.73-11.88 76-40 13.43 14.09 26.23 21.18 35 25 19.52 8.5 32.92 6.83 108 11 0.36 0.02 0.70102 0.041 1.041 0.061 13.76 0.77 11.32 0.7198 14.52 0.8398 23.66 0.88 75.289 2.7596 130.44-19.9 24.82-10.2 57.83-23.77 81-51 89.92-105.7-22.16-354.21-52.5-421.5-2.39-5.3-18.88-41.56-37.5-91.5-0.84-2.26-1.5895-4.2491-2.2695-6.0391-3.91-10.45-6.0491-16.01-6.8691-18.57-7.5-23.65-10.171-43.381-11.861-60.391-4.73-47.67-7.7-77.56-1-118 0 0 0.92102-20.538 12.041-46.988 0.08-0.19 0.16023-0.39008 0.24023-0.58008 3.84-9.04 8.869-18.76 15.459-28.58 0.17-0.25 0.33-0.49023 0.5-0.74023 0.26-0.38 0.50977-0.75133 0.75977-1.1113 5.43-7.86 10.25-13.22 14.5-16.84 6.93-5.91 12.36-7.1902 16.5-7.1602 5.81 0.04 12.89 3.48 25 9 3.9 1.78 7.2702 3.4698 10.16 4.5898 3.7 1.44 6.6098 1.9202 8.8398 0.41016 2.79-1.88 2.99-5.83 3-6 0.26-6.89-8.6601-12.919-13.08-15.779-0.03-0.02-0.0484-0.0308-0.0684-0.0508-1.48-0.95-2.4416-1.5399-2.3516-1.6699 0.14-0.21 2.3604 1.2406 4.1504 2.0606 1.11 0.51 2.2906 1.0198 3.5606 1.5098 1.82 0.7 3.7998 1.3707 5.9297 1.9707 0.45002 0.13 0.91086 0.24914 1.3809 0.36915 1.58 0.41999 3.2385 0.77984 4.9785 1.0898 10.88 1.93 19.96 0.7 25.5-0.5 0.98-0.65 2.1416-1.4296 3.4316-2.3496 11.71-8.27 34.718-27.61 39.568-57.65 1.15-7.14 4.5-27.85-7-38-5.22-4.61-12.55-5.32-27-7-9.64-1.12-17.65-1.16-23-1 0-0.12 0.0117-0.22961 0.0117-0.34961 0.09-2.03 0.1289-4.0298 0.1289-6.0098 0.16-42.25-15.971-76.381-42.641-88.141-7.3838-3.255-14.863-4.4242-21.59-4.5352z"/>
					<ellipse class="dino2-style88" transform="matrix(.9984 -.0563 .0563 .9984 -25.382 45.16)" cx="788.66" cy="472.97" rx="17.8" ry="27"/>
					<defs>
							<ellipse id="d" transform="matrix(.9984 -.0563 .0563 .9984 -25.382 45.16)" cx="788.66" cy="472.97" rx="17.8" ry="27"/>
					</defs>
					<clipPath id="b">
						<use width="100%" height="100%" xlink:href="#d"/>
					</clipPath>
					<g class="dino2-style89" clip-path="url(#b)">
						<ellipse transform="matrix(.9984 -.0563 .0563 .9984 -26.249 45.261)" cx="790.03" cy="488.42" rx="18" ry="24.5"/>
					</g>
						<ellipse class="dino2-style90" transform="matrix(.9984 -.0563 .0563 .9984 -25.343 44.619)" cx="779.09" cy="472.01" rx="5" ry="5.5" clip-path="url(#b)"/>
					<ellipse class="dino2-style88" transform="matrix(.0558 -.9984 .9984 .0558 338.14 1301.2)" cx="857.04" cy="471.81" rx="23.2" ry="15.29"/>
					<defs>
							<ellipse id="c" transform="matrix(.0558 -.9984 .9984 .0558 338.14 1301.2)" cx="857.04" cy="471.81" rx="23.2" ry="15.29"/>
					</defs>
					<clipPath id="a">
						<use width="100%" height="100%" xlink:href="#c"/>
					</clipPath>
					<g class="dino2-style91" clip-path="url(#a)">
							<ellipse transform="matrix(.0558 -.9984 .9984 .0558 324.54 1313.5)" cx="856.72" cy="485.13" rx="21.05" ry="15.47"/>
					</g>
						<ellipse class="dino2-style92" transform="matrix(.0558 -.9984 .9984 .0558 335.28 1291.9)" cx="850.73" cy="468.7" rx="4.73" ry="4.3" clip-path="url(#a)"/>
			<path class="dino2-style93" d="m774.89 422.49c-8.1 3.78-12.74 13.65-10.69 16.04 1.99 2.33 10.6-2.03 19.25-6.42 7.09-3.59 10.98-5.56 10.69-7.49-0.44-3-11.04-5.96-19.25-2.13z"/>
			<path class="dino2-style93" d="m864.72 420.51c7.99 2.45 13.57 10.99 11.98 13.47-1.54 2.41-10.08-0.51-18.66-3.45-7.03-2.41-10.89-3.73-10.87-5.55 0.02-2.83 9.45-6.95 17.55-4.47z"/>
				<ellipse class="dino2-style93" transform="matrix(.9188 -.3948 .3948 .9188 -140.68 380.26)" cx="853.66" cy="531.97" rx="4.01" ry="6.24"/>
				<ellipse class="dino2-style93" transform="matrix(.2245 -.9745 .9745 .2245 166.47 1269.1)" cx="880.66" cy="529.97" rx="5.72" ry="3.68"/>
				<path class="dino2-style93" d="m837.3 494.61c0 1.98-0.04 3.98-0.13 6.01-7.91 0.1-15.79 0.89-23.57 2.38-1.59 0.31-3.23-0.43-3.69-2.09-0.4-1.48 0.51-3.38 2.1-3.69 8.34-1.61 16.8-2.5 25.29-2.61z"/>
			<path class="dino2-style94" transform="translate(145.47 369.64)" d="m575.69 208.36c-37.44 82.84-43.21 147.82-41 193 1.37 27.91 7.83 90.01-1 159-1.83 14.27-4.99 34.16-12 58-11.52 39.19-26.67 66.02-31 74-26.16 48.19-66.96 161.93-71 249-2.49 53.58 7.441 129.56 35.041 187.06 13.76 0.77 11.32 0.7218 14.52 0.8418 23.66 0.88 75.289 2.7596 130.44-19.9 24.82-10.2 57.83-23.77 81-51 89.92-105.7-22.16-354.21-52.5-421.5-2.39-5.3-18.88-41.56-37.5-91.5-0.84-2.26-1.5895-4.251-2.2695-6.041-4.74-12.47-5.7791-14.29-6.8691-18.57-7.5-23.65-10.171-43.379-11.861-60.389-4.73-47.67-7.7-77.56-1-118 2.48-19.28 7.051-34.76 12.041-46.99 0.08-0.19 0.16023-0.39007 0.24023-0.58007 5.39-13.07 11.239-22.37 15.459-28.58 0.17-0.25 0.33-0.50024 0.5-0.74024 0.26-0.38 0.50977-0.74937 0.75977-1.1094 5.43-7.86 10.25-13.22 14.5-16.84-4.48-2.51-9.51-5.8402-14.5-10.16-11.86-10.27-18.5-21.81-22-29z"/>
			<path class="dino2-style93" d="m821.16 617.97c-0.01 0.17-0.21 4.12-3 6-2.23 1.51-5.14 1.03-8.84-0.41-10.7-6.98-24.83-25.25-33.16-38.59-7.91-12.67-13.29-25.21-12-26 1.58-0.97 8.66 18.52 29 32 12.17 8.07 22.56 9.66 27.52 15.41-4.2-1.07-7.84-2.46-10.87-3.85-1.79-0.82-4.01-2.27-4.15-2.06-0.36 0.53 15.85 8.25 15.5 17.5z"/>
			<path class="dino2-style86" d="m624.98 923.36c-14.34 0.11-17.02 29.01-47.73 97.29-20.35 45.25-32.32 61.92-24.74 84.2 0.8 2.36 8.47 23.77 29.79 31.9 10.76 4.1 29.37 6.48 39.26-3.19 11.35-11.11 6.52-33.54 12.73-34.52 3.26-0.51 5.27 5.55 9.24 4.95 4.59-0.69 7.57-9.66 8-16.98 0.54-9.12-2.81-16.71-4.83-20.49-0.65-1.22-1.18-2.08-1.31-2.28-8.11-13.36 15.94-68.47 7.5-104.75-3.84-16.5-16.04-36.22-27.91-36.13z"/>
			<path class="dino2-style93" d="m845.31 604.55c-1.44-0.09-2.86-0.23-4.28-0.41 0 0-0.44-0.05-0.63-0.08-0.38-0.06-0.75-0.12-1.12-0.18-0.83-0.13-1.65-0.28-2.47-0.44-3.05-0.59-6.06-1.37-9.02-2.33-3.24-1.04-5.56-1.97-8.22-3.23-0.12-0.06-0.24-0.09-0.37-0.14-0.1-0.05-0.2-0.11-0.3-0.16l-0.72-0.33c-0.01 0-0.2-0.09-0.38-0.17 0 0-0.01-0.01-0.04-0.02-0.04-0.02-0.08-0.04-0.11-0.05-0.02-0.01-0.05-0.02-0.08-0.04h-0.01c0-0.01 0-0.01-0.01-0.01s-0.02-0.01-0.03-0.01c-0.01-0.01-0.02-0.01-0.02-0.01s-0.01 0-0.01-0.01c0 0-0.01 0-0.02-0.01h-0.01c-0.08-0.04-0.16-0.08-0.19-0.1-0.24-0.11-0.48-0.23-0.72-0.34-1.06-0.52-2.12-1.06-3.17-1.62-2.04-1.08-4.05-2.23-6.02-3.43-3.88-2.38-7.62-4.99-11.2-7.81-0.82-0.64-1.64-1.31-2.44-1.98-0.01-0.02-0.04-0.04-0.07-0.06s-0.07-0.05-0.1-0.08c-0.22-0.19-0.55-0.48-0.63-0.54-0.5-0.44-0.99-0.87-1.48-1.31-1.67-1.5-3.3-3.05-4.88-4.64-3.26-3.28-6.32-6.75-9.16-10.4-0.77-0.99-1.52-1.99-2.26-3-0.13-0.2-0.27-0.38-0.41-0.57l-0.01-0.01c-0.01-0.01-0.01-0.02-0.02-0.03 0-0.01-0.01-0.02-0.02-0.03 0-0.02-0.02-0.04-0.04-0.06 0-0.01-0.01-0.02-0.02-0.03-0.02-0.03-0.04-0.07-0.07-0.11-0.38-0.54-0.75-1.08-1.12-1.63-0.65-0.96-1.29-1.94-1.9-2.92 6.52-2.7 13.78-5.93 16.55-12.77 0.88-2.19-0.69-5.06-2.91-5.66-2.5-0.68-4.72 0.57-5.66 2.91-0.03 0.07-0.04 0.11-0.06 0.16-0.02 0.03-0.04 0.05-0.07 0.09-0.13 0.18-0.25 0.36-0.37 0.55-0.01 0-0.31 0.42-0.44 0.55-0.26 0.26-0.53 0.51-0.8 0.74-0.21 0.18-0.42 0.34-0.64 0.51 0.31-0.25-0.42 0.29-0.53 0.36-0.64 0.4-1.29 0.77-1.96 1.12-3.05 1.62-6.23 3.05-9.43 4.35-0.42 0.17-0.83 0.34-1.25 0.5-0.09 0.03-0.55 0.21-0.74 0.28-0.79 0.29-1.58 0.57-2.38 0.83-1.69 0.55-3.41 1.04-5.15 1.44-1.65 0.38-3.33 0.68-5.01 0.89-0.2 0.02-0.4 0.05-0.6 0.07-0.43 0.03-0.86 0.06-1.29 0.08-0.96 0.05-1.92 0.05-2.89 0.03-2.35-0.05-4.69 1.85-4.68 4.31 0.01 2.4 1.79 4.63 4.31 4.68 5.99 0.13 11.79-0.99 17.42-2.79 9.59 15.65 22.8 29.05 38.36 38.82 2.18 1.37 4.41 2.66 6.68 3.87 0.02 0.02 0.04 0.03 0.07 0.05l4.62 1.57c0.22 0.09 0.44 0.17 0.66 0.26 0 0.01 0 0.01 0.01 0.02 0.2 0.08 0.4 0.15 0.6 0.22 0.15 0.06 0.31 0.11 0.46 0.17 0.63 0.23 1.29 0.46 1.96 0.68 0.23 0.08 0.47 0.15 0.7 0.23 0.72 0.23 1.45 0.45 2.21 0.67 0.45 0.13 0.91 0.25 1.38 0.37 1.58 0.42 3.24 0.78 4.98 1.09 10.88 1.93 19.96 0.7 25.5-0.5 0.98-0.65 2.14-1.43 3.43-2.35-3.07 0.16-6.18 0.14-9.26-0.07z"/>
			<path class="dino2-style85" d="m513.52 1332.1c22.43-18.36 56.86-18.75 76.97-8.16 38.01 20.02 52.58 93.89 21.6 179.44 15.62 2.94 24.15 12.56 22.95 19.03-1.12 6.07-10.76 9.09-12.15 9.52h-126.92c-18.54-66.08-13.61-116.67-8.1-145.45 5.82-30.44 13.85-44.71 25.65-54.38z"/>
			<g class="dino2-style95">
				<path class="dino2-style86" d="m812.08 512.2c0.23 1.92-4.37 4.04-10.26 4.75-5.9 0.7-10.86-0.28-11.09-2.2s4.37-4.04 10.26-4.75c5.9-0.71 10.86 0.28 11.09 2.2z"/>
				<ellipse class="dino2-style86" cx="835.16" cy="507.97" rx="5" ry="2"/>
				<ellipse class="dino2-style86" cx="777.16" cy="519.97" rx="5" ry="2"/>
					<ellipse class="dino2-style86" transform="matrix(.9984 -.0563 .0563 .9984 -27.977 47.565)" cx="830.04" cy="520.23" rx="9.01" ry="2.25"/>
				<ellipse class="dino2-style86" cx="864.16" cy="507.97" rx="7" ry="2"/>
				<ellipse class="dino2-style86" cx="879.66" cy="516.97" rx="6.5" ry="2"/>
					<ellipse class="dino2-style86" transform="matrix(.1538 -.9881 .9881 .1538 149.22 1186.2)" cx="767.16" cy="505.97" rx="4" ry="10"/>
					<ellipse class="dino2-style86" transform="matrix(.338 -.9412 .9412 .338 -782.47 1238.5)" cx="489.16" cy="1175.5" rx="42.5" ry="10"/>
					<ellipse class="dino2-style86" transform="matrix(.338 -.9412 .9412 .338 -880.41 1252.4)" cx="450.03" cy="1252" rx="26.38" ry="6.21"/>
					<ellipse class="dino2-style86" transform="matrix(.338 -.9412 .9412 .338 -847.25 1280.6)" cx="486.63" cy="1242.5" rx="13.07" ry="6.31"/>
					<ellipse class="dino2-style86" transform="rotate(-53.13 544.65 1065.5)" cx="544.63" cy="1065.5" rx="13.07" ry="6.31"/>
					<ellipse class="dino2-style86" transform="matrix(.9915 -.1305 .1305 .9915 -188.27 49.506)" cx="283.66" cy="1461.5" rx="21.5" ry="7.5"/>
					<ellipse class="dino2-style86" transform="matrix(.9118 -.4107 .4107 .9118 -588.55 219.69)" cx="217.06" cy="1479.7" rx="15.8" ry="4.11"/>
					<ellipse class="dino2-style86" transform="matrix(.9774 -.2112 .2112 .9774 -307.27 86.371)" cx="250.66" cy="1481.5" rx="11.5" ry="4.5"/>
					<ellipse class="dino2-style86" transform="matrix(.7071 -.7071 .7071 .7071 -876.7 693.4)" cx="398.66" cy="1405" rx="24.5" ry="7"/>
					<ellipse class="dino2-style86" transform="matrix(.4272 -.9042 .9042 .4272 -32.702 905.32)" cx="698.16" cy="478.47" rx="25.5" ry="7"/>
					<ellipse class="dino2-style86" transform="matrix(.2281 -.9736 .9736 .2281 -42.849 1092.5)" cx="667.54" cy="573.25" rx="15.64" ry="4.35"/>
					<ellipse class="dino2-style86" transform="matrix(.2281 -.9736 .9736 .2281 14.666 1059.5)" cx="675.52" cy="520.5" rx="7.87" ry="3.53"/>
			</g>
			<path class="dino2-style2" transform="translate(145.47 369.64)" d="m519.67 380.21c-5.4-0.1-9.24 2.47-16 7-5.8 3.88-9.069 6.0696-8.959 8.5996 0.24 5.78 18.029 9.3304 23.959 10.4 5.14-0.26 24.951-1.5196 25.961-7.5996 0.49-2.97-3.6509-6.2204-8.9609-10.4-5.86-4.6-10.04-7.89-16-8zm-9.5 8.4004c1.93 0 3.5 0.93961 3.5 2.0996s-1.57 2.0996-3.5 2.0996-3.5-0.93961-3.5-2.0996 1.57-2.0996 3.5-2.0996zm20 1c1.93 0 3.5 0.93961 3.5 2.0996s-1.57 2.0996-3.5 2.0996-3.5-0.93961-3.5-2.0996 1.57-2.0996 3.5-2.0996zm-27 4c1.93 0 3.5 0.93961 3.5 2.0996s-1.57 2.0996-3.5 2.0996-3.5-0.93961-3.5-2.0996 1.57-2.0996 3.5-2.0996zm32 2c1.93 0 3.5 0.93961 3.5 2.0996s-1.57 2.0996-3.5 2.0996-3.5-0.93961-3.5-2.0996 1.57-2.0996 3.5-2.0996z"/>
			<path class="dino2-style96" d="m658.14 780.85c2.36-8.58 4.72-17.17 7.08-25.75 0.97 8.58 1.95 17.17 2.92 25.75-0.83 7.62-3.06 13-5 13s-4.17-5.38-5-13z"/>
</g><path transform="translate(155.08 388.86)" d="m363.4 341.91c-2e-3 0.0274-6e-3 0.0546-8e-3 0.082-0.0231 0.2884-0.0948 1.934-0.125 2.3887 0.0443-1e-3 0.0885-3e-3 0.13282-4e-3v-2.4668z"/></g><circle cx="382.08" cy="615.66" r="183.4" fill="#279c92"/><circle cx="382.12" cy="615.7" r="155.13" fill="#ffafcc"/></svg>
