<?xml version="1.0" encoding="UTF-8"?>
<svg enable-background="new 0 0 1080 1920" version="1.1" viewBox="150 370 780 1200" xml:space="preserve" xmlns="http://www.w3.org/2000/svg" xmlns:xlink="http://www.w3.org/1999/xlink">
<style type="text/css">
	.dino-style0{fill:none;}
	.dino-style1{fill:url(#SVGID_1_);}
	.dino-style2{fill:#FFFFFF;}
	.dino-style3{fill:url(#SVGID_2_);}
	.dino-style4{fill:url(#SVGID_3_);}
	.dino-style5{fill:url(#SVGID_4_);}
	.dino-style6{fill:url(#SVGID_5_);}
	.dino-style7{fill:url(#SVGID_6_);}
	.dino-style8{fill:url(#SVGID_7_);}
	.dino-style9{fill:url(#SVGID_8_);}
	.dino-style10{fill:url(#SVGID_9_);}
	.dino-style11{fill:url(#SVGID_10_);}
	.dino-style12{fill:url(#SVGID_11_);}
	.dino-style13{fill:url(#SVGID_12_);}
	.dino-style14{fill:url(#SVGID_13_);}
	.dino-style15{fill:url(#SVGID_14_);}
	.dino-style16{fill:url(#SVGID_15_);}
	.dino-style17{fill:url(#SVGID_16_);}
	.dino-style18{fill:url(#SVGID_17_);}
	.dino-style19{fill:url(#SVGID_18_);}
	.dino-style20{fill:url(#SVGID_19_);}
	.dino-style21{fill:url(#SVGID_20_);}
	.dino-style22{fill:url(#SVGID_21_);}
	.dino-style23{fill:url(#SVGID_22_);}
	.dino-style24{fill:url(#SVGID_23_);}
	.dino-style25{fill:url(#SVGID_24_);}
	.dino-style26{fill:url(#SVGID_25_);}
	.dino-style27{fill:url(#SVGID_26_);}
	.dino-style28{fill:url(#SVGID_27_);}
	.dino-style29{fill:url(#SVGID_28_);}
	.dino-style30{fill:url(#SVGID_29_);}
	.dino-style31{fill:url(#SVGID_30_);}
	.dino-style32{fill:url(#SVGID_31_);}
	.dino-style33{fill:url(#SVGID_32_);}
	.dino-style34{fill:url(#SVGID_33_);}
	.dino-style35{fill:url(#SVGID_34_);}
	.dino-style36{fill:url(#SVGID_35_);}
	.dino-style37{fill:url(#SVGID_36_);}
	.dino-style38{fill:url(#SVGID_37_);}
	.dino-style39{fill:url(#SVGID_38_);}
	.dino-style40{fill:url(#SVGID_39_);}
	.dino-style41{fill:url(#SVGID_40_);}
	.dino-style42{fill:url(#SVGID_41_);}
	.dino-style43{fill:url(#SVGID_42_);}
	.dino-style44{fill:url(#SVGID_43_);}
	.dino-style45{fill:url(#SVGID_44_);}
	.dino-style46{fill:url(#SVGID_45_);}
	.dino-style47{fill:url(#SVGID_46_);}
	.dino-style48{fill:url(#SVGID_47_);}
	.dino-style49{fill:url(#SVGID_48_);}
	.dino-style50{fill:url(#SVGID_49_);}
	.dino-style51{fill:url(#SVGID_50_);}
	.dino-style52{fill:url(#SVGID_51_);}
	.dino-style53{fill:url(#SVGID_52_);}
	.dino-style54{fill:url(#SVGID_53_);}
	.dino-style55{fill:url(#SVGID_54_);}
	.dino-style56{fill:url(#SVGID_55_);}
	.dino-style57{fill:url(#SVGID_56_);}
	.dino-style58{fill:url(#SVGID_57_);}
	.dino-style59{fill:url(#SVGID_58_);}
	.dino-style60{fill:url(#SVGID_59_);}
	.dino-style61{fill:url(#SVGID_60_);}
	.dino-style62{fill:url(#SVGID_61_);}
	.dino-style63{fill:url(#SVGID_62_);}
	.dino-style64{fill:url(#SVGID_63_);}
	.dino-style65{fill:url(#SVGID_64_);}
	.dino-style66{fill:url(#SVGID_65_);}
	.dino-style67{fill:url(#SVGID_66_);}
	.dino-style68{fill:url(#SVGID_67_);}
	.dino-style69{fill:url(#SVGID_68_);}
	.dino-style70{fill:url(#SVGID_69_);}
	.dino-style71{fill:url(#SVGID_70_);}
	.dino-style72{fill:url(#SVGID_71_);}
	.dino-style73{fill:url(#SVGID_72_);}
	.dino-style74{fill:url(#SVGID_73_);}
	.dino-style75{fill:url(#SVGID_74_);}
	.dino-style76{fill:url(#SVGID_75_);}
	.dino-style77{fill:url(#SVGID_76_);}
	.dino-style78{fill:url(#SVGID_77_);}
	.dino-style79{fill:url(#SVGID_78_);}
	.dino-style80{fill:url(#SVGID_79_);}
	.dino-style81{fill:url(#SVGID_80_);}
	.dino-style82{fill:url(#SVGID_81_);}
	.dino-style83{fill:url(#SVGID_82_);}
	.dino-style84{fill:url(#SVGID_83_);}
	.dino-style85{fill:#69AF85;}
	.dino-style86{fill:#539B70;}
	.dino-style87{fill:#B460C6;}
	.dino-style88{fill:#FFFFFF;stroke:#3E6D51;stroke-width:2;stroke-miterlimit:10;}
	.dino-style89{clip-path:url(#b);}
	.dino-style90{clip-path:url(#b);fill:#FFFFFF;}
	.dino-style91{clip-path:url(#a);}
	.dino-style92{clip-path:url(#a);fill:#FFFFFF;}
	.dino-style93{fill:#3F7555;}
	.dino-style94{opacity:0.35;fill:#F2F9D9;}
	.dino-style95{opacity:0.4;}
	.dino-style96{fill:#A3B5C9;}
	.dino-style97{clip-path:url(#SVGID_89_);}
	.dino-style98{clip-path:url(#SVGID_89_);fill:#FFFFFF;}
	.dino-style99{clip-path:url(#SVGID_91_);}
	.dino-style100{clip-path:url(#SVGID_91_);fill:#FFFFFF;}
	.dino-style101{clip-path:url(#SVGID_93_);}
	.dino-style102{clip-path:url(#SVGID_93_);fill:#FFFFFF;}
	.dino-style103{clip-path:url(#SVGID_95_);}
	.dino-style104{clip-path:url(#SVGID_95_);fill:#FFFFFF;}
	.dino-style105{fill:#CAE2FF;}
	.dino-style106{fill:none;stroke:#F7263A;stroke-width:6;stroke-linecap:round;stroke-linejoin:round;stroke-miterlimit:10;}
	.dino-style107{clip-path:url(#SVGID_97_);}
	.dino-style108{clip-path:url(#SVGID_97_);fill:#FFFFFF;}
	.dino-style109{clip-path:url(#SVGID_99_);}
	.dino-style110{clip-path:url(#SVGID_99_);fill:#FFFFFF;}
	.dino-style111{clip-path:url(#SVGID_101_);}
	.dino-style112{clip-path:url(#SVGID_101_);fill:#FFFFFF;}
	.dino-style113{clip-path:url(#SVGID_103_);}
	.dino-style114{clip-path:url(#SVGID_103_);fill:#FFFFFF;}
	.dino-style115{clip-path:url(#SVGID_105_);}
	.dino-style116{clip-path:url(#SVGID_105_);fill:#FFFFFF;}
	.dino-style117{clip-path:url(#SVGID_107_);}
	.dino-style118{clip-path:url(#SVGID_107_);fill:#FFFFFF;}
	.dino-style119{clip-path:url(#SVGID_109_);}
	.dino-style120{clip-path:url(#SVGID_109_);fill:#FFFFFF;}
	.dino-style121{clip-path:url(#SVGID_111_);}
	.dino-style122{clip-path:url(#SVGID_111_);fill:#FFFFFF;}
	.dino-style123{fill:#3E6D51;}
	.dino-style124{fill:#F9E178;}
	.dino-style125{fill:#FFC0DA;}
	.dino-style126{fill:#FFCCE3;}
	.dino-style127{fill:#F7B0D0;}
	.dino-style128{fill:#F7D02D;}
	.dino-style129{fill:#F7D548;}
	.dino-style130{fill:#A54830;}
	.dino-style131{opacity:0.13;fill:#491913;}
	.dino-style132{fill:#B55848;}
	.dino-style133{fill:#F0F6F7;}
	.dino-style134{opacity:0.2;}
	.dino-style135{fill:#D3D3D3;}
	.dino-style136{fill:#FF6F48;}
	.dino-style137{opacity:0.24;fill:url(#SVGID_112_);}
	.dino-style138{opacity:0.38;fill:#AD5225;}
	.dino-style139{fill:#4848D3;}
	.dino-style140{clip-path:url(#SVGID_114_);fill:#F4E49F;}
	.dino-style141{opacity:0.64;fill:#1D1D96;}
</style>
			<path class="dino-style85" d="m726.53 1385c15.42-13.5 39.09-13.79 52.92-6 26.13 14.73 36.15 69.07 14.85 132 10.74 2.16 16.61 9.24 15.78 14-0.77 4.47-7.4 6.69-8.36 7h-87.26c-12.75-48.61-9.35-85.83-5.57-107 4-22.39 9.52-32.89 17.64-40z"/>
			<path class="dino-style86" d="m732.75 989.29c36.36 23.14 67.72 34.02 89.4 39.68 34.07 8.89 64 10.05 80 34 2.03 3.04 11.93 18.56 6 27-4.8 6.83-18.77 8-33.82 1.12 2.39 4.35 2.41 9.31 0 12.87-2.77 4.07-7.59 4.62-8.19 4.68-8.44 0.82-15.82-8.51-17.55-10.53-7.26-8.51-28.1-20.9-88.93-37.44"/>
				<path class="dino-style87" d="m704.66 475.47c32.81-20.55 65.62-41.09 98.43-61.64 2.71-10.54-4.47-22.6-15.02-25.25-10.56-2.65-22.57 4.58-25.17 15.15-13.27-10.69-30.67-13.92-44.73-7.76-19.44 8.51-30.3 34-21.5 58.5-18.33-5.54-37.4 3.1-44.5 18.5-8.27 17.94 1.22 41.79 22.5 49.5-16.97-3.49-34.32 2.47-44.5 15.5-12.93 16.54-11.21 40.49 0.98 54.68 6.7 7.79 15.13 10.98 19.76 12.32-18.23 4.73-33.31 20.85-36.03 39.6-3.05 21.03 9.76 43.32 29.46 51.28-21.08 3.93-37.74 19.41-42.18 39.12-3.68 16.36 1.38 34.21 13 46 6.31 6.4 13.18 9.63 17.55 11.26-24.42 8.42-41.28 30.24-42.55 54.74-1.62 31.31 23.06 50.44 25.13 51.99-3.13-0.05-21.87-0.02-36.13 15.01-0.79 0.83-17 18.51-12.25 42.63 2.36 11.99 8.81 20.03 12.15 23.65-17.17-3.73-37.47 6.08-46.78 21.95-10.23 17.43-9.95 38.95-5 58.8-4.05-0.42-24.35-2.1-40.11 11.97-16.59 14.8-21.36 40.98-10.86 64.45-27.51 7.34-46.8 29.74-48.14 54.55-1.3 24.13 14.91 40.91 18 44-19.44 0.11-36.86 11.64-44 29-8.01 19.49-1.56 42.71 16 56-20.41-2.25-40.23 8.07-50 26-9.97 18.3-7.59 41.05 6 57-3.41-1.49-27.34-11.47-53 1-26.73 12.99-33.23 39.61-34 43-2.84-1.66-27.75-15.62-56-4-26.37 10.85-34.84 35.44-36 39 11.1-1.77 28.64-4.72 50-9 113.48-22.74 225.05-45.1 239.5-102.5 2.34-9.3 3.52-25.04-8-48 17-28.67 34-57.33 51-86 18-18.67 36-37.33 54-56l33-66c12.67-31 25.33-62 38-93-1.67-36.67-3.33-73.33-5-110 3-37.67 6-75.33 9-113 7.33-54.67 14.67-109.33 22-164v-28c8.65-44 17.32-88 25.99-132z"/>
			<path class="dino-style85" d="m894.16 546.97c-4.85 30.04-27.86 49.38-39.57 57.65-1.29 0.92-2.45 1.7-3.43 2.35-5.54 1.2-14.62 2.43-25.5 0.5-1.74-0.31-3.4-0.67-4.98-1.09-0.47-0.12-0.93-0.24-1.38-0.37-2.13-0.6-4.11-1.27-5.93-1.97-1.27-0.49-2.45-1-3.56-1.51-1.79-0.82-4.01-2.27-4.15-2.06-0.09 0.13 0.87 0.72 2.35 1.67 0.02 0.02 0.04 0.03 0.07 0.05 4.42 2.86 13.34 8.89 13.08 15.78-0.01 0.17-0.21 4.12-3 6-2.23 1.51-5.14 1.03-8.84-0.41-2.89-1.12-6.26-2.81-10.16-4.59-12.11-5.52-19.19-8.96-25-9-4.14-0.03-9.57 1.25-16.5 7.16-4.25 3.62-9.07 8.98-14.5 16.84-0.25 0.36-0.5 0.73-0.76 1.11-0.17 0.25-0.33 0.49-0.5 0.74-6.59 9.82-11.62 19.54-15.46 28.58-0.08 0.19-0.16 0.39-0.24 0.58-11.12 26.45-12.04 46.99-12.04 46.99-6.7 40.44-3.73 70.33 1 118 1.69 17.01 4.36 36.74 11.86 60.39 0.82 2.56 2.96 8.12 6.87 18.57 0.68 1.79 1.43 3.78 2.27 6.04 18.62 49.94 35.11 86.2 37.5 91.5 30.34 67.29 142.42 315.8 52.5 421.5-23.17 27.23-56.18 40.8-81 51-55.15 22.66-106.78 20.78-130.44 19.9-3.2-0.12-0.76-0.07-14.52-0.84-0.34-0.02-0.68-0.04-1.04-0.06-75.08-4.17-88.48-2.5-108-11-8.77-3.82-21.57-10.91-35-25-31.27 28.12-59.56 36.81-76 40-20.9 4.06-44.81 3.55-74.43 2.92-15.77-0.33-19.3-1.28-32.07-1.42-67.48-0.73-100.74 10.55-103.5 2.5-3.18-9.27 36.79-36.3 80-51 43.69-14.86 59.75-6.78 90-24 23.79-13.54 36.37-31.35 52-54 37.82-54.82 31.21-113.11 71-199 9.38-20.25 24.58-52.78 49.5-92.5 17.92-28.56 26.81-38.14 47-71 17.76-28.91 32.27-52.53 44-79 22.3-50.31 26.4-93.45 34-170 0.89-8.96 0.64-7.71 8.5-95.5 1.01-11.29 2.59-28.82 5-52 2.31-22.17 4.48-40.8 5-45 1.37-11.02 19.44-144.4 93.5-167.5 4.93-1.54 25.31-7.68 45 1 26.67 11.76 42.8 45.89 42.64 88.14 0 1.98-0.04 3.98-0.13 6.01 0 0.12-0.01 0.23-0.01 0.35 5.35-0.16 13.36-0.12 23 1 14.45 1.68 21.78 2.39 27 7 11.5 10.15 8.15 30.86 7 38z"/>
					<ellipse class="dino-style88" transform="matrix(.9984 -.0563 .0563 .9984 -25.382 45.16)" cx="788.66" cy="472.97" rx="17.8" ry="27"/>
					<defs>
							<ellipse id="d" transform="matrix(.9984 -.0563 .0563 .9984 -25.382 45.16)" cx="788.66" cy="472.97" rx="17.8" ry="27"/>
					</defs>
					<clipPath id="b">
						<use xlink:href="#d"/>
					</clipPath>
					<g class="dino-style89" clip-path="url(#b)">
						<ellipse transform="matrix(.9984 -.0563 .0563 .9984 -26.249 45.261)" cx="790.03" cy="488.42" rx="18" ry="24.5"/>
					</g>
						<ellipse class="dino-style90" transform="matrix(.9984 -.0563 .0563 .9984 -25.343 44.619)" cx="779.09" cy="472.01" rx="5" ry="5.5" clip-path="url(#b)"/>
					<ellipse class="dino-style88" transform="matrix(.0558 -.9984 .9984 .0558 338.14 1301.2)" cx="857.04" cy="471.81" rx="23.2" ry="15.29"/>
					<defs>
							<ellipse id="c" transform="matrix(.0558 -.9984 .9984 .0558 338.14 1301.2)" cx="857.04" cy="471.81" rx="23.2" ry="15.29"/>
					</defs>
					<clipPath id="a">
						<use xlink:href="#c"/>
					</clipPath>
					<g class="dino-style91" clip-path="url(#a)">
							<ellipse transform="matrix(.0558 -.9984 .9984 .0558 324.54 1313.5)" cx="856.72" cy="485.13" rx="21.05" ry="15.47"/>
					</g>
						<ellipse class="dino-style92" transform="matrix(.0558 -.9984 .9984 .0558 335.28 1291.9)" cx="850.73" cy="468.7" rx="4.73" ry="4.3" clip-path="url(#a)"/>
			<path class="dino-style93" d="m774.89 422.49c-8.1 3.78-12.74 13.65-10.69 16.04 1.99 2.33 10.6-2.03 19.25-6.42 7.09-3.59 10.98-5.56 10.69-7.49-0.44-3-11.04-5.96-19.25-2.13z"/>
			<path class="dino-style93" d="m864.72 420.51c7.99 2.45 13.57 10.99 11.98 13.47-1.54 2.41-10.08-0.51-18.66-3.45-7.03-2.41-10.89-3.73-10.87-5.55 0.02-2.83 9.45-6.95 17.55-4.47z"/>
				<ellipse class="dino-style93" transform="matrix(.9188 -.3948 .3948 .9188 -140.68 380.26)" cx="853.66" cy="531.97" rx="4.01" ry="6.24"/>
				<ellipse class="dino-style93" transform="matrix(.2245 -.9745 .9745 .2245 166.47 1269.1)" cx="880.66" cy="529.97" rx="5.72" ry="3.68"/>
				<path class="dino-style93" d="m837.3 494.61c0 1.98-0.04 3.98-0.13 6.01-7.91 0.1-15.79 0.89-23.57 2.38-1.59 0.31-3.23-0.43-3.69-2.09-0.4-1.48 0.51-3.38 2.1-3.69 8.34-1.61 16.8-2.5 25.29-2.61z"/>
			<path class="dino-style94" d="m826.16 1428c-23.17 27.23-56.18 40.8-81 51-55.15 22.66-106.78 20.78-130.44 19.9-3.2-0.12-0.76-0.07-14.52-0.84-27.6-57.5-37.53-133.48-35.04-187.06 4.04-87.07 44.84-200.81 71-249 4.33-7.98 19.48-34.81 31-74 7.01-23.84 10.17-43.73 12-58 8.83-68.99 2.37-131.09 1-159-2.21-45.18 3.56-110.16 41-193 3.5 7.19 10.14 18.73 22 29 4.99 4.32 10.02 7.65 14.5 10.16-4.25 3.62-9.07 8.98-14.5 16.84-0.25 0.36-0.5 0.73-0.76 1.11-0.17 0.24-0.33 0.49-0.5 0.74-4.22 6.21-10.07 15.51-15.46 28.58-0.08 0.19-0.16 0.39-0.24 0.58-4.99 12.23-9.56 27.71-12.04 46.99-6.7 40.44-3.73 70.33 1 118 1.69 17.01 4.36 36.74 11.86 60.39 1.09 4.28 2.13 6.1 6.87 18.57 0.68 1.79 1.43 3.78 2.27 6.04 18.62 49.94 35.11 86.2 37.5 91.5 30.34 67.29 142.42 315.8 52.5 421.5z"/>
			<path class="dino-style93" d="m821.16 617.97c-0.01 0.17-0.21 4.12-3 6-2.23 1.51-5.14 1.03-8.84-0.41-10.7-6.98-24.83-25.25-33.16-38.59-7.91-12.67-13.29-25.21-12-26 1.58-0.97 8.66 18.52 29 32 12.17 8.07 22.56 9.66 27.52 15.41-4.2-1.07-7.84-2.46-10.87-3.85-1.79-0.82-4.01-2.27-4.15-2.06-0.36 0.53 15.85 8.25 15.5 17.5z"/>
			<path class="dino-style86" d="m624.98 923.36c-14.34 0.11-17.02 29.01-47.73 97.29-20.35 45.25-32.32 61.92-24.74 84.2 0.8 2.36 8.47 23.77 29.79 31.9 10.76 4.1 29.37 6.48 39.26-3.19 11.35-11.11 6.52-33.54 12.73-34.52 3.26-0.51 5.27 5.55 9.24 4.95 4.59-0.69 7.57-9.66 8-16.98 0.54-9.12-2.81-16.71-4.83-20.49-0.65-1.22-1.18-2.08-1.31-2.28-8.11-13.36 15.94-68.47 7.5-104.75-3.84-16.5-16.04-36.22-27.91-36.13z"/>
			<path class="dino-style93" d="m845.31 604.55c-1.44-0.09-2.86-0.23-4.28-0.41 0 0-0.44-0.05-0.63-0.08-0.38-0.06-0.75-0.12-1.12-0.18-0.83-0.13-1.65-0.28-2.47-0.44-3.05-0.59-6.06-1.37-9.02-2.33-3.24-1.04-5.56-1.97-8.22-3.23-0.12-0.06-0.24-0.09-0.37-0.14-0.1-0.05-0.2-0.11-0.3-0.16l-0.72-0.33c-0.01 0-0.2-0.09-0.38-0.17 0 0-0.01-0.01-0.04-0.02-0.04-0.02-0.08-0.04-0.11-0.05-0.02-0.01-0.05-0.02-0.08-0.04h-0.01c0-0.01 0-0.01-0.01-0.01s-0.02-0.01-0.03-0.01c-0.01-0.01-0.02-0.01-0.02-0.01s-0.01 0-0.01-0.01c0 0-0.01 0-0.02-0.01h-0.01c-0.08-0.04-0.16-0.08-0.19-0.1-0.24-0.11-0.48-0.23-0.72-0.34-1.06-0.52-2.12-1.06-3.17-1.62-2.04-1.08-4.05-2.23-6.02-3.43-3.88-2.38-7.62-4.99-11.2-7.81-0.82-0.64-1.64-1.31-2.44-1.98-0.01-0.02-0.04-0.04-0.07-0.06s-0.07-0.05-0.1-0.08c-0.22-0.19-0.55-0.48-0.63-0.54-0.5-0.44-0.99-0.87-1.48-1.31-1.67-1.5-3.3-3.05-4.88-4.64-3.26-3.28-6.32-6.75-9.16-10.4-0.77-0.99-1.52-1.99-2.26-3-0.13-0.2-0.27-0.38-0.41-0.57l-0.01-0.01s-0.01-0.02-0.02-0.03c0-0.01-0.01-0.02-0.02-0.03 0-0.02-0.02-0.04-0.04-0.06 0-0.01-0.01-0.02-0.02-0.03-0.02-0.03-0.04-0.07-0.07-0.11-0.38-0.54-0.75-1.08-1.12-1.63-0.65-0.96-1.29-1.94-1.9-2.92 6.52-2.7 13.78-5.93 16.55-12.77 0.88-2.19-0.69-5.06-2.91-5.66-2.5-0.68-4.72 0.57-5.66 2.91-0.03 0.07-0.04 0.11-0.06 0.16-0.02 0.03-0.04 0.05-0.07 0.09-0.13 0.18-0.25 0.36-0.37 0.55-0.01 0-0.31 0.42-0.44 0.55-0.26 0.26-0.53 0.51-0.8 0.74-0.21 0.18-0.42 0.34-0.64 0.51 0.31-0.25-0.42 0.29-0.53 0.36-0.64 0.4-1.29 0.77-1.96 1.12-3.05 1.62-6.23 3.05-9.43 4.35-0.42 0.17-0.83 0.34-1.25 0.5-0.09 0.03-0.55 0.21-0.74 0.28-0.79 0.29-1.58 0.57-2.38 0.83-1.69 0.55-3.41 1.04-5.15 1.44-1.65 0.38-3.33 0.68-5.01 0.89-0.2 0.02-0.4 0.05-0.6 0.07-0.43 0.03-0.86 0.06-1.29 0.08-0.96 0.05-1.92 0.05-2.89 0.03-2.35-0.05-4.69 1.85-4.68 4.31 0.01 2.4 1.79 4.63 4.31 4.68 5.99 0.13 11.79-0.99 17.42-2.79 9.59 15.65 22.8 29.05 38.36 38.82 2.18 1.37 4.41 2.66 6.68 3.87 0.02 0.02 0.04 0.03 0.07 0.05l4.62 1.57c0.22 0.09 0.44 0.17 0.66 0.26 0 0.01 0 0.01 0.01 0.02 0.2 0.08 0.4 0.15 0.6 0.22 0.15 0.06 0.31 0.11 0.46 0.17 0.63 0.23 1.29 0.46 1.96 0.68 0.23 0.08 0.47 0.15 0.7 0.23 0.72 0.23 1.45 0.45 2.21 0.67 0.45 0.13 0.91 0.25 1.38 0.37 1.58 0.42 3.24 0.78 4.98 1.09 10.88 1.93 19.96 0.7 25.5-0.5 0.98-0.65 2.14-1.43 3.43-2.35-3.07 0.16-6.18 0.14-9.26-0.07z"/>
			<path class="dino-style85" d="m513.52 1332.1c22.43-18.36 56.86-18.75 76.97-8.16 38.01 20.02 52.58 93.89 21.6 179.44 15.62 2.94 24.15 12.56 22.95 19.03-1.12 6.07-10.76 9.09-12.15 9.52h-126.92c-18.54-66.08-13.61-116.67-8.1-145.45 5.82-30.44 13.85-44.71 25.65-54.38z"/>
			<g class="dino-style95">
				<path class="dino-style86" d="m812.08 512.2c0.23 1.92-4.37 4.04-10.26 4.75-5.9 0.7-10.86-0.28-11.09-2.2s4.37-4.04 10.26-4.75c5.9-0.71 10.86 0.28 11.09 2.2z"/>
				<ellipse class="dino-style86" cx="835.16" cy="507.97" rx="5" ry="2"/>
				<ellipse class="dino-style86" cx="777.16" cy="519.97" rx="5" ry="2"/>
					<ellipse class="dino-style86" transform="matrix(.9984 -.0563 .0563 .9984 -27.977 47.565)" cx="830.04" cy="520.23" rx="9.01" ry="2.25"/>
				<ellipse class="dino-style86" cx="864.16" cy="507.97" rx="7" ry="2"/>
				<ellipse class="dino-style86" cx="879.66" cy="516.97" rx="6.5" ry="2"/>
					<ellipse class="dino-style86" transform="matrix(.1538 -.9881 .9881 .1538 149.22 1186.2)" cx="767.16" cy="505.97" rx="4" ry="10"/>
					<ellipse class="dino-style86" transform="matrix(.338 -.9412 .9412 .338 -782.47 1238.5)" cx="489.16" cy="1175.5" rx="42.5" ry="10"/>
					<ellipse class="dino-style86" transform="matrix(.338 -.9412 .9412 .338 -880.41 1252.4)" cx="450.03" cy="1252" rx="26.38" ry="6.21"/>
					<ellipse class="dino-style86" transform="matrix(.338 -.9412 .9412 .338 -847.25 1280.6)" cx="486.63" cy="1242.5" rx="13.07" ry="6.31"/>
					<ellipse class="dino-style86" transform="matrix(.6 -.8 .8 .6 -634.57 861.94)" cx="544.63" cy="1065.5" rx="13.07" ry="6.31"/>
					<ellipse class="dino-style86" transform="matrix(.9915 -.1305 .1305 .9915 -188.27 49.506)" cx="283.66" cy="1461.5" rx="21.5" ry="7.5"/>
					<ellipse class="dino-style86" transform="matrix(.9118 -.4107 .4107 .9118 -588.55 219.69)" cx="217.06" cy="1479.7" rx="15.8" ry="4.11"/>
					<ellipse class="dino-style86" transform="matrix(.9774 -.2112 .2112 .9774 -307.27 86.371)" cx="250.66" cy="1481.5" rx="11.5" ry="4.5"/>
					<ellipse class="dino-style86" transform="matrix(.7071 -.7071 .7071 .7071 -876.7 693.4)" cx="398.66" cy="1405" rx="24.5" ry="7"/>
					<ellipse class="dino-style86" transform="matrix(.4272 -.9042 .9042 .4272 -32.702 905.32)" cx="698.16" cy="478.47" rx="25.5" ry="7"/>
					<ellipse class="dino-style86" transform="matrix(.2281 -.9736 .9736 .2281 -42.849 1092.5)" cx="667.54" cy="573.25" rx="15.64" ry="4.35"/>
					<ellipse class="dino-style86" transform="matrix(.2281 -.9736 .9736 .2281 14.666 1059.5)" cx="675.52" cy="520.5" rx="7.87" ry="3.53"/>
			</g>
			<path class="dino-style2" d="m681.14 757.85c-5.86-4.6-10.04-7.89-16-8-5.4-0.1-9.24 2.47-16 7-5.8 3.88-9.07 6.07-8.96 8.6 0.24 5.78 18.03 9.33 23.96 10.4 5.14-0.26 24.95-1.52 25.96-7.6 0.49-2.97-3.65-6.22-8.96-10.4zm-32.5 9.6c-1.93 0-3.5-0.94-3.5-2.1s1.57-2.1 3.5-2.1 3.5 0.94 3.5 2.1-1.57 2.1-3.5 2.1zm7-5c-1.93 0-3.5-0.94-3.5-2.1s1.57-2.1 3.5-2.1 3.5 0.94 3.5 2.1-1.57 2.1-3.5 2.1zm16.5-1.1c0-1.16 1.57-2.1 3.5-2.1s3.5 0.94 3.5 2.1-1.57 2.1-3.5 2.1-3.5-0.94-3.5-2.1zm8.5 8.1c-1.93 0-3.5-0.94-3.5-2.1s1.57-2.1 3.5-2.1 3.5 0.94 3.5 2.1-1.57 2.1-3.5 2.1z"/>
			<path class="dino-style96" d="m658.14 780.85c2.36-8.58 4.72-17.17 7.08-25.75 0.97 8.58 1.95 17.17 2.92 25.75-0.83 7.62-3.06 13-5 13s-4.17-5.38-5-13z"/>
<path transform="matrix(1.2132 0 0 1.2132 175.72 500.58)" d="m335.97 200.78h-175.22-175.22l87.608-151.74 87.608-151.74 87.608 151.74z" fill="#b460c6"/><path transform="translate(618.96 680.13)" d="m-74.412 41.963-174.64-1e-6 -174.64-1e-6 87.322-151.25 87.322-151.25 87.322 151.25z" fill="#69af85"/></svg>
