<?xml version="1.0" encoding="UTF-8"?>
<!-- Generator: Adobe Illustrator 24.0.2, SVG Export Plug-In . SVG Version: 6.00 Build 0)  -->
<svg enable-background="new 0 0 1080 1920" version="1.1" viewBox="100 500 880 1200" xml:space="preserve" xmlns="http://www.w3.org/2000/svg">
<style type="text/css">
	.trex-style0{fill:#E5BB67;}
	.trex-style1{fill:#CECECE;}
	.trex-style2{fill:#8E3203;}
	.trex-style3{fill:#FFFEF3;}
	.trex-style4{fill:#9B531E;}
	.trex-style5{opacity:0.41;fill:#9B531E;}
	.trex-style6{fill:#593206;}
	.trex-style7{fill:#FFFFFF;stroke:#9B531E;stroke-miterlimit:10;}
	.trex-style8{fill:#FFFFFF;}
	.trex-style9{opacity:0.38;fill:#FFF5E6;}
	.trex-style10{fill:#F7F7F7;}
	.trex-style11{fill:#E6E7E8;}
	.trex-style12{fill:#5497B2;}
	.trex-style13{fill:#FFF9EE;}
	.trex-style14{fill:#B2AFAA;}
	.trex-style15{opacity:0.36;fill:#F0F6F7;}
	.trex-style16{fill:#262626;}
	.trex-style17{fill:#37383A;}
	.trex-style18{fill:#A8A8A8;}
	.trex-style19{fill:#3599BC;}
	.trex-style20{fill:#D6D6D6;}
</style>

	<path class="trex-style0" d="m320.25 1044.9c2.52-1.95 5.94-3.99 10.27-5.13 15.52-4.09 28.98 7.01 30.8 8.56l-10.27 44.5-30.8-47.93z"/>
	<path class="trex-style1" d="m448.91 1481.4 185.58 29.23c-1.49 18.18-2.99 36.36-4.48 54.54-26.89-1.13-54.86-1.75-83.86-1.71-28.24 0.04-55.51 0.69-81.74 1.83-5.17-27.95-10.33-55.92-15.5-83.89z"/>
	
		<path class="trex-style2" d="m706.53 543.9c3.7 20.34-2.64 45.42-12.63 46.99-9.5 1.49-21.86-18.38-25.48-35.88-4.35-21.07 2.23-47.1 12.37-48.68 9.63-1.5 22.38 19.08 25.74 37.57z"/>
		<path class="trex-style2" d="m729.34 574.84c-1.83 20.59-14.61 43.09-24.65 41.95-9.56-1.09-16.2-23.53-15.04-41.36 1.4-21.47 14.66-44.82 24.85-43.65 9.68 1.12 16.51 24.34 14.84 43.06z"/>
		<path class="trex-style2" d="m740.19 620.26c-8.08 19.03-27.15 36.51-36.36 32.33-8.76-3.98-8.18-27.37-1.59-43.98 7.93-20 27.73-38.14 37.07-33.88 8.87 4.03 8.22 28.23 0.88 45.53z"/>
		<path class="trex-style2" d="m740.74 669.11c-10.76 17.65-32.18 32.16-40.68 26.69-8.09-5.21-4.1-28.27 4.84-43.74 10.76-18.63 32.99-33.69 41.61-28.12 8.18 5.28 4.01 29.13-5.77 45.17z"/>
		<path class="trex-style2" d="m900.64 1496.5c-15.17 3.29-34.16-0.83-35.59-8.29-1.36-7.1 13.24-16.88 26.29-20.04 15.7-3.8 35.41 0.48 36.85 8.05 1.37 7.2-13.75 17.29-27.55 20.28z"/>
		<path class="trex-style2" d="m866.8 1471.2c-13.23 4.65-30.75 2.99-32.89-3.62-2.04-6.29 9.93-16.78 21.27-21.08 13.65-5.17 31.83-3.45 34 3.27 2.05 6.37-10.35 17.2-22.38 21.43z"/>
		<path class="trex-style2" d="m839.06 1449.7c-14.65 5.15-34 3.41-36.34-3.82-2.23-6.87 11.05-18.39 23.6-23.14 15.11-5.72 35.2-3.91 37.57 3.42 2.25 6.97-11.51 18.86-24.83 23.54z"/>
		<path class="trex-style2" d="m811.08 1416.6c-15.5-0.91-32.68-9.98-32.06-17.55 0.6-7.2 17.29-12.7 30.71-12.24 16.15 0.56 33.98 9.98 33.34 17.66-0.61 7.3-17.9 12.96-31.99 12.13z"/>
		<path class="trex-style2" d="m792.26 1384.1c-15.5-0.91-32.68-9.98-32.06-17.55 0.6-7.2 17.29-12.7 30.71-12.24 16.15 0.56 33.98 9.98 33.34 17.66-0.62 7.29-17.9 12.95-31.99 12.13z"/>
		<path class="trex-style2" d="m734.44 713.81c-12.69 16.32-35.61 28.31-43.44 21.91-7.45-6.09-0.88-28.55 9.76-42.91 12.8-17.29 36.59-29.74 44.53-23.24 7.53 6.19 0.69 29.41-10.85 44.24z"/>
		<path class="trex-style2" d="m708.79 765.54c-16.44 12.53-41.67 18.26-47.6 10.07-5.64-7.79 6.45-27.82 20.41-38.99 16.8-13.44 42.98-19.39 48.99-11.07 5.7 7.89-6.85 28.6-21.8 39.99z"/>
	
	<path class="trex-style0" d="m773.77 1392.3c-10.7 52.73-25.57 54.54-47.92 128.35-17.49 57.74-24.1 108.48-26.66 145.55-0.46 6.73-6.02 11.96-12.78 12.05l-96.16 1.27c-11.95 0.15-17.73-14.51-8.93-22.59 1.75-1.59 3.7-3.11 5.92-4.5 14.84-9.31 29.91-5.78 32.52-5.13-15.92-33.95-31.83-67.89-47.73-101.83-2.19-4.69-6.95-7.62-12.1-7.48l-43.59 1.15c-7.15 0.19-12.82 6.14-12.65 13.3l2.79 114.08c0.17 7.29-5.68 13.3-12.99 13.3h-83.43c-7.68 0-14.39-5.73-15.04-13.4-0.36-4.4 1.64-6.66 3.97-8.85 15.61-14.67 35.39-13.93 39.36-13.69-23.26-34.19-53.89-83.26-83.86-145.47-35.68-74.07-53.51-111.1-59.9-160.87-12.13-94.57 21.14-173.38 46.21-232.75 18.6-44.05 32.62-77.27 51.39-108.18 3.59-5.94 7.38-11.79 11.4-17.63 0.07-0.1 0.14-0.19 0.21-0.29l0.02-0.02c0.99-1.45 2-2.91 3.05-4.35 3.18-4.48 6.54-8.95 10.08-13.45 0.84-1.1 1.71-2.17 2.58-3.27 0.05-0.07 0.14-0.17 0.24-0.29 3.06-3.82 26.56-33.58 47.68-76.72 2.48-5.07 4.72-9.91 6.73-14.65 0.31-0.7 0.6-1.42 0.89-2.12 6.61-0.17 13.71 1.15 21.22 3.97 2.64 1.01 5.61-0.34 6.61-2.99 0.99-2.65-0.34-5.61-2.99-6.61-7.27-2.72-14.31-4.26-21-4.59 4.42-13.09 6.54-25.74 5.66-39.76-0.87-14.26-4.59-26.13-8.23-34.79-1.1-2.6-3.01-4.76-5.44-6.16-0.02 0-0.02-0.02-0.03-0.02-0.27-0.17-0.55-0.33-0.84-0.46-11.84-5.73-23.7-11.47-35.55-17.2-9.1-4.42-16.6-11.59-21.36-20.52-5.32-9.96-9.65-17.8-12.41-26.95-3.7-12.3-8.59-31.52-11.89-57.47-0.33-2.64-0.65-5.36-0.94-8.13l1.52-2.38 33.47-52.08c5.39-8.37 14.67-13.43 24.61-13.43h76.45c0.77-1.93 1.71-4.11 2.86-6.49 4.06-8.4 10.59-19.2 21.1-29.45 24.4-23.82 53.52-27.86 63.32-29.09 2.82-0.36 6.37-0.8 10.41-1.06 8.16-0.55 18.38-0.36 28.96 2.77 60.62 17.94 81.22 116.85 77.01 162.58-1.32 14.29-4.38 27.01-4.38 27.01-7.68 28.89-22.49 43.4-33.27 101.35-2.21 11.91-4.84 26.41-6.4 43.2-7.38-1.35-16.05-2.05-26.08-2.12h-0.03c-2.82 0-5.12 2.28-5.13 5.1-0.02 2.84 2.26 5.15 5.1 5.17 9.94 0.05 18.41 0.79 25.36 2.16-0.74 12.46-0.8 26.03 0.34 40.63 0.45 5.63 1.03 10.94 1.73 15.97 0.65 4.62 1.42 9.04 2.28 13.28 7.39 36.44 22.16 61.23 38.78 112.8 3.94 12.24 14.38 52.83 29.09 135.2 19.71 110.54 29.59 165.8 18.79 219.04z"/>
	<path class="trex-style3" d="m541.02 661.56 10.83-28.89c1.2-3.19 5.67-3.31 7.03-0.19l12.72 29.08h-30.58z"/>
	
		
			<path class="trex-style4" d="m645.02 632.08-34.23 34.23c-0.8 0.8-1.9 1.25-3.03 1.25h-0.21l-107.82-5.13c-0.7-0.03-1.39-0.24-2-0.62l-66.09-39.65c-9.46 6.43-19.08 12.84-28.63 19.05-4.71 3.05-9.46 6.09-14.22 9.1-0.33-2.64-0.65-5.36-0.94-8.13l1.52-2.38c3.01-1.92 6.01-3.85 8.98-5.78 10.25-6.66 20.59-13.54 30.72-20.47 1.37-0.96 3.18-1.01 4.62-0.14l67.53 40.51 104.84 5 32.89-32.89c1.68-1.66 4.38-1.66 6.06 0 1.67 1.66 1.67 4.37 0.01 6.05z"/>
		
		
			<path class="trex-style4" d="m657.4 636.75c-0.18 0-0.36-0.01-0.54-0.03-4.6-0.58-9.05-1.85-13.23-3.78-5.78-2.67-10.87-6.48-15.12-11.34-1.56-1.78-1.38-4.48 0.4-6.04s4.48-1.37 6.04 0.4c3.45 3.94 7.58 7.04 12.26 9.2 3.39 1.56 6.99 2.59 10.72 3.06 2.34 0.3 4 2.44 3.71 4.78-0.28 2.17-2.12 3.75-4.24 3.75z"/>
		
	
	<path class="trex-style0" d="m730.15 1248.7c17.37 18.97 42.38 49.65 64.15 92.33 17.37 34.04 19.03 48.96 32.52 70.17 16.43 25.85 48.72 58.35 119.32 79.2-12.4 6.49-31.62 14.31-55.45 14.84-10.9 0.24-36.43-0.75-98.83-37.73-22.44-13.3-51.77-32.51-83.96-59.14l22.25-159.67z"/>
	<path class="trex-style5" d="m621.59 508.19c-13.76 4.26-31.78 12.82-46.34 30.15-11.09 13.19-16.28 26.83-18.83 35.94h-32.52c0.96-2.16 1.92-4.33 2.86-6.49 4.06-8.4 10.59-19.2 21.1-29.45 24.4-23.82 53.52-27.86 63.32-29.09 2.83-0.36 6.37-0.81 10.41-1.06z"/>
	
		
			<ellipse class="trex-style6" transform="matrix(.1189 -.9929 .9929 .1189 -179.21 982.56)" cx="464.01" cy="592.25" rx="9.41" ry="5.13"/>
		
			<ellipse class="trex-style6" transform="matrix(.9941 -.1083 .1083 .9941 -61.418 50.204)" cx="431.49" cy="590.54" rx="5.13" ry="9.41"/>
	
	
		
			<ellipse class="trex-style7" transform="matrix(.1871 -.9823 .9823 .1871 -29.439 1052.5)" cx="621.27" cy="544.06" rx="31.52" ry="25.89"/>
		<ellipse transform="matrix(.0999 -.995 .995 .0999 13.57 1111.4)" cx="621.03" cy="548.18" rx="23.53" ry="19.25"/>
		<circle class="trex-style8" cx="634.29" cy="535.78" r="7.7"/>
	
	
		
			<ellipse class="trex-style7" transform="matrix(.1119 -.9937 .9937 .1119 -76.341 1004.7)" cx="523.96" cy="545.08" rx="27.07" ry="22.24"/>
		<ellipse transform="matrix(.0264 -.9997 .9997 .0264 -38.264 1058)" cx="524.03" cy="548.62" rx="20.21" ry="16.54"/>
		<circle class="trex-style8" cx="534.57" cy="537.13" r="6.61"/>
	
	<path class="trex-style9" d="m385.28 1065.4c18.36-61.69 41.77-136.76 99.26-154.02 4.91-1.47 31.7-9.52 54.76 3.42 37.76 21.18 39.61 84.05 39.36 123.22-0.28 42.96-2.88 447.63-99.26 455.23-47.83 3.77-89.99-92.51-102.68-121.51-49.18-112.34-18.67-214.83 8.56-306.34z"/>
	
		<path class="trex-style10" d="m681.01 1351.3c12.7-1.28 25.32-3.83 37.56-7.55-0.58-4.7-1.25-9.48-2.03-14.37l-83.39 6.45c-0.64 4.78-1.17 9.5-1.61 14.18 16.41 2.49 33.03 2.94 49.47 1.29z"/>
		<path class="trex-style10" d="m681.7 1358.1c-6.78 0.68-13.6 1.03-20.42 1.03-10.13 0-20.25-0.79-30.3-2.3-4.58 62.06 8.5 113.42 33.56 126.46 2.21 1.15 13.81 6.55 25.66 0.04 21.37-11.74 36.86-60.21 29.17-132.67-12.3 3.65-24.95 6.15-37.67 7.44z"/>
		<path class="trex-style10" d="m773.77 1284.5c-7.19-97.93-27.02-181.41-29.09-189.96-7.96-32.91-18.06-67.98-30.67-120.62-0.46-1.95-3.53-14.08-7.56-29.98-0.31-1.2-0.38-2.28-0.26-3.27l-73.74 64.52 47.83 8.97c1.08 0.21 1.99 0.91 2.46 1.9 0.46 0.99 0.43 2.16-0.1 3.11l-99.93 182.42c-2.04 24.01-3.95 48.23-5.75 72.65-7.48 101.47-12.46 199.67-15.4 294.36 67.31-12.54 134.63-25.11 201.94-37.65 15.69-101.77 14.68-186.18 10.27-246.45zm-80.28 204.79c-5.43 2.98-10.81 3.99-15.58 3.99-8.31 0-14.79-3.04-16.53-3.95-31.18-16.23-45.42-80.88-34.63-157.22 0.23-1.59 1.52-2.81 3.13-2.93l89.28-6.91c1.78-0.13 3.35 1.1 3.64 2.85 1.11 6.66 2.03 13.23 2.79 19.7 0.03 0.08 0.08 0.16 0.1 0.24 0.17 0.52 0.19 1.05 0.11 1.55 7.95 70.26-4.53 127.42-32.31 142.68z"/>
		<path class="trex-style10" d="m624.24 1010.6c-1.28-0.26-2.33-1.2-2.67-2.46-0.34-1.27 0.07-2.62 1.04-3.49l93.72-81.99-37.45-64.4c-23.14 27.98-46.28 55.96-69.41 83.94-9.57 78.23-18.11 159.11-25.33 242.52l90.22-164.72-50.12-9.4z"/>
		<path class="trex-style10" d="m410.95 998.7c0 0.86-0.33 1.68-0.89 2.29l-38.44 42.31 3.06 102.61c1.18-6.25 2.43-12.54 3.75-18.86 19.83-94.98 53.63-174.15 83.65-235.61l-51.14 55.53v51.73z"/>
		<path class="trex-style10" d="m321.79 1348.4c-12.92-4.42-26.08-8.59-39.14-12.44-4.74 47.87-5.49 91.59-4.23 129.93 0.19 0 0.36 0 0.55-0.02 16.43-1.01 31.75-43.4 42.82-117.47z"/>
		<path class="trex-style10" d="m365.64 1039.7 38.47-42.34v-45.71c-33.65 59.73-72 142.34-97.55 245.55-9.62 38.8-16.31 76.07-20.81 111.36l43.83 10.23c1.71 0.39 2.84 2.02 2.62 3.77-12.13 98.23-29.91 148.75-52.81 150.17-0.22 0.02-0.46 0.02-0.68 0.02 0.82 20.52 2.22 39.41 3.9 56.46 31.95 5.7 63.89 11.41 95.84 17.11-17.17-83.77-33.22-213.12-9.58-366.41l-4.11-137.8c-0.03-0.89 0.28-1.75 0.88-2.41z"/>
		<path class="trex-style10" d="m322.78 1341.6c0.77-5.43 1.52-11.02 2.24-16.75l-40.11-9.36c-0.56 4.59-1.08 9.14-1.56 13.66 0.07 0.02 0.14 0.03 0.21 0.05 13.09 3.8 26.25 7.98 39.22 12.4z"/>
		<path class="trex-style11" d="m467.02 877.22c-1.06 0.25-1.77 0.8-2.1 1.09l-59.9 65.03c-0.58 0.62-0.91 1.45-0.91 2.31v51.73l-38.47 42.34c-0.6 0.67-0.91 1.52-0.89 2.41l4.11 137.8c1.71-11.21 3.66-22.56 5.84-34.02l-3.06-102.61 38.44-42.31c0.56-0.62 0.89-1.44 0.89-2.29v-51.72l51.14-55.53c1.8-3.68 3.58-7.29 5.34-10.83 0.21-0.49 0.43-0.98 0.64-1.46 0.36-0.65 0.72-1.31 1.07-1.96-0.44-0.09-1.21-0.2-2.14 0.02z"/>
		<path class="trex-style11" d="m332.2 1322.6c0.22-1.75-0.91-3.37-2.62-3.77l-43.83-10.23c-0.29 2.29-0.58 4.57-0.84 6.85l40.11 9.36c-0.72 5.73-1.47 11.33-2.24 16.75-12.97-4.42-26.13-8.59-39.22-12.41-0.07-0.02-0.14-0.03-0.21-0.05-0.24 2.31-0.48 4.62-0.7 6.91 13.06 3.85 26.22 8.03 39.14 12.44-11.07 74.07-26.39 116.46-42.82 117.47-0.19 0.02-0.36 0.02-0.55 0.02 0.09 2.31 0.17 4.59 0.27 6.85 0.22 0 0.46 0 0.68-0.02 22.91-1.41 40.69-51.93 52.83-150.17z"/>
		<path class="trex-style11" d="m725.69 1345.1c-0.03-0.08-0.07-0.16-0.1-0.24-0.76-6.47-1.68-13.04-2.79-19.7-0.29-1.75-1.86-2.97-3.64-2.85l-89.28 6.91c-1.6 0.12-2.9 1.34-3.13 2.93-10.79 76.34 3.45 140.99 34.63 157.22 1.75 0.91 8.22 3.95 16.53 3.95 4.77 0 10.15-1 15.58-3.99 27.78-15.27 40.26-72.43 32.31-142.68 0.07-0.5 0.05-1.03-0.11-1.55zm-9.15-15.72c0.78 4.89 1.45 9.67 2.03 14.37-12.24 3.72-24.86 6.27-37.56 7.55-16.44 1.66-33.06 1.21-49.46-1.28 0.44-4.68 0.97-9.41 1.61-14.18l83.38-6.46zm-26.34 153.95c-11.85 6.51-23.45 1.11-25.66-0.04-25.06-13.04-38.14-64.4-33.56-126.46 10.05 1.5 20.17 2.3 30.3 2.3 6.82 0 13.64-0.34 20.42-1.03 12.73-1.28 25.38-3.79 37.67-7.45 7.68 72.47-7.81 120.94-29.17 132.68z"/>
		<path class="trex-style11" d="m682.74 1016.1c-0.48-0.99-1.39-1.69-2.46-1.9l-47.83-8.97 73.74-64.52 16.79-14.68c1.23-1.08 1.52-2.89 0.7-4.31l-39.63-68.17c-0.24 0.02-0.56-0.06-0.98-0.27-1.39 1.68-2.79 3.37-4.18 5.05l37.45 64.4-93.72 81.99c-0.98 0.87-1.39 2.22-1.04 3.49 0.34 1.27 1.39 2.21 2.67 2.46l50.13 9.4-90.22 164.72c-0.5 5.6-0.98 11.21-1.44 16.84l99.93-182.42c0.52-0.96 0.55-2.12 0.09-3.11z"/>
	
	<path class="trex-style0" d="m655.57 1119.7-8.13 61.29c-3.08 3.3-8.06 9.74-8.82 18.66-0.18 2.06-1.1 12.84 4.15 14.93 3.89 1.55 8.8-2.61 9.58-3.28-0.19 3.75-0.14 9.13 1.06 15.43 1.46 7.69 3.82 20.07 12.83 25.66 0 0 7.25 4.5 17.71 2.33 27.36-5.66 35.77-115.18 37.15-134.53l-65.53-0.49z"/>
	
		<path class="trex-style10" d="m665.58 1082.4c1.65 15.55-19.92 26.82-34.11 38.52l-11.73 62.57 102.68 23.96 10.27-102.68-67.11-22.37z"/>
		
			<path class="trex-style11" d="m724.68 1150.6-5.27 52.69-95.7-22.33 8.85-47.22c0.33-1.75-0.76-3.45-2.48-3.9-0.02-0.01-0.04-0.01-0.07-0.02-1.9-0.5-3.82 0.72-4.18 2.65l-9.46 50.45c-0.34 1.8 0.8 3.55 2.59 3.96l102.68 23.96c0.26 0.06 0.52 0.09 0.78 0.09 0.71 0 1.41-0.22 1.99-0.64 0.8-0.57 1.32-1.46 1.41-2.44l5.66-56.57c0.18-1.78-1.06-3.4-2.82-3.69-0.02 0-0.05-0.01-0.07-0.01-1.92-0.31-3.72 1.07-3.91 3.02z"/>
		
	
	
		<path class="trex-style12" d="m138.22 1027.5 121.85-68.71c9.58-5.4 21.74-1.93 27.01 7.73l91.11 166.79c4.46 8.16 2.61 18.33-4.44 24.41l-97.39 83.93c-9.12 7.86-23.09 5.79-29.54-4.37l-115.57-182.01c-6.06-9.54-2.88-22.22 6.97-27.77z"/>
		<polygon class="trex-style13" points="150.82 1041.5 267.2 973.03 364.75 1142.5 268.91 1224.6"/>
		<path class="trex-style14" d="m191.9 1000.4c-7.69-2.16-13.28-7.76-13.69-13.69-0.66-9.59 12.32-19.08 22.25-15.4 6.07 2.25 10.28 9.15 10.27 17.11 12.55 2.28 25.1 4.56 37.65 6.85-21.68 11.41-43.35 22.82-65.03 34.23 2.84-9.71 5.7-19.41 8.55-29.1z"/>
	
	<path class="trex-style0" d="m330.52 1041.5c-7.14-1.18-16.35 15.85-13.69 18.83 0.71 0.79 3.9-0.03 10.27-1.71 8.55-2.25 9.34-3.22 9.72-3.86 2.31-4.02-1.66-12.5-6.3-13.26z"/>
	
		
			<path class="trex-style15" d="m527.33 569.15c0 1.75-0.12 3.46-0.36 5.13h-74.58c-0.24-1.68-0.36-3.39-0.36-5.13 0-1.2 0.05-2.4 0.17-3.56 1.8-19.12 17.88-34.09 37.48-34.09 10.66 0 20.3 4.43 27.14 11.55 2.86 2.96 5.22 6.38 6.97 10.17 2.27 4.82 3.54 10.23 3.54 15.93z"/>
			<polygon class="trex-style15" points="527.33 552.03 460.58 574.28 449.17 574.28 446.89 567.44 452.2 565.59 516.82 543.05 520.48 541.77"/>
		
		
			<circle class="trex-style15" cx="611.19" cy="570.86" r="44.5"/>
			<polygon class="trex-style15" points="566.69 587.97 652.92 555.41 647.31 544.06 563.27 577.7"/>
			<polygon class="trex-style15" points="573.54 599.95 657.39 565.72 657.39 572.57 575.91 606.16"/>
		
		
			
				<path class="trex-style16" d="m452.03 569.84c0-20.5 16.68-37.18 37.18-37.18s37.18 16.68 37.18 37.18c0 1.43-0.09 2.83-0.25 4.22 0.33 0.4 1.27 1.46 2.9 1.93 1.82 0.53 3.32 0 3.78-0.19 0.27-1.95 0.41-3.94 0.41-5.96 0-24.28-19.75-44.03-44.03-44.03s-44.03 19.75-44.03 44.03c0 1.5 0.08 2.98 0.22 4.44h6.9c-0.16-1.45-0.26-2.93-0.26-4.44z"/>
			
			
				<path class="trex-style16" d="m610 619.96c-27.07 0-49.1-22.03-49.1-49.1s22.03-49.1 49.1-49.1 49.1 22.03 49.1 49.1-22.02 49.1-49.1 49.1zm0-91.36c-23.3 0-42.26 18.96-42.26 42.26s18.96 42.26 42.26 42.26 42.26-18.96 42.26-42.26-18.96-42.26-42.26-42.26z"/>
			
			
				<path class="trex-style16" d="m530.71 576.27c0.68-0.18 1.38-0.32 2.07-0.47-0.9-0.25-1.7-0.68-2.47-1.09l0.4 1.56z"/>
				<path class="trex-style16" d="m544.37 567.44c-5.17 0.16-10.34 0.9-15.37 2.2l1.31 5.07c0.77 0.41 1.57 0.84 2.47 1.09 3.88-0.86 7.84-1.39 11.8-1.51 5.99-0.19 12 0.48 17.84 1.98l1.7-6.63c-6.47-1.67-13.12-2.41-19.75-2.2z"/>
			
		
	
	
		
			<path class="trex-style0" d="m502.87 864.82c-0.99 2.65-3.97 4-6.61 2.99-7.51-2.82-14.62-4.14-21.22-3.97 0.29-0.72 0.58-1.45 0.87-2.17 1.08-2.7 2.05-5.39 2.96-8.04 6.69 0.33 13.73 1.87 21 4.59 2.66 0.99 4 3.95 3 6.6z"/>
			<path class="trex-style17" d="m478.88 853.63c-0.91 2.65-1.88 5.34-2.96 8.04-0.29 0.72-0.58 1.45-0.87 2.17-3.39 0.09-6.64 0.56-9.75 1.44-20.16 5.66-35.65 27.04-43.23 56.51-3.06 11.88-4.84 25.09-5.13 39.11-0.09 5.1 0 10.32 0.31 15.62 0.05 0.92 0.1 1.85 0.17 2.77 0.02 0.29 0.02 0.58 0 0.87 0 0.07-0.02 0.12-0.02 0.19-0.02 0.1-0.02 0.19-0.05 0.29-0.44 2.22-2.31 3.95-4.69 4.12-0.12 0.02-0.24 0.02-0.36 0.02-2.67 0-4.93-2.07-5.12-4.77-0.07-0.98-0.14-1.95-0.19-2.91-0.05-0.92-0.1-1.85-0.14-2.76-0.87-19.75 1.08-38.4 5.36-54.87 8.63-33.15 26.7-57.45 50.31-64.09 5.2-1.44 10.66-2.04 16.36-1.75z"/>
		
		
			<path class="trex-style18" d="m395.02 1106.9c-1.23 0-2.4-0.21-3.53-0.63-8.03-2.99-14.85-14.73-4.54-79.13 0.37-2.33 2.57-3.92 4.9-3.55s3.92 2.57 3.55 4.9c-10.3 64.31-1.92 69.39-0.93 69.76 0.79 0.29 2.64-0.1 5.48-2.07 1.94-1.35 4.61-0.86 5.95 1.08 1.35 1.94 0.86 4.61-1.08 5.95-3.53 2.46-6.81 3.69-9.8 3.69z"/>
		
		
			<path class="trex-style18" d="m444.35 1101.7c-2.69 0-5.7-0.92-9-2.75-2.07-1.14-2.81-3.75-1.67-5.82 1.14-2.06 3.75-2.82 5.82-1.67 3.03 1.68 4.91 1.89 5.66 1.52 0.95-0.47 8.78-6.36-7.88-69.32-0.6-2.28 0.76-4.63 3.04-5.23 2.28-0.61 4.63 0.76 5.23 3.04 16.69 63.06 11.07 75.42 3.38 79.19-1.4 0.69-2.93 1.04-4.58 1.04z"/>
		
		
			<path class="trex-style19" d="m400.9 1098 1.17 3.11c1.11 2.96 4.48 4.37 7.36 3.09l4.54-2.02c2.97-1.32 4.14-4.91 2.53-7.73l-1.52-2.66c-1.33-2.34-4.17-3.36-6.69-2.41l-4.19 1.57c-2.83 1.05-4.26 4.21-3.2 7.05z"/>
		
		
			<path class="trex-style19" d="m439.6 1095.2-0.68 1.81c-1.24 3.32-5.03 4.9-8.26 3.46l-3.21-1.43c-3.33-1.48-4.65-5.51-2.84-8.68l0.87-1.52c1.5-2.62 4.68-3.77 7.51-2.71l3.02 1.13c3.17 1.21 4.78 4.76 3.59 7.94z"/>
		
		
			<path class="trex-style0" d="m683.51 845.09c-0.31 3.34-0.58 6.78-0.79 10.3-6.95-1.37-15.42-2.11-25.36-2.16-2.84-0.02-5.12-2.33-5.1-5.17 0.02-2.82 2.31-5.1 5.13-5.1h0.03c10.04 0.08 18.71 0.78 26.09 2.13z"/>
			<path class="trex-style17" d="m687.07 925.27c-14.99 16.86-36.04 36.4-63.32 58.91-2.69 2.22-5.44 4.48-8.27 6.76-4.76 3.85-9.69 7.79-14.8 11.81-0.94 0.74-2.07 1.1-3.18 1.1-1.52 0-3.03-0.67-4.04-1.97-1.75-2.22-1.37-5.44 0.86-7.2 4.76-3.75 9.31-7.38 13.67-10.9 2.98-2.41 5.85-4.76 8.64-7.07 33.42-27.59 54.8-48.65 68.16-64.71 21.15-25.4 22.23-38.27 19.29-44.62-2.64-5.66-9.89-9.69-21.36-11.98 0.21-3.53 0.48-6.97 0.79-10.3 15.81 2.93 25.67 8.88 29.88 17.97 6.66 14.33-1.8 34.68-26.32 62.2z"/>
		
		<circle class="trex-style19" cx="600.06" cy="999.56" r="28.24"/>
		<circle class="trex-style20" cx="599.21" cy="998.7" r="18.83"/>
		
			<path class="trex-style19" d="m410.59 986.5c-0.24 0-0.47-0.01-0.71-0.04-3.76-0.39-6.49-3.75-6.1-7.51 0.7-6.77 1.4-13.54 2.08-20.3 1.16-11.43 2.3-22.83 3.42-34.21 0.37-3.76 3.73-6.51 7.48-6.14 3.76 0.37 6.51 3.72 6.14 7.48-1.12 11.39-2.26 22.81-3.43 34.25-0.69 6.77-1.38 13.54-2.09 20.33-0.35 3.52-3.33 6.14-6.79 6.14z"/>
		
		
			<path class="trex-style19" d="m392.14 1029.5c-0.24 0-0.49-0.01-0.74-0.04-3.76-0.4-6.48-3.77-6.08-7.53 0.9-8.47 3.09-16.7 6.49-24.45 4.38-9.99 8.52-19.42 18.2-21.26 11.13-2.11 20 8.22 24.27 13.18 6.74 7.84 11.08 17.84 12.55 28.92 0.5 3.75-2.14 7.19-5.88 7.69-3.76 0.49-7.19-2.14-7.69-5.88-0.78-5.89-3.04-14.44-9.36-21.8-1.98-2.3-7.99-9.27-11.34-8.66-2.59 0.49-5.57 7.3-8.21 13.3-2.84 6.46-4.66 13.33-5.41 20.4-0.38 3.52-3.35 6.13-6.8 6.13z"/>
		
	
	<path class="trex-style5" d="m631.72 760.82c-8.47 14.41-28.99 48.11-54.76 66.74-39.16 28.31-79.97 33.34-101.04 34.11 6.38-16.07 9.67-30.94 8.63-47.8-0.87-14.26-4.59-26.13-8.23-34.79-1.1-2.6-3.01-4.76-5.44-6.16l85.55 13.57 75.29-25.67z"/>

<g transform="matrix(1.1502 0 0 1.1502 137 -4.3631)" stroke-width=".86945"><g transform="matrix(.66857 0 0 .66857 -31.322 165.7)" stroke-width="1.3004"><rect transform="translate(-46.415,2.2641)" x="-48.092" y="640.1" width="420.26" height="121.67" fill="#8e3203"/><rect transform="rotate(90,-24.34,-22.075)" x="497.7" y="-221.17" width="420.26" height="121.67" fill="#8e3203"/><rect x="-83.396" y="655.25" width="397.36" height="96.069" fill="#e5bb67"/><rect transform="rotate(90)" x="510.27" y="-162.19" width="397.36" height="96.069" fill="#e5bb67"/></g></g></svg>
