<?xml version="1.0" encoding="UTF-8"?>
<!-- Generator: Adobe Illustrator 24.0.2, SVG Export Plug-In . SVG Version: 6.00 Build 0)  -->
<svg enable-background="new 0 0 1080 1920" version="1.1" viewBox="240 620 650 1100" xml:space="preserve" xmlns="http://www.w3.org/2000/svg">
<style type="text/css">
	.triceratop2-style0{fill:#8FBE93;}
	.triceratop2-style1{opacity:0.34;}
	.triceratop2-style2{fill:#5F7F62;}
	.triceratop2-style3{fill:#A6DDAC;}
	.triceratop2-style4{fill:#F2E6D1;}
	.triceratop2-style5{fill:#FFFFFF;stroke:#3F1E05;stroke-miterlimit:10;}
	.triceratop2-style6{fill:#1C0D03;}
	.triceratop2-style7{fill:#FFFFFF;}
	.triceratop2-style8{fill:#683815;}
	.triceratop2-style9{fill:#befdc4;}
	.triceratop2-style10{opacity:0.14;fill:#683815;}
	.triceratop2-style11{opacity:0.14;}
</style>

	<path class="triceratop2-style0" d="m465.42 1094c-9.23-6.43-29.76 41.3-102.91 101.94-37.35 30.96-56.03 46.45-61.23 50.07-32.22 22.45-48.43 28.07-51.61 45.94-3.83 21.53 11.94 48.79 27.56 50.6 15.61 1.81 30.88-21.83 34.79-18.25 2.59 2.37-4.16 12.72-1.12 15.79 3.08 3.11 14.19-3.31 22.47-10.93 10.56-9.73 15.16-20.19 17.97-25.5 12.47-23.56 35.21-31.48 46.9-38.53 51.37-30.98 82.28-160.6 67.18-171.13z"/>
	<path class="triceratop2-style0" d="m432.2 888.28c-12.38-17.1-27.58-35.78-46.05-54.65-12.75-13.02-25.26-24.29-37.07-34-0.64-5.84-5.61-59.15 31.45-95.94 24.13-23.95 52.35-27.27 61.78-27.93 2.35-4.33 25.32-45.05 70.77-49.79 35.61-3.71 60.89 17.18 66.27 21.86 4.91-1.56 43.28-12.98 77.51 13.36 26.1 20.08 33.18 49.33 34.82 57.08 7.02 2.34 37.21 13.34 55.04 47.36 22.35 42.65 6.54 85.76 4.49 91.08 6.07 10.82 13.1 27.62 10.11 46.15-4.5 27.88-29.17 44.21-59.53 61.93-34.68 20.24-82.37 45.55-142.65 70.43-42.32-48.98-84.63-97.96-126.94-146.94z"/>
	<g class="triceratop2-style1">
		<path class="triceratop2-style2" d="m490.61 815.42c-5.17-7.21-9.54-14.98-13.47-23-3.91-8.03-7.34-16.34-10.27-24.84-2.95-8.5-5.4-17.2-7.31-26.04-1.9-8.84-3.3-17.81-3.76-26.92 3.2 8.44 5.98 16.89 8.84 25.29l8.55 25.12c2.87 8.35 5.82 16.68 8.77 25.03 2.92 8.37 5.94 16.72 8.65 25.36z"/>
		<path class="triceratop2-style2" d="m532.81 822.16c3.27-10.89 6.73-21.56 10-32.29 3.3-10.71 6.42-21.45 9.4-32.24 2.97-10.79 5.77-21.63 8.45-32.54 2.69-10.91 5.21-21.89 8.01-32.94-0.02 11.45-1.13 22.85-2.83 34.14-1.75 11.28-4.15 22.45-7.18 33.42-3.04 10.97-6.66 21.74-10.93 32.21-4.28 10.46-9.13 20.65-14.92 30.24z"/>
		<path class="triceratop2-style2" d="m574.25 847.71c8.32-7.08 16.7-13.86 24.94-20.8 8.26-6.91 16.38-13.95 24.41-21.11 8.02-7.17 15.93-14.49 23.78-21.94 7.85-7.44 15.6-15.05 23.62-22.54-5.91 9.5-12.71 18.3-19.93 26.65-7.26 8.32-15.01 16.15-23.18 23.44-8.17 7.28-16.73 14.05-25.67 20.17-8.94 6.1-18.22 11.65-27.97 16.13z"/>
		<path class="triceratop2-style2" d="m587.76 906.67c9.04-5.98 18.61-10.93 28.41-15.24 9.82-4.28 19.9-7.88 30.15-10.76 10.25-2.91 20.67-5.1 31.17-6.56 10.5-1.43 21.09-2.18 31.68-1.72-10.32 2.57-20.57 4.85-30.76 7.37-10.19 2.48-20.31 5.12-30.38 7.96-10.08 2.83-20.1 5.88-30.11 9.1-10.02 3.19-19.99 6.62-30.16 9.85z"/>
	</g>
	<path class="triceratop2-style3" d="m664.72 1480.9c-6.41 22.25-28.06 97.48-97.72 136.01-6.19 3.44-33.89 18.23-68.88 22.42-25.55 3.05-54.96 0.45-82.76-16.35-11.15-6.74-20.5-14.83-28.47-23.79-23.15-26-34.66-59.31-44.56-87.93-9.91-28.71-14.23-55.36-15.9-77.84-1.68-22.84-0.6-41.37 0.17-53.31 4.58-70.28 28.67-122.11 38.19-142.08 2.38-5 14.69-27.21 39.32-71.65 20.24-36.55 31.1-55.58 41.28-84.21 0.09-0.27 0.18-0.53 0.28-0.8 6.59-18.7 10.6-34.94 13.05-46.52 0.15-0.7 0.29-1.38 0.42-2.05-5.1 1.21-13.41 2.76-23.58 2.43-2.89-0.1-5.6-0.33-8.15-0.68-25.45-3.5-35.56-18.63-60.55-21.9-1.75-0.23-3.56-0.39-5.44-0.5-3.74-0.21-8.45-0.19-13.99 0.49-5.43 0.67-11.67 1.98-18.59 4.37-1.38-4.23-13.61-43.27 6.74-72.86 7.59-11.03 17.14-18.54 23.68-22.83 3-1.97 5.38-3.25 6.65-3.89 9.76-4.86 18.64-6.61 24.71-7.29 2.44-5.15 6.1-13.13 10.1-23.07 12.75-31.62 11.8-43.72 19.1-54.65 17.97-26.92 49.4-32.73 62.89-35.22 38.63-7.13 88.26 4.35 112.33 40.08 2.48 3.69 7.29 16.63 16.84 42.5 24.01 64.97 22.58 76.57 21.35 82.58-3.42 16.78-13.12 28.66-30.34 49.79-10.14 12.45-19.78 21.66-26.95 27.93 4.91 32.18 14.31 80.73 33.69 137.23 21.79 63.45 33.66 71.35 47.18 120.23 11.12 40.03 29.76 107.44 7.91 183.36z"/>
	<path class="triceratop2-style4" d="m401.87 710.98c-4.86 0.75-6.3 27.32-4.49 49.79 2.82 35.11 13.8 63.21 23.59 82.58 5.92-1.61 15.1-4.93 24.71-12.14 9.56-7.17 15.63-15.24 19.1-20.64-13.38-11.7-29.92-29.31-42.68-54.65-12.37-24.53-15.82-45.62-20.23-44.94z"/>
	<path class="triceratop2-style4" d="m569.24 701.26c-4.42 0.73-0.67 30.6-6.74 71.65-3.56 24.04-9.2 43.25-13.48 55.86 2.21 3.13 9.09 12.05 21.34 15.79 15.2 4.63 27.62-2.09 30.33-3.64-3.67-43.23-10.82-77.28-16.85-100.79-2.84-11.1-10.24-39.58-14.6-38.87z"/>
	
		
			<ellipse class="triceratop2-style5" transform="matrix(.1851 -.9827 .9827 .1851 -478.89 1206.6)" cx="488.11" cy="892.07" rx="28.07" ry="17.77"/>
		
			<ellipse class="triceratop2-style6" transform="matrix(.1786 -.9839 .9839 .1786 -484.47 1218.7)" cx="487.67" cy="899.51" rx="21.38" ry="14.56"/>
		<ellipse class="triceratop2-style7" cx="482.52" cy="885.67" rx="6.44" ry="6.96"/>
	
	
		
			<ellipse class="triceratop2-style5" transform="matrix(.1053 -.9944 .9944 .1053 -519.53 1194)" cx="403.76" cy="885.7" rx="24.22" ry="15.27"/>
		
			<ellipse class="triceratop2-style6" transform="matrix(.1015 -.9948 .9948 .1015 -524.57 1203.4)" cx="403.96" cy="892.13" rx="18.45" ry="12.51"/>
		<ellipse class="triceratop2-style7" cx="398.47" cy="880.73" rx="5.55" ry="6"/>
	
	<path class="triceratop2-style8" d="m491.73 823.92c-0.51 1.76 3.95 3.91 21.34 15.79 15.61 10.66 18.14 13.11 19.1 12.14 2.05-2.07-4.81-18.22-17.97-25.5-9.83-5.44-21.69-5.11-22.47-2.43z"/>
	<path class="triceratop2-style8" d="m444.26 818.98c0.25 1.82-4.46 3.2-23.34 12.03-16.95 7.92-19.8 9.92-20.6 8.8-1.72-2.39 7.36-17.2 21.41-22.19 10.47-3.72 22.15-1.41 22.53 1.36z"/>
	
		<path class="triceratop2-style8" d="m501.79 967.97-0.03 0.06c-18.97 27.25-39.6 42.7-61.31 45.92-10.32 1.52-18.57 0.02-27.31-1.55-9.22-1.68-18.76-3.41-32.35-2.08-4.66 0.46-9.3 1.24-13.92 2.33-1.74-0.23-3.55-0.39-5.44-0.5-3.74-0.21-8.45-0.19-13.98 0.49 10.75-4.48 21.74-7.29 32.82-8.37 14.32-1.41 24.67 0.47 33.8 2.14 8.66 1.57 16.14 2.93 25.61 1.52 19.94-2.95 39.09-17.28 56.94-42.63 0.22-0.3 0.44-0.62 0.65-0.92 0.93-1.34 2.68-1.6 3.93-0.6 1.22 0.99 1.47 2.85 0.59 4.19z"/>
	
	
		<path class="triceratop2-style8" d="m507.99 969.05c-0.21 0-0.41 0-0.62-0.01-9.87-0.33-16.19-8.46-17.89-10.94-0.92-1.35-0.66-3.25 0.58-4.25 1.25-1 3-0.72 3.93 0.63 1.32 1.93 6.21 8.24 13.56 8.49 1.9 0.07 3.81-0.28 5.68-1.03 1.45-0.58 3.07 0.23 3.61 1.8s-0.21 3.32-1.67 3.9c-2.35 0.93-4.76 1.41-7.18 1.41z"/>
	
	<path class="triceratop2-style8" d="m388.97 973.77c-1.88-1.26-1.32-8.06 1.95-12.02 3.7-4.49 10.9-5.37 18.17-2.2-2.22 1.88-5.49 4.59-9.54 7.76-8.43 6.6-9.78 7-10.58 6.46z"/>
	<path class="triceratop2-style4" d="m364.18 725.58c3.33-1.59 8.91-4.82 14.1-10.96 4.82-5.7 7.26-11.49 8.49-15.09-10.98-6.29-21.32-6.93-25.34-1.91-2.09 2.61-2.17 6.4-2.25 9.72-0.19 8.7 3.2 15.25 5 18.24z"/>
	<path class="triceratop2-style4" d="m497.16 631.39c3.46 1.23 9.6 2.87 17.26 2.07 7.11-0.74 12.51-3.28 15.65-5.07-4.26-12.62-11.55-20.58-17.64-19.75-3.17 0.43-5.58 3.18-7.68 5.59-5.54 6.33-7.08 13.64-7.59 17.16z"/>
	<path class="triceratop2-style4" d="m633 651.49c2.31 3.05 6.67 8.01 13.52 11.78 6.36 3.5 12.17 4.51 15.72 4.83 2.69-13.11 0.5-24.07-5.04-26.91-2.89-1.48-6.28-0.56-9.26 0.24-7.81 2.12-12.75 7.39-14.94 10.06z"/>
	<path class="triceratop2-style4" d="m728 743.67c1.1 3.76 3.44 10.11 8.51 16.37 4.7 5.81 9.75 9.08 12.93 10.79 7-11.1 8.73-22.14 4.56-27.01-2.17-2.53-5.64-3.04-8.68-3.49-7.98-1.17-14.38 1.74-17.32 3.34z"/>
	<path class="triceratop2-style4" d="m753.73 872.65c-0.12 2.8 0.01 7.67 1.99 13.19 1.83 5.12 4.47 8.64 6.21 10.63 7.19-5.57 10.84-12.49 9.16-16.85-0.88-2.27-3.08-3.52-5.01-4.63-5.09-2.89-10.02-2.64-12.35-2.34z"/>
	<path class="triceratop2-style3" d="m491.96 1575.6c-2.02 21.45-4.05 42.91-6.07 64.36-4.05 23.88-8.1 47.77-12.14 71.65h-123.33c1.33-3.45 5.78-13.82 16.64-20.64 12.61-7.94 25.05-5.54 28.08-4.86-12.57-17.03-25.64-37.96-37.07-63.15-19.13-42.18-27.73-83.31-31.07-118.65v-0.01c-2.65-28.1-1.97-52.52-0.56-70.91 0.06-0.78 0.12-1.55 0.18-2.31 28.17 19.47 58.66 42.75 90.05 70.43 28.8 25.42 53.8 50.5 75.29 74.09z"/>
	<path class="triceratop2-style3" d="m652.36 1495.5c-7.44 30.84-14.23 67.59-17.97 109.3-3.59 39.99-3.62 76.04-2.03 106.87-44.26 0.4-88.51 0.81-132.77 1.21 1.42-3.33 6.11-13.16 16.85-19.43 9.57-5.59 18.57-5.2 22.07-4.86-5.86-11.63-11.68-25.4-16.46-41.29-12.62-41.98-12.17-79.51-9.69-104.44 46.67-15.79 93.34-31.57 140-47.36z"/>
	<path class="triceratop2-style3" d="m893.08 1606.1c-0.56 9.74-52.13 16.63-99.15 14.32-47.21-2.33-85.91-4.24-122.48-30.77-59.53-43.22-93.08-136.92-67.52-169.71 10.12-12.97 30.49-17.66 46.28-12.29 23.02 7.82 26.9 33.78 37.51 63.49 5.03 14.09 11.57 29.02 22.38 43.26 2.76 3.66 5.82 7.26 9.2 10.8 0.56 0.6 1.13 1.19 1.72 1.77 8.46 8.51 18.71 15.2 32.97 22.28 5.64 2.82 11.91 5.68 18.94 8.76 9.92 4.32 21.35 9.06 34.69 14.57 2.08 0.86 4.13 1.7 6.14 2.5 51.57 20.68 79.74 23.77 79.32 31.02z"/>
	<path class="triceratop2-style3" d="m547.06 1149.8c6.57-13.3 25.07-19.33 38.54-16.83 26.18 4.86 25.28 40.39 64.72 105.43 25.36 41.81 42.04 54.01 47.62 90.23 2.04 13.26 5.99 38.84-8.33 51.48-10.27 9.07-27.96 9.74-38.32 1.24-15.16-12.43-11.52-41.9-15.91-41.98-4.16-0.08-5.24 26.46-11.72 27.18-6.52 0.73-14.11-25.1-15.84-30.99-5.93-20.18-7-36.17-7.01-36.35-3.86-57.52-70.03-116.45-53.75-149.41z"/>
	
		<path class="triceratop2-style0" d="m666.8 1275.2c13.79 19.98 22.9 33.17 26.69 57.72 1.98 12.84 5.67 36.75-7.14 48.06-9.12 8.06-25.08 8.6-34.15 1.16-8.56-7.02-10.46-20.92-11.72-30.12-1-7.27-1.72-12.52-6.16-12.61h-0.1c-4.46 0-5.84 5.87-7.73 13.98-0.89 3.81-2.71 11.58-4.31 13.13-0.98-0.61-5.26-4.53-12.26-28.37-5.75-19.56-6.85-35.35-6.86-35.51-1.2-18-8.28-36.06-16.99-53.28-3.09-0.47-6.09-1.3-9-2.45 9.72 18.29 18.02 37.56 19.27 56.26 0.04 0.68 1.17 16.82 7.16 37.19 8.95 30.45 14.84 34.01 19.4 33.51 5.91-0.67 7.96-9.42 10.14-18.68 0.21-0.88 0.44-1.88 0.69-2.9 0.04 0.27 0.07 0.54 0.11 0.81 1.42 10.37 3.57 26.04 14.32 34.85 5.48 4.49 12.75 6.71 20.11 6.71 8.12 0 16.35-2.7 22.38-8.03 15.83-13.98 11.57-41.62 9.52-54.9-4.05-26.29-14.07-40.8-27.93-60.88-4.32-6.25-9.05-13.12-14.2-21.15-3.09-0.58-6.18-1.18-9.27-1.76 6.64 10.75 12.66 19.48 18.03 27.26z"/>
	
	<path class="triceratop2-style9" d="m524.31 1546.5c-4.29 8.55-11.2 21.99-21.83 34.63-9.84 11.69-22.87 22.7-39.95 28.51-24.53 8.33-47.96 2.72-60.66-2.43-5.22-2.13-10.22-4.81-14.98-8-27.65-18.53-47.53-54.1-59.89-94.86v-0.01c-2.65-28.1-1.97-52.52-0.56-70.91-1.67-22.84-0.6-41.37 0.18-53.31 4.57-70.28 28.67-122.11 38.19-142.08 2.38-5 14.69-27.21 39.31-71.65 41.55-61.19 57.03-60.33 61.78-59.51 12.22 2.13 28.28 17.05 56.16 188.23 27.35 167.92 21.56 212.9 2.25 251.39z"/>
	<path class="triceratop2-style10" d="m427.43 1034.5c-25.45-3.5-35.55-18.63-60.56-21.9-1.74-0.23-3.55-0.39-5.44-0.5-3.74-0.21-8.45-0.19-13.98 0.49-5.44 0.67-11.67 1.98-18.59 4.37-1.39-4.23-13.61-43.27 6.74-72.86 7.58-11.03 17.13-18.54 23.68-22.83 13.02 2.89 25.63 8.65 35.85 16.76 28 22.21 44.33 67.03 32.3 96.47z"/>
	<path class="triceratop2-style4" d="m332.84 851.61c-6.44 0.38-13.03 27.43-9.57 52.42 2.44 17.65 9.44 30.95 14.63 39.02 4.21 0.83 13.62 2.06 24.45-2.21 9.57-3.77 15.62-10.01 18.47-13.39-8.37-7.92-19.84-20.48-29.61-38.5-11.92-22.01-13.42-37.63-18.37-37.34z"/>
	<g class="triceratop2-style11">
		<ellipse class="triceratop2-style8" cx="526.56" cy="936.25" rx="8.99" ry="3.04"/>
		<ellipse class="triceratop2-style8" cx="448.49" cy="928.96" rx="3.93" ry="4.25"/>
		<ellipse class="triceratop2-style8" cx="466.46" cy="945.96" rx="7.3" ry="1.82"/>
		<ellipse class="triceratop2-style8" cx="534.98" cy="914.39" rx="6.18" ry="3.04"/>
		<ellipse class="triceratop2-style8" cx="403.56" cy="922.89" rx="5.05" ry="1.82"/>
		<ellipse class="triceratop2-style8" cx="441.75" cy="908.92" rx="6.18" ry="2.43"/>
		<ellipse class="triceratop2-style8" cx="427.71" cy="930.78" rx="3.37" ry="2.43"/>
		<ellipse class="triceratop2-style8" cx="541.16" cy="961.14" rx="5.62" ry="3.64"/>
		<ellipse class="triceratop2-style8" cx="564.18" cy="926.53" rx="6.18" ry="1.82"/>
	
	
		<path class="triceratop2-style8" d="m710.09 1514.4c-16.76 9.42-37.21 11.83-42 5.34-5.43-7.36 5.39-31.4 19.62-48.6 5.03 14.09 11.57 29.03 22.38 43.26z"/>
		<path class="triceratop2-style8" d="m753.97 1549.3c-15.47 10.64-34.55 15.01-39.8 9.29-4.36-4.74-1.42-18.85 5.11-33.35 0.56 0.6 1.13 1.19 1.72 1.77 8.46 8.51 18.72 15.21 32.97 22.29z"/>
		<path class="triceratop2-style8" d="m813.74 1575.1c-15.39 14.09-37.79 21.37-43.9 15.4-4.47-4.37-2.44-18.02 3.07-32.47 9.92 4.32 21.35 9.06 34.69 14.57 2.07 0.86 4.13 1.69 6.14 2.5z"/>
	</g>
	<path class="triceratop2-style10" d="m533.25 1019.4c-7.59 12.29-25.13 36.71-57.08 52.22-11.11 5.39-21.68 8.6-30.77 10.52 0.09-0.27 0.18-0.53 0.28-0.8 6.59-18.7 10.6-34.94 13.05-46.52 6.67-0.38 13.71-1.02 21.08-2.05 20.94-2.92 38.92-8.05 53.44-13.37z"/>

<g transform="matrix(.71506 0 0 .71506 146.22 179)"><path transform="translate(530.57 858.68)" d="m-361.9 147.43h-189.41l-94.707-164.04 94.707-164.04 189.41 1e-5 94.707 164.04z" fill="#84af87" stroke-width="1.3985"/><path transform="matrix(.84184 0 0 .84184 456.78 855.76)" d="m-361.9 147.43h-189.41l-94.707-164.04 94.707-164.04 189.41 1e-5 94.707 164.04z" fill="#befdc4" stroke-width="1.6612"/></g></svg>
