<?xml version="1.0" encoding="iso-8859-1"?>
<!-- Generator: Adobe Illustrator 19.0.0, SVG Export Plug-In . SVG Version: 6.00 Build 0)  -->
<svg version="1.1" id="Capa_1" xmlns="http://www.w3.org/2000/svg" xmlns:xlink="http://www.w3.org/1999/xlink" x="0px" y="0px"
	 viewBox="0 0 512 512" style="enable-background:new 0 0 512 512;" xml:space="preserve">
<circle style="fill:#FAE17C;" cx="74.889" cy="75.911" r="74.889"/>
<g style="opacity:0.1;">
	<circle cx="50.41" cy="57.25" r="21.269"/>
	<path d="M102.925,78.018c0,16.261,13.182,29.442,29.442,29.442c4.078,0,7.962-0.83,11.493-2.329
		c3.809-8.979,5.917-18.854,5.917-29.221c0-8.432-1.414-16.529-3.984-24.093c-4.027-2.068-8.589-3.243-13.427-3.243
		C116.107,48.576,102.925,61.757,102.925,78.018z"/>
</g>
<path style="fill:#959BA0;" d="M345.451,388.547c-5.766,0-11.198-3.514-13.367-9.225c-2.803-7.381,0.909-15.638,8.29-18.441
	l0.364-0.138c4.417-1.686,17.859-6.819,33.689-6.094c7.887,0.36,13.989,7.046,13.628,14.934c-0.36,7.888-7.065,13.989-14.934,13.629
	c-9.878-0.443-18.822,2.96-22.187,4.244l-0.409,0.156C348.853,388.246,347.138,388.547,345.451,388.547z"/>
<path style="fill:#E5E5E5;" d="M255.481,442.923c-63.919,5.592-137.477,12.028-194.335-17.641c-9.73-5.077-5.643-19.752,5.32-19.254
	c43.143,1.962,78.013-12.027,96.901-31.398L255.481,442.923z"/>
<path style="opacity:0.1;enable-background:new    ;" d="M140.525,391.245c2.498,20.35,7.414,40.452,21.479,56.293
	c31.469,0.809,63.531-1.995,93.477-4.615l-92.114-68.293C157.313,380.839,149.61,386.49,140.525,391.245z"/>
<g>
	<path style="fill:#959BA0;" d="M222.165,510.978c-5.472,0-10.951-2.029-15.214-6.114c-8.771-8.404-9.068-22.327-0.664-31.098
		c5.027-5.247,8.497-13.339,9.52-22.201c1.029-8.916-0.788-15.122-1.83-16.729c-6.602-10.197-3.687-23.815,6.51-30.416
		c10.194-6.601,23.814-3.688,30.415,6.509c14.594,22.541,12.905,66.39-12.854,93.271
		C233.729,508.709,227.952,510.978,222.165,510.978z"/>
	<path style="fill:#959BA0;" d="M318.896,500.117c-0.754,0-1.513-0.039-2.28-0.117c-12.083-1.245-20.87-12.049-19.625-24.132
		c1.089-10.576-5.885-31.859-10.257-36.974c-9.289-7.245-11.241-20.604-4.279-30.226c7.12-9.841,20.871-12.047,30.712-4.927
		c19.151,13.856,29.769,55.393,27.581,76.633C339.582,491.69,330.029,500.116,318.896,500.117z M287.369,439.37
		c0.003,0.003,0.007,0.006,0.012,0.009C287.376,439.376,287.373,439.374,287.369,439.37z"/>
</g>
<path style="opacity:0.1;enable-background:new    ;" d="M313.166,403.74c-9.841-7.12-23.591-4.914-30.712,4.927
	c-6.962,9.622-5.01,22.98,4.279,30.226c3.687,4.314,9.224,20.126,10.216,31.318c16.921-3.499,30.819-8.571,42.006-15.362
	C335.115,435.035,326.087,413.089,313.166,403.74z"/>
<path style="opacity:0.1;enable-background:new    ;" d="M220.488,404.42c-10.197,6.602-13.112,20.219-6.51,30.416
	c1.042,1.608,2.859,7.814,1.83,16.729c-0.957,8.294-4.058,15.912-8.572,21.156c9.944,2.056,21.045,3.08,33.364,3.08
	c4.666,0,9.593-0.146,14.721-0.431c7.961-23.248,5.641-48.906-4.417-64.442C244.301,400.732,230.682,397.82,220.488,404.42z"/>
<path style="fill:#E5E5E5;" d="M352.67,359.502c4.304,49.195,0.736,85.376-88.789,93.208s-99.321-27.18-103.625-76.374
	s35.28-92.843,88.414-97.492S348.366,310.308,352.67,359.502z"/>
<path style="fill:#5CB38E;" d="M327.455,388.146c1.157,13.227-8.627,24.888-21.855,26.045c-13.227,1.157-24.888-8.627-26.045-21.855
	c-1.157-13.227,7.787-34.49,21.014-35.647C313.797,355.532,326.298,374.919,327.455,388.146z"/>
<g>
	<circle style="fill:#FAE17C;" cx="313.82" cy="396.33" r="8.089"/>
	<path style="fill:#FAE17C;" d="M286.592,371.742c-1.185,0.104-2.284,0.464-3.258,1.013c-1.519,3.447-2.626,7.121-3.261,10.675
		c1.445,2.872,4.53,4.725,7.928,4.428c4.45-0.389,7.742-4.313,7.353-8.763C294.965,374.645,291.042,371.353,286.592,371.742z"/>
</g>
<path style="opacity:0.05;enable-background:new    ;" d="M230.547,282.052c-43.707,11.785-74.089,50.872-70.291,94.284
	c3.985,45.552,12.69,78.938,85.029,77.415C201.807,416.714,202.208,332.349,230.547,282.052z"/>
<path style="fill:#A3E3FF;" d="M431.16,317.065l-246.66,21.58c-48.72,4.262-91.671-31.778-95.934-80.498L84.993,217.3
	c-7.924-90.57,59.074-170.415,149.644-178.338l95.109-8.321c90.57-7.924,170.414,59.074,178.338,149.644l3.574,40.847
	C515.92,269.852,479.88,312.803,431.16,317.065z"/>
<path style="fill:#5CB38E;" d="M325.755,142.833L325.755,142.833c-18.602-23.406-47.707-35.918-77.491-33.312l-36.612,3.203
	c-52.052,4.554-90.557,50.442-86.003,102.494l3.791,43.332c4.087,46.716,45.271,81.274,91.987,77.187l194.081-16.98
	c34.996-3.062,60.884-33.914,57.822-68.91l-2.58-29.491c-3.062-34.996-33.914-60.884-68.91-57.822l-25.142,2.2
	C357.118,166.446,337.984,158.221,325.755,142.833z"/>
<circle style="fill:#495059;" cx="398.24" cy="265.76" r="17.861"/>
<g style="opacity:0.1;">
	<circle cx="182.44" cy="274.67" r="6.511"/>
	<circle cx="229.42" cy="280.53" r="6.511"/>
	<circle cx="204.97" cy="304.96" r="6.511"/>
</g>
<g>
	
		<ellipse transform="matrix(-0.0872 -0.9962 0.9962 -0.0872 16.2531 385.0783)" style="fill:#FFA8CB;" cx="184.548" cy="185.093" rx="8.419" ry="16.411"/>
	
		<ellipse transform="matrix(0.0872 0.9962 -0.9962 0.0872 443.4648 -132.9582)" style="fill:#FFA8CB;" cx="294.285" cy="175.51" rx="8.419" ry="16.411"/>
</g>
<g>
	<path style="fill:#495059;" d="M203.816,174.157c-3.847,0-7.121-2.942-7.463-6.847l-0.713-8.146
		c-0.361-4.126,2.691-7.764,6.817-8.126c4.136-0.347,7.765,2.692,8.126,6.818l0.713,8.146c0.361,4.126-2.691,7.764-6.817,8.125
		C204.257,174.147,204.035,174.157,203.816,174.157z"/>
	<path style="fill:#495059;" d="M272.093,168.183c-3.847,0-7.121-2.942-7.463-6.847l-0.713-8.146
		c-0.361-4.126,2.691-7.764,6.817-8.125c4.137-0.354,7.765,2.692,8.126,6.818l0.713,8.146c0.361,4.126-2.691,7.764-6.817,8.125
		C272.533,168.173,272.311,168.183,272.093,168.183z"/>
	<circle style="fill:#495059;" cx="371.53" cy="198.54" r="6.511"/>
	<circle style="fill:#495059;" cx="412.86" cy="194.92" r="6.511"/>
</g>
<path style="fill:#959BA0;" d="M201.708,404.342c-5.083,0-10.003-2.716-12.589-7.5c-3.756-6.946-1.168-15.62,5.777-19.375
	c15.413-8.332,27.469-9.191,36.273-9.818c1.124-0.08,2.222-0.158,3.297-0.252c7.866-0.685,14.799,5.132,15.487,12.996
	c0.688,7.866-5.13,14.8-12.996,15.488c-1.225,0.107-2.477,0.197-3.758,0.288c-7.566,0.539-14.713,1.048-24.705,6.45
	C206.332,403.788,204.003,404.342,201.708,404.342z"/>
<path style="opacity:0.1;enable-background:new    ;" d="M208.411,43.4C131.506,62.857,77.856,135.723,84.993,217.3l3.574,40.847
	c4.263,48.72,47.214,84.76,95.934,80.498l83.228-7.281C152.587,248.52,177.948,106.556,208.411,43.4z"/>
<g>
	<path style="fill:#FF85B6;" d="M436.773,468.402l-11.404,3.236c-4.074,1.156-8.04-2.139-7.648-6.356l1.096-11.803
		c0.128-1.381-0.223-2.763-0.995-3.915l-6.602-9.845c-2.359-3.518-0.45-8.307,3.682-9.238l11.564-2.605
		c1.353-0.305,2.559-1.066,3.415-2.157l7.324-9.321c2.617-3.331,7.762-2.995,9.923,0.647l6.051,10.194
		c0.708,1.192,1.805,2.104,3.106,2.582l11.128,4.085c3.976,1.459,5.247,6.456,2.451,9.638l-7.825,8.905
		c-0.915,1.042-1.443,2.367-1.496,3.752l-0.446,11.846c-0.159,4.232-4.519,6.985-8.409,5.309l-10.887-4.69
		C439.531,468.117,438.107,468.024,436.773,468.402z"/>
	<path style="fill:#FF85B6;" d="M52.048,363.415l-10.295,5.876c-3.678,2.099-8.318-0.149-8.949-4.338l-1.765-11.722
		c-0.207-1.371-0.879-2.629-1.905-3.562l-8.77-7.976c-3.133-2.85-2.428-7.957,1.36-9.851l10.603-5.301
		c1.24-0.62,2.229-1.649,2.799-2.913L40,312.824c1.742-3.861,6.817-4.768,9.789-1.751l8.318,8.445
		c0.973,0.988,2.257,1.61,3.635,1.762l11.783,1.298c4.21,0.464,6.642,5.01,4.69,8.769l-5.462,10.521
		c-0.639,1.231-0.834,2.644-0.552,4.001l2.407,11.607c0.86,4.147-2.713,7.865-6.891,7.171l-11.694-1.943
		C54.656,362.477,53.252,362.728,52.048,363.415z"/>
</g>
<g>
</g>
<g>
</g>
<g>
</g>
<g>
</g>
<g>
</g>
<g>
</g>
<g>
</g>
<g>
</g>
<g>
</g>
<g>
</g>
<g>
</g>
<g>
</g>
<g>
</g>
<g>
</g>
<g>
</g>
</svg>
