<?xml version="1.0" encoding="iso-8859-1"?>
<!-- Generator: Adobe Illustrator 19.0.0, SVG Export Plug-In . SVG Version: 6.00 Build 0)  -->
<svg version="1.1" id="Capa_1" xmlns="http://www.w3.org/2000/svg" xmlns:xlink="http://www.w3.org/1999/xlink" x="0px" y="0px"
	 viewBox="0 0 512.001 512.001" style="enable-background:new 0 0 512.001 512.001;" xml:space="preserve">
<path style="fill:#498A68;" d="M180.421,377.234c5.228,0,10.286-2.808,12.922-7.741c5.023-9.397,13.077-15.775,16.109-18.176
	l0.365-0.289c6.329-5.029,7.382-14.236,2.353-20.566c-5.029-6.329-14.236-7.384-20.566-2.354l-0.325,0.258
	c-3.923,3.106-15.86,12.559-23.753,27.328c-3.811,7.13-1.12,15.998,6.009,19.809C175.731,376.677,178.093,377.234,180.421,377.234z"
	/>
<path style="fill:#5CB38E;" d="M302.496,404.054c68.306,0,146.915,0,204.462-36.741c9.847-6.287,4.152-21.471-7.428-19.925
	c-45.572,6.084-83.852-5.517-105.68-24.308L302.496,404.054z"/>
<path style="opacity:0.1;enable-background:new    ;" d="M419.616,338.582c-0.761,21.814-4.11,43.589-17.556,61.694
	c-33.299,3.778-67.562,3.778-99.563,3.778l91.354-80.974C400.846,329.104,409.54,334.382,419.616,338.582z"/>
<g>
	<path style="fill:#498A68;" d="M310.646,449.89c-0.277-3.604-1.721-61.222,4.349-76.122c4.693-11.518,17.834-17.051,29.352-12.359
		c11.046,4.5,16.588,16.773,12.882,27.931c-1.614,8.311-2.542,45.844-1.677,57.099c0.953,12.4-8.327,23.225-20.727,24.179
		c-0.587,0.045-1.171,0.067-1.751,0.067C321.422,470.684,311.555,461.703,310.646,449.89z M356.706,390.759
		c0.003-0.009,0.007-0.017,0.01-0.026C356.712,390.742,356.709,390.751,356.706,390.759z"/>
	<path style="fill:#498A68;" d="M228.978,449.892c-0.277-3.604-1.724-61.222,4.35-76.127c4.695-11.518,17.84-17.049,29.353-12.355
		c11.046,4.502,16.587,16.775,12.88,27.932c-1.615,8.315-2.543,45.843-1.677,57.094c0.954,12.4-8.325,23.226-20.724,24.18
		c-0.588,0.046-1.173,0.068-1.753,0.068C239.755,470.684,229.887,461.704,228.978,449.892z M275.036,390.762
		c0.003-0.008,0.007-0.017,0.01-0.025C275.043,390.745,275.04,390.754,275.036,390.762z"/>
</g>
<path style="opacity:0.1;enable-background:new    ;" d="M228.63,429.022c0.018-19.141,0.843-45.798,4.698-55.257
	c4.695-11.518,17.84-17.049,29.353-12.355c11.046,4.502,16.587,16.775,12.88,27.932c-1.295,6.668-2.147,32.109-1.988,47.734
	C256.188,435.934,241.291,433.277,228.63,429.022z"/>
<path style="opacity:0.1;enable-background:new    ;" d="M344.347,361.409c11.046,4.5,16.588,16.773,12.882,27.931
	c-1.128,5.808-1.92,25.883-2,41.293c-12.776,3.695-27.669,5.911-44.888,6.731c-0.208-18.715,0.2-52.659,4.654-63.595
	C319.688,362.25,332.829,356.717,344.347,361.409z"/>
<path style="fill:#5CB38E;" d="M191.683,324.602c0,52.572,7.141,90.612,102.812,90.612s102.812-38.04,102.812-90.612
	s-46.03-95.19-102.812-95.19S191.683,272.03,191.683,324.602z"/>
<path style="fill:#9BDFC1;" d="M191.683,324.602c0-0.419,0.011-0.835,0.017-1.253c21.414-5.496,63.89-7.094,93.447,24.318
	c21.539,22.891,24.656,47.592,22.346,67.293c-4.141,0.168-8.469,0.254-12.998,0.254
	C198.824,415.214,191.683,377.174,191.683,324.602z"/>
<path style="opacity:0.05;enable-background:new    ;" d="M314.013,231.132c47.446,8.443,83.294,47.077,83.294,93.469
	c0,48.679-6.134,84.894-82.993,89.991C356.988,371.278,348.734,281.845,314.013,231.132z"/>
<path style="fill:#5CB38E;" d="M192.358,96.519L192.358,96.519c14.685-28.239,42.559-47.226,74.213-50.553l38.911-4.09
	c55.321-5.815,104.88,34.318,110.695,89.639l4.84,46.053c5.218,49.65-30.8,94.129-80.45,99.347l-206.268,21.68
	c-37.194,3.909-70.514-23.073-74.424-60.267l-3.294-31.343c-3.909-37.194,23.073-70.514,60.267-74.423l26.721-2.809
	C164.38,127.566,182.704,115.083,192.358,96.519z"/>
<g style="opacity:0.1;">
	<circle cx="368.911" cy="205.18" r="6.932"/>
	<circle cx="321.001" cy="220.84" r="6.932"/>
	<circle cx="351.521" cy="241.41" r="6.932"/>
</g>
<g>
	
		<ellipse transform="matrix(0.1045 0.9945 -0.9945 0.1045 423.4851 -246.323)" style="fill:#FFA8CB;" cx="348.524" cy="111.996" rx="8.963" ry="17.471"/>
	
		<ellipse transform="matrix(-0.1045 -0.9945 0.9945 -0.1045 132.5091 367.8411)" style="fill:#FFA8CB;" cx="231.862" cy="124.263" rx="8.963" ry="17.471"/>
</g>
<g>
	<path style="fill:#495059;" d="M314.948,106.131c-1.657,0-3.326-0.547-4.715-1.672c-3.22-2.607-3.716-7.33-1.108-10.548
		l17.478-21.583c2.605-3.218,7.328-3.716,10.548-1.109s3.716,7.33,1.108,10.548l-17.478,21.583
		C319.3,105.181,317.134,106.131,314.948,106.131z"/>
	<path style="fill:#495059;" d="M334.479,104.078c-1.657,0-3.326-0.547-4.715-1.672l-21.583-17.477
		c-3.219-2.607-3.716-7.33-1.108-10.548c2.605-3.218,7.328-3.716,10.548-1.109l21.583,17.477c3.219,2.607,3.716,7.33,1.108,10.548
		C338.83,103.128,336.664,104.078,334.479,104.078z"/>
	<path style="fill:#495059;" d="M261.914,111.705c-1.657,0-3.326-0.547-4.715-1.672l-21.582-17.478
		c-3.22-2.607-3.716-7.33-1.108-10.549c2.605-3.217,7.329-3.715,10.548-1.108l21.582,17.478c3.22,2.607,3.716,7.33,1.108,10.549
		C266.266,110.755,264.1,111.705,261.914,111.705z"/>
	<path style="fill:#495059;" d="M242.385,113.757c-1.657,0-3.326-0.547-4.715-1.672c-3.219-2.606-3.716-7.329-1.109-10.548
		l17.477-21.582c2.607-3.217,7.329-3.716,10.549-1.109c3.219,2.606,3.716,7.329,1.109,10.548l-17.477,21.583
		C246.736,112.807,244.57,113.757,242.385,113.757z"/>
	<circle style="fill:#495059;" cx="155.841" cy="164.03" r="6.932"/>
	<circle style="fill:#495059;" cx="111.911" cy="168.65" r="6.932"/>
</g>
<path style="opacity:0.05;enable-background:new    ;" d="M327.997,42.022c45.673,5.431,83.17,41.821,88.181,89.493l4.84,46.053
	c5.218,49.65-30.8,94.129-80.45,99.348l-54.551,5.734C360.604,228.074,360.716,99.596,327.997,42.022z"/>
<path style="fill:#498A68;" d="M284.083,377.251c5.231,0,10.29-2.81,12.925-7.746c5.022-9.405,13.08-15.786,16.114-18.188
	l0.365-0.289c6.329-5.029,7.382-14.237,2.353-20.566s-14.236-7.383-20.566-2.354l-0.324,0.258
	c-3.927,3.109-15.873,12.569-23.766,27.351c-3.808,7.131-1.113,15.999,6.018,19.806
	C279.397,376.695,281.758,377.251,284.083,377.251z"/>
<path style="fill:#FF85B6;" d="M167.412,265.79c-60.413,60.414-7.829,156.44-37.248,179.138
	c-15.585,12.024-32.771-2.15-58.268,3.558c-19.31,4.323-74.382,28.411-64.939-45.905c11.12-87.518,74.263-144.427,113.542-183.705
	c12.955-12.955,33.959-12.955,46.913,0C180.366,231.831,180.366,252.835,167.412,265.79z"/>
<path style="fill:#A3E3FF;" d="M174.972,230.574c4.475,11.826,1.962,25.694-7.56,35.216c-60.413,60.413-7.829,156.44-37.248,179.138
	c-10.156,7.836-20.995,4.547-34.368,2.884C88.053,314.983,137.073,253.984,174.972,230.574z"/>
<path style="fill:#FAE17C;" d="M120.498,218.877c10.772-10.772,27.105-12.578,39.752-5.437
	C108.011,249.327,36.753,345.093,49.925,454.08c-22.76,4.534-49.813,2.372-42.968-51.498
	C18.076,315.063,81.22,258.155,120.498,218.877z"/>
<path style="fill:#A3E3FF;" d="M183.967,415.452c11.654,7.117,16.461,23.191,4.486,32.364c-11.974,9.173-25.369,3.6-30.826-9.865
	C152.17,424.486,162.038,402.06,183.967,415.452z"/>
<path style="fill:#FAE17C;" d="M26.191,259.103c8.77,0.738,19.021,13.214,4.826,24.634s-24.983,7.601-29.242,0
	S-0.779,256.832,26.191,259.103z"/>
<g>
</g>
<g>
</g>
<g>
</g>
<g>
</g>
<g>
</g>
<g>
</g>
<g>
</g>
<g>
</g>
<g>
</g>
<g>
</g>
<g>
</g>
<g>
</g>
<g>
</g>
<g>
</g>
<g>
</g>
</svg>
