<svg id="Capa_1" enable-background="new 0 0 512 512" height="512" viewBox="0 0 512 512" width="512" xmlns="http://www.w3.org/2000/svg"><g><g><path clip-rule="evenodd" d="m62.752 88.704v35.259 168.188c0 9.467 7.738 17.204 17.178 17.204h272.858l69.447 52.463 34.724 26.217v-78.681h27.836c9.439 0 17.206-7.738 17.206-17.204v-203.446c0-9.467-7.738-17.204-17.206-17.204h-404.866c-9.439 0-17.177 7.738-17.177 17.204z" fill="#dfedff" fill-rule="evenodd"/></g><g><path clip-rule="evenodd" d="m10 141.139v203.476c0 9.467 7.738 17.204 17.206 17.204h27.836v78.681l104.143-78.681h263.05l-69.447-52.463h-272.859c-9.439 0-17.178-7.738-17.178-17.204v-168.189h-35.545c-9.468 0-17.206 7.738-17.206 17.176z" fill="#a0c8ff" fill-rule="evenodd"/></g><g><path d="m484.794 61.5h-404.864c-14.986 0-27.178 12.204-27.178 27.204v25.259h-25.546c-15.002 0-27.206 12.191-27.206 27.177v203.476c0 15 12.204 27.204 27.206 27.204h17.836v68.68c0 3.794 2.147 7.262 5.544 8.952 1.411.702 2.937 1.048 4.455 1.048 2.137 0 4.26-.685 6.029-2.021l101.467-76.659h256.357l32.037 24.197c1.77 1.337 3.892 2.021 6.028 2.021 1.519 0 3.045-.346 4.456-1.048 3.396-1.691 5.543-5.158 5.543-8.952v-68.681h17.836c15.001 0 27.206-12.204 27.206-27.205v-203.448c0-15-12.205-27.204-27.206-27.204zm7.206 230.651c0 3.905-3.3 7.205-7.206 7.205h-27.836c-5.522 0-10 4.478-10 10v58.596l-88.144-66.575c-1.736-1.312-3.853-2.021-6.027-2.021h-114.007c-5.522 0-10 4.478-10 10s4.478 10 10 10h110.654l42.98 32.463h-233.23c-2.176 0-4.292.71-6.028 2.021l-88.114 66.571v-58.593c0-5.522-4.478-10-10-10h-27.836c-3.974 0-7.206-3.231-7.206-7.204v-203.474c0-3.891 3.3-7.177 7.206-7.177h25.546v158.188c0 15.001 12.191 27.205 27.178 27.205h69.051c5.522 0 10-4.478 10-10s-4.478-10-10-10h-69.051c-3.891 0-7.178-3.3-7.178-7.205v-203.447c0-3.905 3.287-7.204 7.178-7.204h404.864c3.974 0 7.206 3.231 7.206 7.204z"/><path d="m297.654 201.855c-.094-.25-.197-.495-.31-.736l-30.896-73.275c-.069-.164-.138-.307-.207-.433-1.018-2.126-2.778-3.907-5.121-4.896-5.084-2.146-10.953.237-13.101 5.327l-31.039 73.571c-.017.041-.034.081-.052.122l-17.183 40.728c-2.146 5.088.238 10.953 5.327 13.101 1.269.535 2.586.789 3.883.789 3.899 0 7.606-2.297 9.218-6.116l14.628-34.672h48.843l14.618 34.67c1.611 3.821 5.318 6.118 9.219 6.118 1.296 0 2.612-.254 3.881-.788 5.09-2.146 7.476-8.011 5.33-13.1zm-56.414-6.49 15.991-37.903 15.981 37.903z"/><path d="m435.523 222.986c7.832-11.435 12.503-25.727 12.503-41.226 0-37.384-27.14-67.797-60.499-67.797-33.375 0-60.527 30.413-60.527 67.797 0 37.401 27.152 67.829 60.527 67.829 12.734 0 24.554-4.444 34.312-12.007l18.784 18.642c1.95 1.936 4.497 2.902 7.044 2.902 2.571 0 5.143-.986 7.098-2.956 3.891-3.92 3.866-10.251-.054-14.142zm-14.494-14.385-17.39-17.259c-3.92-3.89-10.251-3.867-14.142.054-3.891 3.92-3.866 10.251.054 14.142l17.943 17.809c-5.898 3.965-12.71 6.243-19.968 6.243-22.347 0-40.527-21.456-40.527-47.829 0-26.355 18.181-47.797 40.527-47.797 22.331 0 40.499 21.441 40.499 47.797.001 9.94-2.582 19.182-6.996 26.84z"/><path d="m194.838 184.136c0-5.522-4.478-10-10-10h-54.148v-32.406h54.147c5.522 0 10-4.478 10-10s-4.478-10-10-10h-64.147c-5.522 0-10 4.478-10 10v117.397c0 5.522 4.478 10 10 10s10-4.478 10-10v-54.991h54.147c5.523 0 10.001-4.478 10.001-10z"/><path d="m193.88 299.356c-5.522 0-10 4.478-10 10s4.478 10 10 10h.028c5.522 0 9.985-4.478 9.985-10s-4.491-10-10.013-10z"/></g></g></svg>