<?xml version="1.0" encoding="iso-8859-1"?>
<!-- Generator: Adobe Illustrator 19.0.0, SVG Export Plug-In . SVG Version: 6.00 Build 0)  -->
<svg version="1.1" id="Capa_1" xmlns="http://www.w3.org/2000/svg" xmlns:xlink="http://www.w3.org/1999/xlink" x="0px" y="0px"
	 viewBox="0 0 201.387 201.387" style="enable-background:new 0 0 201.387 201.387;" xml:space="preserve">
<path style="fill:#DDDDDD;" d="M157.013,182.613H44.373c-22.622,0-40.96-18.338-40.96-40.96l0,0c0-22.622,18.338-40.96,40.96-40.96
	h112.64c22.622,0,40.96,18.338,40.96,40.96l0,0C197.973,164.275,179.635,182.613,157.013,182.613z"/>
<path d="M157.013,186.027H44.373C19.907,186.027,0,166.122,0,141.653S19.907,97.28,44.373,97.28h112.64
	c24.467,0,44.373,19.905,44.373,44.373S181.48,186.027,157.013,186.027z M44.373,104.107c-20.704,0-37.547,16.843-37.547,37.547
	S23.67,179.2,44.373,179.2h112.64c20.704,0,37.547-16.843,37.547-37.547s-16.843-37.547-37.547-37.547H44.373z"/>
<circle style="fill:#FEDA38;" cx="131.413" cy="129.707" r="8.533"/>
<path d="M131.413,141.653c-6.588,0-11.947-5.361-11.947-11.947s5.359-11.947,11.947-11.947c6.588,0,11.947,5.361,11.947,11.947
	S138.001,141.653,131.413,141.653z M131.413,124.587c-2.823,0-5.12,2.297-5.12,5.12c0,2.823,2.297,5.12,5.12,5.12
	c2.823,0,5.12-2.297,5.12-5.12C136.533,126.884,134.236,124.587,131.413,124.587z"/>
<circle style="fill:#EE5281;" cx="110.933" cy="153.6" r="8.533"/>
<path d="M110.933,165.547c-6.588,0-11.947-5.361-11.947-11.947s5.359-11.947,11.947-11.947c6.588,0,11.947,5.361,11.947,11.947
	S117.521,165.547,110.933,165.547z M110.933,148.48c-2.823,0-5.12,2.297-5.12,5.12c0,2.823,2.297,5.12,5.12,5.12
	s5.12-2.297,5.12-5.12C116.053,150.777,113.756,148.48,110.933,148.48z"/>
<circle style="fill:#FEDA38;" cx="168.96" cy="129.707" r="8.533"/>
<path d="M168.96,141.653c-6.588,0-11.947-5.361-11.947-11.947s5.359-11.947,11.947-11.947s11.947,5.361,11.947,11.947
	S175.548,141.653,168.96,141.653z M168.96,124.587c-2.823,0-5.12,2.297-5.12,5.12c0,2.823,2.297,5.12,5.12,5.12
	c2.823,0,5.12-2.297,5.12-5.12C174.08,126.884,171.783,124.587,168.96,124.587z"/>
<circle style="fill:#EE5281;" cx="148.48" cy="153.6" r="8.533"/>
<path d="M148.48,165.547c-6.588,0-11.947-5.361-11.947-11.947s5.359-11.947,11.947-11.947c6.588,0,11.947,5.361,11.947,11.947
	S155.068,165.547,148.48,165.547z M148.48,148.48c-2.823,0-5.12,2.297-5.12,5.12c0,2.823,2.297,5.12,5.12,5.12
	c2.823,0,5.12-2.297,5.12-5.12C153.6,150.777,151.303,148.48,148.48,148.48z"/>
<path style="fill:#777777;" d="M157.013,100.693H44.373c-22.622,0-40.96-18.338-40.96-40.96l0,0c0-22.622,18.338-40.96,40.96-40.96
	h112.64c22.622,0,40.96,18.338,40.96,40.96l0,0C197.973,82.355,179.635,100.693,157.013,100.693z"/>
<path d="M157.013,104.107H44.373C19.907,104.107,0,84.202,0,59.733S19.907,15.36,44.373,15.36h112.64
	c24.467,0,44.373,19.905,44.373,44.373S181.48,104.107,157.013,104.107z M44.373,22.187c-20.704,0-37.547,16.843-37.547,37.547
	S23.67,97.28,44.373,97.28h112.64c20.704,0,37.547-16.843,37.547-37.547s-16.843-37.547-37.547-37.547H44.373z"/>
<rect x="40.96" y="32.427" style="fill:#288EEA;" width="119.467" height="54.613"/>
<path d="M160.427,90.453H40.96c-1.884,0-3.413-1.529-3.413-3.413V32.427c0-1.884,1.529-3.413,3.413-3.413h119.467
	c1.884,0,3.413,1.529,3.413,3.413V87.04C163.84,88.924,162.311,90.453,160.427,90.453z M44.373,83.627h112.64V35.84H44.373V83.627z"
	/>
<rect x="40.96" y="124.587" width="6.827" height="27.307"/>
<rect x="30.72" y="134.827" width="27.307" height="6.827"/>
<circle style="fill:#FEDA38;" cx="27.307" cy="42.667" r="3.413"/>
<path d="M27.307,49.493c-3.765,0-6.827-3.062-6.827-6.827s3.062-6.827,6.827-6.827s6.827,3.062,6.827,6.827
	S31.072,49.493,27.307,49.493z M27.307,42.662v0.005V42.662z"/>
<circle style="fill:#FEDA38;" cx="27.307" cy="59.733" r="3.413"/>
<path d="M27.307,66.56c-3.765,0-6.827-3.062-6.827-6.827s3.062-6.827,6.827-6.827s6.827,3.062,6.827,6.827
	C34.133,63.498,31.072,66.56,27.307,66.56z M27.307,59.728v0.005V59.728z"/>
<circle style="fill:#FEDA38;" cx="27.307" cy="76.8" r="3.413"/>
<path d="M27.307,83.627c-3.765,0-6.827-3.062-6.827-6.827c0-3.765,3.062-6.827,6.827-6.827s6.827,3.062,6.827,6.827
	C34.133,80.565,31.072,83.627,27.307,83.627z M27.307,76.795V76.8V76.795z"/>
<circle style="fill:#FEDA38;" cx="174.08" cy="42.667" r="3.413"/>
<path d="M174.08,49.493c-3.765,0-6.827-3.062-6.827-6.827s3.062-6.827,6.827-6.827s6.827,3.062,6.827,6.827
	S177.845,49.493,174.08,49.493z M174.08,42.662v0.005V42.662z"/>
<circle style="fill:#FEDA38;" cx="174.08" cy="59.733" r="3.413"/>
<path d="M174.08,66.56c-3.765,0-6.827-3.062-6.827-6.827s3.062-6.827,6.827-6.827s6.827,3.062,6.827,6.827
	C180.907,63.498,177.845,66.56,174.08,66.56z M174.08,59.728v0.005V59.728z"/>
<circle style="fill:#FEDA38;" cx="174.08" cy="76.8" r="3.413"/>
<path d="M174.08,83.627c-3.765,0-6.827-3.062-6.827-6.827c0-3.765,3.062-6.827,6.827-6.827s6.827,3.062,6.827,6.827
	C180.907,80.565,177.845,83.627,174.08,83.627z M174.08,76.795V76.8V76.795z"/>
<g>
</g>
<g>
</g>
<g>
</g>
<g>
</g>
<g>
</g>
<g>
</g>
<g>
</g>
<g>
</g>
<g>
</g>
<g>
</g>
<g>
</g>
<g>
</g>
<g>
</g>
<g>
</g>
<g>
</g>
</svg>
