<?xml version="1.0" encoding="iso-8859-1"?>
<!-- Generator: Adobe Illustrator 19.0.0, SVG Export Plug-In . SVG Version: 6.00 Build 0)  -->
<svg version="1.1" id="Capa_1" xmlns="http://www.w3.org/2000/svg" xmlns:xlink="http://www.w3.org/1999/xlink" x="0px" y="0px"
	 viewBox="0 0 512.001 512.001" style="enable-background:new 0 0 512.001 512.001;" xml:space="preserve">
<path style="fill:#FFB301;" d="M469.333,268.8v34.133h8.534c4.707,0.014,8.519,3.826,8.534,8.534v17.066
	c-0.014,4.707-3.826,8.519-8.534,8.534h-8.534v34.133h8.534c4.707,0.014,8.519,3.826,8.534,8.534v17.066
	c-0.014,4.707-3.826,8.519-8.534,8.534h-8.534v34.133H42.667v-34.133h-8.534c-4.707-0.014-8.519-3.826-8.534-8.534v-17.066
	c0.014-4.707,3.826-8.519,8.534-8.534h8.534v-34.133h-8.534c-4.707-0.014-8.519-3.826-8.534-8.534v-17.066
	c0.014-4.707,3.826-8.519,8.534-8.534h8.534V268.8h-8.534c-4.707-0.014-8.519-3.826-8.534-8.534v-17.066
	c0.014-4.707,3.826-8.519,8.534-8.534h8.534V192h426.667v42.667h8.534c4.707,0.014,8.519,3.826,8.534,8.534v17.066
	c-0.014,4.707-3.826,8.519-8.534,8.534H469.333L469.333,268.8z"/>
<path style="fill:#FEC108;" d="M435.2,268.8v34.133h8.534c4.707,0.014,8.519,3.826,8.534,8.534v17.066
	c-0.014,4.707-3.826,8.519-8.534,8.534H435.2v34.133h8.534c4.707,0.014,8.519,3.826,8.534,8.534v17.066
	c-0.014,4.707-3.826,8.519-8.534,8.534H435.2v34.133H42.667v-34.133h-8.534c-4.707-0.014-8.519-3.826-8.534-8.534v-17.066
	c0.014-4.707,3.826-8.519,8.534-8.534h8.534v-34.133h-8.534c-4.707-0.014-8.519-3.826-8.534-8.534v-17.066
	c0.014-4.707,3.826-8.519,8.534-8.534h8.534V268.8h-8.534c-4.707-0.014-8.519-3.826-8.534-8.534v-17.066
	c0.014-4.707,3.826-8.519,8.534-8.534h8.534V192h392.533v42.667h8.534c4.707,0.014,8.519,3.826,8.534,8.534v17.066
	c-0.014,4.707-3.826,8.519-8.534,8.534H435.2L435.2,268.8z"/>
<path style="fill:#37474F;" d="M17.066,439.467h477.867c4.713,0,8.534,3.821,8.534,8.534v25.6l0,0H8.534l0,0V448
	C8.534,443.288,12.354,439.467,17.066,439.467z"/>
<path style="fill:#607D8B;" d="M17.066,439.467h443.733c4.713,0,8.534,3.821,8.534,8.534v25.6l0,0H8.534l0,0V448
	C8.534,443.288,12.354,439.467,17.066,439.467z"/>
<path d="M503.466,482.134H8.534c-4.712,0.001-8.533-3.818-8.534-8.529c0-0.001,0-0.003,0-0.004V448
	c0.011-9.421,7.645-17.056,17.066-17.066h477.867c9.421,0.011,17.056,7.645,17.066,17.066v25.6c0.001,4.712-3.818,8.533-8.529,8.534
	C503.47,482.134,503.468,482.134,503.466,482.134z M17.066,465.068h477.867v-17.066H17.066V465.068z"/>
<path style="fill:#C52828;" d="M332.8,345.601v93.867H179.2v-93.867c0.005-35.847,24.788-66.932,59.733-74.922
	c5.604-1.237,11.327-1.867,17.066-1.877C298.414,268.804,332.797,303.187,332.8,345.601z"/>
<path style="fill:#F44335;" d="M298.667,345.601v93.867H179.2v-93.867c0.005-35.847,24.788-66.932,59.733-74.922
	C273.878,278.669,298.661,309.754,298.667,345.601z"/>
<path d="M332.8,448H179.2c-4.712,0.001-8.533-3.818-8.534-8.529c0-0.001,0-0.003,0-0.004V345.6
	c0-47.128,38.205-85.333,85.333-85.333s85.333,38.205,85.333,85.333v93.867c0.001,4.712-3.818,8.533-8.529,8.534
	C332.803,448,332.801,448,332.8,448z M187.734,430.934h136.533v-85.333c0-37.703-30.564-68.267-68.267-68.267
	s-68.267,30.564-68.267,68.267v85.333H187.734z"/>
<path style="fill:#37474F;" d="M298.667,345.601v93.867h-85.333v-93.867c0.038-16.969,10.073-32.323,25.6-39.168
	c5.396-2.303,11.2-3.493,17.066-3.498C279.561,302.942,298.658,322.04,298.667,345.601z"/>
<path style="fill:#607D8B;" d="M264.533,345.601v93.867h-51.2v-93.867c0.038-16.969,10.073-32.323,25.6-39.168
	C254.461,313.278,264.495,328.632,264.533,345.601z"/>
<path d="M298.667,448h-85.333c-4.712,0.001-8.533-3.818-8.534-8.529c0-0.001,0-0.003,0-0.004V345.6c0-28.277,22.923-51.2,51.2-51.2
	s51.2,22.923,51.2,51.2v93.867c0.001,4.712-3.818,8.533-8.529,8.534C298.67,448,298.669,448,298.667,448z M221.867,430.934h68.267
	v-85.333c0-18.852-15.282-34.133-34.133-34.133c-18.852,0-34.133,15.282-34.133,34.133L221.867,430.934L221.867,430.934z"/>
<path d="M256.001,311.468c-4.712,0.001-8.533-3.818-8.534-8.528c0-0.001,0-0.003,0-0.004v-34.133c0-4.713,3.821-8.534,8.534-8.534
	s8.534,3.821,8.534,8.534v34.133c0.001,4.712-3.818,8.533-8.529,8.534C256.003,311.468,256.002,311.468,256.001,311.468z"/>
<path d="M213.333,405.334H179.2c-4.713,0-8.534-3.821-8.534-8.534c0-4.713,3.821-8.534,8.534-8.534h34.133
	c4.713,0,8.534,3.821,8.534,8.534C221.867,401.513,218.046,405.334,213.333,405.334z"/>
<path d="M213.333,362.667H179.2c-4.713,0-8.534-3.821-8.534-8.534s3.821-8.534,8.534-8.534h34.133c4.713,0,8.534,3.821,8.534,8.534
	S218.046,362.667,213.333,362.667z"/>
<rect x="204.792" y="283.269" transform="matrix(0.8321 -0.5547 0.5547 0.8321 -129.8318 168.4809)" width="17.067" height="30.769"/>
<path d="M332.8,405.334h-34.133c-4.713,0-8.534-3.821-8.534-8.534c0-4.713,3.821-8.534,8.534-8.534H332.8
	c4.713,0,8.534,3.821,8.534,8.534C341.334,401.513,337.513,405.334,332.8,405.334z"/>
<path d="M332.8,362.667h-34.133c-4.713,0-8.534-3.821-8.534-8.534s3.821-8.534,8.534-8.534H332.8c4.713,0,8.534,3.821,8.534,8.534
	S337.513,362.667,332.8,362.667z"/>
<rect x="283.279" y="290.144" transform="matrix(0.5547 -0.8321 0.8321 0.5547 -115.5176 381.5151)" width="30.769" height="17.067"/>
<path d="M469.333,448H42.667c-4.712,0.001-8.533-3.818-8.534-8.529c0-0.001,0-0.003,0-0.004v-25.6
	c-9.421-0.011-17.056-7.645-17.066-17.066v-17.066c0.011-9.421,7.645-17.056,17.066-17.066v-17.066
	c-9.421-0.011-17.056-7.645-17.066-17.066V311.47c0.011-9.421,7.645-17.056,17.066-17.066v-17.066
	c-9.421-0.011-17.056-7.645-17.066-17.066v-17.066c0.011-9.421,7.645-17.056,17.066-17.066v-34.133
	c-0.001-4.712,3.818-8.533,8.529-8.534c0.001,0,0.003,0,0.004,0h426.667c4.712-0.001,8.533,3.818,8.534,8.529
	c0,0.001,0,0.003,0,0.004v34.133c9.421,0.011,17.056,7.645,17.066,17.066v17.066c-0.011,9.421-7.645,17.056-17.066,17.066v17.066
	c9.421,0.011,17.056,7.645,17.066,17.066v17.066c-0.011,9.421-7.645,17.056-17.066,17.066v17.066
	c9.421,0.011,17.056,7.645,17.066,17.066v17.066c-0.011,9.421-7.645,17.056-17.066,17.066v25.6c0.001,4.712-3.818,8.533-8.529,8.534
	C469.336,448,469.335,448,469.333,448z M51.2,430.934h409.6v-25.6c-0.001-4.712,3.818-8.533,8.529-8.534c0.001,0,0.003,0,0.004,0
	h8.534v-17.066h-8.534c-4.712,0.001-8.533-3.818-8.534-8.529c0-0.001,0-0.003,0-0.004v-34.133c-0.001-4.712,3.818-8.533,8.529-8.534
	c0.001,0,0.003,0,0.004,0h8.534v-17.066h-8.534c-4.712,0.001-8.533-3.818-8.534-8.528c0-0.001,0-0.003,0-0.004v-34.133
	c-0.001-4.712,3.818-8.533,8.529-8.534c0.001,0,0.003,0,0.004,0h8.534v-17.066h-8.534c-4.712,0.001-8.533-3.818-8.534-8.529
	c0-0.001,0-0.003,0-0.004v-34.133H51.2v34.133c0.001,4.712-3.818,8.533-8.529,8.534c-0.001,0-0.003,0-0.004,0h-8.534v17.066h8.534
	c4.712-0.001,8.533,3.818,8.534,8.529c0,0.001,0,0.003,0,0.004v34.133c0.001,4.712-3.818,8.533-8.529,8.534
	c-0.001,0-0.003,0-0.004,0h-8.534v17.066h8.534c4.712-0.001,8.533,3.818,8.534,8.529c0,0.001,0,0.003,0,0.004v34.133
	c0.001,4.712-3.818,8.533-8.529,8.534c-0.001,0-0.003,0-0.004,0h-8.534v17.066h8.534c4.712-0.001,8.533,3.818,8.534,8.529
	c0,0.001,0,0.003,0,0.004V430.934z"/>
<path d="M93.867,243.201h-51.2c-4.713,0-8.534-3.821-8.534-8.534s3.821-8.534,8.534-8.534h51.2c4.713,0,8.534,3.821,8.534,8.534
	S98.579,243.201,93.867,243.201z"/>
<path d="M128,277.334H42.667c-4.713,0-8.534-3.821-8.534-8.534c0-4.713,3.821-8.534,8.534-8.534H128
	c4.713,0,8.534,3.821,8.534,8.534C136.534,273.513,132.713,277.334,128,277.334z"/>
<path d="M128,311.468H42.667c-4.713,0-8.534-3.821-8.534-8.534c0-4.713,3.821-8.534,8.534-8.534H128
	c4.713,0,8.534,3.821,8.534,8.534C136.534,307.647,132.713,311.468,128,311.468z"/>
<path d="M93.867,345.601h-51.2c-4.713,0-8.534-3.821-8.534-8.534c0-4.713,3.821-8.534,8.534-8.534h51.2
	c4.713,0,8.534,3.821,8.534,8.534C102.4,341.78,98.579,345.601,93.867,345.601z"/>
<path d="M128,379.733H42.667c-4.713,0-8.534-3.821-8.534-8.534c0-4.713,3.821-8.534,8.534-8.534H128
	c4.713,0,8.534,3.821,8.534,8.534C136.533,375.914,132.713,379.733,128,379.733z"/>
<path d="M128,413.867H42.667c-4.713,0-8.534-3.821-8.534-8.534c0-4.713,3.821-8.534,8.534-8.534H128
	c4.713,0,8.534,3.821,8.534,8.534C136.533,410.047,132.713,413.867,128,413.867z"/>
<path d="M469.333,243.201h-51.2c-4.713,0-8.534-3.821-8.534-8.534s3.821-8.534,8.534-8.534h51.2c4.713,0,8.534,3.821,8.534,8.534
	C477.867,239.38,474.047,243.201,469.333,243.201z"/>
<path d="M469.333,277.334H384c-4.713,0-8.534-3.821-8.534-8.534c0-4.713,3.821-8.534,8.534-8.534h85.333
	c4.713,0,8.534,3.821,8.534,8.534C477.867,273.513,474.047,277.334,469.333,277.334z"/>
<path d="M469.333,311.468H384c-4.713,0-8.534-3.821-8.534-8.534c0-4.713,3.821-8.534,8.534-8.534h85.333
	c4.713,0,8.534,3.821,8.534,8.534C477.867,307.647,474.047,311.468,469.333,311.468z"/>
<path d="M469.333,345.601h-51.2c-4.713,0-8.534-3.821-8.534-8.534c0-4.713,3.821-8.534,8.534-8.534h51.2
	c4.713,0,8.534,3.821,8.534,8.534C477.867,341.78,474.047,345.601,469.333,345.601z"/>
<path d="M469.333,379.733H384c-4.713,0-8.534-3.821-8.534-8.534c0-4.713,3.821-8.534,8.534-8.534h85.333
	c4.713,0,8.534,3.821,8.534,8.534C477.867,375.914,474.047,379.733,469.333,379.733z"/>
<path d="M469.333,413.867H384c-4.713,0-8.534-3.821-8.534-8.534c0-4.713,3.821-8.534,8.534-8.534h85.333
	c4.713,0,8.534,3.821,8.534,8.534C477.867,410.047,474.047,413.867,469.333,413.867z"/>
<path d="M93.867,311.468c-4.712,0.001-8.533-3.818-8.534-8.528c0-0.001,0-0.003,0-0.004v-25.6c0-4.713,3.821-8.534,8.534-8.534
	s8.534,3.821,8.534,8.534v25.6c0.001,4.712-3.818,8.533-8.529,8.534C93.87,311.468,93.868,311.468,93.867,311.468z"/>
<path d="M93.867,405.334c-4.712,0.001-8.533-3.818-8.534-8.529c0-0.001,0-0.003,0-0.004v-25.6c0-4.713,3.821-8.534,8.534-8.534
	s8.534,3.821,8.534,8.534v25.6c0.001,4.712-3.818,8.533-8.529,8.534C93.87,405.334,93.868,405.334,93.867,405.334z"/>
<path d="M418.133,311.468c-4.712,0.001-8.533-3.818-8.534-8.528c0-0.001,0-0.003,0-0.004v-25.6c0-4.713,3.821-8.534,8.534-8.534
	c4.713,0,8.534,3.821,8.534,8.534v25.6c0.001,4.712-3.818,8.533-8.529,8.534C418.136,311.468,418.135,311.468,418.133,311.468z"/>
<path d="M418.133,405.334c-4.712,0.001-8.533-3.818-8.534-8.529c0-0.001,0-0.003,0-0.004v-25.6c0-4.713,3.821-8.534,8.534-8.534
	c4.713,0,8.534,3.821,8.534,8.534v25.6c0.001,4.712-3.818,8.533-8.529,8.534C418.136,405.334,418.135,405.334,418.133,405.334z"/>
<path style="fill:#C52828;" d="M8.534,157.867h494.934l0,0v25.6c0,4.713-3.821,8.534-8.534,8.534H17.066
	c-4.713,0-8.534-3.821-8.534-8.534v-25.6H8.534z"/>
<path style="fill:#F44335;" d="M8.534,157.867h460.8l0,0v25.6c0,4.713-3.821,8.534-8.534,8.534H17.066
	c-4.713,0-8.534-3.821-8.534-8.534v-25.6H8.534z"/>
<path d="M494.934,200.534H17.066C7.645,200.523,0.011,192.888,0,183.467v-25.6c-0.001-4.712,3.818-8.533,8.529-8.534
	c0.001,0,0.003,0,0.004,0h494.934c4.712-0.001,8.533,3.818,8.534,8.528c0,0.001,0,0.003,0,0.004v25.6
	C511.989,192.888,504.355,200.523,494.934,200.534z M17.066,166.401v17.066h477.879l-0.008-17.066H17.066z"/>
<path style="fill:#C52828;" d="M477.867,157.867H34.133L66.475,44.63c1.066-3.651,4.389-6.178,8.192-6.229h362.667
	c3.803,0.051,7.126,2.578,8.192,6.229L477.867,157.867z"/>
<path style="fill:#F44335;" d="M443.733,157.867h-409.6L66.475,44.63c1.066-3.651,4.389-6.178,8.192-6.229H403.2
	c3.803,0.051,7.126,2.578,8.192,6.229L443.733,157.867z"/>
<path d="M477.867,166.401H34.133c-4.711,0.002-8.53-3.814-8.534-8.524c0-0.795,0.111-1.586,0.329-2.351L58.296,42.25
	c2.11-7.315,8.795-12.36,16.408-12.383h362.592c7.613,0.023,14.298,5.068,16.408,12.383l32.367,113.275
	c1.295,4.528-1.325,9.25-5.853,10.546C479.453,166.29,478.662,166.401,477.867,166.401z M45.446,149.334h421.109l-29.258-102.4
	H74.704L45.446,149.334z"/>
<path d="M281.6,81.067H119.467c-4.713,0-8.534-3.821-8.534-8.534S114.754,64,119.467,64H281.6c4.713,0,8.534,3.821,8.534,8.534
	S286.313,81.067,281.6,81.067z"/>
<path d="M307.2,115.2H85.333c-4.713,0-8.534-3.821-8.534-8.534s3.821-8.534,8.534-8.534H307.2c4.713,0,8.534,3.821,8.534,8.534
	C315.734,111.38,311.913,115.2,307.2,115.2z"/>
<path d="M145.066,115.2c-4.712,0.001-8.533-3.818-8.534-8.529c0-0.001,0-0.003,0-0.004V72.534c0-4.713,3.821-8.534,8.534-8.534
	c4.713,0,8.534,3.821,8.534,8.534v34.133c0.001,4.712-3.818,8.533-8.529,8.534C145.07,115.2,145.069,115.2,145.066,115.2z"/>
<path d="M213.333,132.268c-4.712,0.001-8.533-3.818-8.534-8.529c0-0.001,0-0.003,0-0.004v-17.066c0-4.713,3.821-8.534,8.534-8.534
	c4.713,0,8.534,3.821,8.534,8.534v17.066c0.001,4.712-3.818,8.533-8.529,8.534C213.337,132.268,213.334,132.268,213.333,132.268z"/>
<g>
</g>
<g>
</g>
<g>
</g>
<g>
</g>
<g>
</g>
<g>
</g>
<g>
</g>
<g>
</g>
<g>
</g>
<g>
</g>
<g>
</g>
<g>
</g>
<g>
</g>
<g>
</g>
<g>
</g>
</svg>
