<svg id="filled_outline" height="512" viewBox="0 0 512 512" width="512" xmlns="http://www.w3.org/2000/svg" data-name="filled outline"><path d="m392 488v-384a32 32 0 0 0 -32-32h-272a32 32 0 0 0 -32 32v352a32 32 0 0 0 32 32z" fill="#c78640"/><path d="m88 104h272v352h-272z" fill="#d1e4ff"/><path d="m456 352v-96a64 64 0 0 0 -64-64h-54.11147a28.94425 28.94425 0 0 0 -25.88853 16l-8 24v64l32 56z" fill="#ffceb6"/><path d="m336 352h120v136h-120z" fill="#548aff"/><path d="m184 72 16.84459-33.68918a25.88851 25.88851 0 0 1 23.15541-14.31082 25.88851 25.88851 0 0 1 23.15539 14.31082l16.84461 33.68918z" fill="#ffb401"/><path d="m328 72h-208l32 56h144z" fill="#ffc431"/><path d="m416 280-120-80h-40l24 32 120 72z" fill="#ffc431"/><path d="m360 64h-91.05566l-14.63379-29.2666a33.88826 33.88826 0 0 0 -60.6211-.001l-14.63379 29.2676h-91.05566a40.04584 40.04584 0 0 0 -40 40v352a40.04584 40.04584 0 0 0 40 40h224v-16h-224a24.0275 24.0275 0 0 1 -24-24v-352a24.0275 24.0275 0 0 1 24-24h27.35742l9.14258 16h-36.5a8.00039 8.00039 0 0 0 -8 8v352a8.00039 8.00039 0 0 0 8 8h224v-16h-216v-336h37.64307l11.41064 19.96875a8 8 0 0 0 6.94629 4.03125h144a8 8 0 0 0 6.94629-4.03125l11.41064-19.96875h37.64307v56h16v-64a8.00039 8.00039 0 0 0 -8-8h-36.5l9.14258-16h27.35742a24.0275 24.0275 0 0 1 24 24v64h16v-64a40.04584 40.04584 0 0 0 -40-40zm-152-22.1123a17.88883 17.88883 0 0 1 32 .001l11.05566 22.1113h-54.11157zm83.35742 78.1123h-134.71484l-22.85742-40h180.42968z"/><circle cx="224" cy="48" r="8"/><path d="m464 496v-240a72.08124 72.08124 0 0 0 -72-72h-54.11133a36.69594 36.69594 0 0 0 -29.46191 14.66992l-7.98926-5.32617a8.00221 8.00221 0 0 0 -4.4375-1.34375h-40a8.00013 8.00013 0 0 0 -6.40039 12.7998l24 32a8.0218 8.0218 0 0 0 2.28418 2.06055l20.11621 12.06983v45.06982a7.99833 7.99833 0 0 0 1.05371 3.96875l30.94629 54.15625v141.875h16v-136h104v136zm-59.09375-213.78125-4.17578 6.26416-.002.00244-.00147.00269-3.15185 4.72778-107.10669-64.2644 8.63427-17.26831zm-121.85059-74.21875-4.42236 8.84448-6.6333-8.84448zm57.58692 136-28.64258-50.125v-33.345l83.88379 50.33032a7.998 7.998 0 0 0 10.77246-2.42285l2.94727-4.4209 9.959 6.63965a7.99982 7.99982 0 1 0 8.875-13.3125l-9.959-6.63965 4.17773-6.2666a7.99888 7.99888 0 0 0 -2.21875-11.09375l-8.113-5.40869 10.33179-15.49756a7.99888 7.99888 0 0 0 -2.21875-11.09375l-48-32-8.875 13.3125 41.34375 27.5625-5.89429 8.84131-77.23852-51.49219a20.80762 20.80762 0 0 1 16.11519-7.56784h54.11133a56.0629 56.0629 0 0 1 56 56v88z"/><path d="m120 160h32v16h-32z"/><path d="m240 160h56v16h-56z"/><path d="m168 160h56v16h-56z"/><path d="m120 208h64v16h-64z"/><path d="m200 208h32v16h-32z"/><path d="m120 256h32v16h-32z"/><path d="m168 256h96v16h-96z"/><path d="m152 304h40v16h-40z"/><path d="m120 304h16v16h-16z"/><path d="m208 304h64v16h-64z"/><path d="m176 352h56v16h-56z"/><path d="m120 352h40v16h-40z"/><path d="m248 352h56v16h-56z"/><path d="m152 400h104v16h-104z"/><path d="m120 400h16v16h-16z"/><path d="m272 400h40v16h-40z"/></svg>