<?xml version="1.0" encoding="iso-8859-1"?>
<!-- Generator: Adobe Illustrator 19.0.0, SVG Export Plug-In . SVG Version: 6.00 Build 0)  -->
<svg version="1.1" id="Capa_1" xmlns="http://www.w3.org/2000/svg" xmlns:xlink="http://www.w3.org/1999/xlink" x="0px" y="0px"
	 viewBox="0 0 512 512" style="enable-background:new 0 0 512 512;" xml:space="preserve">
<g>
	<g>
		<g>
			<path d="M305,148c11.046,0,20-8.954,20-20V90c0-11.046-8.954-20-20-20c-11.046,0-20,8.954-20,20v38
				C285,139.046,293.954,148,305,148z"/>
			<path d="M492,352c11.046,0,20-8.954,20-20V102c0-5.304-2.107-10.392-5.858-14.142l-82-82C420.392,2.107,415.304,0,410,0H80
				C35.888,0,0,35.888,0,80v352c0,44.112,35.888,80,80,80h352c44.112,0,80-35.888,80-80c0-11.046-8.954-20-20-20
				c-11.046,0-20,8.954-20,20c0,22.056-17.944,40-40,40V312c0-11.046-8.954-20-20-20H100c-11.046,0-20,8.954-20,20v160
				c-22.056,0-40-17.944-40-40V80c0-22.056,17.944-40,40-40v118c0,33.084,26.916,60,60,60h201c33.084,0,60-26.916,60-60V40h0.716
				L472,110.284V332C472,343.046,480.954,352,492,352z M120,332h272v140H120V332z M361,158c0,11.028-8.972,20-20,20H140
				c-11.028,0-20-8.972-20-20V40h241V158z"/>
		</g>
	</g>
</g>
<g>
</g>
<g>
</g>
<g>
</g>
<g>
</g>
<g>
</g>
<g>
</g>
<g>
</g>
<g>
</g>
<g>
</g>
<g>
</g>
<g>
</g>
<g>
</g>
<g>
</g>
<g>
</g>
<g>
</g>
</svg>
