<?xml version="1.0" encoding="iso-8859-1"?>
<!-- Generator: Adobe Illustrator 19.0.0, SVG Export Plug-In . SVG Version: 6.00 Build 0)  -->
<svg version="1.1" id="Layer_1" xmlns="http://www.w3.org/2000/svg" xmlns:xlink="http://www.w3.org/1999/xlink" x="0px" y="0px"
	 viewBox="0 0 505 505" style="enable-background:new 0 0 505 505;" xml:space="preserve">
<circle style="fill:#FFD05B;" cx="252.5" cy="252.5" r="252.5"/>
<path style="fill:#FFFFFF;" d="M94.7,174.3v210.6c0,8.6,7,15.6,15.6,15.6h284.5c8.6,0,15.6-7,15.6-15.6V174.3H94.7z"/>
<path style="fill:#FF7058;" d="M394.7,115.6H110.3c-8.6,0-15.6,7-15.6,15.6V175h315.6v-43.8C410.3,122.6,403.3,115.6,394.7,115.6z"
	/>
<g>
	<rect x="269.4" y="205.7" style="fill:#E6E9EE;" width="36.7" height="36.7"/>
	<rect x="339.8" y="205.7" style="fill:#E6E9EE;" width="36.7" height="36.7"/>
	<rect x="128.5" y="268.8" style="fill:#E6E9EE;" width="36.7" height="36.7"/>
	<rect x="198.9" y="268.8" style="fill:#E6E9EE;" width="36.7" height="36.7"/>
</g>
<rect x="269.4" y="268.8" style="fill:#FF7058;" width="36.7" height="36.7"/>
<g>
	<rect x="339.8" y="268.8" style="fill:#E6E9EE;" width="36.7" height="36.7"/>
	<rect x="128.5" y="331.8" style="fill:#E6E9EE;" width="36.7" height="36.7"/>
	<rect x="198.9" y="331.8" style="fill:#E6E9EE;" width="36.7" height="36.7"/>
</g>
<g>
	<circle style="fill:#FFD05B;" cx="358.2" cy="145.3" r="13.8"/>
	<circle style="fill:#FFD05B;" cx="287.7" cy="145.3" r="13.8"/>
	<circle style="fill:#FFD05B;" cx="217.3" cy="145.3" r="13.8"/>
	<circle style="fill:#FFD05B;" cx="146.8" cy="145.3" r="13.8"/>
</g>
<g>
	<path style="fill:#324A5E;" d="M358.2,143L358.2,143c-3,0-5.5-2.4-5.5-5.5v-39c0-3,2.4-5.5,5.5-5.5l0,0c3,0,5.5,2.4,5.5,5.5v39
		C363.6,140.5,361.2,143,358.2,143z"/>
	<path style="fill:#324A5E;" d="M287.7,143L287.7,143c-3,0-5.5-2.4-5.5-5.5v-39c0-3,2.4-5.5,5.5-5.5l0,0c3,0,5.5,2.4,5.5,5.5v39
		C293.2,140.5,290.7,143,287.7,143z"/>
	<path style="fill:#324A5E;" d="M217.3,143L217.3,143c-3,0-5.5-2.4-5.5-5.5v-39c0-3,2.4-5.5,5.5-5.5l0,0c3,0,5.5,2.4,5.5,5.5v39
		C222.7,140.5,220.3,143,217.3,143z"/>
	<path style="fill:#324A5E;" d="M146.8,143L146.8,143c-3,0-5.5-2.4-5.5-5.5v-39c0-3,2.4-5.5,5.5-5.5l0,0c3,0,5.5,2.4,5.5,5.5v39
		C152.3,140.5,149.8,143,146.8,143z"/>
</g>
<g>
</g>
<g>
</g>
<g>
</g>
<g>
</g>
<g>
</g>
<g>
</g>
<g>
</g>
<g>
</g>
<g>
</g>
<g>
</g>
<g>
</g>
<g>
</g>
<g>
</g>
<g>
</g>
<g>
</g>
</svg>
