<svg xmlns="http://www.w3.org/2000/svg" viewBox="0 0 505 505"><circle cx="252.5" cy="252.5" r="252.5" fill="#ffd05b"/><path d="M94.7 174.3v210.6c0 8.6 7 15.6 15.6 15.6h284.5c8.6 0 15.6-7 15.6-15.6V174.3H94.7z" fill="#fff"/><path d="M394.7 115.6H110.3c-8.6 0-15.6 7-15.6 15.6V175h315.6v-43.8c0-8.6-7-15.6-15.6-15.6z" fill="#ff7058"/><path d="M269.4 205.7h36.7v36.7h-36.7zm70.4 0h36.7v36.7h-36.7zm-211.3 63.1h36.7v36.7h-36.7zm70.4 0h36.7v36.7h-36.7z" fill="#e6e9ee"/><path fill="#ff7058" d="M269.4 268.8h36.7v36.7h-36.7z"/><path d="M339.8 268.8h36.7v36.7h-36.7zm-211.3 63h36.7v36.7h-36.7zm70.4 0h36.7v36.7h-36.7z" fill="#e6e9ee"/><g fill="#ffd05b"><circle cx="358.2" cy="145.3" r="13.8"/><circle cx="287.7" cy="145.3" r="13.8"/><circle cx="217.3" cy="145.3" r="13.8"/><circle cx="146.8" cy="145.3" r="13.8"/></g><path d="M358.2 143c-3 0-5.5-2.4-5.5-5.5v-39c0-3 2.4-5.5 5.5-5.5 3 0 5.5 2.4 5.5 5.5v39c-.1 3-2.5 5.5-5.5 5.5zm-70.5 0c-3 0-5.5-2.4-5.5-5.5v-39c0-3 2.4-5.5 5.5-5.5 3 0 5.5 2.4 5.5 5.5v39c0 3-2.5 5.5-5.5 5.5zm-70.4 0c-3 0-5.5-2.4-5.5-5.5v-39c0-3 2.4-5.5 5.5-5.5 3 0 5.5 2.4 5.5 5.5v39c-.1 3-2.5 5.5-5.5 5.5zm-70.5 0c-3 0-5.5-2.4-5.5-5.5v-39c0-3 2.4-5.5 5.5-5.5 3 0 5.5 2.4 5.5 5.5v39c0 3-2.5 5.5-5.5 5.5z" fill="#324a5e"/></svg>