<?xml version="1.0" encoding="utf-8"?>
<!-- Generator: Adobe Illustrator 24.0.2, SVG Export Plug-In . SVG Version: 6.00 Build 0)  -->
<svg version="1.1" id="Layer_1" xmlns="http://www.w3.org/2000/svg" xmlns:xlink="http://www.w3.org/1999/xlink" x="0px" y="0px"
	 viewBox="0 0 418 427" style="enable-background:new 0 0 418 427;" xml:space="preserve">
<style type="text/css">
	.st0{fill:none;}
	.st1{fill:url(#SVGID_1_);}
	.st2{fill:#FFFFFF;}
	.st3{fill:url(#SVGID_2_);}
	.st4{fill:url(#SVGID_3_);}
	.st5{fill:url(#SVGID_4_);}
	.st6{fill:url(#SVGID_5_);}
	.st7{fill:url(#SVGID_6_);}
	.st8{fill:url(#SVGID_7_);}
	.st9{fill:url(#SVGID_8_);}
	.st10{fill:url(#SVGID_9_);}
	.st11{fill:url(#SVGID_10_);}
	.st12{fill:url(#SVGID_11_);}
	.st13{fill:url(#SVGID_12_);}
	.st14{fill:url(#SVGID_13_);}
	.st15{fill:url(#SVGID_14_);}
	.st16{fill:url(#SVGID_15_);}
	.st17{fill:url(#SVGID_16_);}
	.st18{fill:url(#SVGID_17_);}
	.st19{fill:url(#SVGID_18_);}
	.st20{fill:url(#SVGID_19_);}
	.st21{fill:url(#SVGID_20_);}
	.st22{fill:url(#SVGID_21_);}
	.st23{fill:url(#SVGID_22_);}
	.st24{fill:url(#SVGID_23_);}
	.st25{fill:url(#SVGID_24_);}
	.st26{fill:url(#SVGID_25_);}
	.st27{fill:url(#SVGID_26_);}
	.st28{fill:url(#SVGID_27_);}
	.st29{fill:url(#SVGID_28_);}
	.st30{fill:url(#SVGID_29_);}
	.st31{fill:url(#SVGID_30_);}
	.st32{fill:url(#SVGID_31_);}
	.st33{fill:url(#SVGID_32_);}
	.st34{fill:url(#SVGID_33_);}
	.st35{fill:url(#SVGID_34_);}
	.st36{fill:url(#SVGID_35_);}
	.st37{fill:url(#SVGID_36_);}
	.st38{fill:url(#SVGID_37_);}
	.st39{fill:url(#SVGID_38_);}
	.st40{fill:url(#SVGID_39_);}
	.st41{fill:url(#SVGID_40_);}
	.st42{fill:url(#SVGID_41_);}
	.st43{fill:url(#SVGID_42_);}
	.st44{fill:url(#SVGID_43_);}
	.st45{fill:url(#SVGID_44_);}
	.st46{fill:url(#SVGID_45_);}
	.st47{fill:url(#SVGID_46_);}
	.st48{fill:url(#SVGID_47_);}
	.st49{fill:url(#SVGID_48_);}
	.st50{fill:url(#SVGID_49_);}
	.st51{fill:url(#SVGID_50_);}
	.st52{fill:url(#SVGID_51_);}
	.st53{fill:url(#SVGID_52_);}
	.st54{fill:url(#SVGID_53_);}
	.st55{fill:url(#SVGID_54_);}
	.st56{fill:url(#SVGID_55_);}
	.st57{fill:url(#SVGID_56_);}
	.st58{fill:url(#SVGID_57_);}
	.st59{fill:url(#SVGID_58_);}
	.st60{fill:url(#SVGID_59_);}
	.st61{fill:url(#SVGID_60_);}
	.st62{fill:url(#SVGID_61_);}
	.st63{fill:url(#SVGID_62_);}
	.st64{fill:url(#SVGID_63_);}
	.st65{fill:url(#SVGID_64_);}
	.st66{fill:url(#SVGID_65_);}
	.st67{fill:url(#SVGID_66_);}
	.st68{fill:url(#SVGID_67_);}
	.st69{fill:url(#SVGID_68_);}
	.st70{fill:url(#SVGID_69_);}
	.st71{fill:url(#SVGID_70_);}
	.st72{fill:url(#SVGID_71_);}
	.st73{fill:url(#SVGID_72_);}
	.st74{fill:url(#SVGID_73_);}
	.st75{fill:url(#SVGID_74_);}
	.st76{fill:url(#SVGID_75_);}
	.st77{fill:url(#SVGID_76_);}
	.st78{fill:url(#SVGID_77_);}
	.st79{fill:url(#SVGID_78_);}
	.st80{fill:url(#SVGID_79_);}
	.st81{fill:url(#SVGID_80_);}
	.st82{fill:url(#SVGID_81_);}
	.st83{fill:url(#SVGID_82_);}
	.st84{fill:url(#SVGID_83_);}
	.st85{fill:#F0F6F7;}
	.st86{opacity:0.2;}
	.st87{fill:#D3D3D3;}
	.st88{fill:#A54830;}
	.st89{opacity:0.13;fill:#491913;}
	.st90{fill:#B55848;}
	.st91{fill:#FF6F48;}
	.st92{opacity:0.24;fill:url(#SVGID_84_);}
	.st93{opacity:0.38;fill:#AD5225;}
	.st94{fill:#F7D02D;}
	.st95{fill:#F7D548;}
	.st96{fill:#FFC0DA;}
	.st97{fill:#FFCCE3;}
	.st98{fill:#F7B0D0;}
	.st99{fill:#4848D3;}
	.st100{clip-path:url(#SVGID_86_);fill:#F4E49F;}
	.st101{opacity:0.64;fill:#1D1D96;}
</style>
<pattern  width="245.45" height="245.13" patternUnits="userSpaceOnUse" id="Vortex_1" viewBox="122.68 -379.77 245.45 245.13" style="overflow:visible;">
	<g>
		<rect x="122.68" y="-379.77" class="st0" width="245.45" height="245.13"/>
		<g>
			<g>
				
					<linearGradient id="SVGID_1_" gradientUnits="userSpaceOnUse" x1="-76772.3672" y1="84826.3281" x2="-76718.2344" y2="84716.6641" gradientTransform="matrix(0 -1 -1 0 85078.4688 -76852.4375)">
					<stop  offset="0.05" style="stop-color:#FFFFFF;stop-opacity:0"/>
					<stop  offset="0.3367" style="stop-color:#F4FAF8;stop-opacity:0.3018"/>
					<stop  offset="0.8443" style="stop-color:#D6EBE7;stop-opacity:0.8361"/>
					<stop  offset="1" style="stop-color:#CBE6E1"/>
				</linearGradient>
				<path class="st1" d="M245.45-92.39c0,25.51,10.34,48.61,27.06,65.33l3.94-3.94c-9.36-12.67-14.9-28.32-14.9-45.28
					c0-42.13,34.15-76.28,76.28-76.28c33.23,0,60.17,26.94,60.17,60.17c0-42.13-34.15-76.28-76.28-76.28
					C279.6-168.68,245.45-134.52,245.45-92.39z"/>
				<path class="st2" d="M398.02-92.39c0,33.23-26.94,60.17-60.18,60.17c-33.23,0-60.17-26.94-60.17-60.17
					c0-33.23,26.94-60.17,60.17-60.17C371.08-152.56,398.02-125.62,398.02-92.39z"/>
				
					<linearGradient id="SVGID_2_" gradientUnits="userSpaceOnUse" x1="-84439.9063" y1="-93165.3984" x2="-84385.7656" y2="-93275.0625" gradientTransform="matrix(1 0 0 -1 84765.4219 -93343.4844)">
					<stop  offset="0.05" style="stop-color:#FFFFFF;stop-opacity:0"/>
					<stop  offset="0.3367" style="stop-color:#F4FAF8;stop-opacity:0.3018"/>
					<stop  offset="0.8443" style="stop-color:#D6EBE7;stop-opacity:0.8361"/>
					<stop  offset="1" style="stop-color:#CBE6E1"/>
				</linearGradient>
				<path class="st3" d="M337.84-184.78c-25.51,0-48.61,10.34-65.33,27.06l3.94,3.94c12.66-9.36,28.32-14.9,45.28-14.9
					c42.13,0,76.28,34.15,76.28,76.28c0,33.23-26.94,60.17-60.18,60.17c42.13,0,76.29-34.15,76.29-76.28
					C414.13-150.62,379.97-184.78,337.84-184.78z"/>
				
					<linearGradient id="SVGID_3_" gradientUnits="userSpaceOnUse" x1="93551.8203" y1="-100832.9297" x2="93605.9531" y2="-100942.5938" gradientTransform="matrix(0 1 1 0 101256.4688 -93656.5234)">
					<stop  offset="0.05" style="stop-color:#FFFFFF;stop-opacity:0"/>
					<stop  offset="0.3367" style="stop-color:#F4FAF8;stop-opacity:0.3018"/>
					<stop  offset="0.8443" style="stop-color:#D6EBE7;stop-opacity:0.8361"/>
					<stop  offset="1" style="stop-color:#CBE6E1"/>
				</linearGradient>
				<path class="st4" d="M430.23-92.38c0-25.51-10.34-48.61-27.06-65.33l-3.94,3.94c9.36,12.66,14.9,28.32,14.9,45.28
					c0,42.13-34.15,76.28-76.28,76.28c-33.23,0-60.17-26.94-60.17-60.18c0,42.13,34.15,76.28,76.28,76.28
					C396.07-16.1,430.23-50.25,430.23-92.38z"/>
				
					<linearGradient id="SVGID_4_" gradientUnits="userSpaceOnUse" x1="101219.3438" y1="77158.7969" x2="101273.4766" y2="77049.1328" gradientTransform="matrix(-1 0 0 1 101569.5 -77165.4844)">
					<stop  offset="0.05" style="stop-color:#FFFFFF;stop-opacity:0"/>
					<stop  offset="0.3367" style="stop-color:#F4FAF8;stop-opacity:0.3018"/>
					<stop  offset="0.8443" style="stop-color:#D6EBE7;stop-opacity:0.8361"/>
					<stop  offset="1" style="stop-color:#CBE6E1"/>
				</linearGradient>
				<path class="st5" d="M337.83,0c25.51,0,48.61-10.34,65.33-27.06L399.22-31c-12.67,9.36-28.32,14.9-45.28,14.9
					c-42.13,0-76.28-34.15-76.28-76.28c0-33.23,26.94-60.17,60.18-60.17c-42.13,0-76.28,34.15-76.28,76.28
					C261.55-34.15,295.7,0,337.83,0z"/>
				
					<linearGradient id="SVGID_5_" gradientUnits="userSpaceOnUse" x1="-84471.1328" y1="-93236.4063" x2="-84391.0313" y2="-93236.4063" gradientTransform="matrix(1 0 0 -1 84765.4219 -93343.4844)">
					<stop  offset="0.05" style="stop-color:#FFFFFF;stop-opacity:0"/>
					<stop  offset="0.1066" style="stop-color:#FBFDFD;stop-opacity:0.0595"/>
					<stop  offset="0.6874" style="stop-color:#D8ECE9;stop-opacity:0.6709"/>
					<stop  offset="1" style="stop-color:#CBE6E1"/>
				</linearGradient>
				<path class="st6" d="M365.56-134.94c-19.4-19.4-50.86-19.4-70.26,0c-11.75,11.75-17.63,27.15-17.63,42.55h3.63
					c1.52-10.14,6.18-19.9,13.99-27.71c19.4-19.4,50.86-19.4,70.26,0c15.31,15.31,15.31,40.12,0,55.43
					C384.96-84.08,384.96-115.53,365.56-134.94z"/>
				
					<linearGradient id="SVGID_6_" gradientUnits="userSpaceOnUse" x1="-76803.6016" y1="84755.3203" x2="-76723.4922" y2="84755.3203" gradientTransform="matrix(0 -1 -1 0 85078.4688 -76852.4375)">
					<stop  offset="0.05" style="stop-color:#FFFFFF;stop-opacity:0"/>
					<stop  offset="0.1066" style="stop-color:#FBFDFD;stop-opacity:0.0595"/>
					<stop  offset="0.6874" style="stop-color:#D8ECE9;stop-opacity:0.6709"/>
					<stop  offset="1" style="stop-color:#CBE6E1"/>
				</linearGradient>
				<path class="st7" d="M295.29-120.11c-19.4,19.4-19.4,50.86,0,70.26c11.75,11.75,27.15,17.63,42.55,17.63v-3.63
					c-10.14-1.52-19.9-6.18-27.71-13.99c-19.4-19.4-19.4-50.86,0-70.26c15.31-15.31,40.12-15.31,55.43,0
					C346.15-139.51,314.69-139.51,295.29-120.11z"/>
				
					<linearGradient id="SVGID_7_" gradientUnits="userSpaceOnUse" x1="93520.5859" y1="-100903.9375" x2="93600.6875" y2="-100903.9375" gradientTransform="matrix(0 1 1 0 101256.4688 -93656.5234)">
					<stop  offset="0.05" style="stop-color:#FFFFFF;stop-opacity:0"/>
					<stop  offset="0.1066" style="stop-color:#FBFDFD;stop-opacity:0.0595"/>
					<stop  offset="0.6874" style="stop-color:#D8ECE9;stop-opacity:0.6709"/>
					<stop  offset="1" style="stop-color:#CBE6E1"/>
				</linearGradient>
				<path class="st8" d="M380.39-64.67c19.4-19.4,19.4-50.86,0-70.26c-11.75-11.75-27.15-17.63-42.55-17.63v3.63
					c10.14,1.52,19.9,6.18,27.71,13.99c19.4,19.4,19.4,50.86,0,70.26c-15.31,15.31-40.12,15.31-55.43,0
					C329.53-45.27,360.99-45.27,380.39-64.67z"/>
			</g>
			<g>
				
					<linearGradient id="SVGID_8_" gradientUnits="userSpaceOnUse" x1="-1373.1881" y1="112416.7656" x2="-1334.3735" y2="112338.1406" gradientTransform="matrix(-0.7071 -0.7071 -0.7071 0.7071 78696.7813 -80503.5703)">
					<stop  offset="0.05" style="stop-color:#FFFFFF;stop-opacity:0"/>
					<stop  offset="0.3367" style="stop-color:#F4FAF8;stop-opacity:0.3018"/>
					<stop  offset="0.8443" style="stop-color:#D6EBE7;stop-opacity:0.8361"/>
					<stop  offset="1" style="stop-color:#CBE6E1"/>
				</linearGradient>
				<path class="st9" d="M168.23-45.55c12.94,12.94,29.89,19.4,46.84,19.4v-4c-11.17-1.68-21.91-6.81-30.51-15.4
					c-21.36-21.36-21.36-55.99,0-77.35c16.85-16.85,44.17-16.85,61.02,0c-21.36-21.36-55.99-21.36-77.35,0
					C146.87-101.54,146.87-66.91,168.23-45.55z"/>
				<path class="st2" d="M245.58-122.9c16.85,16.85,16.85,44.17,0,61.02c-16.85,16.85-44.17,16.85-61.02,0
					c-16.85-16.85-16.85-44.17,0-61.02C201.41-139.75,228.73-139.75,245.58-122.9z"/>
				
					<linearGradient id="SVGID_9_" gradientUnits="userSpaceOnUse" x1="-112051.1094" y1="-17794.1094" x2="-112012.2969" y2="-17872.7422" gradientTransform="matrix(0.7071 -0.7071 -0.7071 -0.7071 66814.5 -91943.1484)">
					<stop  offset="0.05" style="stop-color:#FFFFFF;stop-opacity:0"/>
					<stop  offset="0.3367" style="stop-color:#F4FAF8;stop-opacity:0.3018"/>
					<stop  offset="0.8443" style="stop-color:#D6EBE7;stop-opacity:0.8361"/>
					<stop  offset="1" style="stop-color:#CBE6E1"/>
				</linearGradient>
				<path class="st10" d="M168.23-139.23c-12.94,12.94-19.4,29.89-19.4,46.84h4c1.68-11.17,6.81-21.91,15.4-30.51
					c21.36-21.36,55.99-21.36,77.35,0c16.85,16.85,16.85,44.17,0,61.02c21.36-21.36,21.36-55.99,0-77.35
					C224.22-160.59,189.59-160.59,168.23-139.23z"/>
				
					<linearGradient id="SVGID_10_" gradientUnits="userSpaceOnUse" x1="18159.7656" y1="-128472.0313" x2="18198.5801" y2="-128550.6641" gradientTransform="matrix(0.7071 0.7071 0.7071 -0.7071 78254.0781 -103825.4297)">
					<stop  offset="0.05" style="stop-color:#FFFFFF;stop-opacity:0"/>
					<stop  offset="0.3367" style="stop-color:#F4FAF8;stop-opacity:0.3018"/>
					<stop  offset="0.8443" style="stop-color:#D6EBE7;stop-opacity:0.8361"/>
					<stop  offset="1" style="stop-color:#CBE6E1"/>
				</linearGradient>
				<path class="st11" d="M261.91-139.23c-12.94-12.93-29.89-19.4-46.84-19.4v4c11.17,1.68,21.91,6.81,30.51,15.4
					c21.36,21.36,21.36,55.99,0,77.35c-16.85,16.85-44.17,16.85-61.02,0c21.36,21.36,55.99,21.36,77.35,0
					C283.27-83.23,283.27-117.86,261.91-139.23z"/>
				
					<linearGradient id="SVGID_11_" gradientUnits="userSpaceOnUse" x1="18137.375" y1="-128522.9453" x2="18194.8105" y2="-128522.9453" gradientTransform="matrix(0.7071 0.7071 0.7071 -0.7071 78254.0781 -103825.4297)">
					<stop  offset="0.05" style="stop-color:#FFFFFF;stop-opacity:0"/>
					<stop  offset="0.1066" style="stop-color:#FBFDFD;stop-opacity:0.0595"/>
					<stop  offset="0.6874" style="stop-color:#D8ECE9;stop-opacity:0.6709"/>
					<stop  offset="1" style="stop-color:#CBE6E1"/>
				</linearGradient>
				<path class="st12" d="M250.7-99.91c0-19.67-15.95-35.63-35.63-35.62c-11.91,0-22.7,4.83-30.51,12.64l1.84,1.84
					c5.92-4.37,13.23-6.96,21.15-6.96c19.67,0,35.62,15.95,35.62,35.62c0,15.52-12.58,28.1-28.1,28.1
					C234.75-64.28,250.7-80.23,250.7-99.91z"/>
			</g>
		</g>
		<g>
			<g>
				
					<linearGradient id="SVGID_12_" gradientUnits="userSpaceOnUse" x1="-76772.3672" y1="85071.7813" x2="-76718.2344" y2="84962.1172" gradientTransform="matrix(0 -1 -1 0 85078.4688 -76852.4375)">
					<stop  offset="0.05" style="stop-color:#FFFFFF;stop-opacity:0"/>
					<stop  offset="0.3367" style="stop-color:#F4FAF8;stop-opacity:0.3018"/>
					<stop  offset="0.8443" style="stop-color:#D6EBE7;stop-opacity:0.8361"/>
					<stop  offset="1" style="stop-color:#CBE6E1"/>
				</linearGradient>
				<path class="st13" d="M0-92.39c0,25.51,10.34,48.61,27.06,65.33L31-31.01c-9.36-12.67-14.9-28.32-14.9-45.28
					c0-42.13,34.15-76.28,76.28-76.28c33.23,0,60.17,26.94,60.17,60.17c0-42.13-34.15-76.28-76.28-76.28
					C34.15-168.68,0-134.52,0-92.39z"/>
				<path class="st2" d="M152.57-92.39c0,33.23-26.94,60.17-60.18,60.17c-33.23,0-60.17-26.94-60.17-60.17
					c0-33.23,26.94-60.17,60.17-60.17C125.63-152.56,152.57-125.62,152.57-92.39z"/>
				
					<linearGradient id="SVGID_13_" gradientUnits="userSpaceOnUse" x1="-84685.3516" y1="-93165.3984" x2="-84631.2188" y2="-93275.0625" gradientTransform="matrix(1 0 0 -1 84765.4219 -93343.4844)">
					<stop  offset="0.05" style="stop-color:#FFFFFF;stop-opacity:0"/>
					<stop  offset="0.3367" style="stop-color:#F4FAF8;stop-opacity:0.3018"/>
					<stop  offset="0.8443" style="stop-color:#D6EBE7;stop-opacity:0.8361"/>
					<stop  offset="1" style="stop-color:#CBE6E1"/>
				</linearGradient>
				<path class="st14" d="M92.39-184.78c-25.51,0-48.61,10.34-65.33,27.06l3.94,3.94c12.67-9.36,28.32-14.9,45.28-14.9
					c42.13,0,76.28,34.15,76.28,76.28c0,33.23-26.94,60.17-60.18,60.17c42.13,0,76.29-34.15,76.29-76.28
					C168.68-150.62,134.52-184.78,92.39-184.78z"/>
				
					<linearGradient id="SVGID_14_" gradientUnits="userSpaceOnUse" x1="93551.8203" y1="-101078.3828" x2="93605.9531" y2="-101188.0469" gradientTransform="matrix(0 1 1 0 101256.4688 -93656.5234)">
					<stop  offset="0.05" style="stop-color:#FFFFFF;stop-opacity:0"/>
					<stop  offset="0.3367" style="stop-color:#F4FAF8;stop-opacity:0.3018"/>
					<stop  offset="0.8443" style="stop-color:#D6EBE7;stop-opacity:0.8361"/>
					<stop  offset="1" style="stop-color:#CBE6E1"/>
				</linearGradient>
				<path class="st15" d="M184.78-92.38c0-25.51-10.34-48.61-27.06-65.33l-3.94,3.94c9.36,12.66,14.9,28.32,14.9,45.28
					c0,42.13-34.15,76.28-76.28,76.28c-33.23,0-60.17-26.94-60.17-60.18c0,42.13,34.15,76.28,76.28,76.28
					C150.62-16.1,184.78-50.25,184.78-92.38z"/>
				
					<linearGradient id="SVGID_15_" gradientUnits="userSpaceOnUse" x1="101464.7969" y1="77158.7969" x2="101518.9297" y2="77049.1328" gradientTransform="matrix(-1 0 0 1 101569.5 -77165.4844)">
					<stop  offset="0.05" style="stop-color:#FFFFFF;stop-opacity:0"/>
					<stop  offset="0.3367" style="stop-color:#F4FAF8;stop-opacity:0.3018"/>
					<stop  offset="0.8443" style="stop-color:#D6EBE7;stop-opacity:0.8361"/>
					<stop  offset="1" style="stop-color:#CBE6E1"/>
				</linearGradient>
				<path class="st16" d="M92.38,0c25.51,0,48.61-10.34,65.33-27.06L153.77-31c-12.67,9.36-28.32,14.9-45.28,14.9
					c-42.13,0-76.28-34.15-76.28-76.28c0-33.23,26.94-60.17,60.18-60.17c-42.13,0-76.28,34.15-76.28,76.28
					C16.1-34.15,50.25,0,92.38,0z"/>
				
					<linearGradient id="SVGID_16_" gradientUnits="userSpaceOnUse" x1="-84716.5859" y1="-93236.4063" x2="-84636.4766" y2="-93236.4063" gradientTransform="matrix(1 0 0 -1 84765.4219 -93343.4844)">
					<stop  offset="0.05" style="stop-color:#FFFFFF;stop-opacity:0"/>
					<stop  offset="0.1066" style="stop-color:#FBFDFD;stop-opacity:0.0595"/>
					<stop  offset="0.6874" style="stop-color:#D8ECE9;stop-opacity:0.6709"/>
					<stop  offset="1" style="stop-color:#CBE6E1"/>
				</linearGradient>
				<path class="st17" d="M120.11-134.94c-19.4-19.4-50.86-19.4-70.26,0c-11.75,11.75-17.63,27.15-17.63,42.55h3.63
					c1.52-10.14,6.18-19.9,13.99-27.71c19.4-19.4,50.86-19.4,70.26,0c15.31,15.31,15.31,40.12,0,55.43
					C139.51-84.08,139.51-115.53,120.11-134.94z"/>
				
					<linearGradient id="SVGID_17_" gradientUnits="userSpaceOnUse" x1="93520.5859" y1="-101149.3906" x2="93600.6875" y2="-101149.3906" gradientTransform="matrix(0 1 1 0 101256.4688 -93656.5234)">
					<stop  offset="0.05" style="stop-color:#FFFFFF;stop-opacity:0"/>
					<stop  offset="0.1066" style="stop-color:#FBFDFD;stop-opacity:0.0595"/>
					<stop  offset="0.6874" style="stop-color:#D8ECE9;stop-opacity:0.6709"/>
					<stop  offset="1" style="stop-color:#CBE6E1"/>
				</linearGradient>
				<path class="st18" d="M134.94-64.67c19.4-19.4,19.4-50.86,0-70.26c-11.75-11.75-27.15-17.63-42.55-17.63v3.63
					c10.14,1.52,19.9,6.18,27.71,13.99c19.4,19.4,19.4,50.86,0,70.26c-15.31,15.31-40.12,15.31-55.43,0
					C84.08-45.27,115.54-45.27,134.94-64.67z"/>
			</g>
		</g>
		<g>
			<g>
				
					<linearGradient id="SVGID_18_" gradientUnits="userSpaceOnUse" x1="-76650" y1="84703.6484" x2="-76595.8594" y2="84593.9844" gradientTransform="matrix(0 -1 -1 0 85078.4688 -76852.4375)">
					<stop  offset="0.05" style="stop-color:#FFFFFF;stop-opacity:0"/>
					<stop  offset="0.3367" style="stop-color:#F4FAF8;stop-opacity:0.3018"/>
					<stop  offset="0.8443" style="stop-color:#D6EBE7;stop-opacity:0.8361"/>
					<stop  offset="1" style="stop-color:#CBE6E1"/>
				</linearGradient>
				<path class="st19" d="M368.13-214.76c0,25.51,10.34,48.61,27.06,65.33l3.94-3.94c-9.36-12.67-14.9-28.32-14.9-45.28
					c0-42.13,34.15-76.28,76.28-76.28c33.23,0,60.17,26.94,60.17,60.18c0-42.13-34.15-76.28-76.28-76.28
					C402.29-291.05,368.13-256.9,368.13-214.76z"/>
			</g>
		</g>
		<g>
			<g>
				
					<linearGradient id="SVGID_19_" gradientUnits="userSpaceOnUse" x1="-76527.2344" y1="84826.3281" x2="-76473.1016" y2="84716.6641" gradientTransform="matrix(0 -1 -1 0 85078.4688 -76852.4375)">
					<stop  offset="0.05" style="stop-color:#FFFFFF;stop-opacity:0"/>
					<stop  offset="0.3367" style="stop-color:#F4FAF8;stop-opacity:0.3018"/>
					<stop  offset="0.8443" style="stop-color:#D6EBE7;stop-opacity:0.8361"/>
					<stop  offset="1" style="stop-color:#CBE6E1"/>
				</linearGradient>
				<path class="st20" d="M245.45-337.52c0,25.51,10.34,48.61,27.06,65.33l3.94-3.94c-9.36-12.67-14.9-28.32-14.9-45.28
					c0-42.13,34.15-76.28,76.28-76.28c33.23,0,60.17,26.94,60.17,60.17c0-42.13-34.15-76.28-76.28-76.28
					C279.6-413.81,245.45-379.65,245.45-337.52z"/>
				<path class="st2" d="M398.02-337.52c0,33.23-26.94,60.17-60.18,60.17c-33.23,0-60.17-26.94-60.17-60.17
					c0-33.23,26.94-60.17,60.17-60.17C371.08-397.69,398.02-370.75,398.02-337.52z"/>
				<path class="st2" d="M365.56-309.8c-15.3,15.31-40.12,15.31-55.42,0c-15.31-15.31-15.31-40.12,0-55.43
					c15.3-15.31,40.12-15.31,55.42,0C380.86-349.93,380.86-325.11,365.56-309.8z"/>
				
					<linearGradient id="SVGID_20_" gradientUnits="userSpaceOnUse" x1="-84439.9063" y1="-92920.2656" x2="-84385.7656" y2="-93029.9297" gradientTransform="matrix(1 0 0 -1 84765.4219 -93343.4844)">
					<stop  offset="0.05" style="stop-color:#FFFFFF;stop-opacity:0"/>
					<stop  offset="0.3367" style="stop-color:#F4FAF8;stop-opacity:0.3018"/>
					<stop  offset="0.8443" style="stop-color:#D6EBE7;stop-opacity:0.8361"/>
					<stop  offset="1" style="stop-color:#CBE6E1"/>
				</linearGradient>
				<path class="st21" d="M337.84-429.91c-25.51,0-48.61,10.34-65.33,27.06l3.94,3.94c12.66-9.36,28.32-14.9,45.28-14.9
					c42.13,0,76.28,34.15,76.28,76.28c0,33.23-26.94,60.17-60.18,60.17c42.13,0,76.29-34.15,76.29-76.28
					C414.13-395.75,379.97-429.91,337.84-429.91z"/>
				
					<linearGradient id="SVGID_21_" gradientUnits="userSpaceOnUse" x1="93306.6875" y1="-100832.9297" x2="93360.8203" y2="-100942.5938" gradientTransform="matrix(0 1 1 0 101256.4688 -93656.5234)">
					<stop  offset="0.05" style="stop-color:#FFFFFF;stop-opacity:0"/>
					<stop  offset="0.3367" style="stop-color:#F4FAF8;stop-opacity:0.3018"/>
					<stop  offset="0.8443" style="stop-color:#D6EBE7;stop-opacity:0.8361"/>
					<stop  offset="1" style="stop-color:#CBE6E1"/>
				</linearGradient>
				<path class="st22" d="M430.23-337.51c0-25.51-10.34-48.61-27.06-65.33l-3.94,3.94c9.36,12.67,14.9,28.32,14.9,45.28
					c0,42.13-34.15,76.28-76.28,76.28c-33.23,0-60.17-26.94-60.17-60.18c0,42.13,34.15,76.28,76.28,76.28
					C396.07-261.23,430.23-295.38,430.23-337.51z"/>
				
					<linearGradient id="SVGID_22_" gradientUnits="userSpaceOnUse" x1="101219.3438" y1="76913.6641" x2="101273.4766" y2="76804" gradientTransform="matrix(-1 0 0 1 101569.5 -77165.4844)">
					<stop  offset="0.05" style="stop-color:#FFFFFF;stop-opacity:0"/>
					<stop  offset="0.3367" style="stop-color:#F4FAF8;stop-opacity:0.3018"/>
					<stop  offset="0.8443" style="stop-color:#D6EBE7;stop-opacity:0.8361"/>
					<stop  offset="1" style="stop-color:#CBE6E1"/>
				</linearGradient>
				<path class="st23" d="M337.83-245.13c25.51,0,48.61-10.34,65.33-27.06l-3.94-3.94c-12.67,9.36-28.32,14.9-45.28,14.9
					c-42.13,0-76.28-34.15-76.28-76.28c0-33.23,26.94-60.17,60.18-60.17c-42.13,0-76.28,34.15-76.28,76.28
					C261.55-279.28,295.7-245.13,337.83-245.13z"/>
				
					<linearGradient id="SVGID_23_" gradientUnits="userSpaceOnUse" x1="-84471.1328" y1="-92991.2734" x2="-84391.0313" y2="-92991.2734" gradientTransform="matrix(1 0 0 -1 84765.4219 -93343.4844)">
					<stop  offset="0.05" style="stop-color:#FFFFFF;stop-opacity:0"/>
					<stop  offset="0.1066" style="stop-color:#FBFDFD;stop-opacity:0.0595"/>
					<stop  offset="0.6874" style="stop-color:#D8ECE9;stop-opacity:0.6709"/>
					<stop  offset="1" style="stop-color:#CBE6E1"/>
				</linearGradient>
				<path class="st24" d="M365.56-380.07c-19.4-19.4-50.86-19.4-70.26,0c-11.75,11.75-17.63,27.15-17.63,42.55h3.63
					c1.52-10.14,6.18-19.9,13.99-27.71c19.4-19.4,50.86-19.4,70.26,0c15.31,15.31,15.31,40.12,0,55.43
					C384.96-329.21,384.96-360.67,365.56-380.07z"/>
				
					<linearGradient id="SVGID_24_" gradientUnits="userSpaceOnUse" x1="-76558.4688" y1="84755.3203" x2="-76478.3672" y2="84755.3203" gradientTransform="matrix(0 -1 -1 0 85078.4688 -76852.4375)">
					<stop  offset="0.05" style="stop-color:#FFFFFF;stop-opacity:0"/>
					<stop  offset="0.1066" style="stop-color:#FBFDFD;stop-opacity:0.0595"/>
					<stop  offset="0.6874" style="stop-color:#D8ECE9;stop-opacity:0.6709"/>
					<stop  offset="1" style="stop-color:#CBE6E1"/>
				</linearGradient>
				<path class="st25" d="M295.29-365.24c-19.4,19.4-19.4,50.86,0,70.26c11.75,11.75,27.15,17.63,42.55,17.63v-3.63
					c-10.14-1.52-19.9-6.18-27.71-13.99c-19.4-19.4-19.4-50.86,0-70.26c15.31-15.31,40.12-15.31,55.43,0
					C346.15-384.64,314.69-384.64,295.29-365.24z"/>
				
					<linearGradient id="SVGID_25_" gradientUnits="userSpaceOnUse" x1="101188.1172" y1="76842.6563" x2="101268.2188" y2="76842.6563" gradientTransform="matrix(-1 0 0 1 101569.5 -77165.4844)">
					<stop  offset="0.05" style="stop-color:#FFFFFF;stop-opacity:0"/>
					<stop  offset="0.1066" style="stop-color:#FBFDFD;stop-opacity:0.0595"/>
					<stop  offset="0.6874" style="stop-color:#D8ECE9;stop-opacity:0.6709"/>
					<stop  offset="1" style="stop-color:#CBE6E1"/>
				</linearGradient>
				<path class="st26" d="M310.12-294.97c19.4,19.4,50.86,19.4,70.26,0c11.75-11.75,17.62-27.15,17.62-42.55h-3.63
					c-1.52,10.14-6.18,19.9-13.99,27.71c-19.4,19.4-50.86,19.4-70.26,0c-15.31-15.31-15.31-40.12,0-55.43
					C290.72-345.83,290.72-314.37,310.12-294.97z"/>
				
					<linearGradient id="SVGID_26_" gradientUnits="userSpaceOnUse" x1="93275.4531" y1="-100903.9375" x2="93355.5625" y2="-100903.9375" gradientTransform="matrix(0 1 1 0 101256.4688 -93656.5234)">
					<stop  offset="0.05" style="stop-color:#FFFFFF;stop-opacity:0"/>
					<stop  offset="0.1066" style="stop-color:#FBFDFD;stop-opacity:0.0595"/>
					<stop  offset="0.6874" style="stop-color:#D8ECE9;stop-opacity:0.6709"/>
					<stop  offset="1" style="stop-color:#CBE6E1"/>
				</linearGradient>
				<path class="st27" d="M380.39-309.8c19.4-19.4,19.4-50.86,0-70.26c-11.75-11.75-27.15-17.63-42.55-17.63v3.63
					c10.14,1.52,19.9,6.18,27.71,13.99c19.4,19.4,19.4,50.86,0,70.26c-15.31,15.31-40.12,15.31-55.43,0
					C329.53-290.4,360.99-290.4,380.39-309.8z"/>
				
					<linearGradient id="SVGID_27_" gradientUnits="userSpaceOnUse" x1="-84434.7422" y1="-92970.7891" x2="-84411.2422" y2="-93018.3828" gradientTransform="matrix(1 0 0 -1 84765.4219 -93343.4844)">
					<stop  offset="0.35" style="stop-color:#FFFFFF;stop-opacity:0"/>
					<stop  offset="1" style="stop-color:#CBE6E1"/>
				</linearGradient>
				<path class="st28" d="M352.84-373.72c-10-4.14-20.73-3.84-29.99,0l0.9,2.18c6.48-1.61,13.52-1.24,20.16,1.51
					c16.51,6.84,24.35,25.77,17.51,42.27l-0.02-0.01c-3.83,9.24-12.94,15.75-23.57,15.75c-3.46,0-6.75-0.7-9.75-1.94l-0.01,0.02
					c16.51,6.84,35.44-1,42.27-17.51C377.19-347.96,369.35-366.89,352.84-373.72z"/>
				
					<linearGradient id="SVGID_28_" gradientUnits="userSpaceOnUse" x1="-76522.0781" y1="84775.8125" x2="-76498.5859" y2="84728.2109" gradientTransform="matrix(0 -1 -1 0 85078.4688 -76852.4375)">
					<stop  offset="0.35" style="stop-color:#FFFFFF;stop-opacity:0"/>
					<stop  offset="1" style="stop-color:#CBE6E1"/>
				</linearGradient>
				<path class="st29" d="M301.63-352.52c-4.14,10-3.84,20.73,0,29.99l2.19-0.91c-1.61-6.48-1.24-13.52,1.51-20.16
					c6.84-16.51,25.77-24.35,42.27-17.51l-0.01,0.02c9.24,3.83,15.75,12.94,15.75,23.57c0,3.46-0.7,6.75-1.95,9.75l0.02,0.01
					c6.84-16.51-1-35.44-17.51-42.27C327.4-376.87,308.47-369.03,301.63-352.52z"/>
				
					<linearGradient id="SVGID_29_" gradientUnits="userSpaceOnUse" x1="101224.5078" y1="76863.1406" x2="101248" y2="76815.5391" gradientTransform="matrix(-1 0 0 1 101569.5 -77165.4766)">
					<stop  offset="0.35" style="stop-color:#FFFFFF;stop-opacity:0"/>
					<stop  offset="1" style="stop-color:#CBE6E1"/>
				</linearGradient>
				<path class="st30" d="M322.84-301.31c10,4.14,20.73,3.84,29.99,0l-0.9-2.18c-6.48,1.61-13.52,1.24-20.16-1.51
					c-16.51-6.84-24.35-25.77-17.51-42.27l0.02,0.01c3.83-9.24,12.94-15.75,23.57-15.75c3.46,0,6.75,0.7,9.75,1.94l0.01-0.02
					c-16.51-6.84-35.44,1-42.27,17.51C298.49-327.08,306.33-308.15,322.84-301.31z"/>
				
					<linearGradient id="SVGID_30_" gradientUnits="userSpaceOnUse" x1="93311.8438" y1="-100883.4531" x2="93335.3438" y2="-100931.0469" gradientTransform="matrix(0 1 1 0 101256.4688 -93656.5234)">
					<stop  offset="0.35" style="stop-color:#FFFFFF;stop-opacity:0"/>
					<stop  offset="1" style="stop-color:#CBE6E1"/>
				</linearGradient>
				<path class="st31" d="M374.04-322.52c4.14-10,3.84-20.73,0-29.99l-2.19,0.91c1.61,6.48,1.24,13.52-1.51,20.16
					c-6.84,16.51-25.77,24.35-42.27,17.51l0.01-0.02c-9.24-3.83-15.75-12.94-15.75-23.57c0-3.46,0.7-6.75,1.95-9.75l-0.02-0.01
					c-6.84,16.51,1,35.44,17.51,42.27C348.28-298.17,367.21-306.01,374.04-322.52z"/>
				
					<ellipse transform="matrix(0.7843 -0.6203 0.6203 0.7843 282.2403 136.784)" class="st2" cx="337.84" cy="-337.52" rx="25.51" ry="25.51"/>
			</g>
			<g>
				
					<linearGradient id="SVGID_31_" gradientUnits="userSpaceOnUse" x1="-1199.8521" y1="112243.4297" x2="-1161.0375" y2="112164.8047" gradientTransform="matrix(-0.7071 -0.7071 -0.7071 0.7071 78696.7813 -80503.5703)">
					<stop  offset="0.05" style="stop-color:#FFFFFF;stop-opacity:0"/>
					<stop  offset="0.3367" style="stop-color:#F4FAF8;stop-opacity:0.3018"/>
					<stop  offset="0.8443" style="stop-color:#D6EBE7;stop-opacity:0.8361"/>
					<stop  offset="1" style="stop-color:#CBE6E1"/>
				</linearGradient>
				<path class="st32" d="M168.23-290.68c12.94,12.94,29.89,19.4,46.84,19.4v-4c-11.17-1.68-21.91-6.81-30.51-15.4
					c-21.36-21.36-21.36-55.99,0-77.35c16.85-16.85,44.17-16.85,61.02,0c-21.36-21.36-55.99-21.36-77.35,0
					C146.87-346.67,146.87-312.04,168.23-290.68z"/>
				<path class="st2" d="M245.58-368.03c16.85,16.85,16.85,44.17,0,61.02c-16.85,16.85-44.17,16.85-61.02,0
					c-16.85-16.85-16.85-44.17,0-61.02C201.41-384.88,228.73-384.88,245.58-368.03z"/>
				<path class="st2" d="M243.17-337.52c0,15.52-12.58,28.1-28.1,28.1c-15.52,0-28.1-12.58-28.1-28.1c0-15.52,12.58-28.1,28.1-28.1
					C230.59-365.62,243.17-353.04,243.17-337.52z"/>
				
					<linearGradient id="SVGID_32_" gradientUnits="userSpaceOnUse" x1="-111877.7734" y1="-17620.7734" x2="-111838.9609" y2="-17699.4063" gradientTransform="matrix(0.7071 -0.7071 -0.7071 -0.7071 66814.5 -91943.1484)">
					<stop  offset="0.05" style="stop-color:#FFFFFF;stop-opacity:0"/>
					<stop  offset="0.3367" style="stop-color:#F4FAF8;stop-opacity:0.3018"/>
					<stop  offset="0.8443" style="stop-color:#D6EBE7;stop-opacity:0.8361"/>
					<stop  offset="1" style="stop-color:#CBE6E1"/>
				</linearGradient>
				<path class="st33" d="M168.23-384.36c-12.94,12.94-19.4,29.89-19.4,46.84h4c1.68-11.17,6.81-21.91,15.4-30.51
					c21.36-21.36,55.99-21.36,77.35,0c16.85,16.85,16.85,44.17,0,61.02c21.36-21.36,21.36-55.99,0-77.35
					C224.22-405.72,189.59-405.72,168.23-384.36z"/>
				
					<linearGradient id="SVGID_33_" gradientUnits="userSpaceOnUse" x1="17986.4297" y1="-128298.6953" x2="18025.2441" y2="-128377.3281" gradientTransform="matrix(0.7071 0.7071 0.7071 -0.7071 78254.0781 -103825.4297)">
					<stop  offset="0.05" style="stop-color:#FFFFFF;stop-opacity:0"/>
					<stop  offset="0.3367" style="stop-color:#F4FAF8;stop-opacity:0.3018"/>
					<stop  offset="0.8443" style="stop-color:#D6EBE7;stop-opacity:0.8361"/>
					<stop  offset="1" style="stop-color:#CBE6E1"/>
				</linearGradient>
				<path class="st34" d="M261.91-384.36c-12.94-12.93-29.89-19.4-46.84-19.4v4c11.17,1.68,21.91,6.81,30.51,15.4
					c21.36,21.36,21.36,55.99,0,77.35c-16.85,16.85-44.17,16.85-61.02,0c21.36,21.36,55.99,21.36,77.35,0
					C283.27-328.37,283.27-363,261.91-384.36z"/>
				
					<linearGradient id="SVGID_34_" gradientUnits="userSpaceOnUse" x1="128664.3516" y1="1565.5085" x2="128703.1719" y2="1486.8766" gradientTransform="matrix(-0.7071 0.7071 0.7071 0.7071 90136.3594 -92385.8516)">
					<stop  offset="0.05" style="stop-color:#FFFFFF;stop-opacity:0"/>
					<stop  offset="0.3367" style="stop-color:#F4FAF8;stop-opacity:0.3018"/>
					<stop  offset="0.8443" style="stop-color:#D6EBE7;stop-opacity:0.8361"/>
					<stop  offset="1" style="stop-color:#CBE6E1"/>
				</linearGradient>
				<path class="st35" d="M261.91-290.68c12.93-12.94,19.4-29.89,19.4-46.84h-4c-1.68,11.17-6.81,21.91-15.4,30.51
					c-21.36,21.36-55.99,21.36-77.35,0c-16.85-16.85-16.85-44.17,0-61.02c-21.36,21.36-21.36,55.99,0,77.35
					C205.91-269.32,240.55-269.32,261.91-290.68z"/>
				
					<linearGradient id="SVGID_35_" gradientUnits="userSpaceOnUse" x1="-111900.1641" y1="-17671.6875" x2="-111842.7344" y2="-17671.6875" gradientTransform="matrix(0.7071 -0.7071 -0.7071 -0.7071 66814.5 -91943.1484)">
					<stop  offset="0.05" style="stop-color:#FFFFFF;stop-opacity:0"/>
					<stop  offset="0.1066" style="stop-color:#FBFDFD;stop-opacity:0.0595"/>
					<stop  offset="0.6874" style="stop-color:#D8ECE9;stop-opacity:0.6709"/>
					<stop  offset="1" style="stop-color:#CBE6E1"/>
				</linearGradient>
				<path class="st36" d="M207.55-373.15c-19.67,0-35.63,15.95-35.63,35.62c0,11.92,4.83,22.7,12.64,30.51l1.84-1.84
					c-4.37-5.92-6.96-13.23-6.96-21.15c0-19.67,15.95-35.62,35.62-35.62c15.52,0,28.1,12.58,28.1,28.1
					C243.17-357.2,227.23-373.15,207.55-373.15z"/>
				
					<linearGradient id="SVGID_36_" gradientUnits="userSpaceOnUse" x1="-1222.2441" y1="112192.5234" x2="-1164.8087" y2="112192.5234" gradientTransform="matrix(-0.7071 -0.7071 -0.7071 0.7071 78696.7813 -80503.5703)">
					<stop  offset="0.05" style="stop-color:#FFFFFF;stop-opacity:0"/>
					<stop  offset="0.1066" style="stop-color:#FBFDFD;stop-opacity:0.0595"/>
					<stop  offset="0.6874" style="stop-color:#D8ECE9;stop-opacity:0.6709"/>
					<stop  offset="1" style="stop-color:#CBE6E1"/>
				</linearGradient>
				<path class="st37" d="M179.44-330c0,19.68,15.95,35.63,35.62,35.62c11.91,0,22.7-4.83,30.51-12.64l-1.84-1.84
					c-5.92,4.37-13.23,6.96-21.15,6.96c-19.67,0-35.62-15.95-35.62-35.62c0-15.52,12.58-28.1,28.1-28.1
					C195.39-365.62,179.44-349.67,179.44-330z"/>
				
					<linearGradient id="SVGID_37_" gradientUnits="userSpaceOnUse" x1="128641.9609" y1="1514.5953" x2="128699.3984" y2="1514.5953" gradientTransform="matrix(-0.7071 0.7071 0.7071 0.7071 90136.3594 -92385.8516)">
					<stop  offset="0.05" style="stop-color:#FFFFFF;stop-opacity:0"/>
					<stop  offset="0.1066" style="stop-color:#FBFDFD;stop-opacity:0.0595"/>
					<stop  offset="0.6874" style="stop-color:#D8ECE9;stop-opacity:0.6709"/>
					<stop  offset="1" style="stop-color:#CBE6E1"/>
				</linearGradient>
				<path class="st38" d="M222.59-301.89c19.68,0,35.62-15.95,35.62-35.62c0-11.92-4.83-22.7-12.64-30.51l-1.84,1.84
					c4.37,5.92,6.96,13.23,6.96,21.15c0,19.67-15.95,35.62-35.62,35.62c-15.52,0-28.1-12.58-28.1-28.1
					C186.96-317.84,202.91-301.89,222.59-301.89z"/>
				
					<linearGradient id="SVGID_38_" gradientUnits="userSpaceOnUse" x1="17964.0391" y1="-128349.6094" x2="18021.4746" y2="-128349.6094" gradientTransform="matrix(0.7071 0.7071 0.7071 -0.7071 78254.0781 -103825.4297)">
					<stop  offset="0.05" style="stop-color:#FFFFFF;stop-opacity:0"/>
					<stop  offset="0.1066" style="stop-color:#FBFDFD;stop-opacity:0.0595"/>
					<stop  offset="0.6874" style="stop-color:#D8ECE9;stop-opacity:0.6709"/>
					<stop  offset="1" style="stop-color:#CBE6E1"/>
				</linearGradient>
				<path class="st39" d="M250.7-345.04c0-19.67-15.95-35.63-35.63-35.62c-11.91,0-22.7,4.83-30.51,12.64l1.84,1.84
					c5.92-4.37,13.23-6.96,21.15-6.96c19.67,0,35.62,15.95,35.62,35.62c0,15.52-12.58,28.1-28.1,28.1
					C234.75-309.41,250.7-325.36,250.7-345.04z"/>
				
					<linearGradient id="SVGID_39_" gradientUnits="userSpaceOnUse" x1="-111874.0781" y1="-17656.998" x2="-111857.2266" y2="-17691.127" gradientTransform="matrix(0.7071 -0.7071 -0.7071 -0.7071 66814.5 -91943.1484)">
					<stop  offset="0.35" style="stop-color:#FFFFFF;stop-opacity:0"/>
					<stop  offset="1" style="stop-color:#CBE6E1"/>
				</linearGradient>
				<path class="st40" d="M204.32-363.48c-7.17,2.97-12.45,8.56-15.21,15.21l1.57,0.65c2.47-4.1,6.22-7.48,10.99-9.46
					c11.84-4.9,25.41,0.72,30.31,12.55l-0.01,0c2.74,6.63,1.42,14.54-3.97,19.93c-1.75,1.75-3.78,3.07-5.93,3.96l0,0.01
					c11.84-4.9,17.46-18.47,12.56-30.31C229.73-362.76,216.16-368.38,204.32-363.48z"/>
				
					<linearGradient id="SVGID_40_" gradientUnits="userSpaceOnUse" x1="-1196.1531" y1="112207.2109" x2="-1179.3066" y2="112173.0781" gradientTransform="matrix(-0.7071 -0.7071 -0.7071 0.7071 78696.7813 -80503.5703)">
					<stop  offset="0.35" style="stop-color:#FFFFFF;stop-opacity:0"/>
					<stop  offset="1" style="stop-color:#CBE6E1"/>
				</linearGradient>
				<path class="st41" d="M189.11-326.77c2.97,7.17,8.56,12.45,15.21,15.21l0.65-1.57c-4.1-2.47-7.48-6.22-9.46-10.99
					c-4.9-11.84,0.72-25.41,12.56-30.31l0,0.01c6.63-2.74,14.54-1.42,19.93,3.96c1.75,1.75,3.07,3.78,3.96,5.93l0.01-0.01
					c-4.9-11.84-18.47-17.46-30.31-12.56C189.83-352.18,184.21-338.6,189.11-326.77z"/>
				
					<linearGradient id="SVGID_41_" gradientUnits="userSpaceOnUse" x1="128668.0547" y1="1529.2861" x2="128684.8984" y2="1495.1575" gradientTransform="matrix(-0.7071 0.7071 0.7071 0.7071 90136.3594 -92385.8516)">
					<stop  offset="0.35" style="stop-color:#FFFFFF;stop-opacity:0"/>
					<stop  offset="1" style="stop-color:#CBE6E1"/>
				</linearGradient>
				<path class="st42" d="M225.82-311.56c7.17-2.97,12.46-8.56,15.21-15.21l-1.57-0.65c-2.47,4.1-6.22,7.48-10.99,9.46
					c-11.84,4.9-25.41-0.72-30.31-12.55l0.01,0c-2.74-6.63-1.42-14.54,3.96-19.93c1.75-1.75,3.78-3.07,5.93-3.96l-0.01-0.01
					c-11.84,4.9-17.46,18.47-12.55,30.31C200.41-312.28,213.98-306.65,225.82-311.56z"/>
				
					<linearGradient id="SVGID_42_" gradientUnits="userSpaceOnUse" x1="17990.1328" y1="-128334.9219" x2="18006.9785" y2="-128369.0469" gradientTransform="matrix(0.7071 0.7071 0.7071 -0.7071 78254.0781 -103825.4297)">
					<stop  offset="0.35" style="stop-color:#FFFFFF;stop-opacity:0"/>
					<stop  offset="1" style="stop-color:#CBE6E1"/>
				</linearGradient>
				<path class="st43" d="M241.03-348.27c-2.97-7.17-8.56-12.46-15.21-15.21l-0.65,1.57c4.1,2.47,7.48,6.22,9.46,10.99
					c4.9,11.84-0.72,25.41-12.55,30.31l0-0.01c-6.63,2.74-14.54,1.42-19.93-3.96c-1.75-1.75-3.07-3.77-3.96-5.93l-0.01,0.01
					c4.9,11.84,18.47,17.46,30.31,12.56C240.31-322.86,245.93-336.43,241.03-348.27z"/>
				<path class="st2" d="M228-350.45c7.14,7.14,7.14,18.72,0,25.86c-7.14,7.14-18.72,7.14-25.86,0c-7.14-7.14-7.14-18.72,0-25.86
					C209.28-357.59,220.86-357.59,228-350.45z"/>
			</g>
			<g>
				
					<linearGradient id="SVGID_43_" gradientUnits="userSpaceOnUse" x1="-1373.4684" y1="112243.4297" x2="-1334.6539" y2="112164.7969" gradientTransform="matrix(-0.7071 -0.7071 -0.7071 0.7071 78696.7813 -80503.5703)">
					<stop  offset="0.05" style="stop-color:#FFFFFF;stop-opacity:0"/>
					<stop  offset="0.3367" style="stop-color:#F4FAF8;stop-opacity:0.3018"/>
					<stop  offset="0.8443" style="stop-color:#D6EBE7;stop-opacity:0.8361"/>
					<stop  offset="1" style="stop-color:#CBE6E1"/>
				</linearGradient>
				<path class="st44" d="M290.99-167.92c12.94,12.94,29.89,19.4,46.84,19.4v-4c-11.16-1.68-21.91-6.81-30.51-15.4
					c-21.36-21.36-21.36-55.99,0-77.35c16.85-16.85,44.17-16.85,61.02,0c-21.36-21.36-55.99-21.36-77.35,0
					C269.63-223.91,269.63-189.28,290.99-167.92z"/>
				<path class="st2" d="M368.35-245.27c16.85,16.85,16.85,44.17,0,61.02c-16.85,16.85-44.17,16.85-61.02,0
					c-16.85-16.85-16.85-44.17,0-61.02C324.18-262.12,351.5-262.12,368.35-245.27z"/>
				<path class="st2" d="M365.94-214.76c0,15.52-12.58,28.1-28.1,28.1c-15.52,0-28.1-12.58-28.1-28.1c0-15.52,12.58-28.1,28.1-28.1
					C353.36-242.86,365.94-230.28,365.94-214.76z"/>
				
					<linearGradient id="SVGID_44_" gradientUnits="userSpaceOnUse" x1="-111877.7734" y1="-17794.3906" x2="-111838.9531" y2="-17873.0215" gradientTransform="matrix(0.7071 -0.7071 -0.7071 -0.7071 66814.5 -91943.1484)">
					<stop  offset="0.05" style="stop-color:#FFFFFF;stop-opacity:0"/>
					<stop  offset="0.3367" style="stop-color:#F4FAF8;stop-opacity:0.3018"/>
					<stop  offset="0.8443" style="stop-color:#D6EBE7;stop-opacity:0.8361"/>
					<stop  offset="1" style="stop-color:#CBE6E1"/>
				</linearGradient>
				<path class="st45" d="M291-261.6c-12.94,12.94-19.4,29.89-19.4,46.84h4c1.68-11.17,6.81-21.91,15.4-30.51
					c21.36-21.36,55.99-21.36,77.35,0c16.85,16.85,16.85,44.17,0,61.02c21.36-21.36,21.36-55.99,0-77.35
					C346.99-282.96,312.36-282.96,291-261.6z"/>
				
					<linearGradient id="SVGID_45_" gradientUnits="userSpaceOnUse" x1="18160.0469" y1="-128298.6953" x2="18198.8613" y2="-128377.3203" gradientTransform="matrix(0.7071 0.7071 0.7071 -0.7071 78254.0781 -103825.4297)">
					<stop  offset="0.05" style="stop-color:#FFFFFF;stop-opacity:0"/>
					<stop  offset="0.3367" style="stop-color:#F4FAF8;stop-opacity:0.3018"/>
					<stop  offset="0.8443" style="stop-color:#D6EBE7;stop-opacity:0.8361"/>
					<stop  offset="1" style="stop-color:#CBE6E1"/>
				</linearGradient>
				<path class="st46" d="M384.68-261.6c-12.94-12.93-29.89-19.4-46.84-19.4v4c11.17,1.68,21.91,6.81,30.51,15.4
					c21.36,21.36,21.36,55.99,0,77.35c-16.85,16.85-44.17,16.85-61.02,0c21.36,21.36,55.99,21.36,77.35,0
					C406.04-205.61,406.04-240.24,384.68-261.6z"/>
				
					<linearGradient id="SVGID_46_" gradientUnits="userSpaceOnUse" x1="128664.3516" y1="1739.1249" x2="128703.1641" y2="1660.4929" gradientTransform="matrix(-0.7071 0.7071 0.7071 0.7071 90136.3594 -92385.8516)">
					<stop  offset="0.05" style="stop-color:#FFFFFF;stop-opacity:0"/>
					<stop  offset="0.3367" style="stop-color:#F4FAF8;stop-opacity:0.3018"/>
					<stop  offset="0.8443" style="stop-color:#D6EBE7;stop-opacity:0.8361"/>
					<stop  offset="1" style="stop-color:#CBE6E1"/>
				</linearGradient>
				<path class="st47" d="M384.68-167.92c12.93-12.94,19.4-29.89,19.4-46.84h-4c-1.68,11.17-6.81,21.91-15.4,30.51
					c-21.36,21.36-55.99,21.36-77.35,0c-16.85-16.85-16.85-44.17,0-61.02c-21.36,21.36-21.36,55.99,0,77.35
					C328.68-146.56,363.32-146.56,384.68-167.92z"/>
				
					<linearGradient id="SVGID_47_" gradientUnits="userSpaceOnUse" x1="-111900.1641" y1="-17845.3047" x2="-111842.7266" y2="-17845.3047" gradientTransform="matrix(0.7071 -0.7071 -0.7071 -0.7071 66814.5 -91943.1484)">
					<stop  offset="0.05" style="stop-color:#FFFFFF;stop-opacity:0"/>
					<stop  offset="0.1066" style="stop-color:#FBFDFD;stop-opacity:0.0595"/>
					<stop  offset="0.6874" style="stop-color:#D8ECE9;stop-opacity:0.6709"/>
					<stop  offset="1" style="stop-color:#CBE6E1"/>
				</linearGradient>
				<path class="st48" d="M330.32-250.39c-19.67,0-35.63,15.95-35.63,35.62c0,11.91,4.83,22.7,12.64,30.51l1.84-1.84
					c-4.37-5.92-6.96-13.23-6.96-21.15c0-19.67,15.95-35.62,35.62-35.62c15.52,0,28.1,12.58,28.1,28.1
					C365.94-234.44,349.99-250.39,330.32-250.39z"/>
				
					<linearGradient id="SVGID_48_" gradientUnits="userSpaceOnUse" x1="-1395.8605" y1="112192.5156" x2="-1338.425" y2="112192.5156" gradientTransform="matrix(-0.7071 -0.7071 -0.7071 0.7071 78696.7813 -80503.5703)">
					<stop  offset="0.05" style="stop-color:#FFFFFF;stop-opacity:0"/>
					<stop  offset="0.1066" style="stop-color:#FBFDFD;stop-opacity:0.0595"/>
					<stop  offset="0.6874" style="stop-color:#D8ECE9;stop-opacity:0.6709"/>
					<stop  offset="1" style="stop-color:#CBE6E1"/>
				</linearGradient>
				<path class="st49" d="M302.21-207.24c0,19.68,15.95,35.63,35.62,35.62c11.91,0,22.7-4.83,30.51-12.64l-1.84-1.84
					c-5.92,4.37-13.23,6.96-21.15,6.96c-19.67,0-35.62-15.95-35.62-35.62c0-15.52,12.58-28.1,28.1-28.1
					C318.16-242.86,302.21-226.91,302.21-207.24z"/>
				
					<linearGradient id="SVGID_49_" gradientUnits="userSpaceOnUse" x1="128641.9609" y1="1688.2118" x2="128699.3906" y2="1688.2118" gradientTransform="matrix(-0.7071 0.7071 0.7071 0.7071 90136.3594 -92385.8516)">
					<stop  offset="0.05" style="stop-color:#FFFFFF;stop-opacity:0"/>
					<stop  offset="0.1066" style="stop-color:#FBFDFD;stop-opacity:0.0595"/>
					<stop  offset="0.6874" style="stop-color:#D8ECE9;stop-opacity:0.6709"/>
					<stop  offset="1" style="stop-color:#CBE6E1"/>
				</linearGradient>
				<path class="st50" d="M345.36-179.13c19.68,0,35.63-15.95,35.62-35.62c0-11.92-4.83-22.7-12.64-30.51l-1.84,1.84
					c4.37,5.92,6.96,13.23,6.96,21.15c0,19.67-15.95,35.62-35.62,35.62c-15.52,0-28.1-12.58-28.1-28.1
					C309.73-195.08,325.68-179.13,345.36-179.13z"/>
				
					<linearGradient id="SVGID_50_" gradientUnits="userSpaceOnUse" x1="18137.6563" y1="-128349.6094" x2="18195.0918" y2="-128349.6094" gradientTransform="matrix(0.7071 0.7071 0.7071 -0.7071 78254.0781 -103825.4297)">
					<stop  offset="0.05" style="stop-color:#FFFFFF;stop-opacity:0"/>
					<stop  offset="0.1066" style="stop-color:#FBFDFD;stop-opacity:0.0595"/>
					<stop  offset="0.6874" style="stop-color:#D8ECE9;stop-opacity:0.6709"/>
					<stop  offset="1" style="stop-color:#CBE6E1"/>
				</linearGradient>
				<path class="st51" d="M373.46-222.28c0-19.67-15.95-35.62-35.63-35.62c-11.91,0-22.7,4.83-30.51,12.64l1.84,1.84
					c5.92-4.37,13.23-6.96,21.15-6.96c19.67,0,35.62,15.95,35.62,35.62c0,15.52-12.58,28.1-28.1,28.1
					C357.52-186.65,373.46-202.6,373.46-222.28z"/>
				
					<linearGradient id="SVGID_51_" gradientUnits="userSpaceOnUse" x1="-111874.0703" y1="-17830.6152" x2="-111857.2188" y2="-17864.7441" gradientTransform="matrix(0.7071 -0.7071 -0.7071 -0.7071 66814.5 -91943.1484)">
					<stop  offset="0.35" style="stop-color:#FFFFFF;stop-opacity:0"/>
					<stop  offset="1" style="stop-color:#CBE6E1"/>
				</linearGradient>
				<path class="st52" d="M327.09-240.72c-7.17,2.97-12.45,8.56-15.21,15.21l1.57,0.65c2.47-4.1,6.22-7.48,10.99-9.46
					c11.84-4.9,25.41,0.72,30.31,12.55l-0.01,0c2.74,6.63,1.42,14.54-3.97,19.93c-1.75,1.75-3.78,3.07-5.93,3.96l0,0.01
					c11.84-4.9,17.46-18.47,12.56-30.31C352.5-240,338.92-245.62,327.09-240.72z"/>
				
					<linearGradient id="SVGID_52_" gradientUnits="userSpaceOnUse" x1="-1369.7695" y1="112207.2031" x2="-1352.923" y2="112173.0781" gradientTransform="matrix(-0.7071 -0.7071 -0.7071 0.7071 78696.7813 -80503.5703)">
					<stop  offset="0.35" style="stop-color:#FFFFFF;stop-opacity:0"/>
					<stop  offset="1" style="stop-color:#CBE6E1"/>
				</linearGradient>
				<path class="st53" d="M311.88-204.01c2.97,7.17,8.56,12.45,15.21,15.21l0.65-1.57c-4.1-2.47-7.48-6.22-9.46-10.99
					c-4.9-11.84,0.72-25.41,12.56-30.31l0,0.01c6.63-2.74,14.54-1.42,19.93,3.96c1.75,1.75,3.07,3.78,3.96,5.93l0.01-0.01
					c-4.9-11.84-18.47-17.46-30.31-12.56C312.6-229.42,306.98-215.84,311.88-204.01z"/>
				
					<linearGradient id="SVGID_53_" gradientUnits="userSpaceOnUse" x1="128668.0469" y1="1702.9026" x2="128684.8984" y2="1668.7739" gradientTransform="matrix(-0.7071 0.7071 0.7071 0.7071 90136.3594 -92385.8516)">
					<stop  offset="0.35" style="stop-color:#FFFFFF;stop-opacity:0"/>
					<stop  offset="1" style="stop-color:#CBE6E1"/>
				</linearGradient>
				<path class="st54" d="M348.59-188.8c7.17-2.97,12.45-8.56,15.21-15.21l-1.57-0.65c-2.47,4.1-6.22,7.48-10.99,9.46
					c-11.84,4.9-25.41-0.72-30.31-12.55l0.01,0c-2.74-6.63-1.42-14.54,3.96-19.93c1.75-1.75,3.78-3.07,5.93-3.96l-0.01-0.01
					c-11.84,4.9-17.46,18.47-12.55,30.31C323.18-189.52,336.75-183.89,348.59-188.8z"/>
				
					<linearGradient id="SVGID_54_" gradientUnits="userSpaceOnUse" x1="18163.748" y1="-128334.9141" x2="18180.5957" y2="-128369.0469" gradientTransform="matrix(0.7071 0.7071 0.7071 -0.7071 78254.0781 -103825.4297)">
					<stop  offset="0.35" style="stop-color:#FFFFFF;stop-opacity:0"/>
					<stop  offset="1" style="stop-color:#CBE6E1"/>
				</linearGradient>
				<path class="st55" d="M363.8-225.51c-2.97-7.17-8.56-12.46-15.21-15.21l-0.65,1.57c4.1,2.47,7.48,6.22,9.46,10.99
					c4.9,11.84-0.72,25.41-12.55,30.31l0-0.01c-6.63,2.74-14.54,1.42-19.93-3.96c-1.75-1.75-3.07-3.77-3.96-5.93l-0.01,0.01
					c4.9,11.84,18.47,17.46,30.31,12.56C363.08-200.1,368.7-213.67,363.8-225.51z"/>
				<path class="st2" d="M350.77-227.69c7.14,7.14,7.14,18.72,0,25.86c-7.14,7.14-18.72,7.14-25.86,0c-7.14-7.14-7.14-18.72,0-25.86
					C332.05-234.83,343.63-234.83,350.77-227.69z"/>
			</g>
			<g>
				
					<linearGradient id="SVGID_55_" gradientUnits="userSpaceOnUse" x1="-76650" y1="84949.1016" x2="-76595.8594" y2="84839.4297" gradientTransform="matrix(0 -1 -1 0 85078.4688 -76852.4375)">
					<stop  offset="0.05" style="stop-color:#FFFFFF;stop-opacity:0"/>
					<stop  offset="0.3367" style="stop-color:#F4FAF8;stop-opacity:0.3018"/>
					<stop  offset="0.8443" style="stop-color:#D6EBE7;stop-opacity:0.8361"/>
					<stop  offset="1" style="stop-color:#CBE6E1"/>
				</linearGradient>
				<path class="st56" d="M122.68-214.76c0,25.51,10.34,48.61,27.06,65.33l3.94-3.94c-9.36-12.67-14.9-28.32-14.9-45.28
					c0-42.13,34.15-76.28,76.28-76.28c33.23,0,60.17,26.94,60.17,60.18c0-42.13-34.15-76.28-76.28-76.28
					C156.84-291.05,122.68-256.9,122.68-214.76z"/>
				<path class="st2" d="M275.25-214.76c0,33.23-26.94,60.17-60.18,60.17c-33.23,0-60.17-26.94-60.17-60.17
					c0-33.23,26.94-60.17,60.17-60.17C248.31-274.93,275.25-247.99,275.25-214.76z"/>
				<path class="st2" d="M242.79-187.04c-15.3,15.3-40.12,15.3-55.42,0c-15.31-15.31-15.31-40.12,0-55.43
					c15.3-15.3,40.12-15.3,55.42,0C258.1-227.17,258.09-202.35,242.79-187.04z"/>
				
					<linearGradient id="SVGID_56_" gradientUnits="userSpaceOnUse" x1="-84562.6719" y1="-93043.0234" x2="-84508.5391" y2="-93152.6875" gradientTransform="matrix(1 0 0 -1 84765.4219 -93343.4844)">
					<stop  offset="0.05" style="stop-color:#FFFFFF;stop-opacity:0"/>
					<stop  offset="0.3367" style="stop-color:#F4FAF8;stop-opacity:0.3018"/>
					<stop  offset="0.8443" style="stop-color:#D6EBE7;stop-opacity:0.8361"/>
					<stop  offset="1" style="stop-color:#CBE6E1"/>
				</linearGradient>
				<path class="st57" d="M215.08-307.15c-25.51,0-48.61,10.34-65.33,27.06l3.94,3.94c12.67-9.36,28.32-14.9,45.28-14.9
					c42.13,0,76.28,34.15,76.28,76.28c0,33.23-26.94,60.17-60.18,60.17c42.13,0,76.29-34.15,76.29-76.28
					C291.36-273,257.21-307.15,215.08-307.15z"/>
				
					<linearGradient id="SVGID_57_" gradientUnits="userSpaceOnUse" x1="93429.4453" y1="-100955.6953" x2="93483.5781" y2="-101065.3672" gradientTransform="matrix(0 1 1 0 101256.4688 -93656.5234)">
					<stop  offset="0.05" style="stop-color:#FFFFFF;stop-opacity:0"/>
					<stop  offset="0.3367" style="stop-color:#F4FAF8;stop-opacity:0.3018"/>
					<stop  offset="0.8443" style="stop-color:#D6EBE7;stop-opacity:0.8361"/>
					<stop  offset="1" style="stop-color:#CBE6E1"/>
				</linearGradient>
				<path class="st58" d="M307.46-214.75c0-25.51-10.34-48.61-27.06-65.33l-3.94,3.94c9.36,12.67,14.9,28.32,14.9,45.28
					c0,42.13-34.15,76.28-76.28,76.28c-33.23,0-60.17-26.94-60.17-60.18c0,42.13,34.15,76.29,76.28,76.29
					C273.31-138.47,307.46-172.63,307.46-214.75z"/>
				
					<linearGradient id="SVGID_58_" gradientUnits="userSpaceOnUse" x1="101342.1094" y1="77036.4219" x2="101396.2422" y2="76926.7578" gradientTransform="matrix(-1 0 0 1 101569.5 -77165.4844)">
					<stop  offset="0.05" style="stop-color:#FFFFFF;stop-opacity:0"/>
					<stop  offset="0.3367" style="stop-color:#F4FAF8;stop-opacity:0.3018"/>
					<stop  offset="0.8443" style="stop-color:#D6EBE7;stop-opacity:0.8361"/>
					<stop  offset="1" style="stop-color:#CBE6E1"/>
				</linearGradient>
				<path class="st59" d="M215.07-122.37c25.51,0,48.61-10.34,65.33-27.06l-3.94-3.94c-12.67,9.36-28.32,14.9-45.28,14.9
					c-42.13,0-76.28-34.15-76.28-76.28c0-33.23,26.94-60.17,60.18-60.17c-42.13,0-76.28,34.15-76.28,76.28
					C138.78-156.52,172.93-122.37,215.07-122.37z"/>
				
					<linearGradient id="SVGID_59_" gradientUnits="userSpaceOnUse" x1="-84593.8984" y1="-93114.0313" x2="-84513.7969" y2="-93114.0313" gradientTransform="matrix(1 0 0 -1 84765.4219 -93343.4844)">
					<stop  offset="0.05" style="stop-color:#FFFFFF;stop-opacity:0"/>
					<stop  offset="0.1066" style="stop-color:#FBFDFD;stop-opacity:0.0595"/>
					<stop  offset="0.6874" style="stop-color:#D8ECE9;stop-opacity:0.6709"/>
					<stop  offset="1" style="stop-color:#CBE6E1"/>
				</linearGradient>
				<path class="st60" d="M242.79-257.31c-19.4-19.4-50.86-19.4-70.26,0c-11.75,11.75-17.63,27.15-17.63,42.55h3.63
					c1.52-10.14,6.18-19.9,13.99-27.71c19.4-19.4,50.86-19.4,70.26,0c15.31,15.31,15.31,40.12,0,55.43
					C262.19-206.45,262.19-237.91,242.79-257.31z"/>
				
					<linearGradient id="SVGID_60_" gradientUnits="userSpaceOnUse" x1="-76681.2266" y1="84878.0938" x2="-76601.125" y2="84878.0938" gradientTransform="matrix(0 -1 -1 0 85078.4688 -76852.4375)">
					<stop  offset="0.05" style="stop-color:#FFFFFF;stop-opacity:0"/>
					<stop  offset="0.1066" style="stop-color:#FBFDFD;stop-opacity:0.0595"/>
					<stop  offset="0.6874" style="stop-color:#D8ECE9;stop-opacity:0.6709"/>
					<stop  offset="1" style="stop-color:#CBE6E1"/>
				</linearGradient>
				<path class="st61" d="M172.52-242.48c-19.4,19.4-19.4,50.86,0,70.26c11.75,11.75,27.15,17.63,42.55,17.63v-3.63
					c-10.14-1.52-19.9-6.18-27.71-13.99c-19.4-19.4-19.4-50.86,0-70.26c15.31-15.31,40.12-15.31,55.43,0
					C223.38-261.88,191.92-261.88,172.52-242.48z"/>
				
					<linearGradient id="SVGID_61_" gradientUnits="userSpaceOnUse" x1="101310.8828" y1="76965.4141" x2="101390.9844" y2="76965.4141" gradientTransform="matrix(-1 0 0 1 101569.5 -77165.4844)">
					<stop  offset="0.05" style="stop-color:#FFFFFF;stop-opacity:0"/>
					<stop  offset="0.1066" style="stop-color:#FBFDFD;stop-opacity:0.0595"/>
					<stop  offset="0.6874" style="stop-color:#D8ECE9;stop-opacity:0.6709"/>
					<stop  offset="1" style="stop-color:#CBE6E1"/>
				</linearGradient>
				<path class="st62" d="M187.35-172.21c19.4,19.4,50.86,19.4,70.26,0c11.75-11.75,17.63-27.15,17.63-42.55h-3.63
					c-1.52,10.14-6.18,19.9-13.99,27.71c-19.4,19.4-50.86,19.4-70.26,0c-15.31-15.31-15.31-40.12,0-55.43
					C167.95-223.07,167.95-191.61,187.35-172.21z"/>
				
					<linearGradient id="SVGID_62_" gradientUnits="userSpaceOnUse" x1="93398.2188" y1="-101026.7031" x2="93478.3203" y2="-101026.7031" gradientTransform="matrix(0 1 1 0 101256.4688 -93656.5234)">
					<stop  offset="0.05" style="stop-color:#FFFFFF;stop-opacity:0"/>
					<stop  offset="0.1066" style="stop-color:#FBFDFD;stop-opacity:0.0595"/>
					<stop  offset="0.6874" style="stop-color:#D8ECE9;stop-opacity:0.6709"/>
					<stop  offset="1" style="stop-color:#CBE6E1"/>
				</linearGradient>
				<path class="st63" d="M257.62-187.04c19.4-19.4,19.4-50.86,0-70.26c-11.75-11.75-27.15-17.63-42.55-17.63v3.63
					c10.14,1.52,19.9,6.18,27.71,13.99c19.4,19.4,19.4,50.86,0,70.26c-15.31,15.31-40.12,15.31-55.43,0
					C206.76-167.64,238.22-167.64,257.62-187.04z"/>
				
					<linearGradient id="SVGID_63_" gradientUnits="userSpaceOnUse" x1="-84557.5078" y1="-93093.5469" x2="-84534.0156" y2="-93141.1406" gradientTransform="matrix(1 0 0 -1 84765.4219 -93343.4844)">
					<stop  offset="0.35" style="stop-color:#FFFFFF;stop-opacity:0"/>
					<stop  offset="1" style="stop-color:#CBE6E1"/>
				</linearGradient>
				<path class="st64" d="M230.07-250.96c-10-4.14-20.73-3.84-29.99,0l0.9,2.18c6.48-1.61,13.52-1.24,20.16,1.51
					c16.51,6.84,24.35,25.76,17.51,42.27l-0.02-0.01c-3.83,9.24-12.94,15.75-23.57,15.75c-3.46,0-6.75-0.7-9.75-1.94l-0.01,0.02
					c16.51,6.84,35.44-1,42.27-17.51S246.58-244.13,230.07-250.96z"/>
				
					<linearGradient id="SVGID_64_" gradientUnits="userSpaceOnUse" x1="-76644.8359" y1="84898.5781" x2="-76621.3438" y2="84850.9766" gradientTransform="matrix(0 -1 -1 0 85078.4688 -76852.4375)">
					<stop  offset="0.35" style="stop-color:#FFFFFF;stop-opacity:0"/>
					<stop  offset="1" style="stop-color:#CBE6E1"/>
				</linearGradient>
				<path class="st65" d="M178.87-229.76c-4.14,10-3.84,20.73,0,29.99l2.19-0.91c-1.61-6.48-1.24-13.52,1.51-20.16
					c6.84-16.51,25.77-24.35,42.27-17.51l-0.01,0.02c9.24,3.83,15.75,12.94,15.75,23.57c0,3.46-0.7,6.75-1.95,9.75l0.02,0.01
					c6.84-16.51-1-35.44-17.51-42.27C204.63-254.11,185.7-246.27,178.87-229.76z"/>
				
					<linearGradient id="SVGID_65_" gradientUnits="userSpaceOnUse" x1="101347.2734" y1="76985.8984" x2="101370.7656" y2="76938.2969" gradientTransform="matrix(-1 0 0 1 101569.5 -77165.4766)">
					<stop  offset="0.35" style="stop-color:#FFFFFF;stop-opacity:0"/>
					<stop  offset="1" style="stop-color:#CBE6E1"/>
				</linearGradient>
				<path class="st66" d="M200.07-178.55c10,4.14,20.73,3.84,29.99,0l-0.9-2.18c-6.48,1.61-13.52,1.24-20.16-1.51
					c-16.51-6.84-24.35-25.76-17.51-42.27l0.02,0.01c3.83-9.24,12.94-15.75,23.57-15.75c3.46,0,6.75,0.7,9.75,1.95l0.01-0.02
					c-16.51-6.84-35.44,1-42.27,17.51C175.72-204.32,183.56-185.39,200.07-178.55z"/>
				
					<linearGradient id="SVGID_66_" gradientUnits="userSpaceOnUse" x1="93434.6094" y1="-101006.2188" x2="93458.1016" y2="-101053.8125" gradientTransform="matrix(0 1 1 0 101256.4688 -93656.5234)">
					<stop  offset="0.35" style="stop-color:#FFFFFF;stop-opacity:0"/>
					<stop  offset="1" style="stop-color:#CBE6E1"/>
				</linearGradient>
				<path class="st67" d="M251.28-199.76c4.14-10,3.84-20.73,0-29.99l-2.19,0.9c1.61,6.48,1.24,13.52-1.51,20.16
					c-6.84,16.51-25.77,24.35-42.27,17.51l0.01-0.02c-9.24-3.83-15.75-12.94-15.75-23.57c0-3.46,0.7-6.75,1.95-9.75l-0.02-0.01
					c-6.84,16.51,1,35.44,17.51,42.27C225.51-175.41,244.44-183.25,251.28-199.76z"/>
				
					<ellipse transform="matrix(0.7071 -0.7071 0.7071 0.7071 214.8503 89.177)" class="st2" cx="215.07" cy="-214.76" rx="25.51" ry="25.51"/>
			</g>
		</g>
		<g>
			<g>
				
					<linearGradient id="SVGID_67_" gradientUnits="userSpaceOnUse" x1="-76527.2344" y1="85071.7813" x2="-76473.1016" y2="84962.1172" gradientTransform="matrix(0 -1 -1 0 85078.4688 -76852.4375)">
					<stop  offset="0.05" style="stop-color:#FFFFFF;stop-opacity:0"/>
					<stop  offset="0.3367" style="stop-color:#F4FAF8;stop-opacity:0.3018"/>
					<stop  offset="0.8443" style="stop-color:#D6EBE7;stop-opacity:0.8361"/>
					<stop  offset="1" style="stop-color:#CBE6E1"/>
				</linearGradient>
				<path class="st68" d="M0-337.52c0,25.51,10.34,48.61,27.06,65.33l3.94-3.94c-9.36-12.67-14.9-28.32-14.9-45.28
					c0-42.13,34.15-76.28,76.28-76.28c33.23,0,60.17,26.94,60.17,60.17c0-42.13-34.15-76.28-76.28-76.28
					C34.15-413.81,0-379.65,0-337.52z"/>
				<path class="st2" d="M152.57-337.52c0,33.23-26.94,60.17-60.18,60.17c-33.23,0-60.17-26.94-60.17-60.17
					c0-33.23,26.94-60.17,60.17-60.17C125.63-397.69,152.57-370.75,152.57-337.52z"/>
				<path class="st2" d="M120.11-309.8c-15.3,15.31-40.12,15.31-55.42,0c-15.31-15.31-15.31-40.12,0-55.43
					c15.3-15.31,40.12-15.31,55.42,0C135.41-349.93,135.41-325.11,120.11-309.8z"/>
				
					<linearGradient id="SVGID_68_" gradientUnits="userSpaceOnUse" x1="-84685.3516" y1="-92920.2656" x2="-84631.2188" y2="-93029.9297" gradientTransform="matrix(1 0 0 -1 84765.4219 -93343.4844)">
					<stop  offset="0.05" style="stop-color:#FFFFFF;stop-opacity:0"/>
					<stop  offset="0.3367" style="stop-color:#F4FAF8;stop-opacity:0.3018"/>
					<stop  offset="0.8443" style="stop-color:#D6EBE7;stop-opacity:0.8361"/>
					<stop  offset="1" style="stop-color:#CBE6E1"/>
				</linearGradient>
				<path class="st69" d="M92.39-429.91c-25.51,0-48.61,10.34-65.33,27.06l3.94,3.94c12.67-9.36,28.32-14.9,45.28-14.9
					c42.13,0,76.28,34.15,76.28,76.28c0,33.23-26.94,60.17-60.18,60.17c42.13,0,76.29-34.15,76.29-76.28
					C168.68-395.75,134.52-429.91,92.39-429.91z"/>
				
					<linearGradient id="SVGID_69_" gradientUnits="userSpaceOnUse" x1="93306.6875" y1="-101078.3828" x2="93360.8203" y2="-101188.0469" gradientTransform="matrix(0 1 1 0 101256.4688 -93656.5234)">
					<stop  offset="0.05" style="stop-color:#FFFFFF;stop-opacity:0"/>
					<stop  offset="0.3367" style="stop-color:#F4FAF8;stop-opacity:0.3018"/>
					<stop  offset="0.8443" style="stop-color:#D6EBE7;stop-opacity:0.8361"/>
					<stop  offset="1" style="stop-color:#CBE6E1"/>
				</linearGradient>
				<path class="st70" d="M184.78-337.51c0-25.51-10.34-48.61-27.06-65.33l-3.94,3.94c9.36,12.67,14.9,28.32,14.9,45.28
					c0,42.13-34.15,76.28-76.28,76.28c-33.23,0-60.17-26.94-60.17-60.18c0,42.13,34.15,76.28,76.28,76.28
					C150.62-261.23,184.78-295.38,184.78-337.51z"/>
				
					<linearGradient id="SVGID_70_" gradientUnits="userSpaceOnUse" x1="101464.7969" y1="76913.6641" x2="101518.9297" y2="76804" gradientTransform="matrix(-1 0 0 1 101569.5 -77165.4844)">
					<stop  offset="0.05" style="stop-color:#FFFFFF;stop-opacity:0"/>
					<stop  offset="0.3367" style="stop-color:#F4FAF8;stop-opacity:0.3018"/>
					<stop  offset="0.8443" style="stop-color:#D6EBE7;stop-opacity:0.8361"/>
					<stop  offset="1" style="stop-color:#CBE6E1"/>
				</linearGradient>
				<path class="st71" d="M92.38-245.13c25.51,0,48.61-10.34,65.33-27.06l-3.94-3.94c-12.67,9.36-28.32,14.9-45.28,14.9
					c-42.13,0-76.28-34.15-76.28-76.28c0-33.23,26.94-60.17,60.18-60.17c-42.13,0-76.28,34.15-76.28,76.28
					C16.1-279.28,50.25-245.13,92.38-245.13z"/>
				
					<linearGradient id="SVGID_71_" gradientUnits="userSpaceOnUse" x1="-84716.5859" y1="-92991.2734" x2="-84636.4766" y2="-92991.2734" gradientTransform="matrix(1 0 0 -1 84765.4219 -93343.4844)">
					<stop  offset="0.05" style="stop-color:#FFFFFF;stop-opacity:0"/>
					<stop  offset="0.1066" style="stop-color:#FBFDFD;stop-opacity:0.0595"/>
					<stop  offset="0.6874" style="stop-color:#D8ECE9;stop-opacity:0.6709"/>
					<stop  offset="1" style="stop-color:#CBE6E1"/>
				</linearGradient>
				<path class="st72" d="M120.11-380.07c-19.4-19.4-50.86-19.4-70.26,0c-11.75,11.75-17.63,27.15-17.63,42.55h3.63
					c1.52-10.14,6.18-19.9,13.99-27.71c19.4-19.4,50.86-19.4,70.26,0c15.31,15.31,15.31,40.12,0,55.43
					C139.51-329.21,139.51-360.67,120.11-380.07z"/>
				
					<linearGradient id="SVGID_72_" gradientUnits="userSpaceOnUse" x1="101433.5625" y1="76842.6563" x2="101513.6641" y2="76842.6563" gradientTransform="matrix(-1 0 0 1 101569.5 -77165.4844)">
					<stop  offset="0.05" style="stop-color:#FFFFFF;stop-opacity:0"/>
					<stop  offset="0.1066" style="stop-color:#FBFDFD;stop-opacity:0.0595"/>
					<stop  offset="0.6874" style="stop-color:#D8ECE9;stop-opacity:0.6709"/>
					<stop  offset="1" style="stop-color:#CBE6E1"/>
				</linearGradient>
				<path class="st73" d="M64.67-294.97c19.4,19.4,50.86,19.4,70.26,0c11.75-11.75,17.63-27.15,17.63-42.55h-3.63
					c-1.52,10.14-6.18,19.9-13.99,27.71c-19.4,19.4-50.86,19.4-70.26,0c-15.31-15.31-15.31-40.12,0-55.43
					C45.27-345.83,45.27-314.37,64.67-294.97z"/>
				
					<linearGradient id="SVGID_73_" gradientUnits="userSpaceOnUse" x1="93275.4531" y1="-101149.3906" x2="93355.5625" y2="-101149.3906" gradientTransform="matrix(0 1 1 0 101256.4688 -93656.5234)">
					<stop  offset="0.05" style="stop-color:#FFFFFF;stop-opacity:0"/>
					<stop  offset="0.1066" style="stop-color:#FBFDFD;stop-opacity:0.0595"/>
					<stop  offset="0.6874" style="stop-color:#D8ECE9;stop-opacity:0.6709"/>
					<stop  offset="1" style="stop-color:#CBE6E1"/>
				</linearGradient>
				<path class="st74" d="M134.94-309.8c19.4-19.4,19.4-50.86,0-70.26c-11.75-11.75-27.15-17.63-42.55-17.63v3.63
					c10.14,1.52,19.9,6.18,27.71,13.99c19.4,19.4,19.4,50.86,0,70.26c-15.31,15.31-40.12,15.31-55.43,0
					C84.08-290.4,115.54-290.4,134.94-309.8z"/>
				
					<linearGradient id="SVGID_74_" gradientUnits="userSpaceOnUse" x1="-84680.1875" y1="-92970.7891" x2="-84656.6953" y2="-93018.3828" gradientTransform="matrix(1 0 0 -1 84765.4219 -93343.4844)">
					<stop  offset="0.35" style="stop-color:#FFFFFF;stop-opacity:0"/>
					<stop  offset="1" style="stop-color:#CBE6E1"/>
				</linearGradient>
				<path class="st75" d="M107.39-373.72c-10-4.14-20.73-3.84-29.99,0l0.9,2.18c6.48-1.61,13.52-1.24,20.16,1.51
					c16.51,6.84,24.35,25.77,17.51,42.27l-0.02-0.01c-3.83,9.24-12.94,15.75-23.57,15.75c-3.46,0-6.75-0.7-9.75-1.94l-0.01,0.02
					c16.51,6.84,35.44-1,42.27-17.51C131.74-347.96,123.9-366.89,107.39-373.72z"/>
				
					<linearGradient id="SVGID_75_" gradientUnits="userSpaceOnUse" x1="93311.8438" y1="-101128.8984" x2="93335.3438" y2="-101176.5" gradientTransform="matrix(0 1 1 0 101256.4688 -93656.5234)">
					<stop  offset="0.35" style="stop-color:#FFFFFF;stop-opacity:0"/>
					<stop  offset="1" style="stop-color:#CBE6E1"/>
				</linearGradient>
				<path class="st76" d="M128.59-322.52c4.14-10,3.84-20.73,0-29.99l-2.19,0.91c1.61,6.48,1.24,13.52-1.51,20.16
					c-6.84,16.51-25.77,24.35-42.27,17.51l0.01-0.02c-9.24-3.83-15.75-12.94-15.75-23.57c0-3.46,0.7-6.75,1.95-9.75l-0.02-0.01
					c-6.84,16.51,1,35.44,17.51,42.27C102.83-298.17,121.76-306.01,128.59-322.52z"/>
			</g>
			<g>
				
					<linearGradient id="SVGID_76_" gradientUnits="userSpaceOnUse" x1="-1199.9072" y1="112416.9922" x2="-1161.0928" y2="112338.3594" gradientTransform="matrix(-0.7071 -0.7071 -0.7071 0.7071 78696.7813 -80503.5703)">
					<stop  offset="0.05" style="stop-color:#FFFFFF;stop-opacity:0"/>
					<stop  offset="0.3367" style="stop-color:#F4FAF8;stop-opacity:0.3018"/>
					<stop  offset="0.8443" style="stop-color:#D6EBE7;stop-opacity:0.8361"/>
					<stop  offset="1" style="stop-color:#CBE6E1"/>
				</linearGradient>
				<path class="st77" d="M45.54-167.92c12.94,12.94,29.89,19.4,46.84,19.4v-4c-11.16-1.68-21.91-6.81-30.51-15.4
					c-21.36-21.36-21.36-55.99,0-77.35c16.85-16.85,44.17-16.85,61.02,0c-21.36-21.36-55.99-21.36-77.35,0
					C24.18-223.91,24.18-189.28,45.54-167.92z"/>
				<path class="st2" d="M122.9-245.27c16.85,16.85,16.85,44.17,0,61.02c-16.85,16.85-44.17,16.85-61.02,0
					c-16.85-16.85-16.85-44.17,0-61.02C78.73-262.12,106.05-262.12,122.9-245.27z"/>
				
					<linearGradient id="SVGID_77_" gradientUnits="userSpaceOnUse" x1="-112051.3281" y1="-17620.8281" x2="-112012.5156" y2="-17699.4609" gradientTransform="matrix(0.7071 -0.7071 -0.7071 -0.7071 66814.5 -91943.1484)">
					<stop  offset="0.05" style="stop-color:#FFFFFF;stop-opacity:0"/>
					<stop  offset="0.3367" style="stop-color:#F4FAF8;stop-opacity:0.3018"/>
					<stop  offset="0.8443" style="stop-color:#D6EBE7;stop-opacity:0.8361"/>
					<stop  offset="1" style="stop-color:#CBE6E1"/>
				</linearGradient>
				<path class="st78" d="M45.55-261.6c-12.94,12.94-19.4,29.89-19.4,46.84h4c1.68-11.17,6.81-21.91,15.4-30.51
					c21.36-21.36,55.99-21.36,77.35,0c16.85,16.85,16.85,44.17,0,61.02c21.36-21.36,21.36-55.99,0-77.35
					C101.54-282.96,66.91-282.96,45.55-261.6z"/>
				
					<linearGradient id="SVGID_78_" gradientUnits="userSpaceOnUse" x1="17986.4863" y1="-128472.2578" x2="18025.2988" y2="-128550.8828" gradientTransform="matrix(0.7071 0.7071 0.7071 -0.7071 78254.0781 -103825.4297)">
					<stop  offset="0.05" style="stop-color:#FFFFFF;stop-opacity:0"/>
					<stop  offset="0.3367" style="stop-color:#F4FAF8;stop-opacity:0.3018"/>
					<stop  offset="0.8443" style="stop-color:#D6EBE7;stop-opacity:0.8361"/>
					<stop  offset="1" style="stop-color:#CBE6E1"/>
				</linearGradient>
				<path class="st79" d="M139.23-261.6c-12.94-12.93-29.89-19.4-46.84-19.4v4c11.17,1.68,21.91,6.81,30.51,15.4
					c21.36,21.36,21.36,55.99,0,77.35c-16.85,16.85-44.17,16.85-61.02,0c21.36,21.36,55.99,21.36,77.35,0
					C160.59-205.61,160.59-240.24,139.23-261.6z"/>
				
					<linearGradient id="SVGID_79_" gradientUnits="userSpaceOnUse" x1="128837.9063" y1="1565.5637" x2="128876.7266" y2="1486.9318" gradientTransform="matrix(-0.7071 0.7071 0.7071 0.7071 90136.3594 -92385.8516)">
					<stop  offset="0.05" style="stop-color:#FFFFFF;stop-opacity:0"/>
					<stop  offset="0.3367" style="stop-color:#F4FAF8;stop-opacity:0.3018"/>
					<stop  offset="0.8443" style="stop-color:#D6EBE7;stop-opacity:0.8361"/>
					<stop  offset="1" style="stop-color:#CBE6E1"/>
				</linearGradient>
				<path class="st80" d="M139.23-167.92c12.93-12.94,19.4-29.89,19.4-46.84h-4c-1.68,11.17-6.81,21.91-15.4,30.51
					c-21.36,21.36-55.99,21.36-77.35,0c-16.85-16.85-16.85-44.17,0-61.02c-21.36,21.36-21.36,55.99,0,77.35
					C83.23-146.56,117.87-146.56,139.23-167.92z"/>
				
					<linearGradient id="SVGID_80_" gradientUnits="userSpaceOnUse" x1="-1222.2993" y1="112366.0781" x2="-1164.8639" y2="112366.0781" gradientTransform="matrix(-0.7071 -0.7071 -0.7071 0.7071 78696.7813 -80503.5703)">
					<stop  offset="0.05" style="stop-color:#FFFFFF;stop-opacity:0"/>
					<stop  offset="0.1066" style="stop-color:#FBFDFD;stop-opacity:0.0595"/>
					<stop  offset="0.6874" style="stop-color:#D8ECE9;stop-opacity:0.6709"/>
					<stop  offset="1" style="stop-color:#CBE6E1"/>
				</linearGradient>
				<path class="st81" d="M56.76-207.24c0,19.68,15.95,35.63,35.62,35.62c11.91,0,22.7-4.83,30.51-12.64l-1.84-1.84
					c-5.92,4.37-13.23,6.96-21.15,6.96c-19.67,0-35.62-15.95-35.62-35.62c0-15.52,12.58-28.1,28.1-28.1
					C72.71-242.86,56.76-226.91,56.76-207.24z"/>
				
					<linearGradient id="SVGID_81_" gradientUnits="userSpaceOnUse" x1="128815.5156" y1="1514.6506" x2="128872.9531" y2="1514.6506" gradientTransform="matrix(-0.7071 0.7071 0.7071 0.7071 90136.3594 -92385.8516)">
					<stop  offset="0.05" style="stop-color:#FFFFFF;stop-opacity:0"/>
					<stop  offset="0.1066" style="stop-color:#FBFDFD;stop-opacity:0.0595"/>
					<stop  offset="0.6874" style="stop-color:#D8ECE9;stop-opacity:0.6709"/>
					<stop  offset="1" style="stop-color:#CBE6E1"/>
				</linearGradient>
				<path class="st82" d="M99.91-179.13c19.68,0,35.63-15.95,35.62-35.62c0-11.92-4.83-22.7-12.64-30.51l-1.84,1.84
					c4.37,5.92,6.96,13.23,6.96,21.15c0,19.67-15.95,35.62-35.62,35.62c-15.52,0-28.1-12.58-28.1-28.1
					C64.28-195.08,80.23-179.13,99.91-179.13z"/>
				
					<linearGradient id="SVGID_82_" gradientUnits="userSpaceOnUse" x1="17964.0938" y1="-128523.1641" x2="18021.5293" y2="-128523.1641" gradientTransform="matrix(0.7071 0.7071 0.7071 -0.7071 78254.0781 -103825.4297)">
					<stop  offset="0.05" style="stop-color:#FFFFFF;stop-opacity:0"/>
					<stop  offset="0.1066" style="stop-color:#FBFDFD;stop-opacity:0.0595"/>
					<stop  offset="0.6874" style="stop-color:#D8ECE9;stop-opacity:0.6709"/>
					<stop  offset="1" style="stop-color:#CBE6E1"/>
				</linearGradient>
				<path class="st83" d="M128.01-222.28c0-19.67-15.95-35.62-35.63-35.62c-11.91,0-22.7,4.83-30.51,12.64l1.84,1.84
					c5.92-4.37,13.23-6.96,21.15-6.96c19.67,0,35.62,15.95,35.62,35.62c0,15.52-12.58,28.1-28.1,28.1
					C112.07-186.65,128.01-202.6,128.01-222.28z"/>
			</g>
		</g>
		<g>
			<g>
				
					<linearGradient id="SVGID_83_" gradientUnits="userSpaceOnUse" x1="101342.1094" y1="76791.2891" x2="101396.2422" y2="76681.625" gradientTransform="matrix(-1 0 0 1 101569.5 -77165.4844)">
					<stop  offset="0.05" style="stop-color:#FFFFFF;stop-opacity:0"/>
					<stop  offset="0.3367" style="stop-color:#F4FAF8;stop-opacity:0.3018"/>
					<stop  offset="0.8443" style="stop-color:#D6EBE7;stop-opacity:0.8361"/>
					<stop  offset="1" style="stop-color:#CBE6E1"/>
				</linearGradient>
				<path class="st84" d="M215.07-367.5c25.51,0,48.61-10.34,65.33-27.06l-3.94-3.94c-12.67,9.36-28.32,14.9-45.28,14.9
					c-42.13,0-76.28-34.15-76.28-76.28c0-33.23,26.94-60.17,60.18-60.17c-42.13,0-76.28,34.15-76.28,76.28
					C138.78-401.66,172.93-367.5,215.07-367.5z"/>
			</g>
		</g>
	</g>
</pattern>
<g>
	<g>
		<path class="st85" d="M1063.49,371.81c-0.11,5.7-0.17,11.47-0.04,17.62c0.06,3.23-0.63,6.43-2.03,9.35
			c-10.03,20.95-26.85,31.08-26.85,31.08c-13.01,7.76-25.31,8.65-31,9c-18.29,1.12-31.36-4.92-51-14c-17.23-7.96-26.46-12.39-33-23
			c-2.95-4.8-4.49-10-6.78-19.13c-0.39-1.51-0.79-3.13-1.22-4.87c-4.22-17.04-6.55-26.48-3-29c6.16-4.38,18.85,19.94,39,21
			c28.66,1.51,37.78-45.84,73-47c2.13-0.07,20.61-0.41,33.2,12.45c6.79,6.92,10,14.86,9.99,17.65
			C1063.75,359.41,1063.6,365.56,1063.49,371.81z"/>
	</g>
	<g>
		<path class="st85" d="M912.07,355.36c-0.55,0-1.09-0.22-1.48-0.66l-56.5-62.5c-0.74-0.82-0.68-2.08,0.14-2.83
			c0.82-0.74,2.08-0.68,2.82,0.14l56.5,62.5c0.74,0.82,0.68,2.08-0.14,2.83C913.03,355.19,912.55,355.36,912.07,355.36z"/>
	</g>
	<g>
		<path class="st85" d="M925.43,406.12c-0.52,0-1.03-0.2-1.43-0.6l-82.86-84.26c-0.77-0.79-0.76-2.05,0.02-2.83
			c0.79-0.78,2.05-0.76,2.83,0.02l82.86,84.26c0.77,0.79,0.76,2.05-0.02,2.83C926.44,405.92,925.93,406.12,925.43,406.12z"/>
	</g>
	<g class="st86">
		<path class="st87" d="M1063.45,389.43c0.06,3.23-0.63,6.43-2.03,9.35c-10.03,20.95-26.85,31.08-26.85,31.08
			c-13.01,7.76-25.31,8.65-31,9c-18.29,1.12-31.36-4.92-51-14c-17.23-7.96-26.46-12.39-33-23c-2.95-4.8-4.49-10-6.78-19.13
			c20.09,15.7,36.23,18.68,47.78,18.13c23.25-1.11,34.5-16.79,70-25c12.69-2.93,24.02-3.88,32.92-4.05
			C1063.38,377.51,1063.32,383.28,1063.45,389.43z"/>
	</g>
</g>
<g>
	<g>
		<path class="st88" d="M823.46,678.35c-88.64,5.91-123.06,19.59-136.82,32.32c-0.43,0.4-1.02,0.96-1.77,1.64
			c-4.67,4.29-15.5,13.3-31.1,15.55c-11.03,1.59-20.7-0.75-27.2-3c1.13-11.41,3.76-27.61,10.88-46c5.37-13.89,10.08-26.05,20.67-38
			c17-19.21,40.06-27.57,56.74-31.21c1.1-0.24,2.17-0.45,3.2-0.65c0.34-0.07,0.67-0.13,1-0.19c6.07-1.12,11.01-1.6,14.06-1.81
			c1.86-0.12,3.02-0.14,3.33-0.14c11.63-0.09,40.24-0.27,63.1,20C821.38,646.22,823.2,671.73,823.46,678.35z"/>
		<path class="st88" d="M733.18,607.86c0,3.87-3.41,7-7.61,7c-2.44,0-4.61-1.05-5.99-2.69c-0.79-0.9-1.32-1.98-1.52-3.17
			c-0.01-0.01-0.01-0.02-0.01-0.03c-0.07-0.36-0.1-0.73-0.1-1.11c0-3.87,3.41-7,7.62-7c3.88,0,7.09,2.68,7.55,6.14
			C733.16,607.28,733.18,607.57,733.18,607.86z"/>
	</g>
	<path class="st89" d="M725.57,607.86c-1.91,1.3-3.92,2.74-5.99,4.31c-12.47,9.48-26.93,23.94-34.01,44.69
		c-7.71,22.63-2.46,40.46-0.7,55.45c-4.67,4.29-15.5,13.3-31.1,15.55c-11.03,1.59-20.7-0.75-27.2-3c1.13-11.41,3.76-27.61,10.88-46
		c5.37-13.89,10.08-26.05,20.67-38c17-19.21,40.06-27.57,56.74-31.21c1.1-0.24,2.17-0.45,3.2-0.65c-0.01-0.01-0.01-0.02-0.01-0.03
		c0.34-0.05,0.68-0.11,1.01-0.16C721.34,608.44,723.51,608.12,725.57,607.86z"/>
	<path class="st90" d="M678.79,716.86c4.42-5.72,11.73-13.75,22.85-21c13.1-8.54,25.75-12.27,33.72-14
		c29.69-2.32,59.38-4.63,89.07-6.95c49.52,26.35,59.96,33.93,59.09,35.49c-1.11,2.01-19.61-8.01-46.06-9.4
		c-25.24-1.33-41.56,6.03-58.76,11.02C756.71,718.38,724.07,723.53,678.79,716.86z"/>
</g>
<g>
	<path class="st91" d="M1144.57,653.86c4.67-2.18,11.67-5.56,20-10c34.97-18.63,47.53-31.54,64-40c15.15-7.78,38.99-14.57,76-8
		c0.52-7.84,1.05-31.46-15-48c-23.58-24.3-66.69-16.56-91,0c-11.45,7.81-17.53,16.76-25,28
		C1154.97,603.85,1147.58,632.35,1144.57,653.86z"/>
	
		<ellipse transform="matrix(0.6845 -0.729 0.729 0.6845 -107.6733 1042.9196)" class="st91" cx="1151.07" cy="645.86" rx="7.5" ry="15"/>
	<path class="st91" d="M1157.21,625.07c0.38,30.42-3.49,94.22-46,149.82c-5.54,7.24-23.43,30.64-28.18,27.91
		C1074.14,797.7,1117.76,704.94,1157.21,625.07z"/>
	<path class="st91" d="M1147.88,647.3c-4.91,22.07-18.57,67.58-58.79,100.57c-5.24,4.3-22.17,18.18-25.14,15.4
		C1058.39,758.07,1105.74,698.37,1147.88,647.3z"/>
	<pattern  id="SVGID_84_" xlink:href="#Vortex_1" patternTransform="matrix(1 0 0 1 65.6674 45.8567)">
	</pattern>
	<path class="st92" d="M1289.75,547.78c-23.58-24.3-66.69-16.56-91,0c-11.45,7.81-17.53,16.76-25,28
		c-13.59,20.46-21.19,41.18-25.48,59.26c-3.38-1.29-6.36-1.22-7.96,0.48c-2.66,2.83-0.54,9.21,4.72,14.66
		c-0.29,0.59-0.57,1.17-0.86,1.76c-41.1,49.97-85.43,106.21-80.04,111.25c2.97,2.78,19.9-11.1,25.14-15.4
		c6.71-5.51,12.67-11.37,17.99-17.4c-17.73,39.66-28.98,69.51-24.05,72.34c4.75,2.72,22.64-20.67,28.18-27.91
		c30.74-40.2,41.27-84.68,44.61-117.74c2.63,0.65,4.88,0.37,6.19-1.02c1.96-2.09,1.32-6.1-1.26-10.26c1.24-0.65,2.51-1.31,3.82-2.01
		c34.97-18.63,47.53-31.54,64-40c15.15-7.78,38.99-14.57,76-8C1305.27,587.94,1305.79,564.32,1289.75,547.78z"/>
	<path class="st93" d="M1107.07,730.49c4.56-11.58,10.29-24.28,17.5-37.64c8.56-15.86,17.53-29.51,26-41
		c-8.2,11.05-14.85,19.67-19,25c-14.75,18.94-21.69,26.76-24,40C1106.56,722.61,1106.77,727.47,1107.07,730.49z"/>
	<path class="st93" d="M1150.57,642.24c8.3-8.22,21.25-19.7,39-30.39c34.03-20.48,63.8-24.8,63-29c-0.58-3.07-17.21-4.62-33,0
		c-16.67,4.87-27.09,15.07-46,34C1163.28,627.15,1155.52,636.2,1150.57,642.24z"/>
</g>
<g>
	<path class="st94" d="M875.57,13.86c1.8-6.98,5.4-17.7,13-29c4.29-6.37,14.24-21.17,32-29c9.43-4.16,15.34-3.84,37-5
		c11.96-0.64,29.81-1.8,52-4c4.56-5.96,18.9-26.25,17-54c-2.25-32.88-25.68-52.54-31-57c-53.36-44.77-144.51-6.07-144,0
		c0.34,4.04,41.66-2.68,54,19c3.69,6.49,3.71,13.63,3,19c-8.31-3.21-21.91-7.25-39-7c-21.92,0.32-38.49,7.54-47,12
		c7.65,0.09,24.22,1.44,39,13c4.18,3.27,7.45,6.76,10,10c-6.05,1.31-14.29,3.83-23,9c-14.79,8.77-23.07,20.45-27,27
		c2.65-1.24,18.41-8.35,35-1c8.41,3.72,13.5,9.6,16,13C873.57-28.81,874.57-7.48,875.57,13.86z"/>
	<path class="st95" d="M912.57-175.14c4.95-1.46,36.74-10.26,68,9c32.43,19.98,38.25,54.13,39,59c-10.18-12.65-27.3-30.74-53-46
		C945.97-165.37,926.7-171.7,912.57-175.14z"/>
</g>
<g>
	<path class="st96" d="M212.96,215.8c-4.92,6.98-11.87,16.02-21.1,25.85c-1.73,1.85-3.55,3.73-5.45,5.63
		c-4.01,4-7.45,7.44-10.46,10.27c-7.5,7.08-12.34,10.5-16.78,10.03c-20.89-2.23-38.76-69.78-21.61-81.96
		c4.38-3.12,10.72-2.36,19.35,0.48c5.11,1.69,11.02,4.11,17.82,6.89c0.08,0.03,0.16,0.07,0.24,0.1
		C191.98,200.08,204.64,208.99,212.96,215.8z"/>
	<path class="st96" d="M208.65,216.66c5.11-9.52,13.45-22.67,26.6-35.7c14.03-13.9,23.17-22.95,31.52-21.04
		c20.5,4.7,29.84,73.94,11.39,83.99c-5.5,3-14.65-0.78-32.93-8.34C229.56,229.11,217.23,222.08,208.65,216.66z"/>
	<path class="st97" d="M191.86,241.65c-1.73,1.85-3.55,3.73-5.45,5.63c-4.01,4-7.45,7.44-10.46,10.27
		c-10.66-7.59-17.8-23.34-20.57-34.63c-0.37-1.53-5.07-21.68,1.53-36.82c5.11,1.69,11.02,4.11,17.82,6.89
		c0.08,0.03,0.16,0.07,0.24,0.1c-0.82,7.93-0.97,17.3,2.41,26.83C180.77,229.46,186.69,236.29,191.86,241.65z"/>
	<path class="st97" d="M237.64,232.12c2.28,1.11,4.65,2.22,7.1,3.31c5.17,2.3,9.62,4.29,13.44,5.86c7.25-10.9,8.29-28.16,6.84-39.69
		c-0.2-1.56-3.01-22.06-14.58-33.84c-4.17,3.4-8.82,7.78-14.18,12.8c-0.06,0.06-0.12,0.12-0.19,0.18c3.6,7.11,7.09,15.81,7.33,25.92
		C243.65,216.77,240.56,225.26,237.64,232.12z"/>
	<path class="st98" d="M190.38,216.92c-6.67-1-13.33-2-20-3c-9.22,2.85-15.43,6.69-15,9c0.43,2.3,7.54,3.62,17,3
		C178.38,222.92,184.38,219.92,190.38,216.92z"/>
	<path class="st98" d="M229.32,210.81c5.98-3.12,11.95-6.24,17.93-9.36c9.65-0.31,16.77,1.29,17.12,3.61
		c0.34,2.31-5.95,5.88-15.09,8.39C242.62,212.56,235.97,211.68,229.32,210.81z"/>
	<circle class="st96" cx="209.3" cy="214.16" r="19"/>
</g>
<g>
	<path class="st99" d="M1676.96,1195.29c-5.3-1.91-29.59-10.36-55.17-10.56c-16.71-0.14-33.97,3.26-46.84,14.3
		c-11.27,9.67-23.59,29.01-26.08,32.93c-9.22,14.47-15.14,27.69-18.9,37.43c-0.07,0.18-0.13,0.35-0.2,0.52
		c-0.04-0.07-0.11-0.18-0.19-0.31c-4.77-8-20.27-33.97-13.58-56.59c1.23-4.15,7.85-22.47,9.33-28.74c0.31-1.31,0.51-2.55,0.55-3.73
		c0.13-2.5-0.39-4.69-1.88-6.53c-1.44-1.78-3.42-2.78-5.71-3.33c-3.06-0.75-6.67-0.71-10.29-0.67c-19.78,0.22-34.2,13.21-39,18
		c-13.95,13.91-18.02,29.71-18.1,29.71c0-0.42,9.36-34.95,37.1-70.71c16.99-21.89,30.91-39.84,57-49
		c34.8-12.22,65.6,0.19,70.21,2.13c42.75,17.95,56,61.61,57.79,67.87C1676.17,1179.08,1676.88,1188.72,1676.96,1195.29z"/>
	<g>
		<path class="st2" d="M1427,1205c0-2.2,4.18-3.97,4.59-6.05c0.42-2.15-2.75-5.37-1.93-7.35c0.83-2.01,5.37-2.04,6.56-3.82
			c1.2-1.8-0.49-6,1.03-7.53c1.53-1.53,5.73,0.17,7.53-1.03c1.79-1.2,1.82-5.73,3.82-6.56c1.97-0.82,5.2,2.36,7.35,1.93
			c2.08-0.41,3.85-4.59,6.05-4.59s3.97,4.18,6.05,4.59c2.15,0.42,5.37-2.75,7.35-1.93c2.01,0.83,2.04,5.37,3.82,6.56
			c1.8,1.2,6-0.49,7.53,1.03c1.53,1.53-0.17,5.73,1.03,7.53c1.2,1.79,5.73,1.82,6.56,3.82c0.82,1.97-2.36,5.2-1.93,7.35
			c0.41,2.08,4.59,3.85,4.59,6.05s-4.18,3.97-4.59,6.05c-0.42,2.15,2.75,5.37,1.93,7.35c-0.83,2.01-5.37,2.04-6.56,3.82
			c-1.2,1.8,0.49,6-1.03,7.53c-1.53,1.53-5.73-0.17-7.53,1.03c-1.79,1.2-1.82,5.73-3.82,6.56c-1.97,0.82-5.2-2.36-7.35-1.93
			c-2.08,0.41-3.85,4.59-6.05,4.59s-3.97-4.18-6.05-4.59c-2.15-0.42-5.37,2.75-7.35,1.93c-2.01-0.83-2.04-5.37-3.82-6.56
			c-1.8-1.2-6,0.49-7.53-1.03c-1.53-1.53,0.17-5.73-1.03-7.53c-1.2-1.79-5.73-1.82-6.56-3.82c-0.82-1.97,2.36-5.2,1.93-7.35
			C1431.18,1208.97,1427,1207.2,1427,1205z"/>
	</g>
	<g>
		<defs>
			<path id="SVGID_85_" d="M1677.03,1194.61c-5.3-1.91-29.59-10.36-55.17-10.56c-16.71-0.14-33.97,3.26-46.84,14.3
				c-11.27,9.67-23.59,29.01-26.08,32.93c-9.22,14.47-15.14,27.69-18.9,37.43c-0.07,0.18-0.13,0.35-0.2,0.52
				c-0.04-0.07-0.11-0.18-0.19-0.32c-4.77-8-20.27-33.97-13.58-56.59c1.23-4.15,7.85-22.47,9.33-28.74
				c0.31-1.31,0.51-2.55,0.55-3.73c0.13-2.5-0.39-4.69-1.88-6.53c-1.44-1.78-3.42-2.78-5.71-3.33c-3.06-0.75-6.67-0.71-10.29-0.67
				c-19.78,0.22-34.2,13.21-39,18c-13.95,13.91-18.02,29.71-18.1,29.71c0-0.42,9.36-34.95,37.1-70.71c16.99-21.89,30.91-39.84,57-49
				c34.8-12.22,65.6,0.19,70.21,2.13c42.75,17.95,56,61.61,57.79,67.87C1676.24,1178.4,1676.95,1188.04,1677.03,1194.61z"/>
		</defs>
		<clipPath id="SVGID_86_">
			<use xlink:href="#SVGID_85_"  style="overflow:visible;"/>
		</clipPath>
		<polygon class="st100" points="1608.33,1107.63 1617,1078 1625.67,1103.3 1658.2,1109.08 1639.41,1119.2 1653.86,1133.65 
			1622.06,1127.87 1605.44,1151 1599.65,1120.64 1575.8,1109.08 		"/>
		<polygon class="st100" points="1546.22,1173.44 1563.91,1156.27 1563.18,1180.45 1583.45,1195.45 1561.56,1192.36 1563.1,1217.48 
			1548.06,1191.41 1523.47,1196.47 1534.43,1181.15 1520.58,1160.2 		"/>
		<polygon class="st100" points="1508.39,1126 1500.24,1102.73 1521.88,1113.56 1544.01,1101.47 1532.01,1120.03 1555.44,1129.2 
			1525.47,1131.88 1519.72,1156.32 1510.42,1139.93 1485.6,1143.69 		"/>
	</g>
	<path class="st101" d="M1564.75,1142.69c-8.73,3.85-19.97,10.38-29.1,21.8c-4.49,5.61-7.55,11.26-9.77,16.04
		c0.13-2.5-0.39-4.69-1.88-6.53c-1.44-1.78-3.42-2.78-5.71-3.33c0.6-1.96,1.37-3.91,2.34-5.79
		C1531.39,1144.07,1561.32,1142.79,1564.75,1142.69z"/>
	<path class="st101" d="M1633,1165c-3.7,6.86-7.44,13.44-11.21,19.73c-16.71-0.14-33.97,3.26-46.84,14.3
		c-11.27,9.67-23.59,29.01-26.08,32.93c-9.22,14.47-15.14,27.69-18.9,37.43c-0.19-0.03-0.38-0.07-0.57-0.11
		c-15.23-25.65-15.74-44.14-13.4-56.28c2.17-11.26,7.57-21.1,9.33-28.74c17.54-0.68,26.16-13.83,39.67-21.26
		C1577.21,1156.28,1597.63,1151.93,1633,1165z"/>
	<path class="st2" d="M1508.1,1241.64l9.7,21.44c3.15,7.12,6.1,8.74,8.2,8.92c8.27,0.72,10.97-20.18,30-41
		c10.23-11.19,20.68-17.44,30-23c13.11-7.82,23.52-14.03,38-16c16.55-2.25,30.98,2.04,41.02,6.57c3.32,1.5,7.22,0.58,9.51-2.26
		c2.92-3.61,6.23-9.07,7.47-16.32c0.98-5.69,0.37-10.65-0.51-14.29c-0.7-2.87-2.89-5.13-5.76-5.87
		c-11.71-2.99-29.03-5.87-49.73-3.84c-6.43,0.63-36.5,4.03-68,25c-26.64,17.74-41.8,39.73-49.56,53.39
		C1507.18,1236.61,1507.04,1239.3,1508.1,1241.64z"/>
</g>
</svg>
