<?xml version="1.0" encoding="iso-8859-1"?>
<!-- Generator: Adobe Illustrator 19.0.0, SVG Export Plug-In . SVG Version: 6.00 Build 0)  -->
<svg version="1.1" id="Capa_1" xmlns="http://www.w3.org/2000/svg" xmlns:xlink="http://www.w3.org/1999/xlink" x="0px" y="0px"
	 viewBox="0 0 390.255 390.255" style="enable-background:new 0 0 390.255 390.255;" xml:space="preserve">
<g id="XMLID_2_">
	<path id="XMLID_44_" style="fill:#DA88B4;" d="M192.395,279.449h-3.347c-6.008,0-10.879-4.871-10.879-10.879v-33.969h25.106v33.969
		C203.274,274.578,198.403,279.449,192.395,279.449z"/>
	<path id="XMLID_43_" style="fill:#DA88B4;" d="M155.278,278.759l-3.163-1.097c-5.676-1.969-8.682-8.167-6.712-13.844l11.134-32.093
		l23.719,8.229l-11.134,32.093C167.152,277.723,160.954,280.728,155.278,278.759z"/>
	<path id="XMLID_42_" style="fill:#D570A7;" d="M242.606,279.449h-3.347c-6.008,0-10.879-4.871-10.879-10.879v-33.969h25.106v33.969
		C253.485,274.578,248.614,279.449,242.606,279.449z"/>
	<path id="XMLID_41_" style="fill:#D570A7;" d="M267.712,279.449h-3.347c-6.008,0-10.879-4.871-10.879-10.879v-33.969h25.106v33.969
		C278.591,274.578,273.72,279.449,267.712,279.449z"/>
	<path id="XMLID_4_" style="fill:#DA88B4;" d="M388.972,262.459c-5.83-18.267-30.499-29.787-45.784-38.296
		c-8.121-4.514-34.122-19.582-42.911-26.148c-16.859-12.61-39.569-31.646-60.801-35.679c-9.421-1.772-21.142-2.216-30.598-0.576
		c-10.58,1.829-20.605,7.048-30.71,10.523c-16.139,5.54-29.689,6.894-46.665-0.446c-16.579-7.164-56.686-50.42-73.345-62.91
		c-5.612-4.207-13.677-12.407-33.052-12.407C11.24,96.52,0,104.95,0,115.349c0,10.399,11.24,18.829,25.106,18.829
		c23.35,0,35.309,8.306,40.087,12.553c22.595,20.085,38.149,49.761,44.052,57.941c22.776,31.562,42.089,48.068,53.267,47.898
		c5.735-0.076,59.081-4.394,65.313-2.285c3.466,1.146,20.539-1.246,24.644-1.246c2.959,0,14.059,0.838,21.845-1.21
		c27.13-7.136,72.909-0.038,79.866,3.874c7.117,4.004,16.362,12.106,9.336,20.612c-5.811,7.032-14.19,7.901-22.626,7.901
		c-15.042,0-29.18-4.401-43.616-7.1c-4.672-0.874-8.395,3.884-6.441,8.217c0.624,1.384,1.746,2.506,3.167,3.041
		c3.789,1.426,7.868,2.012,11.704,3.114c5.332,1.536,11.03,2.257,16.494,3.173c11.118,1.857,22.186,3.107,33.474,3.075
		C373.129,293.735,395.931,284.238,388.972,262.459z"/>
	<path id="XMLID_5_" style="fill:#D570A7;" d="M388.972,262.459c-5.83-18.267-30.499-29.787-45.784-38.296
		c-8.121-4.514-34.122-19.582-42.911-26.148c-16.859-12.61-39.569-31.646-60.801-35.679c-9.421-1.772-21.142-2.216-30.598-0.576
		c-4.673,0.808-9.239,2.278-13.75,3.966V250.6c14.784-0.821,29.591-1.366,32.697-0.315c3.466,1.146,20.539-1.246,24.644-1.246
		c2.959,0,14.059,0.838,21.845-1.21c27.13-7.136,72.909-0.038,79.866,3.874c7.117,4.004,16.362,12.106,9.336,20.611
		c-5.811,7.032-14.19,7.901-22.626,7.901c-15.042,0-29.18-4.401-43.616-7.1c-4.672-0.874-8.395,3.884-6.441,8.217
		c0.624,1.384,1.746,2.506,3.167,3.041c3.789,1.426,7.868,2.012,11.704,3.114c5.332,1.536,11.03,2.257,16.494,3.173
		c11.118,1.857,22.186,3.107,33.474,3.075C373.129,293.735,395.931,284.238,388.972,262.459z"/>
	<path id="XMLID_6_" style="fill:#D570A7;" d="M195.128,234.601v44.488c4.683-1.214,8.146-5.457,8.146-10.519v-33.969H195.128z"/>
	<circle id="XMLID_7_" style="fill:#272525;" cx="30.128" cy="110.128" r="5"/>
	<circle id="XMLID_8_" style="fill:#F6D563;" cx="245.128" cy="195.128" r="10"/>
	<circle id="XMLID_35_" style="fill:#FFE477;" cx="175.128" cy="205.128" r="10"/>
	<circle id="XMLID_9_" style="fill:#F6D563;" cx="215.128" cy="215.128" r="10"/>
	<circle id="XMLID_10_" style="fill:#F6D563;" cx="220.128" cy="190.128" r="5"/>
	<circle id="XMLID_11_" style="fill:#F6D563;" cx="240.128" cy="220.128" r="5"/>
	<circle id="XMLID_3_" style="fill:#FFE477;" cx="190.128" cy="230.128" r="5"/>
</g>
<g>
</g>
<g>
</g>
<g>
</g>
<g>
</g>
<g>
</g>
<g>
</g>
<g>
</g>
<g>
</g>
<g>
</g>
<g>
</g>
<g>
</g>
<g>
</g>
<g>
</g>
<g>
</g>
<g>
</g>
</svg>
