<?xml version="1.0" encoding="iso-8859-1"?>
<!-- Generator: Adobe Illustrator 19.0.0, SVG Export Plug-In . SVG Version: 6.00 Build 0)  -->
<svg version="1.1" id="Capa_1" xmlns="http://www.w3.org/2000/svg" xmlns:xlink="http://www.w3.org/1999/xlink" x="0px" y="0px"
	 viewBox="0 0 353.123 353.123" style="enable-background:new 0 0 353.123 353.123;" xml:space="preserve">
<g id="XMLID_463_">
	<path id="XMLID_464_" style="fill:#D570A7;" d="M104.581,57.7c4.223,21.21,10.669,46.599,20.944,69.996
		c5.562-2.582,13.012-11.275,10.552-16.799c-1.799-4.038-8.399-5.271-14.023-4.704c5.212-3.253,10.759-9.974,8.939-14.812
		c-1.724-4.585-9.539-6.081-15.514-5.385c5.299-3.049,10.975-9.372,9.418-14.222c-1.451-4.517-8.75-6.42-14.661-6.171
		c5.242-3.091,10.762-9.319,9.223-14.109c-1.451-4.516-8.749-6.42-14.66-6.171c5.242-3.091,10.761-9.318,9.222-14.109
		c-1.768-5.503-12.216-7.126-18.258-5.701C99.738,35.493,102.327,46.38,104.581,57.7z"/>
	<path id="XMLID_42_" style="fill:#DA88B4;" d="M133.291,303.471l-2.898-0.826c-5.201-1.482-8.216-6.9-6.734-12.101l11.585-51.057
		l21.733,6.193l-11.585,51.057C143.91,301.938,138.492,304.953,133.291,303.471z"/>
	<path id="XMLID_41_" style="fill:#DA88B4;" d="M163.564,303.709h-3.013c-5.408,0-9.792-4.384-9.792-9.792l3.205-52.228h22.598
		l-3.205,52.228C173.357,299.324,168.972,303.709,163.564,303.709z"/>
	<path id="XMLID_40_" style="fill:#D570A7;" d="M249.704,303.471l2.898-0.826c5.201-1.482,8.216-6.9,6.734-12.101l-11.585-51.057
		l-21.733,6.193l11.585,51.057C239.085,301.938,244.503,304.953,249.704,303.471z"/>
	<path id="XMLID_39_" style="fill:#D570A7;" d="M219.43,303.709h3.013c5.408,0,9.792-4.384,9.792-9.792l-3.205-52.228h-22.598
		l3.205,52.228C209.638,299.324,214.022,303.709,219.43,303.709z"/>
	<path id="XMLID_466_" style="fill:#DA88B4;" d="M286.793,238.75c-27.199-27.357-30.171-49.76-88.887-79.118
		c-36.069-18.034-64.83-21.45-72.108-41.205c-14.422-39.144-19.687-64.375-23.605-77.485c-1.183-4.131-4.209-33.439-38.202-31.894
		c-17.067,0-30.903,9.224-30.903,20.602s13.836,20.602,30.903,20.602c6.501,0,19.229,5.337,20.602,16.668
		c4.859,40.089,5.666,45.325,19.152,97.392c9.798,37.826,2.137,52.661,30.947,81.517c44.36,44.429,115.945,24.135,122.519,24.135
		c0.98-0.125,43.589,19.794,30.495,49.064c-11.181,24.994-115.189,9.073-134.451,6.551c-53.211-6.967,48.365,39.132,139.027,24.742
		C336.693,343.274,322.526,274.69,286.793,238.75z"/>
	<path id="XMLID_467_" style="fill:#D570A7;" d="M286.793,238.75c-27.199-27.357-30.171-49.76-88.887-79.118
		c-7.473-3.736-14.625-6.84-21.344-9.596v119.823c37.636,10.585,75.926,0.107,80.65,0.107c0.98-0.125,43.589,19.794,30.495,49.064
		c-8.708,19.465-73.712,14.115-111.146,9.604v14.248c30.189,7.904,74.1,14.048,115.721,7.442
		C336.693,343.274,322.526,274.69,286.793,238.75z"/>
	<path id="XMLID_36_" style="fill:#DA88B4;" d="M51.455,25.024l0.147-19.846c0.03-4.009,4.388-6.483,7.845-4.453l17.114,10.05
		L51.455,25.024z"/>
	<path id="XMLID_468_" d="M60.561,15.024c-3.309,0-6,2.691-6,6s2.691,6,6,6s6-2.691,6-6S63.87,15.024,60.561,15.024z"/>
	<circle id="XMLID_469_" style="fill:#98C79C;" cx="214.578" cy="217.007" r="8.017"/>
	<circle id="XMLID_470_" style="fill:#98C79C;" cx="223.646" cy="192.108" r="7.085"/>
	<circle id="XMLID_472_" style="fill:#98C79C;" cx="236.393" cy="215.214" r="9.695"/>
	<circle id="XMLID_473_" style="fill:#98C79C;" cx="196.866" cy="194.72" r="9.695"/>
</g>
<g>
</g>
<g>
</g>
<g>
</g>
<g>
</g>
<g>
</g>
<g>
</g>
<g>
</g>
<g>
</g>
<g>
</g>
<g>
</g>
<g>
</g>
<g>
</g>
<g>
</g>
<g>
</g>
<g>
</g>
</svg>
