<?xml version="1.0" encoding="iso-8859-1"?>
<!-- Generator: Adobe Illustrator 19.0.0, SVG Export Plug-In . SVG Version: 6.00 Build 0)  -->
<svg version="1.1" id="Capa_1" xmlns="http://www.w3.org/2000/svg" xmlns:xlink="http://www.w3.org/1999/xlink" x="0px" y="0px"
	 viewBox="0 0 359.158 359.158" style="enable-background:new 0 0 359.158 359.158;" xml:space="preserve">
<g id="XMLID_496_">
	<path id="XMLID_44_" style="fill:#F6E277;" d="M51.267,249.148L51.267,249.148c-5.301-5.591-5.066-14.421,0.525-19.722
		l24.695-23.415c0.745-0.707,1.923-0.675,2.63,0.07l16.638,17.547c0.707,0.745,0.675,1.923-0.07,2.63l-24.695,23.415
		C65.398,254.974,56.568,254.739,51.267,249.148z"/>
	<path id="XMLID_43_" style="fill:#F6E277;" d="M64.16,290.294L64.16,290.294c-5.301-5.591-5.066-14.421,0.525-19.722l24.695-23.415
		c0.745-0.707,1.923-0.675,2.63,0.07l16.638,17.547c0.707,0.745,0.675,1.923-0.07,2.63l-24.695,23.415
		C78.291,296.12,69.461,295.885,64.16,290.294z"/>
	<path id="XMLID_42_" style="fill:#F6E277;" d="M146.177,334.646h-3.553c-6.378,0-11.548-5.17-11.548-11.548v-75.59h26.65v75.59
		C157.726,329.476,152.555,334.646,146.177,334.646z"/>
	<path id="XMLID_41_" style="fill:#F6E277;" d="M115.771,325.365v-2.856c0-5.126,4.155-9.281,9.281-9.281h18.841
		c5.6,0,10.139,4.54,10.139,10.139v1.14c0,5.6-4.54,10.139-10.139,10.139h-18.841C119.926,334.646,115.771,330.491,115.771,325.365z
		"/>
	<path id="XMLID_497_" style="fill:#F6E277;" d="M182.508,287.039v26.189h-6.023c-5.126,0-9.281,4.155-9.281,9.281v2.856
		c0,5.126,4.155,9.281,9.281,9.281h17.572h1.269h2.284c6.378,0,11.548-5.17,11.548-11.548v-36.059H182.508z"/>
	<path id="XMLID_498_" style="fill:#F6E277;" d="M344.113,297.974c-28.185,4.383-62.059,38.48-85.229-52.116
		c-32.068-125.387-130.733-59.623-148.883-84.688c-39.844-55.024-16.997-90.317-3.962-99.101
		c16.37-11.032,4.785-39.756,3.118-37.423c-7.322,10.251-18.739,22.823-32.187,24.295C-1.713,57.552,0.488,86.066,0.001,113.784
		c-0.253,14.427,32.229,5.637,52.151,9.645c5.133,1.033-18.72,65.446,50.713,144.651c6.686,7.627,42.896,36.894,84.754,24.663
		c13.996-4.09,41.539-8.097,41.539-8.097c3.751,0.938,5.678,10.668,7.431,14.293c27.664,57.226,98.147,12.162,113.15,10.286
		C364.742,307.351,361.054,295.339,344.113,297.974z"/>
	<path id="XMLID_500_" style="fill:#DD916F;" d="M116.068,184.642c0,0-25.315-58.026,2.617-68.186
		c22.759-8.279,41.381,2.968,60.472,8.19c3.008,0.823-11.65,3.823-30,16.648c-24.557,17.163,0.664,53.352,0.664,53.352
		L116.068,184.642z"/>
	<circle id="XMLID_501_" cx="39.157" cy="75.398" r="9.249"/>
	<path id="XMLID_502_" style="fill:#F3D363;" d="M182.508,287.039v26.189h-3.35v21.419h14.898h1.269h2.284
		c6.378,0,11.548-5.17,11.548-11.548v-36.059H182.508z"/>
	<path id="XMLID_503_" style="fill:#F3D363;" d="M343.692,297.974c-28.185,4.383-62.059,38.48-85.229-52.116
		c-15.972-62.454-48.467-77.483-79.305-79.936v128.686c2.652-0.461,5.334-1.075,8.04-1.866c13.996-4.09,41.539-8.097,41.539-8.097
		c3.751,0.938,5.678,10.667,7.431,14.293c27.664,57.226,98.147,12.162,113.15,10.286
		C364.321,307.351,360.633,295.339,343.692,297.974z"/>
	<circle id="XMLID_34_" style="fill:#DD916F;" cx="184.158" cy="259.646" r="10"/>
	<circle id="XMLID_33_" style="fill:#DD916F;" cx="149.158" cy="264.646" r="15"/>
	<circle id="XMLID_32_" style="fill:#DD916F;" cx="134.158" cy="229.646" r="10"/>
	<path id="XMLID_504_" style="fill:#D98069;" d="M184.158,249.646c-1.824,0-3.528,0.496-5,1.349v17.303
		c1.472,0.853,3.176,1.349,5,1.349c5.523,0,10-4.477,10-10S189.681,249.646,184.158,249.646z"/>
</g>
<g>
</g>
<g>
</g>
<g>
</g>
<g>
</g>
<g>
</g>
<g>
</g>
<g>
</g>
<g>
</g>
<g>
</g>
<g>
</g>
<g>
</g>
<g>
</g>
<g>
</g>
<g>
</g>
<g>
</g>
</svg>
