<?xml version="1.0" encoding="iso-8859-1"?>
<!-- Generator: Adobe Illustrator 19.0.0, SVG Export Plug-In . SVG Version: 6.00 Build 0)  -->
<svg version="1.1" id="Capa_1" xmlns="http://www.w3.org/2000/svg" xmlns:xlink="http://www.w3.org/1999/xlink" x="0px" y="0px"
	 viewBox="0 0 365.064 365.064" style="enable-background:new 0 0 365.064 365.064;" xml:space="preserve">
<g id="XMLID_887_">
	<g id="XMLID_888_">
		<g id="XMLID_889_">
			<g id="XMLID_890_">
				<path id="XMLID_48_" style="fill:#DD916F;" d="M54.218,202.844c-0.557,1.347-5.896,13.451-21.69,23.686
					c-14.796,9.587-22.896,9.476-27.085,7.694c-4.543-1.933-6.658-7.179-4.727-11.721c1.691-3.977,6.196-3.582,10.002-5.263
					c26.178-11.558,19.287-27.072,19.438-27.412l7.545,6.185L54.218,202.844z"/>
			</g>
			<g id="XMLID_891_">
				<path id="XMLID_46_" style="fill:#DD916F;" d="M83.053,208.089c-0.184,1.476-2.168,14.829-14.946,29.167
					c-11.97,13.431-19.971,15.509-24.575,14.888c-4.993-0.675-8.491-5.266-7.818-10.258c0.59-4.371,5.13-5.199,8.421-7.88
					c22.639-18.445,9.206-31.175,9.262-31.549l11.557,3.373L83.053,208.089z"/>
			</g>
		</g>
		<path id="XMLID_892_" style="fill:#DD916F;" d="M84.155,240.987l21.159,38.561c0,0-10.932,7.229-16.947,10.58
			c-4.734,2.637-9.812,4.393-9.812,9.812v3.019c0,5.419,4.393,9.812,9.812,9.812h22.332l26.354-22.643l-14.145-49.141H84.155z"/>
		<path id="XMLID_42_" style="fill:#DD916F;" d="M131.453,241.631l30.052,34.149c0,0-8.515,9.964-13.373,14.843
			c-3.823,3.84-8.22,6.928-6.726,12.137l0.832,2.902c1.494,5.209,6.928,8.22,12.137,6.726l21.467-6.158l19.088-29.032
			l-27.147-43.335L131.453,241.631z"/>
		<path id="XMLID_41_" style="fill:#DD916F;" d="M184.151,263.068c11.192,1.751,22.949,2.782,53.098-14.978
			c5.296-3.12,11.234-7.569,16.748-10.56c9.335-5.127,21.644-8.501,31.924-11.037c8.865-2.133,18.708-3.795,27.895-3.925
			c127.672-1.802-18.023-23.536-62.211-20.914c-22.466,1.333-43.134-11.138-48.329-14.424c-10.595-5.297-34.045-25.097-44.457-30.83
			c-55.844-30.745-80.468,4.881-86.348-6.112c-9.116-17.043-2.525-53.327-3.326-65.176c-1.034-15.284-10.419-28.32-20.455-29.949
			C37.868,53.407,9.45,42.083,6.124,81.073C5.078,93.33,15.537,95.376,24.045,98.334c6.101,2.131,14.291,21.047,12.754,28.173
			c-19.447,90.119-3.47,78.127,38.265,110.14C102.204,257.466,178.751,262.23,184.151,263.068z"/>
		<polygon id="XMLID_893_" style="fill:#D87D60;" points="182.532,257.405 182.532,296.055 194.931,277.197 		"/>
		<path id="XMLID_894_" style="fill:#D87D60;" d="M251.604,201.653c-22.466,1.333-43.134-11.138-48.329-14.424
			c-4.974-2.487-12.781-8.17-20.743-14.094v89.746c0.755,0.076,1.31,0.138,1.619,0.186c11.192,1.751,22.949,2.782,53.098-14.978
			c5.296-3.12,11.234-7.569,16.748-10.56c9.335-5.127,21.645-8.501,31.924-11.037c8.865-2.133,18.708-3.795,27.895-3.925
			C441.487,220.765,295.793,199.031,251.604,201.653z"/>
		<circle id="XMLID_895_" style="fill:#FFE477;" cx="173.532" cy="206.667" r="9"/>
		<circle id="XMLID_37_" style="fill:#F6D563;" cx="198.532" cy="233.667" r="14"/>
		<circle id="XMLID_36_" style="fill:#FFE477;" cx="116.532" cy="185.667" r="14"/>
		<circle id="XMLID_35_" style="fill:#FFE477;" cx="131.532" cy="218.667" r="9"/>
		<circle id="XMLID_896_" style="fill:#FFE477;" cx="159.532" cy="234.667" r="11"/>
		<circle id="XMLID_897_" style="fill:#FFE477;" cx="149.532" cy="196.667" r="7"/>
	</g>
	<path id="XMLID_898_" d="M42.532,70.532c-3.309,0-6,2.691-6,6s2.691,6,6,6s6-2.691,6-6S45.841,70.532,42.532,70.532z"/>
</g>
<g>
</g>
<g>
</g>
<g>
</g>
<g>
</g>
<g>
</g>
<g>
</g>
<g>
</g>
<g>
</g>
<g>
</g>
<g>
</g>
<g>
</g>
<g>
</g>
<g>
</g>
<g>
</g>
<g>
</g>
</svg>
