<?xml version="1.0" encoding="iso-8859-1"?>
<!-- Generator: Adobe Illustrator 19.0.0, SVG Export Plug-In . SVG Version: 6.00 Build 0)  -->
<svg version="1.1" id="Capa_1" xmlns="http://www.w3.org/2000/svg" xmlns:xlink="http://www.w3.org/1999/xlink" x="0px" y="0px"
	 viewBox="0 0 380.279 380.279" style="enable-background:new 0 0 380.279 380.279;" xml:space="preserve">
<g id="XMLID_811_">
	<polygon id="XMLID_812_" style="fill:#F4D256;" points="173.111,132.548 162.586,100.158 190.139,80.139 217.692,100.158 
		207.168,132.548 	"/>
	<polygon id="XMLID_49_" style="fill:#EFC25B;" points="227.427,142.309 229.258,114.812 255.976,108.055 270.657,131.378 
		253.013,152.548 	"/>
	<polygon id="XMLID_48_" style="fill:#EFC25B;" points="277.905,182.548 297.427,173.48 294.836,152.111 273.712,147.972 
		263.248,166.783 	"/>
	<polygon id="XMLID_813_" style="fill:#EFC25B;" points="190.139,80.139 190.139,132.548 207.168,132.548 217.692,100.158 	"/>
	<polygon id="XMLID_46_" style="fill:#F4D256;" points="160.139,146.802 158.308,119.304 131.591,112.548 116.909,135.87 
		134.553,157.04 	"/>
	<polygon id="XMLID_45_" style="fill:#F4D256;" points="120.139,166.563 111.071,147.04 89.702,149.632 85.564,170.756 
		104.375,181.22 	"/>
	<path id="XMLID_44_" style="fill:#F6E277;" d="M125.185,299.706l-3.322-0.947c-5.964-1.7-9.42-7.912-7.721-13.875l13.283-58.541
		l24.919,7.101l-13.283,58.541C137.36,297.949,131.148,301.406,125.185,299.706z"/>
	<path id="XMLID_43_" style="fill:#F6E277;" d="M159.896,299.979h-3.455c-6.201,0-11.228-5.027-11.228-11.228l3.674-59.884h25.911
		l-3.674,59.884C171.124,294.953,166.097,299.979,159.896,299.979z"/>
	<path id="XMLID_42_" style="fill:#F3D363;" d="M258.663,299.706l3.322-0.947c5.964-1.7,9.42-7.912,7.721-13.875l-13.283-58.541
		l-24.919,7.101l13.283,58.541C246.487,297.949,252.7,301.406,258.663,299.706z"/>
	<path id="XMLID_41_" style="fill:#F3D363;" d="M223.952,299.979h3.455c6.201,0,11.228-5.027,11.228-11.228l-3.674-59.884h-25.911
		l3.674,59.884C212.724,294.953,217.751,299.979,223.952,299.979z"/>
	<path id="XMLID_40_" style="fill:#F6E277;" d="M36.054,156.13c18.848-12.106,24.725-32.709,26.763-15.991
		s21.921,60.105,37.32,43.286c21.014-22.952,58.282-54.759,92.68-53.286c83.987,3.598,97.649,93.086,180,60
		c12.917-5.19,12.735,12.106-30.565,34.589s-123.907,47.717-162.113,45.411s-64.721-23.301-80.003-34.831
		c-15.282-11.53-49.566-39.781-63.829-35.169c-14.263,4.612-21.807,17.595-30.818,0.58
		C-12.294,167.139,17.206,168.236,36.054,156.13z"/>
	<path id="XMLID_814_" d="M33.186,170.139c-3.309,0-6,2.691-6,6s2.691,6,6,6s6-2.691,6-6S36.495,170.139,33.186,170.139z"/>
	<path id="XMLID_815_" style="fill:#F3D363;" d="M372.816,190.139c-82.351,33.086-96.013-56.402-180-60
		c-0.89-0.038-1.783-0.041-2.677-0.035v140.07c40.93-1.772,112.294-24.771,152.113-45.447
		C385.552,202.245,385.733,184.95,372.816,190.139z"/>
	<circle id="XMLID_816_" style="fill:#98C79C;" cx="234.139" cy="186.139" r="16"/>
	<circle id="XMLID_817_" style="fill:#ABD1AD;" cx="186.139" cy="218.139" r="16"/>
	<circle id="XMLID_818_" style="fill:#ABD1AD;" cx="192.139" cy="180.139" r="8"/>
	<circle id="XMLID_819_" style="fill:#98C79C;" cx="226.139" cy="226.139" r="8"/>
	<circle id="XMLID_820_" style="fill:#98C79C;" cx="268.139" cy="208.139" r="8"/>
	<path id="XMLID_821_" style="fill:#98C79C;" d="M192.139,172.139c-0.692,0-1.36,0.097-2,0.262v15.476
		c0.64,0.165,1.308,0.262,2,0.262c4.418,0,8-3.582,8-8S196.558,172.139,192.139,172.139z"/>
	<path id="XMLID_822_" style="fill:#98C79C;" d="M190.139,202.664v30.951c6.897-1.779,12-8.023,12-15.476
		S197.036,204.442,190.139,202.664z"/>
</g>
<g>
</g>
<g>
</g>
<g>
</g>
<g>
</g>
<g>
</g>
<g>
</g>
<g>
</g>
<g>
</g>
<g>
</g>
<g>
</g>
<g>
</g>
<g>
</g>
<g>
</g>
<g>
</g>
<g>
</g>
</svg>
