<?xml version="1.0" encoding="iso-8859-1"?>
<!-- Generator: Adobe Illustrator 19.0.0, SVG Export Plug-In . SVG Version: 6.00 Build 0)  -->
<svg version="1.1" id="Capa_1" xmlns="http://www.w3.org/2000/svg" xmlns:xlink="http://www.w3.org/1999/xlink" x="0px" y="0px"
	 viewBox="0 0 329.923 329.923" style="enable-background:new 0 0 329.923 329.923;" xml:space="preserve">
<g id="XMLID_350_">
	<path id="XMLID_351_" style="fill:#FFE477;" d="M301.807,163.739C259.629,91.433,191.14,97.457,181.298,83.399
		c-22.45-32.068-5.117-55.401-55.45-79.068C83.572-15.547,36.688,39.213,20.62,43.23C9.037,46.126,5.135,73.647,17.912,76.431
		c2.603,0.567,36.074,0,36.074,0c5.523,0,5.34,6.492,0,7.9c-5.932,1.564-27.888,13.25-23.366,24.116
		c2.488,5.979,13.739,8.217,25.228,5.884c17.324-3.518,50-10,50-10s9.239,31.351,14.198,44.204L105.2,192.883
		c-2.888,6.484-1.915,26.153,6.539,27.04c11.905,1.249,22.227-6.667,18.227-30c-0.941-5.488,6.169-13.285,14.02-13.492
		c19.23-0.508,24.221,11.569,13.657,38.389c-6.719,17.059,5.193,32.822,16.343,41.611l-18.381,38.666
		c-6.483-2.015-13.619-4.842-21.619-8.666c-44.828-21.43-48-23-73.197-42.353c-14.424-11.079,11.723,27.037,53.197,52.353
		c30.905,18.865,66.5,45,147.652,27.986C305.151,315.294,343.985,236.044,301.807,163.739z M221.468,284.248
		c-11.484,6.699-21.593,12.423-33.931,14.245l25.001-21.991C223.388,278.509,229.239,279.715,221.468,284.248z"/>
	<path id="XMLID_440_" style="fill:#F6D563;" d="M301.807,163.739C259.629,91.433,191.14,97.457,181.298,83.399
		c-17.631-25.184-10.732-44.98-31.333-63.782v157.138c14.172,2.104,17.043,14.286,7.677,38.064
		c-6.719,17.059,5.193,32.822,16.343,41.611l-18.381,38.666c-1.824-0.567-3.707-1.206-5.64-1.906v23.579
		c25.47,11.542,58.958,18.699,111.672,7.647C305.151,315.294,343.985,236.044,301.807,163.739z M221.468,284.247
		c-11.484,6.699-21.593,12.423-33.931,14.245l25.001-21.991C223.388,278.509,229.239,279.715,221.468,284.247z"/>
	<circle id="XMLID_36_" style="fill:#DF936F;" cx="224.655" cy="148.145" r="10"/>
	<circle id="XMLID_35_" style="fill:#DF936F;" cx="259.966" cy="149.923" r="15"/>
	<circle id="XMLID_34_" style="fill:#DF936F;" cx="284.966" cy="204.923" r="15"/>
	<circle id="XMLID_33_" style="fill:#DF936F;" cx="249.966" cy="189.923" r="10"/>
	<path id="XMLID_32_" style="fill:#FFE477;" d="M144.809,313.656l-20.944-10.472c-5.76-2.88-8.116-9.949-5.236-15.708l0,0
		c2.88-5.76,9.949-8.116,15.708-5.236l20.944,10.472c5.76,2.88,8.116,9.949,5.236,15.708v0
		C157.638,314.179,150.569,316.536,144.809,313.656z"/>
	<circle id="XMLID_444_" style="fill:#272525;" cx="65.856" cy="39.293" r="10"/>
</g>
<g>
</g>
<g>
</g>
<g>
</g>
<g>
</g>
<g>
</g>
<g>
</g>
<g>
</g>
<g>
</g>
<g>
</g>
<g>
</g>
<g>
</g>
<g>
</g>
<g>
</g>
<g>
</g>
<g>
</g>
</svg>
