<?xml version="1.0" encoding="utf-8"?>
<!-- Generator: Adobe Illustrator 25.0.0, SVG Export Plug-In . SVG Version: 6.00 Build 0)  -->
<svg version="1.1" xmlns="http://www.w3.org/2000/svg" xmlns:xlink="http://www.w3.org/1999/xlink" x="0px" y="0px"
	 viewBox="150 370 780 1200" style="enable-background:new 0 0 1080 1920;" xml:space="preserve">
<style type="text/css">
	.dino2-style0{fill:none;}
	.dino2-style1{fill:url(#SVGID_1_);}
	.dino2-style2{fill:#FFFFFF;}
	.dino2-style3{fill:url(#SVGID_2_);}
	.dino2-style4{fill:url(#SVGID_3_);}
	.dino2-style5{fill:url(#SVGID_4_);}
	.dino2-style6{fill:url(#SVGID_5_);}
	.dino2-style7{fill:url(#SVGID_6_);}
	.dino2-style8{fill:url(#SVGID_7_);}
	.dino2-style9{fill:url(#SVGID_8_);}
	.dino2-style10{fill:url(#SVGID_9_);}
	.dino2-style11{fill:url(#SVGID_10_);}
	.dino2-style12{fill:url(#SVGID_11_);}
	.dino2-style13{fill:url(#SVGID_12_);}
	.dino2-style14{fill:url(#SVGID_13_);}
	.dino2-style15{fill:url(#SVGID_14_);}
	.dino2-style16{fill:url(#SVGID_15_);}
	.dino2-style17{fill:url(#SVGID_16_);}
	.dino2-style18{fill:url(#SVGID_17_);}
	.dino2-style19{fill:url(#SVGID_18_);}
	.dino2-style20{fill:url(#SVGID_19_);}
	.dino2-style21{fill:url(#SVGID_20_);}
	.dino2-style22{fill:url(#SVGID_21_);}
	.dino2-style23{fill:url(#SVGID_22_);}
	.dino2-style24{fill:url(#SVGID_23_);}
	.dino2-style25{fill:url(#SVGID_24_);}
	.dino2-style26{fill:url(#SVGID_25_);}
	.dino2-style27{fill:url(#SVGID_26_);}
	.dino2-style28{fill:url(#SVGID_27_);}
	.dino2-style29{fill:url(#SVGID_28_);}
	.dino2-style30{fill:url(#SVGID_29_);}
	.dino2-style31{fill:url(#SVGID_30_);}
	.dino2-style32{fill:url(#SVGID_31_);}
	.dino2-style33{fill:url(#SVGID_32_);}
	.dino2-style34{fill:url(#SVGID_33_);}
	.dino2-style35{fill:url(#SVGID_34_);}
	.dino2-style36{fill:url(#SVGID_35_);}
	.dino2-style37{fill:url(#SVGID_36_);}
	.dino2-style38{fill:url(#SVGID_37_);}
	.dino2-style39{fill:url(#SVGID_38_);}
	.dino2-style40{fill:url(#SVGID_39_);}
	.dino2-style41{fill:url(#SVGID_40_);}
	.dino2-style42{fill:url(#SVGID_41_);}
	.dino2-style43{fill:url(#SVGID_42_);}
	.dino2-style44{fill:url(#SVGID_43_);}
	.dino2-style45{fill:url(#SVGID_44_);}
	.dino2-style46{fill:url(#SVGID_45_);}
	.dino2-style47{fill:url(#SVGID_46_);}
	.dino2-style48{fill:url(#SVGID_47_);}
	.dino2-style49{fill:url(#SVGID_48_);}
	.dino2-style50{fill:url(#SVGID_49_);}
	.dino2-style51{fill:url(#SVGID_50_);}
	.dino2-style52{fill:url(#SVGID_51_);}
	.dino2-style53{fill:url(#SVGID_52_);}
	.dino2-style54{fill:url(#SVGID_53_);}
	.dino2-style55{fill:url(#SVGID_54_);}
	.dino2-style56{fill:url(#SVGID_55_);}
	.dino2-style57{fill:url(#SVGID_56_);}
	.dino2-style58{fill:url(#SVGID_57_);}
	.dino2-style59{fill:url(#SVGID_58_);}
	.dino2-style60{fill:url(#SVGID_59_);}
	.dino2-style61{fill:url(#SVGID_60_);}
	.dino2-style62{fill:url(#SVGID_61_);}
	.dino2-style63{fill:url(#SVGID_62_);}
	.dino2-style64{fill:url(#SVGID_63_);}
	.dino2-style65{fill:url(#SVGID_64_);}
	.dino2-style66{fill:url(#SVGID_65_);}
	.dino2-style67{fill:url(#SVGID_66_);}
	.dino2-style68{fill:url(#SVGID_67_);}
	.dino2-style69{fill:url(#SVGID_68_);}
	.dino2-style70{fill:url(#SVGID_69_);}
	.dino2-style71{fill:url(#SVGID_70_);}
	.dino2-style72{fill:url(#SVGID_71_);}
	.dino2-style73{fill:url(#SVGID_72_);}
	.dino2-style74{fill:url(#SVGID_73_);}
	.dino2-style75{fill:url(#SVGID_74_);}
	.dino2-style76{fill:url(#SVGID_75_);}
	.dino2-style77{fill:url(#SVGID_76_);}
	.dino2-style78{fill:url(#SVGID_77_);}
	.dino2-style79{fill:url(#SVGID_78_);}
	.dino2-style80{fill:url(#SVGID_79_);}
	.dino2-style81{fill:url(#SVGID_80_);}
	.dino2-style82{fill:url(#SVGID_81_);}
	.dino2-style83{fill:url(#SVGID_82_);}
	.dino2-style84{fill:url(#SVGID_83_);}
	.dino2-style85{fill: #FFAFCC;}
	.dino2-style86{fill: #e67ca3;}
	.dino2-style87{fill:#279c92;}
	.dino2-style88{fill:#FFFFFF;stroke:#3E6D51;stroke-width:2;stroke-miterlimit:10;}
	.dino2-style89{clip-path:url(#SVGID_85_);}
	.dino2-style90{clip-path:url(#SVGID_85_);fill:#FFFFFF;}
	.dino2-style91{clip-path:url(#SVGID_87_);}
	.dino2-style92{clip-path:url(#SVGID_87_);fill:#FFFFFF;}
	.dino2-style93{fill:#af758a;}
	.dino2-style94{opacity:0.35;fill:#F2F9D9;}
	.dino2-style95{opacity:0.4;}
	.dino2-style96{fill:#A3B5C9;}
	.dino2-style97{clip-path:url(#SVGID_89_);}
	.dino2-style98{clip-path:url(#SVGID_89_);fill:#FFFFFF;}
	.dino2-style99{clip-path:url(#SVGID_91_);}
	.dino2-style100{clip-path:url(#SVGID_91_);fill:#FFFFFF;}
	.dino2-style101{clip-path:url(#SVGID_93_);}
	.dino2-style102{clip-path:url(#SVGID_93_);fill:#FFFFFF;}
	.dino2-style103{clip-path:url(#SVGID_95_);}
	.dino2-style104{clip-path:url(#SVGID_95_);fill:#FFFFFF;}
	.dino2-style105{fill:#CAE2FF;}
	.dino2-style106{fill:none;stroke:#F7263A;stroke-width:6;stroke-linecap:round;stroke-linejoin:round;stroke-miterlimit:10;}
	.dino2-style107{clip-path:url(#SVGID_97_);}
	.dino2-style108{clip-path:url(#SVGID_97_);fill:#FFFFFF;}
	.dino2-style109{clip-path:url(#SVGID_99_);}
	.dino2-style110{clip-path:url(#SVGID_99_);fill:#FFFFFF;}
	.dino2-style111{clip-path:url(#SVGID_101_);}
	.dino2-style112{clip-path:url(#SVGID_101_);fill:#FFFFFF;}
	.dino2-style113{clip-path:url(#SVGID_103_);}
	.dino2-style114{clip-path:url(#SVGID_103_);fill:#FFFFFF;}
	.dino2-style115{clip-path:url(#SVGID_105_);}
	.dino2-style116{clip-path:url(#SVGID_105_);fill:#FFFFFF;}
	.dino2-style117{clip-path:url(#SVGID_107_);}
	.dino2-style118{clip-path:url(#SVGID_107_);fill:#FFFFFF;}
	.dino2-style119{clip-path:url(#SVGID_109_);}
	.dino2-style120{clip-path:url(#SVGID_109_);fill:#FFFFFF;}
	.dino2-style121{clip-path:url(#SVGID_111_);}
	.dino2-style122{clip-path:url(#SVGID_111_);fill:#FFFFFF;}
	.dino2-style123{fill:#3E6D51;}
	.dino2-style124{fill:#F9E178;}
	.dino2-style125{fill:#FFC0DA;}
	.dino2-style126{fill:#FFCCE3;}
	.dino2-style127{fill:#F7B0D0;}
	.dino2-style128{fill:#F7D02D;}
	.dino2-style129{fill:#F7D548;}
	.dino2-style130{fill:#A54830;}
	.dino2-style131{opacity:0.13;fill:#491913;}
	.dino2-style132{fill:#B55848;}
	.dino2-style133{fill:#F0F6F7;}
	.dino2-style134{opacity:0.2;}
	.dino2-style135{fill:#D3D3D3;}
	.dino2-style136{fill:#FF6F48;}
	.dino2-style137{opacity:0.24;fill:url(#SVGID_112_);}
	.dino2-style138{opacity:0.38;fill:#AD5225;}
	.dino2-style139{fill:#4848D3;}
	.dino2-style140{clip-path:url(#SVGID_114_);fill:#F4E49F;}
	.dino2-style141{opacity:0.64;fill:#1D1D96;}
</style>
<g id="dino2">
	<g>
		<g>
			<path class="dino2-style85" d="M726.53,1384.97c15.42-13.5,39.09-13.79,52.92-6c26.13,14.73,36.15,69.07,14.85,132
				c10.74,2.16,16.61,9.24,15.78,14c-0.77,4.47-7.4,6.69-8.36,7c-29.09,0-58.18,0-87.26,0c-12.75-48.61-9.35-85.83-5.57-107
				C712.89,1402.58,718.41,1392.08,726.53,1384.97z"/>
			<path class="dino2-style86" d="M732.75,989.29c36.36,23.14,67.72,34.02,89.4,39.68c34.07,8.89,64,10.05,80,34c2.03,3.04,11.93,18.56,6,27
				c-4.8,6.83-18.77,8-33.82,1.12c2.39,4.35,2.41,9.31,0,12.87c-2.77,4.07-7.59,4.62-8.19,4.68c-8.44,0.82-15.82-8.51-17.55-10.53
				c-7.26-8.51-28.1-20.9-88.93-37.44"/>
			<g>
				<path class="dino2-style87" d="M704.66,475.47c32.81-20.55,65.62-41.09,98.43-61.64c2.71-10.54-4.47-22.6-15.02-25.25
					c-10.56-2.65-22.57,4.58-25.17,15.15c-13.27-10.69-30.67-13.92-44.73-7.76c-19.44,8.51-30.3,34-21.5,58.5
					c-18.33-5.54-37.4,3.1-44.5,18.5c-8.27,17.94,1.22,41.79,22.5,49.5c-16.97-3.49-34.32,2.47-44.5,15.5
					c-12.93,16.54-11.21,40.49,0.98,54.68c6.7,7.79,15.13,10.98,19.76,12.32c-18.23,4.73-33.31,20.85-36.03,39.6
					c-3.05,21.03,9.76,43.32,29.46,51.28c-21.08,3.93-37.74,19.41-42.18,39.12c-3.68,16.36,1.38,34.21,13,46
					c6.31,6.4,13.18,9.63,17.55,11.26c-24.42,8.42-41.28,30.24-42.55,54.74c-1.62,31.31,23.06,50.44,25.13,51.99
					c-3.13-0.05-21.87-0.02-36.13,15.01c-0.79,0.83-17,18.51-12.25,42.63c2.36,11.99,8.81,20.03,12.15,23.65
					c-17.17-3.73-37.47,6.08-46.78,21.95c-10.23,17.43-9.95,38.95-5,58.8c-4.05-0.42-24.35-2.1-40.11,11.97
					c-16.59,14.8-21.36,40.98-10.86,64.45c-27.51,7.34-46.8,29.74-48.14,54.55c-1.3,24.13,14.91,40.91,18,44
					c-19.44,0.11-36.86,11.64-44,29c-8.01,19.49-1.56,42.71,16,56c-20.41-2.25-40.23,8.07-50,26c-9.97,18.3-7.59,41.05,6,57
					c-3.41-1.49-27.34-11.47-53,1c-26.73,12.99-33.23,39.61-34,43c-2.84-1.66-27.75-15.62-56-4c-26.37,10.85-34.84,35.44-36,39
					c11.1-1.77,28.64-4.72,50-9c113.48-22.74,225.05-45.1,239.5-102.5c2.34-9.3,3.52-25.04-8-48c17-28.67,34-57.33,51-86
					c18-18.67,36-37.33,54-56c11-22,22-44,33-66c12.67-31,25.33-62,38-93c-1.67-36.67-3.33-73.33-5-110c3-37.67,6-75.33,9-113
					c7.33-54.67,14.67-109.33,22-164c0-9.33,0-18.67,0-28C687.32,563.47,695.99,519.47,704.66,475.47z"/>
			</g>
			<path class="dino2-style85" d="M894.16,546.97c-4.85,30.04-27.86,49.38-39.57,57.65c-1.29,0.92-2.45,1.7-3.43,2.35
				c-5.54,1.2-14.62,2.43-25.5,0.5c-1.74-0.31-3.4-0.67-4.98-1.09c-0.47-0.12-0.93-0.24-1.38-0.37c-2.13-0.6-4.11-1.27-5.93-1.97
				c-1.27-0.49-2.45-1-3.56-1.51c-1.79-0.82-4.01-2.27-4.15-2.06c-0.09,0.13,0.87,0.72,2.35,1.67c0.02,0.02,0.04,0.03,0.07,0.05
				c4.42,2.86,13.34,8.89,13.08,15.78c-0.01,0.17-0.21,4.12-3,6c-2.23,1.51-5.14,1.03-8.84-0.41c-2.89-1.12-6.26-2.81-10.16-4.59
				c-12.11-5.52-19.19-8.96-25-9c-4.14-0.03-9.57,1.25-16.5,7.16c-4.25,3.62-9.07,8.98-14.5,16.84c-0.25,0.36-0.5,0.73-0.76,1.11
				c-0.17,0.25-0.33,0.49-0.5,0.74c-6.59,9.82-11.62,19.54-15.46,28.58c-0.08,0.19-0.16,0.39-0.24,0.58
				c-11.12,26.45-12.04,46.99-12.04,46.99c-6.7,40.44-3.73,70.33,1,118c1.69,17.01,4.36,36.74,11.86,60.39
				c0.82,2.56,2.96,8.12,6.87,18.57c0.68,1.79,1.43,3.78,2.27,6.04c18.62,49.94,35.11,86.2,37.5,91.5
				c30.34,67.29,142.42,315.8,52.5,421.5c-23.17,27.23-56.18,40.8-81,51c-55.15,22.66-106.78,20.78-130.44,19.9
				c-3.2-0.12-0.76-0.07-14.52-0.84c-0.34-0.02-0.68-0.04-1.04-0.06c-75.08-4.17-88.48-2.5-108-11c-8.77-3.82-21.57-10.91-35-25
				c-31.27,28.12-59.56,36.81-76,40c-20.9,4.06-44.81,3.55-74.43,2.92c-15.77-0.33-19.3-1.28-32.07-1.42
				c-67.48-0.73-100.74,10.55-103.5,2.5c-3.18-9.27,36.79-36.3,80-51c43.69-14.86,59.75-6.78,90-24c23.79-13.54,36.37-31.35,52-54
				c37.82-54.82,31.21-113.11,71-199c9.38-20.25,24.58-52.78,49.5-92.5c17.92-28.56,26.81-38.14,47-71
				c17.76-28.91,32.27-52.53,44-79c22.3-50.31,26.4-93.45,34-170c0.89-8.96,0.64-7.71,8.5-95.5c1.01-11.29,2.59-28.82,5-52
				c2.31-22.17,4.48-40.8,5-45c1.37-11.02,19.44-144.4,93.5-167.5c4.93-1.54,25.31-7.68,45,1c26.67,11.76,42.8,45.89,42.64,88.14
				c0,1.98-0.04,3.98-0.13,6.01c0,0.12-0.01,0.23-0.01,0.35c5.35-0.16,13.36-0.12,23,1c14.45,1.68,21.78,2.39,27,7
				C898.66,519.12,895.31,539.83,894.16,546.97z"/>
			<g>
				
					<ellipse transform="matrix(0.9984 -0.0563 0.0563 0.9984 -25.3816 45.1596)" class="dino2-style88" cx="788.66" cy="472.97" rx="17.8" ry="27"/>
				<g>
					<defs>
						
							<ellipse id="SVGID_84_" transform="matrix(0.9984 -0.0563 0.0563 0.9984 -25.3816 45.1596)" cx="788.66" cy="472.97" rx="17.8" ry="27"/>
					</defs>
					<clipPath id="SVGID_85_">
						<use xlink:href="#SVGID_84_"  style="overflow:visible;"/>
					</clipPath>
					<g class="dino2-style89">
						<ellipse transform="matrix(0.9984 -0.0563 0.0563 0.9984 -26.2493 45.2614)" cx="790.03" cy="488.42" rx="18" ry="24.5"/>
					</g>
					
						<ellipse transform="matrix(0.9984 -0.0563 0.0563 0.9984 -25.3426 44.6193)" class="dino2-style90" cx="779.09" cy="472.01" rx="5" ry="5.5"/>
				</g>
			</g>
			<g>
				
					<ellipse transform="matrix(0.0558 -0.9984 0.9984 0.0558 338.1365 1301.1849)" class="dino2-style88" cx="857.04" cy="471.81" rx="23.2" ry="15.29"/>
				<g>
					<defs>
						
							<ellipse id="SVGID_86_" transform="matrix(0.0558 -0.9984 0.9984 0.0558 338.1365 1301.1849)" cx="857.04" cy="471.81" rx="23.2" ry="15.29"/>
					</defs>
					<clipPath id="SVGID_87_">
						<use xlink:href="#SVGID_86_"  style="overflow:visible;"/>
					</clipPath>
					<g class="dino2-style91">
						
							<ellipse transform="matrix(0.0558 -0.9984 0.9984 0.0558 324.537 1313.4512)" cx="856.72" cy="485.13" rx="21.05" ry="15.47"/>
					</g>
					
						<ellipse transform="matrix(0.0558 -0.9984 0.9984 0.0558 335.2836 1291.949)" class="dino2-style92" cx="850.73" cy="468.7" rx="4.73" ry="4.3"/>
				</g>
			</g>
			<path class="dino2-style93" d="M774.89,422.49c-8.1,3.78-12.74,13.65-10.69,16.04c1.99,2.33,10.6-2.03,19.25-6.42
				c7.09-3.59,10.98-5.56,10.69-7.49C793.7,421.62,783.1,418.66,774.89,422.49z"/>
			<path class="dino2-style93" d="M864.72,420.51c7.99,2.45,13.57,10.99,11.98,13.47c-1.54,2.41-10.08-0.51-18.66-3.45
				c-7.03-2.41-10.89-3.73-10.87-5.55C847.19,422.15,856.62,418.03,864.72,420.51z"/>
			
				<ellipse transform="matrix(0.9188 -0.3948 0.3948 0.9188 -140.6811 380.2647)" class="dino2-style93" cx="853.66" cy="531.97" rx="4.01" ry="6.24"/>
			
				<ellipse transform="matrix(0.2245 -0.9745 0.9745 0.2245 166.4697 1269.132)" class="dino2-style93" cx="880.66" cy="529.97" rx="5.72" ry="3.68"/>
			<g>
				<path class="dino2-style93" d="M837.3,494.61c0,1.98-0.04,3.98-0.13,6.01c-7.91,0.1-15.79,0.89-23.57,2.38
					c-1.59,0.31-3.23-0.43-3.69-2.09c-0.4-1.48,0.51-3.38,2.1-3.69C820.35,495.61,828.81,494.72,837.3,494.61z"/>
			</g>
			<path class="dino2-style94" d="M826.16,1427.97c-23.17,27.23-56.18,40.8-81,51c-55.15,22.66-106.78,20.78-130.44,19.9
				c-3.2-0.12-0.76-0.07-14.52-0.84c-27.6-57.5-37.53-133.48-35.04-187.06c4.04-87.07,44.84-200.81,71-249
				c4.33-7.98,19.48-34.81,31-74c7.01-23.84,10.17-43.73,12-58c8.83-68.99,2.37-131.09,1-159c-2.21-45.18,3.56-110.16,41-193
				c3.5,7.19,10.14,18.73,22,29c4.99,4.32,10.02,7.65,14.5,10.16c-4.25,3.62-9.07,8.98-14.5,16.84c-0.25,0.36-0.5,0.73-0.76,1.11
				c-0.17,0.24-0.33,0.49-0.5,0.74c-4.22,6.21-10.07,15.51-15.46,28.58c-0.08,0.19-0.16,0.39-0.24,0.58
				c-4.99,12.23-9.56,27.71-12.04,46.99c-6.7,40.44-3.73,70.33,1,118c1.69,17.01,4.36,36.74,11.86,60.39
				c1.09,4.28,2.13,6.1,6.87,18.57c0.68,1.79,1.43,3.78,2.27,6.04c18.62,49.94,35.11,86.2,37.5,91.5
				C804,1073.76,916.08,1322.27,826.16,1427.97z"/>
			<path class="dino2-style93" d="M821.16,617.97c-0.01,0.17-0.21,4.12-3,6c-2.23,1.51-5.14,1.03-8.84-0.41
				c-10.7-6.98-24.83-25.25-33.16-38.59c-7.91-12.67-13.29-25.21-12-26c1.58-0.97,8.66,18.52,29,32
				c12.17,8.07,22.56,9.66,27.52,15.41c-4.2-1.07-7.84-2.46-10.87-3.85c-1.79-0.82-4.01-2.27-4.15-2.06
				C805.3,601,821.51,608.72,821.16,617.97z"/>
			<path class="dino2-style86" d="M624.98,923.36c-14.34,0.11-17.02,29.01-47.73,97.29c-20.35,45.25-32.32,61.92-24.74,84.2
				c0.8,2.36,8.47,23.77,29.79,31.9c10.76,4.1,29.37,6.48,39.26-3.19c11.35-11.11,6.52-33.54,12.73-34.52
				c3.26-0.51,5.27,5.55,9.24,4.95c4.59-0.69,7.57-9.66,8-16.98c0.54-9.12-2.81-16.71-4.83-20.49c-0.65-1.22-1.18-2.08-1.31-2.28
				c-8.11-13.36,15.94-68.47,7.5-104.75C649.05,942.99,636.85,923.27,624.98,923.36z"/>
			<path class="dino2-style93" d="M845.31,604.55c-1.44-0.09-2.86-0.23-4.28-0.41c0,0-0.44-0.05-0.63-0.08c-0.38-0.06-0.75-0.12-1.12-0.18
				c-0.83-0.13-1.65-0.28-2.47-0.44c-3.05-0.59-6.06-1.37-9.02-2.33c-3.24-1.04-5.56-1.97-8.22-3.23c-0.12-0.06-0.24-0.09-0.37-0.14
				c-0.1-0.05-0.2-0.11-0.3-0.16c-0.24-0.11-0.48-0.22-0.72-0.33c-0.01,0-0.2-0.09-0.38-0.17c0,0-0.01-0.01-0.04-0.02
				c-0.04-0.02-0.08-0.04-0.11-0.05c-0.02-0.01-0.05-0.02-0.08-0.04c0,0,0,0-0.01,0c0-0.01,0-0.01-0.01-0.01s-0.02-0.01-0.03-0.01
				c-0.01-0.01-0.02-0.01-0.02-0.01s-0.01,0-0.01-0.01c0,0-0.01,0-0.02-0.01c-0.01,0-0.01,0-0.01,0c-0.08-0.04-0.16-0.08-0.19-0.1
				c-0.24-0.11-0.48-0.23-0.72-0.34c-1.06-0.52-2.12-1.06-3.17-1.62c-2.04-1.08-4.05-2.23-6.02-3.43c-3.88-2.38-7.62-4.99-11.2-7.81
				c-0.82-0.64-1.64-1.31-2.44-1.98c-0.01-0.02-0.04-0.04-0.07-0.06c-0.03-0.02-0.07-0.05-0.1-0.08c-0.22-0.19-0.55-0.48-0.63-0.54
				c-0.5-0.44-0.99-0.87-1.48-1.31c-1.67-1.5-3.3-3.05-4.88-4.64c-3.26-3.28-6.32-6.75-9.16-10.4c-0.77-0.99-1.52-1.99-2.26-3
				c-0.13-0.2-0.27-0.38-0.41-0.57c0,0,0,0-0.01-0.01s-0.01-0.02-0.02-0.03c0-0.01-0.01-0.02-0.02-0.03c0-0.02-0.02-0.04-0.04-0.06
				c0-0.01-0.01-0.02-0.02-0.03c-0.02-0.03-0.04-0.07-0.07-0.11c-0.38-0.54-0.75-1.08-1.12-1.63c-0.65-0.96-1.29-1.94-1.9-2.92
				c6.52-2.7,13.78-5.93,16.55-12.77c0.88-2.19-0.69-5.06-2.91-5.66c-2.5-0.68-4.72,0.57-5.66,2.91c-0.03,0.07-0.04,0.11-0.06,0.16
				c-0.02,0.03-0.04,0.05-0.07,0.09c-0.13,0.18-0.25,0.36-0.37,0.55c-0.01,0-0.31,0.42-0.44,0.55c-0.26,0.26-0.53,0.51-0.8,0.74
				c-0.21,0.18-0.42,0.34-0.64,0.51c0.31-0.25-0.42,0.29-0.53,0.36c-0.64,0.4-1.29,0.77-1.96,1.12c-3.05,1.62-6.23,3.05-9.43,4.35
				c-0.42,0.17-0.83,0.34-1.25,0.5c-0.09,0.03-0.55,0.21-0.74,0.28c-0.79,0.29-1.58,0.57-2.38,0.83c-1.69,0.55-3.41,1.04-5.15,1.44
				c-1.65,0.38-3.33,0.68-5.01,0.89c-0.2,0.02-0.4,0.05-0.6,0.07c-0.43,0.03-0.86,0.06-1.29,0.08c-0.96,0.05-1.92,0.05-2.89,0.03
				c-2.35-0.05-4.69,1.85-4.68,4.31c0.01,2.4,1.79,4.63,4.31,4.68c5.99,0.13,11.79-0.99,17.42-2.79c0,0,0,0,0,0
				c9.59,15.65,22.8,29.05,38.36,38.82c2.18,1.37,4.41,2.66,6.68,3.87c0.02,0.02,0.04,0.03,0.07,0.05l4.62,1.57
				c0.22,0.09,0.44,0.17,0.66,0.26c0,0.01,0,0.01,0.01,0.02c0.2,0.08,0.4,0.15,0.6,0.22c0.15,0.06,0.31,0.11,0.46,0.17
				c0.63,0.23,1.29,0.46,1.96,0.68c0.23,0.08,0.47,0.15,0.7,0.23c0.72,0.23,1.45,0.45,2.21,0.67c0.45,0.13,0.91,0.25,1.38,0.37
				c1.58,0.42,3.24,0.78,4.98,1.09c10.88,1.93,19.96,0.7,25.5-0.5c0.98-0.65,2.14-1.43,3.43-2.35
				C851.5,604.78,848.39,604.76,845.31,604.55z"/>
			<path class="dino2-style85" d="M513.52,1332.14c22.43-18.36,56.86-18.75,76.97-8.16c38.01,20.02,52.58,93.89,21.6,179.44
				c15.62,2.94,24.15,12.56,22.95,19.03c-1.12,6.07-10.76,9.09-12.15,9.52c-42.31,0-84.62,0-126.92,0
				c-18.54-66.08-13.61-116.67-8.1-145.45C493.69,1356.08,501.72,1341.81,513.52,1332.14z"/>
			<g class="dino2-style95">
				<path class="dino2-style86" d="M812.08,512.2c0.23,1.92-4.37,4.04-10.26,4.75c-5.9,0.7-10.86-0.28-11.09-2.2
					c-0.23-1.92,4.37-4.04,10.26-4.75C806.89,509.29,811.85,510.28,812.08,512.2z"/>
				<ellipse class="dino2-style86" cx="835.16" cy="507.97" rx="5" ry="2"/>
				<ellipse class="dino2-style86" cx="777.16" cy="519.97" rx="5" ry="2"/>
				
					<ellipse transform="matrix(0.9984 -0.0563 0.0563 0.9984 -27.977 47.5647)" class="dino2-style86" cx="830.04" cy="520.23" rx="9.01" ry="2.25"/>
				<ellipse class="dino2-style86" cx="864.16" cy="507.97" rx="7" ry="2"/>
				<ellipse class="dino2-style86" cx="879.66" cy="516.97" rx="6.5" ry="2"/>
				
					<ellipse transform="matrix(0.1538 -0.9881 0.9881 0.1538 149.2205 1186.1825)" class="dino2-style86" cx="767.16" cy="505.97" rx="4" ry="10"/>
				
					<ellipse transform="matrix(0.338 -0.9412 0.9412 0.338 -782.4673 1238.5439)" class="dino2-style86" cx="489.16" cy="1175.47" rx="42.5" ry="10"/>
				
					<ellipse transform="matrix(0.338 -0.9412 0.9412 0.338 -880.4108 1252.4012)" class="dino2-style86" cx="450.03" cy="1252.02" rx="26.38" ry="6.21"/>
				
					<ellipse transform="matrix(0.338 -0.9412 0.9412 0.338 -847.252 1280.564)" class="dino2-style86" cx="486.63" cy="1242.53" rx="13.07" ry="6.31"/>
				
					<ellipse transform="matrix(0.6 -0.8 0.8 0.6 -634.5748 861.9353)" class="dino2-style86" cx="544.63" cy="1065.53" rx="13.07" ry="6.31"/>
				
					<ellipse transform="matrix(0.9915 -0.1305 0.1305 0.9915 -188.2686 49.5059)" class="dino2-style86" cx="283.66" cy="1461.47" rx="21.5" ry="7.5"/>
				
					<ellipse transform="matrix(0.9118 -0.4107 0.4107 0.9118 -588.5473 219.6894)" class="dino2-style86" cx="217.06" cy="1479.72" rx="15.8" ry="4.11"/>
				
					<ellipse transform="matrix(0.9774 -0.2112 0.2112 0.9774 -307.2705 86.3713)" class="dino2-style86" cx="250.66" cy="1481.47" rx="11.5" ry="4.5"/>
				
					<ellipse transform="matrix(0.7071 -0.7071 0.7071 0.7071 -876.7003 693.3979)" class="dino2-style86" cx="398.66" cy="1404.97" rx="24.5" ry="7"/>
				
					<ellipse transform="matrix(0.4272 -0.9042 0.9042 0.4272 -32.702 905.3208)" class="dino2-style86" cx="698.16" cy="478.47" rx="25.5" ry="7"/>
				
					<ellipse transform="matrix(0.2281 -0.9736 0.9736 0.2281 -42.8486 1092.4598)" class="dino2-style86" cx="667.54" cy="573.25" rx="15.64" ry="4.35"/>
				
					<ellipse transform="matrix(0.2281 -0.9736 0.9736 0.2281 14.6659 1059.5028)" class="dino2-style86" cx="675.52" cy="520.5" rx="7.87" ry="3.53"/>
			</g>
		</g>
		<g>
			<path class="dino2-style2" d="M681.14,757.85c-5.86-4.6-10.04-7.89-16-8c-5.4-0.1-9.24,2.47-16,7c-5.8,3.88-9.07,6.07-8.96,8.6
				c0.24,5.78,18.03,9.33,23.96,10.4c5.14-0.26,24.95-1.52,25.96-7.6C690.59,765.28,686.45,762.03,681.14,757.85z M648.64,767.45
				c-1.93,0-3.5-0.94-3.5-2.1s1.57-2.1,3.5-2.1s3.5,0.94,3.5,2.1S650.57,767.45,648.64,767.45z M655.64,762.45
				c-1.93,0-3.5-0.94-3.5-2.1s1.57-2.1,3.5-2.1s3.5,0.94,3.5,2.1S657.57,762.45,655.64,762.45z M672.14,761.35
				c0-1.16,1.57-2.1,3.5-2.1s3.5,0.94,3.5,2.1s-1.57,2.1-3.5,2.1S672.14,762.51,672.14,761.35z M680.64,769.45
				c-1.93,0-3.5-0.94-3.5-2.1s1.57-2.1,3.5-2.1s3.5,0.94,3.5,2.1S682.57,769.45,680.64,769.45z"/>
			<path class="dino2-style96" d="M658.14,780.85c2.36-8.58,4.72-17.17,7.08-25.75c0.97,8.58,1.95,17.17,2.92,25.75c-0.83,7.62-3.06,13-5,13
				S658.97,788.47,658.14,780.85z"/>
		</g>
	</g>
</g>
</svg>
