<svg xmlns="http://www.w3.org/2000/svg" viewBox="0 0 427.913 427.913"><path d="M406.406 203.592c-12.394-15.255-29.272-26.407-48.006-31.829-2.156-57.889-49.923-104.319-108.329-104.319-24.725 0-48.912 8.545-68.103 24.061-16.482 13.326-28.748 31.302-35.166 51.316a73.505 73.505 0 00-27.256-5.253c-40.308 0-73.134 32.649-73.418 72.892C18.327 223.07 0 251.153 0 281.979c0 43.28 35.211 78.491 78.491 78.491h253.183c53.067 0 96.24-43.173 96.239-96.239 0-22.034-7.638-43.569-21.507-60.639zM331.674 345.47H78.491C43.482 345.47 15 316.988 15 281.979c0-26.419 16.638-50.345 41.4-59.538a7.5 7.5 0 004.874-7.528 58.719 58.719 0 01-.148-3.926c0-32.213 26.207-58.42 58.42-58.42a58.387 58.387 0 0128.46 7.414 7.5 7.5 0 0010.977-4.885c4.607-20.309 16.119-38.749 32.416-51.925 16.531-13.366 37.368-20.726 58.672-20.726 51.504 0 93.405 41.901 93.405 93.405 0 .444-.009.886-.016 1.328l-.005.296a7.5 7.5 0 005.876 7.448c17.756 3.934 33.891 13.924 45.433 28.129 11.704 14.404 18.149 32.581 18.149 51.18 0 44.795-36.444 81.239-81.239 81.239z"/></svg>