<?xml version="1.0" encoding="iso-8859-1"?>
<!-- Generator: Adobe Illustrator 19.0.0, SVG Export Plug-In . SVG Version: 6.00 Build 0)  -->
<svg version="1.1" id="Layer_1" xmlns="http://www.w3.org/2000/svg" xmlns:xlink="http://www.w3.org/1999/xlink" x="0px" y="0px"
	 viewBox="0 0 427.913 427.913" style="enable-background:new 0 0 427.913 427.913;" xml:space="preserve">
<g>
	<g>
		<path d="M406.406,203.592c-12.394-15.255-29.272-26.407-48.006-31.829c-2.156-57.889-49.923-104.319-108.329-104.319
			c-24.725,0-48.912,8.545-68.103,24.061c-16.482,13.326-28.748,31.302-35.166,51.316c-8.635-3.453-17.907-5.253-27.256-5.253
			c-40.308,0-73.134,32.649-73.418,72.892C18.327,223.07,0,251.153,0,281.979c0,43.28,35.211,78.491,78.491,78.491h253.183
			c53.067,0,96.24-43.173,96.239-96.239C427.913,242.197,420.275,220.662,406.406,203.592z M331.674,345.47H78.491
			C43.482,345.47,15,316.988,15,281.979c0-26.419,16.638-50.345,41.4-59.538c3.112-1.155,5.094-4.217,4.874-7.528
			c-0.101-1.521-0.148-2.769-0.148-3.926c0-32.213,26.207-58.42,58.42-58.42c9.955,0,19.796,2.564,28.46,7.414
			c2.063,1.156,4.552,1.27,6.712,0.308c2.161-0.962,3.742-2.886,4.265-5.193c4.607-20.309,16.119-38.749,32.416-51.925
			c16.531-13.366,37.368-20.726,58.672-20.726c51.504,0,93.405,41.901,93.405,93.405c0,0.444-0.009,0.886-0.016,1.328l-0.005,0.296
			c-0.06,3.563,2.397,6.677,5.876,7.448c17.756,3.934,33.891,13.924,45.433,28.129c11.704,14.404,18.149,32.581,18.149,51.18
			C412.913,309.026,376.469,345.47,331.674,345.47z"/>
	</g>
</g>
<g>
</g>
<g>
</g>
<g>
</g>
<g>
</g>
<g>
</g>
<g>
</g>
<g>
</g>
<g>
</g>
<g>
</g>
<g>
</g>
<g>
</g>
<g>
</g>
<g>
</g>
<g>
</g>
<g>
</g>
</svg>
