<svg height="512" viewBox="0 0 512 512" width="512" xmlns="http://www.w3.org/2000/svg"><path d="M462.447 223.118a24.007 24.007 0 01-29.565-16.671 185.51 185.51 0 00-64.919-96.331 183.5 183.5 0 00-223.925 0 184.189 184.189 0 00-31.973 31.7l-18.928 5.567-2.962-53.331A231.385 231.385 0 01397.3 72.128a233.815 233.815 0 0181.814 121.425 24 24 0 01-16.667 29.565zm-51.585 141.5l-18.927 5.567a184.184 184.184 0 01-31.972 31.7 183.5 183.5 0 01-223.925 0 185.505 185.505 0 01-64.92-96.331 24 24 0 10-46.236 12.894A233.817 233.817 0 00106.7 439.872a230.981 230.981 0 00307.129-21.924zM62.771 223.024l136-40a24 24 0 10-13.543-46.048L78.282 168.43l-6.32-113.761a24 24 0 10-47.924 2.662l8 144a24 24 0 0030.734 21.693zm394.56 256.938a24 24 0 0022.631-25.294l-8-144a24 24 0 00-30.735-21.693l-135.995 40a24 24 0 0013.544 46.049l106.942-31.454 6.32 113.76A24 24 0 00455.979 480q.672 0 1.352-.038z"/></svg>