<svg id="Solid" height="512" viewBox="0 0 512 512" width="512" xmlns="http://www.w3.org/2000/svg"><path d="m462.447 223.118a24.007 24.007 0 0 1 -29.565-16.671 185.51 185.51 0 0 0 -64.919-96.331 183.5 183.5 0 0 0 -223.925 0 184.189 184.189 0 0 0 -31.973 31.7l-18.928 5.567-2.962-53.331a231.385 231.385 0 0 1 307.125-21.924 233.815 233.815 0 0 1 81.814 121.425 24 24 0 0 1 -16.667 29.565zm-51.585 141.5-18.927 5.567a184.184 184.184 0 0 1 -31.972 31.7 183.5 183.5 0 0 1 -223.925 0 185.505 185.505 0 0 1 -64.92-96.331 24 24 0 1 0 -46.236 12.894 233.817 233.817 0 0 0 81.818 121.424 230.981 230.981 0 0 0 307.129-21.924zm-348.091-141.594 136-40a24 24 0 1 0 -13.543-46.048l-106.946 31.454-6.32-113.761a24 24 0 1 0 -47.924 2.662l8 144a24 24 0 0 0 30.734 21.693zm394.56 256.938a24 24 0 0 0 22.631-25.294l-8-144a24 24 0 0 0 -30.735-21.693l-135.995 40a24 24 0 0 0 13.544 46.049l106.942-31.454 6.32 113.76a24 24 0 0 0 23.941 22.67q.672 0 1.352-.038z"/></svg>