<?xml version="1.0" encoding="iso-8859-1"?>
<!-- Generator: Adobe Illustrator 19.0.0, SVG Export Plug-In . SVG Version: 6.00 Build 0)  -->
<svg version="1.1" id="Capa_1" xmlns="http://www.w3.org/2000/svg" xmlns:xlink="http://www.w3.org/1999/xlink" x="0px" y="0px"
	 viewBox="0 0 511.998 511.998" style="enable-background:new 0 0 511.998 511.998;" xml:space="preserve">
<path style="fill:#FAE17C;" d="M214.996,456.019C16.052,491.338-0.974,341.337,5.61,264.213c0.574-6.722,7.076-11.318,13.582-9.532
	c14.135,3.881,27.486,10.313,35.245,17.379c1.919,1.747,4.953,0.098,4.528-2.462c-6.905-41.676-17.6-129.406,10.464-190.953
	c3.946-8.654,14.15-12.482,22.788-8.502c25.795,11.888,62.801,45.384,76.79,67.444c2.109,3.326,7.17,2.448,8.03-1.395
	c6.894-30.799,24.15-75.92,43.528-97.774c6.767-7.632,18.675-7.924,25.72-0.549c20.108,21.049,40.285,58.832,46.647,79.923
	c0.991,3.286,5.454,3.823,7.198,0.867c14.248-24.157,41.509-43.999,62.12-55.406c9.493-5.254,21.223,1.182,21.959,12.007
	c3.36,49.398,0.397,164.611-21.491,221.256c-1.284,3.323,2.293,6.443,5.415,4.726c14.819-8.153,43.727-21.203,73.501-18.792
	c4.665,0.378,8.881,2.918,11.564,6.753c41.309,59.026,46.167,150.195-77.826,171.228
	C324.042,469.14,285.983,443.417,214.996,456.019z"/>
<path style="opacity:0.05;enable-background:new    ;" d="M385.319,106.083c-4.083-0.687-8.267-1.057-12.529-1.057
	c-4.371,0-8.785,0.387-13.12,1.152l-25.169,4.438c-2.78,0.491-5.62,0.739-8.44,0.739c-6.352,0.001-12.602-1.278-18.399-3.653
	c-2.777,3.538-5.313,7.196-7.532,10.96c-1.744,2.957-6.206,2.42-7.198-0.867c-2.618-8.68-7.579-20.188-13.91-32.192
	C261.514,72.2,239.84,64.72,217.591,64.72c-5.001,0-10.027,0.399-14.986,1.144c-11.549,22.269-20.917,49.549-25.568,70.324
	c-0.861,3.845-5.924,4.723-8.034,1.396c-9.055-14.278-27.75-33.338-46.806-48.237c-10.626,7.195-19.956,16.346-27.537,27.172
	c-16.319,23.306-22.585,51.571-17.644,79.589l7.649,43.378c3.494,19.819,13.068,37.957,27.283,51.986
	c-8.15,13.699-12.747,28.926-13.464,44.699c-16.251,10.77-39.138,16.876-63.724,16.877c-7.026,0-14.253-0.489-21.481-1.454
	c-0.577-0.077-1.156-0.125-1.734-0.157c5.091,20.35,13.409,40.301,26.398,57.5c33.849,11.998,69.752,15.488,99.947,16.895
	c0.075,0.036,0.151,0.071,0.227,0.107c0.381,12.019,0.408,24.598,0.018,29.665c-0.123,1.598-0.128,3.187-0.019,4.757
	c18.764,1.752,40.06,1.154,64.2-2.307c0.132-3.885,0.287-11.575,0.245-20.647c1.433,0.019,2.877,0.028,4.33,0.028
	c3.121,0,6.182-0.042,9.167-0.127c0.105,7.996,0.025,14.863-0.239,18.295c-0.007,0.095-0.009,0.19-0.015,0.285
	c24.802-4.316,45.577-3.958,64.317-2.055c0.153-7.052,0.238-18.485-0.096-30.094c10.997-5.986,19.177-13.993,24.887-24.327
	c4.823-8.73,7.819-19.027,9.294-32.073c8.939-5.231,21.591-14.189,30.56-26.94c7.813-11.109,5.132-26.505-5.976-34.319
	c-4.172-2.935-9.068-4.486-14.159-4.486c-5.632,0-11.027,1.931-15.338,5.352c-1.053-2.799-2.238-5.551-3.556-8.256l59.958-10.572
	C381.397,239.824,385.944,159.457,385.319,106.083z"/>
<g>
	<path style="fill:#A3E3FF;" d="M448.273,110.501c-0.437,0-0.876-0.038-1.313-0.116l-23.859-4.242
		c-4.078-0.725-6.796-4.619-6.071-8.697c0.725-4.079,4.618-6.798,8.697-6.071l15.713,2.794l1.357-17.373
		c0.297-3.805,3.405-6.78,7.22-6.911l14.835-0.509l-1.413-10.42c-0.557-4.104,2.32-7.883,6.424-8.44
		c4.112-0.558,7.883,2.32,8.44,6.424l2.527,18.639c0.285,2.101-0.333,4.224-1.7,5.844c-1.367,1.621-3.356,2.586-5.475,2.659
		l-16.426,0.564l-1.48,18.939c-0.165,2.11-1.214,4.053-2.888,5.348C451.539,109.957,449.922,110.501,448.273,110.501z"/>
	<path style="fill:#A3E3FF;" d="M462.93,183.901c-0.865,0-1.746-0.151-2.604-0.469c-3.884-1.439-5.866-5.754-4.427-9.638
		l5.963-16.096c0.741-2.001,2.3-3.592,4.287-4.374c1.985-0.781,4.21-0.68,6.117,0.279l15.748,7.925l5.027-11.237
		c1.691-3.781,6.124-5.477,9.909-3.784c3.781,1.691,5.475,6.128,3.784,9.909l-8.232,18.403c-0.836,1.87-2.401,3.316-4.331,4.003
		c-1.929,0.686-4.056,0.555-5.886-0.366l-15.27-7.684l-3.05,8.232C468.843,182.029,465.977,183.901,462.93,183.901z"/>
	<path style="fill:#A3E3FF;" d="M482.56,267.888c-0.768,0-1.539-0.118-2.288-0.358c-2.231-0.715-4-2.431-4.782-4.64l-4.09-11.557
		l-4.766,2.698c-3.604,2.04-8.18,0.773-10.222-2.832c-2.041-3.605-0.772-8.181,2.832-10.222l12.547-7.104
		c1.929-1.092,4.244-1.275,6.321-0.498c2.077,0.776,3.704,2.432,4.444,4.523l3.784,10.691l7.585-5.307
		c3.377-2.362,8.028-1.558,10.414,1.803l6.273,8.833c2.398,3.377,1.605,8.059-1.772,10.458c-3.376,2.397-8.06,1.605-10.457-1.772
		l-1.962-2.761l-9.563,6.69C485.584,267.426,484.08,267.888,482.56,267.888z"/>
</g>
<path style="fill:#498A68;" d="M297.976,362.108c-5.016,0-9.86-2.717-12.347-7.469c-3.566-6.813-0.933-15.226,5.879-18.792
	c4.434-2.32,15.426-8.684,21.719-17.631c4.425-6.289,13.111-7.801,19.398-3.378c6.289,4.424,7.802,13.109,3.378,19.398
	c-9.445,13.429-23.842,22.23-31.583,26.282C302.36,361.597,300.152,362.108,297.976,362.108z"/>
<path style="fill:#5CB38E;" d="M199.28,416.109c-64.973,0-139.745,0-194.483-34.948c-9.367-5.98-3.949-20.424,7.066-18.953
	c43.348,5.787,79.76-5.247,100.522-23.121L199.28,416.109z"/>
<path style="opacity:0.1;enable-background:new    ;" d="M87.876,353.832c0.724,20.75,3.909,41.461,16.7,58.683
	c31.674,3.594,64.264,3.594,94.704,3.594l-86.895-77.022C105.729,344.816,97.459,349.837,87.876,353.832z"/>
<g>
	<path style="fill:#498A68;" d="M170.193,479.487c-0.552,0-1.106-0.021-1.666-0.064c-11.795-0.907-20.621-11.204-19.714-22.999
		c0.823-10.704-0.06-46.404-1.595-54.31c-3.525-10.613,1.746-22.287,12.253-26.568c10.958-4.463,23.456,0.8,27.919,11.754
		c5.776,14.176,4.401,68.982,4.137,72.41C190.662,470.945,181.276,479.487,170.193,479.487z M147.706,403.44
		c0.003,0.008,0.007,0.016,0.01,0.025C147.713,403.456,147.709,403.448,147.706,403.44z"/>
	<path style="fill:#498A68;" d="M247.876,479.487c-0.552,0-1.107-0.021-1.666-0.064c-11.795-0.907-20.621-11.204-19.714-22.999
		c0.823-10.704-0.06-46.404-1.595-54.31c-3.525-10.613,1.746-22.287,12.253-26.568c10.954-4.463,23.456,0.798,27.919,11.754
		c5.776,14.176,4.401,68.982,4.137,72.41C268.345,470.945,258.959,479.487,247.876,479.487z M225.39,403.44
		c0.003,0.008,0.007,0.016,0.01,0.025C225.396,403.456,225.393,403.448,225.39,403.44z"/>
</g>
<path style="opacity:0.1;enable-background:new    ;" d="M269.54,439.859c-0.017-18.207-0.803-43.564-4.468-52.56
	c-4.463-10.956-16.965-16.217-27.919-11.754c-10.507,4.281-15.778,15.955-12.253,26.568c1.232,6.34,2.042,30.541,1.891,45.405
	C243.328,446.434,257.498,443.905,269.54,439.859z"/>
<path style="opacity:0.1;enable-background:new    ;" d="M159.47,375.545c-10.507,4.281-15.777,15.955-12.253,26.568
	c1.073,5.525,1.827,24.62,1.903,39.276c12.153,3.514,26.318,5.622,42.697,6.402c0.198-17.802-0.189-50.09-4.428-60.493
	C182.926,376.345,170.428,371.082,159.47,375.545z"/>
<path style="fill:#5CB38E;" d="M304.684,340.534c0,50.006-6.793,86.19-97.794,86.19s-97.794-36.184-97.794-86.19
	s43.784-90.544,97.794-90.544S304.684,290.528,304.684,340.534z"/>
<path style="fill:#9BDFC1;" d="M304.684,340.534c0-0.399-0.011-0.795-0.016-1.192c-20.369-5.227-60.772-6.747-88.887,23.132
	c-20.488,21.773-23.453,45.27-21.255,64.009c3.939,0.16,8.056,0.242,12.364,0.242C297.892,426.724,304.684,390.54,304.684,340.534z"
	/>
<path style="opacity:0.05;enable-background:new    ;" d="M188.324,251.626c-45.131,8.032-79.229,44.78-79.229,88.908
	c0,46.303,5.835,80.751,78.943,85.599C147.447,384.933,155.298,299.864,188.324,251.626z"/>
<path style="fill:#5CB38E;" d="M283.037,103.567L283.037,103.567c-20.831-21.97-51.295-32.023-81.111-26.766l-36.651,6.463
	c-52.107,9.188-86.9,58.877-77.712,110.984l7.649,43.378c8.246,46.765,52.841,77.991,99.607,69.745l194.286-34.258
	c35.033-6.177,58.425-39.585,52.248-74.618l-5.206-29.522c-6.177-35.033-39.585-58.425-74.618-52.248l-25.169,4.438
	C316.759,124.619,296.732,118.01,283.037,103.567z"/>
<ellipse transform="matrix(-0.1736 -0.9848 0.9848 -0.1736 217.9211 612.2585)" style="fill:#495059;" cx="365.845" cy="214.696" rx="33.159" ry="36.369"/>
<g style="opacity:0.1;">
	<circle cx="150.099" cy="249.21" r="6.593"/>
	<circle cx="198.009" cy="250.97" r="6.593"/>
	<circle cx="175.499" cy="277.78" r="6.593"/>
</g>
<g>
	<path style="fill:#495059;" d="M162.13,145.862c-3.572,0-6.736-2.561-7.377-6.2l-1.438-8.155c-0.719-4.079,2.005-7.969,6.085-8.688
		c4.078-0.721,7.969,2.005,8.688,6.084l1.438,8.155c0.719,4.079-2.005,7.969-6.084,8.688
		C163.001,145.824,162.563,145.862,162.13,145.862z"/>
	<path style="fill:#495059;" d="M230.479,133.81c-3.571,0-6.736-2.561-7.378-6.199l-1.438-8.155
		c-0.719-4.079,2.005-7.969,6.084-8.689c4.084-0.718,7.969,2.005,8.689,6.084l1.438,8.155c0.719,4.079-2.005,7.969-6.084,8.688
		C231.35,133.772,230.911,133.81,230.479,133.81z"/>
	<path style="fill:#495059;" d="M165.123,129.819c-0.433,0-0.871-0.038-1.311-0.115l-16.924-2.984
		c-4.08-0.72-6.803-4.609-6.084-8.688c0.719-4.08,4.613-6.801,8.688-6.084l16.924,2.984c4.08,0.72,6.803,4.609,6.084,8.688
		C171.859,127.258,168.694,129.819,165.123,129.819z"/>
	<path style="fill:#495059;" d="M222.212,119.752c-2.592,0-5.113-1.345-6.502-3.751c-2.071-3.587-0.842-8.174,2.745-10.245
		l14.882-8.592c3.587-2.071,8.174-0.842,10.245,2.745c2.071,3.587,0.842,8.174-2.745,10.245l-14.882,8.592
		C224.774,119.428,223.485,119.752,222.212,119.752z"/>
	<circle style="fill:#495059;" cx="334.129" cy="155.72" r="6.593"/>
	<circle style="fill:#495059;" cx="375.509" cy="148.42" r="6.593"/>
</g>
<path style="opacity:0.05;enable-background:new    ;" d="M144.728,89.3c-40.338,16.941-65.082,60.045-57.164,104.948l7.649,43.378
	c8.246,46.765,52.842,77.992,99.607,69.745l51.382-9.06C163.693,267.967,129.907,150.522,144.728,89.3z"/>
<path style="fill:#498A68;" d="M180.037,369.551c-1.914,0-3.858-0.397-5.716-1.235c-16.332-7.366-26.56-20.284-29.92-24.529
	l-0.244-0.307c-4.783-6.021-3.78-14.779,2.241-19.562c6.02-4.783,14.779-3.78,19.562,2.241l0.273,0.344
	c2.32,2.931,9.382,11.85,19.536,16.43c7.01,3.162,10.129,11.407,6.968,18.416C190.414,366.5,185.344,369.551,180.037,369.551z"/>
<g>
	<path style="fill:#FFFFFF;" d="M351.817,341.886c-0.802-2.089,0.241-4.433,2.331-5.235l11.938-4.583
		c4.373-1.679,8.234-1.752,11.361-0.36c2.652,1.181,4.72,3.487,5.965,6.729l0.038,0.099c2.074,5.404,0.655,9.782-2.861,13.103
		l7.708,4.369c1.095,0.651,1.888,1.248,2.34,2.427c0.811,2.112-0.43,4.167-2.247,4.864c-1.719,0.66-3.169,0.259-4.487-0.531
		l-9.745-5.789c-0.762-0.453-1.69-0.532-2.518-0.214l-3.021,1.16c-0.945,0.363-1.417,1.423-1.054,2.368l2.159,5.625
		c0.789,2.056-0.076,4.475-2.098,5.348c-2.155,0.93-4.567-0.096-5.399-2.264L351.817,341.886z M372.006,348.96
		c3.685-1.415,5.043-4.191,3.93-7.088l-0.038-0.099c-1.245-3.242-4.146-4.045-7.83-2.631l-5.726,2.198
		c-0.989,0.38-1.483,1.489-1.103,2.478l2.416,6.293c0.38,0.989,1.489,1.483,2.478,1.103L372.006,348.96z"/>
	<path style="fill:#FFFFFF;" d="M395.79,353.646l16.036-28.745c1.116-1.981,2.918-3.077,5.202-2.867l0.49,0.045
		c2.284,0.211,3.801,1.613,4.534,3.765l10.507,31.194c0.589,1.696,0.408,2.911-1.717,4.652c-0.654,0.536-1.507,0.811-2.349,0.732
		c-1.956-0.182-3.156-1.444-3.756-3.253l-1.156-3.588c-0.514-1.596-1.931-2.731-3.6-2.885l-11.245-1.038
		c-1.671-0.154-3.272,0.704-4.069,2.18l-1.929,3.574c-0.858,1.566-2.363,2.414-4.103,2.254c-2.175-0.201-3.701-2.097-3.5-4.272
		C395.19,354.798,395.463,354.22,395.79,353.646z M419.856,343.811l-2.93-9.29c-0.271-0.858-1.441-0.966-1.864-0.172l-4.58,8.597
		c-0.341,0.64,0.08,1.422,0.803,1.488l7.511,0.693C419.517,345.194,420.074,344.503,419.856,343.811z"/>
	<path style="fill:#FFFFFF;" d="M348.147,381.089c-0.125-0.461-0.244-1.021-0.218-1.473c0.124-2.158,2.024-3.66,4.183-3.535
		c1.807,0.104,3.196,1.343,3.605,2.978l4.886,18.69c0.268,1.025,1.691,1.111,2.08,0.125l7.026-17.807
		c0.707-1.771,2.135-2.949,4.092-2.836l0.603,0.035c1.957,0.113,3.243,1.396,3.738,3.287l4.932,18.497
		c0.273,1.024,1.696,1.103,2.08,0.115l7.003-18.004c0.589-1.477,1.966-2.656,3.874-2.546c2.108,0.122,3.722,1.826,3.601,3.934
		c-0.026,0.452-0.212,1.045-0.389,1.488l-11.43,27.039c-0.816,1.917-2.341,3.037-4.198,2.93l-0.803-0.046
		c-1.858-0.107-3.197-1.343-3.784-3.39l-4.639-16.519c-0.369-1.312-2.188-1.417-2.705-0.156l-6.509,15.876
		c-0.819,1.967-2.29,3.04-4.148,2.933l-0.804-0.046c-1.857-0.107-3.243-1.396-3.833-3.393L348.147,381.089z"/>
	<path style="fill:#FFFFFF;" d="M407.144,377.919c-0.389-2.241,1.113-4.373,3.354-4.762l12.806-2.221
		c4.691-0.814,8.555-0.127,11.4,1.876c2.412,1.699,4.021,4.406,4.624,7.883l0.018,0.106c1.005,5.797-1.271,9.883-5.43,12.504
		l6.827,5.873c0.964,0.864,1.637,1.616,1.856,2.881c0.393,2.266-1.248,4.07-3.198,4.408c-1.844,0.32-3.211-0.365-4.37-1.413
		l-8.596-7.705c-0.66-0.592-1.555-0.849-2.429-0.697l-3.293,0.571c-0.997,0.173-1.666,1.122-1.493,2.119l1.052,6.063
		c0.383,2.206-0.956,4.448-3.144,4.92c-2.332,0.503-4.535-0.995-4.938-3.32L407.144,377.919z M425.885,388.945
		c3.953-0.686,5.853-3.187,5.314-6.295l-0.018-0.106c-0.603-3.478-3.338-4.849-7.29-4.164l-6.173,1.071
		c-1.044,0.181-1.743,1.174-1.562,2.218l1.182,6.813c0.181,1.044,1.174,1.743,2.218,1.562L425.885,388.945z"/>
</g>
<g>
</g>
<g>
</g>
<g>
</g>
<g>
</g>
<g>
</g>
<g>
</g>
<g>
</g>
<g>
</g>
<g>
</g>
<g>
</g>
<g>
</g>
<g>
</g>
<g>
</g>
<g>
</g>
<g>
</g>
</svg>
