<svg version="1.1" id="Capa_1" xmlns="http://www.w3.org/2000/svg" xmlns:xlink="http://www.w3.org/1999/xlink" x="0px" y="0px" viewBox="0 0 512 512" style="enable-background:new 0 0 512 512;" xml:space="preserve">
                            <path style="fill:#FAE17C;"
                                d="M408.961,69.558l-6.552-18.426c-2.341-6.584,2.659-13.465,9.643-13.273l19.549,0.538c2.286,0.063,4.525-0.664,6.338-2.059l15.499-11.926c5.538-4.261,13.628-1.632,15.603,5.07l5.53,18.758c0.647,2.194,2.03,4.098,3.917,5.391l16.132,11.056c5.764,3.95,5.764,12.456,0,16.406l-16.132,11.056c-1.887,1.293-3.27,3.197-3.917,5.391l-5.53,18.758c-1.976,6.702-10.065,9.331-15.603,5.07l-15.499-11.926c-1.813-1.395-4.051-2.122-6.338-2.059l-19.549,0.538c-6.985,0.192-11.985-6.689-9.643-13.273l6.552-18.426C409.727,74.066,409.727,71.713,408.961,69.558z" />
                            <path style="fill:#FF85B6;"
                                d="M23.339,287.319l-17.662-8.396c-6.311-3-7.641-11.401-2.567-16.204l14.203-13.443c1.661-1.572,2.73-3.669,3.025-5.938l2.527-19.392c0.903-6.929,8.482-10.79,14.618-7.448l17.174,9.354c2.009,1.094,4.333,1.462,6.582,1.042l19.224-3.589c6.869-1.282,12.883,4.732,11.601,11.601l-3.589,19.224c-0.42,2.249-0.052,4.573,1.042,6.582l9.354,17.174c3.342,6.136-0.519,13.715-7.448,14.618l-19.392,2.527c-2.268,0.296-4.365,1.364-5.938,3.025L52.652,312.26c-4.803,5.075-13.204,3.744-16.204-2.566l-8.396-17.662C27.069,289.965,25.405,288.301,23.339,287.319z" />
                            <path style="fill:#A3E3FF;"
                                d="M462.684,391.752l-16.256,4.614c-5.808,1.648-11.461-3.05-10.902-9.061l1.563-16.826c0.183-1.968-0.318-3.939-1.419-5.581l-9.411-14.035c-3.363-5.015-0.641-11.842,5.249-13.169l16.485-3.713c1.928-0.434,3.648-1.52,4.869-3.074l10.44-13.288c3.73-4.748,11.064-4.269,14.146,0.922l8.626,14.531c1.009,1.7,2.573,2.999,4.428,3.681l15.863,5.823c5.668,2.081,7.479,9.204,3.494,13.739l-11.154,12.694c-1.305,1.485-2.058,3.374-2.132,5.349l-0.636,16.886c-0.227,6.033-6.442,9.957-11.987,7.569l-15.519-6.686C466.615,391.345,464.586,391.212,462.684,391.752z" />
                            <path className="dark_color"
                                d="M358.553,350.175c-4.52,0-8.604-0.951-11.871-2.996c-7.337-4.592-9.562-14.262-4.97-21.599c3.796-6.066,11.06-8.638,17.613-6.752c3.437-0.513,11.928-3.579,17.881-11.337c5.27-6.867,15.107-8.161,21.975-2.892c6.867,5.27,8.161,15.107,2.892,21.975C391.112,340.855,372.7,350.175,358.553,350.175z" />
                            <path className="main_color"
                                d="M254.429,414.705c-72.676,8.187-156.312,17.609-221.943-14.585c-11.231-5.509-6.991-22.347,5.515-22.09c49.216,1.011,88.554-15.919,109.526-38.529L254.429,414.705z" />
                            <path style="opacity:0.1;enable-background:new    ;"
                                d="M121.97,359.082c3.425,23.118,9.597,45.884,26.074,63.536c35.882,0.029,72.336-4.077,106.385-7.913l-106.902-75.204C140.805,346.748,132.187,353.406,121.97,359.082z" />
                            <g>
                                <path className="dark_color"
                                    d="M224,489.657c-9.312,0-18.18-5.426-22.127-14.51c-15.022-34.58-6.638-78.587,5.985-94.914c8.145-10.536,23.288-12.47,33.822-4.326c10.351,8.003,12.402,22.761,4.744,33.266c-3.037,5.747-7.685,29.814-0.323,46.761c5.306,12.213-0.294,26.415-12.507,31.721C230.466,489.014,227.206,489.657,224,489.657z M246.018,409.716c-0.004,0.004-0.007,0.009-0.01,0.013C246.011,409.725,246.014,409.72,246.018,409.716z M246.539,408.965L246.539,408.965L246.539,408.965z" />
                                <path className="dark_color"
                                    d="M345.734,470.613c-0.783,0-1.573-0.038-2.367-0.115c-13.253-1.292-22.95-13.083-21.658-26.336c1.462-15.003-12.851-33.771-19.337-37.049c-12.544-2.641-20.904-14.719-18.807-27.496c2.156-13.14,14.559-22.044,27.698-19.887c20.853,3.423,36.415,23.507,42.137,31.983c7.137,10.573,18.746,32.052,16.302,57.125C368.488,461.297,357.996,470.613,345.734,470.613z M303.436,407.312c0.005,0.001,0.01,0.002,0.015,0.002C303.446,407.314,303.441,407.313,303.436,407.312z" />
                            </g>
                            <path style="opacity:0.1;enable-background:new    ;"
                                d="M364.48,413.028c-3.403-9.001-7.733-16.357-11.08-21.315c-5.723-8.476-21.284-28.56-42.137-31.983c-13.139-2.157-25.542,6.747-27.698,19.887c-2.097,12.777,6.263,24.855,18.807,27.496c5.65,2.856,17.236,17.465,19.163,31.101C339.704,431.991,353.865,423.672,364.48,413.028z" />
                            <path style="opacity:0.1;enable-background:new    ;"
                                d="M244.465,451.411c-4.93-16.436-0.815-36.986,1.96-42.238c7.658-10.505,5.607-25.263-4.744-33.266c-10.534-8.144-25.677-6.209-33.822,4.326c-9.458,12.232-16.534,40.001-13.172,67.703c11.12,2.522,23.575,3.776,37.439,3.776C236.08,451.713,240.199,451.612,244.465,451.411z" />
                            <path class="main_color"
                                d="M362.806,316.889c6.301,55.935,3.263,97.264-98.527,108.731c-101.79,11.467-113.947-28.151-120.248-84.086c-6.301-55.935,37.566-106.796,97.979-113.601C302.423,221.127,356.505,260.954,362.806,316.889z" />
                            <path class="light_color"
                                d="M362.806,316.889c-0.05-0.446-0.112-0.887-0.168-1.331c-23.442-3.28-68.826,0.11-96.51,37.074c-20.173,26.936-20.529,53.592-15.71,74.275c4.426-0.317,9.042-0.745,13.86-1.288C366.069,414.153,369.107,372.823,362.806,316.889z" />
                            <path style="opacity:0.05;enable-background:new    ;"
                                d="M221.449,232.103c-49.469,14.67-82.979,60.072-77.419,109.431c5.835,51.793,16.702,89.589,99.088,85.8C192.523,386.364,190.586,290.22,221.449,232.103z" />
                            <path className="main_color"
                                d="M334.008,72.01L334.008,72.01c-20.463-27.252-53.234-42.418-87.252-40.381l-41.817,2.504c-59.451,3.561-104.76,54.642-101.199,114.093l2.964,49.492c3.195,53.357,49.04,94.021,102.397,90.825l221.669-13.276c39.971-2.394,70.433-36.737,68.039-76.708l-2.017-33.683c-2.394-39.971-36.737-70.433-76.708-68.039l-28.716,1.72C369.005,99.896,347.461,89.925,334.008,72.01z" />
                            <g style="opacity:0.1;">
                                <circle cx="166.59" cy="217.74" r="7.422" />
                                <circle cx="219.93" cy="225.89" r="7.422" />
                                <circle cx="191.31" cy="252.96" r="7.422" />
                            </g>
                            <g>
                                <ellipse transform="matrix(-0.0598 -0.9982 0.9982 -0.0598 66.5152 294.1401)" style="fill:#FFA8CB;"
                                    cx="171.781" cy="115.745" rx="9.597" ry="18.706" />
                                <ellipse transform="matrix(0.0598 0.9982 -0.9982 0.0598 387.4329 -194.8301)" style="fill:#FFA8CB;"
                                    cx="297.142" cy="108.254" rx="9.597" ry="18.706" />
                            </g>
                            <g>
                                <path style="fill:#495059;"
                                    d="M179.782,101.41c-3.938,0-7.241-3.07-7.48-7.052c-0.645-10.771,7.594-20.06,18.366-20.705c5.215-0.31,10.246,1.426,14.157,4.895c3.911,3.469,6.237,8.253,6.549,13.471c0.248,4.135-2.904,7.687-7.039,7.935c-4.138,0.244-7.687-2.904-7.935-7.038c-0.073-1.219-0.616-2.336-1.529-3.146c-0.914-0.811-2.091-1.223-3.306-1.143c-2.516,0.15-4.44,2.32-4.289,4.836c0.247,4.135-2.904,7.688-7.039,7.935C180.085,101.405,179.933,101.409,179.782,101.41z" />
                                <path style="fill:#495059;"
                                    d="M262.482,96.456c-3.938,0-7.241-3.069-7.48-7.052c-0.312-5.218,1.426-10.246,4.895-14.156c3.469-3.911,8.253-6.237,13.471-6.549c5.221-0.317,10.245,1.426,14.156,4.895c3.911,3.469,6.237,8.253,6.549,13.471c0.248,4.135-2.904,7.688-7.038,7.935c-4.137,0.246-7.687-2.904-7.935-7.039c-0.073-1.219-0.616-2.336-1.529-3.146c-0.914-0.81-2.091-1.22-3.306-1.143c-1.219,0.073-2.336,0.616-3.146,1.529s-1.216,2.087-1.143,3.306c0.247,4.135-2.904,7.688-7.039,7.935C262.785,96.452,262.632,96.456,262.482,96.456z" />
                                <circle style="fill:#495059;" cx="384.42" cy="136.91" r="7.422" />
                                <circle style="fill:#495059;" cx="431.63" cy="134.09" r="7.422" />
                            </g>
                            <path style="opacity:0.05;enable-background:new    ;"
                                d="M181.185,38.236c-47.289,13.747-80.513,58.759-77.445,109.99l2.964,49.492c3.195,53.357,49.04,94.021,102.397,90.825l58.624-3.511C179.373,240.469,156.724,104.786,181.185,38.236z" />
                            <path style="fill:#495059;"
                                d="M414.303,240.314L414.303,240.314c-13.434,0.805-24.976-9.434-25.781-22.867l-0.618-10.324c-0.463-7.732,5.43-14.375,13.162-14.839l20.648-1.237c7.732-0.463,14.375,5.43,14.839,13.162l0.618,10.324C437.975,227.967,427.737,239.51,414.303,240.314z" />
                            <path className="dark_color arm"
                                d="M271.103,387.323c-6.952,0-13.303-4.661-15.149-11.702c-1.996-7.613-7.362-10.446-14.17-13.359c-1.885-0.807-3.666-1.569-5.406-2.658c-7.337-4.592-9.562-14.262-4.97-21.599c4.505-7.199,13.9-9.477,21.182-5.223c0.42,0.2,0.938,0.412,1.525,0.663c7.142,3.056,26.114,11.174,32.158,34.227c2.195,8.372-2.813,16.939-11.185,19.134C273.756,387.156,272.419,387.323,271.103,387.323z M252.783,332.897c0.075,0.045,0.15,0.092,0.224,0.138C252.938,332.992,252.863,332.945,252.783,332.897z" />
                        </svg>