<svg xmlns="http://www.w3.org/2000/svg" viewBox="0 0 512 512"><path d="M367.424 366.387a7.5 7.5 0 01-5.256-12.851c18.649-18.317 22.585-39.028 12.034-63.316a7.5 7.5 0 0113.758-5.976c13.13 30.225 7.989 57.139-15.281 79.994a7.476 7.476 0 01-5.255 2.149z" fill="#495059"/><path d="M366.932 391.81c-7.396 0-14.622-1.358-20.814-3.658-15.78-5.862-18.136-15.65-18.136-20.962 0-8.928 7.238-16.166 16.166-16.166 5.461 0 10.288 2.707 13.215 6.852 4.952 1.87 16.447 3.151 21.093-2.239 5.828-6.763 16.036-7.522 22.8-1.69 6.763 5.828 7.52 16.036 1.691 22.799-9.32 10.812-22.931 15.063-36.015 15.064zm-6.619-24.64z" fill="#498a68"/><path d="M234.218 438.412c-75.44 0-162.258 0-225.816-40.578-10.876-6.944-4.586-23.714 8.204-22.007 50.332 6.719 92.609-6.093 116.717-26.846l100.895 89.431z" fill="#5cb38e"/><path d="M104.866 366.102c.841 24.092 4.539 48.141 19.39 68.137 36.777 4.173 74.618 4.173 109.962 4.173l-100.895-89.431c-7.727 6.652-17.329 12.482-28.457 17.121z" opacity=".1"/><path d="M200.444 512c-.641 0-1.285-.024-1.934-.074-13.695-1.054-23.944-13.01-22.89-26.706.956-12.428-.069-53.879-1.852-63.059-4.093-12.323 2.027-25.878 14.227-30.848 12.724-5.183 27.235.927 32.417 13.647 6.706 16.459 5.11 80.093 4.803 84.075-1.003 13.046-11.902 22.964-24.771 22.965zm-26.108-88.298l.012.029-.012-.029zM290.643 512c-.641 0-1.285-.024-1.934-.074-13.695-1.054-23.944-13.01-22.89-26.706.956-12.428-.069-53.879-1.853-63.059-4.093-12.323 2.027-25.878 14.227-30.848 12.723-5.183 27.235.927 32.417 13.647 6.706 16.46 5.11 80.093 4.803 84.075-1.002 13.046-11.901 22.964-24.77 22.965zm-26.108-88.297l.012.028a.293.293 0 01-.012-.028z" fill="#498a68"/><path d="M315.798 465.988c-.02-21.14-.932-50.581-5.188-61.027-5.182-12.721-19.694-18.83-32.417-13.647-12.2 4.971-18.32 18.526-14.227 30.848 1.43 7.361 2.371 35.463 2.196 52.721 19.201-1.261 35.654-4.196 49.636-8.895zm-127.803-74.674c-12.2 4.971-18.32 18.526-14.227 30.848 1.246 6.416 2.121 28.587 2.209 45.604 14.11 4.081 30.559 6.528 49.576 7.434.23-20.67-.219-58.16-5.141-70.239-5.182-12.721-19.693-18.83-32.417-13.647z" opacity=".1"/><path d="M356.604 350.661c0 58.063-7.887 100.076-113.549 100.076-105.663 0-113.549-42.013-113.549-100.076s50.838-105.132 113.549-105.132c62.711.001 113.549 47.07 113.549 105.132z" fill="#5cb38e"/><path d="M356.604 350.661c0-.463-.012-.923-.019-1.384-23.651-6.069-70.562-7.835-103.207 26.858-23.789 25.281-27.231 52.563-24.679 74.321 4.573.186 9.354.281 14.356.281 105.662 0 113.549-42.013 113.549-100.076z" fill="#9bdfc1"/><path d="M221.498 247.43c-52.401 9.325-91.993 51.994-91.993 103.231 0 53.763 6.775 93.76 91.661 99.39-47.131-47.838-38.015-146.612.332-202.621z" opacity=".05"/><path d="M347.281 94.12a104.722 104.722 0 00-87.351-46.959h-43.212c-61.435 0-111.237 49.803-111.237 111.238v51.143c0 55.137 44.698 99.835 99.835 99.835h229.065c41.305 0 74.788-33.484 74.788-74.788V199.78c0-41.305-33.484-74.789-74.788-74.789h-29.674a68.842 68.842 0 01-57.426-30.871z" fill="#5cb38e"/><g opacity=".1"><circle cx="165.901" cy="233.85" r="7.655"/><circle cx="220.331" cy="245.53" r="7.655"/><circle cx="189.191" cy="271.64" r="7.655"/></g><g fill="#ffa8cb"><ellipse cx="191.231" cy="129.16" rx="19.296" ry="9.899"/><ellipse cx="320.771" cy="129.16" rx="19.296" ry="9.899"/></g><g fill="#495059"><path d="M215.709 117.028a7.5 7.5 0 01-7.5-7.5v-9.614c0-4.143 3.358-7.5 7.5-7.5s7.5 3.357 7.5 7.5v9.614a7.5 7.5 0 01-7.5 7.5zm80.584 0a7.5 7.5 0 01-7.5-7.5v-9.614c0-4.143 3.358-7.5 7.5-7.5s7.5 3.357 7.5 7.5v9.614a7.5 7.5 0 01-7.5 7.5zM419.58 261.691a27.758 27.758 0 01-20.925-9.529 7.5 7.5 0 1111.308-9.855 12.762 12.762 0 009.618 4.385c3.684 0 7.189-1.599 9.618-4.385a7.5 7.5 0 1111.308 9.855 27.762 27.762 0 01-20.927 9.529z"/><circle cx="395.191" cy="164.06" r="7.655"/><circle cx="443.971" cy="164.06" r="7.655"/></g><path d="M192.006 49.92c-49.54 11.239-86.525 55.537-86.525 108.478v51.143c0 55.137 44.698 99.835 99.835 99.835h60.58c-88.227-51.333-103.181-192.44-73.89-259.456z" opacity=".05"/><path d="M338.17 80.584H138.305c-6.972 0-10.761-8.151-6.266-13.481l13.52-16.031a36.704 36.704 0 0128.057-13.041h132.476a36.704 36.704 0 0131.203 17.377l7.843 12.663c3.382 5.461-.545 12.513-6.968 12.513z" fill="#959ba0"/><circle cx="256.001" cy="40.29" r="40.29" fill="#e5e5e5"/><circle cx="256.001" cy="40.29" r="8.906" fill="#959ba0"/><circle cx="154.341" cy="163.89" r="24.837" fill="#e5e5e5"/><path d="M460.929 386.169a7.474 7.474 0 01-3.57-.908l-28.327-15.368a42.67 42.67 0 00-23.663-5.056l-19.779 1.509a124.805 124.805 0 01-43.969-4.471c-32.918-9.421-63.177-25.028-89.936-46.39-26.76-21.36-48.685-47.408-65.167-77.42l-34.457-62.743a7.5 7.5 0 0113.147-7.221l34.456 62.743c15.524 28.267 36.173 52.8 61.376 72.918 25.204 20.118 53.703 34.818 84.706 43.691a109.785 109.785 0 0038.701 3.935l19.778-1.509a57.735 57.735 0 0131.957 6.827l28.328 15.368a7.5 7.5 0 013.016 10.169 7.49 7.49 0 01-6.597 3.926z" fill="#495059"/><circle cx="467.131" cy="386.01" r="32.06" fill="#959ba0"/><circle cx="467.131" cy="386.01" r="7.655" fill="#e5e5e5"/><path d="M241.592 377.568c-6.439 0-12.526-3.874-15.038-10.225-3.284-8.303.785-17.695 9.087-20.979l.471-.186c3.977-1.565 14.541-5.724 22.868-14.055 6.311-6.315 16.547-6.317 22.862-.007 6.315 6.311 6.318 16.547.007 22.862-13.088 13.096-28.749 19.26-33.896 21.286l-.421.166a16.134 16.134 0 01-5.94 1.138z" fill="#498a68"/></svg>