<?xml version="1.0" encoding="iso-8859-1"?>
<!-- Generator: Adobe Illustrator 19.0.0, SVG Export Plug-In . SVG Version: 6.00 Build 0)  -->
<svg version="1.1" id="Capa_1" xmlns="http://www.w3.org/2000/svg" xmlns:xlink="http://www.w3.org/1999/xlink" x="0px" y="0px"
	 viewBox="0 0 512 512" style="enable-background:new 0 0 512 512;" xml:space="preserve">
<path style="fill:#495059;" d="M367.424,366.387c-1.942,0-3.883-0.749-5.351-2.244c-2.903-2.956-2.86-7.704,0.095-10.607
	c18.649-18.317,22.585-39.028,12.034-63.316c-1.65-3.799,0.091-8.217,3.891-9.867c3.8-1.649,8.217,0.092,9.867,3.891
	c13.13,30.225,7.989,57.139-15.281,79.994C371.219,365.672,369.321,366.387,367.424,366.387z"/>
<path style="fill:#498A68;" d="M366.932,391.81c-7.396,0-14.622-1.358-20.814-3.658c-15.78-5.862-18.136-15.65-18.136-20.962
	c0-8.928,7.238-16.166,16.166-16.166c5.461,0,10.288,2.707,13.215,6.852c4.952,1.87,16.447,3.151,21.093-2.239
	c5.828-6.763,16.036-7.522,22.8-1.69c6.763,5.828,7.52,16.036,1.691,22.799C393.627,387.558,380.016,391.809,366.932,391.81z
	 M360.313,367.17c0,0.007,0,0.013,0,0.021C360.313,367.184,360.313,367.178,360.313,367.17z"/>
<path style="fill:#5CB38E;" d="M234.218,438.412c-75.44,0-162.258,0-225.816-40.578c-10.876-6.944-4.586-23.714,8.204-22.007
	c50.332,6.719,92.609-6.093,116.717-26.846L234.218,438.412z"/>
<path style="opacity:0.1;enable-background:new    ;" d="M104.866,366.102c0.841,24.092,4.539,48.141,19.39,68.137
	c36.777,4.173,74.618,4.173,109.962,4.173l-100.895-89.431C125.596,355.633,115.994,361.463,104.866,366.102z"/>
<g>
	<path style="fill:#498A68;" d="M200.444,512c-0.641,0-1.285-0.024-1.934-0.074c-13.695-1.054-23.944-13.01-22.89-26.706
		c0.956-12.428-0.069-53.879-1.852-63.059c-4.093-12.323,2.027-25.878,14.227-30.848c12.724-5.183,27.235,0.927,32.417,13.647
		c6.706,16.459,5.11,80.093,4.803,84.075C224.212,502.081,213.313,511.999,200.444,512z M174.336,423.702
		c0.004,0.01,0.008,0.02,0.012,0.029C174.344,423.721,174.34,423.711,174.336,423.702z"/>
	<path style="fill:#498A68;" d="M290.643,512c-0.641,0-1.285-0.024-1.934-0.074c-13.695-1.054-23.944-13.01-22.89-26.706
		c0.956-12.428-0.069-53.879-1.853-63.059c-4.093-12.323,2.027-25.878,14.227-30.848c12.723-5.183,27.235,0.927,32.417,13.647
		c6.706,16.46,5.11,80.093,4.803,84.075C314.411,502.081,303.512,511.999,290.643,512z M264.535,423.703
		c0.004,0.009,0.008,0.018,0.012,0.028C264.542,423.721,264.538,423.711,264.535,423.703z"/>
</g>
<path style="opacity:0.1;enable-background:new    ;" d="M315.798,465.988c-0.02-21.14-0.932-50.581-5.188-61.027
	c-5.182-12.721-19.694-18.83-32.417-13.647c-12.2,4.971-18.32,18.526-14.227,30.848c1.43,7.361,2.371,35.463,2.196,52.721
	C285.363,473.622,301.816,470.687,315.798,465.988z"/>
<path style="opacity:0.1;enable-background:new    ;" d="M187.995,391.314c-12.2,4.971-18.32,18.526-14.227,30.848
	c1.246,6.416,2.121,28.587,2.209,45.604c14.11,4.081,30.559,6.528,49.576,7.434c0.23-20.67-0.219-58.16-5.141-70.239
	C215.23,392.24,200.719,386.131,187.995,391.314z"/>
<path style="fill:#5CB38E;" d="M356.604,350.661c0,58.063-7.887,100.076-113.549,100.076c-105.663,0-113.549-42.013-113.549-100.076
	s50.838-105.132,113.549-105.132C305.766,245.53,356.604,292.599,356.604,350.661z"/>
<path style="fill:#9BDFC1;" d="M356.604,350.661c0-0.463-0.012-0.923-0.019-1.384c-23.651-6.069-70.562-7.835-103.207,26.858
	c-23.789,25.281-27.231,52.563-24.679,74.321c4.573,0.186,9.354,0.281,14.356,0.281
	C348.717,450.737,356.604,408.724,356.604,350.661z"/>
<path style="opacity:0.05;enable-background:new    ;" d="M221.498,247.43c-52.401,9.325-91.993,51.994-91.993,103.231
	c0,53.763,6.775,93.76,91.661,99.39C174.035,402.213,183.151,303.439,221.498,247.43z"/>
<path style="fill:#5CB38E;" d="M347.281,94.12L347.281,94.12c-19.39-29.322-52.198-46.959-87.351-46.959h-43.212
	c-61.435,0-111.237,49.803-111.237,111.238v51.143c0,55.137,44.698,99.835,99.835,99.835h229.065
	c41.305,0,74.788-33.484,74.788-74.788V199.78c0-41.305-33.484-74.789-74.788-74.789h-29.674
	C381.597,124.992,360.028,113.397,347.281,94.12z"/>
<g style="opacity:0.1;">
	<circle cx="165.901" cy="233.85" r="7.655"/>
	<circle cx="220.331" cy="245.53" r="7.655"/>
	<circle cx="189.191" cy="271.64" r="7.655"/>
</g>
<g>
	<ellipse style="fill:#FFA8CB;" cx="191.231" cy="129.16" rx="19.296" ry="9.899"/>
	<ellipse style="fill:#FFA8CB;" cx="320.771" cy="129.16" rx="19.296" ry="9.899"/>
</g>
<g>
	<path style="fill:#495059;" d="M215.709,117.028c-4.142,0-7.5-3.357-7.5-7.5v-9.614c0-4.143,3.358-7.5,7.5-7.5s7.5,3.357,7.5,7.5
		v9.614C223.209,113.671,219.851,117.028,215.709,117.028z"/>
	<path style="fill:#495059;" d="M296.293,117.028c-4.142,0-7.5-3.357-7.5-7.5v-9.614c0-4.143,3.358-7.5,7.5-7.5s7.5,3.357,7.5,7.5
		v9.614C303.793,113.671,300.435,117.028,296.293,117.028z"/>
	<path style="fill:#495059;" d="M419.58,261.691c-8.02,0-15.647-3.474-20.925-9.529c-2.722-3.123-2.396-7.86,0.726-10.582
		c3.122-2.721,7.86-2.395,10.582,0.727c2.429,2.786,5.934,4.385,9.618,4.385c3.684,0,7.189-1.599,9.618-4.385
		c2.721-3.123,7.458-3.447,10.582-0.727c3.123,2.722,3.448,7.459,0.726,10.582C435.227,258.218,427.6,261.691,419.58,261.691z"/>
	<circle style="fill:#495059;" cx="395.191" cy="164.06" r="7.655"/>
	<circle style="fill:#495059;" cx="443.971" cy="164.06" r="7.655"/>
</g>
<path style="opacity:0.05;enable-background:new    ;" d="M192.006,49.92c-49.54,11.239-86.525,55.537-86.525,108.478v51.143
	c0,55.137,44.698,99.835,99.835,99.835h60.58C177.669,258.043,162.715,116.936,192.006,49.92z"/>
<path style="fill:#959BA0;" d="M338.17,80.584H138.305c-6.972,0-10.761-8.151-6.266-13.481l13.52-16.031
	c6.974-8.269,17.24-13.041,28.057-13.041h132.476c12.708,0,24.512,6.574,31.203,17.377l7.843,12.663
	C348.52,73.532,344.593,80.584,338.17,80.584z"/>
<circle style="fill:#E5E5E5;" cx="256.001" cy="40.29" r="40.29"/>
<circle style="fill:#959BA0;" cx="256.001" cy="40.29" r="8.906"/>
<circle style="fill:#E5E5E5;" cx="154.341" cy="163.89" r="24.837"/>
<path style="fill:#495059;" d="M460.929,386.169c-1.208,0-2.433-0.292-3.57-0.908l-28.327-15.368
	c-7.253-3.936-15.431-5.686-23.663-5.056l-19.779,1.509c-14.856,1.13-29.649-0.37-43.969-4.471
	c-32.918-9.421-63.177-25.028-89.936-46.39c-26.76-21.36-48.685-47.408-65.167-77.42l-34.457-62.743
	c-1.994-3.631-0.667-8.19,2.963-10.185c3.632-1.993,8.191-0.666,10.184,2.964l34.456,62.743
	c15.524,28.267,36.173,52.8,61.376,72.918c25.204,20.118,53.703,34.818,84.706,43.691c12.604,3.609,25.624,4.933,38.701,3.935
	l19.778-1.509c11.111-0.842,22.161,1.514,31.957,6.827l28.328,15.368c3.641,1.976,4.991,6.528,3.016,10.169
	C466.17,384.749,463.591,386.169,460.929,386.169z"/>
<circle style="fill:#959BA0;" cx="467.131" cy="386.01" r="32.06"/>
<circle style="fill:#E5E5E5;" cx="467.131" cy="386.01" r="7.655"/>
<path style="fill:#498A68;" d="M241.592,377.568c-6.439,0-12.526-3.874-15.038-10.225c-3.284-8.303,0.785-17.695,9.087-20.979
	l0.471-0.186c3.977-1.565,14.541-5.724,22.868-14.055c6.311-6.315,16.547-6.317,22.862-0.007c6.315,6.311,6.318,16.547,0.007,22.862
	c-13.088,13.096-28.749,19.26-33.896,21.286l-0.421,0.166C245.582,377.201,243.569,377.568,241.592,377.568z"/>
<g>
</g>
<g>
</g>
<g>
</g>
<g>
</g>
<g>
</g>
<g>
</g>
<g>
</g>
<g>
</g>
<g>
</g>
<g>
</g>
<g>
</g>
<g>
</g>
<g>
</g>
<g>
</g>
<g>
</g>
</svg>
