<svg id="Capa_1" enable-background="new 0 0 512 512" height="512" viewBox="0 0 512 512" width="512" xmlns="http://www.w3.org/2000/svg"><g><path d="m292.381 0h-60.66l-146.471 239 146.471 273h60.66c8.28 0 15-6.72 15-15v-482c0-8.28-6.72-15-15-15z" fill="#ffa64d"/><path d="m504.169 243.01-119.813-69.174c-4.641-2.68-10.359-2.68-15 0s-7.5 7.631-7.5 12.99v24.674h-39.485c-8.284 0-15 6.716-15 15v59c0 8.284 6.716 15 15 15h39.485v24.674c0 5.359 2.859 10.311 7.5 12.99 2.32 1.34 4.91 2.01 7.5 2.01s5.18-.67 7.5-2.01l119.813-69.174c4.641-2.68 7.5-7.631 7.5-12.99s-2.859-10.311-7.5-12.99z" fill="#ff5e94"/><path d="m376.859 340.174c-2.59 0-5.18-.67-7.5-2.01-4.64-2.68-7.5-7.63-7.5-12.99v-24.68h-39.49c-8.28 0-15-6.71-15-15v-29.5h204.3c0 5.36-2.86 10.31-7.5 12.99l-119.81 69.18c-2.32 1.34-4.91 2.01-7.5 2.01z" fill="#ff3980"/><path d="m231.721 0h-216.39c-8.284 0-15 6.716-15 15v482c0 8.284 6.716 15 15 15h216.391c8.284 0 15-6.716 15-15v-482c-.001-8.284-6.717-15-15.001-15z" fill="#ffea80"/><path d="m246.721 15v482c0 8.28-6.72 15-15 15h-108.2v-512h108.2c8.28 0 15 6.72 15 15z" fill="#f3d332"/><path d="m171.221 215.125c-8.284 0-15 6.716-15 15v51.75c0 8.284 6.716 15 15 15s15-6.716 15-15v-51.75c0-8.284-6.716-15-15-15z" fill="#ffa64d"/></g></svg>