<svg height="512" viewBox="0 0 512 512" width="512" xmlns="http://www.w3.org/2000/svg"><path d="M292.381 0h-60.66L85.25 239l146.471 273h60.66c8.28 0 15-6.72 15-15V15c0-8.28-6.72-15-15-15z" fill="#ffa64d"/><path d="M504.169 243.01l-119.813-69.174a14.998 14.998 0 00-22.5 12.99V211.5h-39.485c-8.284 0-15 6.716-15 15v59c0 8.284 6.716 15 15 15h39.485v24.674a14.999 14.999 0 0022.5 12.99l119.813-69.174a15 15 0 000-25.98z" fill="#ff5e94"/><path d="M376.859 340.174a15 15 0 01-15-15v-24.68h-39.49c-8.28 0-15-6.71-15-15v-29.5h204.3a15 15 0 01-7.5 12.99l-119.81 69.18a14.986 14.986 0 01-7.5 2.01z" fill="#ff3980"/><path d="M231.721 0H15.331c-8.284 0-15 6.716-15 15v482c0 8.284 6.716 15 15 15h216.391c8.284 0 15-6.716 15-15V15c-.001-8.284-6.717-15-15.001-15z" fill="#ffea80"/><path d="M246.721 15v482c0 8.28-6.72 15-15 15h-108.2V0h108.2c8.28 0 15 6.72 15 15z" fill="#f3d332"/><path d="M171.221 215.125c-8.284 0-15 6.716-15 15v51.75c0 8.284 6.716 15 15 15s15-6.716 15-15v-51.75c0-8.284-6.716-15-15-15z" fill="#ffa64d"/></svg>