<?xml version="1.0" encoding="iso-8859-1"?>
<!-- Generator: Adobe Illustrator 19.0.0, SVG Export Plug-In . SVG Version: 6.00 Build 0)  -->
<svg version="1.1" id="Capa_1" xmlns="http://www.w3.org/2000/svg" xmlns:xlink="http://www.w3.org/1999/xlink" x="0px" y="0px"
	 viewBox="0 0 464.03 464.03" style="enable-background:new 0 0 464.03 464.03;" xml:space="preserve">
<path style="fill:#DEDEDE;" d="M352.028,119.176v-0.048h-240v0.048C49.697,119.638-0.458,170.541,0.003,232.873
	C0.465,295.204,51.368,345.36,113.7,344.898c29.992-0.222,58.663-12.373,79.681-33.77h77.296
	c43.685,44.457,115.139,45.083,159.596,1.398s45.083-115.139,1.398-159.596C410.66,131.548,382.005,119.403,352.028,119.176
	L352.028,119.176z"/>
<circle style="fill:#C7C7C7;" cx="352.028" cy="231.128" r="96"/>
<circle style="fill:#4398D1;" cx="352.028" cy="175.128" r="24"/>
<circle style="fill:#FDB62F;" cx="352.028" cy="287.128" r="24"/>
<circle style="fill:#88B337;" cx="296.028" cy="231.128" r="24"/>
<circle style="fill:#DE4C3C;" cx="408.028" cy="231.128" r="24"/>
<path style="fill:#737373;" d="M176.028,207.128h-40v-40h-48v40h-40v48h40v40h48v-40h40V207.128z"/>
<path style="fill:#666666;" d="M88.028,255.128v40h48v-40h40v-48h-40L88.028,255.128z"/>
<path style="fill:#77A61F;" d="M281.252,249.904c4.191,3.365,9.401,5.206,14.776,5.224c13.255,0,24-10.745,24-24
	c-0.018-5.375-1.859-10.585-5.224-14.776L281.252,249.904z"/>
<path style="fill:#3E8CC7;" d="M337.252,193.904c4.191,3.365,9.401,5.206,14.776,5.224c13.255,0,24-10.745,24-24
	c-0.018-5.375-1.859-10.585-5.224-14.776L337.252,193.904z"/>
<path style="fill:#FFA83D;" d="M337.252,305.904c4.191,3.365,9.401,5.206,14.776,5.224c13.255,0,24-10.745,24-24
	c-0.018-5.375-1.859-10.585-5.224-14.776L337.252,305.904z"/>
<path style="fill:#CF4031;" d="M393.252,249.904c4.191,3.365,9.401,5.206,14.776,5.224c13.255,0,24-10.745,24-24
	c-0.018-5.375-1.859-10.585-5.224-14.776L393.252,249.904z"/>
<g>
</g>
<g>
</g>
<g>
</g>
<g>
</g>
<g>
</g>
<g>
</g>
<g>
</g>
<g>
</g>
<g>
</g>
<g>
</g>
<g>
</g>
<g>
</g>
<g>
</g>
<g>
</g>
<g>
</g>
</svg>
