<svg xmlns="http://www.w3.org/2000/svg" viewBox="0 0 464.03 464.03"><path d="M352.028 119.176v-.048h-240v.048C49.697 119.638-.458 170.541.003 232.873.465 295.204 51.368 345.36 113.7 344.898a112.864 112.864 0 0079.681-33.77h77.296c43.685 44.457 115.139 45.083 159.596 1.398s45.083-115.139 1.398-159.596a112.858 112.858 0 00-79.643-33.754z" fill="#dedede"/><circle cx="352.028" cy="231.128" r="96" fill="#c7c7c7"/><circle cx="352.028" cy="175.128" r="24" fill="#4398d1"/><circle cx="352.028" cy="287.128" r="24" fill="#fdb62f"/><circle cx="296.028" cy="231.128" r="24" fill="#88b337"/><circle cx="408.028" cy="231.128" r="24" fill="#de4c3c"/><path d="M176.028 207.128h-40v-40h-48v40h-40v48h40v40h48v-40h40v-48z" fill="#737373"/><path d="M88.028 255.128v40h48v-40h40v-48h-40l-48 48z" fill="#666"/><path d="M281.252 249.904a23.727 23.727 0 0014.776 5.224c13.255 0 24-10.745 24-24a23.727 23.727 0 00-5.224-14.776l-33.552 33.552z" fill="#77a61f"/><path d="M337.252 193.904a23.727 23.727 0 0014.776 5.224c13.255 0 24-10.745 24-24a23.727 23.727 0 00-5.224-14.776l-33.552 33.552z" fill="#3e8cc7"/><path d="M337.252 305.904a23.727 23.727 0 0014.776 5.224c13.255 0 24-10.745 24-24a23.727 23.727 0 00-5.224-14.776l-33.552 33.552z" fill="#ffa83d"/><path d="M393.252 249.904a23.727 23.727 0 0014.776 5.224c13.255 0 24-10.745 24-24a23.727 23.727 0 00-5.224-14.776l-33.552 33.552z" fill="#cf4031"/></svg>