<svg xmlns="http://www.w3.org/2000/svg" width="299.021" height="299.021" viewBox="0 0 299.021 299.021"><path d="M292.866 254.432a6.156 6.156 0 01-5.5-3.399c-.354-.684-28.541-52.949-146.169-54.727v51.977a6.146 6.146 0 01-3.432 5.513 6.157 6.157 0 01-6.461-.63L2.417 154.392A6.154 6.154 0 010 149.516c0-1.919.898-3.72 2.417-4.888l128.893-98.77a6.164 6.164 0 016.461-.639 6.14 6.14 0 013.432 5.509v54.776c3.111-.198 7.164-.37 11.947-.37 43.861 0 145.871 13.952 145.871 143.136a6.15 6.15 0 01-4.75 5.993 5.552 5.552 0 01-1.405.169z"/></svg>