<?xml version="1.0" encoding="UTF-8"?>
<svg xmlns="http://www.w3.org/2000/svg" xmlns:xlink="http://www.w3.org/1999/xlink" width="810pt" height="809.999993pt" viewBox="0 0 810 809.999993" version="1.2">
<g id="surface1">
<path style=" stroke:none;fill-rule:nonzero;fill:rgb(94.509888%,69.40918%,84.709167%);fill-opacity:1;" d="M 10.890625 596.46875 C 22.609375 692.792969 209.613281 789.261719 209.613281 789.261719 C 209.613281 789.261719 367.171875 650.03125 356.3125 554.441406 C 350.316406 505.140625 305.289062 469.847656 256.03125 475.839844 C 218.171875 480.445312 188.519531 508.683594 179.722656 543.578125 C 162.816406 511.8125 127.257812 491.507812 89.398438 496.113281 C 40.140625 502.105469 4.890625 547.164062 10.890625 596.46875 "/>
<path style=" stroke:none;fill-rule:nonzero;fill:rgb(94.509888%,69.40918%,84.709167%);fill-opacity:1;" d="M 290.085938 290.957031 C 271.667969 366.332031 384.351562 491.292969 384.351562 491.292969 C 384.351562 491.292969 541.535156 431.589844 560.390625 357.007812 C 569.816406 318.425781 546.089844 279.3125 507.542969 269.894531 C 477.917969 262.65625 447.761719 275.414062 431.332031 299.035156 C 427.652344 270.5 406.773438 245.269531 377.148438 238.03125 C 338.605469 228.613281 299.511719 252.375 290.085938 290.957031 "/>
<path style=" stroke:none;fill-rule:nonzero;fill:rgb(94.509888%,69.40918%,84.709167%);fill-opacity:1;" d="M 182.679688 77.121094 C 188.441406 137.890625 304.433594 201.671875 304.433594 201.671875 C 304.433594 201.671875 405.832031 116.738281 400.597656 56.449219 C 397.644531 25.34375 369.917969 2.402344 338.84375 5.351562 C 314.960938 7.617188 295.839844 24.878906 289.730469 46.675781 C 279.628906 26.417969 257.605469 13.054688 233.71875 15.320312 C 202.644531 18.269531 179.726562 46.019531 182.679688 77.121094 "/>
</g>
</svg>
