<?xml version="1.0" encoding="UTF-8"?>
<svg xmlns="http://www.w3.org/2000/svg" xmlns:xlink="http://www.w3.org/1999/xlink" width="1440pt" height="809.999993pt" viewBox="0 0 1440 809.999993" version="1.2">
<defs>
<clipPath id="clip1">
  <path d="M 322.585938 200.703125 L 498.835938 200.703125 L 498.835938 322.203125 L 322.585938 322.203125 Z M 322.585938 200.703125 "/>
</clipPath>
<clipPath id="clip2">
  <path d="M 639 0 L 803 0 L 803 5 L 639 5 Z M 639 0 "/>
</clipPath>
<clipPath id="clip3">
  <path d="M 638.113281 -115.507812 L 800.035156 -120.5 L 803.777344 0.945312 L 641.855469 5.933594 Z M 638.113281 -115.507812 "/>
</clipPath>
<clipPath id="clip4">
  <path d="M 638.113281 -115.507812 L 800.035156 -120.5 L 803.777344 0.945312 L 641.855469 5.933594 Z M 638.113281 -115.507812 "/>
</clipPath>
</defs>
<g id="surface1">
<rect x="0" y="0" width="1440" height="809.999993" style="fill:rgb(100%,100%,100%);fill-opacity:1;stroke:none;"/>
<rect x="0" y="0" width="1440" height="809.999993" style="fill:rgb(100%,100%,100%);fill-opacity:1;stroke:none;"/>
<rect x="0" y="0" width="1440" height="809.999993" style="fill:rgb(65.489197%,87.449646%,100%);fill-opacity:1;stroke:none;"/>
<path id="dinogotchi__inside__cloud_one" style=" stroke:none;fill-rule:nonzero;fill:rgb(100%,100%,100%);fill-opacity:1;" d="M 461.03125 230.132812 C 458.292969 230.132812 455.640625 230.457031 453.074219 231.027344 C 449.738281 214.417969 435.0625 201.90625 417.453125 201.90625 C 399.628906 201.90625 384.828125 214.742188 381.738281 231.660156 C 381.53125 231.65625 381.324219 231.628906 381.113281 231.628906 C 366.8125 231.628906 354.855469 241.535156 351.65625 254.84375 C 350.867188 254.769531 350.074219 254.722656 349.265625 254.722656 C 335.339844 254.722656 324.050781 266.003906 324.050781 279.917969 C 324.050781 293.828125 335.339844 305.109375 349.265625 305.109375 C 354.835938 305.109375 359.964844 303.28125 364.136719 300.226562 C 367.484375 310.214844 376.910156 317.421875 388.03125 317.421875 C 396.707031 317.421875 404.355469 313.046875 408.894531 306.378906 C 413.230469 315.039062 422.164062 320.996094 432.511719 320.996094 C 444.320312 320.996094 454.3125 313.253906 457.695312 302.574219 C 458.796875 302.675781 459.90625 302.742188 461.03125 302.742188 C 481.101562 302.742188 497.371094 286.488281 497.371094 266.433594 C 497.371094 246.382812 481.101562 230.132812 461.03125 230.132812 "/>
<path style=" stroke:none;fill-rule:nonzero;fill:rgb(78.039551%,100%,91.758728%);fill-opacity:1;" d="M 0.0273438 0 L 658.21875 0 L 658.21875 209.695312 L 0.0273438 209.695312 Z M 0.0273438 0 "/>
<path id="dinogotchi__inside__cloud_two" style=" stroke:none;fill-rule:nonzero;fill:rgb(100%,100%,100%);fill-opacity:1;" d="M 588.917969 425.441406 C 588.917969 425.441406 592.945312 409.917969 614.351562 406.265625 C 635.761719 402.613281 650.03125 418.136719 650.03125 418.136719 C 650.03125 418.136719 655.886719 405.535156 676.195312 413.9375 C 696.507812 422.335938 693.761719 440.050781 693.761719 440.050781 C 693.761719 440.050781 705.289062 438.40625 708.582031 450.460938 C 711.875 462.515625 704.921875 469.273438 699.800781 470.914062 C 699.800781 470.914062 692.664062 485.34375 672.71875 475.664062 C 672.71875 475.664062 672.535156 482.605469 661.925781 485.527344 C 651.3125 488.449219 644.542969 482.421875 644.542969 482.421875 C 644.542969 482.421875 637.953125 490.824219 628.441406 481.875 C 628.441406 481.875 625.332031 490.273438 611.058594 488.8125 C 596.785156 487.351562 595.140625 474.933594 595.140625 474.933594 C 595.140625 474.933594 583.246094 486.4375 563.304688 479.683594 C 543.359375 472.925781 546.46875 464.523438 546.46875 464.523438 C 546.46875 464.523438 529.636719 467.996094 525.609375 457.402344 C 521.585938 446.808594 541.53125 428.910156 554.335938 438.40625 C 554.335938 438.40625 556.167969 430.375 565.679688 423.980469 C 575.195312 417.589844 588.917969 425.441406 588.917969 425.441406 Z M 588.917969 425.441406 "/>
<path style=" stroke:none;fill-rule:nonzero;fill:rgb(78.039551%,100%,91.758728%);fill-opacity:1;" d="M 656.945312 0 L 1439.027344 0 L 1439.027344 686.621094 L 656.945312 686.621094 Z M 656.945312 0 "/>
<path style=" stroke:none;fill-rule:nonzero;fill:rgb(78.039551%,100%,91.758728%);fill-opacity:1;" d="M 0.0195312 491.246094 L 658.160156 491.246094 L 658.160156 688.046875 L 0.0195312 688.046875 Z M 0.0195312 491.246094 "/>
<path style=" stroke:none;fill-rule:nonzero;fill:rgb(70.588684%,55.288696%,43.139648%);fill-opacity:1;" d="M 0.0546875 685.257812 L 1439.910156 685.257812 L 1439.910156 813.992188 L 0.0546875 813.992188 Z M 0.0546875 685.257812 "/>
<path style="fill:none;stroke-width:1;stroke-linecap:butt;stroke-linejoin:miter;stroke:rgb(89.408875%,100%,96.078491%);stroke-opacity:1;stroke-miterlimit:4;" d="M 0.000209582 0.000235035 L 27.719482 0.000235035 " transform="matrix(0.000000000000000459,7.494926,-7.5,0.000000000000000459,585.595513,1.381242)"/>
<path style="fill:none;stroke-width:1;stroke-linecap:butt;stroke-linejoin:miter;stroke:rgb(89.408875%,100%,96.078491%);stroke-opacity:1;stroke-miterlimit:4;" d="M 0.000169918 -0.0000858636 L 28.025694 -0.0000858636 " transform="matrix(0.000000000000000459,7.493309,-7.5,0.000000000000000459,436.284512,1.381539)"/>
<path style="fill:none;stroke-width:1;stroke-linecap:round;stroke-linejoin:miter;stroke:rgb(65.098572%,49.01886%,36.079407%);stroke-opacity:1;stroke-miterlimit:4;" d="M 0.499996 -0.00083249 L 959.500044 -0.00083249 " transform="matrix(1.5,0,0,1.5,0.00000622222,730.790311)"/>
<path style="fill:none;stroke-width:1;stroke-linecap:round;stroke-linejoin:miter;stroke:rgb(65.098572%,49.01886%,36.079407%);stroke-opacity:1;stroke-miterlimit:4;" d="M 0.499996 -0.000282493 L 959.500044 -0.000282493 " transform="matrix(1.5,0,0,1.5,0.00000622222,775.426205)"/>
<path style="fill:none;stroke-width:1;stroke-linecap:round;stroke-linejoin:miter;stroke:rgb(65.098572%,49.01886%,36.079407%);stroke-opacity:1;stroke-miterlimit:4;" d="M 0.499909 -0.00082654 L 28.755802 -0.00082654 " transform="matrix(0.000000000000000093,1.512821,-1.5,0.000000000000000092,497.576885,686.149977)"/>
<path style="fill:none;stroke-width:1;stroke-linecap:round;stroke-linejoin:miter;stroke:rgb(65.098572%,49.01886%,36.079407%);stroke-opacity:1;stroke-miterlimit:4;" d="M 0.500929 0.00129677 L 28.756821 0.00129677 " transform="matrix(0.000000000000000093,1.512821,-1.5,0.000000000000000092,965.509758,687.660153)"/>
<path style="fill:none;stroke-width:1;stroke-linecap:round;stroke-linejoin:miter;stroke:rgb(65.098572%,49.01886%,36.079407%);stroke-opacity:1;stroke-miterlimit:4;" d="M 0.499304 -0.000901725 L 28.757779 -0.000901725 " transform="matrix(0.000000000000000093,1.512821,-1.5,0.000000000000000092,721.72521,731.545423)"/>
<path style="fill:none;stroke-width:1;stroke-linecap:round;stroke-linejoin:miter;stroke:rgb(65.098572%,49.01886%,36.079407%);stroke-opacity:1;stroke-miterlimit:4;" d="M 0.49985 -0.000442565 L 28.755742 -0.000442565 " transform="matrix(0.000000000000000093,1.512821,-1.5,0.000000000000000092,498.327461,776.181317)"/>
<path style="fill:none;stroke-width:1;stroke-linecap:round;stroke-linejoin:miter;stroke:rgb(65.098572%,49.01886%,36.079407%);stroke-opacity:1;stroke-miterlimit:4;" d="M 0.500884 -0.00125473 L 23.135903 -0.00125473 " transform="matrix(0.000000000000000091,1.49157,-1.5,0.000000000000000092,498.330149,776.178677)"/>
<path style="fill:none;stroke-width:1;stroke-linecap:round;stroke-linejoin:miter;stroke:rgb(65.098572%,49.01886%,36.079407%);stroke-opacity:1;stroke-miterlimit:4;" d="M 0.500884 -0.00125562 L 23.135903 -0.00125562 " transform="matrix(0.000000000000000091,1.49157,-1.5,0.000000000000000092,967.013742,776.178677)"/>
<path style="fill:none;stroke-width:1;stroke-linecap:round;stroke-linejoin:miter;stroke:rgb(81.959534%,74.508667%,68.629456%);stroke-opacity:1;stroke-miterlimit:4;" d="M 0.500093 0.000172424 L 23.133448 0.000172424 " transform="matrix(0.00000000000000069,11.265867,-11.249999,0.000000000000000689,515.947252,217.319145)"/>
<path style="fill:none;stroke-width:1;stroke-linecap:round;stroke-linejoin:miter;stroke:rgb(81.959534%,74.508667%,68.629456%);stroke-opacity:1;stroke-miterlimit:4;" d="M 0.50016 -0.000103086 L 23.133515 -0.000103086 " transform="matrix(-11.265867,-0.00000000000000138,0.000000000000001378,-11.249999,648.884734,350.256653)"/>
<path style="fill:none;stroke-width:1;stroke-linecap:butt;stroke-linejoin:miter;stroke:rgb(89.408875%,100%,96.078491%);stroke-opacity:1;stroke-miterlimit:4;" d="M -0.000120634 0.0000203303 L 91.183219 0.0000203303 " transform="matrix(0.000000000000000459,7.501413,-7.5,0.000000000000000459,1008.672027,1.379811)"/>
<path style="fill:none;stroke-width:1;stroke-linecap:butt;stroke-linejoin:miter;stroke:rgb(89.408875%,100%,96.078491%);stroke-opacity:1;stroke-miterlimit:4;" d="M -0.000120634 0.000126559 L 91.183219 0.000126559 " transform="matrix(0.000000000000000459,7.501413,-7.5,0.000000000000000459,865.274387,1.379811)"/>
<path style="fill:none;stroke-width:1;stroke-linecap:butt;stroke-linejoin:miter;stroke:rgb(89.408875%,100%,96.078491%);stroke-opacity:1;stroke-miterlimit:4;" d="M -0.000120634 -0.000187227 L 91.183219 -0.000187227 " transform="matrix(0.000000000000000459,7.501413,-7.5,0.000000000000000459,728.99469,1.379811)"/>

<g id="dinogotchi__inside__paiting" class="painting">
  <path style="fill:none;stroke-width:1;stroke-linecap:round;stroke-linejoin:miter;stroke:rgb(0%,0%,0%);stroke-opacity:1;stroke-miterlimit:4;" d="M 0.500004 0.000282723 L 22.577091 -0.000227914 " transform="matrix(3.418101,-1.512554,1.517486,3.429247,854.571755,173.161564)"/>
  <path style="fill:none;stroke-width:1;stroke-linecap:round;stroke-linejoin:miter;stroke:rgb(0%,0%,0%);stroke-opacity:1;stroke-miterlimit:4;" d="M 0.49964 0.000161691 L 21.25279 -0.0000809682 " transform="matrix(-3.453901,-1.482496,1.479096,-3.445979,1008.655155,172.870178)"/>
  <path style=" stroke:none;fill-rule:nonzero;fill:rgb(54.508972%,43.919373%,35.688782%);fill-opacity:1;" d="M 830.597656 170.46875 L 1030.796875 170.46875 L 1030.796875 311.082031 L 830.597656 311.082031 Z M 830.597656 170.46875 "/>
  <path style=" stroke:none;fill-rule:nonzero;fill:rgb(100%,98.81897%,96.078491%);fill-opacity:1;" d="M 1007.546875 301.078125 L 853.941406 301.078125 C 847.617188 301.078125 842.460938 295.921875 842.460938 289.59375 L 842.460938 191.917969 C 842.460938 185.589844 847.617188 180.433594 853.941406 180.433594 L 1007.546875 180.433594 C 1013.871094 180.433594 1019.027344 185.589844 1019.027344 191.917969 L 1019.027344 289.59375 C 1019.027344 295.921875 1013.871094 301.078125 1007.546875 301.078125 Z M 1007.546875 301.078125 "/>
  <path style=" stroke:none;fill-rule:nonzero;fill:rgb(53.729248%,74.899292%,44.309998%);fill-opacity:1;" d="M 949.132812 267.289062 L 983.90625 263.199219 L 963.28125 234.90625 Z M 949.132812 267.289062 "/>
  <path style=" stroke:none;fill-rule:nonzero;fill:rgb(53.729248%,74.899292%,44.309998%);fill-opacity:1;" d="M 926.023438 238.039062 C 925.761719 238.636719 925.535156 239.246094 925.339844 239.871094 C 925.148438 240.492188 924.988281 241.125 924.863281 241.769531 C 924.738281 242.414062 924.652344 243.0625 924.597656 243.71875 C 924.542969 244.378906 924.523438 245.039062 924.542969 245.703125 C 924.558594 246.367188 924.613281 247.035156 924.699219 247.699219 C 924.789062 248.367188 924.910156 249.027344 925.066406 249.6875 C 925.226562 250.347656 925.417969 251.003906 925.644531 251.652344 C 925.871094 252.300781 926.128906 252.941406 926.421875 253.574219 C 926.714844 254.203125 927.039062 254.824219 927.398438 255.429688 C 927.753906 256.035156 928.140625 256.628906 928.554688 257.207031 C 928.972656 257.78125 929.414062 258.339844 929.886719 258.882812 C 930.359375 259.425781 930.859375 259.945312 931.382812 260.449219 C 931.90625 260.949219 932.453125 261.425781 933.023438 261.882812 C 933.59375 262.335938 934.183594 262.769531 934.792969 263.175781 C 935.40625 263.578125 936.035156 263.957031 936.679688 264.3125 C 937.324219 264.664062 937.988281 264.988281 938.660156 265.28125 C 939.335938 265.574219 940.023438 265.839844 940.71875 266.074219 C 941.417969 266.3125 942.121094 266.515625 942.835938 266.6875 C 943.546875 266.859375 944.265625 267 944.988281 267.109375 C 945.707031 267.21875 946.429688 267.292969 947.152344 267.339844 C 947.878906 267.382812 948.597656 267.394531 949.316406 267.371094 C 950.035156 267.351562 950.746094 267.296875 951.453125 267.210938 C 952.160156 267.121094 952.855469 267.003906 953.542969 266.851562 C 954.230469 266.703125 954.90625 266.519531 955.566406 266.304688 C 956.230469 266.09375 956.875 265.847656 957.503906 265.574219 C 958.132812 265.296875 958.746094 264.996094 959.335938 264.660156 C 959.929688 264.328125 960.5 263.96875 961.046875 263.582031 C 961.597656 263.191406 962.121094 262.78125 962.621094 262.339844 C 963.117188 261.902344 963.589844 261.4375 964.039062 260.953125 C 964.484375 260.464844 964.898438 259.960938 965.289062 259.429688 C 965.675781 258.902344 966.03125 258.355469 966.359375 257.789062 C 966.683594 257.226562 966.976562 256.644531 967.238281 256.046875 C 967.5 255.449219 967.726562 254.839844 967.917969 254.214844 C 968.113281 253.589844 968.273438 252.957031 968.398438 252.316406 C 968.519531 251.671875 968.609375 251.019531 968.664062 250.363281 C 968.71875 249.707031 968.734375 249.046875 968.71875 248.382812 C 968.703125 247.714844 968.648438 247.050781 968.5625 246.386719 C 968.472656 245.71875 968.351562 245.054688 968.191406 244.394531 C 968.035156 243.734375 967.84375 243.082031 967.617188 242.429688 C 967.390625 241.78125 967.128906 241.144531 966.835938 240.511719 C 966.542969 239.882812 966.21875 239.261719 965.863281 238.65625 C 965.507812 238.046875 965.121094 237.457031 964.707031 236.878906 C 964.289062 236.300781 963.84375 235.742188 963.371094 235.203125 C 962.898438 234.660156 962.402344 234.136719 961.878906 233.636719 C 961.355469 233.136719 960.808594 232.65625 960.238281 232.203125 C 959.667969 231.746094 959.078125 231.316406 958.464844 230.910156 C 957.855469 230.503906 957.226562 230.125 956.582031 229.773438 C 955.933594 229.421875 955.273438 229.097656 954.597656 228.804688 C 953.925781 228.507812 953.238281 228.242188 952.539062 228.007812 C 951.84375 227.773438 951.136719 227.570312 950.425781 227.398438 C 949.710938 227.222656 948.996094 227.082031 948.273438 226.976562 C 947.550781 226.867188 946.828125 226.789062 946.105469 226.746094 C 945.382812 226.703125 944.660156 226.691406 943.945312 226.710938 C 943.226562 226.734375 942.511719 226.789062 941.808594 226.875 C 941.101562 226.960938 940.402344 227.082031 939.71875 227.230469 C 939.03125 227.382812 938.355469 227.566406 937.691406 227.777344 C 937.03125 227.992188 936.386719 228.238281 935.753906 228.511719 C 935.125 228.785156 934.515625 229.089844 933.921875 229.421875 C 933.332031 229.753906 932.761719 230.117188 932.210938 230.503906 C 931.664062 230.890625 931.140625 231.304688 930.640625 231.742188 C 930.140625 232.183594 929.667969 232.644531 929.222656 233.132812 C 928.777344 233.617188 928.359375 234.125 927.972656 234.652344 C 927.585938 235.179688 927.230469 235.726562 926.902344 236.292969 C 926.578125 236.859375 926.285156 237.441406 926.023438 238.039062 Z M 926.023438 238.039062 "/>
  <path style=" stroke:none;fill-rule:nonzero;fill:rgb(53.729248%,74.899292%,44.309998%);fill-opacity:1;" d="M 956.023438 215.488281 L 948.0625 181.390625 L 922.257812 205.058594 Z M 956.023438 215.488281 "/>
  <path style=" stroke:none;fill-rule:nonzero;fill:rgb(53.729248%,74.899292%,44.309998%);fill-opacity:1;" d="M 929.546875 241.730469 C 930.171875 241.925781 930.800781 242.082031 931.441406 242.203125 C 932.085938 242.328125 932.730469 242.414062 933.382812 242.464844 C 934.039062 242.515625 934.695312 242.53125 935.351562 242.511719 C 936.011719 242.492188 936.671875 242.4375 937.328125 242.34375 C 937.988281 242.253906 938.644531 242.125 939.296875 241.964844 C 939.945312 241.800781 940.59375 241.605469 941.230469 241.375 C 941.871094 241.144531 942.5 240.878906 943.117188 240.582031 C 943.738281 240.285156 944.34375 239.953125 944.9375 239.59375 C 945.53125 239.230469 946.109375 238.839844 946.675781 238.417969 C 947.238281 237.996094 947.78125 237.542969 948.308594 237.066406 C 948.835938 236.589844 949.34375 236.085938 949.828125 235.554688 C 950.3125 235.023438 950.773438 234.472656 951.214844 233.894531 C 951.652344 233.316406 952.066406 232.722656 952.457031 232.101562 C 952.84375 231.484375 953.207031 230.851562 953.542969 230.199219 C 953.875 229.546875 954.183594 228.878906 954.460938 228.195312 C 954.738281 227.515625 954.984375 226.824219 955.203125 226.117188 C 955.417969 225.414062 955.605469 224.703125 955.761719 223.984375 C 955.914062 223.265625 956.039062 222.542969 956.132812 221.8125 C 956.222656 221.085938 956.28125 220.359375 956.308594 219.628906 C 956.335938 218.898438 956.332031 218.171875 956.292969 217.449219 C 956.257812 216.726562 956.1875 216.007812 956.085938 215.296875 C 955.984375 214.585938 955.847656 213.882812 955.683594 213.191406 C 955.519531 212.5 955.324219 211.820312 955.09375 211.15625 C 954.867188 210.488281 954.613281 209.839844 954.324219 209.203125 C 954.039062 208.570312 953.722656 207.957031 953.378906 207.363281 C 953.035156 206.765625 952.664062 206.195312 952.269531 205.640625 C 951.871094 205.089844 951.449219 204.566406 951.003906 204.0625 C 950.554688 203.5625 950.085938 203.089844 949.59375 202.640625 C 949.101562 202.195312 948.589844 201.777344 948.054688 201.386719 C 947.523438 201 946.972656 200.640625 946.402344 200.316406 C 945.835938 199.992188 945.25 199.699219 944.652344 199.4375 C 944.054688 199.175781 943.445312 198.949219 942.820312 198.757812 C 942.199219 198.566406 941.566406 198.40625 940.925781 198.285156 C 940.285156 198.164062 939.636719 198.074219 938.984375 198.023438 C 938.332031 197.972656 937.675781 197.957031 937.015625 197.976562 C 936.355469 197.996094 935.695312 198.054688 935.039062 198.144531 C 934.378906 198.238281 933.726562 198.363281 933.074219 198.527344 C 932.421875 198.6875 931.777344 198.882812 931.136719 199.117188 C 930.5 199.347656 929.871094 199.609375 929.25 199.910156 C 928.632812 200.207031 928.023438 200.535156 927.429688 200.898438 C 926.835938 201.257812 926.257812 201.652344 925.695312 202.074219 C 925.132812 202.496094 924.585938 202.945312 924.058594 203.421875 C 923.53125 203.902344 923.027344 204.40625 922.542969 204.933594 C 922.054688 205.464844 921.59375 206.019531 921.15625 206.59375 C 920.714844 207.171875 920.300781 207.769531 919.914062 208.386719 C 919.523438 209.003906 919.160156 209.640625 918.828125 210.292969 C 918.492188 210.945312 918.1875 211.609375 917.910156 212.292969 C 917.632812 212.972656 917.382812 213.667969 917.167969 214.371094 C 916.949219 215.074219 916.761719 215.785156 916.609375 216.503906 C 916.453125 217.222656 916.328125 217.949219 916.238281 218.675781 C 916.144531 219.402344 916.085938 220.132812 916.058594 220.859375 C 916.03125 221.589844 916.035156 222.316406 916.074219 223.039062 C 916.113281 223.765625 916.183594 224.480469 916.285156 225.191406 C 916.386719 225.90625 916.519531 226.605469 916.683594 227.296875 C 916.851562 227.988281 917.046875 228.667969 917.273438 229.335938 C 917.5 230 917.757812 230.652344 918.042969 231.285156 C 918.332031 231.917969 918.644531 232.53125 918.988281 233.128906 C 919.332031 233.722656 919.703125 234.296875 920.101562 234.847656 C 920.496094 235.398438 920.917969 235.925781 921.367188 236.425781 C 921.8125 236.925781 922.28125 237.402344 922.773438 237.847656 C 923.265625 238.296875 923.78125 238.714844 924.3125 239.101562 C 924.84375 239.488281 925.394531 239.847656 925.964844 240.171875 C 926.53125 240.5 927.117188 240.792969 927.714844 241.050781 C 928.3125 241.3125 928.925781 241.539062 929.546875 241.730469 Z M 929.546875 241.730469 "/>
  <path style=" stroke:none;fill-rule:nonzero;fill:rgb(79.60968%,68.629456%,91.758728%);fill-opacity:1;" d="M 891.355469 217.910156 C 890.878906 218.382812 890.453125 218.902344 890.082031 219.460938 C 889.707031 220.019531 889.390625 220.609375 889.132812 221.230469 C 888.878906 221.851562 888.683594 222.492188 888.550781 223.148438 C 888.421875 223.808594 888.355469 224.476562 888.355469 225.148438 C 888.355469 225.820312 888.421875 226.484375 888.550781 227.144531 C 888.683594 227.804688 888.878906 228.445312 889.132812 229.066406 C 889.390625 229.6875 889.707031 230.277344 890.082031 230.835938 C 890.453125 231.394531 890.878906 231.910156 891.355469 232.386719 C 891.828125 232.859375 892.347656 233.285156 892.90625 233.660156 C 893.464844 234.03125 894.054688 234.347656 894.675781 234.605469 C 895.296875 234.863281 895.9375 235.054688 896.59375 235.1875 C 897.253906 235.320312 897.921875 235.382812 898.59375 235.382812 C 899.265625 235.382812 899.929688 235.320312 900.589844 235.1875 C 901.25 235.054688 901.890625 234.863281 902.511719 234.605469 C 903.132812 234.347656 903.722656 234.03125 904.28125 233.660156 C 904.839844 233.285156 905.355469 232.859375 905.832031 232.386719 C 906.304688 231.910156 906.730469 231.394531 907.105469 230.835938 C 907.476562 230.277344 907.792969 229.6875 908.050781 229.066406 C 908.308594 228.445312 908.5 227.804688 908.632812 227.144531 C 908.765625 226.484375 908.828125 225.820312 908.828125 225.148438 C 908.828125 224.476562 908.765625 223.808594 908.632812 223.148438 C 908.5 222.492188 908.308594 221.851562 908.050781 221.230469 C 907.792969 220.609375 907.476562 220.019531 907.105469 219.460938 C 906.730469 218.902344 906.304688 218.382812 905.832031 217.910156 C 905.355469 217.433594 904.839844 217.007812 904.28125 216.636719 C 903.722656 216.261719 903.132812 215.945312 902.511719 215.6875 C 901.890625 215.433594 901.25 215.238281 900.589844 215.105469 C 899.929688 214.976562 899.265625 214.910156 898.59375 214.910156 C 897.921875 214.910156 897.253906 214.976562 896.59375 215.105469 C 895.9375 215.238281 895.296875 215.433594 894.675781 215.6875 C 894.054688 215.945312 893.464844 216.261719 892.90625 216.636719 C 892.347656 217.007812 891.828125 217.433594 891.355469 217.910156 Z M 891.355469 217.910156 "/>
  <path style=" stroke:none;fill-rule:nonzero;fill:rgb(79.60968%,68.629456%,91.758728%);fill-opacity:1;" d="M 900.992188 208.269531 C 900.519531 208.742188 900.09375 209.261719 899.722656 209.820312 C 899.347656 210.378906 899.03125 210.96875 898.773438 211.589844 C 898.515625 212.210938 898.324219 212.851562 898.191406 213.511719 C 898.0625 214.167969 897.996094 214.835938 897.996094 215.507812 C 897.996094 216.179688 898.0625 216.84375 898.191406 217.503906 C 898.324219 218.164062 898.515625 218.804688 898.773438 219.425781 C 899.03125 220.046875 899.347656 220.636719 899.722656 221.195312 C 900.09375 221.753906 900.519531 222.269531 900.992188 222.746094 C 901.46875 223.222656 901.984375 223.644531 902.546875 224.019531 C 903.105469 224.390625 903.695312 224.707031 904.316406 224.964844 C 904.9375 225.222656 905.574219 225.417969 906.234375 225.546875 C 906.894531 225.679688 907.558594 225.742188 908.234375 225.742188 C 908.90625 225.742188 909.570312 225.679688 910.230469 225.546875 C 910.890625 225.417969 911.527344 225.222656 912.148438 224.964844 C 912.769531 224.707031 913.359375 224.390625 913.917969 224.019531 C 914.480469 223.644531 914.996094 223.222656 915.472656 222.746094 C 915.945312 222.269531 916.371094 221.753906 916.746094 221.195312 C 917.117188 220.636719 917.433594 220.046875 917.691406 219.425781 C 917.949219 218.804688 918.140625 218.164062 918.273438 217.503906 C 918.402344 216.84375 918.46875 216.179688 918.46875 215.507812 C 918.46875 214.835938 918.402344 214.167969 918.273438 213.511719 C 918.140625 212.851562 917.949219 212.210938 917.691406 211.589844 C 917.433594 210.96875 917.117188 210.378906 916.746094 209.820312 C 916.371094 209.261719 915.945312 208.742188 915.472656 208.269531 C 914.996094 207.792969 914.480469 207.367188 913.917969 206.996094 C 913.359375 206.621094 912.769531 206.304688 912.148438 206.050781 C 911.527344 205.792969 910.890625 205.597656 910.230469 205.464844 C 909.570312 205.335938 908.90625 205.269531 908.234375 205.269531 C 907.558594 205.269531 906.894531 205.335938 906.234375 205.464844 C 905.574219 205.597656 904.9375 205.792969 904.316406 206.050781 C 903.695312 206.304688 903.105469 206.621094 902.546875 206.996094 C 901.984375 207.367188 901.46875 207.792969 900.992188 208.269531 Z M 900.992188 208.269531 "/>
  <path style=" stroke:none;fill-rule:nonzero;fill:rgb(79.60968%,68.629456%,91.758728%);fill-opacity:1;" d="M 895.589844 234.976562 L 926.445312 243.390625 L 918.03125 212.539062 Z M 895.589844 234.976562 "/>
  <path style=" stroke:none;fill-rule:nonzero;fill:rgb(79.60968%,68.629456%,91.758728%);fill-opacity:1;" d="M 966.308594 239.65625 C 966.363281 238.984375 966.351562 238.316406 966.277344 237.648438 C 966.199219 236.980469 966.058594 236.328125 965.855469 235.6875 C 965.648438 235.046875 965.382812 234.433594 965.054688 233.847656 C 964.730469 233.257812 964.347656 232.707031 963.914062 232.195312 C 963.480469 231.683594 963 231.21875 962.472656 230.800781 C 961.945312 230.382812 961.382812 230.019531 960.785156 229.710938 C 960.1875 229.402344 959.566406 229.15625 958.921875 228.972656 C 958.273438 228.789062 957.617188 228.667969 956.945312 228.613281 C 956.277344 228.558594 955.609375 228.566406 954.941406 228.644531 C 954.273438 228.722656 953.617188 228.863281 952.976562 229.066406 C 952.339844 229.273438 951.722656 229.539062 951.136719 229.867188 C 950.550781 230.191406 950 230.570312 949.484375 231.007812 C 948.972656 231.441406 948.507812 231.921875 948.089844 232.449219 C 947.671875 232.976562 947.308594 233.535156 947.003906 234.132812 C 946.695312 234.730469 946.449219 235.355469 946.265625 236 C 946.078125 236.648438 945.957031 237.304688 945.902344 237.976562 C 945.847656 238.644531 945.859375 239.3125 945.9375 239.980469 C 946.011719 240.648438 946.152344 241.304688 946.359375 241.941406 C 946.5625 242.582031 946.828125 243.195312 947.15625 243.785156 C 947.484375 244.371094 947.863281 244.921875 948.296875 245.433594 C 948.734375 245.949219 949.214844 246.414062 949.738281 246.832031 C 950.265625 247.25 950.828125 247.613281 951.425781 247.917969 C 952.023438 248.226562 952.644531 248.472656 953.292969 248.65625 C 953.9375 248.84375 954.597656 248.960938 955.265625 249.019531 C 955.9375 249.074219 956.605469 249.0625 957.273438 248.984375 C 957.941406 248.910156 958.59375 248.769531 959.234375 248.5625 C 959.875 248.355469 960.488281 248.089844 961.074219 247.765625 C 961.664062 247.4375 962.214844 247.058594 962.726562 246.625 C 963.238281 246.1875 963.703125 245.707031 964.121094 245.183594 C 964.539062 244.65625 964.902344 244.09375 965.210938 243.496094 C 965.519531 242.898438 965.765625 242.277344 965.949219 241.628906 C 966.132812 240.984375 966.253906 240.324219 966.308594 239.65625 Z M 966.308594 239.65625 "/>
  <path style=" stroke:none;fill-rule:nonzero;fill:rgb(79.60968%,68.629456%,91.758728%);fill-opacity:1;" d="M 965.191406 253.242188 C 965.246094 252.574219 965.234375 251.902344 965.15625 251.234375 C 965.082031 250.566406 964.941406 249.914062 964.734375 249.273438 C 964.527344 248.632812 964.261719 248.019531 963.9375 247.433594 C 963.609375 246.84375 963.230469 246.296875 962.796875 245.78125 C 962.359375 245.269531 961.878906 244.804688 961.355469 244.386719 C 960.828125 243.96875 960.265625 243.605469 959.667969 243.296875 C 959.070312 242.992188 958.449219 242.746094 957.800781 242.558594 C 957.15625 242.375 956.496094 242.253906 955.828125 242.199219 C 955.15625 242.144531 954.488281 242.15625 953.820312 242.230469 C 953.152344 242.308594 952.5 242.449219 951.859375 242.65625 C 951.21875 242.859375 950.605469 243.125 950.019531 243.453125 C 949.429688 243.777344 948.878906 244.160156 948.367188 244.59375 C 947.855469 245.027344 947.390625 245.507812 946.972656 246.035156 C 946.554688 246.5625 946.191406 247.125 945.882812 247.722656 C 945.574219 248.320312 945.328125 248.941406 945.144531 249.585938 C 944.960938 250.234375 944.839844 250.890625 944.785156 251.5625 C 944.730469 252.230469 944.738281 252.902344 944.816406 253.570312 C 944.894531 254.234375 945.035156 254.890625 945.238281 255.53125 C 945.445312 256.171875 945.710938 256.785156 946.039062 257.371094 C 946.363281 257.960938 946.742188 258.507812 947.179688 259.023438 C 947.613281 259.535156 948.09375 260 948.621094 260.417969 C 949.148438 260.835938 949.707031 261.199219 950.304688 261.507812 C 950.902344 261.8125 951.527344 262.058594 952.171875 262.246094 C 952.820312 262.429688 953.476562 262.550781 954.148438 262.605469 C 954.816406 262.660156 955.484375 262.648438 956.152344 262.574219 C 956.820312 262.496094 957.476562 262.355469 958.113281 262.148438 C 958.753906 261.945312 959.367188 261.679688 959.957031 261.351562 C 960.542969 261.027344 961.09375 260.644531 961.605469 260.210938 C 962.121094 259.777344 962.585938 259.296875 963.003906 258.769531 C 963.421875 258.242188 963.785156 257.679688 964.089844 257.082031 C 964.398438 256.484375 964.644531 255.863281 964.828125 255.21875 C 965.015625 254.570312 965.132812 253.914062 965.191406 253.242188 Z M 965.191406 253.242188 "/>
  <path style=" stroke:none;fill-rule:nonzero;fill:rgb(79.60968%,68.629456%,91.758728%);fill-opacity:1;" d="M 952.039062 229.378906 L 923.0625 242.910156 L 949.433594 261.003906 Z M 952.039062 229.378906 "/>
  <path style=" stroke:none;fill-rule:nonzero;fill:rgb(79.60968%,68.629456%,91.758728%);fill-opacity:1;" d="M 935.726562 202.613281 C 935.105469 202.351562 934.464844 202.152344 933.808594 202.019531 C 933.148438 201.882812 932.484375 201.816406 931.8125 201.8125 C 931.140625 201.808594 930.472656 201.867188 929.8125 201.996094 C 929.152344 202.125 928.511719 202.3125 927.890625 202.566406 C 927.265625 202.820312 926.675781 203.132812 926.113281 203.503906 C 925.554688 203.875 925.035156 204.292969 924.554688 204.765625 C 924.078125 205.238281 923.652344 205.753906 923.273438 206.3125 C 922.898438 206.867188 922.578125 207.457031 922.316406 208.074219 C 922.058594 208.695312 921.859375 209.335938 921.722656 209.992188 C 921.589844 210.652344 921.519531 211.316406 921.515625 211.988281 C 921.511719 212.660156 921.574219 213.328125 921.699219 213.988281 C 921.828125 214.648438 922.019531 215.289062 922.273438 215.910156 C 922.527344 216.53125 922.835938 217.125 923.207031 217.6875 C 923.578125 218.246094 924 218.765625 924.472656 219.246094 C 924.945312 219.722656 925.460938 220.148438 926.015625 220.527344 C 926.574219 220.902344 927.160156 221.222656 927.78125 221.484375 C 928.398438 221.742188 929.039062 221.941406 929.695312 222.078125 C 930.355469 222.210938 931.019531 222.28125 931.691406 222.285156 C 932.367188 222.289062 933.03125 222.226562 933.691406 222.097656 C 934.351562 221.972656 934.992188 221.78125 935.613281 221.527344 C 936.238281 221.273438 936.828125 220.960938 937.390625 220.59375 C 937.953125 220.222656 938.472656 219.800781 938.949219 219.328125 C 939.425781 218.855469 939.855469 218.339844 940.230469 217.785156 C 940.609375 217.226562 940.925781 216.640625 941.1875 216.019531 C 941.449219 215.402344 941.644531 214.761719 941.78125 214.101562 C 941.914062 213.445312 941.984375 212.777344 941.988281 212.105469 C 941.992188 211.433594 941.929688 210.769531 941.804688 210.109375 C 941.675781 209.449219 941.488281 208.808594 941.234375 208.183594 C 940.980469 207.5625 940.667969 206.972656 940.296875 206.410156 C 939.925781 205.847656 939.503906 205.328125 939.03125 204.851562 C 938.558594 204.375 938.046875 203.945312 937.488281 203.570312 C 936.933594 203.191406 936.34375 202.875 935.726562 202.613281 Z M 935.726562 202.613281 "/>
  <path style=" stroke:none;fill-rule:nonzero;fill:rgb(79.60968%,68.629456%,91.758728%);fill-opacity:1;" d="M 948.289062 207.902344 C 947.671875 207.640625 947.03125 207.445312 946.371094 207.308594 C 945.714844 207.175781 945.046875 207.105469 944.375 207.101562 C 943.703125 207.097656 943.039062 207.160156 942.378906 207.285156 C 941.71875 207.414062 941.078125 207.605469 940.453125 207.859375 C 939.832031 208.109375 939.242188 208.421875 938.679688 208.792969 C 938.117188 209.164062 937.597656 209.585938 937.121094 210.058594 C 936.644531 210.53125 936.214844 211.042969 935.839844 211.601562 C 935.460938 212.15625 935.144531 212.746094 934.882812 213.367188 C 934.621094 213.984375 934.421875 214.625 934.289062 215.28125 C 934.152344 215.941406 934.085938 216.605469 934.082031 217.277344 C 934.078125 217.949219 934.136719 218.617188 934.265625 219.277344 C 934.394531 219.9375 934.582031 220.578125 934.835938 221.199219 C 935.089844 221.824219 935.402344 222.414062 935.773438 222.976562 C 936.144531 223.535156 936.5625 224.054688 937.035156 224.535156 C 937.507812 225.011719 938.023438 225.441406 938.582031 225.816406 C 939.136719 226.191406 939.726562 226.511719 940.34375 226.773438 C 940.964844 227.035156 941.605469 227.230469 942.261719 227.367188 C 942.921875 227.5 943.585938 227.570312 944.257812 227.574219 C 944.929688 227.578125 945.597656 227.515625 946.257812 227.390625 C 946.917969 227.261719 947.558594 227.070312 948.179688 226.816406 C 948.800781 226.5625 949.394531 226.253906 949.957031 225.882812 C 950.515625 225.511719 951.035156 225.089844 951.515625 224.617188 C 951.992188 224.144531 952.417969 223.632812 952.796875 223.074219 C 953.171875 222.515625 953.492188 221.929688 953.753906 221.308594 C 954.011719 220.691406 954.210938 220.050781 954.347656 219.394531 C 954.480469 218.734375 954.550781 218.070312 954.554688 217.398438 C 954.558594 216.726562 954.496094 216.058594 954.367188 215.398438 C 954.242188 214.738281 954.050781 214.097656 953.796875 213.476562 C 953.542969 212.851562 953.230469 212.261719 952.863281 211.699219 C 952.492188 211.140625 952.070312 210.621094 951.597656 210.140625 C 951.125 209.664062 950.609375 209.234375 950.054688 208.859375 C 949.496094 208.480469 948.910156 208.164062 948.289062 207.902344 Z M 948.289062 207.902344 "/>
  <path style=" stroke:none;fill-rule:nonzero;fill:rgb(79.60968%,68.629456%,91.758728%);fill-opacity:1;" d="M 921.519531 212.976562 L 925.367188 244.726562 L 950.765625 225.289062 Z M 921.519531 212.976562 "/>
  <path style=" stroke:none;fill-rule:nonzero;fill:rgb(79.60968%,68.629456%,91.758728%);fill-opacity:1;" d="M 936.410156 282.203125 C 937.082031 282.136719 937.734375 282.003906 938.378906 281.808594 C 939.023438 281.613281 939.640625 281.359375 940.234375 281.039062 C 940.824219 280.722656 941.382812 280.351562 941.898438 279.925781 C 942.417969 279.496094 942.890625 279.023438 943.316406 278.503906 C 943.746094 277.984375 944.117188 277.425781 944.433594 276.835938 C 944.746094 276.242188 945.003906 275.621094 945.199219 274.980469 C 945.394531 274.335938 945.523438 273.679688 945.585938 273.011719 C 945.652344 272.34375 945.652344 271.671875 945.585938 271.003906 C 945.519531 270.335938 945.386719 269.679688 945.191406 269.035156 C 944.996094 268.394531 944.742188 267.773438 944.421875 267.183594 C 944.105469 266.589844 943.734375 266.035156 943.308594 265.515625 C 942.878906 264.996094 942.40625 264.523438 941.886719 264.097656 C 941.367188 263.671875 940.808594 263.300781 940.21875 262.984375 C 939.625 262.667969 939.007812 262.414062 938.363281 262.21875 C 937.71875 262.023438 937.0625 261.894531 936.394531 261.828125 C 935.726562 261.761719 935.054688 261.761719 934.386719 261.828125 C 933.71875 261.894531 933.0625 262.027344 932.417969 262.222656 C 931.777344 262.417969 931.160156 262.675781 930.566406 262.992188 C 929.972656 263.308594 929.417969 263.683594 928.898438 264.109375 C 928.378906 264.535156 927.90625 265.007812 927.480469 265.527344 C 927.054688 266.046875 926.683594 266.605469 926.367188 267.199219 C 926.050781 267.792969 925.796875 268.410156 925.601562 269.054688 C 925.40625 269.695312 925.277344 270.351562 925.210938 271.023438 C 925.144531 271.691406 925.144531 272.359375 925.210938 273.027344 C 925.277344 273.699219 925.410156 274.351562 925.605469 274.996094 C 925.800781 275.640625 926.058594 276.257812 926.375 276.851562 C 926.691406 277.441406 927.066406 278 927.492188 278.515625 C 927.917969 279.035156 928.390625 279.507812 928.910156 279.933594 C 929.433594 280.359375 929.988281 280.730469 930.582031 281.046875 C 931.175781 281.363281 931.792969 281.621094 932.4375 281.816406 C 933.078125 282.007812 933.734375 282.140625 934.40625 282.203125 C 935.074219 282.269531 935.742188 282.269531 936.410156 282.203125 Z M 936.410156 282.203125 "/>
  <path style=" stroke:none;fill-rule:nonzero;fill:rgb(79.60968%,68.629456%,91.758728%);fill-opacity:1;" d="M 922.84375 283.550781 C 923.515625 283.484375 924.171875 283.351562 924.8125 283.15625 C 925.457031 282.960938 926.074219 282.707031 926.667969 282.386719 C 927.257812 282.070312 927.816406 281.699219 928.335938 281.273438 C 928.851562 280.84375 929.324219 280.371094 929.75 279.851562 C 930.179688 279.332031 930.550781 278.773438 930.867188 278.183594 C 931.183594 277.589844 931.4375 276.972656 931.632812 276.328125 C 931.828125 275.683594 931.957031 275.027344 932.023438 274.359375 C 932.085938 273.691406 932.085938 273.019531 932.019531 272.351562 C 931.953125 271.683594 931.824219 271.027344 931.625 270.382812 C 931.429688 269.742188 931.175781 269.125 930.855469 268.53125 C 930.539062 267.9375 930.167969 267.382812 929.742188 266.863281 C 929.3125 266.34375 928.839844 265.871094 928.320312 265.445312 C 927.800781 265.019531 927.242188 264.648438 926.652344 264.332031 C 926.058594 264.015625 925.441406 263.761719 924.796875 263.566406 C 924.152344 263.371094 923.496094 263.242188 922.828125 263.175781 C 922.160156 263.109375 921.488281 263.109375 920.820312 263.175781 C 920.152344 263.242188 919.496094 263.375 918.851562 263.570312 C 918.210938 263.765625 917.59375 264.023438 917 264.339844 C 916.40625 264.65625 915.851562 265.03125 915.332031 265.457031 C 914.8125 265.882812 914.339844 266.355469 913.914062 266.875 C 913.488281 267.398438 913.117188 267.953125 912.800781 268.546875 C 912.484375 269.140625 912.230469 269.757812 912.035156 270.402344 C 911.839844 271.042969 911.710938 271.699219 911.644531 272.371094 C 911.578125 273.039062 911.578125 273.707031 911.644531 274.375 C 911.710938 275.046875 911.84375 275.699219 912.039062 276.34375 C 912.234375 276.988281 912.492188 277.605469 912.808594 278.199219 C 913.125 278.789062 913.5 279.347656 913.925781 279.867188 C 914.351562 280.382812 914.824219 280.855469 915.34375 281.28125 C 915.867188 281.710938 916.421875 282.082031 917.015625 282.398438 C 917.609375 282.714844 918.226562 282.96875 918.871094 283.164062 C 919.511719 283.359375 920.167969 283.488281 920.839844 283.554688 C 921.507812 283.617188 922.175781 283.617188 922.84375 283.550781 Z M 922.84375 283.550781 "/>
  <path style=" stroke:none;fill-rule:nonzero;fill:rgb(79.60968%,68.629456%,91.758728%);fill-opacity:1;" d="M 943.949219 266.316406 L 925.414062 240.253906 L 912.371094 269.453125 Z M 943.949219 266.316406 "/>
  <path style=" stroke:none;fill-rule:nonzero;fill:rgb(79.60968%,68.629456%,91.758728%);fill-opacity:1;" d="M 890.683594 265.683594 C 890.953125 266.300781 891.28125 266.882812 891.664062 267.433594 C 892.050781 267.984375 892.484375 268.492188 892.96875 268.957031 C 893.453125 269.425781 893.980469 269.839844 894.546875 270.199219 C 895.113281 270.5625 895.707031 270.867188 896.335938 271.109375 C 896.960938 271.355469 897.605469 271.535156 898.265625 271.652344 C 898.929688 271.769531 899.59375 271.824219 900.265625 271.808594 C 900.9375 271.796875 901.601562 271.71875 902.257812 271.574219 C 902.914062 271.429688 903.550781 271.222656 904.167969 270.953125 C 904.785156 270.683594 905.367188 270.355469 905.917969 269.96875 C 906.46875 269.585938 906.976562 269.148438 907.441406 268.664062 C 907.910156 268.179688 908.324219 267.65625 908.683594 267.089844 C 909.046875 266.523438 909.351562 265.925781 909.59375 265.300781 C 909.839844 264.675781 910.019531 264.03125 910.136719 263.367188 C 910.253906 262.707031 910.308594 262.039062 910.292969 261.367188 C 910.28125 260.695312 910.203125 260.03125 910.058594 259.375 C 909.914062 258.71875 909.707031 258.082031 909.4375 257.464844 C 909.164062 256.851562 908.839844 256.265625 908.453125 255.714844 C 908.070312 255.164062 907.632812 254.65625 907.148438 254.191406 C 906.664062 253.726562 906.140625 253.3125 905.574219 252.949219 C 905.007812 252.585938 904.410156 252.285156 903.785156 252.039062 C 903.160156 251.796875 902.515625 251.613281 901.851562 251.496094 C 901.191406 251.378906 900.523438 251.328125 899.851562 251.339844 C 899.179688 251.355469 898.515625 251.433594 897.859375 251.578125 C 897.203125 251.722656 896.566406 251.929688 895.949219 252.199219 C 895.335938 252.46875 894.75 252.796875 894.199219 253.179688 C 893.648438 253.566406 893.140625 254 892.675781 254.484375 C 892.210938 254.96875 891.796875 255.496094 891.433594 256.0625 C 891.070312 256.628906 890.769531 257.222656 890.523438 257.851562 C 890.28125 258.476562 890.097656 259.121094 889.980469 259.78125 C 889.863281 260.445312 889.8125 261.109375 889.824219 261.78125 C 889.839844 262.453125 889.917969 263.117188 890.0625 263.773438 C 890.207031 264.429688 890.414062 265.066406 890.683594 265.683594 Z M 890.683594 265.683594 "/>
  <path style=" stroke:none;fill-rule:nonzero;fill:rgb(79.60968%,68.629456%,91.758728%);fill-opacity:1;" d="M 885.210938 253.195312 C 885.480469 253.8125 885.808594 254.394531 886.191406 254.945312 C 886.578125 255.496094 887.011719 256.007812 887.496094 256.472656 C 887.980469 256.9375 888.507812 257.351562 889.074219 257.714844 C 889.640625 258.074219 890.238281 258.378906 890.863281 258.625 C 891.488281 258.867188 892.132812 259.050781 892.792969 259.167969 C 893.457031 259.285156 894.125 259.335938 894.796875 259.324219 C 895.46875 259.308594 896.132812 259.230469 896.789062 259.085938 C 897.445312 258.941406 898.082031 258.734375 898.695312 258.464844 C 899.3125 258.195312 899.894531 257.867188 900.445312 257.484375 C 900.996094 257.097656 901.507812 256.664062 901.972656 256.179688 C 902.4375 255.695312 902.851562 255.167969 903.214844 254.601562 C 903.574219 254.035156 903.878906 253.4375 904.125 252.8125 C 904.367188 252.1875 904.550781 251.542969 904.667969 250.882812 C 904.785156 250.21875 904.835938 249.550781 904.824219 248.878906 C 904.808594 248.207031 904.730469 247.542969 904.585938 246.886719 C 904.441406 246.230469 904.234375 245.59375 903.964844 244.980469 C 903.695312 244.363281 903.367188 243.78125 902.984375 243.230469 C 902.597656 242.679688 902.164062 242.167969 901.679688 241.703125 C 901.195312 241.238281 900.667969 240.824219 900.101562 240.460938 C 899.535156 240.101562 898.9375 239.796875 898.3125 239.554688 C 897.6875 239.308594 897.042969 239.128906 896.382812 239.007812 C 895.71875 238.890625 895.050781 238.839844 894.378906 238.851562 C 893.707031 238.867188 893.042969 238.945312 892.386719 239.089844 C 891.730469 239.234375 891.09375 239.441406 890.480469 239.710938 C 889.863281 239.980469 889.28125 240.308594 888.730469 240.691406 C 888.179688 241.078125 887.667969 241.511719 887.203125 241.996094 C 886.738281 242.480469 886.324219 243.007812 885.960938 243.574219 C 885.601562 244.140625 885.296875 244.738281 885.054688 245.363281 C 884.808594 245.988281 884.628906 246.632812 884.507812 247.292969 C 884.390625 247.957031 884.339844 248.625 884.351562 249.296875 C 884.367188 249.96875 884.445312 250.632812 884.589844 251.289062 C 884.734375 251.945312 884.941406 252.582031 885.210938 253.195312 Z M 885.210938 253.195312 "/>
  <path style=" stroke:none;fill-rule:nonzero;fill:rgb(79.60968%,68.629456%,91.758728%);fill-opacity:1;" d="M 908.121094 267.945312 L 927.1875 242.269531 L 895.386719 238.882812 Z M 908.121094 267.945312 "/>
  <path style=" stroke:none;fill-rule:nonzero;fill:rgb(41.178894%,28.239441%,18.03894%);fill-opacity:1;" d="M 921.476562 238.390625 C 921.195312 238.671875 920.945312 238.976562 920.726562 239.304688 C 920.507812 239.632812 920.320312 239.980469 920.171875 240.347656 C 920.019531 240.710938 919.902344 241.089844 919.828125 241.476562 C 919.75 241.863281 919.710938 242.257812 919.710938 242.652344 C 919.710938 243.046875 919.75 243.441406 919.828125 243.828125 C 919.902344 244.21875 920.019531 244.59375 920.171875 244.960938 C 920.320312 245.324219 920.507812 245.671875 920.726562 246 C 920.945312 246.332031 921.195312 246.636719 921.476562 246.914062 C 921.757812 247.195312 922.0625 247.445312 922.390625 247.664062 C 922.71875 247.882812 923.066406 248.070312 923.433594 248.222656 C 923.796875 248.375 924.175781 248.488281 924.5625 248.566406 C 924.949219 248.640625 925.34375 248.679688 925.738281 248.679688 C 926.132812 248.679688 926.527344 248.640625 926.914062 248.566406 C 927.304688 248.488281 927.679688 248.375 928.046875 248.222656 C 928.410156 248.070312 928.757812 247.882812 929.085938 247.664062 C 929.417969 247.445312 929.722656 247.195312 930 246.914062 C 930.28125 246.636719 930.53125 246.332031 930.75 246 C 930.96875 245.671875 931.15625 245.324219 931.308594 244.960938 C 931.460938 244.59375 931.574219 244.21875 931.652344 243.828125 C 931.726562 243.441406 931.765625 243.046875 931.765625 242.652344 C 931.765625 242.257812 931.726562 241.863281 931.652344 241.476562 C 931.574219 241.089844 931.460938 240.710938 931.308594 240.347656 C 931.15625 239.980469 930.96875 239.632812 930.75 239.304688 C 930.53125 238.976562 930.28125 238.671875 930 238.390625 C 929.722656 238.109375 929.417969 237.859375 929.085938 237.640625 C 928.757812 237.421875 928.410156 237.234375 928.046875 237.085938 C 927.679688 236.933594 927.304688 236.816406 926.914062 236.742188 C 926.527344 236.664062 926.132812 236.625 925.738281 236.625 C 925.34375 236.625 924.949219 236.664062 924.5625 236.742188 C 924.175781 236.816406 923.796875 236.933594 923.433594 237.085938 C 923.066406 237.234375 922.71875 237.421875 922.390625 237.640625 C 922.0625 237.859375 921.757812 238.109375 921.476562 238.390625 Z M 921.476562 238.390625 "/>
  <path style=" stroke:none;fill-rule:nonzero;fill:rgb(43.919373%,63.529968%,35.289001%);fill-opacity:1;" d="M 861.761719 192.6875 C 861.144531 192.6875 860.527344 192.75 859.921875 192.871094 C 859.3125 192.992188 858.722656 193.167969 858.148438 193.40625 C 857.578125 193.644531 857.03125 193.933594 856.515625 194.28125 C 856 194.625 855.523438 195.015625 855.085938 195.453125 C 854.648438 195.894531 854.253906 196.371094 853.910156 196.886719 C 853.566406 197.402344 853.277344 197.945312 853.039062 198.519531 C 852.800781 199.089844 852.621094 199.679688 852.5 200.289062 C 852.378906 200.898438 852.320312 201.511719 852.320312 202.132812 C 852.320312 202.753906 852.378906 203.367188 852.5 203.972656 C 852.621094 204.582031 852.800781 205.171875 853.039062 205.746094 C 853.277344 206.320312 853.566406 206.863281 853.910156 207.378906 C 854.253906 207.894531 854.648438 208.371094 855.085938 208.808594 C 855.523438 209.25 856 209.640625 856.515625 209.984375 C 857.03125 210.328125 857.578125 210.621094 858.148438 210.855469 C 858.722656 211.09375 859.3125 211.273438 859.921875 211.394531 C 860.527344 211.515625 861.144531 211.574219 861.761719 211.574219 C 862.382812 211.574219 862.996094 211.515625 863.605469 211.394531 C 864.214844 211.273438 864.804688 211.09375 865.378906 210.855469 C 865.949219 210.621094 866.492188 210.328125 867.007812 209.984375 C 867.523438 209.640625 868.003906 209.25 868.441406 208.808594 C 868.878906 208.371094 869.269531 207.894531 869.613281 207.378906 C 869.960938 206.863281 870.25 206.320312 870.488281 205.746094 C 870.726562 205.171875 870.90625 204.582031 871.023438 203.972656 C 871.144531 203.367188 871.207031 202.753906 871.207031 202.132812 C 871.207031 201.511719 871.144531 200.898438 871.023438 200.289062 C 870.90625 199.679688 870.726562 199.089844 870.488281 198.519531 C 870.25 197.945312 869.960938 197.402344 869.613281 196.886719 C 869.269531 196.371094 868.878906 195.894531 868.441406 195.453125 C 868.003906 195.015625 867.523438 194.625 867.007812 194.28125 C 866.492188 193.933594 865.949219 193.644531 865.378906 193.40625 C 864.804688 193.167969 864.214844 192.992188 863.605469 192.871094 C 862.996094 192.75 862.382812 192.6875 861.761719 192.6875 Z M 861.761719 192.6875 "/>
  <path style=" stroke:none;fill-rule:nonzero;fill:rgb(53.729248%,74.899292%,44.309998%);fill-opacity:1;" d="M 1001.289062 274.21875 C 1000.667969 274.21875 1000.054688 274.28125 999.445312 274.402344 C 998.835938 274.523438 998.246094 274.703125 997.671875 274.9375 C 997.101562 275.175781 996.554688 275.46875 996.039062 275.8125 C 995.523438 276.15625 995.046875 276.546875 994.609375 276.984375 C 994.171875 277.425781 993.78125 277.902344 993.433594 278.417969 C 993.089844 278.933594 992.800781 279.476562 992.5625 280.050781 C 992.324219 280.621094 992.144531 281.214844 992.023438 281.820312 C 991.902344 282.429688 991.84375 283.042969 991.84375 283.664062 C 991.84375 284.285156 991.902344 284.898438 992.023438 285.507812 C 992.144531 286.113281 992.324219 286.703125 992.5625 287.277344 C 992.800781 287.851562 993.089844 288.394531 993.433594 288.910156 C 993.78125 289.425781 994.171875 289.902344 994.609375 290.339844 C 995.046875 290.78125 995.523438 291.171875 996.039062 291.515625 C 996.554688 291.859375 997.101562 292.152344 997.671875 292.386719 C 998.246094 292.625 998.835938 292.804688 999.445312 292.925781 C 1000.054688 293.046875 1000.667969 293.105469 1001.289062 293.105469 C 1001.90625 293.105469 1002.523438 293.046875 1003.128906 292.925781 C 1003.738281 292.804688 1004.328125 292.625 1004.902344 292.386719 C 1005.472656 292.152344 1006.019531 291.859375 1006.535156 291.515625 C 1007.050781 291.171875 1007.527344 290.78125 1007.964844 290.339844 C 1008.402344 289.902344 1008.796875 289.425781 1009.140625 288.910156 C 1009.484375 288.394531 1009.773438 287.851562 1010.011719 287.277344 C 1010.25 286.703125 1010.429688 286.113281 1010.550781 285.507812 C 1010.671875 284.898438 1010.730469 284.285156 1010.730469 283.664062 C 1010.730469 283.042969 1010.671875 282.429688 1010.550781 281.820312 C 1010.429688 281.214844 1010.25 280.621094 1010.011719 280.050781 C 1009.773438 279.476562 1009.484375 278.933594 1009.140625 278.417969 C 1008.796875 277.902344 1008.402344 277.425781 1007.964844 276.984375 C 1007.527344 276.546875 1007.050781 276.15625 1006.535156 275.8125 C 1006.019531 275.46875 1005.472656 275.175781 1004.902344 274.9375 C 1004.328125 274.703125 1003.738281 274.523438 1003.128906 274.402344 C 1002.523438 274.28125 1001.90625 274.21875 1001.289062 274.21875 Z M 1001.289062 274.21875 "/>
  <path style=" stroke:none;fill-rule:nonzero;fill:rgb(53.729248%,74.899292%,44.309998%);fill-opacity:1;" d="M 865.15625 222.027344 C 864.757812 222.027344 864.363281 222.066406 863.972656 222.144531 C 863.585938 222.222656 863.207031 222.335938 862.839844 222.488281 C 862.472656 222.640625 862.121094 222.828125 861.792969 223.050781 C 861.460938 223.269531 861.15625 223.519531 860.875 223.800781 C 860.59375 224.082031 860.34375 224.386719 860.121094 224.71875 C 859.902344 225.050781 859.714844 225.398438 859.5625 225.765625 C 859.410156 226.132812 859.296875 226.511719 859.21875 226.898438 C 859.140625 227.289062 859.101562 227.683594 859.101562 228.082031 C 859.101562 228.476562 859.140625 228.871094 859.21875 229.261719 C 859.296875 229.652344 859.410156 230.03125 859.5625 230.398438 C 859.714844 230.765625 859.902344 231.113281 860.121094 231.441406 C 860.34375 231.773438 860.59375 232.078125 860.875 232.359375 C 861.15625 232.640625 861.460938 232.890625 861.792969 233.113281 C 862.121094 233.332031 862.472656 233.519531 862.839844 233.671875 C 863.207031 233.824219 863.585938 233.9375 863.972656 234.015625 C 864.363281 234.09375 864.757812 234.132812 865.15625 234.132812 C 865.550781 234.132812 865.945312 234.09375 866.335938 234.015625 C 866.726562 233.9375 867.105469 233.824219 867.472656 233.671875 C 867.839844 233.519531 868.1875 233.332031 868.515625 233.113281 C 868.847656 232.890625 869.152344 232.640625 869.433594 232.359375 C 869.714844 232.078125 869.964844 231.773438 870.1875 231.441406 C 870.40625 231.113281 870.59375 230.765625 870.746094 230.398438 C 870.898438 230.03125 871.011719 229.652344 871.089844 229.261719 C 871.167969 228.871094 871.207031 228.476562 871.207031 228.082031 C 871.207031 227.683594 871.167969 227.289062 871.089844 226.898438 C 871.011719 226.511719 870.898438 226.132812 870.746094 225.765625 C 870.59375 225.398438 870.40625 225.050781 870.1875 224.71875 C 869.964844 224.386719 869.714844 224.082031 869.433594 223.800781 C 869.152344 223.519531 868.847656 223.269531 868.515625 223.050781 C 868.1875 222.828125 867.839844 222.640625 867.472656 222.488281 C 867.105469 222.335938 866.726562 222.222656 866.335938 222.144531 C 865.945312 222.066406 865.550781 222.027344 865.15625 222.027344 Z M 865.15625 222.027344 "/>
  <path style=" stroke:none;fill-rule:nonzero;fill:rgb(43.919373%,63.529968%,35.289001%);fill-opacity:1;" d="M 868.925781 275.066406 C 868.457031 275.066406 867.992188 275.113281 867.53125 275.207031 C 867.066406 275.296875 866.621094 275.433594 866.183594 275.613281 C 865.75 275.792969 865.339844 276.015625 864.945312 276.277344 C 864.554688 276.535156 864.195312 276.832031 863.859375 277.167969 C 863.527344 277.5 863.230469 277.859375 862.96875 278.253906 C 862.710938 278.644531 862.488281 279.054688 862.308594 279.492188 C 862.128906 279.925781 861.992188 280.375 861.902344 280.835938 C 861.808594 281.296875 861.761719 281.761719 861.761719 282.230469 C 861.761719 282.703125 861.808594 283.167969 861.902344 283.628906 C 861.992188 284.089844 862.128906 284.539062 862.308594 284.972656 C 862.488281 285.410156 862.710938 285.820312 862.96875 286.210938 C 863.230469 286.601562 863.527344 286.964844 863.859375 287.296875 C 864.195312 287.628906 864.554688 287.925781 864.945312 288.1875 C 865.339844 288.449219 865.75 288.671875 866.183594 288.851562 C 866.621094 289.03125 867.066406 289.167969 867.53125 289.257812 C 867.992188 289.351562 868.457031 289.394531 868.925781 289.394531 C 869.398438 289.394531 869.863281 289.351562 870.324219 289.257812 C 870.785156 289.167969 871.234375 289.03125 871.667969 288.851562 C 872.101562 288.671875 872.515625 288.449219 872.90625 288.1875 C 873.296875 287.925781 873.660156 287.628906 873.992188 287.296875 C 874.324219 286.964844 874.621094 286.601562 874.882812 286.210938 C 875.144531 285.820312 875.367188 285.410156 875.546875 284.972656 C 875.726562 284.539062 875.863281 284.089844 875.953125 283.628906 C 876.046875 283.167969 876.089844 282.703125 876.089844 282.230469 C 876.089844 281.761719 876.046875 281.296875 875.953125 280.835938 C 875.863281 280.375 875.726562 279.925781 875.546875 279.492188 C 875.367188 279.054688 875.144531 278.644531 874.882812 278.253906 C 874.621094 277.859375 874.324219 277.5 873.992188 277.167969 C 873.660156 276.832031 873.296875 276.535156 872.90625 276.277344 C 872.515625 276.015625 872.101562 275.792969 871.667969 275.613281 C 871.234375 275.433594 870.785156 275.296875 870.324219 275.207031 C 869.863281 275.113281 869.398438 275.066406 868.925781 275.066406 Z M 868.925781 275.066406 "/>
  <path style=" stroke:none;fill-rule:nonzero;fill:rgb(43.919373%,63.529968%,35.289001%);fill-opacity:1;" d="M 991.84375 202.132812 C 991.375 202.132812 990.90625 202.179688 990.445312 202.269531 C 989.984375 202.363281 989.535156 202.496094 989.101562 202.675781 C 988.667969 202.855469 988.253906 203.078125 987.863281 203.339844 C 987.472656 203.601562 987.109375 203.898438 986.777344 204.230469 C 986.445312 204.5625 986.148438 204.925781 985.886719 205.316406 C 985.625 205.707031 985.40625 206.121094 985.226562 206.554688 C 985.046875 206.988281 984.910156 207.4375 984.816406 207.898438 C 984.726562 208.359375 984.679688 208.824219 984.679688 209.296875 C 984.679688 209.765625 984.726562 210.230469 984.816406 210.695312 C 984.910156 211.15625 985.046875 211.601562 985.226562 212.039062 C 985.40625 212.472656 985.625 212.886719 985.886719 213.277344 C 986.148438 213.667969 986.445312 214.027344 986.777344 214.363281 C 987.109375 214.695312 987.472656 214.992188 987.863281 215.253906 C 988.253906 215.515625 988.667969 215.734375 989.101562 215.914062 C 989.535156 216.09375 989.984375 216.230469 990.445312 216.320312 C 990.90625 216.414062 991.375 216.460938 991.84375 216.460938 C 992.3125 216.460938 992.78125 216.414062 993.242188 216.320312 C 993.703125 216.230469 994.152344 216.09375 994.585938 215.914062 C 995.019531 215.734375 995.433594 215.515625 995.824219 215.253906 C 996.214844 214.992188 996.578125 214.695312 996.910156 214.363281 C 997.242188 214.027344 997.539062 213.667969 997.800781 213.277344 C 998.0625 212.886719 998.28125 212.472656 998.460938 212.039062 C 998.640625 211.601562 998.777344 211.15625 998.871094 210.695312 C 998.960938 210.230469 999.007812 209.765625 999.007812 209.296875 C 999.007812 208.824219 998.960938 208.359375 998.871094 207.898438 C 998.777344 207.4375 998.640625 206.988281 998.460938 206.554688 C 998.28125 206.121094 998.0625 205.707031 997.800781 205.316406 C 997.539062 204.925781 997.242188 204.5625 996.910156 204.230469 C 996.578125 203.898438 996.214844 203.601562 995.824219 203.339844 C 995.433594 203.078125 995.019531 202.855469 994.585938 202.675781 C 994.152344 202.496094 993.703125 202.363281 993.242188 202.269531 C 992.78125 202.179688 992.3125 202.132812 991.84375 202.132812 Z M 991.84375 202.132812 "/>
</g>
<path style=" stroke:none;fill-rule:nonzero;fill:rgb(45.098877%,45.098877%,45.098877%);fill-opacity:1;" d="M 930.574219 134.6875 C 930.140625 134.6875 929.707031 134.730469 929.28125 134.816406 C 928.855469 134.902344 928.441406 135.027344 928.039062 135.191406 C 927.636719 135.359375 927.253906 135.5625 926.890625 135.804688 C 926.53125 136.046875 926.195312 136.320312 925.886719 136.628906 C 925.578125 136.9375 925.304688 137.273438 925.0625 137.632812 C 924.820312 137.996094 924.617188 138.378906 924.449219 138.78125 C 924.285156 139.183594 924.15625 139.597656 924.074219 140.023438 C 923.988281 140.449219 923.945312 140.882812 923.945312 141.316406 C 923.945312 141.753906 923.988281 142.183594 924.074219 142.609375 C 924.15625 143.035156 924.285156 143.453125 924.449219 143.855469 C 924.617188 144.253906 924.820312 144.636719 925.0625 145 C 925.304688 145.363281 925.578125 145.695312 925.886719 146.003906 C 926.195312 146.3125 926.53125 146.585938 926.890625 146.828125 C 927.253906 147.070312 927.636719 147.273438 928.039062 147.441406 C 928.441406 147.609375 928.855469 147.734375 929.28125 147.820312 C 929.707031 147.902344 930.140625 147.945312 930.574219 147.945312 C 931.007812 147.945312 931.441406 147.902344 931.867188 147.820312 C 932.292969 147.734375 932.707031 147.609375 933.109375 147.441406 C 933.511719 147.273438 933.894531 147.070312 934.257812 146.828125 C 934.617188 146.585938 934.953125 146.3125 935.261719 146.003906 C 935.570312 145.695312 935.84375 145.363281 936.085938 145 C 936.328125 144.636719 936.53125 144.253906 936.699219 143.855469 C 936.863281 143.453125 936.992188 143.035156 937.074219 142.609375 C 937.160156 142.183594 937.203125 141.753906 937.203125 141.316406 C 937.203125 140.882812 937.160156 140.449219 937.074219 140.023438 C 936.992188 139.597656 936.863281 139.183594 936.699219 138.78125 C 936.53125 138.378906 936.328125 137.996094 936.085938 137.632812 C 935.84375 137.273438 935.570312 136.9375 935.261719 136.628906 C 934.953125 136.320312 934.617188 136.046875 934.257812 135.804688 C 933.894531 135.5625 933.511719 135.359375 933.109375 135.191406 C 932.707031 135.027344 932.292969 134.902344 931.867188 134.816406 C 931.441406 134.730469 931.007812 134.6875 930.574219 134.6875 Z M 930.574219 134.6875 "/>
<path style=" stroke:none;fill-rule:nonzero;fill:rgb(81.959534%,74.508667%,68.629456%);fill-opacity:1;" d="M 375.78125 209.277344 L 375.78125 491.804688 L 658.308594 491.804688 L 658.308594 209.277344 Z M 644.078125 477.574219 L 389.714844 477.574219 L 389.714844 223.210938 L 644.078125 223.210938 Z M 644.078125 477.574219 "/>
<path style=" stroke:none;fill-rule:nonzero;fill:rgb(78.039551%,100%,91.758728%);fill-opacity:1;" d="M 0.0078125 209.277344 L 375.203125 209.277344 L 375.203125 492.5625 L 0.0078125 492.5625 Z M 0.0078125 209.277344 "/>
<path style="fill:none;stroke-width:1;stroke-linecap:butt;stroke-linejoin:miter;stroke:rgb(89.408875%,100%,96.078491%);stroke-opacity:1;stroke-miterlimit:4;" d="M -0.000199945 0.000237336 L 25.767512 0.000237336 " transform="matrix(0.00000000000000046,7.509549,-7.5,0.000000000000000459,436.286936,491.997595)"/>
<path style="fill:none;stroke-width:1;stroke-linecap:butt;stroke-linejoin:miter;stroke:rgb(89.408875%,100%,96.078491%);stroke-opacity:1;stroke-miterlimit:4;" d="M -0.000199945 -0.0000105985 L 25.767512 -0.0000105985 " transform="matrix(0.00000000000000046,7.509549,-7.5,0.000000000000000459,585.597577,491.997595)"/>
<path style="fill:none;stroke-width:1;stroke-linecap:butt;stroke-linejoin:miter;stroke:rgb(89.408875%,100%,96.078491%);stroke-opacity:1;stroke-miterlimit:4;" d="M 0.000183456 -0.00025896 L 91.183523 -0.00025896 " transform="matrix(0.000000000000000459,7.501413,-7.5,0.000000000000000459,287.634777,-0.00137618)"/>
<path style="fill:none;stroke-width:1;stroke-linecap:butt;stroke-linejoin:miter;stroke:rgb(89.408875%,100%,96.078491%);stroke-opacity:1;stroke-miterlimit:4;" d="M -0.000120634 -0.0000646434 L 91.183219 -0.0000646434 " transform="matrix(0.000000000000000459,7.501413,-7.5,0.000000000000000459,133.136234,1.379811)"/>
<path style="fill:none;stroke-width:1;stroke-linecap:butt;stroke-linejoin:miter;stroke:rgb(89.408875%,100%,96.078491%);stroke-opacity:1;stroke-miterlimit:4;" d="M 0.000183456 -0.0000538029 L 91.183523 -0.0000538029 " transform="matrix(0.000000000000000459,7.501413,-7.5,0.000000000000000459,1301.847253,-0.00137618)"/>
<path style="fill:none;stroke-width:1;stroke-linecap:butt;stroke-linejoin:miter;stroke:rgb(89.408875%,100%,96.078491%);stroke-opacity:1;stroke-miterlimit:4;" d="M 0.000183456 0.000153355 L 91.183523 0.000153355 " transform="matrix(0.000000000000000459,7.501413,-7.5,0.000000000000000459,1149.067556,-0.00137618)"/>
<path style="fill:none;stroke-width:1;stroke-linecap:round;stroke-linejoin:miter;stroke:rgb(65.098572%,49.01886%,36.079407%);stroke-opacity:1;stroke-miterlimit:4;" d="M 0.498775 -0.000460704 L 28.75725 -0.000460704 " transform="matrix(0.000000000000000093,1.512821,-1.5,0.000000000000000092,1377.061809,686.909505)"/>
<path style="fill:none;stroke-width:1;stroke-linecap:round;stroke-linejoin:miter;stroke:rgb(65.098572%,49.01886%,36.079407%);stroke-opacity:1;stroke-miterlimit:4;" d="M 0.498775 -0.000392827 L 28.75725 -0.000392827 " transform="matrix(0.000000000000000093,1.512821,-1.5,0.000000000000000092,81.745505,686.909505)"/>
<path style="fill:none;stroke-width:1;stroke-linecap:round;stroke-linejoin:miter;stroke:rgb(65.098572%,49.01886%,36.079407%);stroke-opacity:1;stroke-miterlimit:4;" d="M 0.499304 -0.000610606 L 28.757779 -0.000610606 " transform="matrix(0.000000000000000093,1.512821,-1.5,0.000000000000000092,269.963928,730.795423)"/>
<path style="fill:none;stroke-width:1;stroke-linecap:round;stroke-linejoin:miter;stroke:rgb(65.098572%,49.01886%,36.079407%);stroke-opacity:1;stroke-miterlimit:4;" d="M 0.498892 -0.000479133 L 28.757367 -0.000479133 " transform="matrix(0.000000000000000093,1.512821,-1.5,0.000000000000000092,1176.182875,732.296047)"/>
<path style="fill:none;stroke-width:1;stroke-linecap:round;stroke-linejoin:miter;stroke:rgb(65.098572%,49.01886%,36.079407%);stroke-opacity:1;stroke-miterlimit:4;" d="M 0.500278 0.000403246 L 28.756171 0.000403246 " transform="matrix(0.000000000000000093,1.512821,-1.5,0.000000000000000092,1378.563105,774.680669)"/>
<path style="fill:none;stroke-width:1;stroke-linecap:round;stroke-linejoin:miter;stroke:rgb(65.098572%,49.01886%,36.079407%);stroke-opacity:1;stroke-miterlimit:4;" d="M 0.500278 -0.000392827 L 28.756171 -0.000392827 " transform="matrix(0.000000000000000093,1.512821,-1.5,0.000000000000000092,81.745505,776.180669)"/>
</g>
</svg>
