<?xml version="1.0" encoding="UTF-8"?>
<svg xmlns="http://www.w3.org/2000/svg" xmlns:xlink="http://www.w3.org/1999/xlink" width="810pt" height="809.999993pt" viewBox="0 0 810 809.999993" version="1.2">
<defs>
<clipPath id="clip1">
  <path d="M 8 197.488281 L 184 197.488281 L 184 318.988281 L 8 318.988281 Z M 8 197.488281 "/>
</clipPath>
<clipPath id="clip2">
  <path d="M 325 0 L 488 0 L 488 2 L 325 2 Z M 325 0 "/>
</clipPath>
<clipPath id="clip3">
  <path d="M 323.183594 -118.457031 L 485.105469 -123.445312 L 488.847656 -2 L 326.925781 2.988281 Z M 323.183594 -118.457031 "/>
</clipPath>
<clipPath id="clip4">
  <path d="M 323.183594 -118.457031 L 485.105469 -123.445312 L 488.847656 -2 L 326.925781 2.988281 Z M 323.183594 -118.457031 "/>
</clipPath>
</defs>
<g id="surface1">
<rect x="0" y="0" width="810" height="809.999993" style="fill:rgb(100%,100%,100%);fill-opacity:1;stroke:none;"/>
<rect x="0" y="0" width="810" height="809.999993" style="fill:rgb(100%,100%,100%);fill-opacity:1;stroke:none;"/>
<rect x="0" y="0" width="810" height="809.999993" style="fill:rgb(65.489197%,87.449646%,100%);fill-opacity:1;stroke:none;"/>
<path id="dinogotchi__inside__cloud_one" class="cloud" style=" stroke:none;fill-rule:nonzero;fill:rgb(100%,100%,100%);fill-opacity:1;" d="M 146.371094 226.917969 C 143.632812 226.917969 140.976562 227.242188 138.414062 227.8125 C 135.078125 211.203125 120.398438 198.691406 102.792969 198.691406 C 84.964844 198.691406 70.164062 211.527344 67.074219 228.445312 C 66.867188 228.441406 66.664062 228.417969 66.453125 228.417969 C 52.152344 228.417969 40.191406 238.320312 36.992188 251.628906 C 36.207031 251.554688 35.410156 251.507812 34.601562 251.507812 C 20.675781 251.507812 9.390625 262.789062 9.390625 276.703125 C 9.390625 290.613281 20.675781 301.894531 34.601562 301.894531 C 40.171875 301.894531 45.300781 300.066406 49.476562 297.011719 C 52.824219 307 62.246094 314.207031 73.371094 314.207031 C 82.046875 314.207031 89.695312 309.832031 94.234375 303.164062 C 98.566406 311.824219 107.5 317.78125 117.851562 317.78125 C 129.65625 317.78125 139.652344 310.039062 143.03125 299.359375 C 144.132812 299.460938 145.242188 299.527344 146.371094 299.527344 C 166.4375 299.527344 182.710938 283.273438 182.710938 263.222656 C 182.710938 243.167969 166.4375 226.917969 146.371094 226.917969 "/>
<path style=" stroke:none;fill-rule:nonzero;fill:rgb(78.039551%,100%,91.758728%);fill-opacity:1;" d="M 0.00390625 -1.664062 L 343.210938 -1.664062 L 343.210938 206.46875 L 0.00390625 206.46875 Z M 0.00390625 -1.664062 "/>
<path id="dinogotchi__inside__cloud_two" class="cloud" style=" stroke:none;fill-rule:nonzero;fill:rgb(100%,100%,100%);fill-opacity:1;" d="M 274.140625 422.074219 C 274.140625 422.074219 278.171875 406.535156 299.59375 402.878906 C 321.019531 399.222656 335.304688 414.761719 335.304688 414.761719 C 335.304688 414.761719 341.164062 402.144531 361.488281 410.554688 C 381.816406 418.964844 379.066406 436.699219 379.066406 436.699219 C 379.066406 436.699219 390.605469 435.054688 393.898438 447.121094 C 397.195312 459.1875 390.238281 465.949219 385.109375 467.597656 C 385.109375 467.597656 377.96875 482.039062 358.011719 472.347656 C 358.011719 472.347656 357.824219 479.296875 347.203125 482.222656 C 336.585938 485.148438 329.808594 479.113281 329.808594 479.113281 C 329.808594 479.113281 323.214844 487.523438 313.695312 478.566406 C 313.695312 478.566406 310.582031 486.976562 296.296875 485.511719 C 282.015625 484.050781 280.367188 471.617188 280.367188 471.617188 C 280.367188 471.617188 268.464844 483.136719 248.503906 476.371094 C 228.546875 469.605469 231.660156 461.199219 231.660156 461.199219 C 231.660156 461.199219 214.8125 464.671875 210.78125 454.066406 C 206.753906 443.464844 226.714844 425.546875 239.53125 435.054688 C 239.53125 435.054688 241.363281 427.011719 250.886719 420.613281 C 260.40625 414.210938 274.140625 422.074219 274.140625 422.074219 Z M 274.140625 422.074219 "/>
<path style=" stroke:none;fill-rule:nonzero;fill:rgb(78.039551%,100%,91.758728%);fill-opacity:1;" d="M 341.984375 -1.652344 L 811.75 -1.652344 L 811.75 682.75 L 341.984375 682.75 Z M 341.984375 -1.652344 "/>
<g clip-path="url(#clip2)" clip-rule="nonzero">
<g clip-path="url(#clip3)" clip-rule="nonzero">
<g clip-path="url(#clip4)" clip-rule="nonzero">
<path style=" stroke:none;fill-rule:nonzero;fill:rgb(100%,100%,100%);fill-opacity:1;" d="M 384.273438 1.21875 C 368.625 1.699219 354.464844 -7.78125 348.738281 -22.1875 C 334.71875 -28.5625 325.535156 -42.175781 325.054688 -57.734375 C 324.367188 -80.058594 341.960938 -98.773438 364.289062 -99.460938 C 364.867188 -99.480469 365.441406 -99.476562 365.996094 -99.453125 C 374.386719 -112.347656 388.621094 -120.46875 404.144531 -120.949219 C 425.167969 -121.597656 443.960938 -108.039062 450.421875 -88.535156 C 469.902344 -90.628906 486.589844 -75.230469 487.183594 -55.976562 C 487.808594 -35.769531 470.363281 -18.734375 449.59375 -21.457031 C 444.347656 -12.691406 435.035156 -7.097656 424.546875 -6.773438 C 419.410156 -6.617188 414.355469 -7.792969 409.808594 -10.148438 C 403.132812 -3.226562 393.980469 0.917969 384.273438 1.21875 Z M 384.273438 1.21875 "/>
</g>
</g>
</g>
<path style=" stroke:none;fill-rule:nonzero;fill:rgb(78.039551%,100%,91.758728%);fill-opacity:1;" d="M -0.8125 487.78125 L 342.960938 487.78125 L 342.960938 684.417969 L -0.8125 684.417969 Z M -0.8125 487.78125 "/>
<path style=" stroke:none;fill-rule:nonzero;fill:rgb(70.588684%,55.288696%,43.139648%);fill-opacity:1;" d="M 0.03125 681.628906 L 810.058594 681.628906 L 810.058594 810.253906 L 0.03125 810.253906 Z M 0.03125 681.628906 "/>
<path style="fill:none;stroke-width:1;stroke-linecap:butt;stroke-linejoin:miter;stroke:rgb(89.408875%,100%,96.078491%);stroke-opacity:1;stroke-miterlimit:4;" d="M 0.000159548 -0.0000899759 L 27.695994 -0.0000899759 " transform="matrix(0.000000000000000459,7.501269,-7.5,0.000000000000000459,270.710263,-1.661353)"/>
<path style="fill:none;stroke-width:1;stroke-linecap:butt;stroke-linejoin:miter;stroke:rgb(89.408875%,100%,96.078491%);stroke-opacity:1;stroke-miterlimit:4;" d="M 0.000248088 -0.0000269819 L 28.002332 -0.0000269819 " transform="matrix(0.000000000000000459,7.499581,-7.5,0.000000000000000459,121.527141,-1.662017)"/>
<path style="fill:none;stroke-width:1;stroke-linecap:round;stroke-linejoin:miter;stroke:rgb(65.098572%,49.01886%,36.079407%);stroke-opacity:1;stroke-miterlimit:4;" d="M 0.500428 0.0000110538 L 540.044649 0.0000110538 " transform="matrix(1.499892,0,0,1.5,-0.816994,727.124983)"/>
<path style="fill:none;stroke-width:1;stroke-linecap:round;stroke-linejoin:miter;stroke:rgb(65.098572%,49.01886%,36.079407%);stroke-opacity:1;stroke-miterlimit:4;" d="M 0.500034 -0.000216617 L 540.044255 -0.000216617 " transform="matrix(1.499892,0,0,1.5,0.0000035,771.722981)"/>
<path style="fill:none;stroke-width:1;stroke-linecap:round;stroke-linejoin:miter;stroke:rgb(65.098572%,49.01886%,36.079407%);stroke-opacity:1;stroke-miterlimit:4;" d="M 0.499531 0.000913404 L 28.731404 0.000913404 " transform="matrix(0.000000000000000091,1.488372,-1.5,0.000000000000000092,182.766995,682.522138)"/>
<path style="fill:none;stroke-width:1;stroke-linecap:round;stroke-linejoin:miter;stroke:rgb(65.098572%,49.01886%,36.079407%);stroke-opacity:1;stroke-miterlimit:4;" d="M 0.498797 0.000926356 L 28.730671 0.000926356 " transform="matrix(0.000000000000000091,1.488372,-1.5,0.000000000000000092,650.302171,684.031042)"/>
<path style="fill:none;stroke-width:1;stroke-linecap:round;stroke-linejoin:miter;stroke:rgb(65.098572%,49.01886%,36.079407%);stroke-opacity:1;stroke-miterlimit:4;" d="M 0.50116 -0.00119697 L 28.733034 -0.00119697 " transform="matrix(0.000000000000000091,1.488372,-1.5,0.000000000000000092,406.724767,727.879087)"/>
<path style="fill:none;stroke-width:1;stroke-linecap:round;stroke-linejoin:miter;stroke:rgb(65.098572%,49.01886%,36.079407%);stroke-opacity:1;stroke-miterlimit:4;" d="M 0.500979 0.000913378 L 28.732852 0.000913378 " transform="matrix(0.000000000000000091,1.488372,-1.5,0.000000000000000092,183.516995,772.477013)"/>
<path style="fill:none;stroke-width:1;stroke-linecap:round;stroke-linejoin:miter;stroke:rgb(65.098572%,49.01886%,36.079407%);stroke-opacity:1;stroke-miterlimit:4;" d="M 0.498814 0.000318178 L 23.116618 0.000318178 " transform="matrix(0.000000000000000091,1.493051,-1.5,0.000000000000000092,183.516102,772.477901)"/>
<path style="fill:none;stroke-width:1;stroke-linecap:round;stroke-linejoin:miter;stroke:rgb(65.098572%,49.01886%,36.079407%);stroke-opacity:1;stroke-miterlimit:4;" d="M 0.498814 0.000350306 L 23.116618 0.000350306 " transform="matrix(0.000000000000000091,1.493051,-1.5,0.000000000000000092,651.801307,772.477901)"/>
<path style="fill:none;stroke-width:1;stroke-linecap:round;stroke-linejoin:miter;stroke:rgb(81.959534%,74.508667%,68.629456%);stroke-opacity:1;stroke-miterlimit:4;" d="M 0.500122 -0.0000618416 L 23.113484 -0.0000618416 " transform="matrix(0.000000000000000688,11.244044,-11.249999,0.000000000000000689,201.116492,214.099257)"/>
<path style="fill:none;stroke-width:1;stroke-linecap:round;stroke-linejoin:miter;stroke:rgb(81.959534%,74.508667%,68.629456%);stroke-opacity:1;stroke-miterlimit:4;" d="M 0.499856 0.000141742 L 23.113218 0.000141742 " transform="matrix(-11.244044,-0.000000000000001377,0.000000000000001378,-11.249999,333.936812,346.919563)"/>
<path style="fill:none;stroke-width:1;stroke-linecap:butt;stroke-linejoin:miter;stroke:rgb(89.408875%,100%,96.078491%);stroke-opacity:1;stroke-miterlimit:4;" d="M -0.0000220072 -0.000179818 L 91.105706 -0.000179818 " transform="matrix(0.000000000000000459,7.499614,-7.5,0.000000000000000459,693.424433,-1.659991)"/>
<path style="fill:none;stroke-width:1;stroke-linecap:butt;stroke-linejoin:miter;stroke:rgb(89.408875%,100%,96.078491%);stroke-opacity:1;stroke-miterlimit:4;" d="M -0.0000220072 0.0000109764 L 91.105706 0.0000109764 " transform="matrix(0.000000000000000459,7.499614,-7.5,0.000000000000000459,550.14852,-1.659991)"/>
<path style="fill:none;stroke-width:1;stroke-linecap:butt;stroke-linejoin:miter;stroke:rgb(89.408875%,100%,96.078491%);stroke-opacity:1;stroke-miterlimit:4;" d="M -0.0000220072 0.0000490231 L 91.105706 0.0000490231 " transform="matrix(0.000000000000000459,7.499614,-7.5,0.000000000000000459,413.984743,-1.659991)"/>
<g id="dinogotchi__inside__paiting" class="painting">
  <path style="fill:none;stroke-width:1;stroke-linecap:round;stroke-linejoin:miter;stroke:rgb(0%,0%,0%);stroke-opacity:1;stroke-miterlimit:4;" d="M 0.500088 -0.000183074 L 22.557859 -0.000162433 " transform="matrix(3.420881,-1.513784,1.517486,3.429247,539.457504,169.972497)"/>
  <path style="fill:none;stroke-width:1;stroke-linecap:round;stroke-linejoin:miter;stroke:rgb(0%,0%,0%);stroke-opacity:1;stroke-miterlimit:4;" d="M 0.500082 -0.000140485 L 21.234094 0.000303087 " transform="matrix(-3.456384,-1.483562,1.479096,-3.445979,693.420089,169.682824)"/>
  <path style=" stroke:none;fill-rule:nonzero;fill:rgb(54.508972%,43.919373%,35.688782%);fill-opacity:1;" d="M 515.503906 167.277344 L 715.53125 167.277344 L 715.53125 307.773438 L 515.503906 307.773438 Z M 515.503906 167.277344 "/>
  <path style=" stroke:none;fill-rule:nonzero;fill:rgb(100%,98.81897%,96.078491%);fill-opacity:1;" d="M 692.300781 297.777344 L 538.828125 297.777344 C 532.507812 297.777344 527.355469 292.625 527.355469 286.304688 L 527.355469 188.707031 C 527.355469 182.386719 532.507812 177.234375 538.828125 177.234375 L 692.300781 177.234375 C 698.621094 177.234375 703.773438 182.386719 703.773438 188.707031 L 703.773438 286.304688 C 703.773438 292.625 698.621094 297.777344 692.300781 297.777344 Z M 692.300781 297.777344 "/>
  <path style=" stroke:none;fill-rule:nonzero;fill:rgb(53.729248%,74.899292%,44.309998%);fill-opacity:1;" d="M 633.945312 264.023438 L 668.6875 259.9375 L 648.082031 231.667969 Z M 633.945312 264.023438 "/>
  <path style=" stroke:none;fill-rule:nonzero;fill:rgb(53.729248%,74.899292%,44.309998%);fill-opacity:1;" d="M 610.851562 234.796875 C 610.59375 235.390625 610.363281 236.003906 610.171875 236.625 C 609.976562 237.246094 609.820312 237.878906 609.695312 238.523438 C 609.570312 239.167969 609.480469 239.816406 609.429688 240.472656 C 609.375 241.128906 609.355469 241.789062 609.375 242.453125 C 609.390625 243.117188 609.441406 243.78125 609.53125 244.449219 C 609.617188 245.113281 609.742188 245.777344 609.898438 246.4375 C 610.058594 247.097656 610.25 247.75 610.476562 248.398438 C 610.703125 249.046875 610.960938 249.6875 611.253906 250.316406 C 611.546875 250.945312 611.871094 251.566406 612.226562 252.171875 C 612.582031 252.777344 612.96875 253.367188 613.382812 253.945312 C 613.800781 254.523438 614.242188 255.082031 614.714844 255.621094 C 615.1875 256.164062 615.683594 256.683594 616.207031 257.183594 C 616.730469 257.6875 617.277344 258.164062 617.847656 258.617188 C 618.417969 259.074219 619.007812 259.503906 619.617188 259.910156 C 620.226562 260.316406 620.855469 260.695312 621.5 261.046875 C 622.148438 261.398438 622.804688 261.71875 623.480469 262.015625 C 624.15625 262.308594 624.839844 262.574219 625.539062 262.808594 C 626.234375 263.042969 626.9375 263.246094 627.652344 263.417969 C 628.363281 263.59375 629.078125 263.734375 629.800781 263.839844 C 630.523438 263.949219 631.242188 264.027344 631.964844 264.070312 C 632.6875 264.113281 633.410156 264.125 634.128906 264.105469 C 634.84375 264.082031 635.554688 264.027344 636.261719 263.941406 C 636.96875 263.855469 637.664062 263.734375 638.351562 263.585938 C 639.039062 263.433594 639.710938 263.253906 640.371094 263.039062 C 641.035156 262.824219 641.679688 262.582031 642.308594 262.304688 C 642.9375 262.03125 643.546875 261.726562 644.140625 261.394531 C 644.730469 261.0625 645.300781 260.703125 645.847656 260.316406 C 646.394531 259.929688 646.917969 259.515625 647.417969 259.078125 C 647.917969 258.636719 648.390625 258.175781 648.835938 257.691406 C 649.28125 257.203125 649.695312 256.699219 650.085938 256.167969 C 650.472656 255.640625 650.828125 255.09375 651.152344 254.53125 C 651.480469 253.964844 651.773438 253.382812 652.03125 252.789062 C 652.292969 252.191406 652.519531 251.582031 652.714844 250.957031 C 652.90625 250.335938 653.066406 249.703125 653.191406 249.058594 C 653.316406 248.417969 653.402344 247.765625 653.457031 247.109375 C 653.511719 246.453125 653.53125 245.792969 653.511719 245.128906 C 653.496094 244.464844 653.441406 243.800781 653.355469 243.132812 C 653.265625 242.46875 653.144531 241.808594 652.988281 241.148438 C 652.828125 240.488281 652.636719 239.832031 652.410156 239.183594 C 652.183594 238.535156 651.925781 237.898438 651.632812 237.265625 C 651.339844 236.636719 651.015625 236.019531 650.660156 235.410156 C 650.304688 234.804688 649.917969 234.214844 649.503906 233.636719 C 649.085938 233.058594 648.644531 232.5 648.171875 231.960938 C 647.699219 231.417969 647.203125 230.898438 646.679688 230.398438 C 646.15625 229.898438 645.609375 229.417969 645.039062 228.964844 C 644.46875 228.507812 643.878906 228.078125 643.269531 227.671875 C 642.660156 227.269531 642.03125 226.890625 641.386719 226.539062 C 640.738281 226.1875 640.078125 225.863281 639.40625 225.566406 C 638.730469 225.273438 638.046875 225.007812 637.347656 224.773438 C 636.652344 224.539062 635.949219 224.335938 635.234375 224.164062 C 634.523438 223.992188 633.804688 223.851562 633.085938 223.742188 C 632.363281 223.632812 631.640625 223.554688 630.917969 223.511719 C 630.195312 223.46875 629.476562 223.457031 628.757812 223.480469 C 628.042969 223.5 627.328125 223.554688 626.625 223.640625 C 625.917969 223.726562 625.222656 223.847656 624.535156 223.996094 C 623.847656 224.148438 623.175781 224.332031 622.511719 224.542969 C 621.851562 224.757812 621.207031 225.003906 620.578125 225.277344 C 619.949219 225.550781 619.335938 225.855469 618.746094 226.1875 C 618.15625 226.519531 617.585938 226.878906 617.039062 227.265625 C 616.488281 227.65625 615.964844 228.066406 615.46875 228.507812 C 614.96875 228.945312 614.496094 229.40625 614.050781 229.894531 C 613.605469 230.378906 613.1875 230.886719 612.800781 231.414062 C 612.414062 231.941406 612.058594 232.488281 611.730469 233.050781 C 611.40625 233.617188 611.113281 234.199219 610.851562 234.796875 Z M 610.851562 234.796875 "/>
  <path style=" stroke:none;fill-rule:nonzero;fill:rgb(53.729248%,74.899292%,44.309998%);fill-opacity:1;" d="M 640.835938 212.257812 L 632.878906 178.191406 L 607.097656 201.835938 Z M 640.835938 212.257812 "/>
  <path style=" stroke:none;fill-rule:nonzero;fill:rgb(53.729248%,74.899292%,44.309998%);fill-opacity:1;" d="M 614.378906 238.480469 C 615.003906 238.671875 615.632812 238.828125 616.273438 238.949219 C 616.914062 239.074219 617.5625 239.160156 618.214844 239.210938 C 618.867188 239.261719 619.523438 239.277344 620.179688 239.257812 C 620.839844 239.238281 621.496094 239.183594 622.15625 239.089844 C 622.8125 239 623.46875 238.871094 624.121094 238.710938 C 624.769531 238.546875 625.414062 238.351562 626.054688 238.121094 C 626.691406 237.890625 627.320312 237.625 627.9375 237.328125 C 628.558594 237.03125 629.164062 236.703125 629.757812 236.339844 C 630.351562 235.980469 630.929688 235.589844 631.492188 235.167969 C 632.054688 234.746094 632.601562 234.296875 633.125 233.816406 C 633.652344 233.339844 634.15625 232.835938 634.644531 232.308594 C 635.128906 231.777344 635.589844 231.222656 636.027344 230.648438 C 636.46875 230.074219 636.878906 229.476562 637.269531 228.859375 C 637.65625 228.242188 638.019531 227.605469 638.355469 226.953125 C 638.6875 226.304688 638.992188 225.636719 639.269531 224.957031 C 639.546875 224.273438 639.796875 223.582031 640.011719 222.878906 C 640.230469 222.175781 640.414062 221.464844 640.570312 220.746094 C 640.726562 220.027344 640.847656 219.304688 640.941406 218.578125 C 641.03125 217.851562 641.09375 217.125 641.121094 216.394531 C 641.148438 215.664062 641.140625 214.941406 641.105469 214.21875 C 641.066406 213.492188 640.996094 212.777344 640.894531 212.066406 C 640.792969 211.355469 640.660156 210.652344 640.496094 209.960938 C 640.328125 209.269531 640.132812 208.59375 639.90625 207.925781 C 639.679688 207.261719 639.421875 206.613281 639.136719 205.980469 C 638.851562 205.347656 638.535156 204.734375 638.191406 204.136719 C 637.847656 203.542969 637.476562 202.96875 637.082031 202.421875 C 636.683594 201.871094 636.261719 201.34375 635.816406 200.84375 C 635.371094 200.34375 634.902344 199.867188 634.410156 199.421875 C 633.917969 198.976562 633.40625 198.558594 632.871094 198.167969 C 632.339844 197.78125 631.789062 197.425781 631.222656 197.097656 C 630.65625 196.773438 630.070312 196.480469 629.472656 196.21875 C 628.875 195.960938 628.265625 195.734375 627.644531 195.542969 C 627.019531 195.347656 626.390625 195.191406 625.75 195.070312 C 625.109375 194.945312 624.460938 194.859375 623.808594 194.808594 C 623.15625 194.757812 622.5 194.742188 621.839844 194.761719 C 621.183594 194.78125 620.523438 194.839844 619.867188 194.929688 C 619.207031 195.019531 618.554688 195.148438 617.902344 195.308594 C 617.25 195.472656 616.605469 195.667969 615.96875 195.898438 C 615.332031 196.128906 614.703125 196.394531 614.082031 196.691406 C 613.464844 196.988281 612.859375 197.316406 612.265625 197.679688 C 611.671875 198.039062 611.09375 198.433594 610.53125 198.851562 C 609.96875 199.273438 609.421875 199.726562 608.898438 200.203125 C 608.371094 200.679688 607.863281 201.183594 607.378906 201.714844 C 606.894531 202.242188 606.433594 202.796875 605.996094 203.371094 C 605.554688 203.949219 605.140625 204.542969 604.753906 205.160156 C 604.363281 205.777344 604.003906 206.414062 603.667969 207.066406 C 603.335938 207.71875 603.027344 208.382812 602.75 209.066406 C 602.472656 209.746094 602.226562 210.4375 602.011719 211.140625 C 601.792969 211.84375 601.605469 212.554688 601.453125 213.273438 C 601.296875 213.992188 601.171875 214.714844 601.082031 215.441406 C 600.988281 216.167969 600.929688 216.898438 600.902344 217.625 C 600.875 218.355469 600.882812 219.082031 600.917969 219.804688 C 600.957031 220.527344 601.027344 221.242188 601.128906 221.953125 C 601.230469 222.664062 601.363281 223.367188 601.527344 224.058594 C 601.695312 224.75 601.890625 225.425781 602.117188 226.09375 C 602.34375 226.757812 602.601562 227.40625 602.886719 228.039062 C 603.171875 228.671875 603.488281 229.289062 603.832031 229.882812 C 604.175781 230.476562 604.542969 231.050781 604.941406 231.601562 C 605.335938 232.152344 605.757812 232.675781 606.207031 233.175781 C 606.652344 233.679688 607.121094 234.152344 607.613281 234.597656 C 608.105469 235.046875 608.617188 235.460938 609.148438 235.851562 C 609.683594 236.238281 610.230469 236.59375 610.800781 236.921875 C 611.367188 237.246094 611.953125 237.539062 612.550781 237.800781 C 613.148438 238.058594 613.757812 238.285156 614.378906 238.480469 Z M 614.378906 238.480469 "/>
  <path style=" stroke:none;fill-rule:nonzero;fill:rgb(79.60968%,68.629456%,91.758728%);fill-opacity:1;" d="M 576.207031 214.675781 C 575.730469 215.152344 575.308594 215.667969 574.933594 216.226562 C 574.5625 216.785156 574.246094 217.375 573.988281 217.996094 C 573.734375 218.617188 573.539062 219.253906 573.40625 219.914062 C 573.277344 220.574219 573.210938 221.238281 573.210938 221.910156 C 573.210938 222.582031 573.277344 223.246094 573.40625 223.90625 C 573.539062 224.5625 573.734375 225.203125 573.988281 225.824219 C 574.246094 226.445312 574.5625 227.035156 574.933594 227.59375 C 575.308594 228.152344 575.730469 228.667969 576.207031 229.140625 C 576.683594 229.617188 577.199219 230.039062 577.757812 230.414062 C 578.316406 230.789062 578.90625 231.101562 579.523438 231.359375 C 580.144531 231.617188 580.785156 231.808594 581.445312 231.941406 C 582.101562 232.074219 582.769531 232.136719 583.4375 232.136719 C 584.109375 232.136719 584.777344 232.074219 585.433594 231.941406 C 586.09375 231.808594 586.734375 231.617188 587.355469 231.359375 C 587.972656 231.101562 588.5625 230.789062 589.121094 230.414062 C 589.679688 230.039062 590.195312 229.617188 590.671875 229.140625 C 591.148438 228.667969 591.570312 228.152344 591.945312 227.59375 C 592.316406 227.035156 592.632812 226.445312 592.890625 225.824219 C 593.144531 225.203125 593.339844 224.5625 593.472656 223.90625 C 593.601562 223.246094 593.667969 222.582031 593.667969 221.910156 C 593.667969 221.238281 593.601562 220.574219 593.472656 219.914062 C 593.339844 219.253906 593.144531 218.617188 592.890625 217.996094 C 592.632812 217.375 592.316406 216.785156 591.945312 216.226562 C 591.570312 215.667969 591.148438 215.152344 590.671875 214.675781 C 590.195312 214.203125 589.679688 213.777344 589.121094 213.40625 C 588.5625 213.03125 587.972656 212.71875 587.355469 212.460938 C 586.734375 212.203125 586.09375 212.007812 585.433594 211.878906 C 584.777344 211.746094 584.109375 211.679688 583.4375 211.679688 C 582.769531 211.679688 582.101562 211.746094 581.445312 211.878906 C 580.785156 212.007812 580.144531 212.203125 579.523438 212.460938 C 578.90625 212.71875 578.316406 213.03125 577.757812 213.40625 C 577.199219 213.777344 576.683594 214.203125 576.207031 214.675781 Z M 576.207031 214.675781 "/>
  <path style=" stroke:none;fill-rule:nonzero;fill:rgb(79.60968%,68.629456%,91.758728%);fill-opacity:1;" d="M 585.839844 205.046875 C 585.363281 205.519531 584.941406 206.035156 584.566406 206.59375 C 584.195312 207.152344 583.878906 207.742188 583.621094 208.363281 C 583.363281 208.984375 583.171875 209.625 583.039062 210.28125 C 582.910156 210.941406 582.84375 211.605469 582.84375 212.277344 C 582.84375 212.949219 582.910156 213.613281 583.039062 214.273438 C 583.171875 214.933594 583.363281 215.570312 583.621094 216.191406 C 583.878906 216.8125 584.195312 217.402344 584.566406 217.960938 C 584.941406 218.519531 585.363281 219.035156 585.839844 219.511719 C 586.3125 219.984375 586.832031 220.410156 587.386719 220.78125 C 587.945312 221.15625 588.535156 221.46875 589.15625 221.726562 C 589.777344 221.984375 590.417969 222.179688 591.074219 222.308594 C 591.734375 222.441406 592.398438 222.507812 593.070312 222.507812 C 593.742188 222.507812 594.40625 222.441406 595.066406 222.308594 C 595.726562 222.179688 596.363281 221.984375 596.984375 221.726562 C 597.605469 221.46875 598.195312 221.15625 598.753906 220.78125 C 599.3125 220.410156 599.828125 219.984375 600.304688 219.511719 C 600.777344 219.035156 601.203125 218.519531 601.574219 217.960938 C 601.949219 217.402344 602.265625 216.8125 602.519531 216.191406 C 602.777344 215.570312 602.972656 214.933594 603.101562 214.273438 C 603.234375 213.613281 603.300781 212.949219 603.300781 212.277344 C 603.300781 211.605469 603.234375 210.941406 603.101562 210.28125 C 602.972656 209.625 602.777344 208.984375 602.519531 208.363281 C 602.265625 207.742188 601.949219 207.152344 601.574219 206.59375 C 601.203125 206.035156 600.777344 205.519531 600.304688 205.046875 C 599.828125 204.570312 599.3125 204.144531 598.753906 203.773438 C 598.195312 203.398438 597.605469 203.085938 596.984375 202.828125 C 596.363281 202.570312 595.726562 202.378906 595.066406 202.246094 C 594.40625 202.113281 593.742188 202.050781 593.070312 202.050781 C 592.398438 202.050781 591.734375 202.113281 591.074219 202.246094 C 590.417969 202.378906 589.777344 202.570312 589.15625 202.828125 C 588.535156 203.085938 587.945312 203.398438 587.386719 203.773438 C 586.832031 204.144531 586.3125 204.570312 585.839844 205.046875 Z M 585.839844 205.046875 "/>
  <path style=" stroke:none;fill-rule:nonzero;fill:rgb(79.60968%,68.629456%,91.758728%);fill-opacity:1;" d="M 580.441406 231.730469 L 611.269531 240.136719 L 602.859375 209.3125 Z M 580.441406 231.730469 "/>
  <path style=" stroke:none;fill-rule:nonzero;fill:rgb(79.60968%,68.629456%,91.758728%);fill-opacity:1;" d="M 651.097656 236.410156 C 651.152344 235.742188 651.140625 235.074219 651.066406 234.40625 C 650.988281 233.738281 650.847656 233.085938 650.640625 232.445312 C 650.4375 231.808594 650.171875 231.195312 649.84375 230.605469 C 649.519531 230.019531 649.140625 229.46875 648.703125 228.957031 C 648.269531 228.445312 647.789062 227.980469 647.265625 227.5625 C 646.738281 227.144531 646.175781 226.78125 645.578125 226.476562 C 644.980469 226.167969 644.359375 225.921875 643.714844 225.738281 C 643.070312 225.554688 642.410156 225.433594 641.742188 225.378906 C 641.074219 225.324219 640.40625 225.332031 639.738281 225.410156 C 639.070312 225.488281 638.417969 225.628906 637.777344 225.832031 C 637.136719 226.039062 636.523438 226.304688 635.9375 226.628906 C 635.351562 226.957031 634.800781 227.335938 634.289062 227.769531 C 633.777344 228.203125 633.3125 228.683594 632.894531 229.210938 C 632.476562 229.734375 632.113281 230.296875 631.804688 230.894531 C 631.5 231.492188 631.253906 232.113281 631.070312 232.757812 C 630.882812 233.40625 630.765625 234.0625 630.710938 234.730469 C 630.652344 235.402344 630.664062 236.070312 630.742188 236.738281 C 630.816406 237.402344 630.957031 238.058594 631.164062 238.695312 C 631.367188 239.335938 631.632812 239.949219 631.960938 240.535156 C 632.285156 241.125 632.667969 241.675781 633.101562 242.1875 C 633.535156 242.699219 634.015625 243.164062 634.542969 243.582031 C 635.066406 244 635.628906 244.359375 636.226562 244.667969 C 636.824219 244.976562 637.445312 245.222656 638.089844 245.40625 C 638.734375 245.589844 639.394531 245.710938 640.0625 245.765625 C 640.734375 245.820312 641.402344 245.808594 642.066406 245.734375 C 642.734375 245.65625 643.386719 245.515625 644.027344 245.3125 C 644.667969 245.105469 645.28125 244.839844 645.867188 244.515625 C 646.457031 244.1875 647.003906 243.808594 647.515625 243.375 C 648.03125 242.9375 648.496094 242.460938 648.914062 241.933594 C 649.328125 241.40625 649.691406 240.847656 650 240.25 C 650.304688 239.652344 650.550781 239.03125 650.738281 238.382812 C 650.921875 237.738281 651.042969 237.082031 651.097656 236.410156 Z M 651.097656 236.410156 "/>
  <path style=" stroke:none;fill-rule:nonzero;fill:rgb(79.60968%,68.629456%,91.758728%);fill-opacity:1;" d="M 649.976562 249.988281 C 650.035156 249.316406 650.023438 248.648438 649.945312 247.980469 C 649.871094 247.316406 649.730469 246.660156 649.523438 246.023438 C 649.320312 245.382812 649.054688 244.769531 648.726562 244.183594 C 648.402344 243.59375 648.019531 243.046875 647.585938 242.53125 C 647.152344 242.019531 646.671875 241.554688 646.144531 241.136719 C 645.621094 240.71875 645.058594 240.359375 644.460938 240.050781 C 643.863281 239.742188 643.242188 239.496094 642.597656 239.3125 C 641.949219 239.128906 641.292969 239.007812 640.625 238.953125 C 639.953125 238.898438 639.285156 238.910156 638.621094 238.984375 C 637.953125 239.0625 637.300781 239.203125 636.660156 239.40625 C 636.019531 239.613281 635.40625 239.878906 634.820312 240.203125 C 634.230469 240.53125 633.683594 240.910156 633.171875 241.34375 C 632.65625 241.78125 632.191406 242.261719 631.773438 242.785156 C 631.359375 243.3125 630.996094 243.875 630.6875 244.46875 C 630.382812 245.066406 630.136719 245.6875 629.949219 246.335938 C 629.765625 246.980469 629.644531 247.636719 629.589844 248.308594 C 629.535156 248.976562 629.546875 249.644531 629.621094 250.3125 C 629.699219 250.980469 629.839844 251.632812 630.046875 252.273438 C 630.25 252.910156 630.515625 253.523438 630.84375 254.113281 C 631.167969 254.699219 631.546875 255.25 631.984375 255.761719 C 632.417969 256.273438 632.898438 256.738281 633.421875 257.15625 C 633.949219 257.574219 634.511719 257.9375 635.109375 258.242188 C 635.707031 258.550781 636.328125 258.796875 636.972656 258.980469 C 637.617188 259.167969 638.277344 259.285156 638.945312 259.339844 C 639.613281 259.394531 640.28125 259.386719 640.949219 259.308594 C 641.617188 259.234375 642.269531 259.089844 642.910156 258.886719 C 643.550781 258.679688 644.164062 258.414062 644.75 258.089844 C 645.335938 257.761719 645.886719 257.382812 646.398438 256.949219 C 646.910156 256.515625 647.375 256.035156 647.792969 255.507812 C 648.210938 254.984375 648.574219 254.421875 648.882812 253.824219 C 649.1875 253.226562 649.433594 252.605469 649.617188 251.960938 C 649.804688 251.3125 649.921875 250.65625 649.976562 249.988281 Z M 649.976562 249.988281 "/>
  <path style=" stroke:none;fill-rule:nonzero;fill:rgb(79.60968%,68.629456%,91.758728%);fill-opacity:1;" d="M 636.839844 226.140625 L 607.886719 239.664062 L 634.238281 257.742188 Z M 636.839844 226.140625 "/>
  <path style=" stroke:none;fill-rule:nonzero;fill:rgb(79.60968%,68.629456%,91.758728%);fill-opacity:1;" d="M 620.542969 199.398438 C 619.921875 199.136719 619.285156 198.9375 618.625 198.804688 C 617.96875 198.667969 617.304688 198.601562 616.632812 198.597656 C 615.960938 198.59375 615.292969 198.65625 614.636719 198.78125 C 613.976562 198.910156 613.335938 199.097656 612.714844 199.351562 C 612.089844 199.605469 611.5 199.917969 610.9375 200.289062 C 610.378906 200.65625 609.859375 201.078125 609.382812 201.550781 C 608.90625 202.023438 608.476562 202.535156 608.101562 203.09375 C 607.726562 203.648438 607.40625 204.238281 607.144531 204.855469 C 606.886719 205.476562 606.6875 206.113281 606.550781 206.769531 C 606.417969 207.429688 606.347656 208.09375 606.34375 208.765625 C 606.339844 209.4375 606.402344 210.101562 606.53125 210.761719 C 606.65625 211.421875 606.847656 212.0625 607.101562 212.683594 C 607.355469 213.304688 607.664062 213.898438 608.035156 214.457031 C 608.40625 215.019531 608.824219 215.539062 609.296875 216.015625 C 609.769531 216.492188 610.285156 216.917969 610.839844 217.296875 C 611.398438 217.671875 611.984375 217.992188 612.605469 218.25 C 613.222656 218.511719 613.859375 218.710938 614.519531 218.84375 C 615.175781 218.980469 615.839844 219.050781 616.511719 219.054688 C 617.183594 219.058594 617.851562 218.996094 618.511719 218.867188 C 619.167969 218.742188 619.808594 218.550781 620.433594 218.296875 C 621.054688 218.042969 621.644531 217.730469 622.207031 217.363281 C 622.765625 216.992188 623.285156 216.570312 623.761719 216.097656 C 624.242188 215.625 624.667969 215.113281 625.042969 214.554688 C 625.421875 214 625.738281 213.414062 626 212.792969 C 626.261719 212.175781 626.457031 211.535156 626.59375 210.878906 C 626.726562 210.21875 626.796875 209.554688 626.800781 208.882812 C 626.804688 208.210938 626.742188 207.546875 626.617188 206.886719 C 626.488281 206.226562 626.296875 205.585938 626.042969 204.964844 C 625.792969 204.34375 625.480469 203.753906 625.109375 203.191406 C 624.738281 202.632812 624.320312 202.113281 623.847656 201.632812 C 623.375 201.15625 622.859375 200.730469 622.304688 200.351562 C 621.746094 199.976562 621.160156 199.660156 620.542969 199.398438 Z M 620.542969 199.398438 "/>
  <path style=" stroke:none;fill-rule:nonzero;fill:rgb(79.60968%,68.629456%,91.758728%);fill-opacity:1;" d="M 633.09375 204.683594 C 632.476562 204.421875 631.839844 204.226562 631.179688 204.089844 C 630.523438 203.957031 629.859375 203.886719 629.1875 203.882812 C 628.515625 203.878906 627.847656 203.941406 627.1875 204.066406 C 626.53125 204.195312 625.890625 204.382812 625.265625 204.636719 C 624.644531 204.890625 624.054688 205.203125 623.492188 205.574219 C 622.933594 205.941406 622.414062 206.363281 621.9375 206.835938 C 621.457031 207.308594 621.03125 207.820312 620.65625 208.378906 C 620.277344 208.933594 619.960938 209.523438 619.699219 210.140625 C 619.4375 210.761719 619.242188 211.398438 619.105469 212.054688 C 618.972656 212.714844 618.902344 213.378906 618.898438 214.050781 C 618.894531 214.722656 618.957031 215.386719 619.082031 216.046875 C 619.210938 216.707031 619.402344 217.347656 619.65625 217.96875 C 619.90625 218.589844 620.21875 219.183594 620.589844 219.742188 C 620.960938 220.304688 621.378906 220.824219 621.851562 221.300781 C 622.324219 221.777344 622.839844 222.207031 623.394531 222.582031 C 623.953125 222.957031 624.539062 223.277344 625.15625 223.535156 C 625.777344 223.796875 626.414062 223.996094 627.074219 224.128906 C 627.730469 224.265625 628.394531 224.335938 629.066406 224.339844 C 629.738281 224.34375 630.40625 224.28125 631.0625 224.152344 C 631.722656 224.027344 632.363281 223.835938 632.984375 223.582031 C 633.609375 223.328125 634.199219 223.015625 634.761719 222.648438 C 635.320312 222.277344 635.839844 221.855469 636.316406 221.382812 C 636.792969 220.914062 637.222656 220.398438 637.597656 219.84375 C 637.972656 219.285156 638.292969 218.699219 638.554688 218.078125 C 638.8125 217.460938 639.011719 216.820312 639.148438 216.164062 C 639.28125 215.503906 639.351562 214.839844 639.355469 214.167969 C 639.359375 213.496094 639.296875 212.832031 639.167969 212.171875 C 639.042969 211.511719 638.851562 210.871094 638.597656 210.25 C 638.34375 209.628906 638.035156 209.039062 637.664062 208.476562 C 637.292969 207.917969 636.871094 207.398438 636.402344 206.917969 C 635.929688 206.441406 635.414062 206.015625 634.859375 205.636719 C 634.300781 205.261719 633.714844 204.945312 633.09375 204.683594 Z M 633.09375 204.683594 "/>
  <path style=" stroke:none;fill-rule:nonzero;fill:rgb(79.60968%,68.629456%,91.758728%);fill-opacity:1;" d="M 606.347656 209.753906 L 610.191406 241.472656 L 635.566406 222.054688 Z M 606.347656 209.753906 "/>
  <path style=" stroke:none;fill-rule:nonzero;fill:rgb(79.60968%,68.629456%,91.758728%);fill-opacity:1;" d="M 621.222656 278.921875 C 621.890625 278.855469 622.546875 278.722656 623.1875 278.527344 C 623.832031 278.332031 624.449219 278.074219 625.039062 277.757812 C 625.632812 277.441406 626.1875 277.070312 626.707031 276.644531 C 627.222656 276.21875 627.695312 275.742188 628.121094 275.222656 C 628.546875 274.703125 628.917969 274.148438 629.234375 273.554688 C 629.550781 272.964844 629.804688 272.347656 630 271.703125 C 630.195312 271.058594 630.324219 270.40625 630.390625 269.734375 C 630.457031 269.066406 630.453125 268.398438 630.386719 267.730469 C 630.320312 267.0625 630.191406 266.40625 629.996094 265.765625 C 629.800781 265.121094 629.542969 264.503906 629.226562 263.914062 C 628.910156 263.320312 628.539062 262.765625 628.109375 262.246094 C 627.683594 261.726562 627.210938 261.257812 626.691406 260.832031 C 626.171875 260.40625 625.617188 260.035156 625.023438 259.71875 C 624.429688 259.402344 623.8125 259.144531 623.171875 258.953125 C 622.527344 258.757812 621.871094 258.628906 621.203125 258.5625 C 620.535156 258.496094 619.867188 258.496094 619.199219 258.5625 C 618.53125 258.628906 617.875 258.761719 617.234375 258.957031 C 616.589844 259.152344 615.972656 259.410156 615.378906 259.726562 C 614.789062 260.042969 614.234375 260.414062 613.714844 260.839844 C 613.195312 261.269531 612.722656 261.742188 612.296875 262.261719 C 611.871094 262.78125 611.5 263.335938 611.183594 263.929688 C 610.871094 264.519531 610.613281 265.140625 610.417969 265.78125 C 610.226562 266.425781 610.09375 267.082031 610.03125 267.75 C 609.964844 268.417969 609.964844 269.085938 610.03125 269.753906 C 610.097656 270.421875 610.230469 271.078125 610.425781 271.71875 C 610.621094 272.363281 610.875 272.980469 611.195312 273.570312 C 611.511719 274.164062 611.882812 274.71875 612.308594 275.238281 C 612.734375 275.757812 613.207031 276.230469 613.726562 276.65625 C 614.246094 277.082031 614.804688 277.449219 615.394531 277.765625 C 615.988281 278.082031 616.605469 278.339844 617.25 278.53125 C 617.890625 278.726562 618.546875 278.855469 619.214844 278.921875 C 619.882812 278.988281 620.554688 278.988281 621.222656 278.921875 Z M 621.222656 278.921875 "/>
  <path style=" stroke:none;fill-rule:nonzero;fill:rgb(79.60968%,68.629456%,91.758728%);fill-opacity:1;" d="M 607.667969 280.265625 C 608.335938 280.199219 608.992188 280.070312 609.632812 279.875 C 610.277344 279.679688 610.894531 279.421875 611.484375 279.105469 C 612.078125 278.789062 612.632812 278.417969 613.152344 277.988281 C 613.667969 277.5625 614.140625 277.089844 614.566406 276.570312 C 614.992188 276.050781 615.363281 275.496094 615.679688 274.902344 C 615.996094 274.308594 616.25 273.691406 616.445312 273.050781 C 616.640625 272.40625 616.769531 271.75 616.835938 271.082031 C 616.902344 270.414062 616.898438 269.746094 616.832031 269.078125 C 616.765625 268.410156 616.636719 267.753906 616.441406 267.113281 C 616.246094 266.46875 615.988281 265.851562 615.671875 265.261719 C 615.355469 264.667969 614.984375 264.113281 614.554688 263.59375 C 614.128906 263.074219 613.65625 262.601562 613.136719 262.175781 C 612.617188 261.75 612.0625 261.378906 611.46875 261.066406 C 610.875 260.75 610.257812 260.492188 609.617188 260.296875 C 608.972656 260.105469 608.316406 259.972656 607.648438 259.910156 C 606.980469 259.84375 606.3125 259.84375 605.644531 259.910156 C 604.976562 259.976562 604.320312 260.109375 603.679688 260.304688 C 603.035156 260.5 602.417969 260.753906 601.824219 261.074219 C 601.234375 261.390625 600.679688 261.761719 600.160156 262.1875 C 599.640625 262.613281 599.167969 263.085938 598.742188 263.605469 C 598.316406 264.125 597.945312 264.683594 597.628906 265.273438 C 597.316406 265.867188 597.058594 266.484375 596.863281 267.128906 C 596.671875 267.769531 596.539062 268.425781 596.476562 269.09375 C 596.410156 269.765625 596.410156 270.433594 596.476562 271.101562 C 596.542969 271.769531 596.675781 272.425781 596.871094 273.066406 C 597.066406 273.710938 597.320312 274.328125 597.640625 274.917969 C 597.957031 275.511719 598.328125 276.066406 598.753906 276.585938 C 599.179688 277.101562 599.652344 277.574219 600.171875 278 C 600.691406 278.425781 601.25 278.796875 601.839844 279.113281 C 602.433594 279.429688 603.050781 279.683594 603.695312 279.878906 C 604.335938 280.074219 604.992188 280.203125 605.660156 280.269531 C 606.328125 280.335938 607 280.332031 607.667969 280.265625 Z M 607.667969 280.265625 "/>
  <path style=" stroke:none;fill-rule:nonzero;fill:rgb(79.60968%,68.629456%,91.758728%);fill-opacity:1;" d="M 628.753906 263.046875 L 610.234375 237.007812 L 597.203125 266.179688 Z M 628.753906 263.046875 "/>
  <path style=" stroke:none;fill-rule:nonzero;fill:rgb(79.60968%,68.629456%,91.758728%);fill-opacity:1;" d="M 575.53125 262.410156 C 575.800781 263.027344 576.128906 263.609375 576.515625 264.160156 C 576.898438 264.710938 577.332031 265.21875 577.816406 265.683594 C 578.300781 266.148438 578.828125 266.5625 579.390625 266.925781 C 579.957031 267.285156 580.554688 267.589844 581.179688 267.832031 C 581.804688 268.078125 582.449219 268.257812 583.109375 268.375 C 583.769531 268.496094 584.4375 268.546875 585.109375 268.53125 C 585.78125 268.519531 586.445312 268.441406 587.101562 268.296875 C 587.753906 268.152344 588.390625 267.945312 589.007812 267.675781 C 589.621094 267.40625 590.203125 267.078125 590.753906 266.695312 C 591.304688 266.308594 591.8125 265.875 592.277344 265.390625 C 592.742188 264.90625 593.15625 264.382812 593.519531 263.816406 C 593.882812 263.25 594.183594 262.652344 594.429688 262.027344 C 594.671875 261.402344 594.855469 260.757812 594.972656 260.097656 C 595.089844 259.4375 595.140625 258.769531 595.128906 258.097656 C 595.113281 257.429688 595.035156 256.765625 594.890625 256.109375 C 594.746094 255.453125 594.539062 254.816406 594.269531 254.203125 C 594 253.585938 593.671875 253.003906 593.289062 252.453125 C 592.90625 251.902344 592.46875 251.394531 591.984375 250.929688 C 591.5 250.464844 590.976562 250.050781 590.410156 249.6875 C 589.84375 249.328125 589.25 249.023438 588.625 248.78125 C 587.996094 248.535156 587.355469 248.355469 586.691406 248.238281 C 586.03125 248.117188 585.367188 248.066406 584.695312 248.082031 C 584.023438 248.09375 583.359375 248.171875 582.703125 248.316406 C 582.046875 248.460938 581.410156 248.667969 580.796875 248.9375 C 580.179688 249.207031 579.597656 249.535156 579.046875 249.917969 C 578.496094 250.304688 577.988281 250.738281 577.523438 251.222656 C 577.058594 251.707031 576.644531 252.230469 576.285156 252.796875 C 575.921875 253.363281 575.617188 253.960938 575.375 254.585938 C 575.128906 255.210938 574.949219 255.855469 574.832031 256.515625 C 574.714844 257.175781 574.660156 257.84375 574.675781 258.515625 C 574.6875 259.183594 574.769531 259.847656 574.914062 260.503906 C 575.054688 261.160156 575.261719 261.796875 575.53125 262.410156 Z M 575.53125 262.410156 "/>
  <path style=" stroke:none;fill-rule:nonzero;fill:rgb(79.60968%,68.629456%,91.758728%);fill-opacity:1;" d="M 570.066406 249.933594 C 570.335938 250.550781 570.664062 251.132812 571.046875 251.683594 C 571.429688 252.234375 571.867188 252.742188 572.351562 253.207031 C 572.835938 253.671875 573.359375 254.085938 573.925781 254.449219 C 574.492188 254.808594 575.085938 255.113281 575.710938 255.355469 C 576.339844 255.601562 576.980469 255.78125 577.644531 255.898438 C 578.304688 256.019531 578.96875 256.070312 579.640625 256.054688 C 580.3125 256.042969 580.976562 255.964844 581.632812 255.820312 C 582.289062 255.675781 582.925781 255.46875 583.539062 255.199219 C 584.15625 254.929688 584.738281 254.601562 585.289062 254.21875 C 585.839844 253.832031 586.347656 253.398438 586.8125 252.914062 C 587.277344 252.429688 587.691406 251.90625 588.050781 251.339844 C 588.414062 250.773438 588.71875 250.175781 588.960938 249.550781 C 589.207031 248.925781 589.386719 248.28125 589.503906 247.621094 C 589.621094 246.960938 589.675781 246.292969 589.660156 245.621094 C 589.648438 244.953125 589.570312 244.289062 589.425781 243.632812 C 589.28125 242.976562 589.074219 242.339844 588.804688 241.726562 C 588.535156 241.109375 588.207031 240.527344 587.824219 239.976562 C 587.4375 239.425781 587.003906 238.917969 586.519531 238.453125 C 586.035156 237.988281 585.507812 237.574219 584.945312 237.210938 C 584.378906 236.851562 583.78125 236.546875 583.15625 236.304688 C 582.53125 236.058594 581.886719 235.878906 581.226562 235.761719 C 580.566406 235.640625 579.898438 235.589844 579.226562 235.605469 C 578.554688 235.617188 577.890625 235.695312 577.238281 235.839844 C 576.582031 235.984375 575.945312 236.191406 575.328125 236.460938 C 574.714844 236.730469 574.132812 237.058594 573.582031 237.441406 C 573.03125 237.828125 572.523438 238.261719 572.058594 238.746094 C 571.59375 239.230469 571.179688 239.753906 570.816406 240.320312 C 570.457031 240.886719 570.152344 241.484375 569.90625 242.109375 C 569.664062 242.734375 569.480469 243.378906 569.363281 244.039062 C 569.246094 244.699219 569.195312 245.367188 569.207031 246.039062 C 569.222656 246.707031 569.300781 247.371094 569.445312 248.027344 C 569.589844 248.683594 569.796875 249.320312 570.066406 249.933594 Z M 570.066406 249.933594 "/>
  <path style=" stroke:none;fill-rule:nonzero;fill:rgb(79.60968%,68.629456%,91.758728%);fill-opacity:1;" d="M 592.957031 264.671875 L 612.007812 239.019531 L 580.234375 235.632812 Z M 592.957031 264.671875 "/>
  <path style=" stroke:none;fill-rule:nonzero;fill:rgb(41.178894%,28.239441%,18.03894%);fill-opacity:1;" d="M 606.304688 235.144531 C 606.027344 235.421875 605.777344 235.726562 605.558594 236.054688 C 605.335938 236.382812 605.152344 236.730469 605 237.097656 C 604.847656 237.460938 604.734375 237.839844 604.65625 238.226562 C 604.582031 238.613281 604.542969 239.007812 604.542969 239.402344 C 604.542969 239.796875 604.582031 240.1875 604.65625 240.578125 C 604.734375 240.964844 604.847656 241.339844 605 241.707031 C 605.152344 242.070312 605.335938 242.417969 605.558594 242.746094 C 605.777344 243.078125 606.027344 243.378906 606.304688 243.660156 C 606.585938 243.941406 606.890625 244.191406 607.21875 244.410156 C 607.546875 244.628906 607.894531 244.816406 608.257812 244.964844 C 608.625 245.117188 609 245.230469 609.390625 245.308594 C 609.777344 245.386719 610.167969 245.425781 610.5625 245.425781 C 610.960938 245.425781 611.351562 245.386719 611.738281 245.308594 C 612.128906 245.230469 612.503906 245.117188 612.867188 244.964844 C 613.234375 244.816406 613.582031 244.628906 613.910156 244.410156 C 614.238281 244.191406 614.542969 243.941406 614.824219 243.660156 C 615.101562 243.378906 615.351562 243.078125 615.570312 242.746094 C 615.792969 242.417969 615.976562 242.070312 616.128906 241.707031 C 616.28125 241.339844 616.394531 240.964844 616.472656 240.578125 C 616.546875 240.1875 616.585938 239.796875 616.585938 239.402344 C 616.585938 239.007812 616.546875 238.613281 616.472656 238.226562 C 616.394531 237.839844 616.28125 237.460938 616.128906 237.097656 C 615.976562 236.730469 615.792969 236.382812 615.570312 236.054688 C 615.351562 235.726562 615.101562 235.421875 614.824219 235.144531 C 614.542969 234.863281 614.238281 234.613281 613.910156 234.394531 C 613.582031 234.175781 613.234375 233.988281 612.867188 233.835938 C 612.503906 233.6875 612.128906 233.570312 611.738281 233.496094 C 611.351562 233.417969 610.960938 233.378906 610.5625 233.378906 C 610.167969 233.378906 609.777344 233.417969 609.390625 233.496094 C 609 233.570312 608.625 233.6875 608.257812 233.835938 C 607.894531 233.988281 607.546875 234.175781 607.21875 234.394531 C 606.890625 234.613281 606.585938 234.863281 606.304688 235.144531 Z M 606.304688 235.144531 "/>
  <path style=" stroke:none;fill-rule:nonzero;fill:rgb(43.919373%,63.529968%,35.289001%);fill-opacity:1;" d="M 546.640625 189.480469 C 546.023438 189.480469 545.410156 189.539062 544.800781 189.660156 C 544.195312 189.78125 543.605469 189.960938 543.03125 190.199219 C 542.460938 190.4375 541.914062 190.726562 541.398438 191.070312 C 540.886719 191.414062 540.410156 191.804688 539.96875 192.242188 C 539.53125 192.683594 539.140625 193.160156 538.796875 193.675781 C 538.453125 194.1875 538.164062 194.734375 537.925781 195.304688 C 537.6875 195.878906 537.507812 196.46875 537.386719 197.074219 C 537.265625 197.683594 537.207031 198.296875 537.207031 198.917969 C 537.207031 199.535156 537.265625 200.148438 537.386719 200.757812 C 537.507812 201.363281 537.6875 201.953125 537.925781 202.527344 C 538.164062 203.097656 538.453125 203.644531 538.796875 204.160156 C 539.140625 204.671875 539.53125 205.148438 539.96875 205.589844 C 540.410156 206.027344 540.886719 206.417969 541.398438 206.761719 C 541.914062 207.105469 542.460938 207.394531 543.03125 207.632812 C 543.605469 207.871094 544.195312 208.050781 544.800781 208.171875 C 545.410156 208.292969 546.023438 208.351562 546.640625 208.351562 C 547.261719 208.351562 547.875 208.292969 548.484375 208.171875 C 549.089844 208.050781 549.679688 207.871094 550.253906 207.632812 C 550.824219 207.394531 551.371094 207.105469 551.882812 206.761719 C 552.398438 206.417969 552.875 206.027344 553.316406 205.589844 C 553.753906 205.148438 554.144531 204.671875 554.488281 204.160156 C 554.832031 203.644531 555.121094 203.097656 555.359375 202.527344 C 555.597656 201.953125 555.777344 201.363281 555.898438 200.757812 C 556.019531 200.148438 556.078125 199.535156 556.078125 198.917969 C 556.078125 198.296875 556.019531 197.683594 555.898438 197.074219 C 555.777344 196.46875 555.597656 195.878906 555.359375 195.304688 C 555.121094 194.734375 554.832031 194.1875 554.488281 193.675781 C 554.144531 193.160156 553.753906 192.683594 553.316406 192.242188 C 552.875 191.804688 552.398438 191.414062 551.882812 191.070312 C 551.371094 190.726562 550.824219 190.4375 550.253906 190.199219 C 549.679688 189.960938 549.089844 189.78125 548.484375 189.660156 C 547.875 189.539062 547.261719 189.480469 546.640625 189.480469 Z M 546.640625 189.480469 "/>
  <path style=" stroke:none;fill-rule:nonzero;fill:rgb(53.729248%,74.899292%,44.309998%);fill-opacity:1;" d="M 686.046875 270.941406 C 685.429688 270.941406 684.816406 271.003906 684.207031 271.125 C 683.601562 271.246094 683.011719 271.421875 682.4375 271.660156 C 681.863281 271.898438 681.320312 272.1875 680.804688 272.53125 C 680.292969 272.878906 679.816406 273.269531 679.375 273.707031 C 678.9375 274.144531 678.546875 274.621094 678.203125 275.136719 C 677.859375 275.652344 677.566406 276.195312 677.332031 276.765625 C 677.09375 277.339844 676.914062 277.929688 676.792969 278.539062 C 676.671875 279.144531 676.613281 279.757812 676.613281 280.378906 C 676.613281 280.996094 676.671875 281.613281 676.792969 282.21875 C 676.914062 282.828125 677.09375 283.417969 677.332031 283.988281 C 677.566406 284.5625 677.859375 285.105469 678.203125 285.621094 C 678.546875 286.136719 678.9375 286.613281 679.375 287.050781 C 679.816406 287.488281 680.292969 287.878906 680.804688 288.222656 C 681.320312 288.566406 681.863281 288.859375 682.4375 289.097656 C 683.011719 289.332031 683.601562 289.511719 684.207031 289.632812 C 684.816406 289.753906 685.429688 289.8125 686.046875 289.8125 C 686.667969 289.8125 687.28125 289.753906 687.890625 289.632812 C 688.496094 289.511719 689.085938 289.332031 689.660156 289.097656 C 690.230469 288.859375 690.777344 288.566406 691.289062 288.222656 C 691.804688 287.878906 692.28125 287.488281 692.71875 287.050781 C 693.160156 286.613281 693.550781 286.136719 693.894531 285.621094 C 694.238281 285.105469 694.527344 284.5625 694.765625 283.988281 C 695.003906 283.417969 695.183594 282.828125 695.304688 282.21875 C 695.421875 281.613281 695.484375 280.996094 695.484375 280.378906 C 695.484375 279.757812 695.421875 279.144531 695.304688 278.539062 C 695.183594 277.929688 695.003906 277.339844 694.765625 276.765625 C 694.527344 276.195312 694.238281 275.652344 693.894531 275.136719 C 693.550781 274.621094 693.160156 274.144531 692.71875 273.707031 C 692.28125 273.269531 691.804688 272.878906 691.289062 272.53125 C 690.777344 272.1875 690.230469 271.898438 689.660156 271.660156 C 689.085938 271.421875 688.496094 271.246094 687.890625 271.125 C 687.28125 271.003906 686.667969 270.941406 686.046875 270.941406 Z M 686.046875 270.941406 "/>
  <path style=" stroke:none;fill-rule:nonzero;fill:rgb(53.729248%,74.899292%,44.309998%);fill-opacity:1;" d="M 550.03125 218.796875 C 549.632812 218.796875 549.242188 218.835938 548.851562 218.914062 C 548.460938 218.988281 548.085938 219.105469 547.71875 219.257812 C 547.351562 219.410156 547.003906 219.59375 546.671875 219.816406 C 546.34375 220.035156 546.035156 220.285156 545.753906 220.566406 C 545.476562 220.847656 545.222656 221.152344 545.003906 221.484375 C 544.78125 221.8125 544.597656 222.160156 544.445312 222.527344 C 544.292969 222.894531 544.179688 223.273438 544.101562 223.664062 C 544.023438 224.050781 543.984375 224.445312 543.984375 224.84375 C 543.984375 225.238281 544.023438 225.632812 544.101562 226.023438 C 544.179688 226.410156 544.292969 226.789062 544.445312 227.15625 C 544.597656 227.523438 544.78125 227.871094 545.003906 228.203125 C 545.222656 228.53125 545.476562 228.835938 545.753906 229.117188 C 546.035156 229.398438 546.34375 229.648438 546.671875 229.871094 C 547.003906 230.089844 547.351562 230.277344 547.71875 230.429688 C 548.085938 230.582031 548.460938 230.695312 548.851562 230.773438 C 549.242188 230.851562 549.632812 230.890625 550.03125 230.890625 C 550.429688 230.890625 550.820312 230.851562 551.210938 230.773438 C 551.601562 230.695312 551.980469 230.582031 552.34375 230.429688 C 552.710938 230.277344 553.0625 230.089844 553.390625 229.871094 C 553.722656 229.648438 554.027344 229.398438 554.308594 229.117188 C 554.589844 228.835938 554.839844 228.53125 555.058594 228.203125 C 555.28125 227.871094 555.464844 227.523438 555.617188 227.15625 C 555.769531 226.789062 555.882812 226.410156 555.960938 226.023438 C 556.039062 225.632812 556.078125 225.238281 556.078125 224.84375 C 556.078125 224.445312 556.039062 224.050781 555.960938 223.664062 C 555.882812 223.273438 555.769531 222.894531 555.617188 222.527344 C 555.464844 222.160156 555.28125 221.8125 555.058594 221.484375 C 554.839844 221.152344 554.589844 220.847656 554.308594 220.566406 C 554.027344 220.285156 553.722656 220.035156 553.390625 219.816406 C 553.0625 219.59375 552.710938 219.410156 552.34375 219.257812 C 551.980469 219.105469 551.601562 218.988281 551.210938 218.914062 C 550.820312 218.835938 550.429688 218.796875 550.03125 218.796875 Z M 550.03125 218.796875 "/>
  <path style=" stroke:none;fill-rule:nonzero;fill:rgb(43.919373%,63.529968%,35.289001%);fill-opacity:1;" d="M 553.800781 271.789062 C 553.332031 271.789062 552.863281 271.835938 552.402344 271.929688 C 551.941406 272.019531 551.496094 272.15625 551.0625 272.335938 C 550.628906 272.515625 550.214844 272.734375 549.824219 272.996094 C 549.433594 273.257812 549.070312 273.554688 548.738281 273.886719 C 548.40625 274.21875 548.109375 274.582031 547.847656 274.972656 C 547.585938 275.363281 547.367188 275.773438 547.1875 276.207031 C 547.007812 276.644531 546.871094 277.089844 546.78125 277.550781 C 546.6875 278.011719 546.640625 278.476562 546.640625 278.949219 C 546.640625 279.417969 546.6875 279.882812 546.78125 280.34375 C 546.871094 280.804688 547.007812 281.253906 547.1875 281.6875 C 547.367188 282.121094 547.585938 282.535156 547.847656 282.925781 C 548.109375 283.316406 548.40625 283.675781 548.738281 284.007812 C 549.070312 284.339844 549.433594 284.636719 549.824219 284.898438 C 550.214844 285.160156 550.628906 285.382812 551.0625 285.5625 C 551.496094 285.742188 551.941406 285.875 552.402344 285.96875 C 552.863281 286.058594 553.332031 286.105469 553.800781 286.105469 C 554.269531 286.105469 554.734375 286.058594 555.195312 285.96875 C 555.65625 285.875 556.105469 285.742188 556.539062 285.5625 C 556.972656 285.382812 557.386719 285.160156 557.777344 284.898438 C 558.167969 284.636719 558.53125 284.339844 558.863281 284.007812 C 559.195312 283.675781 559.492188 283.316406 559.75 282.925781 C 560.011719 282.535156 560.234375 282.121094 560.414062 281.6875 C 560.59375 281.253906 560.730469 280.804688 560.820312 280.34375 C 560.914062 279.882812 560.957031 279.417969 560.957031 278.949219 C 560.957031 278.476562 560.914062 278.011719 560.820312 277.550781 C 560.730469 277.089844 560.59375 276.644531 560.414062 276.207031 C 560.234375 275.773438 560.011719 275.363281 559.75 274.972656 C 559.492188 274.582031 559.195312 274.21875 558.863281 273.886719 C 558.53125 273.554688 558.167969 273.257812 557.777344 272.996094 C 557.386719 272.734375 556.972656 272.515625 556.539062 272.335938 C 556.105469 272.15625 555.65625 272.019531 555.195312 271.929688 C 554.734375 271.835938 554.269531 271.789062 553.800781 271.789062 Z M 553.800781 271.789062 "/>
  <path style=" stroke:none;fill-rule:nonzero;fill:rgb(43.919373%,63.529968%,35.289001%);fill-opacity:1;" d="M 676.613281 198.917969 C 676.144531 198.917969 675.675781 198.960938 675.214844 199.054688 C 674.753906 199.144531 674.308594 199.28125 673.875 199.460938 C 673.4375 199.640625 673.027344 199.859375 672.636719 200.121094 C 672.246094 200.382812 671.882812 200.679688 671.550781 201.011719 C 671.21875 201.34375 670.921875 201.707031 670.660156 202.097656 C 670.398438 202.488281 670.179688 202.902344 670 203.335938 C 669.820312 203.769531 669.683594 204.214844 669.59375 204.675781 C 669.5 205.136719 669.453125 205.605469 669.453125 206.074219 C 669.453125 206.542969 669.5 207.007812 669.59375 207.46875 C 669.683594 207.929688 669.820312 208.378906 670 208.8125 C 670.179688 209.246094 670.398438 209.660156 670.660156 210.050781 C 670.921875 210.441406 671.21875 210.804688 671.550781 211.136719 C 671.882812 211.46875 672.246094 211.765625 672.636719 212.027344 C 673.027344 212.285156 673.4375 212.507812 673.875 212.6875 C 674.308594 212.867188 674.753906 213.003906 675.214844 213.09375 C 675.675781 213.1875 676.144531 213.230469 676.613281 213.230469 C 677.082031 213.230469 677.546875 213.1875 678.007812 213.09375 C 678.46875 213.003906 678.917969 212.867188 679.351562 212.6875 C 679.785156 212.507812 680.199219 212.285156 680.589844 212.027344 C 680.980469 211.765625 681.339844 211.46875 681.675781 211.136719 C 682.007812 210.804688 682.304688 210.441406 682.5625 210.050781 C 682.824219 209.660156 683.046875 209.246094 683.226562 208.8125 C 683.40625 208.378906 683.542969 207.929688 683.632812 207.46875 C 683.726562 207.007812 683.769531 206.542969 683.769531 206.074219 C 683.769531 205.605469 683.726562 205.136719 683.632812 204.675781 C 683.542969 204.214844 683.40625 203.769531 683.226562 203.335938 C 683.046875 202.902344 682.824219 202.488281 682.5625 202.097656 C 682.304688 201.707031 682.007812 201.34375 681.675781 201.011719 C 681.339844 200.679688 680.980469 200.382812 680.589844 200.121094 C 680.199219 199.859375 679.785156 199.640625 679.351562 199.460938 C 678.917969 199.28125 678.46875 199.144531 678.007812 199.054688 C 677.546875 198.960938 677.082031 198.917969 676.613281 198.917969 Z M 676.613281 198.917969 "/>
  <path style=" stroke:none;fill-rule:nonzero;fill:rgb(45.098877%,45.098877%,45.098877%);fill-opacity:1;" d="M 615.394531 131.53125 C 614.960938 131.53125 614.53125 131.570312 614.101562 131.65625 C 613.675781 131.742188 613.261719 131.867188 612.859375 132.035156 C 612.457031 132.199219 612.078125 132.402344 611.714844 132.644531 C 611.355469 132.886719 611.019531 133.160156 610.710938 133.46875 C 610.40625 133.777344 610.128906 134.113281 609.886719 134.472656 C 609.648438 134.835938 609.441406 135.214844 609.277344 135.617188 C 609.109375 136.019531 608.984375 136.433594 608.898438 136.859375 C 608.816406 137.285156 608.773438 137.71875 608.773438 138.152344 C 608.773438 138.585938 608.816406 139.019531 608.898438 139.445312 C 608.984375 139.871094 609.109375 140.285156 609.277344 140.6875 C 609.441406 141.089844 609.648438 141.472656 609.886719 141.832031 C 610.128906 142.195312 610.40625 142.527344 610.710938 142.835938 C 611.019531 143.144531 611.355469 143.417969 611.714844 143.660156 C 612.078125 143.902344 612.457031 144.105469 612.859375 144.273438 C 613.261719 144.4375 613.675781 144.5625 614.101562 144.648438 C 614.53125 144.734375 614.960938 144.777344 615.394531 144.777344 C 615.832031 144.777344 616.261719 144.734375 616.6875 144.648438 C 617.113281 144.5625 617.527344 144.4375 617.929688 144.273438 C 618.332031 144.105469 618.714844 143.902344 619.074219 143.660156 C 619.4375 143.417969 619.769531 143.144531 620.078125 142.835938 C 620.386719 142.527344 620.660156 142.195312 620.902344 141.832031 C 621.144531 141.472656 621.347656 141.089844 621.515625 140.6875 C 621.679688 140.285156 621.804688 139.871094 621.890625 139.445312 C 621.976562 139.019531 622.019531 138.585938 622.019531 138.152344 C 622.019531 137.71875 621.976562 137.285156 621.890625 136.859375 C 621.804688 136.433594 621.679688 136.019531 621.515625 135.617188 C 621.347656 135.214844 621.144531 134.835938 620.902344 134.472656 C 620.660156 134.113281 620.386719 133.777344 620.078125 133.46875 C 619.769531 133.160156 619.4375 132.886719 619.074219 132.644531 C 618.714844 132.402344 618.332031 132.199219 617.929688 132.035156 C 617.527344 131.867188 617.113281 131.742188 616.6875 131.65625 C 616.261719 131.570312 615.832031 131.53125 615.394531 131.53125 Z M 615.394531 131.53125 "/>
</g>
<path style=" stroke:none;fill-rule:nonzero;fill:rgb(81.959534%,74.508667%,68.629456%);fill-opacity:1;" d="M 61.074219 206.054688 L 61.074219 488.34375 L 343.363281 488.34375 L 343.363281 206.054688 Z M 329.144531 474.125 L 74.996094 474.125 L 74.996094 219.976562 L 329.144531 219.976562 Z M 329.144531 474.125 "/>
<path style=" stroke:none;fill-rule:nonzero;fill:rgb(78.039551%,100%,91.758728%);fill-opacity:1;" d="M -0.816406 206.066406 L 61.199219 206.066406 L 61.199219 488.605469 L -0.816406 488.605469 Z M -0.816406 206.066406 "/>
<path style="fill:none;stroke-width:1;stroke-linecap:butt;stroke-linejoin:miter;stroke:rgb(89.408875%,100%,96.078491%);stroke-opacity:1;stroke-miterlimit:4;" d="M 0.000088032 0.000113498 L 25.745401 0.000113498 " transform="matrix(0.000000000000000458,7.4868,-7.5,0.000000000000000459,121.528195,488.538403)"/>
<path style="fill:none;stroke-width:1;stroke-linecap:butt;stroke-linejoin:miter;stroke:rgb(89.408875%,100%,96.078491%);stroke-opacity:1;stroke-miterlimit:4;" d="M 0.000088032 0.000136584 L 25.745401 0.000136584 " transform="matrix(0.000000000000000458,7.4868,-7.5,0.000000000000000459,270.711962,488.538403)"/>
</g>
</svg>
