<svg xmlns="http://www.w3.org/2000/svg" width="1080" height="1080" viewBox="0 0 810 810" version="1.2"><defs><clipPath id="a"><path d="M325 0h163v2H325zm0 0"/></clipPath><clipPath id="b"><path d="M323.184-118.457l161.921-4.988L488.848-2 326.926 2.988zm0 0"/></clipPath><clipPath id="c"><path d="M323.184-118.457l161.921-4.988L488.848-2 326.926 2.988zm0 0"/></clipPath></defs><path fill="#fff" d="M0 0h810v810H0z"/><path fill="#fff" d="M0 0h810v810H0z"/><path fill="#a7dfff" d="M0 0h810v810H0z"/><path class="cloud" d="M146.371 226.918c-2.738 0-5.394.324-7.957.894-3.336-16.609-18.016-29.12-35.621-29.12-17.828 0-32.629 12.835-35.719 29.753-.207-.004-.41-.027-.62-.027-14.302 0-26.263 9.902-29.462 23.21a25.374 25.374 0 00-2.39-.12c-13.926 0-25.211 11.281-25.211 25.195 0 13.91 11.285 25.192 25.21 25.192 5.57 0 10.7-1.829 14.876-4.883 3.347 9.988 12.77 17.195 23.894 17.195 8.676 0 16.324-4.375 20.863-11.043 4.332 8.66 13.266 14.617 23.618 14.617 11.804 0 21.8-7.742 25.18-18.422 1.1.102 2.21.168 3.34.168 20.065 0 36.339-16.254 36.339-36.304 0-20.055-16.274-36.305-36.34-36.305" fill="#fff"/><path d="M.004-1.664H343.21v208.133H.004zm0 0" fill="#c7ffea"/><path class="cloud" d="M274.14 422.074s4.032-15.539 25.454-19.195c21.426-3.656 35.71 11.883 35.71 11.883s5.86-12.617 26.184-4.207c20.328 8.41 17.578 26.144 17.578 26.144s11.54-1.644 14.832 10.422c3.297 12.067-3.66 18.828-8.789 20.477 0 0-7.14 14.441-27.097 4.75 0 0-.188 6.949-10.809 9.875-10.617 2.925-17.394-3.11-17.394-3.11s-6.594 8.41-16.114-.547c0 0-3.113 8.41-17.398 6.946-14.281-1.461-15.93-13.895-15.93-13.895s-11.902 11.52-31.863 4.754c-19.957-6.766-16.844-15.172-16.844-15.172s-16.847 3.473-20.879-7.133c-4.027-10.601 15.934-28.52 28.75-19.011 0 0 1.832-8.043 11.356-14.442 9.52-6.402 23.254 1.461 23.254 1.461zm0 0" fill="#fff"/><path d="M341.984-1.652H811.75V682.75H341.984zm0 0" fill="#c7ffea"/><g clip-path="url(#a)"><g clip-path="url(#b)"><g clip-path="url(#c)"><path d="M384.273 1.219c-15.648.48-29.808-9-35.535-23.407-14.02-6.375-23.203-19.988-23.683-35.546-.688-22.325 16.906-41.04 39.234-41.727.578-.02 1.152-.016 1.707.008 8.39-12.895 22.625-21.016 38.149-21.496 21.023-.649 39.816 12.91 46.277 32.414 19.48-2.094 36.168 13.305 36.762 32.558.625 20.207-16.82 37.243-37.59 34.52-5.246 8.766-14.559 14.36-25.047 14.684a30.02 30.02 0 01-14.738-3.375C403.133-3.227 393.98.918 384.273 1.219zm0 0" fill="#fff"/></g></g></g><path d="M-.813 487.781h343.774v196.637H-.813zm0 0" fill="#c7ffea"/><path d="M.031 681.629H810.06v128.625H.03zm0 0" fill="#b48d6e"/><path d="M0 0h27.696" transform="matrix(0 7.50127 -7.5 0 270.71 -1.661)" fill="none" stroke="#e4fff5"/><path d="M0 0h28.002" transform="matrix(0 7.49958 -7.5 0 121.527 -1.662)" fill="none" stroke="#e4fff5"/><path d="M.5 0h539.545" transform="matrix(1.4999 0 0 1.5 -.817 727.125)" fill="none" stroke-linecap="round" stroke="#a67d5c"/><path d="M.5 0h539.544" transform="matrix(1.4999 0 0 1.5 0 771.723)" fill="none" stroke-linecap="round" stroke="#a67d5c"/><path d="M.5 0h28.23" transform="matrix(0 1.48837 -1.5 0 182.767 682.522)" fill="none" stroke-linecap="round" stroke="#a67d5c"/><path d="M.499 0H28.73" transform="matrix(0 1.48837 -1.5 0 650.302 684.031)" fill="none" stroke-linecap="round" stroke="#a67d5c"/><path d="M.501-.001h28.232" transform="matrix(0 1.48837 -1.5 0 406.725 727.88)" fill="none" stroke-linecap="round" stroke="#a67d5c"/><path d="M.501 0h28.232" transform="matrix(0 1.48837 -1.5 0 183.517 772.477)" fill="none" stroke-linecap="round" stroke="#a67d5c"/><path d="M.499 0h22.618" transform="matrix(0 1.49305 -1.5 0 183.516 772.478)" fill="none" stroke-linecap="round" stroke="#a67d5c"/><path d="M.499 0h22.618" transform="matrix(0 1.49305 -1.5 0 651.801 772.478)" fill="none" stroke-linecap="round" stroke="#a67d5c"/><path d="M.5 0h22.613" transform="matrix(0 11.24404 -11.25 0 201.116 214.1)" fill="none" stroke-linecap="round" stroke="#d1beaf"/><path d="M.5 0h22.613" transform="matrix(-11.24404 0 0 -11.25 333.937 346.92)" fill="none" stroke-linecap="round" stroke="#d1beaf"/><path d="M0 0h91.106" transform="matrix(0 7.49961 -7.5 0 693.424 -1.66)" fill="none" stroke="#e4fff5"/><path d="M0 0h91.106" transform="matrix(0 7.49961 -7.5 0 550.149 -1.66)" fill="none" stroke="#e4fff5"/><path d="M0 0h91.106" transform="matrix(0 7.49961 -7.5 0 413.985 -1.66)" fill="none" stroke="#e4fff5"/><g class="painting"><path d="M.5 0h22.058" transform="matrix(3.42088 -1.51378 1.51749 3.42925 539.458 169.972)" fill="none" stroke-linecap="round" stroke="#000"/><path d="M.5 0h20.734" transform="matrix(-3.45638 -1.48356 1.4791 -3.44598 693.42 169.683)" fill="none" stroke-linecap="round" stroke="#000"/><path d="M515.504 167.277H715.53v140.496H515.504zm0 0" fill="#8b705b"/><path d="M692.3 297.777H538.829c-6.32 0-11.473-5.152-11.473-11.472v-97.598c0-6.32 5.153-11.473 11.473-11.473h153.473c6.32 0 11.472 5.153 11.472 11.473v97.598c0 6.32-5.152 11.472-11.472 11.472zm0 0" fill="#fffcf5"/><path d="M633.945 264.023l34.742-4.086-20.605-28.269zm0 0" fill="#89bf71"/><path d="M610.852 234.797a17.68 17.68 0 00-1.157 3.726 17.186 17.186 0 00-.265 1.95 17.599 17.599 0 00-.055 1.98c.016.664.066 1.328.156 1.996a19.521 19.521 0 00.946 3.95c.226.648.484 1.288.777 1.917a22.1 22.1 0 002.129 3.63c.418.577.86 1.136 1.332 1.675.472.543.969 1.063 1.492 1.563a25.009 25.009 0 009.332 5.625c.695.234 1.399.437 2.113.609a22.53 22.53 0 002.149.422 23.92 23.92 0 004.328.265 23.096 23.096 0 004.223-.52 21.298 21.298 0 002.02-.546 20.196 20.196 0 001.937-.734 20.491 20.491 0 001.832-.91 19.36 19.36 0 003.277-2.316c.5-.442.973-.903 1.418-1.388a17.79 17.79 0 003.879-6.734 17.985 17.985 0 00.742-3.848c.055-.656.074-1.316.055-1.98a19.16 19.16 0 00-.524-3.98 20.878 20.878 0 00-1.355-3.883 22.72 22.72 0 00-.973-1.856 22.771 22.771 0 00-2.488-3.45 23.935 23.935 0 00-3.133-2.996c-.57-.456-1.16-.886-1.77-1.292a26.123 26.123 0 00-3.863-2.106 25.72 25.72 0 00-2.058-.793 25.442 25.442 0 00-4.262-1.031 24.006 24.006 0 00-4.328-.262 22.738 22.738 0 00-4.223.516c-.687.152-1.36.336-2.023.547-.66.215-1.305.46-1.934.734a19.982 19.982 0 00-3.539 1.989c-.55.39-1.074.8-1.57 1.242-.5.437-.973.898-1.418 1.387a17.802 17.802 0 00-3.2 4.902zm29.984-22.539l-7.957-34.067-25.781 23.645zm0 0" fill="#89bf71"/><path d="M614.379 238.48a17.754 17.754 0 003.836.73 18.307 18.307 0 003.941-.12 19.14 19.14 0 003.899-.969 20.24 20.24 0 001.883-.793 20.04 20.04 0 001.82-.988c.594-.36 1.172-.75 1.734-1.172.563-.422 1.11-.871 1.633-1.352.527-.476 1.031-.98 1.52-1.507a24.51 24.51 0 002.625-3.45c.386-.617.75-1.254 1.085-1.906a25.622 25.622 0 001.657-4.074 25.164 25.164 0 00.93-4.3c.09-.727.152-1.454.18-2.184.026-.73.019-1.454-.017-2.176a24.669 24.669 0 00-.21-2.153 23.544 23.544 0 00-.399-2.105 22.122 22.122 0 00-1.36-3.98 20.431 20.431 0 00-2.055-3.559c-.397-.55-.82-1.078-1.265-1.578a18.584 18.584 0 00-2.945-2.676 18.869 18.869 0 00-1.648-1.07 18.307 18.307 0 00-1.75-.88 17.996 17.996 0 00-3.723-1.148c-.64-.125-1.29-.21-1.941-.261a18.355 18.355 0 00-5.907.5 20.023 20.023 0 00-3.82 1.382c-.617.297-1.223.625-1.816.989a22.35 22.35 0 00-1.735 1.172c-.562.421-1.11.875-1.633 1.351a23.515 23.515 0 00-2.902 3.168 24.725 24.725 0 00-2.328 3.695 26.22 26.22 0 00-.918 2 24.34 24.34 0 00-.738 2.075 23.772 23.772 0 00-.559 2.132 24.163 24.163 0 00-.371 2.168 24.19 24.19 0 00-.164 4.364c.039.722.11 1.437.21 2.148.102.711.235 1.414.4 2.106a22.121 22.121 0 001.36 3.98c.284.633.6 1.25.944 1.844.344.594.711 1.168 1.11 1.719.394.55.816 1.074 1.265 1.574a18.698 18.698 0 002.941 2.676 18.93 18.93 0 001.653 1.07c.566.324 1.152.617 1.75.879.597.258 1.207.484 1.828.68zm0 0" fill="#89bf71"/><path d="M576.207 214.676c-.477.476-.898.992-1.273 1.55a10.395 10.395 0 00-.946 1.77 10.55 10.55 0 00-.582 1.918 10.373 10.373 0 000 3.992c.133.656.328 1.297.582 1.918.258.621.574 1.211.946 1.77a10.306 10.306 0 004.59 3.766 10.288 10.288 0 003.913.777 10.288 10.288 0 003.918-.777 10.233 10.233 0 003.317-2.22 10.084 10.084 0 002.219-3.316c.254-.62.449-1.262.582-1.918a10.373 10.373 0 000-3.992 10.55 10.55 0 00-.582-1.918 10.395 10.395 0 00-.946-1.77 10.306 10.306 0 00-1.273-1.55 10.28 10.28 0 00-7.235-2.996c-.667 0-1.335.066-1.992.199a10.233 10.233 0 00-3.688 1.527 10.28 10.28 0 00-1.55 1.27zm0 0" fill="#cbafea"/><path d="M585.84 205.047a10.084 10.084 0 00-2.219 3.316 10.34 10.34 0 00-.582 1.918 10.373 10.373 0 000 3.992 10.25 10.25 0 002.8 5.239 10.25 10.25 0 003.317 2.215 10.12 10.12 0 001.918.582 10.086 10.086 0 003.992 0 9.967 9.967 0 001.918-.582 10.28 10.28 0 003.32-2.215 10.28 10.28 0 002.997-7.235c0-.672-.067-1.336-.2-1.996a10.051 10.051 0 00-.581-1.918 9.872 9.872 0 00-.946-1.77 10.06 10.06 0 00-1.27-1.546 10.074 10.074 0 00-1.55-1.274 10.25 10.25 0 00-5.684-1.723c-.672 0-1.336.063-1.996.196a10.34 10.34 0 00-1.918.582 10.127 10.127 0 00-3.316 2.219zm0 0" fill="#cbafea"/><path d="M580.441 231.73l30.829 8.407-8.41-30.825zm70.657 4.68a10.21 10.21 0 00-.457-3.965 10.075 10.075 0 00-.797-1.84 10.321 10.321 0 00-2.578-3.043 10.094 10.094 0 00-1.688-1.085 10.253 10.253 0 00-7.8-.645 10.39 10.39 0 00-1.84.797 10.41 10.41 0 00-1.649 1.14 10.14 10.14 0 00-1.394 1.442 10.17 10.17 0 00-1.09 1.684 10.321 10.321 0 00-1.094 3.835 9.853 9.853 0 00.031 2.008 9.87 9.87 0 00.422 1.957c.203.64.469 1.254.797 1.84a10.14 10.14 0 002.582 3.047 10.15 10.15 0 001.684 1.086 10.253 10.253 0 007.8.645 10.235 10.235 0 007.07-8.902zm0 0" fill="#cbafea"/><path d="M649.977 249.988a9.853 9.853 0 00-.032-2.008 9.878 9.878 0 00-.422-1.957 9.847 9.847 0 00-.796-1.84 10.191 10.191 0 00-4.266-4.132 10.056 10.056 0 00-1.863-.738 10.308 10.308 0 00-3.977-.329c-.668.078-1.32.22-1.96.422a10.235 10.235 0 00-5.816 14.707 10.321 10.321 0 002.578 3.043c.526.418 1.089.781 1.686 1.086.598.309 1.22.555 1.864.738a9.963 9.963 0 001.972.36 10.202 10.202 0 008.848-3.832 10.17 10.17 0 001.09-1.684 10.321 10.321 0 001.094-3.836zm0 0" fill="#cbafea"/><path d="M636.84 226.14l-28.953 13.524 26.351 18.078zm-16.297-26.742a10.001 10.001 0 00-1.918-.593 10.343 10.343 0 00-3.988-.023 10.255 10.255 0 00-3.7 1.507c-.558.367-1.078.79-1.554 1.262-.477.472-.906.984-1.281 1.543a10.38 10.38 0 00-.957 1.761 10.642 10.642 0 00-.594 1.915c-.133.66-.203 1.324-.207 1.996-.004.672.058 1.336.187 1.996a10.17 10.17 0 001.504 3.695c.371.563.79 1.082 1.262 1.559a10.13 10.13 0 003.309 2.234 9.88 9.88 0 001.914.594 10.113 10.113 0 003.992.023 10.137 10.137 0 001.922-.57c.62-.254 1.21-.567 1.773-.934a10.286 10.286 0 001.555-1.265 9.95 9.95 0 001.281-1.543 10.247 10.247 0 001.55-3.676c.134-.66.204-1.324.208-1.996a10.372 10.372 0 00-.184-1.996c-.129-.66-.32-1.301-.574-1.922a9.984 9.984 0 00-.934-1.774 10.488 10.488 0 00-1.261-1.558 10.537 10.537 0 00-1.543-1.281 10.512 10.512 0 00-1.762-.954zm0 0" fill="#cbafea"/><path d="M633.094 204.684a10.157 10.157 0 00-3.907-.801 10.41 10.41 0 00-2 .183 10.43 10.43 0 00-1.921.57 10.265 10.265 0 00-5.567 5.505 10.338 10.338 0 00-.594 1.914c-.132.66-.203 1.324-.207 1.996-.003.672.059 1.336.184 1.996.129.66.32 1.3.574 1.922.25.62.563 1.215.934 1.773.37.563.789 1.082 1.262 1.559a10.237 10.237 0 005.223 2.828 10.03 10.03 0 003.988.023c.66-.125 1.3-.316 1.921-.57a10.41 10.41 0 001.778-.934 10.286 10.286 0 001.554-1.265c.477-.469.907-.985 1.282-1.54.375-.558.695-1.144.957-1.765.258-.617.457-1.258.593-1.914.133-.66.204-1.324.207-1.996a10.074 10.074 0 00-.187-1.996 10.246 10.246 0 00-2.766-5.254 10.537 10.537 0 00-1.543-1.281 10.397 10.397 0 00-1.765-.953zm0 0" fill="#cbafea"/><path d="M606.348 209.754l3.843 31.719 25.375-19.418zm14.875 69.168c.668-.067 1.324-.2 1.965-.395a10.116 10.116 0 001.851-.77 10.167 10.167 0 001.668-1.112 10.35 10.35 0 002.527-3.09 10.216 10.216 0 00-2.543-12.723 10.167 10.167 0 00-3.52-1.879 10.275 10.275 0 00-3.972-.39 10.268 10.268 0 00-5.484 2.277c-.52.43-.992.902-1.418 1.422a10.167 10.167 0 00-1.879 3.52c-.191.644-.324 1.3-.387 1.968a10.103 10.103 0 00.395 3.969 9.85 9.85 0 00.77 1.851 10.167 10.167 0 004.199 4.196 9.98 9.98 0 001.855.765 10.177 10.177 0 003.973.39zm0 0" fill="#cbafea"/><path d="M607.668 280.266a10.177 10.177 0 005.484-2.278 10.321 10.321 0 002.528-3.086 10.275 10.275 0 001.156-3.82c.066-.668.062-1.336-.004-2.004a10.177 10.177 0 00-2.277-5.484 10.135 10.135 0 00-3.086-2.528 10.348 10.348 0 00-1.852-.77c-.644-.19-1.3-.323-1.969-.386a10.103 10.103 0 00-3.968.395 9.994 9.994 0 00-1.856.77 10.302 10.302 0 00-3.082 2.53 10.35 10.35 0 00-1.113 1.668 10.17 10.17 0 00-1.152 3.82 10.143 10.143 0 00.394 3.973 9.85 9.85 0 00.77 1.852 10.167 10.167 0 004.199 4.195 10.252 10.252 0 005.828 1.153zm0 0" fill="#cbafea"/><path d="M628.754 263.047l-18.52-26.04-13.03 29.173zm-53.223-.637c.27.617.598 1.2.985 1.75a10.1 10.1 0 001.3 1.524c.485.464 1.012.878 1.575 1.242a10.257 10.257 0 003.718 1.449 9.78 9.78 0 002 .156c.672-.011 1.336-.09 1.993-.234a10.429 10.429 0 001.906-.621c.613-.27 1.195-.598 1.746-.98a10.334 10.334 0 002.766-2.88 10.276 10.276 0 001.453-3.718c.117-.66.168-1.328.156-2a10.355 10.355 0 00-.238-1.989 10.241 10.241 0 00-1.602-3.656 10.292 10.292 0 00-2.879-2.766 10.222 10.222 0 00-3.719-1.449 9.764 9.764 0 00-1.996-.156 10.163 10.163 0 00-3.898.855 10.24 10.24 0 00-3.274 2.286 10.033 10.033 0 00-1.238 1.574 10.01 10.01 0 00-.91 1.789 10.05 10.05 0 00-.543 1.93c-.117.66-.172 1.328-.156 2 .011.668.094 1.332.238 1.988.14.656.348 1.293.617 1.906zm0 0" fill="#cbafea"/><path d="M570.066 249.934a10.105 10.105 0 002.285 3.273c.485.465 1.008.879 1.575 1.242a10.222 10.222 0 003.719 1.45c.66.12 1.324.171 1.996.156a10.163 10.163 0 003.898-.855 10.24 10.24 0 003.274-2.286c.464-.484.878-1.008 1.238-1.574a10.01 10.01 0 00.91-1.79 10.02 10.02 0 00.543-1.929c.117-.66.172-1.328.156-2a10.163 10.163 0 00-.855-3.895 10.342 10.342 0 00-.98-1.75 10.334 10.334 0 00-2.88-2.765 10.257 10.257 0 00-3.718-1.45 9.802 9.802 0 00-2-.156 9.982 9.982 0 00-1.989.235 10.29 10.29 0 00-1.91.62c-.613.27-1.195.599-1.746.981a10.334 10.334 0 00-2.766 2.88 10.55 10.55 0 00-.91 1.788 10.34 10.34 0 00-.543 1.93 10.38 10.38 0 00-.156 2 10.242 10.242 0 00.859 3.895zm0 0" fill="#cbafea"/><path d="M592.957 264.672l19.05-25.652-31.773-3.387zm0 0" fill="#cbafea"/><path d="M606.305 235.145a5.971 5.971 0 00-.746.91 5.817 5.817 0 00-.559 1.043 5.98 5.98 0 00-.457 2.304c0 .395.039.786.113 1.176.078.387.192.762.344 1.129.152.363.336.711.559 1.04a6.002 6.002 0 001.66 1.663 6.017 6.017 0 005.648.555 5.985 5.985 0 002.703-2.219 5.918 5.918 0 00.903-2.168 6.29 6.29 0 00.113-1.176c0-.394-.04-.789-.113-1.175a5.98 5.98 0 00-.344-1.13 5.817 5.817 0 00-.559-1.042 5.971 5.971 0 00-1.66-1.66 5.883 5.883 0 00-2.172-.898 5.913 5.913 0 00-2.347 0 5.865 5.865 0 00-2.173.898 5.985 5.985 0 00-.913.75zm0 0" fill="#69482e"/><path d="M546.64 189.48a9.304 9.304 0 00-3.609.72 9.632 9.632 0 00-1.633.87 9.751 9.751 0 00-1.43 1.172 9.581 9.581 0 00-2.042 3.063 9.433 9.433 0 00-.54 1.77 9.425 9.425 0 00-.179 1.843 9.332 9.332 0 00.719 3.61c.238.57.527 1.117.87 1.632.345.512.735.988 1.173 1.43.441.437.918.828 1.43 1.172a9.632 9.632 0 001.632.87 9.433 9.433 0 001.77.54c.61.121 1.222.18 1.84.18a9.43 9.43 0 001.843-.18 9.433 9.433 0 003.399-1.41 9.581 9.581 0 001.433-1.172 9.751 9.751 0 001.172-1.43 9.632 9.632 0 00.871-1.633 9.433 9.433 0 00.54-1.77 9.49 9.49 0 000-3.683 9.433 9.433 0 00-1.41-3.398 9.581 9.581 0 00-1.173-1.434 9.581 9.581 0 00-3.062-2.043 9.433 9.433 0 00-1.77-.539 9.425 9.425 0 00-1.843-.18zm0 0" fill="#70a25a"/><path d="M686.047 270.941a9.42 9.42 0 00-1.84.184 9.42 9.42 0 00-3.402 1.406c-.512.348-.989.739-1.43 1.176a9.357 9.357 0 00-1.172 1.43 9.327 9.327 0 00-.871 1.629 9.383 9.383 0 00-.719 3.613 9.386 9.386 0 001.59 5.242 9.357 9.357 0 002.602 2.602 9.505 9.505 0 001.633.875 9.415 9.415 0 003.61.715 9.425 9.425 0 003.612-.715 9.47 9.47 0 001.63-.875 9.357 9.357 0 001.429-1.172 9.157 9.157 0 001.176-1.43 9.486 9.486 0 001.59-5.242 9.383 9.383 0 00-.719-3.613 9.597 9.597 0 00-.871-1.63 9.157 9.157 0 00-1.176-1.429 9.45 9.45 0 00-3.059-2.047 9.42 9.42 0 00-1.77-.535 9.43 9.43 0 00-1.843-.184zm-136.016-52.144a6 6 0 00-1.18.117c-.39.074-.765.191-1.132.344a5.987 5.987 0 00-1.047.558 6.015 6.015 0 00-.918.75 6.058 6.058 0 00-.75.918 6.055 6.055 0 002.715 8.945 6.017 6.017 0 002.312.462c.399 0 .79-.04 1.18-.118a6.111 6.111 0 002.18-.902 6.083 6.083 0 001.668-1.668 6.106 6.106 0 001.02-3.36c0-.398-.04-.792-.118-1.179a6.055 6.055 0 00-1.652-3.098 5.832 5.832 0 00-.918-.75 5.85 5.85 0 00-1.047-.558 5.664 5.664 0 00-1.133-.344 5.981 5.981 0 00-1.18-.117zm0 0" fill="#89bf71"/><path d="M553.8 271.79a7 7 0 00-1.398.14c-.46.09-.906.226-1.34.406a7.106 7.106 0 00-2.324 1.55 7.201 7.201 0 00-1.55 2.321 7.1 7.1 0 00-.407 1.344 6.99 6.99 0 000 2.793c.09.46.227.91.407 1.344a7.106 7.106 0 002.636 3.21 7.124 7.124 0 005.371 1.07 7.124 7.124 0 002.582-1.07 7.136 7.136 0 001.973-1.972 7.124 7.124 0 001.07-5.375 7.097 7.097 0 00-.406-1.344 7.09 7.09 0 00-.664-1.234 6.947 6.947 0 00-.887-1.086 7.106 7.106 0 00-3.668-1.957 6.98 6.98 0 00-1.394-.14zm122.813-72.872c-.468 0-.937.043-1.398.137-.461.09-.906.226-1.34.406-.438.18-.848.398-1.238.66a7.201 7.201 0 00-1.977 1.977c-.262.39-.48.804-.66 1.238-.18.434-.316.879-.406 1.34a7.018 7.018 0 000 2.793 7.106 7.106 0 001.957 3.668c.332.332.695.629 1.086.89a7.23 7.23 0 002.578 1.067c.46.094.93.136 1.398.136a7.104 7.104 0 002.739-.542 7.38 7.38 0 001.238-.66 7.4 7.4 0 001.086-.891c.332-.332.629-.696.886-1.086a7.124 7.124 0 001.07-5.375 7.124 7.124 0 00-1.07-2.578 6.947 6.947 0 00-.886-1.086 7.106 7.106 0 00-3.668-1.957 6.975 6.975 0 00-1.395-.137zm0 0" fill="#70a25a"/><path d="M615.395 131.531a6.563 6.563 0 00-2.536.504 6.435 6.435 0 00-1.144.61c-.36.242-.695.515-1.004.824a6.999 6.999 0 00-.824 1.004 6.698 6.698 0 00-.989 2.386 6.85 6.85 0 00-.125 1.293c0 .434.043.868.125 1.293.086.426.211.84.38 1.243a6.555 6.555 0 001.433 2.148 6.717 6.717 0 002.148 1.438c.403.163.817.288 1.243.374a6.568 6.568 0 002.586 0 6.573 6.573 0 002.387-.988 6.554 6.554 0 001.003-.824c.309-.309.582-.64.824-1.004a6.573 6.573 0 00.989-2.387 6.538 6.538 0 000-2.586 6.896 6.896 0 00-.375-1.242 6.717 6.717 0 00-1.438-2.148 6.554 6.554 0 00-2.148-1.434 6.506 6.506 0 00-2.535-.504zm0 0" fill="#737373"/></g><path d="M61.074 206.055v282.289h282.29v-282.29zm268.07 268.07H74.997V219.977h254.149zm0 0" fill="#d1beaf"/><path d="M-.816 206.066h62.015v282.54H-.816zm0 0" fill="#c7ffea"/><path d="M0 0h25.745" transform="matrix(0 7.4868 -7.5 0 121.528 488.538)" fill="none" stroke="#e4fff5"/><path d="M0 0h25.745" transform="matrix(0 7.4868 -7.5 0 270.712 488.538)" fill="none" stroke="#e4fff5"/></svg>