<?xml version="1.0" encoding="UTF-8"?>
<svg xmlns="http://www.w3.org/2000/svg" xmlns:xlink="http://www.w3.org/1999/xlink" width="810pt" height="809.999993pt" viewBox="0 0 810 809.999993" version="1.2">
<defs>
<clipPath id="clip1">
  <path d="M 315 319 L 479 319 L 479 436 L 315 436 Z M 315 319 "/>
</clipPath>
<clipPath id="clip2">
  <path d="M 334.898438 309.632812 L 488.796875 346.492188 L 461.195312 461.734375 L 307.300781 424.875 Z M 334.898438 309.632812 "/>
</clipPath>
<clipPath id="clip3">
  <path d="M 334.898438 309.632812 L 488.796875 346.492188 L 461.195312 461.734375 L 307.300781 424.875 Z M 334.898438 309.632812 "/>
</clipPath>
<clipPath id="clip4">
  <path d="M 325 0 L 488 0 L 488 2 L 325 2 Z M 325 0 "/>
</clipPath>
<clipPath id="clip5">
  <path d="M 323.183594 -118.457031 L 485.105469 -123.445312 L 488.847656 -2 L 326.925781 2.988281 Z M 323.183594 -118.457031 "/>
</clipPath>
<clipPath id="clip6">
  <path d="M 323.183594 -118.457031 L 485.105469 -123.445312 L 488.847656 -2 L 326.925781 2.988281 Z M 323.183594 -118.457031 "/>
</clipPath>
<clipPath id="clip7">
  <path d="M 0 477.542969 L 176 477.542969 L 176 599.042969 L 0 599.042969 Z M 0 477.542969 "/>
</clipPath>
<clipPath id="clip8">
  <path d="M 622 487 L 786 487 L 786 603 L 622 603 Z M 622 487 "/>
</clipPath>
<clipPath id="clip9">
  <path d="M 641.972656 477.542969 L 795.871094 514.402344 L 768.269531 629.644531 L 614.371094 592.785156 Z M 641.972656 477.542969 "/>
</clipPath>
<clipPath id="clip10">
  <path d="M 641.972656 477.542969 L 795.871094 514.402344 L 768.269531 629.644531 L 614.371094 592.785156 Z M 641.972656 477.542969 "/>
</clipPath>
<clipPath id="clip11">
  <path d="M 58.625 54.601562 L 234.875 54.601562 L 234.875 176.101562 L 58.625 176.101562 Z M 58.625 54.601562 "/>
</clipPath>
</defs>
<g id="surface1">
<rect x="0" y="0" width="810" height="809.999993" style="fill:rgb(100%,100%,100%);fill-opacity:1;stroke:none;"/>
<rect x="0" y="0" width="810" height="809.999993" style="fill:rgb(10.5896%,30.589294%,41.958618%);fill-opacity:1;stroke:none;"/>
<g clip-path="url(#clip1)" clip-rule="nonzero">
<g clip-path="url(#clip2)" clip-rule="nonzero">
<g clip-path="url(#clip3)" clip-rule="nonzero">
<path style=" stroke:none;fill-rule:nonzero;fill:rgb(36.079407%,49.01886%,57.249451%);fill-opacity:1;" d="M 458.875 363.0625 C 456.820312 362.570312 454.765625 362.347656 452.746094 362.367188 C 452.679688 348.285156 443.015625 335.527344 428.667969 332.09375 C 418.390625 329.628906 408.085938 332.523438 400.703125 338.96875 C 395.933594 330.210938 387.605469 323.425781 377.128906 320.917969 C 357.542969 316.226562 337.875 328.25 333.199219 347.769531 C 331.882812 353.261719 331.894531 358.761719 333.027344 363.9375 C 324.972656 369.136719 318.832031 377.3125 316.429688 387.359375 C 311.457031 408.109375 324.308594 428.976562 345.128906 433.964844 C 359.917969 437.507812 374.75 432.082031 383.886719 421.203125 C 386.667969 424.640625 390.5625 427.226562 395.199219 428.339844 C 403.351562 430.292969 411.519531 427.152344 416.367188 420.984375 C 417.035156 421.222656 417.722656 421.425781 418.425781 421.59375 C 428.207031 423.9375 438.027344 418.71875 441.699219 409.710938 C 443.417969 410.582031 445.261719 411.269531 447.214844 411.738281 C 460.699219 414.96875 474.242188 406.691406 477.464844 393.25 C 480.683594 379.808594 472.359375 366.292969 458.875 363.0625 Z M 458.875 363.0625 "/>
</g>
</g>
</g>
<g clip-path="url(#clip4)" clip-rule="nonzero">
<g clip-path="url(#clip5)" clip-rule="nonzero">
<g clip-path="url(#clip6)" clip-rule="nonzero">
<path style=" stroke:none;fill-rule:nonzero;fill:rgb(100%,100%,100%);fill-opacity:1;" d="M 384.273438 1.21875 C 368.625 1.699219 354.464844 -7.78125 348.738281 -22.1875 C 334.71875 -28.5625 325.535156 -42.175781 325.054688 -57.734375 C 324.367188 -80.058594 341.960938 -98.773438 364.289062 -99.460938 C 364.867188 -99.480469 365.441406 -99.476562 365.996094 -99.453125 C 374.386719 -112.347656 388.621094 -120.46875 404.144531 -120.949219 C 425.167969 -121.597656 443.960938 -108.039062 450.421875 -88.535156 C 469.902344 -90.628906 486.589844 -75.230469 487.183594 -55.976562 C 487.808594 -35.769531 470.363281 -18.734375 449.59375 -21.457031 C 444.347656 -12.691406 435.035156 -7.097656 424.546875 -6.773438 C 419.410156 -6.617188 414.355469 -7.792969 409.808594 -10.148438 C 403.132812 -3.226562 393.980469 0.917969 384.273438 1.21875 Z M 384.273438 1.21875 "/>
</g>
</g>
</g>
<path style=" stroke:none;fill-rule:nonzero;fill:rgb(36.079407%,49.01886%,57.249451%);fill-opacity:1;" d="M 138.445312 506.972656 C 135.707031 506.972656 133.054688 507.296875 130.488281 507.867188 C 127.152344 491.257812 112.476562 478.746094 94.867188 478.746094 C 77.042969 478.746094 62.242188 491.582031 59.152344 508.5 C 58.945312 508.496094 58.738281 508.472656 58.527344 508.472656 C 44.226562 508.472656 32.269531 518.375 29.070312 531.683594 C 28.28125 531.609375 27.488281 531.5625 26.679688 531.5625 C 12.753906 531.5625 1.464844 542.84375 1.464844 556.757812 C 1.464844 570.667969 12.753906 581.949219 26.679688 581.949219 C 32.25 581.949219 37.378906 580.121094 41.550781 577.066406 C 44.898438 587.054688 54.324219 594.261719 65.445312 594.261719 C 74.121094 594.261719 81.769531 589.886719 86.308594 583.21875 C 90.644531 591.878906 99.578125 597.835938 109.925781 597.835938 C 121.734375 597.835938 131.726562 590.09375 135.109375 579.414062 C 136.210938 579.515625 137.320312 579.582031 138.445312 579.582031 C 158.515625 579.582031 174.785156 563.328125 174.785156 543.277344 C 174.785156 523.222656 158.515625 506.972656 138.445312 506.972656 "/>
<g clip-path="url(#clip7)" clip-rule="nonzero">
<path style=" stroke:none;fill-rule:nonzero;fill:rgb(36.079407%,49.01886%,57.249451%);fill-opacity:1;" d="M 138.445312 506.972656 L 138.445312 505.777344 C 135.613281 505.777344 132.871094 506.113281 130.226562 506.703125 L 130.488281 507.867188 L 131.660156 507.632812 C 129.9375 499.054688 125.285156 491.535156 118.792969 486.160156 C 112.300781 480.785156 103.957031 477.554688 94.867188 477.554688 C 85.667969 477.554688 77.234375 480.867188 70.714844 486.367188 C 64.191406 491.863281 59.574219 499.546875 57.976562 508.285156 L 59.152344 508.5 L 59.167969 507.308594 C 59.046875 507.308594 58.835938 507.28125 58.527344 507.277344 C 51.101562 507.277344 44.269531 509.851562 38.886719 514.152344 C 33.507812 518.457031 29.570312 524.484375 27.910156 531.40625 L 29.070312 531.683594 L 29.183594 530.496094 C 28.367188 530.417969 27.535156 530.371094 26.679688 530.371094 C 12.09375 530.371094 0.269531 542.183594 0.269531 556.757812 C 0.269531 571.328125 12.09375 583.140625 26.679688 583.140625 C 32.511719 583.140625 37.894531 581.226562 42.257812 578.03125 L 41.550781 577.066406 L 40.417969 577.445312 C 42.171875 582.679688 45.515625 587.179688 49.878906 590.375 C 54.238281 593.570312 59.625 595.457031 65.445312 595.457031 C 74.53125 595.457031 82.550781 590.871094 87.296875 583.890625 L 86.308594 583.21875 L 85.242188 583.753906 C 87.503906 588.277344 90.96875 592.09375 95.222656 594.785156 C 99.476562 597.472656 104.519531 599.03125 109.925781 599.03125 C 116.09375 599.03125 121.796875 597.007812 126.390625 593.589844 C 130.984375 590.171875 134.480469 585.359375 136.25 579.773438 L 135.109375 579.414062 L 135 580.601562 C 136.125 580.707031 137.273438 580.777344 138.445312 580.777344 C 159.175781 580.777344 175.980469 563.988281 175.980469 543.277344 C 175.980469 522.5625 159.175781 505.777344 138.445312 505.777344 L 138.445312 508.164062 C 148.152344 508.164062 156.933594 512.09375 163.296875 518.449219 C 169.65625 524.804688 173.589844 533.578125 173.589844 543.277344 C 173.589844 552.976562 169.65625 561.746094 163.296875 568.105469 C 156.933594 574.460938 148.152344 578.386719 138.445312 578.386719 C 137.367188 578.386719 136.292969 578.324219 135.21875 578.226562 C 134.660156 578.175781 134.140625 578.515625 133.96875 579.054688 C 132.355469 584.152344 129.164062 588.550781 124.964844 591.671875 C 120.765625 594.796875 115.566406 596.644531 109.925781 596.644531 C 104.980469 596.644531 100.386719 595.222656 96.5 592.765625 C 92.613281 590.308594 89.445312 586.820312 87.378906 582.683594 C 87.1875 582.304688 86.8125 582.054688 86.390625 582.027344 C 85.96875 582 85.558594 582.199219 85.320312 582.546875 C 80.996094 588.902344 73.714844 593.070312 65.445312 593.070312 C 60.144531 593.070312 55.257812 591.355469 51.289062 588.449219 C 47.320312 585.542969 44.28125 581.445312 42.683594 576.6875 C 42.5625 576.328125 42.277344 576.042969 41.914062 575.929688 C 41.550781 575.8125 41.152344 575.882812 40.84375 576.105469 C 36.863281 579.015625 31.984375 580.753906 26.679688 580.753906 C 20.042969 580.753906 14.046875 578.070312 9.695312 573.722656 C 5.347656 569.378906 2.660156 563.386719 2.660156 556.757812 C 2.660156 550.125 5.347656 544.132812 9.695312 539.789062 C 14.046875 535.441406 20.042969 532.757812 26.679688 532.757812 C 27.441406 532.757812 28.199219 532.800781 28.960938 532.875 C 29.550781 532.925781 30.09375 532.542969 30.234375 531.964844 C 31.769531 525.570312 35.40625 519.996094 40.382812 516.019531 C 45.359375 512.042969 51.65625 509.667969 58.527344 509.664062 C 58.644531 509.664062 58.839844 509.6875 59.136719 509.691406 C 59.71875 509.699219 60.222656 509.289062 60.328125 508.714844 C 61.820312 500.535156 66.144531 493.339844 72.253906 488.191406 C 78.367188 483.042969 86.246094 479.941406 94.867188 479.941406 C 103.386719 479.941406 111.183594 482.964844 117.269531 488 C 123.351562 493.035156 127.707031 500.074219 129.320312 508.105469 C 129.382812 508.421875 129.566406 508.695312 129.835938 508.871094 C 130.109375 509.046875 130.433594 509.105469 130.75 509.035156 C 133.234375 508.480469 135.804688 508.164062 138.445312 508.164062 L 138.445312 506.972656 "/>
</g>
<g clip-path="url(#clip8)" clip-rule="nonzero">
<g clip-path="url(#clip9)" clip-rule="nonzero">
<g clip-path="url(#clip10)" clip-rule="nonzero">
<path style=" stroke:none;fill-rule:nonzero;fill:rgb(36.079407%,49.01886%,57.249451%);fill-opacity:1;" d="M 765.945312 530.972656 C 763.890625 530.480469 761.835938 530.257812 759.816406 530.277344 C 759.753906 516.195312 750.089844 503.4375 735.742188 500 C 725.464844 497.539062 715.15625 500.433594 707.773438 506.878906 C 703.007812 498.121094 694.675781 491.335938 684.199219 488.828125 C 664.613281 484.136719 644.949219 496.15625 640.273438 515.679688 C 638.957031 521.171875 638.96875 526.671875 640.101562 531.847656 C 632.046875 537.046875 625.90625 545.222656 623.5 555.265625 C 618.53125 576.019531 631.378906 596.886719 652.199219 601.875 C 666.992188 605.417969 681.824219 599.992188 690.957031 589.113281 C 693.738281 592.550781 697.636719 595.136719 702.273438 596.25 C 710.421875 598.199219 718.59375 595.0625 723.441406 588.894531 C 724.109375 589.132812 724.792969 589.335938 725.5 589.503906 C 735.28125 591.847656 745.097656 586.628906 748.773438 577.621094 C 750.492188 578.488281 752.332031 579.179688 754.289062 579.648438 C 767.773438 582.878906 781.316406 574.601562 784.535156 561.15625 C 787.753906 547.714844 779.433594 534.203125 765.945312 530.972656 Z M 765.945312 530.972656 "/>
</g>
</g>
</g>
<path style=" stroke:none;fill-rule:nonzero;fill:rgb(36.079407%,49.01886%,57.249451%);fill-opacity:1;" d="M 648.6875 77.519531 C 648.6875 77.519531 652.714844 61.964844 674.144531 58.304688 C 695.574219 54.644531 709.863281 70.199219 709.863281 70.199219 C 709.863281 70.199219 715.722656 57.570312 736.054688 65.992188 C 756.386719 74.410156 753.636719 92.160156 753.636719 92.160156 C 753.636719 92.160156 765.175781 90.515625 768.472656 102.59375 C 771.769531 114.671875 764.8125 121.445312 759.683594 123.089844 C 759.683594 123.089844 752.539062 137.550781 732.574219 127.851562 C 732.574219 127.851562 732.390625 134.804688 721.765625 137.734375 C 711.144531 140.660156 704.367188 134.621094 704.367188 134.621094 C 704.367188 134.621094 697.773438 143.039062 688.246094 134.074219 C 688.246094 134.074219 685.136719 142.492188 670.847656 141.027344 C 656.5625 139.5625 654.914062 127.117188 654.914062 127.117188 C 654.914062 127.117188 643.007812 138.648438 623.042969 131.875 C 603.078125 125.105469 606.191406 116.6875 606.191406 116.6875 C 606.191406 116.6875 589.339844 120.164062 585.3125 109.550781 C 581.28125 98.933594 601.246094 81 614.066406 90.515625 C 614.066406 90.515625 615.898438 82.464844 625.421875 76.058594 C 634.949219 69.652344 648.6875 77.519531 648.6875 77.519531 Z M 648.6875 77.519531 "/>
<path style=" stroke:none;fill-rule:nonzero;fill:rgb(25.099182%,48.239136%,14.898682%);fill-opacity:1;" d="M -13.925781 681.628906 L 822.644531 681.628906 L 822.644531 1128.015625 L -13.925781 1128.015625 Z M -13.925781 681.628906 "/>
<path style=" stroke:none;fill-rule:nonzero;fill:rgb(36.079407%,49.01886%,57.249451%);fill-opacity:1;" d="M 197.070312 84.03125 C 194.332031 84.03125 191.675781 84.355469 189.113281 84.929688 C 185.777344 68.320312 171.101562 55.804688 153.492188 55.804688 C 135.664062 55.804688 120.867188 68.644531 117.773438 85.558594 C 117.566406 85.554688 117.363281 85.53125 117.152344 85.53125 C 102.851562 85.53125 90.894531 95.433594 87.695312 108.742188 C 86.90625 108.667969 86.109375 108.621094 85.300781 108.621094 C 71.378906 108.621094 60.089844 119.902344 60.089844 133.816406 C 60.089844 147.726562 71.378906 159.007812 85.300781 159.007812 C 90.871094 159.007812 96.003906 157.179688 100.175781 154.125 C 103.523438 164.113281 112.949219 171.320312 124.070312 171.320312 C 132.746094 171.320312 140.394531 166.945312 144.933594 160.277344 C 149.265625 168.9375 158.203125 174.898438 168.550781 174.898438 C 180.359375 174.898438 190.351562 167.152344 193.734375 156.472656 C 194.835938 156.574219 195.945312 156.640625 197.070312 156.640625 C 217.136719 156.640625 233.410156 140.386719 233.410156 120.335938 C 233.410156 100.285156 217.136719 84.03125 197.070312 84.03125 "/>
<g clip-path="url(#clip11)" clip-rule="nonzero">
<path style=" stroke:none;fill-rule:nonzero;fill:rgb(36.079407%,49.01886%,57.249451%);fill-opacity:1;" d="M 197.070312 84.03125 L 197.070312 82.835938 C 194.238281 82.835938 191.496094 83.171875 188.851562 83.765625 L 189.113281 84.929688 L 190.285156 84.691406 C 188.5625 76.113281 183.910156 68.59375 177.417969 63.21875 C 170.925781 57.84375 162.582031 54.613281 153.492188 54.613281 C 144.289062 54.613281 135.859375 57.925781 129.335938 63.425781 C 122.816406 68.921875 118.195312 76.605469 116.601562 85.34375 L 117.773438 85.558594 L 117.792969 84.367188 C 117.671875 84.367188 117.460938 84.339844 117.152344 84.335938 C 109.726562 84.335938 102.894531 86.910156 97.511719 91.214844 C 92.132812 95.515625 88.195312 101.542969 86.535156 108.464844 L 87.695312 108.742188 L 87.808594 107.554688 C 86.992188 107.476562 86.15625 107.429688 85.300781 107.429688 C 70.71875 107.429688 58.894531 119.242188 58.894531 133.816406 C 58.894531 148.386719 70.71875 160.199219 85.300781 160.203125 C 91.136719 160.203125 96.519531 158.285156 100.882812 155.089844 L 100.175781 154.125 L 99.042969 154.503906 C 100.796875 159.738281 104.140625 164.238281 108.503906 167.433594 C 112.863281 170.628906 118.25 172.515625 124.070312 172.515625 C 133.15625 172.515625 141.175781 167.929688 145.921875 160.949219 L 144.933594 160.277344 L 143.863281 160.8125 C 146.128906 165.335938 149.59375 169.152344 153.847656 171.84375 C 158.101562 174.53125 163.144531 176.089844 168.550781 176.089844 C 174.71875 176.089844 180.421875 174.066406 185.015625 170.648438 C 189.609375 167.230469 193.105469 162.417969 194.875 156.832031 L 193.734375 156.472656 L 193.625 157.660156 C 194.75 157.765625 195.898438 157.835938 197.070312 157.835938 C 217.800781 157.835938 234.601562 141.046875 234.605469 120.335938 C 234.601562 99.625 217.800781 82.835938 197.070312 82.835938 L 197.070312 85.222656 C 206.777344 85.222656 215.558594 89.152344 221.921875 95.507812 C 228.28125 101.867188 232.214844 110.636719 232.214844 120.335938 C 232.214844 130.035156 228.28125 138.804688 221.921875 145.164062 C 215.558594 151.519531 206.777344 155.449219 197.070312 155.449219 C 195.992188 155.449219 194.917969 155.382812 193.84375 155.285156 C 193.285156 155.234375 192.765625 155.578125 192.59375 156.113281 C 190.980469 161.210938 187.789062 165.609375 183.589844 168.734375 C 179.390625 171.855469 174.191406 173.703125 168.550781 173.703125 C 163.605469 173.703125 159.011719 172.28125 155.125 169.824219 C 151.238281 167.367188 148.070312 163.878906 146 159.742188 C 145.8125 159.367188 145.4375 159.113281 145.011719 159.085938 C 144.589844 159.058594 144.183594 159.257812 143.945312 159.605469 C 139.617188 165.960938 132.339844 170.128906 124.070312 170.128906 C 118.769531 170.128906 113.882812 168.414062 109.914062 165.507812 C 105.945312 162.601562 102.902344 158.503906 101.308594 153.75 C 101.1875 153.386719 100.898438 153.101562 100.539062 152.988281 C 100.175781 152.875 99.777344 152.941406 99.46875 153.164062 C 95.488281 156.078125 90.609375 157.8125 85.300781 157.8125 C 78.667969 157.8125 72.671875 155.128906 68.320312 150.785156 C 63.96875 146.4375 61.285156 140.445312 61.285156 133.816406 C 61.285156 127.1875 63.96875 121.191406 68.320312 116.847656 C 72.671875 112.5 78.667969 109.816406 85.300781 109.816406 C 86.066406 109.816406 86.824219 109.863281 87.585938 109.933594 C 88.175781 109.988281 88.71875 109.601562 88.859375 109.023438 C 90.394531 102.628906 94.03125 97.054688 99.007812 93.078125 C 103.984375 89.101562 110.28125 86.726562 117.152344 86.722656 C 117.265625 86.722656 117.464844 86.746094 117.761719 86.753906 C 118.34375 86.761719 118.847656 86.347656 118.953125 85.773438 C 120.445312 77.597656 124.769531 70.402344 130.878906 65.25 C 136.988281 60.101562 144.871094 57 153.492188 57 C 162.011719 57 169.808594 60.023438 175.894531 65.058594 C 181.976562 70.09375 186.328125 77.136719 187.941406 85.164062 C 188.007812 85.480469 188.191406 85.753906 188.460938 85.929688 C 188.734375 86.105469 189.058594 86.164062 189.375 86.09375 C 191.859375 85.539062 194.429688 85.222656 197.070312 85.222656 L 197.070312 84.03125 "/>
</g>
</g>
</svg>
