<?xml version="1.0" encoding="UTF-8"?>
<svg xmlns="http://www.w3.org/2000/svg" xmlns:xlink="http://www.w3.org/1999/xlink" width="810pt" height="809.999993pt" viewBox="0 0 810 809.999993" version="1.2">
<defs>
<clipPath id="clip1">
  <path d="M 315 319 L 479 319 L 479 435 L 315 435 Z M 315 319 "/>
</clipPath>
<clipPath id="clip2">
  <path d="M 334.898438 309.632812 L 488.796875 346.492188 L 461.195312 461.734375 L 307.300781 424.875 Z M 334.898438 309.632812 "/>
</clipPath>
<clipPath id="clip3">
  <path d="M 334.898438 309.632812 L 488.796875 346.492188 L 461.195312 461.734375 L 307.300781 424.875 Z M 334.898438 309.632812 "/>
</clipPath>
<clipPath id="clip4">
  <path d="M 334.898438 309.632812 L 488.832031 346.5 L 461.316406 461.390625 L 307.382812 424.523438 Z M 334.898438 309.632812 "/>
</clipPath>
<clipPath id="clip5">
  <path d="M 325 0 L 488 0 L 488 2 L 325 2 Z M 325 0 "/>
</clipPath>
<clipPath id="clip6">
  <path d="M 323.183594 -118.457031 L 485.105469 -123.445312 L 488.847656 -2 L 326.925781 2.988281 Z M 323.183594 -118.457031 "/>
</clipPath>
<clipPath id="clip7">
  <path d="M 323.183594 -118.457031 L 485.105469 -123.445312 L 488.847656 -2 L 326.925781 2.988281 Z M 323.183594 -118.457031 "/>
</clipPath>
<clipPath id="clip8">
  <path d="M 0 477.542969 L 176 477.542969 L 176 599.042969 L 0 599.042969 Z M 0 477.542969 "/>
</clipPath>
<clipPath id="clip9">
  <path d="M 622 487 L 786 487 L 786 603 L 622 603 Z M 622 487 "/>
</clipPath>
<clipPath id="clip10">
  <path d="M 641.972656 477.542969 L 795.871094 514.402344 L 768.269531 629.644531 L 614.371094 592.785156 Z M 641.972656 477.542969 "/>
</clipPath>
<clipPath id="clip11">
  <path d="M 641.972656 477.542969 L 795.871094 514.402344 L 768.269531 629.644531 L 614.371094 592.785156 Z M 641.972656 477.542969 "/>
</clipPath>
<clipPath id="clip12">
  <path d="M 641.972656 477.542969 L 795.90625 514.410156 L 768.386719 629.300781 L 614.457031 592.433594 Z M 641.972656 477.542969 "/>
</clipPath>
<clipPath id="clip13">
  <path d="M 58.625 54.601562 L 234.875 54.601562 L 234.875 176.101562 L 58.625 176.101562 Z M 58.625 54.601562 "/>
</clipPath>
</defs>
<g id="surface1">
<rect x="0" y="0" width="810" height="809.999993" style="fill:rgb(100%,100%,100%);fill-opacity:1;stroke:none;"/>
<rect x="0" y="0" width="810" height="809.999993" style="fill:rgb(100%,100%,100%);fill-opacity:1;stroke:none;"/>
<rect class="outside_background" x="0" y="0" width="810" height="809.999993" />
<path id="dinogotchi__inside__cloud_one" class="cloud" d="M 458.917969 363 C 456.863281 362.507812 454.808594 362.285156 452.789062 362.304688 C 452.714844 348.261719 443.039062 335.535156 428.691406 332.097656 C 418.410156 329.632812 408.105469 332.511719 400.726562 338.933594 C 395.953125 330.199219 387.617188 323.425781 377.136719 320.917969 C 357.546875 316.222656 337.890625 328.195312 333.226562 347.660156 C 331.917969 353.136719 331.933594 358.621094 333.070312 363.78125 C 325.015625 368.957031 318.882812 377.105469 316.484375 387.121094 C 311.53125 407.808594 324.394531 428.625 345.222656 433.613281 C 360.015625 437.15625 374.84375 431.757812 383.972656 420.917969 C 386.753906 424.347656 390.652344 426.929688 395.292969 428.042969 C 403.445312 429.996094 411.613281 426.871094 416.453125 420.722656 C 417.121094 420.960938 417.808594 421.164062 418.511719 421.335938 C 428.296875 423.679688 438.113281 418.480469 441.78125 409.503906 C 443.5 410.371094 445.339844 411.058594 447.296875 411.527344 C 460.785156 414.757812 474.320312 406.515625 477.53125 393.113281 C 480.742188 379.714844 472.40625 366.230469 458.917969 363 Z M 458.917969 363 "/>
<path id="dinogotchi__inside__cloud_six" class="cloud" d="M 458.917969 363 C 456.863281 362.507812 454.808594 362.285156 452.789062 362.304688 C 452.714844 348.261719 443.039062 335.535156 428.691406 332.097656 C 418.410156 329.632812 408.105469 332.511719 400.726562 338.933594 C 395.953125 330.199219 387.617188 323.425781 377.136719 320.917969 C 357.546875 316.222656 337.890625 328.195312 333.226562 347.660156 C 331.917969 353.136719 331.933594 358.621094 333.070312 363.78125 C 325.015625 368.957031 318.882812 377.105469 316.484375 387.121094 C 311.53125 407.808594 324.394531 428.625 345.222656 433.613281 C 360.015625 437.15625 374.84375 431.757812 383.972656 420.917969 C 386.753906 424.347656 390.652344 426.929688 395.292969 428.042969 C 403.445312 429.996094 411.613281 426.871094 416.453125 420.722656 C 417.121094 420.960938 417.808594 421.164062 418.511719 421.335938 C 428.296875 423.679688 438.113281 418.480469 441.78125 409.503906 C 443.5 410.371094 445.339844 411.058594 447.296875 411.527344 C 460.785156 414.757812 474.320312 406.515625 477.53125 393.113281 C 480.742188 379.714844 472.40625 366.230469 458.917969 363 Z M 458.917969 363 "/>
<path id="dinogotchi__inside__cloud_seven" class="cloud" d="M 458.917969 363 C 456.863281 362.507812 454.808594 362.285156 452.789062 362.304688 C 452.714844 348.261719 443.039062 335.535156 428.691406 332.097656 C 418.410156 329.632812 408.105469 332.511719 400.726562 338.933594 C 395.953125 330.199219 387.617188 323.425781 377.136719 320.917969 C 357.546875 316.222656 337.890625 328.195312 333.226562 347.660156 C 331.917969 353.136719 331.933594 358.621094 333.070312 363.78125 C 325.015625 368.957031 318.882812 377.105469 316.484375 387.121094 C 311.53125 407.808594 324.394531 428.625 345.222656 433.613281 C 360.015625 437.15625 374.84375 431.757812 383.972656 420.917969 C 386.753906 424.347656 390.652344 426.929688 395.292969 428.042969 C 403.445312 429.996094 411.613281 426.871094 416.453125 420.722656 C 417.121094 420.960938 417.808594 421.164062 418.511719 421.335938 C 428.296875 423.679688 438.113281 418.480469 441.78125 409.503906 C 443.5 410.371094 445.339844 411.058594 447.296875 411.527344 C 460.785156 414.757812 474.320312 406.515625 477.53125 393.113281 C 480.742188 379.714844 472.40625 366.230469 458.917969 363 Z M 458.917969 363 "/>
<path id="dinogotchi__inside__cloud_two" class="cloud" d="M 138.445312 506.972656 C 135.707031 506.972656 133.054688 507.296875 130.488281 507.867188 C 127.152344 491.257812 112.476562 478.746094 94.867188 478.746094 C 77.042969 478.746094 62.242188 491.582031 59.152344 508.5 C 58.945312 508.496094 58.738281 508.472656 58.527344 508.472656 C 44.226562 508.472656 32.269531 518.375 29.070312 531.683594 C 28.28125 531.609375 27.488281 531.5625 26.679688 531.5625 C 12.753906 531.5625 1.464844 542.84375 1.464844 556.757812 C 1.464844 570.667969 12.753906 581.949219 26.679688 581.949219 C 32.25 581.949219 37.378906 580.121094 41.550781 577.066406 C 44.898438 587.054688 54.324219 594.261719 65.445312 594.261719 C 74.121094 594.261719 81.769531 589.886719 86.308594 583.21875 C 90.644531 591.878906 99.578125 597.835938 109.925781 597.835938 C 121.734375 597.835938 131.726562 590.09375 135.109375 579.414062 C 136.210938 579.515625 137.320312 579.582031 138.445312 579.582031 C 158.515625 579.582031 174.785156 563.328125 174.785156 543.277344 C 174.785156 523.222656 158.515625 506.972656 138.445312 506.972656 "/>
<path id="dinogotchi__inside__cloud_nine" class="cloud" d="M 138.445312 506.972656 C 135.707031 506.972656 133.054688 507.296875 130.488281 507.867188 C 127.152344 491.257812 112.476562 478.746094 94.867188 478.746094 C 77.042969 478.746094 62.242188 491.582031 59.152344 508.5 C 58.945312 508.496094 58.738281 508.472656 58.527344 508.472656 C 44.226562 508.472656 32.269531 518.375 29.070312 531.683594 C 28.28125 531.609375 27.488281 531.5625 26.679688 531.5625 C 12.753906 531.5625 1.464844 542.84375 1.464844 556.757812 C 1.464844 570.667969 12.753906 581.949219 26.679688 581.949219 C 32.25 581.949219 37.378906 580.121094 41.550781 577.066406 C 44.898438 587.054688 54.324219 594.261719 65.445312 594.261719 C 74.121094 594.261719 81.769531 589.886719 86.308594 583.21875 C 90.644531 591.878906 99.578125 597.835938 109.925781 597.835938 C 121.734375 597.835938 131.726562 590.09375 135.109375 579.414062 C 136.210938 579.515625 137.320312 579.582031 138.445312 579.582031 C 158.515625 579.582031 174.785156 563.328125 174.785156 543.277344 C 174.785156 523.222656 158.515625 506.972656 138.445312 506.972656 "/>
<path id="dinogotchi__inside__cloud_three" class="cloud" d="M 765.992188 530.910156 C 763.9375 530.417969 761.882812 530.195312 759.863281 530.214844 C 759.789062 516.171875 750.113281 503.445312 735.761719 500.007812 C 725.480469 497.542969 715.179688 500.421875 707.800781 506.839844 C 703.023438 498.105469 694.691406 491.335938 684.210938 488.824219 C 664.621094 484.132812 644.960938 496.105469 640.300781 515.570312 C 638.988281 521.042969 639.003906 526.53125 640.140625 531.691406 C 632.089844 536.867188 625.957031 545.015625 623.558594 555.03125 C 618.601562 575.71875 631.46875 596.535156 652.292969 601.523438 C 667.085938 605.066406 681.917969 599.667969 691.042969 588.828125 C 693.828125 592.257812 697.726562 594.839844 702.363281 595.953125 C 710.515625 597.902344 718.683594 594.78125 723.527344 588.632812 C 724.195312 588.871094 724.878906 589.074219 725.585938 589.246094 C 735.367188 591.585938 745.183594 586.390625 748.851562 577.414062 C 750.570312 578.28125 752.414062 578.96875 754.367188 579.4375 C 767.859375 582.667969 781.394531 574.425781 784.605469 561.023438 C 787.8125 547.621094 779.480469 534.140625 765.992188 530.910156 Z M 765.992188 530.910156 "/>
<path id="dinogotchi__inside__cloud_four" class="cloud" d="M 648.667969 77.496094 C 648.667969 77.496094 652.699219 61.957031 674.121094 58.300781 C 695.546875 54.644531 709.832031 70.183594 709.832031 70.183594 C 709.832031 70.183594 715.691406 57.570312 736.015625 65.980469 C 756.34375 74.390625 753.59375 92.121094 753.59375 92.121094 C 753.59375 92.121094 765.132812 90.476562 768.425781 102.542969 C 771.722656 114.609375 764.765625 121.375 759.636719 123.019531 C 759.636719 123.019531 752.496094 137.460938 732.539062 127.773438 C 732.539062 127.773438 732.355469 134.71875 721.730469 137.644531 C 711.113281 140.570312 704.335938 134.535156 704.335938 134.535156 C 704.335938 134.535156 697.746094 142.945312 688.222656 133.988281 C 688.222656 133.988281 685.109375 142.398438 670.824219 140.9375 C 656.542969 139.472656 654.894531 127.042969 654.894531 127.042969 C 654.894531 127.042969 642.992188 138.558594 623.03125 131.796875 C 603.074219 125.03125 606.1875 116.621094 606.1875 116.621094 C 606.1875 116.621094 589.339844 120.09375 585.308594 109.492188 C 581.28125 98.886719 601.242188 80.972656 614.058594 90.476562 C 614.058594 90.476562 615.890625 82.433594 625.414062 76.035156 C 634.933594 69.636719 648.667969 77.496094 648.667969 77.496094 Z M 648.667969 77.496094 "/>
<path id="dinogotchi__inside__cloud_eight" class="cloud" d="M 648.667969 77.496094 C 648.667969 77.496094 652.699219 61.957031 674.121094 58.300781 C 695.546875 54.644531 709.832031 70.183594 709.832031 70.183594 C 709.832031 70.183594 715.691406 57.570312 736.015625 65.980469 C 756.34375 74.390625 753.59375 92.121094 753.59375 92.121094 C 753.59375 92.121094 765.132812 90.476562 768.425781 102.542969 C 771.722656 114.609375 764.765625 121.375 759.636719 123.019531 C 759.636719 123.019531 752.496094 137.460938 732.539062 127.773438 C 732.539062 127.773438 732.355469 134.71875 721.730469 137.644531 C 711.113281 140.570312 704.335938 134.535156 704.335938 134.535156 C 704.335938 134.535156 697.746094 142.945312 688.222656 133.988281 C 688.222656 133.988281 685.109375 142.398438 670.824219 140.9375 C 656.542969 139.472656 654.894531 127.042969 654.894531 127.042969 C 654.894531 127.042969 642.992188 138.558594 623.03125 131.796875 C 603.074219 125.03125 606.1875 116.621094 606.1875 116.621094 C 606.1875 116.621094 589.339844 120.09375 585.308594 109.492188 C 581.28125 98.886719 601.242188 80.972656 614.058594 90.476562 C 614.058594 90.476562 615.890625 82.433594 625.414062 76.035156 C 634.933594 69.636719 648.667969 77.496094 648.667969 77.496094 Z M 648.667969 77.496094 "/>
<path class="grass" d="M -13.925781 681.628906 L 822.644531 681.628906 L 822.644531 1128.015625 L -13.925781 1128.015625 Z M -13.925781 681.628906 "/>
<path id="dinogotchi__inside__cloud_five" class="cloud" d="M 197.070312 84.03125 C 194.332031 84.03125 191.675781 84.355469 189.113281 84.929688 C 185.777344 68.320312 171.101562 55.804688 153.492188 55.804688 C 135.664062 55.804688 120.867188 68.644531 117.773438 85.558594 C 117.566406 85.554688 117.363281 85.53125 117.152344 85.53125 C 102.851562 85.53125 90.894531 95.433594 87.695312 108.742188 C 86.90625 108.667969 86.109375 108.621094 85.300781 108.621094 C 71.378906 108.621094 60.089844 119.902344 60.089844 133.816406 C 60.089844 147.726562 71.378906 159.007812 85.300781 159.007812 C 90.871094 159.007812 96.003906 157.179688 100.175781 154.125 C 103.523438 164.113281 112.949219 171.320312 124.070312 171.320312 C 132.746094 171.320312 140.394531 166.945312 144.933594 160.277344 C 149.265625 168.9375 158.203125 174.898438 168.550781 174.898438 C 180.359375 174.898438 190.351562 167.152344 193.734375 156.472656 C 194.835938 156.574219 195.945312 156.640625 197.070312 156.640625 C 217.136719 156.640625 233.410156 140.386719 233.410156 120.335938 C 233.410156 100.285156 217.136719 84.03125 197.070312 84.03125 "/>
</g>
</svg>