<svg xmlns="http://www.w3.org/2000/svg" width="1080" height="1080" viewBox="0 0 810 810" version="1.2"><path fill="#fff" d="M0 0h810v810H0z"/><path fill="#fff" d="M0 0h810v810H0z"/><path class="outside_background" d="M0 0h810v810H0z"/><path class="cloud" d="M458.918 363a25.23 25.23 0 00-6.129-.695c-.074-14.043-9.75-26.77-24.098-30.207a31.374 31.374 0 00-27.964 6.836 36.476 36.476 0 00-23.59-18.016c-19.59-4.695-39.246 7.277-43.91 26.742a35.926 35.926 0 00-.157 16.121c-8.054 5.176-14.187 13.324-16.586 23.34-4.953 20.688 7.91 41.504 28.739 46.492a38.802 38.802 0 0038.75-12.695 20.757 20.757 0 0011.32 7.125 20.756 20.756 0 0021.16-7.32c.668.238 1.356.441 2.059.613 9.785 2.344 19.601-2.856 23.27-11.832a25.307 25.307 0 005.515 2.023c13.488 3.23 27.023-5.011 30.234-18.414 3.211-13.398-5.125-26.883-18.613-30.113zm0 0"/><path class="cloud" d="M458.918 363a25.23 25.23 0 00-6.129-.695c-.074-14.043-9.75-26.77-24.098-30.207a31.374 31.374 0 00-27.964 6.836 36.476 36.476 0 00-23.59-18.016c-19.59-4.695-39.246 7.277-43.91 26.742a35.926 35.926 0 00-.157 16.121c-8.054 5.176-14.187 13.324-16.586 23.34-4.953 20.688 7.91 41.504 28.739 46.492a38.802 38.802 0 0038.75-12.695 20.757 20.757 0 0011.32 7.125 20.756 20.756 0 0021.16-7.32c.668.238 1.356.441 2.059.613 9.785 2.344 19.601-2.856 23.27-11.832a25.307 25.307 0 005.515 2.023c13.488 3.23 27.023-5.011 30.234-18.414 3.211-13.398-5.125-26.883-18.613-30.113zm0 0"/><path class="cloud" d="M458.918 363a25.23 25.23 0 00-6.129-.695c-.074-14.043-9.75-26.77-24.098-30.207a31.374 31.374 0 00-27.964 6.836 36.476 36.476 0 00-23.59-18.016c-19.59-4.695-39.246 7.277-43.91 26.742a35.926 35.926 0 00-.157 16.121c-8.054 5.176-14.187 13.324-16.586 23.34-4.953 20.688 7.91 41.504 28.739 46.492a38.802 38.802 0 0038.75-12.695 20.757 20.757 0 0011.32 7.125 20.756 20.756 0 0021.16-7.32c.668.238 1.356.441 2.059.613 9.785 2.344 19.601-2.856 23.27-11.832a25.307 25.307 0 005.515 2.023c13.488 3.23 27.023-5.011 30.234-18.414 3.211-13.398-5.125-26.883-18.613-30.113zM138.445 506.973c-2.738 0-5.39.324-7.957.894-3.336-16.61-18.011-29.12-35.62-29.12-17.825 0-32.626 12.835-35.716 29.753-.207-.004-.414-.027-.625-.027-14.3 0-26.257 9.902-29.457 23.21a25.441 25.441 0 00-2.39-.12c-13.926 0-25.215 11.28-25.215 25.195 0 13.91 11.289 25.191 25.215 25.191 5.57 0 10.699-1.828 14.87-4.883 3.348 9.989 12.774 17.196 23.895 17.196 8.676 0 16.325-4.375 20.864-11.043 4.336 8.66 13.27 14.617 23.617 14.617 11.808 0 21.8-7.742 25.183-18.422a36.26 36.26 0 003.336.168c20.07 0 36.34-16.254 36.34-36.305 0-20.054-16.27-36.304-36.34-36.304"/><path class="cloud" d="M138.445 506.973c-2.738 0-5.39.324-7.957.894-3.336-16.61-18.011-29.12-35.62-29.12-17.825 0-32.626 12.835-35.716 29.753-.207-.004-.414-.027-.625-.027-14.3 0-26.257 9.902-29.457 23.21a25.441 25.441 0 00-2.39-.12c-13.926 0-25.215 11.28-25.215 25.195 0 13.91 11.289 25.191 25.215 25.191 5.57 0 10.699-1.828 14.87-4.883 3.348 9.989 12.774 17.196 23.895 17.196 8.676 0 16.325-4.375 20.864-11.043 4.336 8.66 13.27 14.617 23.617 14.617 11.808 0 21.8-7.742 25.183-18.422a36.26 36.26 0 003.336.168c20.07 0 36.34-16.254 36.34-36.305 0-20.054-16.27-36.304-36.34-36.304m627.547 23.937a25.23 25.23 0 00-6.129-.695c-.074-14.043-9.75-26.77-24.101-30.207a31.376 31.376 0 00-27.961 6.832 36.498 36.498 0 00-23.59-18.016c-19.59-4.691-39.25 7.281-43.91 26.746a35.87 35.87 0 00-.16 16.121c-8.051 5.176-14.184 13.325-16.582 23.34-4.957 20.688 7.91 41.504 28.734 46.492a38.799 38.799 0 0038.75-12.695 20.785 20.785 0 0011.32 7.125 20.773 20.773 0 0021.164-7.32c.668.238 1.352.441 2.059.613 9.781 2.34 19.598-2.855 23.266-11.832a25.381 25.381 0 005.515 2.024c13.492 3.23 27.028-5.012 30.238-18.415 3.207-13.402-5.125-26.882-18.613-30.113zM648.668 77.496s4.031-15.539 25.453-19.195c21.426-3.656 35.711 11.883 35.711 11.883s5.86-12.614 26.184-4.204c20.328 8.41 17.578 26.141 17.578 26.141s11.539-1.644 14.832 10.422c3.297 12.066-3.66 18.832-8.79 20.477 0 0-7.14 14.44-27.097 4.753 0 0-.184 6.946-10.809 9.872-10.617 2.925-17.394-3.11-17.394-3.11s-6.59 8.41-16.113-.547c0 0-3.114 8.41-17.399 6.95-14.281-1.465-15.93-13.895-15.93-13.895s-11.902 11.516-31.863 4.754c-19.957-6.766-16.843-15.176-16.843-15.176s-16.848 3.473-20.88-7.129c-4.027-10.605 15.934-28.52 28.75-19.015 0 0 1.833-8.043 11.356-14.442 9.52-6.398 23.254 1.461 23.254 1.461zm0 0"/><path class="cloud" d="M648.668 77.496s4.031-15.539 25.453-19.195c21.426-3.656 35.711 11.883 35.711 11.883s5.86-12.614 26.184-4.204c20.328 8.41 17.578 26.141 17.578 26.141s11.539-1.644 14.832 10.422c3.297 12.066-3.66 18.832-8.79 20.477 0 0-7.14 14.44-27.097 4.753 0 0-.184 6.946-10.809 9.872-10.617 2.925-17.394-3.11-17.394-3.11s-6.59 8.41-16.113-.547c0 0-3.114 8.41-17.399 6.95-14.281-1.465-15.93-13.895-15.93-13.895s-11.902 11.516-31.863 4.754c-19.957-6.766-16.843-15.176-16.843-15.176s-16.848 3.473-20.88-7.129c-4.027-10.605 15.934-28.52 28.75-19.015 0 0 1.833-8.043 11.356-14.442 9.52-6.398 23.254 1.461 23.254 1.461zm0 0"/><path class="grass" d="M-13.926 681.629h836.57v446.387h-836.57zm0 0"/><path class="cloud" d="M197.07 84.031c-2.738 0-5.394.324-7.957.899-3.336-16.61-18.011-29.125-35.62-29.125-17.829 0-32.626 12.84-35.72 29.754-.207-.004-.41-.028-.62-.028-14.301 0-26.258 9.903-29.458 23.211a25.524 25.524 0 00-2.394-.12c-13.922 0-25.211 11.28-25.211 25.194 0 13.91 11.289 25.192 25.21 25.192 5.571 0 10.704-1.828 14.876-4.883 3.347 9.988 12.773 17.195 23.894 17.195 8.676 0 16.325-4.375 20.864-11.043 4.332 8.66 13.27 14.621 23.617 14.621 11.808 0 21.8-7.746 25.183-18.425a36.26 36.26 0 003.336.168c20.067 0 36.34-16.254 36.34-36.305 0-20.05-16.273-36.305-36.34-36.305"/></svg>