<svg id="Capa_1" enable-background="new 0 0 512 512" height="512" viewBox="0 0 512 512" width="512" xmlns="http://www.w3.org/2000/svg"><g fill="#ffe55a"><path d="m138.677 240.713c9.23-8.402 20.223-20.577 32.927-33.248-4.596-8.03-9.279-14.781-13.574-18.432-10.676-9.076-27.159-11.963-37.815-12.86-5.837-.491-10.83 4.163-10.75 10.02.147 10.692 1.869 27.337 10.174 38.624 3.571 4.854 10.642 10.397 19.038 15.896z"/><path d="m189.618 190.514c11.146-9.76 23.333-18.908 36.529-25.877-3.26-10.296-6.969-19.322-10.956-24.33-8.728-10.963-24.346-16.97-34.63-19.902-5.633-1.606-11.429 1.999-12.478 7.762-1.915 10.52-3.43 27.185 2.545 39.86 2.961 6.281 10.306 14.359 18.99 22.487z"/><path d="m274.71 151.676c8.382 0 16.355.958 23.936 2.708 2.948-11.16 4.801-21.533 4.018-28.257-1.621-13.919-11.71-27.269-18.893-35.19-3.935-4.34-10.76-4.34-14.695 0-7.183 7.921-17.272 21.272-18.893 35.19-.775 6.653 1.032 16.881 3.926 27.907 6.659-1.516 13.525-2.358 20.601-2.358z"/><path d="m359.802 190.513c8.684-8.128 16.029-16.205 18.99-22.486 5.976-12.675 4.461-29.34 2.545-39.86-1.049-5.763-6.845-9.368-12.478-7.762-10.284 2.932-25.902 8.939-34.63 19.902-3.843 4.827-7.428 13.385-10.601 23.216 13.601 6.913 25.622 16.359 36.174 26.99z"/><path d="m403.068 251.507c11.382-5.597 21.531-11.616 26.413-17.097 9.32-10.464 12.587-26.876 13.729-37.508.626-5.824-3.911-10.923-9.769-10.978-10.693-.101-27.373 1.238-38.849 9.28-4.74 3.322-10.192 9.858-15.66 17.697 9.786 13.148 17.779 26.664 24.136 38.606z"/><path d="m443.197 318.418c10.171-4.589 19.149-9.542 23.671-14.223 9.076-9.393 12.737-24.554 14.202-34.413.803-5.401-3.23-10.321-8.684-10.593-9.954-.497-25.539.119-36.53 7.175-4.919 3.158-10.76 9.799-16.605 17.692 6.474 12.572 13.93 24.771 23.946 34.362z"/></g><path d="m412.783 270.888c-17.841-37.478-60.504-119.212-138.073-119.212s-130.316 100.271-155.138 100.271-34.131-33.562-63.984-32.786-55.588 24.55-55.588 57.129c0 20.016 26.433 27.872 64.215 25.811 34.057-1.859 75.63 25.354 75.63 55.058v43.349c0 13.15 10.66 23.81 23.81 23.81 13.15 0 23.81-10.66 23.81-23.81v-31.853h115.378c4.318 5.072 10.405 9.379 18.922 12.121v19.196c0 13.349 10.924 24.595 24.271 24.342 12.938-.245 23.35-10.81 23.35-23.806v-17.663l20.126-27.938c71.793 37.704 105.756 16.256 120.437-2.288 5.084-6.422.083-15.795-8.082-15.147-53.599 4.258-72.931-32.652-89.084-66.584z" fill="#98db7c"/><path d="m168.893 387.245v36.488c10.59-2.378 18.511-11.805 18.57-23.098v-31.959c-10.256-.001-18.57 8.313-18.57 18.569z" fill="#82d361"/><path d="m350.816 401.337v22.4c10.628-2.388 18.569-11.879 18.57-23.228v-17.742c-10.256.001-18.57 8.315-18.57 18.57z" fill="#82d361"/><path d="m256.129 166.457c77.569 0 120.232 81.735 138.073 119.212 17.686 37.152 51.168 77.16 117.49 63.495 1.55-5.855-3.043-12.23-9.825-11.692-53.599 4.258-72.931-32.653-89.084-66.585-17.841-37.478-60.504-119.212-138.073-119.212-32.974 0-61.46 18.121-85.225 38.955 19.615-13.93 41.86-24.173 66.644-24.173z" fill="#82d361"/><path d="m37.006 233.942c29.854-.776 39.162 32.786 63.984 32.786 6.347 0 14.523-6.563 24.469-16.321-2.109.992-4.076 1.54-5.888 1.54-24.822 0-34.13-33.562-63.984-32.786-16.885.439-32.447 8.238-42.786 20.823 7.387-3.687 15.624-5.819 24.205-6.042z" fill="#82d361"/><path d="m443.197 318.418c6.561-2.96 12.618-6.072 17.31-9.165-9.251-12.574-16.396-27.034-23.071-41.055-.336-.705-.68-1.425-1.031-2.157-.181.111-.37.21-.548.324-4.919 3.158-10.76 9.799-16.605 17.692 6.473 12.571 13.929 24.77 23.945 34.361z" fill="#ffd91d"/><path d="m423.057 239.982c-7.751-14.046-17.36-29.555-28.996-44.387-4.614 3.425-9.863 9.758-15.129 17.307 9.786 13.148 17.779 26.664 24.136 38.606 7.623-3.75 14.684-7.687 19.989-11.526z" fill="#ffd91d"/><path d="m375.033 174.1c-12.444-12.352-26.633-23.248-42.69-31.092-3.132 5.002-6.068 12.311-8.715 20.515 13.601 6.913 25.622 16.36 36.174 26.991 6.087-5.698 11.509-11.367 15.231-16.414z" fill="#ffd91d"/><path d="m277.652 130.24c-9.468 0-18.612 1.303-27.436 3.613.518 5.823 1.96 12.821 3.892 20.182 6.66-1.517 13.526-2.359 20.602-2.359 8.383 0 16.356.958 23.936 2.708 2.096-7.938 3.634-15.47 4.068-21.582-7.981-1.656-16.328-2.562-25.062-2.562z" fill="#ffd91d"/><path d="m189.618 190.514c11.146-9.76 23.333-18.909 36.529-25.877-2.179-6.883-4.56-13.191-7.09-18.118-15.272 8.392-29.351 19.259-42.208 30.723 3.485 4.206 7.917 8.73 12.769 13.272z" fill="#ffd91d"/><path d="m124.083 229.673c3.799 3.547 8.889 7.304 14.594 11.041 9.23-8.402 20.223-20.577 32.927-33.248-3.526-6.16-7.102-11.561-10.516-15.394-14.114 13.899-26.466 27.498-37.005 37.601z" fill="#ffd91d"/><path d="m37.547 257.742c0 9.935 5.89 17.426 13.701 17.426 7.812 0 13.702-7.491 13.702-17.426 0-9.934-5.89-17.426-13.702-17.426-7.81 0-13.701 7.492-13.701 17.426z" fill="#5a5a5a"/></svg>