<?xml version="1.0" encoding="utf-8"?>
<!-- Generator: Adobe Illustrator 24.0.2, SVG Export Plug-In . SVG Version: 6.00 Build 0)  -->
<svg version="1.1" id="Layer_1" xmlns="http://www.w3.org/2000/svg" xmlns:xlink="http://www.w3.org/1999/xlink" x="0px" y="0px"
	 viewBox="0 0 1080 983" style="enable-background:new 0 0 1080 983;" xml:space="preserve">
<style type="text/css">
	.st0{fill:#CCB071;}
	.st1{fill:#D3B579;}
	.st2{fill:#FFFEFD;}
	.st3{opacity:0.26;}
	.st4{fill:#E5D3C3;}
	.st5{fill:#EAEAEA;}
	.st6{fill:#EFEFEF;}
	.st7{fill:#DD2F2F;}
	.st8{fill:#D8D8D8;}
	.st9{fill:#7F7F7F;}
	.st10{fill:#E5E5E5;}
	.st11{fill:#FFE473;}
	.st12{fill:#B7B7B7;}
	.st13{fill:#7A7A7A;}
	.st14{fill:#091B47;}
	.st15{fill:#203675;}
	.st16{fill:#406991;}
	.st17{fill:#FFFFFF;}
	.st18{fill:#BCBCBC;}
	.st19{fill:#43484C;}
	.st20{opacity:0.12;}
	.st21{fill:#BECDEA;}
	.st22{fill:#D6DCE5;}
	.st23{fill:#9AA3AD;}
	.st24{fill:#D9DEE2;}
	.st25{fill:#6E83A0;}
	.st26{opacity:0.31;fill:#FFFFFF;}
	.st27{fill:#A0D33C;}
	.st28{fill:#EDF2F9;}
</style>
<g>
	<path class="st0" d="M-271.83,934.07v698.72c0,35.15-28.49,63.64-63.64,63.64h-492.72c-35.15,0-63.64-28.49-63.64-63.64V934.07
		c0-35.15,28.49-63.64,63.64-63.64h492.72C-300.32,870.43-271.83,898.92-271.83,934.07z"/>
	<rect x="-891.83" y="1080.43" class="st1" width="620" height="428"/>
	<path class="st2" d="M-362.94,1653.43h-440.07c-23.16,0-41.93-18.77-41.93-41.93V954.35c0-23.16,18.77-41.93,41.93-41.93h440.07
		c23.16,0,41.93,18.77,41.93,41.93v657.15C-321.01,1634.66-339.79,1653.43-362.94,1653.43z"/>
	<g class="st3">
		<g>
			<rect x="-808.83" y="1080.93" class="st4" width="446" height="3"/>
		</g>
		<g>
			<rect x="-808.83" y="1138.43" class="st4" width="446" height="3"/>
		</g>
		<g>
			<rect x="-808.83" y="1196.43" class="st4" width="446" height="3"/>
		</g>
		<g>
			<rect x="-808.83" y="1254.43" class="st4" width="446" height="3"/>
		</g>
		<g>
			<rect x="-808.83" y="1312.43" class="st4" width="446" height="3"/>
		</g>
		<g>
			<rect x="-808.83" y="1370.43" class="st4" width="446" height="3"/>
		</g>
		<g>
			<rect x="-808.83" y="1428.43" class="st4" width="446" height="3"/>
		</g>
		<g>
			<rect x="-808.83" y="1486.43" class="st4" width="446" height="3"/>
		</g>
		<g>
			<rect x="-808.83" y="1544.43" class="st4" width="446" height="3"/>
		</g>
	</g>
	<g>
		<path class="st5" d="M-476.6,891.04h-218.52c7.91-13.69,21.26-23.85,37.09-27.53c0.49-11.22,9.74-20.16,21.08-20.16h17.75v-11.24
			c0-15.4,12.48-27.87,27.88-27.87h10.93c15.4,0,27.87,12.48,27.87,27.87v11.24h17.76c11.34,0,20.58,8.94,21.08,20.16
			C-497.86,867.19-484.51,877.35-476.6,891.04z"/>
		<path class="st5" d="M-468.83,920.06v16.56h-234.06v-16.56c0-1.37,0.04-2.71,0.14-4.06h233.78
			C-468.88,917.34-468.83,918.69-468.83,920.06z"/>
		<path class="st6" d="M-468.97,916h-233.78c0.62-9.05,3.32-17.52,7.63-24.96h218.52C-472.29,898.47-469.59,906.95-468.97,916z"/>
	</g>
</g>
<g>
	<g>
		<path class="st7" d="M747.15,446.87c-3.51-34.77-25.8-89.2-73.29-101.47c-42.94-11.1-95.31,15.21-125.15,67.6
			c-29.84-52.39-82.21-78.7-125.15-67.6c-47.48,12.27-69.78,66.7-73.29,101.47c-7.96,78.89,69.66,166.9,196.75,215.72v1.32
			c0.57-0.21,1.12-0.44,1.69-0.66c0.57,0.22,1.12,0.44,1.69,0.66v-1.32C677.49,613.78,755.12,525.76,747.15,446.87z"/>
	</g>
	<g>
		<path class="st8" d="M705.68,498.5c0,7.92-1.17,15.57-3.36,22.77c-9.76,32.22-39.68,55.68-75.09,55.68
			c-43.34,0-78.46-35.12-78.46-78.45c0-22.31,9.3-42.44,24.26-56.72l30.13,36.18c5.78-6.81,14.42-11.12,24.07-11.12
			c9.71,0,18.4,4.37,24.2,11.26l30.53-35.79c3.88,3.77,7.38,7.96,10.42,12.49c5.86,8.7,10,18.64,11.98,29.35
			c0.41,2.24,0.74,4.51,0.95,6.81C705.55,493.43,705.68,495.95,705.68,498.5z"/>
	</g>
	<g>
		<path class="st9" d="M677.14,762.65c-4.55,0-9.1-1.75-12.56-5.25c-25.52-25.85-45-57.38-56.34-91.17
			c-22.38-66.72-8.61-126.13,1.59-155.6c3.19-9.21,13.24-14.09,22.44-10.9c9.21,3.19,14.09,13.24,10.9,22.44
			c-8.73,25.23-20.53,76.03-1.48,132.84c9.63,28.72,26.23,55.55,47.99,77.6c6.85,6.93,6.78,18.11-0.16,24.95
			C686.1,760.96,681.62,762.65,677.14,762.65z"/>
	</g>
	<g>
		<path class="st10" d="M681.96,442.29l-30.53,35.79c-5.8-6.89-14.48-11.26-24.2-11.26c-9.65,0-18.29,4.31-24.07,11.12l-30.13-36.18
			c14.07-13.46,33.17-21.74,54.21-21.74C648.52,420.03,667.82,428.53,681.96,442.29z"/>
	</g>
	<g>
		<path class="st11" d="M497.61,486.48c-5.54,0-10.42-4.01-11.34-9.66c-0.93-5.74-4.44-35.56,18.47-58.99
			c20.31-20.77,46.07-20.79,53.47-20.32c6.34,0.42,11.14,5.89,10.73,12.24c-0.42,6.34-5.88,11.15-12.24,10.73
			c-3.51-0.24-21.72-0.66-35.51,13.44c-15.5,15.85-12.59,36.86-12.21,39.2c1.02,6.27-3.23,12.19-9.51,13.21
			C498.85,486.43,498.23,486.48,497.61,486.48z"/>
	</g>
	<g>
		<path class="st11" d="M425.91,478.81c-5.54,0-10.42-4.01-11.34-9.66c-1.48-9.06-7.01-56.15,29.14-93.13
			c32.04-32.77,72.71-32.81,84.41-32.05c6.34,0.42,11.15,5.89,10.73,12.24c-0.41,6.34-5.88,11.13-12.23,10.73
			c-6.57-0.43-40.62-1.24-66.45,25.17c-29.02,29.68-23.59,68.96-22.88,73.34c1.02,6.27-3.23,12.19-9.51,13.21
			C427.15,478.76,426.53,478.81,425.91,478.81z"/>
	</g>
	<g>
		<path class="st10" d="M705.68,498.5c0,7.92-1.17,15.57-3.36,22.77l-50.51-16.92l53.5-13.39
			C705.55,493.43,705.68,495.95,705.68,498.5z"/>
	</g>
	<g>
		<g>
			<path class="st12" d="M627.23,533.59c-19.36,0-35.11-15.74-35.11-35.1c0-8.37,2.99-16.46,8.43-22.79
				c6.65-7.83,16.38-12.33,26.69-12.33c10.37,0,20.15,4.55,26.83,12.49c5.33,6.31,8.27,14.35,8.27,22.63
				C662.33,517.85,646.58,533.59,627.23,533.59z"/>
			<path class="st13" d="M627.23,466.83c9.71,0,18.4,4.37,24.2,11.26c4.65,5.51,7.46,12.63,7.46,20.41
				c0,17.48-14.18,31.65-31.65,31.65c-17.49,0-31.67-14.18-31.67-31.65c0-7.84,2.85-15.02,7.59-20.54
				C608.94,471.14,617.58,466.83,627.23,466.83 M627.23,459.93c-11.32,0-22.01,4.94-29.33,13.56c-5.95,6.93-9.23,15.82-9.23,25.01
				c0,21.26,17.3,38.55,38.56,38.55c21.26,0,38.55-17.29,38.55-38.55c0-9.09-3.23-17.91-9.08-24.85
				C649.36,464.93,638.62,459.93,627.23,459.93L627.23,459.93z"/>
		</g>
	</g>
</g>
<g>
	<g>
		<g>
			<path class="st14" d="M1060.89,1685.54c-18.27,0-36.43-4.93-50.23-15.05c-28.03-20.55-30.26-54.66-33.09-159.37
				c-1.36-50.3-2.36-101.36-2.98-151.77l23.78-0.29c0.61,50.29,1.61,101.23,2.97,151.41c2.72,100.65,5.37,127.63,23.38,140.84
				c21.57,15.81,61.08,13.4,79.78-4.86c13.56-13.25,13.8-39.79,14.25-92.66c0.19-21.42-0.79-42.99-2.91-64.1l23.66-2.37
				c2.2,21.96,3.23,44.4,3.03,66.68c-0.52,59.45-0.78,89.3-21.41,109.46C1106.22,1678.01,1083.47,1685.54,1060.89,1685.54z"/>
		</g>
	</g>
	<g>
		<path class="st15" d="M1201.65,1571.12h-127.18c-14.13,0-25.58-11.45-25.58-25.58v-247.82c0-14.13,11.45-25.58,25.58-25.58h127.18
			c14.13,0,25.58,11.45,25.58,25.58v247.82C1227.24,1559.66,1215.78,1571.12,1201.65,1571.12z"/>
	</g>
	<g>
		<path class="st16" d="M1033.62,1281.35c-0.79-37.5-23.39-67.43-50.47-66.85c-27.08,0.57-48.39,31.44-47.59,68.93
			c0.52,24.7,10.51,46.11,25,57.69c4.24,3.38,6.59,8.6,6.71,14.03l0.31,14.4c0.22,10.42,8.84,18.68,19.26,18.46h0
			c10.42-0.22,18.68-8.84,18.46-19.26l-0.31-14.4c-0.11-5.42,2.02-10.74,6.11-14.3C1025.08,1327.86,1034.15,1306.04,1033.62,1281.35
			z"/>
	</g>
	<g>
		<g>
			<circle class="st17" cx="1201.97" cy="1500.39" r="69.85"/>
			<path class="st18" d="M1201.97,1576.19c-41.79,0-75.79-34-75.79-75.79s34-75.79,75.79-75.79c41.79,0,75.79,34,75.79,75.79
				S1243.76,1576.19,1201.97,1576.19z M1201.97,1436.49c-35.24,0-63.91,28.67-63.91,63.91s28.67,63.91,63.91,63.91
				c35.24,0,63.91-28.67,63.91-63.91S1237.21,1436.49,1201.97,1436.49z"/>
		</g>
		<g>
			<polygon class="st19" points="1236.15,1503.36 1196.03,1503.36 1196.03,1478.1 1204.94,1478.1 1204.94,1494.45 1236.15,1494.45 
							"/>
		</g>
	</g>
	<g class="st20">
		<path class="st21" d="M950.81,1299.76c-1.46-4.47-7.73-25.25,2.97-47.56c9.08-18.94,24.81-27.34,29.72-29.72
			c-4.28,12.31-9.2,25.23-14.86,38.64C962.82,1274.92,956.81,1287.81,950.81,1299.76z"/>
	</g>
</g>
<g>
	<g>
		<path class="st22" d="M924.15,1800.97C924.15,1800.97,924.14,1800.97,924.15,1800.97l11.64,25.38l124.88,133.48
			c5.01,5.35,11.89,7.04,15.37,3.78s2.25-10.24-2.75-15.59L947.62,1813.7L924.15,1800.97z"/>
		<g>
			
				<rect x="1232.44" y="2104.44" transform="matrix(0.7303 -0.6832 0.6832 0.7303 -1129.3663 1429.6227)" class="st23" width="26.53" height="81.06"/>
		</g>
		<g>
			<path class="st23" d="M1319.05,2150.02l-73.19,68.47c-5.35,5.01-13.74,4.73-18.75-0.62c-5.01-5.35-4.73-13.74,0.62-18.75
				l73.19-68.47c5.35-5.01,13.74-4.73,18.75,0.62C1324.68,2136.62,1324.4,2145.02,1319.05,2150.02z"/>
		</g>
		<g>
			<path class="st23" d="M1053.95,1911.62l-28.32,26.5c-5.26,4.92-13.5,4.64-18.42-0.61l-38.58-41.24
				c-4.92-5.26-4.64-13.5,0.61-18.42l28.32-26.5c5.26-4.92,13.5-4.64,18.42,0.61l38.58,41.24
				C1059.48,1898.45,1059.21,1906.7,1053.95,1911.62z"/>
		</g>
		<g>
			<g>
				<path class="st24" d="M1073.62,1882.07l172.22,184.09c16.96,18.13,20.16,42.66,7.15,54.83l-31.7,29.66
					c-13.01,12.17-37.28,7.34-54.23-10.78l-172.22-184.09c-16.96-18.13-20.16-42.66-7.15-54.83l31.7-29.66
					C1032.4,1859.12,1056.67,1863.95,1073.62,1882.07z"/>
			</g>
			<path class="st7" d="M1072.68,1886.95l122.51,130.95c-3.06,0.3-6.12,0.37-9.16,0.2c-30.1-1.73-44.51-26.77-75.52-27.93
				c-25.87-0.96-25,16.14-49.02,16.09c-4.8-0.01-9.93-0.7-15.21-1.99l-46.21-49.4c-15.63-16.7-18.57-39.32-6.59-50.53l29.21-27.33
				C1034.69,1865.8,1057.06,1870.25,1072.68,1886.95z"/>
			<g>
				<path class="st25" d="M1101.84,1912.23l9.06,9.69l-32.29,30.21c-1.92,1.8-5.5,1.09-8.01-1.59c-2.51-2.68-2.98-6.3-1.06-8.1
					L1101.84,1912.23z"/>
			</g>
			<g>
				<path class="st25" d="M1147.15,1960.66l9.06,9.69l-32.29,30.21c-1.92,1.8-5.5,1.09-8.01-1.59s-2.98-6.3-1.06-8.1
					L1147.15,1960.66z"/>
			</g>
			<g>
				<path class="st25" d="M1192.46,2009.1l9.06,9.69l-32.29,30.21c-1.92,1.8-5.5,1.09-8.01-1.59c-2.51-2.68-2.98-6.3-1.06-8.1
					L1192.46,2009.1z"/>
			</g>
			<path class="st26" d="M1218.9,2138.76l-12.23,11.44c-4.54,4.25-11.66,4.01-15.91-0.53l-206.14-220.35
				c-4.25-4.54-4.01-11.66,0.53-15.91l12.23-11.44L1218.9,2138.76z"/>
		</g>
	</g>
	<path class="st7" d="M914.12,1795.06c-5.66-2.05-14.4-4.87-25.42-6.99c-11.74-2.26-14.64-1.52-20.05-4.14
		c-13.14-6.36-22.8-23.63-18.32-30.33c4.21-6.3,21.83-4.59,32.54,3.47c5.74,4.32,6.46,8.18,14.59,19.05
		C903.83,1784.65,909.91,1790.99,914.12,1795.06z"/>
</g>
<g>
	<g>
		<g>
			<path class="st7" d="M1920.9,1353.67c-3.51-34.77-25.8-89.2-73.29-101.47c-42.94-11.1-95.31,15.21-125.15,67.6
				c-29.84-52.39-82.21-78.7-125.15-67.6c-47.48,12.27-69.78,66.7-73.29,101.47c-7.96,78.89,69.66,166.9,196.75,215.72v1.32
				c0.57-0.21,1.12-0.44,1.69-0.66c0.57,0.22,1.12,0.44,1.69,0.66v-1.32C1851.24,1520.57,1928.86,1432.55,1920.9,1353.67z"/>
		</g>
		<g>
			<path class="st8" d="M1879.42,1405.29c0,7.92-1.17,15.57-3.36,22.77c-9.76,32.22-39.68,55.68-75.09,55.68
				c-43.34,0-78.46-35.12-78.46-78.45c0-22.31,9.3-42.44,24.26-56.72l30.13,36.18c5.78-6.81,14.42-11.12,24.07-11.12
				c9.71,0,18.4,4.37,24.2,11.26l30.53-35.79c3.88,3.77,7.38,7.96,10.42,12.49c5.86,8.7,10,18.64,11.98,29.35
				c0.41,2.24,0.74,4.51,0.95,6.81C1879.3,1400.23,1879.42,1402.74,1879.42,1405.29z"/>
		</g>
		<g>
			<path class="st9" d="M1850.88,1669.44c-4.55,0-9.1-1.75-12.56-5.25c-25.52-25.85-45-57.38-56.34-91.17
				c-22.38-66.72-8.61-126.13,1.59-155.6c3.19-9.21,13.24-14.09,22.44-10.9c9.21,3.19,14.09,13.24,10.9,22.44
				c-8.73,25.23-20.53,76.03-1.48,132.84c9.63,28.72,26.23,55.55,47.99,77.6c6.85,6.93,6.78,18.11-0.16,24.95
				C1859.84,1667.75,1855.36,1669.44,1850.88,1669.44z"/>
		</g>
		<g>
			<path class="st10" d="M1855.7,1349.09l-30.53,35.79c-5.8-6.89-14.48-11.26-24.2-11.26c-9.65,0-18.29,4.31-24.07,11.12
				l-30.13-36.18c14.07-13.46,33.17-21.74,54.21-21.74C1822.27,1326.83,1841.57,1335.33,1855.7,1349.09z"/>
		</g>
		<g>
			<path class="st11" d="M1671.36,1393.28c-5.54,0-10.42-4.01-11.34-9.66c-0.93-5.74-4.44-35.56,18.47-58.99
				c20.31-20.77,46.07-20.79,53.47-20.32c6.34,0.42,11.14,5.89,10.73,12.24c-0.42,6.34-5.88,11.15-12.24,10.73
				c-3.51-0.24-21.72-0.66-35.51,13.44c-15.5,15.85-12.59,36.86-12.21,39.2c1.02,6.27-3.23,12.19-9.51,13.21
				C1672.6,1393.23,1671.97,1393.28,1671.36,1393.28z"/>
		</g>
		<g>
			<path class="st11" d="M1599.66,1385.61c-5.54,0-10.42-4.01-11.34-9.66c-1.48-9.06-7.01-56.15,29.14-93.13
				c32.04-32.77,72.71-32.81,84.41-32.05c6.34,0.42,11.15,5.89,10.73,12.24c-0.41,6.34-5.88,11.13-12.23,10.73
				c-6.57-0.43-40.62-1.24-66.45,25.17c-29.02,29.68-23.59,68.96-22.88,73.34c1.02,6.27-3.23,12.19-9.51,13.21
				C1600.9,1385.56,1600.28,1385.61,1599.66,1385.61z"/>
		</g>
		<g>
			<path class="st10" d="M1879.42,1405.29c0,7.92-1.17,15.57-3.36,22.77l-50.51-16.92l53.5-13.39
				C1879.3,1400.23,1879.42,1402.74,1879.42,1405.29z"/>
		</g>
		<g>
			<g>
				<path class="st12" d="M1800.97,1440.39c-19.36,0-35.11-15.74-35.11-35.1c0-8.37,2.99-16.46,8.43-22.79
					c6.65-7.83,16.38-12.33,26.69-12.33c10.37,0,20.15,4.55,26.83,12.49c5.33,6.31,8.27,14.35,8.27,22.63
					C1836.07,1424.64,1820.33,1440.39,1800.97,1440.39z"/>
				<path class="st13" d="M1800.97,1373.62c9.71,0,18.4,4.37,24.2,11.26c4.65,5.51,7.46,12.63,7.46,20.41
					c0,17.48-14.18,31.65-31.65,31.65c-17.49,0-31.67-14.18-31.67-31.65c0-7.84,2.85-15.02,7.59-20.54
					C1782.69,1377.93,1791.32,1373.62,1800.97,1373.62 M1800.97,1366.72c-11.32,0-22.01,4.94-29.33,13.56
					c-5.95,6.93-9.23,15.82-9.23,25.01c0,21.26,17.3,38.55,38.56,38.55c21.26,0,38.55-17.29,38.55-38.55
					c0-9.09-3.23-17.91-9.08-24.85C1823.11,1371.72,1812.36,1366.72,1800.97,1366.72L1800.97,1366.72z"/>
			</g>
		</g>
	</g>
	<g>
		<path class="st27" d="M1739.59,1578.64l-25.78-30.37l7.17-39.19l-37.55-13.36l-13.36-37.55l-39.19,7.17l-30.37-25.78l-30.37,25.78
			l-39.19-7.17l-13.36,37.55l-37.55,13.36l7.17,39.19l-25.78,30.37l25.78,30.37l-7.17,39.19l37.55,13.36l13.36,37.55l39.19-7.17
			l30.37,25.78l30.37-25.78l39.19,7.17l13.36-37.55l37.55-13.36l-7.17-39.19L1739.59,1578.64z M1582.94,1657.28l-65.75-84.4
			l29.3-22.82l37.96,48.73l70.69-81.7l28.08,24.3L1582.94,1657.28z"/>
		<polygon class="st17" points="1584.44,1598.79 1546.49,1550.06 1517.19,1572.88 1582.94,1657.28 1683.22,1541.39 1655.13,1517.09 
					"/>
	</g>
</g>
<g>
	<g>
		<g>
			<g>
				<path class="st14" d="M2258.63,1699.33c-18.27,0-36.43-4.93-50.23-15.05c-28.03-20.55-30.26-54.66-33.09-159.37
					c-1.36-50.3-2.36-101.36-2.98-151.77l23.78-0.29c0.61,50.29,1.61,101.23,2.97,151.41c2.72,100.65,5.37,127.63,23.38,140.84
					c21.57,15.81,61.08,13.4,79.78-4.86c13.56-13.25,13.8-39.79,14.25-92.66c0.19-21.42-0.79-42.99-2.91-64.1l23.66-2.37
					c2.2,21.96,3.23,44.4,3.03,66.68c-0.52,59.45-0.78,89.3-21.41,109.46C2303.97,1691.8,2281.22,1699.33,2258.63,1699.33z"/>
			</g>
		</g>
		<g>
			<path class="st15" d="M2399.4,1584.91h-127.18c-14.13,0-25.58-11.45-25.58-25.58v-247.82c0-14.13,11.45-25.58,25.58-25.58h127.18
				c14.13,0,25.58,11.45,25.58,25.58v247.82C2424.98,1573.46,2413.53,1584.91,2399.4,1584.91z"/>
		</g>
		<g>
			<path class="st16" d="M2231.37,1295.14c-0.79-37.5-23.39-67.43-50.47-66.85c-27.08,0.57-48.39,31.44-47.59,68.93
				c0.52,24.7,10.51,46.11,25,57.69c4.24,3.38,6.59,8.6,6.71,14.03l0.31,14.4c0.22,10.42,8.84,18.68,19.26,18.46l0,0
				c10.42-0.22,18.68-8.84,18.46-19.26l-0.31-14.4c-0.11-5.42,2.02-10.74,6.11-14.3
				C2222.82,1341.65,2231.89,1319.84,2231.37,1295.14z"/>
		</g>
		<g>
			<g>
				<circle class="st17" cx="2399.72" cy="1514.19" r="69.85"/>
				<path class="st18" d="M2399.72,1589.98c-41.79,0-75.79-34-75.79-75.79s34-75.79,75.79-75.79s75.79,34,75.79,75.79
					S2441.51,1589.98,2399.72,1589.98z M2399.72,1450.28c-35.24,0-63.91,28.67-63.91,63.91c0,35.24,28.67,63.91,63.91,63.91
					c35.24,0,63.91-28.67,63.91-63.91C2463.62,1478.95,2434.96,1450.28,2399.72,1450.28z"/>
			</g>
			<g>
				<polygon class="st19" points="2433.9,1517.16 2393.77,1517.16 2393.77,1491.89 2402.69,1491.89 2402.69,1508.24 2433.9,1508.24 
									"/>
			</g>
		</g>
		<g class="st20">
			<path class="st21" d="M2148.55,1313.55c-1.46-4.47-7.73-25.25,2.97-47.56c9.08-18.94,24.81-27.34,29.72-29.72
				c-4.28,12.31-9.2,25.23-14.86,38.64C2160.56,1288.72,2154.56,1301.6,2148.55,1313.55z"/>
		</g>
	</g>
	<g>
		<path class="st27" d="M2347.66,1578.64l-25.78-30.37l7.17-39.19l-37.55-13.36l-13.36-37.55l-39.19,7.17l-30.37-25.78l-30.37,25.78
			l-39.19-7.17l-13.36,37.55l-37.55,13.36l7.17,39.19l-25.78,30.37l25.78,30.37l-7.17,39.19l37.55,13.36l13.36,37.55l39.19-7.17
			l30.37,25.78l30.37-25.78l39.19,7.17l13.36-37.55l37.55-13.36l-7.17-39.19L2347.66,1578.64z M2191.01,1657.28l-65.75-84.4
			l29.3-22.82l37.96,48.73l70.69-81.7l28.08,24.3L2191.01,1657.28z"/>
		<polygon class="st17" points="2192.51,1598.79 2154.56,1550.06 2125.26,1572.88 2191.01,1657.28 2291.28,1541.39 2263.2,1517.09 
					"/>
	</g>
</g>
<g>
	<g>
		<g>
			<path class="st22" d="M2121.89,1814.76C2121.89,1814.76,2121.89,1814.76,2121.89,1814.76l11.64,25.38l124.88,133.48
				c5.01,5.35,11.89,7.04,15.37,3.78s2.25-10.24-2.75-15.59l-125.66-134.32L2121.89,1814.76z"/>
			<g>
				
					<rect x="2430.18" y="2118.23" transform="matrix(0.7303 -0.6832 0.6832 0.7303 -815.7059 2251.6108)" class="st23" width="26.53" height="81.06"/>
			</g>
			<g>
				<path class="st23" d="M2516.8,2163.82l-73.19,68.47c-5.35,5.01-13.74,4.73-18.75-0.62c-5-5.35-4.73-13.74,0.62-18.75
					l73.19-68.47c5.35-5.01,13.74-4.73,18.75,0.62S2522.15,2158.81,2516.8,2163.82z"/>
			</g>
			<g>
				<path class="st23" d="M2251.7,1925.41l-28.32,26.5c-5.26,4.92-13.5,4.64-18.42-0.61l-38.58-41.24
					c-4.92-5.26-4.64-13.5,0.61-18.42l28.32-26.5c5.26-4.92,13.5-4.64,18.42,0.61l38.58,41.24
					C2257.23,1912.25,2256.95,1920.49,2251.7,1925.41z"/>
			</g>
			<g>
				<g>
					<path class="st24" d="M2271.37,1895.86l172.22,184.09c16.96,18.13,20.16,42.66,7.15,54.83l-31.7,29.66
						c-13.01,12.17-37.28,7.34-54.23-10.78l-172.22-184.09c-16.96-18.13-20.16-42.66-7.15-54.83l31.7-29.66
						C2230.14,1872.92,2254.41,1877.74,2271.37,1895.86z"/>
				</g>
				<path class="st7" d="M2270.43,1900.74l122.51,130.95c-3.06,0.3-6.12,0.37-9.16,0.2c-30.1-1.73-44.51-26.77-75.52-27.93
					c-25.87-0.96-25,16.14-49.02,16.09c-4.8-0.01-9.93-0.7-15.21-1.99l-46.21-49.4c-15.63-16.7-18.57-39.32-6.59-50.53l29.21-27.33
					C2232.44,1879.59,2254.8,1884.04,2270.43,1900.74z"/>
				<g>
					<path class="st25" d="M2299.58,1926.02l9.06,9.69l-32.29,30.21c-1.92,1.8-5.5,1.09-8.01-1.59c-2.51-2.68-2.98-6.3-1.06-8.1
						L2299.58,1926.02z"/>
				</g>
				<g>
					<path class="st25" d="M2344.9,1974.46l9.06,9.69l-32.29,30.21c-1.92,1.8-5.5,1.09-8.01-1.59c-2.51-2.68-2.98-6.3-1.06-8.1
						L2344.9,1974.46z"/>
				</g>
				<g>
					<path class="st25" d="M2390.21,2022.89l9.06,9.69l-32.29,30.21c-1.92,1.8-5.5,1.09-8.01-1.59c-2.51-2.68-2.98-6.3-1.06-8.1
						L2390.21,2022.89z"/>
				</g>
				<path class="st26" d="M2416.65,2152.55l-12.23,11.44c-4.54,4.25-11.66,4.01-15.91-0.53l-206.14-220.35
					c-4.25-4.54-4.01-11.66,0.53-15.91l12.23-11.44L2416.65,2152.55z"/>
			</g>
		</g>
		<path class="st7" d="M2111.86,1808.86c-5.66-2.05-14.4-4.87-25.42-6.99c-11.74-2.26-14.64-1.52-20.05-4.14
			c-13.14-6.36-22.8-23.63-18.32-30.33c4.21-6.3,21.83-4.59,32.54,3.47c5.74,4.32,6.46,8.18,14.59,19.05
			C2101.58,1798.45,2107.65,1804.78,2111.86,1808.86z"/>
	</g>
	<g>
		<path class="st27" d="M2347.66,2130.38l-25.78-30.37l7.17-39.19l-37.55-13.36l-13.36-37.55l-39.19,7.17l-30.37-25.78l-30.37,25.78
			l-39.19-7.17l-13.36,37.55l-37.55,13.36l7.17,39.19l-25.78,30.37l25.78,30.37l-7.17,39.19l37.55,13.36l13.36,37.55l39.19-7.17
			l30.37,25.78l30.37-25.78l39.19,7.17l13.36-37.55l37.55-13.36l-7.17-39.19L2347.66,2130.38z M2191.01,2209.03l-65.75-84.4
			l29.3-22.82l37.96,48.73l70.69-81.7l28.08,24.3L2191.01,2209.03z"/>
		<polygon class="st17" points="2192.51,2150.53 2154.56,2101.8 2125.26,2124.62 2191.01,2209.03 2291.28,2093.13 2263.2,2068.83 		
			"/>
	</g>
</g>
<g>
	<path class="st14" d="M701.36,1978.74c-21.14,40.65-44.06,107.49-51.89,222.44H475.22c3.05-53.03-11.43-82.68-25.95-100.11
		c-33-39.62-87.98-42.43-92.68-77.84c-0.22-1.65-2.14-18.08,7.41-25.95c22.03-18.11,77.16,32.38,92.68,18.54
		c9.62-8.57-4.81-33.95-25.95-114.92c-10.51-40.33-14.27-62.19-3.7-70.44c6.92-5.43,18.46-3.76,25.95,0
		c16.49,8.24,12.57,28.78,29.65,66.73c6.05,13.41,15.57,34.57,22.24,33.35c3.73-0.68,7.65-8.49,11.14-88.98
		c2.16-50.22,1.57-70.79,14.81-77.84c9.14-4.87,21.7-2.03,29.68,3.7c14.92,10.76,14.03,32.54,14.81,63.03
		c1.46,56.06,7.51,103.65,11.14,103.79c3.16,0.14,6.27-36.03,22.24-88.98c8.27-27.43,15.35-43.97,29.65-48.19
		c6.76-1.97,16.03-1.49,22.24,3.7c10.78,9.03,6.54,28.06,0,66.73c-12.87,76.03-11.08,87.68-7.41,88.98
		c3.62,1.3,13.16-6.03,18.14-14.19c0.16-0.22,0.24-0.38,0.41-0.62c13.97-23.62,17.05-37.51,29.65-40.79
		c5.73-1.49,13.95-0.92,18.54,3.7C733.91,1918.74,708.42,1965.15,701.36,1978.74z"/>
	<path class="st28" d="M604.39,2201.18h-92.87c-19.11-63.6-16.19-82.84-8.49-87.11c8.73-4.89,19.92,11.57,48.19,14.81
		c36.22,4.16,56.03-18.49,66.73-11.11C625.41,2122.91,627.25,2141.88,604.39,2201.18z"/>
	<path class="st28" d="M495.61,2051.04c-8.04,9.16-1.17,31.58,11.12,44.49c16.28,17.1,40.51,15.82,59.31,14.83
		c21.83-1.15,44.17-2.33,51.9-18.54c7.87-16.5-2.83-41.4-18.54-48.19c-12.24-5.3-18.67,4.22-44.49,7.41
		C520.21,2055.33,503.92,2041.57,495.61,2051.04z"/>
	<path class="st28" d="M473.37,2069.57c7.61-7.29,5.43-26.57-3.71-33.36c-7.09-5.27-13.37,0.71-29.66-3.71
		c-13.25-3.59-18.21-10.03-22.24-7.41c-4.49,2.9-3.59,14.22,0,22.24C427.38,2068.83,462.35,2080.12,473.37,2069.57z"/>
	<path class="st28" d="M376.98,2010.26c5.36-2.68,21.26,9.42,18.54,18.54c-1.6,5.37-9.57,9.35-14.83,7.41
		C371.76,2032.92,371.63,2012.94,376.98,2010.26z"/>
	<path class="st28" d="M461.61,1953.91c3.61-4.67,15.09-3.84,22.52,1.16c9.72,6.54,6.62,16.24,15.26,35.57
		c9.79,21.9,22.39,28.75,18.94,35.15c-2.81,5.2-14.15,6.29-22.1,2.52c-9.08-4.31-9.26-12.85-18.94-35.15
		C465.98,1967.12,457.65,1959.03,461.61,1953.91z"/>
	<path class="st28" d="M632.48,1947.4c-4.09-4.26-15.41-2.21-22.27,3.55c-8.97,7.54-4.85,16.86-11.38,36.99
		c-7.4,22.82-19.2,30.97-15.09,36.97c3.34,4.87,14.74,4.75,22.24,0.16c8.57-5.25,7.83-13.76,15.09-36.97
		C629.54,1961.01,636.96,1952.08,632.48,1947.4z"/>
	<path class="st28" d="M540.1,1932.41c5.82-5.38,16.44-7.94,22.24-3.71c8.77,6.4-2.1,22.08,0,55.61c1.39,22.19,7.29,33.31,0,40.78
		c-4.5,4.61-12.9,6.69-18.54,3.71c-7.57-4-5.73-14.8-7.41-51.9C535.05,1947.36,533.18,1938.8,540.1,1932.41z"/>
	<path class="st28" d="M665.76,1990.15c5.66-0.46,12.73,2.67,13.57,7.03c1.25,6.43-12.31,9.12-24.88,24.58
		c-11.46,14.11-12.11,26.57-17.66,26.29c-4.1-0.2-7.98-7.22-8.26-13.39c-0.29-6.52,3.56-9.45,17.66-26.29
		C657.84,1994.48,660.13,1990.61,665.76,1990.15z"/>
	<path class="st28" d="M441.15,1885.9c2.38-3.85,10.18-4.96,14.69-2.01c4,2.62,2.98,6.86,6.18,17.86
		c4.11,14.13,9.09,18.48,6.68,21.54c-2.45,3.11-10.55,2.29-15.19-1.67c-3.27-2.79-2.98-5.57-5.68-14.19
		C443.25,1892.78,438.9,1889.53,441.15,1885.9z"/>
	<path class="st28" d="M642.96,1874.78c-2.38-3.85-10.18-4.96-14.69-2.01c-4,2.62-2.98,6.86-6.18,17.86
		c-4.11,14.13-9.09,18.48-6.68,21.54c2.45,3.11,10.55,2.29,15.19-1.67c3.27-2.79,2.98-5.57,5.68-14.19
		C640.86,1881.66,645.2,1878.41,642.96,1874.78z"/>
	<path class="st28" d="M536.39,1843.44c5.01-5.83,18.31-5.56,22.24,0c3.81,5.38-4.2,11.41-3.71,25.95
		c0.43,12.6,6.73,16.6,3.71,22.24c-4.16,7.76-21.16,9.73-25.95,3.71c-3.65-4.59,2.75-10.1,3.71-25.95
		C537.31,1854.16,532.05,1848.48,536.39,1843.44z"/>
	<path class="st28" d="M692.09,1939.82c5.1-3.65,13.41-2.98,14.83,0c1.62,3.42-7.23,6.92-11.12,18.54
		c-2.71,8.08-0.3,11.94-3.71,14.83c-5.19,4.4-17.4,1.03-18.54-3.71c-0.88-3.64,5.55-5.02,11.12-14.83
		C689.13,1946.82,687.72,1942.95,692.09,1939.82z"/>
</g>
<g>
	<g>
		<path class="st14" d="M1848.53,1968.86c-21.14,40.65-44.06,107.49-51.89,222.44h-174.25c3.05-53.03-11.43-82.68-25.95-100.11
			c-33-39.62-87.98-42.43-92.68-77.84c-0.22-1.65-2.14-18.08,7.41-25.95c22.03-18.11,77.16,32.38,92.68,18.54
			c9.62-8.57-4.81-33.95-25.95-114.92c-10.51-40.33-14.27-62.19-3.7-70.44c6.92-5.43,18.46-3.76,25.95,0
			c16.49,8.24,12.57,28.78,29.65,66.73c6.05,13.41,15.57,34.57,22.24,33.35c3.73-0.68,7.65-8.49,11.14-88.98
			c2.16-50.22,1.57-70.79,14.81-77.84c9.14-4.87,21.7-2.03,29.68,3.7c14.92,10.76,14.03,32.54,14.81,63.03
			c1.46,56.06,7.51,103.65,11.14,103.79c3.16,0.14,6.27-36.03,22.24-88.98c8.27-27.43,15.35-43.97,29.65-48.19
			c6.76-1.97,16.03-1.49,22.24,3.7c10.78,9.03,6.54,28.06,0,66.73c-12.87,76.03-11.08,87.68-7.41,88.98
			c3.62,1.3,13.16-6.03,18.14-14.19c0.16-0.22,0.24-0.38,0.41-0.62c13.97-23.62,17.05-37.51,29.65-40.79
			c5.73-1.49,13.95-0.92,18.54,3.7C1881.07,1908.86,1855.59,1955.27,1848.53,1968.86z"/>
		<path class="st28" d="M1751.56,2191.3h-92.87c-19.11-63.6-16.19-82.84-8.49-87.11c8.73-4.89,19.92,11.57,48.19,14.81
			c36.22,4.16,56.03-18.49,66.73-11.11C1772.58,2113.03,1774.42,2132,1751.56,2191.3z"/>
		<path class="st28" d="M1642.78,2041.16c-8.04,9.16-1.17,31.58,11.12,44.49c16.28,17.1,40.51,15.82,59.31,14.83
			c21.83-1.15,44.17-2.33,51.9-18.54c7.87-16.5-2.83-41.4-18.54-48.19c-12.24-5.3-18.67,4.22-44.49,7.41
			C1667.38,2045.45,1651.09,2031.69,1642.78,2041.16z"/>
		<path class="st28" d="M1620.54,2059.69c7.61-7.29,5.43-26.57-3.71-33.36c-7.09-5.27-13.37,0.71-29.66-3.71
			c-13.25-3.59-18.21-10.03-22.24-7.41c-4.49,2.9-3.59,14.22,0,22.24C1574.55,2058.95,1609.52,2070.25,1620.54,2059.69z"/>
		<path class="st28" d="M1524.15,2000.38c5.36-2.68,21.26,9.42,18.54,18.54c-1.6,5.37-9.57,9.35-14.83,7.41
			C1518.93,2023.04,1518.8,2003.06,1524.15,2000.38z"/>
		<path class="st28" d="M1608.78,1944.03c3.61-4.67,15.09-3.84,22.52,1.16c9.72,6.54,6.62,16.24,15.26,35.57
			c9.79,21.9,22.39,28.75,18.94,35.15c-2.81,5.2-14.15,6.29-22.1,2.52c-9.08-4.31-9.26-12.85-18.94-35.15
			C1613.15,1957.24,1604.82,1949.15,1608.78,1944.03z"/>
		<path class="st28" d="M1779.65,1937.53c-4.09-4.26-15.41-2.21-22.27,3.55c-8.97,7.54-4.85,16.86-11.38,36.99
			c-7.4,22.82-19.2,30.97-15.09,36.97c3.34,4.87,14.74,4.75,22.24,0.16c8.57-5.25,7.83-13.76,15.09-36.97
			C1776.71,1951.13,1784.13,1942.2,1779.65,1937.53z"/>
		<path class="st28" d="M1687.27,1922.53c5.82-5.38,16.44-7.94,22.24-3.71c8.77,6.4-2.1,22.08,0,55.61
			c1.39,22.19,7.29,33.31,0,40.78c-4.5,4.61-12.9,6.69-18.54,3.71c-7.57-4-5.73-14.8-7.41-51.9
			C1682.22,1937.48,1680.35,1928.93,1687.27,1922.53z"/>
		<path class="st28" d="M1812.93,1980.27c5.66-0.46,12.73,2.67,13.57,7.03c1.25,6.43-12.31,9.12-24.88,24.58
			c-11.46,14.11-12.11,26.57-17.66,26.29c-4.1-0.2-7.98-7.22-8.26-13.39c-0.29-6.52,3.56-9.45,17.66-26.29
			C1805.01,1984.6,1807.3,1980.73,1812.93,1980.27z"/>
		<path class="st28" d="M1588.32,1876.02c2.38-3.85,10.18-4.96,14.69-2.01c4,2.62,2.98,6.86,6.18,17.86
			c4.11,14.13,9.09,18.48,6.68,21.54c-2.45,3.11-10.55,2.29-15.19-1.67c-3.27-2.79-2.98-5.57-5.68-14.19
			C1590.42,1882.9,1586.07,1879.66,1588.32,1876.02z"/>
		<path class="st28" d="M1790.13,1864.9c-2.38-3.85-10.18-4.96-14.69-2.01c-4,2.62-2.98,6.86-6.18,17.86
			c-4.11,14.13-9.09,18.48-6.68,21.54c2.45,3.11,10.55,2.29,15.19-1.67c3.27-2.79,2.98-5.57,5.68-14.19
			C1788.03,1871.78,1792.37,1868.53,1790.13,1864.9z"/>
		<path class="st28" d="M1683.56,1833.56c5.01-5.83,18.31-5.56,22.24,0c3.81,5.38-4.2,11.41-3.71,25.95
			c0.43,12.6,6.73,16.6,3.71,22.24c-4.16,7.76-21.16,9.73-25.95,3.71c-3.65-4.59,2.75-10.1,3.71-25.95
			C1684.48,1844.29,1679.22,1838.6,1683.56,1833.56z"/>
		<path class="st28" d="M1839.26,1929.94c5.1-3.65,13.41-2.98,14.83,0c1.62,3.42-7.23,6.92-11.12,18.54
			c-2.71,8.08-0.3,11.94-3.71,14.83c-5.19,4.4-17.4,1.03-18.54-3.71c-0.88-3.64,5.55-5.02,11.12-14.83
			C1836.29,1936.94,1834.89,1933.08,1839.26,1929.94z"/>
	</g>
	<g>
		<path class="st27" d="M1739.59,2130.38l-25.78-30.37l7.17-39.19l-37.55-13.36l-13.36-37.55l-39.19,7.17l-30.37-25.78l-30.37,25.78
			l-39.19-7.17l-13.36,37.55l-37.55,13.36l7.17,39.19l-25.78,30.37l25.78,30.37l-7.17,39.19l37.55,13.36l13.36,37.55l39.19-7.17
			l30.37,25.78l30.37-25.78l39.19,7.17l13.36-37.55l37.55-13.36l-7.17-39.19L1739.59,2130.38z M1582.94,2209.03l-65.75-84.4
			l29.3-22.82l37.96,48.73l70.69-81.7l28.08,24.3L1582.94,2209.03z"/>
		<polygon class="st17" points="1584.44,2150.53 1546.49,2101.8 1517.19,2124.62 1582.94,2209.03 1683.22,2093.13 1655.13,2068.83 
					"/>
	</g>
</g>
</svg>
