<?xml version="1.0" encoding="utf-8"?>
<!-- Generator: Adobe Illustrator 24.0.2, SVG Export Plug-In . SVG Version: 6.00 Build 0)  -->
<svg version="1.1" id="Layer_1" xmlns="http://www.w3.org/2000/svg" xmlns:xlink="http://www.w3.org/1999/xlink" x="0px" y="0px"
	 viewBox="0 0 1080 983" style="enable-background:new 0 0 1080 983;" xml:space="preserve">
<style type="text/css">
	.st0{fill:#CCB071;}
	.st1{fill:#D3B579;}
	.st2{fill:#FFFEFD;}
	.st3{opacity:0.26;}
	.st4{fill:#E5D3C3;}
	.st5{fill:#EAEAEA;}
	.st6{fill:#EFEFEF;}
	.st7{fill:#DD2F2F;}
	.st8{fill:#D8D8D8;}
	.st9{fill:#7F7F7F;}
	.st10{fill:#E5E5E5;}
	.st11{fill:#FFE473;}
	.st12{fill:#B7B7B7;}
	.st13{fill:#7A7A7A;}
	.st14{fill:#091B47;}
	.st15{fill:#203675;}
	.st16{fill:#406991;}
	.st17{fill:#FFFFFF;}
	.st18{fill:#BCBCBC;}
	.st19{fill:#43484C;}
	.st20{opacity:0.12;}
	.st21{fill:#BECDEA;}
	.st22{fill:#D6DCE5;}
	.st23{fill:#9AA3AD;}
	.st24{fill:#D9DEE2;}
	.st25{fill:#6E83A0;}
	.st26{opacity:0.31;fill:#FFFFFF;}
	.st27{fill:#A0D33C;}
	.st28{fill:#EDF2F9;}
</style>
<g>
	<path class="st0" d="M825.17,173.07v698.72c0,35.15-28.49,63.64-63.64,63.64H268.81c-35.15,0-63.64-28.49-63.64-63.64V173.07
		c0-35.15,28.49-63.64,63.64-63.64h492.72C796.68,109.43,825.17,137.92,825.17,173.07z"/>
	<rect x="205.17" y="319.43" class="st1" width="620" height="428"/>
	<path class="st2" d="M734.06,892.43H293.99c-23.16,0-41.93-18.77-41.93-41.93V193.35c0-23.16,18.77-41.93,41.93-41.93h440.07
		c23.16,0,41.93,18.77,41.93,41.93V850.5C775.99,873.66,757.21,892.43,734.06,892.43z"/>
	<g class="st3">
		<g>
			<rect x="288.17" y="319.93" class="st4" width="446" height="3"/>
		</g>
		<g>
			<rect x="288.17" y="377.43" class="st4" width="446" height="3"/>
		</g>
		<g>
			<rect x="288.17" y="435.43" class="st4" width="446" height="3"/>
		</g>
		<g>
			<rect x="288.17" y="493.43" class="st4" width="446" height="3"/>
		</g>
		<g>
			<rect x="288.17" y="551.43" class="st4" width="446" height="3"/>
		</g>
		<g>
			<rect x="288.17" y="609.43" class="st4" width="446" height="3"/>
		</g>
		<g>
			<rect x="288.17" y="667.43" class="st4" width="446" height="3"/>
		</g>
		<g>
			<rect x="288.17" y="725.43" class="st4" width="446" height="3"/>
		</g>
		<g>
			<rect x="288.17" y="783.43" class="st4" width="446" height="3"/>
		</g>
	</g>
	<g>
		<path class="st5" d="M620.4,130.04H401.88c7.91-13.69,21.26-23.85,37.09-27.53c0.49-11.22,9.74-20.16,21.08-20.16h17.75V71.11
			c0-15.4,12.48-27.87,27.88-27.87h10.93c15.4,0,27.87,12.48,27.87,27.87v11.24h17.76c11.34,0,20.58,8.94,21.08,20.16
			C599.14,106.19,612.49,116.35,620.4,130.04z"/>
		<path class="st5" d="M628.17,159.06v16.56H394.11v-16.56c0-1.37,0.04-2.71,0.14-4.06h233.78
			C628.12,156.34,628.17,157.69,628.17,159.06z"/>
		<path class="st6" d="M628.03,155H394.25c0.62-9.05,3.32-17.52,7.63-24.96H620.4C624.71,137.47,627.41,145.95,628.03,155z"/>
	</g>
</g>
<g>
	<g>
		<path class="st7" d="M473.78,355.07c-1.53-15.12-11.22-38.8-31.88-44.14c-18.68-4.83-41.46,6.61-54.44,29.4
			c-12.98-22.79-35.76-34.23-54.44-29.4c-20.65,5.34-30.35,29.01-31.88,44.14c-3.46,34.31,30.3,72.6,85.58,93.83v0.57
			c0.25-0.09,0.49-0.19,0.73-0.29c0.25,0.09,0.49,0.19,0.73,0.29v-0.57C443.48,427.67,477.25,389.38,473.78,355.07z"/>
	</g>
	<g>
		<path class="st8" d="M455.74,377.52c0,3.44-0.51,6.77-1.46,9.9c-4.24,14.02-17.26,24.22-32.66,24.22
			c-18.85,0-34.13-15.28-34.13-34.12c0-9.7,4.04-18.46,10.55-24.67l13.11,15.74c2.52-2.96,6.27-4.84,10.47-4.84
			c4.22,0,8,1.9,10.52,4.9l13.28-15.57c1.69,1.64,3.21,3.46,4.53,5.43c2.55,3.78,4.35,8.11,5.21,12.77
			c0.18,0.97,0.32,1.96,0.41,2.96C455.69,375.32,455.74,376.42,455.74,377.52z"/>
	</g>
	<g>
		<path class="st9" d="M443.33,492.43c-1.98,0-3.96-0.76-5.46-2.28c-11.1-11.24-19.58-24.96-24.51-39.66
			c-9.73-29.02-3.74-54.86,0.69-67.68c1.39-4.01,5.76-6.13,9.76-4.74c4.01,1.39,6.13,5.76,4.74,9.76
			c-3.8,10.97-8.93,33.07-0.64,57.78c4.19,12.49,11.41,24.17,20.88,33.75c2.98,3.02,2.95,7.88-0.07,10.85
			C447.22,491.69,445.27,492.43,443.33,492.43z"/>
	</g>
	<g>
		<path class="st10" d="M445.42,353.08l-13.28,15.57c-2.52-3-6.3-4.9-10.52-4.9c-4.2,0-7.96,1.88-10.47,4.84l-13.11-15.74
			c6.12-5.85,14.43-9.46,23.58-9.46C430.88,343.39,439.28,347.09,445.42,353.08z"/>
	</g>
	<g>
		<path class="st11" d="M365.24,372.3c-2.41,0-4.53-1.75-4.93-4.2c-0.41-2.5-1.93-15.47,8.04-25.66c8.83-9.04,20.04-9.04,23.26-8.84
			c2.76,0.18,4.85,2.56,4.67,5.32c-0.18,2.76-2.56,4.85-5.32,4.67c-1.53-0.1-9.45-0.29-15.45,5.85c-6.74,6.89-5.48,16.03-5.31,17.05
			c0.44,2.73-1.41,5.3-4.14,5.75C365.78,372.28,365.5,372.3,365.24,372.3z"/>
	</g>
	<g>
		<path class="st11" d="M334.05,368.96c-2.41,0-4.53-1.75-4.93-4.2c-0.64-3.94-3.05-24.43,12.68-40.51
			c13.94-14.25,31.63-14.27,36.72-13.94c2.76,0.18,4.85,2.56,4.67,5.32c-0.18,2.76-2.56,4.84-5.32,4.67
			c-2.86-0.19-17.67-0.54-28.9,10.95c-12.62,12.91-10.26,29.99-9.95,31.9c0.44,2.73-1.41,5.3-4.13,5.75
			C334.59,368.94,334.32,368.96,334.05,368.96z"/>
	</g>
	<g>
		<path class="st10" d="M455.74,377.52c0,3.44-0.51,6.77-1.46,9.9l-21.97-7.36l23.27-5.83
			C455.69,375.32,455.74,376.42,455.74,377.52z"/>
	</g>
	<g>
		<g>
			<path class="st12" d="M421.62,392.79c-8.42,0-15.27-6.85-15.27-15.27c0-3.64,1.3-7.16,3.67-9.91c2.89-3.41,7.12-5.36,11.61-5.36
				c4.51,0,8.77,1.98,11.67,5.43c2.32,2.75,3.6,6.24,3.6,9.84C436.88,385.94,430.04,392.79,421.62,392.79z"/>
			<path class="st13" d="M421.62,363.75c4.22,0,8,1.9,10.52,4.9c2.02,2.4,3.24,5.49,3.24,8.88c0,7.6-6.17,13.77-13.77,13.77
				c-7.61,0-13.77-6.17-13.77-13.77c0-3.41,1.24-6.53,3.3-8.94C413.66,365.62,417.42,363.75,421.62,363.75 M421.62,360.75
				c-4.93,0-9.58,2.15-12.76,5.9c-2.59,3.01-4.02,6.88-4.02,10.88c0,9.25,7.53,16.77,16.77,16.77c9.25,0,16.77-7.52,16.77-16.77
				c0-3.95-1.4-7.79-3.95-10.81C431.24,362.92,426.57,360.75,421.62,360.75L421.62,360.75z"/>
		</g>
	</g>
</g>
<g>
	<g>
		<g>
			<path class="st14" d="M620.69,505.43c-7.95,0-15.84-2.14-21.85-6.55c-12.19-8.94-13.16-23.78-14.39-69.32
				c-0.59-21.88-1.03-44.09-1.29-66.02l10.34-0.13c0.27,21.87,0.7,44.03,1.29,65.86c1.18,43.78,2.34,55.52,10.17,61.26
				c9.38,6.88,26.57,5.83,34.7-2.11c5.9-5.76,6-17.31,6.2-40.31c0.08-9.32-0.35-18.7-1.27-27.88l10.29-1.03
				c0.96,9.55,1.4,19.31,1.32,29.01c-0.22,25.86-0.34,38.84-9.32,47.61C640.41,502.15,630.51,505.43,620.69,505.43z"/>
		</g>
	</g>
	<g>
		<path class="st15" d="M667.47,455.66h-26.41c-14.13,0-25.58-11.45-25.58-25.58v-78.89c0-14.13,11.45-25.58,25.58-25.58h26.41
			c14.13,0,25.58,11.45,25.58,25.58v78.89C693.05,444.2,681.6,455.66,667.47,455.66z"/>
	</g>
	<g>
		<path class="st16" d="M608.83,329.61c-0.35-16.31-10.17-29.33-21.95-29.08c-11.78,0.25-21.05,13.67-20.7,29.98
			c0.23,10.74,4.57,20.06,10.88,25.09c1.84,1.47,2.87,3.74,2.92,6.1l0.13,6.26c0.1,4.53,3.85,8.13,8.38,8.03l0,0
			c4.53-0.1,8.13-3.85,8.03-8.38l-0.13-6.26c-0.05-2.36,0.88-4.67,2.66-6.22C605.11,349.84,609.06,340.35,608.83,329.61z"/>
	</g>
	<g>
		<g>
			<circle class="st17" cx="682.06" cy="424.89" r="30.38"/>
			<path class="st18" d="M682.06,457.86c-18.18,0-32.97-14.79-32.97-32.97c0-18.18,14.79-32.97,32.97-32.97
				c18.18,0,32.97,14.79,32.97,32.97C715.03,443.07,700.24,457.86,682.06,457.86z M682.06,397.09c-15.33,0-27.8,12.47-27.8,27.8
				c0,15.33,12.47,27.8,27.8,27.8c15.33,0,27.8-12.47,27.8-27.8C709.86,409.56,697.39,397.09,682.06,397.09z"/>
		</g>
		<g>
			<polygon class="st19" points="696.93,426.18 679.47,426.18 679.47,415.19 683.35,415.19 683.35,422.31 696.93,422.31 			"/>
		</g>
	</g>
	<g class="st20">
		<path class="st21" d="M572.81,337.62c-0.64-1.95-3.36-10.98,1.29-20.69c3.95-8.24,10.79-11.89,12.93-12.93
			c-1.86,5.35-4,10.97-6.46,16.81C578.03,326.82,575.42,332.42,572.81,337.62z"/>
	</g>
</g>
<g>
	<g>
		<path class="st22" d="M561.21,555.64C561.21,555.64,561.21,555.64,561.21,555.64l5.06,11.04l54.32,58.06
			c2.18,2.33,5.17,3.06,6.69,1.65c1.52-1.42,0.98-4.45-1.2-6.78l-54.66-58.43L561.21,555.64z"/>
		<g>
			
				<rect x="695.31" y="687.64" transform="matrix(0.7303 -0.6832 0.6832 0.7303 -292.7109 669.2036)" class="st23" width="11.54" height="35.26"/>
		</g>
		<g>
			<path class="st23" d="M732.99,707.47l-31.84,29.78c-2.33,2.18-5.98,2.06-8.16-0.27c-2.18-2.33-2.06-5.98,0.27-8.16l31.84-29.78
				c2.33-2.18,5.98-2.06,8.16,0.27C735.44,701.64,735.32,705.29,732.99,707.47z"/>
		</g>
		<g>
			<path class="st23" d="M612.3,608.8l-1.56,1.46c-5.26,4.92-13.5,4.64-18.42-0.61l-6.72-7.18c-4.92-5.26-4.64-13.5,0.61-18.42
				l1.56-1.46c5.26-4.92,13.5-4.64,18.42,0.61l6.72,7.18C617.83,595.63,617.55,603.88,612.3,608.8z"/>
		</g>
		<g>
			<g>
				<path class="st24" d="M626.23,590.92l74.91,80.08c7.38,7.88,8.77,18.56,3.11,23.85l-13.79,12.9
					c-5.66,5.29-16.22,3.19-23.59-4.69l-74.91-80.08c-7.38-7.88-8.77-18.56-3.11-23.85l13.79-12.9
					C608.3,580.93,618.86,583.03,626.23,590.92z"/>
			</g>
			<path class="st7" d="M625.82,593.04L679.11,650c-1.33,0.13-2.66,0.16-3.98,0.09c-13.09-0.75-19.36-11.65-32.85-12.15
				c-11.25-0.42-10.88,7.02-21.32,7c-2.09,0-4.32-0.3-6.62-0.87l-20.1-21.49c-6.8-7.27-8.08-17.1-2.87-21.98l12.71-11.89
				C609.3,583.84,619.03,585.77,625.82,593.04z"/>
			<g>
				<path class="st25" d="M638.5,604.03l3.94,4.21l-14.04,13.14c-0.84,0.78-2.39,0.47-3.48-0.69c-1.09-1.17-1.3-2.74-0.46-3.52
					L638.5,604.03z"/>
			</g>
			<g>
				<path class="st25" d="M658.21,625.1l3.94,4.21l-14.04,13.14c-0.84,0.78-2.39,0.47-3.48-0.69c-1.09-1.17-1.3-2.74-0.46-3.52
					L658.21,625.1z"/>
			</g>
			<g>
				<path class="st25" d="M677.92,646.17l3.94,4.21l-14.04,13.14c-0.84,0.78-2.39,0.47-3.48-0.69c-1.09-1.17-1.3-2.74-0.46-3.52
					L677.92,646.17z"/>
			</g>
			<path class="st26" d="M689.43,702.57l-0.68,0.63c-4.54,4.25-11.66,4.01-15.91-0.53l-80.98-86.56
				c-4.25-4.54-4.01-11.66,0.53-15.91l0.68-0.63L689.43,702.57z"/>
		</g>
	</g>
	<path class="st7" d="M556.85,553.07c-2.46-0.89-6.27-2.12-11.06-3.04c-5.11-0.98-6.37-0.66-8.72-1.8
		c-5.71-2.77-9.92-10.28-7.97-13.19c1.83-2.74,9.5-2,14.15,1.51c2.5,1.88,2.81,3.56,6.35,8.29
		C552.37,548.54,555.02,551.3,556.85,553.07z"/>
</g>
<g>
	<path class="st0" d="M2013.17,515.07v698.72c0,35.15-28.49,63.64-63.64,63.64h-492.72c-35.15,0-63.64-28.49-63.64-63.64V515.07
		c0-35.15,28.49-63.64,63.64-63.64h492.72C1984.68,451.43,2013.17,479.92,2013.17,515.07z"/>
	<rect x="1393.17" y="661.43" class="st1" width="620" height="428"/>
	<path class="st2" d="M1922.06,1234.43h-440.07c-23.16,0-41.93-18.77-41.93-41.93V535.35c0-23.16,18.77-41.93,41.93-41.93h440.07
		c23.16,0,41.93,18.77,41.93,41.93v657.15C1963.99,1215.66,1945.21,1234.43,1922.06,1234.43z"/>
	<g class="st3">
		<g>
			<rect x="1476.17" y="661.93" class="st4" width="446" height="3"/>
		</g>
		<g>
			<rect x="1476.17" y="719.43" class="st4" width="446" height="3"/>
		</g>
		<g>
			<rect x="1476.17" y="777.43" class="st4" width="446" height="3"/>
		</g>
		<g>
			<rect x="1476.17" y="835.43" class="st4" width="446" height="3"/>
		</g>
		<g>
			<rect x="1476.17" y="893.43" class="st4" width="446" height="3"/>
		</g>
		<g>
			<rect x="1476.17" y="951.43" class="st4" width="446" height="3"/>
		</g>
		<g>
			<rect x="1476.17" y="1009.43" class="st4" width="446" height="3"/>
		</g>
		<g>
			<rect x="1476.17" y="1067.43" class="st4" width="446" height="3"/>
		</g>
		<g>
			<rect x="1476.17" y="1125.43" class="st4" width="446" height="3"/>
		</g>
	</g>
	<g>
		<path class="st5" d="M1808.4,472.04h-218.52c7.91-13.69,21.26-23.85,37.09-27.53c0.49-11.22,9.74-20.16,21.08-20.16h17.75v-11.24
			c0-15.4,12.48-27.87,27.89-27.87h10.93c15.4,0,27.87,12.48,27.87,27.87v11.24h17.76c11.34,0,20.58,8.94,21.08,20.16
			C1787.14,448.19,1800.49,458.35,1808.4,472.04z"/>
		<path class="st5" d="M1816.17,501.06v16.56h-234.06v-16.56c0-1.37,0.04-2.71,0.14-4.06h233.78
			C1816.12,498.34,1816.17,499.69,1816.17,501.06z"/>
		<path class="st6" d="M1816.03,497h-233.78c0.62-9.05,3.32-17.52,7.63-24.96h218.52C1812.71,479.47,1815.41,487.95,1816.03,497z"/>
	</g>
</g>
<g>
	<g>
		<path class="st7" d="M1671.78,720.07c-1.53-15.12-11.22-38.8-31.88-44.14c-18.68-4.83-41.46,6.61-54.44,29.4
			c-12.98-22.79-35.76-34.23-54.44-29.4c-20.65,5.34-30.35,29.01-31.88,44.14c-3.46,34.31,30.3,72.6,85.58,93.83v0.57
			c0.25-0.09,0.49-0.19,0.73-0.29c0.25,0.09,0.49,0.19,0.73,0.29v-0.57C1641.48,792.67,1675.25,754.38,1671.78,720.07z"/>
	</g>
	<g>
		<path class="st8" d="M1653.74,742.52c0,3.44-0.51,6.77-1.46,9.9c-4.24,14.02-17.26,24.22-32.66,24.22
			c-18.85,0-34.13-15.28-34.13-34.12c0-9.7,4.04-18.46,10.55-24.67l13.11,15.74c2.52-2.96,6.27-4.84,10.47-4.84
			c4.22,0,8,1.9,10.52,4.9l13.28-15.57c1.69,1.64,3.21,3.46,4.53,5.43c2.55,3.78,4.35,8.11,5.21,12.77
			c0.18,0.97,0.32,1.96,0.41,2.96C1653.69,740.32,1653.74,741.42,1653.74,742.52z"/>
	</g>
	<g>
		<path class="st9" d="M1641.33,857.43c-1.98,0-3.96-0.76-5.46-2.28c-11.1-11.24-19.58-24.96-24.51-39.66
			c-9.73-29.02-3.74-54.86,0.69-67.68c1.39-4.01,5.76-6.13,9.76-4.74c4.01,1.39,6.13,5.76,4.74,9.76
			c-3.8,10.97-8.93,33.07-0.64,57.78c4.19,12.49,11.41,24.17,20.88,33.75c2.98,3.02,2.95,7.88-0.07,10.85
			C1645.22,856.69,1643.27,857.43,1641.33,857.43z"/>
	</g>
	<g>
		<path class="st10" d="M1643.42,718.08l-13.28,15.57c-2.52-3-6.3-4.9-10.52-4.9c-4.2,0-7.96,1.88-10.47,4.84l-13.11-15.74
			c6.12-5.85,14.43-9.46,23.58-9.46C1628.88,708.39,1637.28,712.09,1643.42,718.08z"/>
	</g>
	<g>
		<path class="st11" d="M1563.24,737.3c-2.41,0-4.53-1.75-4.93-4.2c-0.41-2.5-1.93-15.47,8.04-25.66
			c8.84-9.04,20.04-9.04,23.26-8.84c2.76,0.18,4.85,2.56,4.67,5.32c-0.18,2.76-2.56,4.85-5.32,4.67c-1.53-0.1-9.45-0.29-15.45,5.85
			c-6.74,6.89-5.48,16.03-5.31,17.05c0.44,2.73-1.41,5.3-4.14,5.75C1563.78,737.28,1563.5,737.3,1563.24,737.3z"/>
	</g>
	<g>
		<path class="st11" d="M1532.05,733.96c-2.41,0-4.53-1.75-4.93-4.2c-0.64-3.94-3.05-24.43,12.68-40.51
			c13.94-14.25,31.63-14.27,36.72-13.94c2.76,0.18,4.85,2.56,4.67,5.32c-0.18,2.76-2.56,4.84-5.32,4.67
			c-2.86-0.19-17.67-0.54-28.9,10.95c-12.62,12.91-10.26,29.99-9.95,31.9c0.44,2.73-1.41,5.3-4.14,5.75
			C1532.59,733.94,1532.32,733.96,1532.05,733.96z"/>
	</g>
	<g>
		<path class="st10" d="M1653.74,742.52c0,3.44-0.51,6.77-1.46,9.9l-21.97-7.36l23.27-5.83
			C1653.69,740.32,1653.74,741.42,1653.74,742.52z"/>
	</g>
	<g>
		<g>
			<path class="st12" d="M1619.62,757.79c-8.42,0-15.27-6.85-15.27-15.27c0-3.64,1.3-7.16,3.67-9.91c2.89-3.41,7.12-5.36,11.61-5.36
				c4.51,0,8.77,1.98,11.67,5.43c2.32,2.75,3.6,6.24,3.6,9.84C1634.88,750.94,1628.04,757.79,1619.62,757.79z"/>
			<path class="st13" d="M1619.62,728.75c4.22,0,8,1.9,10.52,4.9c2.02,2.4,3.24,5.49,3.24,8.88c0,7.6-6.17,13.77-13.77,13.77
				c-7.61,0-13.77-6.17-13.77-13.77c0-3.41,1.24-6.53,3.3-8.94C1611.66,730.62,1615.42,728.75,1619.62,728.75 M1619.62,725.75
				c-4.93,0-9.58,2.15-12.76,5.9c-2.59,3.01-4.02,6.88-4.02,10.88c0,9.25,7.53,16.77,16.77,16.77c9.25,0,16.77-7.52,16.77-16.77
				c0-3.95-1.4-7.79-3.95-10.81C1629.24,727.92,1624.57,725.75,1619.62,725.75L1619.62,725.75z"/>
		</g>
	</g>
</g>
<g>
	<g>
		<g>
			<path class="st14" d="M1818.69,870.43c-7.95,0-15.84-2.14-21.85-6.55c-12.19-8.94-13.16-23.78-14.39-69.32
				c-0.59-21.88-1.03-44.09-1.29-66.02l10.34-0.13c0.27,21.87,0.7,44.03,1.29,65.86c1.18,43.78,2.34,55.52,10.17,61.26
				c9.38,6.88,26.57,5.83,34.7-2.11c5.9-5.76,6-17.31,6.2-40.31c0.08-9.32-0.35-18.7-1.27-27.88l10.29-1.03
				c0.96,9.55,1.4,19.31,1.32,29.01c-0.22,25.86-0.34,38.84-9.31,47.61C1838.41,867.15,1828.51,870.43,1818.69,870.43z"/>
		</g>
	</g>
	<g>
		<path class="st15" d="M1865.47,820.66h-26.41c-14.13,0-25.58-11.45-25.58-25.58v-78.89c0-14.13,11.45-25.58,25.58-25.58h26.41
			c14.13,0,25.58,11.45,25.58,25.58v78.89C1891.05,809.2,1879.6,820.66,1865.47,820.66z"/>
	</g>
	<g>
		<path class="st16" d="M1806.83,694.61c-0.35-16.31-10.17-29.33-21.95-29.08c-11.78,0.25-21.05,13.67-20.7,29.98
			c0.23,10.74,4.57,20.06,10.88,25.09c1.84,1.47,2.87,3.74,2.92,6.1l0.13,6.26c0.1,4.53,3.85,8.13,8.38,8.03h0
			c4.53-0.1,8.13-3.85,8.03-8.38l-0.13-6.26c-0.05-2.36,0.88-4.67,2.66-6.22C1803.11,714.84,1807.06,705.35,1806.83,694.61z"/>
	</g>
	<g>
		<g>
			<circle class="st17" cx="1880.06" cy="789.89" r="30.38"/>
			<path class="st18" d="M1880.06,822.86c-18.18,0-32.97-14.79-32.97-32.97c0-18.18,14.79-32.97,32.97-32.97
				s32.97,14.79,32.97,32.97C1913.03,808.07,1898.24,822.86,1880.06,822.86z M1880.06,762.09c-15.33,0-27.8,12.47-27.8,27.8
				c0,15.33,12.47,27.8,27.8,27.8c15.33,0,27.8-12.47,27.8-27.8C1907.86,774.56,1895.39,762.09,1880.06,762.09z"/>
		</g>
		<g>
			<polygon class="st19" points="1894.93,791.18 1877.47,791.18 1877.47,780.19 1881.35,780.19 1881.35,787.31 1894.93,787.31 			
				"/>
		</g>
	</g>
	<g class="st20">
		<path class="st21" d="M1770.81,702.62c-0.64-1.95-3.36-10.98,1.29-20.69c3.95-8.24,10.79-11.89,12.93-12.93
			c-1.86,5.35-4,10.97-6.46,16.81C1776.03,691.82,1773.42,697.42,1770.81,702.62z"/>
	</g>
</g>
<g>
	<g>
		<path class="st22" d="M1759.21,920.64C1759.21,920.64,1759.21,920.64,1759.21,920.64l5.06,11.04l54.32,58.06
			c2.18,2.33,5.17,3.06,6.69,1.65c1.52-1.42,0.98-4.45-1.2-6.78l-54.66-58.43L1759.21,920.64z"/>
		<g>
			
				<rect x="1893.31" y="1052.64" transform="matrix(0.7303 -0.6832 0.6832 0.7303 -218.9166 1586.1008)" class="st23" width="11.54" height="35.26"/>
		</g>
		<g>
			<path class="st23" d="M1930.99,1072.47l-31.84,29.78c-2.33,2.18-5.98,2.06-8.16-0.27s-2.06-5.98,0.27-8.16l31.84-29.78
				c2.33-2.18,5.98-2.06,8.16,0.27C1933.44,1066.64,1933.32,1070.29,1930.99,1072.47z"/>
		</g>
		<g>
			<path class="st23" d="M1810.3,973.8l-1.56,1.46c-5.26,4.92-13.5,4.64-18.42-0.61l-6.72-7.18c-4.92-5.26-4.64-13.5,0.61-18.42
				l1.56-1.46c5.26-4.92,13.5-4.64,18.42,0.61l6.72,7.18C1815.83,960.63,1815.55,968.88,1810.3,973.8z"/>
		</g>
		<g>
			<g>
				<path class="st24" d="M1824.23,955.92l74.91,80.08c7.38,7.88,8.77,18.56,3.11,23.85l-13.79,12.9
					c-5.66,5.29-16.22,3.19-23.59-4.69l-74.91-80.08c-7.38-7.88-8.77-18.56-3.11-23.85l13.79-12.9
					C1806.3,945.93,1816.86,948.03,1824.23,955.92z"/>
			</g>
			<path class="st7" d="M1823.82,958.04l53.29,56.96c-1.33,0.13-2.66,0.16-3.98,0.09c-13.09-0.75-19.36-11.65-32.85-12.15
				c-11.25-0.42-10.88,7.02-21.32,7c-2.09,0-4.32-0.3-6.62-0.87l-20.1-21.49c-6.8-7.27-8.08-17.1-2.87-21.98l12.71-11.89
				C1807.3,948.84,1817.03,950.77,1823.82,958.04z"/>
			<g>
				<path class="st25" d="M1836.5,969.03l3.94,4.21l-14.04,13.14c-0.84,0.78-2.39,0.47-3.48-0.69c-1.09-1.17-1.3-2.74-0.46-3.52
					L1836.5,969.03z"/>
			</g>
			<g>
				<path class="st25" d="M1856.21,990.1l3.94,4.21l-14.04,13.14c-0.84,0.78-2.39,0.47-3.48-0.69c-1.09-1.17-1.3-2.74-0.46-3.52
					L1856.21,990.1z"/>
			</g>
			<g>
				<path class="st25" d="M1875.92,1011.17l3.94,4.21l-14.04,13.14c-0.84,0.78-2.39,0.47-3.48-0.69c-1.09-1.17-1.3-2.74-0.46-3.52
					L1875.92,1011.17z"/>
			</g>
			<path class="st26" d="M1887.43,1067.57l-0.68,0.63c-4.54,4.25-11.66,4.01-15.91-0.53l-80.98-86.56
				c-4.25-4.54-4.01-11.66,0.53-15.91l0.68-0.63L1887.43,1067.57z"/>
		</g>
	</g>
	<path class="st7" d="M1754.85,918.07c-2.46-0.89-6.27-2.12-11.06-3.04c-5.11-0.98-6.37-0.66-8.72-1.8
		c-5.71-2.77-9.92-10.28-7.97-13.19c1.83-2.74,9.5-2,14.15,1.51c2.5,1.88,2.81,3.56,6.35,8.29
		C1750.37,913.54,1753.02,916.3,1754.85,918.07z"/>
</g>
<g>
	<path class="st27" d="M1592.92,817.93l-11.22-13.21l3.12-17.05l-16.33-5.81l-5.81-16.33l-17.05,3.12l-13.21-11.22l-13.21,11.22
		l-17.05-3.12l-5.81,16.33l-16.33,5.81l3.12,17.05l-11.22,13.21l11.22,13.21l-3.12,17.05l16.33,5.81l5.81,16.33l17.05-3.12
		l13.21,11.22l13.21-11.22l17.05,3.12l5.81-16.33l16.33-5.81l-3.12-17.05L1592.92,817.93z M1524.77,852.14l-28.6-36.71l12.74-9.93
		l16.51,21.2l30.75-35.54l12.22,10.57L1524.77,852.14z"/>
	<polygon class="st17" points="1525.43,826.69 1508.92,805.5 1496.18,815.42 1524.77,852.14 1568.39,801.72 1556.18,791.15 	"/>
</g>
<g>
	<path class="st27" d="M1857.42,817.93l-11.22-13.21l3.12-17.05l-16.33-5.81l-5.81-16.33l-17.05,3.12l-13.21-11.22l-13.21,11.22
		l-17.05-3.12l-5.81,16.33l-16.33,5.81l3.12,17.05l-11.22,13.21l11.22,13.21l-3.12,17.05l16.33,5.81l5.81,16.33l17.05-3.12
		l13.21,11.22l13.21-11.22l17.05,3.12l5.81-16.33l16.33-5.81l-3.12-17.05L1857.42,817.93z M1789.27,852.14l-28.6-36.71l12.74-9.93
		l16.51,21.2l30.75-35.54l12.22,10.57L1789.27,852.14z"/>
	<polygon class="st17" points="1789.93,826.69 1773.42,805.5 1760.68,815.42 1789.27,852.14 1832.89,801.72 1820.68,791.15 	"/>
</g>
<g>
	<path class="st27" d="M1857.42,1057.93l-11.22-13.21l3.12-17.05l-16.33-5.81l-5.81-16.33l-17.05,3.12l-13.21-11.22l-13.21,11.22
		l-17.05-3.12l-5.81,16.33l-16.33,5.81l3.12,17.05l-11.22,13.21l11.22,13.21l-3.12,17.05l16.33,5.81l5.81,16.33l17.05-3.12
		l13.21,11.22l13.21-11.22l17.05,3.12l5.81-16.33l16.33-5.81l-3.12-17.05L1857.42,1057.93z M1789.27,1092.14l-28.6-36.71l12.74-9.93
		l16.51,21.2l30.75-35.54l12.22,10.57L1789.27,1092.14z"/>
	<polygon class="st17" points="1789.93,1066.69 1773.42,1045.5 1760.68,1055.42 1789.27,1092.14 1832.89,1041.72 1820.68,1031.15 	
		"/>
</g>
<g>
	<path class="st14" d="M464.3,632.97c-9.19,17.68-19.16,46.76-22.57,96.76h-75.8c1.33-23.07-4.97-35.96-11.29-43.55
		c-14.36-17.24-38.27-18.46-40.31-33.86c-0.09-0.72-0.93-7.87,3.22-11.29c9.58-7.88,33.57,14.08,40.31,8.07
		c4.19-3.73-2.09-14.77-11.29-49.99c-4.57-17.54-6.21-27.05-1.61-30.64c3.01-2.36,8.03-1.63,11.29,0
		c7.17,3.59,5.47,12.52,12.9,29.03c2.63,5.83,6.77,15.04,9.68,14.51c1.62-0.29,3.33-3.69,4.84-38.7
		c0.94-21.84,0.68-30.79,6.44-33.86c3.97-2.12,9.44-0.88,12.91,1.61c6.49,4.68,6.1,14.16,6.44,27.42
		c0.63,24.38,3.27,45.09,4.84,45.15c1.38,0.06,2.73-15.67,9.68-38.7c3.6-11.93,6.68-19.13,12.9-20.96c2.94-0.86,6.97-0.65,9.68,1.61
		c4.69,3.93,2.85,12.2,0,29.03c-5.6,33.07-4.82,38.14-3.22,38.7c1.58,0.56,5.73-2.62,7.89-6.17c0.07-0.09,0.11-0.16,0.18-0.27
		c6.08-10.28,7.42-16.32,12.9-17.74c2.49-0.65,6.07-0.4,8.07,1.61C478.46,606.87,467.37,627.05,464.3,632.97z"/>
	<path class="st28" d="M422.12,729.72h-40.4c-8.31-27.66-7.04-36.03-3.69-37.89c3.8-2.13,8.66,5.03,20.96,6.44
		c15.75,1.81,24.37-8.04,29.03-4.83C431.27,695.68,432.07,703.93,422.12,729.72z"/>
	<path class="st28" d="M374.8,664.41c-3.5,3.98-0.51,13.74,4.84,19.35c7.08,7.44,17.62,6.88,25.8,6.45
		c9.5-0.5,19.21-1.01,22.58-8.06c3.42-7.18-1.23-18.01-8.06-20.96c-5.32-2.3-8.12,1.84-19.35,3.23
		C385.5,666.28,378.42,660.29,374.8,664.41z"/>
	<path class="st28" d="M365.13,672.48c3.31-3.17,2.36-11.56-1.61-14.51c-3.09-2.29-5.82,0.31-12.9-1.61
		c-5.77-1.56-7.92-4.36-9.68-3.23c-1.95,1.26-1.56,6.19,0,9.68C345.13,672.15,360.34,677.07,365.13,672.48z"/>
	<path class="st28" d="M323.2,646.67c2.33-1.16,9.25,4.1,8.06,8.06c-0.7,2.34-4.16,4.07-6.45,3.23
		C320.93,656.53,320.87,647.84,323.2,646.67z"/>
	<path class="st28" d="M360.02,622.16c1.57-2.03,6.56-1.67,9.8,0.5c4.23,2.84,2.88,7.07,6.64,15.47c4.26,9.53,9.74,12.51,8.24,15.29
		c-1.22,2.26-6.16,2.74-9.61,1.1c-3.95-1.87-4.03-5.59-8.24-15.29C361.92,627.91,358.29,624.39,360.02,622.16z"/>
	<path class="st28" d="M434.34,619.33c-1.78-1.85-6.7-0.96-9.69,1.54c-3.9,3.28-2.11,7.33-4.95,16.09
		c-3.22,9.93-8.35,13.47-6.56,16.08c1.45,2.12,6.41,2.06,9.68,0.07c3.73-2.28,3.41-5.99,6.56-16.08
		C433.06,625.25,436.29,621.37,434.34,619.33z"/>
	<path class="st28" d="M394.16,612.81c2.53-2.34,7.15-3.45,9.68-1.61c3.82,2.79-0.91,9.61,0,24.19c0.61,9.65,3.17,14.49,0,17.74
		c-1.96,2-5.61,2.91-8.06,1.61c-3.29-1.74-2.49-6.44-3.23-22.58C391.96,619.31,391.15,615.59,394.16,612.81z"/>
	<path class="st28" d="M448.82,637.93c2.46-0.2,5.54,1.16,5.9,3.06c0.55,2.8-5.36,3.97-10.82,10.69
		c-4.99,6.14-5.27,11.56-7.68,11.44c-1.78-0.09-3.47-3.14-3.59-5.82c-0.13-2.84,1.55-4.11,7.68-11.44
		C445.37,639.81,446.37,638.13,448.82,637.93z"/>
	<path class="st28" d="M351.11,592.58c1.03-1.68,4.43-2.16,6.39-0.87c1.74,1.14,1.3,2.98,2.69,7.77c1.79,6.15,3.95,8.04,2.91,9.37
		c-1.07,1.35-4.59,1-6.61-0.73c-1.42-1.21-1.3-2.42-2.47-6.17C352.03,595.57,350.14,594.16,351.11,592.58z"/>
	<path class="st28" d="M438.9,587.74c-1.03-1.68-4.43-2.16-6.39-0.87c-1.74,1.14-1.3,2.98-2.69,7.77c-1.79,6.15-3.95,8.04-2.91,9.37
		c1.07,1.35,4.59,1,6.61-0.73c1.42-1.21,1.3-2.42,2.47-6.17C437.99,590.74,439.87,589.32,438.9,587.74z"/>
	<path class="st28" d="M392.54,574.11c2.18-2.54,7.96-2.42,9.68,0c1.66,2.34-1.83,4.96-1.61,11.29c0.19,5.48,2.93,7.22,1.61,9.68
		c-1.81,3.37-9.2,4.23-11.29,1.61c-1.59-2,1.2-4.39,1.61-11.29C392.94,578.78,390.66,576.31,392.54,574.11z"/>
	<path class="st28" d="M460.27,616.04c2.22-1.59,5.84-1.3,6.45,0c0.7,1.49-3.14,3.01-4.84,8.06c-1.18,3.51-0.13,5.19-1.61,6.45
		c-2.26,1.91-7.57,0.45-8.06-1.61c-0.38-1.59,2.41-2.19,4.84-6.45C458.98,619.08,458.37,617.4,460.27,616.04z"/>
</g>
<g>
	<path class="st14" d="M1640.3,987.67c-9.19,17.68-19.16,46.76-22.57,96.76h-75.8c1.33-23.07-4.97-35.96-11.29-43.55
		c-14.35-17.24-38.27-18.46-40.31-33.86c-0.09-0.72-0.93-7.87,3.22-11.29c9.58-7.88,33.57,14.08,40.31,8.07
		c4.19-3.73-2.09-14.77-11.29-49.99c-4.57-17.54-6.21-27.05-1.61-30.64c3.01-2.36,8.03-1.63,11.29,0
		c7.17,3.59,5.47,12.52,12.9,29.03c2.63,5.83,6.77,15.04,9.68,14.51c1.62-0.29,3.33-3.69,4.84-38.7
		c0.94-21.84,0.68-30.79,6.44-33.86c3.97-2.12,9.44-0.88,12.91,1.61c6.49,4.68,6.1,14.16,6.44,27.42
		c0.63,24.38,3.27,45.09,4.84,45.15c1.38,0.06,2.73-15.67,9.68-38.7c3.6-11.93,6.68-19.13,12.9-20.96c2.94-0.86,6.97-0.65,9.68,1.61
		c4.69,3.93,2.85,12.2,0,29.03c-5.6,33.07-4.82,38.14-3.22,38.7c1.58,0.56,5.73-2.62,7.89-6.17c0.07-0.09,0.11-0.16,0.18-0.27
		c6.08-10.28,7.42-16.32,12.9-17.74c2.49-0.65,6.07-0.4,8.07,1.61C1654.46,961.57,1643.37,981.75,1640.3,987.67z"/>
	<path class="st28" d="M1598.12,1084.43h-40.4c-8.31-27.66-7.04-36.03-3.69-37.89c3.8-2.13,8.66,5.03,20.96,6.44
		c15.75,1.81,24.37-8.04,29.03-4.83C1607.27,1050.38,1608.07,1058.63,1598.12,1084.43z"/>
	<path class="st28" d="M1550.8,1019.12c-3.5,3.98-0.51,13.74,4.84,19.35c7.08,7.44,17.62,6.88,25.8,6.45
		c9.5-0.5,19.21-1.01,22.58-8.06c3.42-7.18-1.23-18.01-8.06-20.96c-5.32-2.3-8.12,1.84-19.35,3.23
		C1561.5,1020.98,1554.42,1015,1550.8,1019.12z"/>
	<path class="st28" d="M1541.13,1027.18c3.31-3.17,2.36-11.56-1.61-14.51c-3.09-2.29-5.82,0.31-12.9-1.61
		c-5.77-1.56-7.92-4.36-9.68-3.23c-1.95,1.26-1.56,6.19,0,9.68C1521.13,1026.85,1536.34,1031.77,1541.13,1027.18z"/>
	<path class="st28" d="M1499.2,1001.38c2.33-1.16,9.25,4.1,8.06,8.06c-0.7,2.34-4.16,4.07-6.45,3.23
		C1496.93,1011.23,1496.87,1002.54,1499.2,1001.38z"/>
	<path class="st28" d="M1536.02,976.87c1.57-2.03,6.56-1.67,9.8,0.5c4.23,2.84,2.88,7.07,6.64,15.47
		c4.26,9.53,9.74,12.51,8.24,15.29c-1.22,2.26-6.16,2.74-9.61,1.1c-3.95-1.87-4.03-5.59-8.24-15.29
		C1537.92,982.61,1534.29,979.09,1536.02,976.87z"/>
	<path class="st28" d="M1610.34,974.04c-1.78-1.85-6.7-0.96-9.69,1.54c-3.9,3.28-2.11,7.33-4.95,16.09
		c-3.22,9.93-8.35,13.47-6.56,16.08c1.45,2.12,6.41,2.06,9.68,0.07c3.73-2.28,3.41-5.99,6.56-16.08
		C1609.06,979.95,1612.29,976.07,1610.34,974.04z"/>
	<path class="st28" d="M1570.16,967.51c2.53-2.34,7.15-3.45,9.68-1.61c3.82,2.79-0.91,9.61,0,24.19c0.61,9.65,3.17,14.49,0,17.74
		c-1.96,2-5.61,2.91-8.06,1.61c-3.29-1.74-2.49-6.44-3.23-22.58C1567.96,974.02,1567.15,970.3,1570.16,967.51z"/>
	<path class="st28" d="M1624.82,992.63c2.46-0.2,5.54,1.16,5.9,3.06c0.55,2.8-5.36,3.97-10.82,10.69
		c-4.99,6.14-5.27,11.56-7.68,11.44c-1.78-0.09-3.47-3.14-3.59-5.82c-0.13-2.84,1.55-4.11,7.68-11.44
		C1621.37,994.51,1622.37,992.83,1624.82,992.63z"/>
	<path class="st28" d="M1527.11,947.28c1.03-1.68,4.43-2.16,6.39-0.87c1.74,1.14,1.3,2.98,2.69,7.77c1.79,6.15,3.95,8.04,2.91,9.37
		c-1.07,1.35-4.59,1-6.61-0.73c-1.42-1.21-1.3-2.42-2.47-6.17C1528.03,950.28,1526.14,948.86,1527.11,947.28z"/>
	<path class="st28" d="M1614.9,942.45c-1.03-1.68-4.43-2.16-6.39-0.87c-1.74,1.14-1.3,2.98-2.69,7.77
		c-1.79,6.15-3.95,8.04-2.91,9.37c1.07,1.35,4.59,1,6.61-0.73c1.42-1.21,1.3-2.42,2.47-6.17
		C1613.99,945.44,1615.87,944.03,1614.9,942.45z"/>
	<path class="st28" d="M1568.54,928.81c2.18-2.54,7.96-2.42,9.68,0c1.66,2.34-1.83,4.96-1.61,11.29c0.19,5.48,2.93,7.22,1.61,9.68
		c-1.81,3.37-9.2,4.23-11.29,1.61c-1.59-2,1.2-4.39,1.61-11.29C1568.94,933.48,1566.66,931.01,1568.54,928.81z"/>
	<path class="st28" d="M1636.27,970.74c2.22-1.59,5.84-1.3,6.45,0c0.7,1.49-3.14,3.01-4.84,8.06c-1.18,3.51-0.13,5.19-1.61,6.45
		c-2.26,1.91-7.57,0.45-8.06-1.61c-0.38-1.59,2.41-2.19,4.84-6.45C1634.98,973.78,1634.37,972.1,1636.27,970.74z"/>
</g>
<g>
	<path class="st27" d="M1592.92,1057.93l-11.22-13.21l3.12-17.05l-16.33-5.81l-5.81-16.33l-17.05,3.12l-13.21-11.22l-13.21,11.22
		l-17.05-3.12l-5.81,16.33l-16.33,5.81l3.12,17.05l-11.22,13.21l11.22,13.21l-3.12,17.05l16.33,5.81l5.81,16.33l17.05-3.12
		l13.21,11.22l13.21-11.22l17.05,3.12l5.81-16.33l16.33-5.81l-3.12-17.05L1592.92,1057.93z M1524.77,1092.14l-28.6-36.71l12.74-9.93
		l16.51,21.2l30.75-35.54l12.22,10.57L1524.77,1092.14z"/>
	<polygon class="st17" points="1525.43,1066.69 1508.92,1045.5 1496.18,1055.42 1524.77,1092.14 1568.39,1041.72 1556.18,1031.15 	
		"/>
</g>
</svg>
