<?xml version="1.0" encoding="utf-8"?>
<!-- Generator: Adobe Illustrator 24.0.2, SVG Export Plug-In . SVG Version: 6.00 Build 0)  -->
<svg version="1.1" id="Layer_1" xmlns="http://www.w3.org/2000/svg" xmlns:xlink="http://www.w3.org/1999/xlink" x="0px" y="0px"
	 viewBox="0 0 1080 983" style="enable-background:new 0 0 1080 983;" xml:space="preserve">
<style type="text/css">
	.st0{fill:#CCB071;}
	.st1{fill:#D3B579;}
	.st2{fill:#FFFEFD;}
	.st3{opacity:0.26;}
	.st4{fill:#E5D3C3;}
	.st5{fill:#EAEAEA;}
	.st6{fill:#EFEFEF;}
	.st7{fill:#DD2F2F;}
	.st8{fill:#D8D8D8;}
	.st9{fill:#7F7F7F;}
	.st10{fill:#E5E5E5;}
	.st11{fill:#FFE473;}
	.st12{fill:#B7B7B7;}
	.st13{fill:#7A7A7A;}
	.st14{fill:#091B47;}
	.st15{fill:#203675;}
	.st16{fill:#406991;}
	.st17{fill:#FFFFFF;}
	.st18{fill:#BCBCBC;}
	.st19{fill:#43484C;}
	.st20{opacity:0.12;}
	.st21{fill:#BECDEA;}
	.st22{fill:#D6DCE5;}
	.st23{fill:#9AA3AD;}
	.st24{fill:#D9DEE2;}
	.st25{fill:#6E83A0;}
	.st26{opacity:0.31;fill:#FFFFFF;}
	.st27{fill:#A0D33C;}
	.st28{fill:#EDF2F9;}
</style>
<g>
	<path class="st0" d="M-281.83,852.07v698.72c0,35.15-28.49,63.64-63.64,63.64h-492.72c-35.15,0-63.64-28.49-63.64-63.64V852.07
		c0-35.15,28.49-63.64,63.64-63.64h492.72C-310.32,788.43-281.83,816.92-281.83,852.07z"/>
	<rect x="-901.83" y="998.43" class="st1" width="620" height="428"/>
	<path class="st2" d="M-372.94,1571.43h-440.07c-23.16,0-41.93-18.77-41.93-41.93V872.35c0-23.16,18.77-41.93,41.93-41.93h440.07
		c23.16,0,41.93,18.77,41.93,41.93v657.15C-331.01,1552.66-349.79,1571.43-372.94,1571.43z"/>
	<g class="st3">
		<g>
			<rect x="-818.83" y="998.93" class="st4" width="446" height="3"/>
		</g>
		<g>
			<rect x="-818.83" y="1056.43" class="st4" width="446" height="3"/>
		</g>
		<g>
			<rect x="-818.83" y="1114.43" class="st4" width="446" height="3"/>
		</g>
		<g>
			<rect x="-818.83" y="1172.43" class="st4" width="446" height="3"/>
		</g>
		<g>
			<rect x="-818.83" y="1230.43" class="st4" width="446" height="3"/>
		</g>
		<g>
			<rect x="-818.83" y="1288.43" class="st4" width="446" height="3"/>
		</g>
		<g>
			<rect x="-818.83" y="1346.43" class="st4" width="446" height="3"/>
		</g>
		<g>
			<rect x="-818.83" y="1404.43" class="st4" width="446" height="3"/>
		</g>
		<g>
			<rect x="-818.83" y="1462.43" class="st4" width="446" height="3"/>
		</g>
	</g>
	<g>
		<path class="st5" d="M-486.6,809.04h-218.52c7.91-13.69,21.26-23.85,37.09-27.53c0.49-11.22,9.74-20.16,21.08-20.16h17.75v-11.24
			c0-15.4,12.48-27.87,27.88-27.87h10.93c15.4,0,27.87,12.48,27.87,27.87v11.24h17.76c11.34,0,20.58,8.94,21.08,20.16
			C-507.86,785.19-494.51,795.35-486.6,809.04z"/>
		<path class="st5" d="M-478.83,838.06v16.56h-234.06v-16.56c0-1.37,0.04-2.71,0.14-4.06h233.78
			C-478.88,835.34-478.83,836.69-478.83,838.06z"/>
		<path class="st6" d="M-478.97,834h-233.78c0.62-9.05,3.32-17.52,7.63-24.96h218.52C-482.29,816.47-479.59,824.95-478.97,834z"/>
	</g>
</g>
<g>
	<g>
		<path class="st7" d="M-633.22,1034.07c-1.53-15.12-11.22-38.8-31.88-44.14c-18.68-4.83-41.46,6.61-54.44,29.4
			c-12.98-22.79-35.76-34.23-54.44-29.4c-20.65,5.34-30.35,29.01-31.88,44.14c-3.46,34.31,30.3,72.6,85.58,93.83v0.57
			c0.25-0.09,0.49-0.19,0.73-0.29c0.25,0.09,0.49,0.19,0.73,0.29v-0.57C-663.52,1106.67-629.75,1068.38-633.22,1034.07z"/>
	</g>
	<g>
		<path class="st8" d="M-651.26,1056.52c0,3.44-0.51,6.77-1.46,9.9c-4.24,14.02-17.26,24.22-32.66,24.22
			c-18.85,0-34.13-15.28-34.13-34.12c0-9.7,4.04-18.46,10.55-24.67l13.11,15.74c2.52-2.96,6.27-4.84,10.47-4.84
			c4.22,0,8,1.9,10.52,4.9l13.28-15.57c1.69,1.64,3.21,3.46,4.53,5.43c2.55,3.78,4.35,8.11,5.21,12.77
			c0.18,0.97,0.32,1.96,0.41,2.96C-651.31,1054.32-651.26,1055.42-651.26,1056.52z"/>
	</g>
	<g>
		<path class="st9" d="M-663.67,1171.43c-1.98,0-3.96-0.76-5.46-2.28c-11.1-11.24-19.58-24.96-24.51-39.66
			c-9.73-29.02-3.74-54.86,0.69-67.68c1.39-4.01,5.76-6.13,9.76-4.74c4.01,1.39,6.13,5.76,4.74,9.76
			c-3.8,10.97-8.93,33.07-0.64,57.78c4.19,12.49,11.41,24.17,20.88,33.75c2.98,3.02,2.95,7.88-0.07,10.85
			C-659.78,1170.69-661.73,1171.43-663.67,1171.43z"/>
	</g>
	<g>
		<path class="st10" d="M-661.58,1032.08l-13.28,15.57c-2.52-3-6.3-4.9-10.52-4.9c-4.2,0-7.96,1.88-10.47,4.84l-13.11-15.74
			c6.12-5.85,14.43-9.46,23.58-9.46C-676.12,1022.39-667.72,1026.09-661.58,1032.08z"/>
	</g>
	<g>
		<path class="st11" d="M-741.76,1051.3c-2.41,0-4.53-1.75-4.93-4.2c-0.41-2.5-1.93-15.47,8.04-25.66
			c8.84-9.04,20.04-9.04,23.26-8.84c2.76,0.18,4.85,2.56,4.67,5.32c-0.18,2.76-2.56,4.85-5.32,4.67c-1.53-0.1-9.45-0.29-15.45,5.85
			c-6.74,6.89-5.48,16.03-5.31,17.05c0.44,2.73-1.41,5.3-4.14,5.75C-741.22,1051.28-741.5,1051.3-741.76,1051.3z"/>
	</g>
	<g>
		<path class="st11" d="M-772.95,1047.96c-2.41,0-4.53-1.75-4.93-4.2c-0.64-3.94-3.05-24.43,12.68-40.51
			c13.94-14.25,31.63-14.27,36.72-13.94c2.76,0.18,4.85,2.56,4.67,5.32c-0.18,2.76-2.56,4.84-5.32,4.67
			c-2.86-0.19-17.67-0.54-28.9,10.95c-12.62,12.91-10.26,29.99-9.95,31.9c0.44,2.73-1.41,5.3-4.14,5.75
			C-772.41,1047.94-772.68,1047.96-772.95,1047.96z"/>
	</g>
	<g>
		<path class="st10" d="M-651.26,1056.52c0,3.44-0.51,6.77-1.46,9.9l-21.97-7.36l23.27-5.83
			C-651.31,1054.32-651.26,1055.42-651.26,1056.52z"/>
	</g>
	<g>
		<g>
			<path class="st12" d="M-685.38,1071.79c-8.42,0-15.27-6.85-15.27-15.27c0-3.64,1.3-7.16,3.67-9.91
				c2.89-3.41,7.12-5.36,11.61-5.36c4.51,0,8.77,1.98,11.67,5.43c2.32,2.75,3.6,6.24,3.6,9.84
				C-670.12,1064.94-676.96,1071.79-685.38,1071.79z"/>
			<path class="st13" d="M-685.38,1042.75c4.22,0,8,1.9,10.52,4.9c2.02,2.4,3.24,5.49,3.24,8.88c0,7.6-6.17,13.77-13.77,13.77
				c-7.61,0-13.77-6.17-13.77-13.77c0-3.41,1.24-6.53,3.3-8.94C-693.34,1044.62-689.58,1042.75-685.38,1042.75 M-685.38,1039.75
				c-4.93,0-9.58,2.15-12.76,5.9c-2.59,3.01-4.02,6.88-4.02,10.88c0,9.25,7.53,16.77,16.77,16.77c9.25,0,16.77-7.52,16.77-16.77
				c0-3.95-1.4-7.79-3.95-10.81C-675.76,1041.92-680.43,1039.75-685.38,1039.75L-685.38,1039.75z"/>
		</g>
	</g>
</g>
<g>
	<g>
		<g>
			<path class="st14" d="M-486.31,1184.43c-7.95,0-15.84-2.14-21.85-6.55c-12.19-8.94-13.16-23.78-14.39-69.32
				c-0.59-21.88-1.03-44.09-1.29-66.02l10.34-0.13c0.27,21.87,0.7,44.03,1.29,65.86c1.18,43.78,2.34,55.52,10.17,61.26
				c9.38,6.88,26.57,5.83,34.7-2.11c5.9-5.76,6-17.31,6.2-40.31c0.08-9.32-0.35-18.7-1.27-27.88l10.29-1.03
				c0.96,9.55,1.4,19.31,1.32,29.01c-0.22,25.86-0.34,38.84-9.32,47.61C-466.59,1181.15-476.49,1184.43-486.31,1184.43z"/>
		</g>
	</g>
	<g>
		<path class="st15" d="M-439.53,1134.66h-26.41c-14.13,0-25.58-11.45-25.58-25.58v-78.89c0-14.13,11.45-25.58,25.58-25.58h26.41
			c14.13,0,25.58,11.45,25.58,25.58v78.89C-413.95,1123.2-425.4,1134.66-439.53,1134.66z"/>
	</g>
	<g>
		<path class="st16" d="M-498.17,1008.61c-0.35-16.31-10.17-29.33-21.95-29.08c-11.78,0.25-21.05,13.67-20.7,29.98
			c0.23,10.74,4.57,20.06,10.88,25.09c1.84,1.47,2.87,3.74,2.92,6.1l0.13,6.26c0.1,4.53,3.85,8.13,8.38,8.03l0,0
			c4.53-0.1,8.13-3.85,8.03-8.38l-0.13-6.26c-0.05-2.36,0.88-4.67,2.66-6.22C-501.89,1028.84-497.94,1019.35-498.17,1008.61z"/>
	</g>
	<g>
		<g>
			<circle class="st17" cx="-424.94" cy="1103.89" r="30.38"/>
			<path class="st18" d="M-424.94,1136.86c-18.18,0-32.97-14.79-32.97-32.97s14.79-32.97,32.97-32.97
				c18.18,0,32.97,14.79,32.97,32.97S-406.76,1136.86-424.94,1136.86z M-424.94,1076.09c-15.33,0-27.8,12.47-27.8,27.8
				s12.47,27.8,27.8,27.8c15.33,0,27.8-12.47,27.8-27.8S-409.61,1076.09-424.94,1076.09z"/>
		</g>
		<g>
			<polygon class="st19" points="-410.07,1105.18 -427.53,1105.18 -427.53,1094.19 -423.65,1094.19 -423.65,1101.31 
				-410.07,1101.31 			"/>
		</g>
	</g>
	<g class="st20">
		<path class="st21" d="M-534.19,1016.62c-0.64-1.95-3.36-10.98,1.29-20.69c3.95-8.24,10.79-11.89,12.93-12.93
			c-1.86,5.35-4,10.97-6.46,16.81C-528.97,1005.82-531.58,1011.42-534.19,1016.62z"/>
	</g>
</g>
<g>
	<g>
		<path class="st22" d="M-545.79,1234.64C-545.79,1234.64-545.79,1234.64-545.79,1234.64l5.06,11.04l54.32,58.06
			c2.18,2.33,5.17,3.06,6.69,1.65c1.52-1.42,0.98-4.45-1.2-6.78l-54.66-58.43L-545.79,1234.64z"/>
		<g>
			
				<rect x="-411.69" y="1366.64" transform="matrix(0.7303 -0.6832 0.6832 0.7303 -1055.1909 96.087)" class="st23" width="11.54" height="35.26"/>
		</g>
		<g>
			<path class="st23" d="M-374.01,1386.47l-31.84,29.78c-2.33,2.18-5.98,2.06-8.16-0.27s-2.06-5.98,0.27-8.16l31.84-29.78
				c2.33-2.18,5.98-2.06,8.16,0.27C-371.56,1380.64-371.68,1384.29-374.01,1386.47z"/>
		</g>
		<g>
			<path class="st23" d="M-494.7,1287.8l-1.56,1.46c-5.26,4.92-13.5,4.64-18.42-0.61l-6.72-7.18c-4.92-5.26-4.64-13.5,0.61-18.42
				l1.56-1.46c5.26-4.92,13.5-4.64,18.42,0.61l6.72,7.18C-489.17,1274.63-489.45,1282.88-494.7,1287.8z"/>
		</g>
		<g>
			<g>
				<path class="st24" d="M-480.77,1269.92l74.91,80.08c7.38,7.88,8.77,18.56,3.11,23.85l-13.79,12.9
					c-5.66,5.29-16.22,3.19-23.59-4.69l-74.91-80.08c-7.38-7.88-8.77-18.56-3.11-23.85l13.79-12.9
					C-498.7,1259.93-488.14,1262.03-480.77,1269.92z"/>
			</g>
			<path class="st7" d="M-481.18,1272.04l53.29,56.96c-1.33,0.13-2.66,0.16-3.98,0.09c-13.09-0.75-19.36-11.65-32.85-12.15
				c-11.25-0.42-10.88,7.02-21.32,7c-2.09,0-4.32-0.3-6.62-0.87l-20.1-21.49c-6.8-7.27-8.08-17.1-2.87-21.98l12.71-11.89
				C-497.7,1262.84-487.97,1264.77-481.18,1272.04z"/>
			<g>
				<path class="st25" d="M-468.5,1283.03l3.94,4.21l-14.04,13.14c-0.84,0.78-2.39,0.47-3.48-0.69c-1.09-1.17-1.3-2.74-0.46-3.52
					L-468.5,1283.03z"/>
			</g>
			<g>
				<path class="st25" d="M-448.79,1304.1l3.94,4.21l-14.04,13.14c-0.84,0.78-2.39,0.47-3.48-0.69c-1.09-1.17-1.3-2.74-0.46-3.52
					L-448.79,1304.1z"/>
			</g>
			<g>
				<path class="st25" d="M-429.08,1325.17l3.94,4.21l-14.04,13.14c-0.84,0.78-2.39,0.47-3.48-0.69c-1.09-1.17-1.3-2.74-0.46-3.52
					L-429.08,1325.17z"/>
			</g>
			<path class="st26" d="M-417.57,1381.57l-0.68,0.63c-4.54,4.25-11.66,4.01-15.91-0.53l-80.98-86.56
				c-4.25-4.54-4.01-11.66,0.53-15.91l0.68-0.63L-417.57,1381.57z"/>
		</g>
	</g>
	<path class="st7" d="M-550.15,1232.07c-2.46-0.89-6.27-2.12-11.06-3.04c-5.11-0.98-6.37-0.66-8.72-1.8
		c-5.71-2.77-9.92-10.28-7.97-13.19c1.83-2.74,9.5-2,14.15,1.51c2.5,1.88,2.81,3.56,6.35,8.29
		C-554.63,1227.54-551.98,1230.3-550.15,1232.07z"/>
</g>
<g>
	<path class="st0" d="M850.17,156.07v698.72c0,35.15-28.49,63.64-63.64,63.64H293.81c-35.15,0-63.64-28.49-63.64-63.64V156.07
		c0-35.15,28.49-63.64,63.64-63.64h492.72C821.68,92.43,850.17,120.92,850.17,156.07z"/>
	<rect x="230.17" y="302.43" class="st1" width="620" height="428"/>
	<path class="st2" d="M759.06,875.43H318.99c-23.16,0-41.93-18.77-41.93-41.93V176.35c0-23.16,18.77-41.93,41.93-41.93h440.07
		c23.16,0,41.93,18.77,41.93,41.93V833.5C800.99,856.66,782.21,875.43,759.06,875.43z"/>
	<g class="st3">
		<g>
			<rect x="313.17" y="302.93" class="st4" width="446" height="3"/>
		</g>
		<g>
			<rect x="313.17" y="360.43" class="st4" width="446" height="3"/>
		</g>
		<g>
			<rect x="313.17" y="418.43" class="st4" width="446" height="3"/>
		</g>
		<g>
			<rect x="313.17" y="476.43" class="st4" width="446" height="3"/>
		</g>
		<g>
			<rect x="313.17" y="534.43" class="st4" width="446" height="3"/>
		</g>
		<g>
			<rect x="313.17" y="592.43" class="st4" width="446" height="3"/>
		</g>
		<g>
			<rect x="313.17" y="650.43" class="st4" width="446" height="3"/>
		</g>
		<g>
			<rect x="313.17" y="708.43" class="st4" width="446" height="3"/>
		</g>
		<g>
			<rect x="313.17" y="766.43" class="st4" width="446" height="3"/>
		</g>
	</g>
	<g>
		<path class="st5" d="M645.4,113.04H426.88c7.91-13.69,21.26-23.85,37.09-27.53c0.49-11.22,9.74-20.16,21.08-20.16h17.75V54.11
			c0-15.4,12.48-27.87,27.88-27.87h10.93c15.4,0,27.87,12.48,27.87,27.87v11.24h17.76c11.34,0,20.58,8.94,21.08,20.16
			C624.14,89.19,637.49,99.35,645.4,113.04z"/>
		<path class="st5" d="M653.17,142.06v16.56H419.11v-16.56c0-1.37,0.04-2.71,0.14-4.06h233.78
			C653.12,139.34,653.17,140.69,653.17,142.06z"/>
		<path class="st6" d="M653.03,138H419.25c0.62-9.05,3.32-17.52,7.63-24.96H645.4C649.71,120.47,652.41,128.95,653.03,138z"/>
	</g>
</g>
<g>
	<g>
		<path class="st7" d="M508.78,361.07c-1.53-15.12-11.22-38.8-31.88-44.14c-18.68-4.83-41.46,6.61-54.44,29.4
			c-12.98-22.79-35.76-34.23-54.44-29.4c-20.65,5.34-30.35,29.01-31.88,44.14c-3.46,34.31,30.3,72.6,85.58,93.83v0.57
			c0.25-0.09,0.49-0.19,0.73-0.29c0.25,0.09,0.49,0.19,0.73,0.29v-0.57C478.48,433.67,512.25,395.38,508.78,361.07z"/>
	</g>
	<g>
		<path class="st8" d="M490.74,383.52c0,3.44-0.51,6.77-1.46,9.9c-4.24,14.02-17.26,24.22-32.66,24.22
			c-18.85,0-34.13-15.28-34.13-34.12c0-9.7,4.04-18.46,10.55-24.67l13.11,15.74c2.52-2.96,6.27-4.84,10.47-4.84
			c4.22,0,8,1.9,10.52,4.9l13.28-15.57c1.69,1.64,3.21,3.46,4.53,5.43c2.55,3.78,4.35,8.11,5.21,12.77
			c0.18,0.97,0.32,1.96,0.41,2.96C490.69,381.32,490.74,382.42,490.74,383.52z"/>
	</g>
	<g>
		<path class="st9" d="M478.33,498.43c-1.98,0-3.96-0.76-5.46-2.28c-11.1-11.24-19.58-24.96-24.51-39.66
			c-9.73-29.02-3.74-54.86,0.69-67.68c1.39-4.01,5.76-6.13,9.76-4.74c4.01,1.39,6.13,5.76,4.74,9.76
			c-3.8,10.97-8.93,33.07-0.64,57.78c4.19,12.49,11.41,24.17,20.88,33.75c2.98,3.02,2.95,7.88-0.07,10.85
			C482.22,497.69,480.27,498.43,478.33,498.43z"/>
	</g>
	<g>
		<path class="st10" d="M480.42,359.08l-13.28,15.57c-2.52-3-6.3-4.9-10.52-4.9c-4.2,0-7.96,1.88-10.47,4.84l-13.11-15.74
			c6.12-5.85,14.43-9.46,23.58-9.46C465.88,349.39,474.28,353.09,480.42,359.08z"/>
	</g>
	<g>
		<path class="st11" d="M400.24,378.3c-2.41,0-4.53-1.75-4.93-4.2c-0.41-2.5-1.93-15.47,8.04-25.66c8.83-9.04,20.04-9.04,23.26-8.84
			c2.76,0.18,4.85,2.56,4.67,5.32c-0.18,2.76-2.56,4.85-5.32,4.67c-1.53-0.1-9.45-0.29-15.45,5.85c-6.74,6.89-5.48,16.03-5.31,17.05
			c0.44,2.73-1.41,5.3-4.14,5.75C400.78,378.28,400.5,378.3,400.24,378.3z"/>
	</g>
	<g>
		<path class="st11" d="M369.05,374.96c-2.41,0-4.53-1.75-4.93-4.2c-0.64-3.94-3.05-24.43,12.68-40.51
			c13.94-14.25,31.63-14.27,36.72-13.94c2.76,0.18,4.85,2.56,4.67,5.32c-0.18,2.76-2.56,4.84-5.32,4.67
			c-2.86-0.19-17.67-0.54-28.9,10.95c-12.62,12.91-10.26,29.99-9.95,31.9c0.44,2.73-1.41,5.3-4.13,5.75
			C369.59,374.94,369.32,374.96,369.05,374.96z"/>
	</g>
	<g>
		<path class="st10" d="M490.74,383.52c0,3.44-0.51,6.77-1.46,9.9l-21.97-7.36l23.27-5.83
			C490.69,381.32,490.74,382.42,490.74,383.52z"/>
	</g>
	<g>
		<g>
			<path class="st12" d="M456.62,398.79c-8.42,0-15.27-6.85-15.27-15.27c0-3.64,1.3-7.16,3.67-9.91c2.89-3.41,7.12-5.36,11.61-5.36
				c4.51,0,8.77,1.98,11.67,5.43c2.32,2.75,3.6,6.24,3.6,9.84C471.88,391.94,465.04,398.79,456.62,398.79z"/>
			<path class="st13" d="M456.62,369.75c4.22,0,8,1.9,10.52,4.9c2.02,2.4,3.24,5.49,3.24,8.88c0,7.6-6.17,13.77-13.77,13.77
				c-7.61,0-13.77-6.17-13.77-13.77c0-3.41,1.24-6.53,3.3-8.94C448.66,371.62,452.42,369.75,456.62,369.75 M456.62,366.75
				c-4.93,0-9.58,2.15-12.76,5.9c-2.59,3.01-4.02,6.88-4.02,10.88c0,9.25,7.53,16.77,16.77,16.77c9.25,0,16.77-7.52,16.77-16.77
				c0-3.95-1.4-7.79-3.95-10.81C466.24,368.92,461.57,366.75,456.62,366.75L456.62,366.75z"/>
		</g>
	</g>
</g>
<g>
	<g>
		<g>
			<path class="st14" d="M655.69,511.43c-7.95,0-15.84-2.14-21.85-6.55c-12.19-8.94-13.16-23.78-14.39-69.32
				c-0.59-21.88-1.03-44.09-1.29-66.02l10.34-0.13c0.27,21.87,0.7,44.03,1.29,65.86c1.18,43.78,2.34,55.52,10.17,61.26
				c9.38,6.88,26.57,5.83,34.7-2.11c5.9-5.76,6-17.31,6.2-40.31c0.08-9.32-0.35-18.7-1.27-27.88l10.29-1.03
				c0.96,9.55,1.4,19.31,1.32,29.01c-0.22,25.86-0.34,38.84-9.32,47.61C675.41,508.15,665.51,511.43,655.69,511.43z"/>
		</g>
	</g>
	<g>
		<path class="st15" d="M702.47,461.66h-26.41c-14.13,0-25.58-11.45-25.58-25.58v-78.89c0-14.13,11.45-25.58,25.58-25.58h26.41
			c14.13,0,25.58,11.45,25.58,25.58v78.89C728.05,450.2,716.6,461.66,702.47,461.66z"/>
	</g>
	<g>
		<path class="st16" d="M643.83,335.61c-0.35-16.31-10.17-29.33-21.95-29.08c-11.78,0.25-21.05,13.67-20.7,29.98
			c0.23,10.74,4.57,20.06,10.88,25.09c1.84,1.47,2.87,3.74,2.92,6.1l0.13,6.26c0.1,4.53,3.85,8.13,8.38,8.03l0,0
			c4.53-0.1,8.13-3.85,8.03-8.38l-0.13-6.26c-0.05-2.36,0.88-4.67,2.66-6.22C640.11,355.84,644.06,346.35,643.83,335.61z"/>
	</g>
	<g>
		<g>
			<circle class="st17" cx="717.06" cy="430.89" r="30.38"/>
			<path class="st18" d="M717.06,463.86c-18.18,0-32.97-14.79-32.97-32.97c0-18.18,14.79-32.97,32.97-32.97
				c18.18,0,32.97,14.79,32.97,32.97C750.03,449.07,735.24,463.86,717.06,463.86z M717.06,403.09c-15.33,0-27.8,12.47-27.8,27.8
				c0,15.33,12.47,27.8,27.8,27.8c15.33,0,27.8-12.47,27.8-27.8C744.86,415.56,732.39,403.09,717.06,403.09z"/>
		</g>
		<g>
			<polygon class="st19" points="731.93,432.18 714.47,432.18 714.47,421.19 718.35,421.19 718.35,428.31 731.93,428.31 			"/>
		</g>
	</g>
	<g class="st20">
		<path class="st21" d="M607.81,343.62c-0.64-1.95-3.36-10.98,1.29-20.69c3.95-8.24,10.79-11.89,12.93-12.93
			c-1.86,5.35-4,10.97-6.46,16.81C613.03,332.82,610.42,338.42,607.81,343.62z"/>
	</g>
</g>
<g>
	<g>
		<path class="st22" d="M596.21,561.64C596.21,561.64,596.21,561.64,596.21,561.64l5.06,11.04l54.32,58.06
			c2.18,2.33,5.17,3.06,6.69,1.65c1.52-1.42,0.98-4.45-1.2-6.78l-54.66-58.43L596.21,561.64z"/>
		<g>
			
				<rect x="730.31" y="693.64" transform="matrix(0.7303 -0.6832 0.6832 0.7303 -287.369 694.7332)" class="st23" width="11.54" height="35.26"/>
		</g>
		<g>
			<path class="st23" d="M767.99,713.47l-31.84,29.78c-2.33,2.18-5.98,2.06-8.16-0.27c-2.18-2.33-2.06-5.98,0.27-8.16l31.84-29.78
				c2.33-2.18,5.98-2.06,8.16,0.27C770.44,707.64,770.32,711.29,767.99,713.47z"/>
		</g>
		<g>
			<path class="st23" d="M647.3,614.8l-1.56,1.46c-5.26,4.92-13.5,4.64-18.42-0.61l-6.72-7.18c-4.92-5.26-4.64-13.5,0.61-18.42
				l1.56-1.46c5.26-4.92,13.5-4.64,18.42,0.61l6.72,7.18C652.83,601.63,652.55,609.88,647.3,614.8z"/>
		</g>
		<g>
			<g>
				<path class="st24" d="M661.23,596.92l74.91,80.08c7.38,7.88,8.77,18.56,3.11,23.85l-13.79,12.9
					c-5.66,5.29-16.22,3.19-23.59-4.69l-74.91-80.08c-7.38-7.88-8.77-18.56-3.11-23.85l13.79-12.9
					C643.3,586.93,653.86,589.03,661.23,596.92z"/>
			</g>
			<path class="st7" d="M660.82,599.04L714.11,656c-1.33,0.13-2.66,0.16-3.98,0.09c-13.09-0.75-19.36-11.65-32.85-12.15
				c-11.25-0.42-10.88,7.02-21.32,7c-2.09,0-4.32-0.3-6.62-0.87l-20.1-21.49c-6.8-7.27-8.08-17.1-2.87-21.98l12.71-11.89
				C644.3,589.84,654.03,591.77,660.82,599.04z"/>
			<g>
				<path class="st25" d="M673.5,610.03l3.94,4.21l-14.04,13.14c-0.84,0.78-2.39,0.47-3.48-0.69c-1.09-1.17-1.3-2.74-0.46-3.52
					L673.5,610.03z"/>
			</g>
			<g>
				<path class="st25" d="M693.21,631.1l3.94,4.21l-14.04,13.14c-0.84,0.78-2.39,0.47-3.48-0.69c-1.09-1.17-1.3-2.74-0.46-3.52
					L693.21,631.1z"/>
			</g>
			<g>
				<path class="st25" d="M712.92,652.17l3.94,4.21l-14.04,13.14c-0.84,0.78-2.39,0.47-3.48-0.69c-1.09-1.17-1.3-2.74-0.46-3.52
					L712.92,652.17z"/>
			</g>
			<path class="st26" d="M724.43,708.57l-0.68,0.63c-4.54,4.25-11.66,4.01-15.91-0.53l-80.98-86.56
				c-4.25-4.54-4.01-11.66,0.53-15.91l0.68-0.63L724.43,708.57z"/>
		</g>
	</g>
	<path class="st7" d="M591.85,559.07c-2.46-0.89-6.27-2.12-11.06-3.04c-5.11-0.98-6.37-0.66-8.72-1.8
		c-5.71-2.77-9.92-10.28-7.97-13.19c1.83-2.74,9.5-2,14.15,1.51c2.5,1.88,2.81,3.56,6.35,8.29
		C587.37,554.54,590.02,557.3,591.85,559.07z"/>
</g>
<g>
	<path class="st27" d="M429.92,458.93l-11.22-13.21l3.12-17.05l-16.33-5.81l-5.81-16.33l-17.05,3.12l-13.21-11.22l-13.21,11.22
		l-17.05-3.12l-5.81,16.33l-16.33,5.81l3.12,17.05l-11.22,13.21l11.22,13.21l-3.12,17.05l16.33,5.81l5.81,16.33l17.05-3.12
		l13.21,11.22l13.21-11.22l17.05,3.12l5.81-16.33l16.33-5.81l-3.12-17.05L429.92,458.93z M361.77,493.14l-28.6-36.71l12.74-9.93
		l16.51,21.2l30.75-35.54l12.22,10.57L361.77,493.14z"/>
	<polygon class="st17" points="362.43,467.69 345.92,446.5 333.18,456.42 361.77,493.14 405.39,442.72 393.18,432.15 	"/>
</g>
<g>
	<path class="st27" d="M694.42,458.93l-11.22-13.21l3.12-17.05l-16.33-5.81l-5.81-16.33l-17.05,3.12l-13.21-11.22l-13.21,11.22
		l-17.05-3.12l-5.81,16.33l-16.33,5.81l3.12,17.05l-11.22,13.21l11.22,13.21l-3.12,17.05l16.33,5.81l5.81,16.33l17.05-3.12
		l13.21,11.22l13.21-11.22l17.05,3.12l5.81-16.33l16.33-5.81l-3.12-17.05L694.42,458.93z M626.27,493.14l-28.6-36.71l12.74-9.93
		l16.51,21.2l30.75-35.54l12.22,10.57L626.27,493.14z"/>
	<polygon class="st17" points="626.93,467.69 610.42,446.5 597.68,456.42 626.27,493.14 669.89,442.72 657.68,432.15 	"/>
</g>
<g>
	<path class="st27" d="M694.42,698.93l-11.22-13.21l3.12-17.05l-16.33-5.81l-5.81-16.33l-17.05,3.12l-13.21-11.22l-13.21,11.22
		l-17.05-3.12l-5.81,16.33l-16.33,5.81l3.12,17.05l-11.22,13.21l11.22,13.21l-3.12,17.05l16.33,5.81l5.81,16.33l17.05-3.12
		l13.21,11.22l13.21-11.22l17.05,3.12l5.81-16.33l16.33-5.81l-3.12-17.05L694.42,698.93z M626.27,733.14l-28.6-36.71l12.74-9.93
		l16.51,21.2l30.75-35.54l12.22,10.57L626.27,733.14z"/>
	<polygon class="st17" points="626.93,707.69 610.42,686.5 597.68,696.42 626.27,733.14 669.89,682.72 657.68,672.15 	"/>
</g>
<g>
	<path class="st14" d="M-642.7,1311.97c-9.19,17.68-19.16,46.76-22.57,96.76h-75.8c1.33-23.07-4.97-35.96-11.29-43.55
		c-14.35-17.24-38.27-18.46-40.31-33.86c-0.09-0.72-0.93-7.87,3.22-11.29c9.58-7.88,33.57,14.08,40.31,8.07
		c4.19-3.73-2.09-14.77-11.29-49.99c-4.57-17.54-6.21-27.05-1.61-30.64c3.01-2.36,8.03-1.63,11.29,0
		c7.17,3.59,5.47,12.52,12.9,29.03c2.63,5.83,6.77,15.04,9.68,14.51c1.62-0.29,3.33-3.69,4.84-38.7
		c0.94-21.84,0.68-30.79,6.44-33.86c3.97-2.12,9.44-0.88,12.91,1.61c6.49,4.68,6.1,14.15,6.44,27.42
		c0.63,24.38,3.27,45.09,4.84,45.15c1.38,0.06,2.73-15.67,9.68-38.7c3.6-11.93,6.68-19.13,12.9-20.96c2.94-0.86,6.97-0.65,9.68,1.61
		c4.69,3.93,2.85,12.2,0,29.03c-5.6,33.07-4.82,38.14-3.22,38.7c1.58,0.56,5.73-2.62,7.89-6.17c0.07-0.09,0.11-0.16,0.18-0.27
		c6.08-10.28,7.42-16.32,12.9-17.74c2.49-0.65,6.07-0.4,8.07,1.61C-628.54,1285.87-639.63,1306.05-642.7,1311.97z"/>
	<path class="st28" d="M-684.88,1408.72h-40.4c-8.31-27.66-7.04-36.03-3.69-37.89c3.8-2.13,8.66,5.03,20.96,6.44
		c15.75,1.81,24.37-8.04,29.03-4.83C-675.73,1374.68-674.93,1382.93-684.88,1408.72z"/>
	<path class="st28" d="M-732.2,1343.41c-3.5,3.98-0.51,13.74,4.84,19.35c7.08,7.44,17.62,6.88,25.8,6.45
		c9.5-0.5,19.21-1.01,22.58-8.06c3.42-7.18-1.23-18.01-8.06-20.96c-5.32-2.3-8.12,1.84-19.35,3.23
		C-721.5,1345.28-728.58,1339.29-732.2,1343.41z"/>
	<path class="st28" d="M-741.87,1351.48c3.31-3.17,2.36-11.56-1.61-14.51c-3.09-2.29-5.82,0.31-12.9-1.61
		c-5.77-1.56-7.92-4.36-9.68-3.23c-1.95,1.26-1.56,6.19,0,9.68C-761.87,1351.15-746.66,1356.07-741.87,1351.48z"/>
	<path class="st28" d="M-783.8,1325.67c2.33-1.16,9.25,4.1,8.06,8.06c-0.7,2.34-4.16,4.07-6.45,3.23
		C-786.07,1335.53-786.13,1326.84-783.8,1325.67z"/>
	<path class="st28" d="M-746.98,1301.16c1.57-2.03,6.56-1.67,9.8,0.5c4.23,2.84,2.88,7.07,6.64,15.47
		c4.26,9.53,9.74,12.51,8.24,15.29c-1.22,2.26-6.16,2.74-9.61,1.1c-3.95-1.87-4.03-5.59-8.24-15.29
		C-745.08,1306.91-748.71,1303.39-746.98,1301.16z"/>
	<path class="st28" d="M-672.66,1298.33c-1.78-1.85-6.7-0.96-9.69,1.54c-3.9,3.28-2.11,7.33-4.95,16.09
		c-3.22,9.93-8.35,13.47-6.56,16.08c1.45,2.12,6.41,2.06,9.68,0.07c3.73-2.28,3.41-5.99,6.56-16.08
		C-673.94,1304.25-670.71,1300.37-672.66,1298.33z"/>
	<path class="st28" d="M-712.84,1291.81c2.53-2.34,7.15-3.45,9.68-1.61c3.82,2.79-0.91,9.61,0,24.19c0.61,9.65,3.17,14.49,0,17.74
		c-1.96,2-5.61,2.91-8.06,1.61c-3.29-1.74-2.49-6.44-3.23-22.58C-715.04,1298.31-715.85,1294.59-712.84,1291.81z"/>
	<path class="st28" d="M-658.18,1316.93c2.46-0.2,5.54,1.16,5.9,3.06c0.55,2.8-5.36,3.97-10.82,10.69
		c-4.99,6.14-5.27,11.56-7.68,11.44c-1.78-0.09-3.47-3.14-3.59-5.82c-0.13-2.84,1.55-4.11,7.68-11.44
		C-661.63,1318.81-660.63,1317.13-658.18,1316.93z"/>
	<path class="st28" d="M-755.89,1271.58c1.03-1.68,4.43-2.16,6.39-0.87c1.74,1.14,1.3,2.98,2.69,7.77c1.79,6.15,3.95,8.04,2.91,9.37
		c-1.07,1.35-4.59,1-6.61-0.73c-1.42-1.21-1.3-2.42-2.47-6.17C-754.97,1274.57-756.86,1273.16-755.89,1271.58z"/>
	<path class="st28" d="M-668.1,1266.74c-1.03-1.68-4.43-2.16-6.39-0.87c-1.74,1.14-1.3,2.98-2.69,7.77
		c-1.79,6.15-3.95,8.04-2.91,9.37c1.07,1.35,4.59,1,6.61-0.73c1.42-1.21,1.3-2.42,2.47-6.17
		C-669.01,1269.74-667.13,1268.32-668.1,1266.74z"/>
	<path class="st28" d="M-714.46,1253.11c2.18-2.54,7.96-2.42,9.68,0c1.66,2.34-1.83,4.96-1.61,11.29c0.19,5.48,2.93,7.22,1.61,9.68
		c-1.81,3.37-9.2,4.23-11.29,1.61c-1.59-2,1.2-4.39,1.61-11.29C-714.06,1257.78-716.34,1255.31-714.46,1253.11z"/>
	<path class="st28" d="M-646.73,1295.04c2.22-1.59,5.84-1.3,6.45,0c0.7,1.49-3.14,3.01-4.84,8.06c-1.18,3.51-0.13,5.19-1.61,6.45
		c-2.26,1.91-7.57,0.45-8.06-1.61c-0.38-1.59,2.41-2.19,4.84-6.45C-648.02,1298.08-648.63,1296.4-646.73,1295.04z"/>
</g>
<g>
	<path class="st14" d="M477.3,628.67c-9.19,17.68-19.16,46.76-22.57,96.76h-75.8c1.33-23.07-4.97-35.96-11.29-43.55
		c-14.36-17.24-38.27-18.46-40.31-33.86c-0.09-0.72-0.93-7.87,3.22-11.29c9.58-7.88,33.57,14.08,40.31,8.07
		c4.19-3.73-2.09-14.77-11.29-49.99c-4.57-17.54-6.21-27.05-1.61-30.64c3.01-2.36,8.03-1.63,11.29,0
		c7.17,3.59,5.47,12.52,12.9,29.03c2.63,5.83,6.77,15.04,9.68,14.51c1.62-0.29,3.33-3.69,4.84-38.7
		c0.94-21.84,0.68-30.79,6.44-33.86c3.97-2.12,9.44-0.88,12.91,1.61c6.49,4.68,6.1,14.16,6.44,27.42
		c0.63,24.38,3.27,45.09,4.84,45.15c1.38,0.06,2.73-15.67,9.68-38.7c3.6-11.93,6.68-19.13,12.9-20.96c2.94-0.86,6.97-0.65,9.68,1.61
		c4.69,3.93,2.85,12.2,0,29.03c-5.6,33.07-4.82,38.14-3.22,38.7c1.58,0.56,5.73-2.62,7.89-6.17c0.07-0.09,0.11-0.16,0.18-0.27
		c6.08-10.28,7.42-16.32,12.9-17.74c2.49-0.65,6.07-0.4,8.07,1.61C491.46,602.57,480.37,622.75,477.3,628.67z"/>
	<path class="st28" d="M435.12,725.43h-40.4c-8.31-27.66-7.04-36.03-3.69-37.89c3.8-2.13,8.66,5.03,20.96,6.44
		c15.75,1.81,24.37-8.04,29.03-4.83C444.27,691.38,445.07,699.63,435.12,725.43z"/>
	<path class="st28" d="M387.8,660.12c-3.5,3.98-0.51,13.74,4.84,19.35c7.08,7.44,17.62,6.88,25.8,6.45
		c9.5-0.5,19.21-1.01,22.58-8.06c3.42-7.18-1.23-18.01-8.06-20.96c-5.32-2.3-8.12,1.84-19.35,3.23
		C398.5,661.98,391.42,656,387.8,660.12z"/>
	<path class="st28" d="M378.13,668.18c3.31-3.17,2.36-11.56-1.61-14.51c-3.09-2.29-5.82,0.31-12.9-1.61
		c-5.77-1.56-7.92-4.36-9.68-3.23c-1.95,1.26-1.56,6.19,0,9.68C358.13,667.85,373.34,672.77,378.13,668.18z"/>
	<path class="st28" d="M336.2,642.38c2.33-1.16,9.25,4.1,8.06,8.06c-0.7,2.34-4.16,4.07-6.45,3.23
		C333.93,652.23,333.87,643.54,336.2,642.38z"/>
	<path class="st28" d="M373.02,617.87c1.57-2.03,6.56-1.67,9.8,0.5c4.23,2.84,2.88,7.07,6.64,15.47c4.26,9.53,9.74,12.51,8.24,15.29
		c-1.22,2.26-6.16,2.74-9.61,1.1c-3.95-1.87-4.03-5.59-8.24-15.29C374.92,623.61,371.29,620.09,373.02,617.87z"/>
	<path class="st28" d="M447.34,615.04c-1.78-1.85-6.7-0.96-9.69,1.54c-3.9,3.28-2.11,7.33-4.95,16.09
		c-3.22,9.93-8.35,13.47-6.56,16.08c1.45,2.12,6.41,2.06,9.68,0.07c3.73-2.28,3.41-5.99,6.56-16.08
		C446.06,620.95,449.29,617.07,447.34,615.04z"/>
	<path class="st28" d="M407.16,608.51c2.53-2.34,7.15-3.45,9.68-1.61c3.82,2.79-0.91,9.61,0,24.19c0.61,9.65,3.17,14.49,0,17.74
		c-1.96,2-5.61,2.91-8.06,1.61c-3.29-1.74-2.49-6.44-3.23-22.58C404.96,615.02,404.15,611.3,407.16,608.51z"/>
	<path class="st28" d="M461.82,633.63c2.46-0.2,5.54,1.16,5.9,3.06c0.55,2.8-5.36,3.97-10.82,10.69
		c-4.99,6.14-5.27,11.56-7.68,11.44c-1.78-0.09-3.47-3.14-3.59-5.82c-0.13-2.84,1.55-4.11,7.68-11.44
		C458.37,635.51,459.37,633.83,461.82,633.63z"/>
	<path class="st28" d="M364.11,588.28c1.03-1.68,4.43-2.16,6.39-0.87c1.74,1.14,1.3,2.98,2.69,7.77c1.79,6.15,3.95,8.04,2.91,9.37
		c-1.07,1.35-4.59,1-6.61-0.73c-1.42-1.21-1.3-2.42-2.47-6.17C365.03,591.28,363.14,589.86,364.11,588.28z"/>
	<path class="st28" d="M451.9,583.45c-1.03-1.68-4.43-2.16-6.39-0.87c-1.74,1.14-1.3,2.98-2.69,7.77c-1.79,6.15-3.95,8.04-2.91,9.37
		c1.07,1.35,4.59,1,6.61-0.73c1.42-1.21,1.3-2.42,2.47-6.17C450.99,586.44,452.87,585.03,451.9,583.45z"/>
	<path class="st28" d="M405.54,569.81c2.18-2.54,7.96-2.42,9.68,0c1.66,2.34-1.83,4.96-1.61,11.29c0.19,5.48,2.93,7.22,1.61,9.68
		c-1.81,3.37-9.2,4.23-11.29,1.61c-1.59-2,1.2-4.39,1.61-11.29C405.94,574.48,403.66,572.01,405.54,569.81z"/>
	<path class="st28" d="M473.27,611.74c2.22-1.59,5.84-1.3,6.45,0c0.7,1.49-3.14,3.01-4.84,8.06c-1.18,3.51-0.13,5.19-1.61,6.45
		c-2.26,1.91-7.57,0.45-8.06-1.61c-0.38-1.59,2.41-2.19,4.84-6.45C471.98,614.78,471.37,613.1,473.27,611.74z"/>
</g>
<g>
	<path class="st27" d="M429.92,698.93l-11.22-13.21l3.12-17.05l-16.33-5.81l-5.81-16.33l-17.05,3.12l-13.21-11.22l-13.21,11.22
		l-17.05-3.12l-5.81,16.33l-16.33,5.81l3.12,17.05l-11.22,13.21l11.22,13.21l-3.12,17.05l16.33,5.81l5.81,16.33l17.05-3.12
		l13.21,11.22l13.21-11.22l17.05,3.12l5.81-16.33l16.33-5.81l-3.12-17.05L429.92,698.93z M361.77,733.14l-28.6-36.71l12.74-9.93
		l16.51,21.2l30.75-35.54l12.22,10.57L361.77,733.14z"/>
	<polygon class="st17" points="362.43,707.69 345.92,686.5 333.18,696.42 361.77,733.14 405.39,682.72 393.18,672.15 	"/>
</g>
</svg>
