<?xml version="1.0" encoding="utf-8"?>
<!-- Generator: Adobe Illustrator 24.0.2, SVG Export Plug-In . SVG Version: 6.00 Build 0)  -->
<svg version="1.1" id="Layer_1" xmlns="http://www.w3.org/2000/svg" xmlns:xlink="http://www.w3.org/1999/xlink" x="0px" y="0px"
	 viewBox="0 0 1080 983" style="enable-background:new 0 0 1080 983;" xml:space="preserve">
<style type="text/css">
	.st0{fill:#091B47;}
	.st1{fill:#203675;}
	.st2{fill:#406991;}
	.st3{fill:#FFFFFF;}
	.st4{fill:#BCBCBC;}
	.st5{fill:#43484C;}
	.st6{opacity:0.12;}
	.st7{fill:#BECDEA;}
	.st8{fill:#A0D33C;}
	.st9{fill:#D6DCE5;}
	.st10{fill:#9AA3AD;}
	.st11{fill:#D9DEE2;}
	.st12{fill:#DD2F2F;}
	.st13{fill:#6E83A0;}
	.st14{opacity:0.31;fill:#FFFFFF;}
</style>
<g>
	<g>
		<g>
			<g>
				<path class="st0" d="M525.63,733.33c-18.27,0-36.43-4.93-50.23-15.05c-28.03-20.55-30.26-54.66-33.09-159.37
					c-1.36-50.3-2.36-101.36-2.98-151.77l23.78-0.29c0.61,50.29,1.61,101.23,2.97,151.41c2.72,100.65,5.37,127.63,23.38,140.84
					c21.57,15.81,61.08,13.4,79.78-4.86c13.56-13.25,13.79-39.79,14.25-92.66c0.19-21.42-0.79-42.99-2.91-64.1l23.66-2.37
					c2.2,21.96,3.23,44.4,3.03,66.68c-0.52,59.45-0.78,89.3-21.41,109.46C570.97,725.8,548.22,733.33,525.63,733.33z"/>
			</g>
		</g>
		<g>
			<path class="st1" d="M666.4,618.91H539.22c-14.13,0-25.58-11.45-25.58-25.58V345.51c0-14.13,11.45-25.58,25.58-25.58H666.4
				c14.13,0,25.58,11.45,25.58,25.58v247.82C691.98,607.46,680.53,618.91,666.4,618.91z"/>
		</g>
		<g>
			<path class="st2" d="M498.37,329.14c-0.79-37.5-23.39-67.43-50.47-66.85c-27.08,0.57-48.39,31.44-47.59,68.93
				c0.52,24.7,10.51,46.11,25,57.69c4.24,3.38,6.59,8.6,6.71,14.03l0.31,14.4c0.22,10.42,8.84,18.68,19.26,18.46l0,0
				c10.42-0.22,18.68-8.84,18.46-19.26l-0.31-14.4c-0.11-5.42,2.02-10.74,6.11-14.3C489.82,375.65,498.89,353.84,498.37,329.14z"/>
		</g>
		<g>
			<g>
				<circle class="st3" cx="666.72" cy="548.19" r="69.85"/>
				<path class="st4" d="M666.72,623.98c-41.79,0-75.79-34-75.79-75.79c0-41.79,34-75.79,75.79-75.79c41.79,0,75.79,34,75.79,75.79
					C742.51,589.98,708.51,623.98,666.72,623.98z M666.72,484.28c-35.24,0-63.91,28.67-63.91,63.91c0,35.24,28.67,63.91,63.91,63.91
					c35.24,0,63.91-28.67,63.91-63.91C730.62,512.95,701.96,484.28,666.72,484.28z"/>
			</g>
			<g>
				<polygon class="st5" points="700.9,551.16 660.77,551.16 660.77,525.89 669.69,525.89 669.69,542.24 700.9,542.24 				"/>
			</g>
		</g>
		<g class="st6">
			<path class="st7" d="M415.55,347.55c-1.46-4.47-7.73-25.25,2.97-47.56c9.08-18.94,24.81-27.34,29.72-29.72
				c-4.28,12.31-9.2,25.23-14.86,38.64C427.56,322.72,421.56,335.6,415.55,347.55z"/>
		</g>
	</g>
	<g>
		<path class="st8" d="M614.66,612.64l-25.78-30.37l7.17-39.19l-37.55-13.36l-13.36-37.55l-39.19,7.17l-30.37-25.78l-30.37,25.78
			l-39.19-7.17l-13.36,37.55l-37.55,13.36l7.17,39.19l-25.78,30.37L362.27,643l-7.17,39.19l37.55,13.36l13.36,37.55l39.19-7.17
			l30.37,25.78l30.37-25.78l39.19,7.17l13.36-37.55l37.55-13.36L588.88,643L614.66,612.64z M458.01,691.28l-65.75-84.4l29.3-22.82
			l37.96,48.73l70.69-81.7l28.08,24.3L458.01,691.28z"/>
		<polygon class="st3" points="459.51,632.79 421.56,584.06 392.26,606.88 458.01,691.28 558.28,575.39 530.2,551.09 		"/>
	</g>
</g>
<g>
	<g>
		<g>
			<path class="st9" d="M1536.89,584.76C1536.89,584.76,1536.89,584.76,1536.89,584.76l11.64,25.38l124.88,133.48
				c5.01,5.35,11.89,7.04,15.37,3.78c3.49-3.26,2.25-10.24-2.75-15.59l-125.66-134.32L1536.89,584.76z"/>
			<g>
				
					<rect x="1845.18" y="888.23" transform="matrix(0.7303 -0.6832 0.6832 0.7303 -133.2032 1520.1705)" class="st10" width="26.53" height="81.06"/>
			</g>
			<g>
				<path class="st10" d="M1931.8,933.82l-73.19,68.47c-5.35,5.01-13.74,4.73-18.75-0.62s-4.73-13.74,0.62-18.75l73.19-68.47
					c5.35-5.01,13.74-4.73,18.75,0.62C1937.43,920.42,1937.15,928.81,1931.8,933.82z"/>
			</g>
			<g>
				<path class="st10" d="M1666.7,695.41l-28.32,26.5c-5.26,4.92-13.5,4.64-18.42-0.61l-38.58-41.24
					c-4.92-5.26-4.64-13.5,0.61-18.42l28.32-26.5c5.26-4.92,13.5-4.64,18.42,0.61l38.58,41.24
					C1672.23,682.25,1671.95,690.49,1666.7,695.41z"/>
			</g>
			<g>
				<g>
					<path class="st11" d="M1686.37,665.86l172.22,184.09c16.96,18.13,20.16,42.66,7.15,54.83l-31.7,29.66
						c-13.01,12.17-37.28,7.34-54.23-10.78l-172.22-184.09c-16.96-18.13-20.16-42.66-7.15-54.83l31.7-29.66
						C1645.14,642.91,1669.41,647.74,1686.37,665.86z"/>
				</g>
				<path class="st12" d="M1685.43,670.74l122.51,130.95c-3.06,0.3-6.12,0.37-9.16,0.2c-30.1-1.73-44.51-26.77-75.52-27.93
					c-25.87-0.96-25,16.14-49.02,16.09c-4.8-0.01-9.93-0.7-15.21-1.99l-46.21-49.4c-15.63-16.7-18.57-39.32-6.59-50.53l29.21-27.33
					C1647.44,649.59,1669.8,654.04,1685.43,670.74z"/>
				<g>
					<path class="st13" d="M1714.58,696.02l9.06,9.69l-32.29,30.21c-1.92,1.8-5.5,1.09-8.01-1.59c-2.51-2.68-2.98-6.3-1.06-8.1
						L1714.58,696.02z"/>
				</g>
				<g>
					<path class="st13" d="M1759.9,744.46l9.06,9.69l-32.29,30.21c-1.92,1.8-5.5,1.09-8.01-1.59c-2.51-2.68-2.98-6.3-1.06-8.1
						L1759.9,744.46z"/>
				</g>
				<g>
					<path class="st13" d="M1805.21,792.89l9.06,9.69l-32.29,30.21c-1.92,1.8-5.5,1.09-8.01-1.59c-2.51-2.68-2.98-6.3-1.06-8.1
						L1805.21,792.89z"/>
				</g>
				<path class="st14" d="M1831.65,922.55L1819.42,934c-4.54,4.25-11.66,4.01-15.91-0.53l-206.14-220.35
					c-4.25-4.54-4.01-11.66,0.53-15.91l12.23-11.44L1831.65,922.55z"/>
			</g>
		</g>
		<path class="st12" d="M1526.86,578.86c-5.66-2.05-14.4-4.87-25.42-6.99c-11.74-2.26-14.64-1.52-20.05-4.14
			c-13.14-6.36-22.8-23.63-18.32-30.33c4.21-6.3,21.83-4.59,32.54,3.47c5.74,4.32,6.46,8.18,14.59,19.05
			C1516.58,568.45,1522.65,574.78,1526.86,578.86z"/>
	</g>
	<g>
		<path class="st8" d="M1762.66,900.38l-25.78-30.37l7.17-39.19l-37.55-13.36l-13.36-37.55l-39.19,7.17l-30.37-25.78l-30.37,25.78
			l-39.19-7.17l-13.36,37.55l-37.55,13.36l7.17,39.19l-25.78,30.37l25.78,30.37l-7.17,39.19l37.55,13.36l13.36,37.55l39.19-7.17
			l30.37,25.78l30.37-25.78l39.19,7.17l13.36-37.55l37.55-13.36l-7.17-39.19L1762.66,900.38z M1606.01,979.03l-65.75-84.4
			l29.3-22.82l37.96,48.73l70.69-81.7l28.08,24.3L1606.01,979.03z"/>
		<polygon class="st3" points="1607.51,920.53 1569.56,871.8 1540.26,894.62 1606.01,979.03 1706.28,863.13 1678.2,838.83 		"/>
	</g>
</g>
</svg>
