<?xml version="1.0" encoding="utf-8"?>
<!-- Generator: Adobe Illustrator 24.0.2, SVG Export Plug-In . SVG Version: 6.00 Build 0)  -->
<svg version="1.1" id="Layer_1" xmlns="http://www.w3.org/2000/svg" xmlns:xlink="http://www.w3.org/1999/xlink" x="0px" y="0px"
	 viewBox="0 0 1080 983" style="enable-background:new 0 0 1080 983;" xml:space="preserve">
<style type="text/css">
	.st0{fill:#091B47;}
	.st1{fill:#203675;}
	.st2{fill:#406991;}
	.st3{fill:#FFFFFF;}
	.st4{fill:#BCBCBC;}
	.st5{fill:#43484C;}
	.st6{opacity:0.12;}
	.st7{fill:#BECDEA;}
	.st8{fill:#D6DCE5;}
	.st9{fill:#9AA3AD;}
	.st10{fill:#D9DEE2;}
	.st11{fill:#DD2F2F;}
	.st12{fill:#6E83A0;}
	.st13{opacity:0.31;fill:#FFFFFF;}
	.st14{fill:#A0D33C;}
</style>
<g>
	<g>
		<g>
			<path class="st0" d="M466.89,741.54c-18.27,0-36.43-4.93-50.23-15.05c-28.03-20.55-30.26-54.66-33.09-159.37
				c-1.36-50.3-2.36-101.36-2.98-151.77l23.78-0.29c0.61,50.29,1.61,101.23,2.97,151.41c2.72,100.65,5.37,127.63,23.38,140.84
				c21.57,15.81,61.08,13.4,79.78-4.86c13.56-13.25,13.8-39.79,14.25-92.66c0.19-21.42-0.79-42.99-2.91-64.1l23.66-2.37
				c2.2,21.96,3.23,44.4,3.03,66.68c-0.52,59.45-0.78,89.3-21.41,109.46C512.22,734.01,489.47,741.54,466.89,741.54z"/>
		</g>
	</g>
	<g>
		<path class="st1" d="M607.65,627.12H480.48c-14.13,0-25.58-11.45-25.58-25.58V353.72c0-14.13,11.45-25.58,25.58-25.58h127.18
			c14.13,0,25.58,11.45,25.58,25.58v247.82C633.24,615.66,621.78,627.12,607.65,627.12z"/>
	</g>
	<g>
		<path class="st2" d="M439.62,337.35c-0.79-37.5-23.39-67.43-50.47-66.85c-27.08,0.57-48.39,31.44-47.59,68.93
			c0.52,24.7,10.51,46.11,25,57.69c4.24,3.38,6.59,8.6,6.71,14.03l0.31,14.4c0.22,10.42,8.84,18.68,19.26,18.46h0
			c10.42-0.22,18.68-8.84,18.46-19.26l-0.31-14.4c-0.11-5.42,2.02-10.74,6.11-14.3C431.08,383.86,440.15,362.04,439.62,337.35z"/>
	</g>
	<g>
		<g>
			<circle class="st3" cx="607.97" cy="556.39" r="69.85"/>
			<path class="st4" d="M607.97,632.19c-41.79,0-75.79-34-75.79-75.79s34-75.79,75.79-75.79c41.79,0,75.79,34,75.79,75.79
				S649.76,632.19,607.97,632.19z M607.97,492.49c-35.24,0-63.91,28.67-63.91,63.91s28.67,63.91,63.91,63.91
				c35.24,0,63.91-28.67,63.91-63.91S643.21,492.49,607.97,492.49z"/>
		</g>
		<g>
			<polygon class="st5" points="642.15,559.36 602.03,559.36 602.03,534.1 610.94,534.1 610.94,550.45 642.15,550.45 			"/>
		</g>
	</g>
	<g class="st6">
		<path class="st7" d="M356.81,355.76c-1.46-4.47-7.73-25.25,2.97-47.56c9.08-18.94,24.81-27.34,29.72-29.72
			c-4.28,12.31-9.2,25.23-14.86,38.64C368.82,330.92,362.81,343.81,356.81,355.76z"/>
	</g>
</g>
<g>
	<g>
		<path class="st8" d="M1310.15,534.97C1310.15,534.97,1310.14,534.97,1310.15,534.97l11.64,25.38l124.88,133.48
			c5.01,5.35,11.89,7.04,15.37,3.78s2.25-10.24-2.75-15.59L1333.62,547.7L1310.15,534.97z"/>
		<g>
			
				<rect x="1618.44" y="838.44" transform="matrix(0.7303 -0.6832 0.6832 0.7303 -160.3488 1351.8324)" class="st9" width="26.53" height="81.06"/>
		</g>
		<g>
			<path class="st9" d="M1705.05,884.02l-73.19,68.47c-5.35,5.01-13.74,4.73-18.75-0.62c-5.01-5.35-4.73-13.74,0.62-18.75
				l73.19-68.47c5.35-5.01,13.74-4.73,18.75,0.62C1710.68,870.62,1710.4,879.02,1705.05,884.02z"/>
		</g>
		<g>
			<path class="st9" d="M1439.95,645.62l-28.32,26.5c-5.26,4.92-13.5,4.64-18.42-0.61l-38.58-41.24c-4.92-5.26-4.64-13.5,0.61-18.42
				l28.32-26.5c5.26-4.92,13.5-4.64,18.42,0.61l38.58,41.24C1445.48,632.45,1445.21,640.7,1439.95,645.62z"/>
		</g>
		<g>
			<g>
				<path class="st10" d="M1459.62,616.07l172.22,184.09c16.96,18.13,20.16,42.66,7.15,54.83l-31.7,29.66
					c-13.01,12.17-37.28,7.34-54.23-10.78l-172.22-184.09c-16.96-18.13-20.16-42.66-7.15-54.83l31.7-29.66
					C1418.4,593.12,1442.67,597.95,1459.62,616.07z"/>
			</g>
			<path class="st11" d="M1458.68,620.95l122.51,130.95c-3.06,0.3-6.12,0.37-9.16,0.2c-30.1-1.73-44.51-26.77-75.52-27.93
				c-25.87-0.96-25,16.14-49.02,16.09c-4.8-0.01-9.93-0.7-15.21-1.99l-46.21-49.4c-15.63-16.7-18.57-39.32-6.59-50.53l29.21-27.33
				C1420.69,599.8,1443.06,604.25,1458.68,620.95z"/>
			<g>
				<path class="st12" d="M1487.84,646.23l9.06,9.69l-32.29,30.21c-1.92,1.8-5.5,1.09-8.01-1.59c-2.51-2.68-2.98-6.3-1.06-8.1
					L1487.84,646.23z"/>
			</g>
			<g>
				<path class="st12" d="M1533.15,694.66l9.06,9.69l-32.29,30.21c-1.92,1.8-5.5,1.09-8.01-1.59c-2.51-2.68-2.98-6.3-1.06-8.1
					L1533.15,694.66z"/>
			</g>
			<g>
				<path class="st12" d="M1578.46,743.1l9.06,9.69l-32.29,30.21c-1.92,1.8-5.5,1.09-8.01-1.59c-2.51-2.68-2.98-6.3-1.06-8.1
					L1578.46,743.1z"/>
			</g>
			<path class="st13" d="M1604.9,872.76l-12.23,11.44c-4.54,4.25-11.66,4.01-15.91-0.53l-206.14-220.35
				c-4.25-4.54-4.01-11.66,0.53-15.91l12.23-11.44L1604.9,872.76z"/>
		</g>
	</g>
	<path class="st11" d="M1300.12,529.06c-5.66-2.05-14.4-4.87-25.42-6.99c-11.74-2.26-14.64-1.52-20.05-4.14
		c-13.14-6.36-22.8-23.63-18.32-30.33c4.21-6.3,21.83-4.59,32.54,3.47c5.74,4.32,6.46,8.18,14.59,19.05
		C1289.83,518.65,1295.91,524.99,1300.12,529.06z"/>
</g>
<g>
	<g>
		<g>
			<g>
				<path class="st0" d="M2507.63,454.33c-18.27,0-36.43-4.93-50.23-15.05c-28.03-20.55-30.26-54.66-33.09-159.37
					c-1.36-50.3-2.36-101.36-2.98-151.77l23.78-0.29c0.61,50.29,1.61,101.23,2.97,151.41c2.72,100.65,5.37,127.63,23.38,140.84
					c21.57,15.81,61.08,13.4,79.78-4.86c13.56-13.25,13.8-39.79,14.25-92.66c0.19-21.42-0.79-42.99-2.91-64.1l23.66-2.37
					c2.2,21.96,3.23,44.4,3.03,66.68c-0.52,59.45-0.78,89.3-21.41,109.46C2552.97,446.8,2530.22,454.33,2507.63,454.33z"/>
			</g>
		</g>
		<g>
			<path class="st1" d="M2648.4,339.91h-127.18c-14.13,0-25.58-11.45-25.58-25.58V66.51c0-14.13,11.45-25.58,25.58-25.58h127.18
				c14.13,0,25.58,11.45,25.58,25.58v247.82C2673.98,328.46,2662.53,339.91,2648.4,339.91z"/>
		</g>
		<g>
			<path class="st2" d="M2480.37,50.14c-0.79-37.5-23.39-67.43-50.47-66.85c-27.08,0.57-48.39,31.44-47.59,68.93
				c0.52,24.7,10.51,46.11,25,57.69c4.24,3.38,6.59,8.6,6.71,14.03l0.31,14.4c0.22,10.42,8.84,18.68,19.26,18.46l0,0
				c10.42-0.22,18.68-8.84,18.46-19.26l-0.31-14.4c-0.11-5.42,2.02-10.74,6.11-14.3C2471.82,96.65,2480.89,74.84,2480.37,50.14z"/>
		</g>
		<g>
			<g>
				<circle class="st3" cx="2648.72" cy="269.19" r="69.85"/>
				<path class="st4" d="M2648.72,344.98c-41.79,0-75.79-34-75.79-75.79s34-75.79,75.79-75.79s75.79,34,75.79,75.79
					S2690.51,344.98,2648.72,344.98z M2648.72,205.28c-35.24,0-63.91,28.67-63.91,63.91s28.67,63.91,63.91,63.91
					c35.24,0,63.91-28.67,63.91-63.91S2683.96,205.28,2648.72,205.28z"/>
			</g>
			<g>
				<polygon class="st5" points="2682.9,272.16 2642.77,272.16 2642.77,246.89 2651.69,246.89 2651.69,263.24 2682.9,263.24 				"/>
			</g>
		</g>
		<g class="st6">
			<path class="st7" d="M2397.55,68.55c-1.46-4.47-7.73-25.25,2.97-47.56c9.08-18.94,24.81-27.34,29.72-29.72
				c-4.28,12.31-9.2,25.23-14.86,38.64C2409.56,43.72,2403.56,56.6,2397.55,68.55z"/>
		</g>
	</g>
	<g>
		<path class="st14" d="M2596.66,333.64l-25.78-30.37l7.17-39.19l-37.55-13.36l-13.36-37.55l-39.19,7.17l-30.37-25.78l-30.37,25.78
			l-39.19-7.17l-13.36,37.55l-37.55,13.36l7.17,39.19l-25.78,30.37l25.78,30.37l-7.17,39.19l37.55,13.36l13.36,37.55l39.19-7.17
			l30.37,25.78l30.37-25.78l39.19,7.17l13.36-37.55l37.55-13.36l-7.17-39.19L2596.66,333.64z M2440.01,412.28l-65.75-84.4
			l29.3-22.82l37.96,48.73l70.69-81.7l28.08,24.3L2440.01,412.28z"/>
		<polygon class="st3" points="2441.51,353.79 2403.56,305.06 2374.26,327.88 2440.01,412.28 2540.28,296.39 2512.2,272.09 		"/>
	</g>
</g>
<g>
	<g>
		<g>
			<path class="st8" d="M2370.89,569.76C2370.89,569.76,2370.89,569.76,2370.89,569.76l11.64,25.38l124.88,133.48
				c5.01,5.35,11.89,7.04,15.37,3.78c3.49-3.26,2.25-10.24-2.75-15.59l-125.66-134.32L2370.89,569.76z"/>
			<g>
				
					<rect x="2679.18" y="873.23" transform="matrix(0.7303 -0.6832 0.6832 0.7303 102.0102 2085.8904)" class="st9" width="26.53" height="81.06"/>
			</g>
			<g>
				<path class="st9" d="M2765.8,918.82l-73.19,68.47c-5.35,5.01-13.74,4.73-18.75-0.62c-5-5.35-4.73-13.74,0.62-18.75l73.19-68.47
					c5.35-5.01,13.74-4.73,18.75,0.62S2771.15,913.81,2765.8,918.82z"/>
			</g>
			<g>
				<path class="st9" d="M2500.7,680.41l-28.32,26.5c-5.26,4.92-13.5,4.64-18.42-0.61l-38.58-41.24c-4.92-5.26-4.64-13.5,0.61-18.42
					l28.32-26.5c5.26-4.92,13.5-4.64,18.42,0.61l38.58,41.24C2506.23,667.25,2505.95,675.49,2500.7,680.41z"/>
			</g>
			<g>
				<g>
					<path class="st10" d="M2520.37,650.86l172.22,184.09c16.96,18.13,20.16,42.66,7.15,54.83l-31.7,29.66
						c-13.01,12.17-37.28,7.34-54.23-10.78l-172.22-184.09c-16.96-18.13-20.16-42.66-7.15-54.83l31.7-29.66
						C2479.14,627.91,2503.41,632.74,2520.37,650.86z"/>
				</g>
				<path class="st11" d="M2519.43,655.74l122.51,130.95c-3.06,0.3-6.12,0.37-9.16,0.2c-30.1-1.73-44.51-26.77-75.52-27.93
					c-25.87-0.96-25,16.14-49.02,16.09c-4.8-0.01-9.93-0.7-15.21-1.99l-46.21-49.4c-15.63-16.7-18.57-39.32-6.59-50.53l29.21-27.33
					C2481.44,634.59,2503.8,639.04,2519.43,655.74z"/>
				<g>
					<path class="st12" d="M2548.58,681.02l9.06,9.69l-32.29,30.21c-1.92,1.8-5.5,1.09-8.01-1.59c-2.51-2.68-2.98-6.3-1.06-8.1
						L2548.58,681.02z"/>
				</g>
				<g>
					<path class="st12" d="M2593.9,729.46l9.06,9.69l-32.29,30.21c-1.92,1.8-5.5,1.09-8.01-1.59c-2.51-2.68-2.98-6.3-1.06-8.1
						L2593.9,729.46z"/>
				</g>
				<g>
					<path class="st12" d="M2639.21,777.89l9.06,9.69l-32.29,30.21c-1.92,1.8-5.5,1.09-8.01-1.59c-2.51-2.68-2.98-6.3-1.06-8.1
						L2639.21,777.89z"/>
				</g>
				<path class="st13" d="M2665.65,907.55L2653.42,919c-4.54,4.25-11.66,4.01-15.91-0.53l-206.14-220.35
					c-4.25-4.54-4.01-11.66,0.53-15.91l12.23-11.44L2665.65,907.55z"/>
			</g>
		</g>
		<path class="st11" d="M2360.86,563.86c-5.66-2.05-14.4-4.87-25.42-6.99c-11.74-2.26-14.64-1.52-20.05-4.14
			c-13.14-6.36-22.8-23.63-18.32-30.33c4.21-6.3,21.83-4.59,32.54,3.47c5.74,4.32,6.46,8.18,14.59,19.05
			C2350.58,553.45,2356.65,559.78,2360.86,563.86z"/>
	</g>
	<g>
		<path class="st14" d="M2596.66,885.38l-25.78-30.37l7.17-39.19l-37.55-13.36l-13.36-37.55l-39.19,7.17l-30.37-25.78l-30.37,25.78
			l-39.19-7.17l-13.36,37.55l-37.55,13.36l7.17,39.19l-25.78,30.37l25.78,30.37l-7.17,39.19l37.55,13.36l13.36,37.55l39.19-7.17
			l30.37,25.78l30.37-25.78l39.19,7.17l13.36-37.55l37.55-13.36l-7.17-39.19L2596.66,885.38z M2440.01,964.03l-65.75-84.4
			l29.3-22.82l37.96,48.73l70.69-81.7l28.08,24.3L2440.01,964.03z"/>
		<polygon class="st3" points="2441.51,905.53 2403.56,856.8 2374.26,879.62 2440.01,964.03 2540.28,848.13 2512.2,823.83 		"/>
	</g>
</g>
</svg>
