<?xml version="1.0" encoding="utf-8"?>
<!-- Generator: Adobe Illustrator 24.0.2, SVG Export Plug-In . SVG Version: 6.00 Build 0)  -->
<svg version="1.1" id="Layer_1" xmlns="http://www.w3.org/2000/svg" xmlns:xlink="http://www.w3.org/1999/xlink" x="0px" y="0px"
	 viewBox="75 35 310 320" style="enable-background:new 0 0 462 379;" xml:space="preserve">
<style type="text/css">
	.st0{opacity:0.71;fill:#FFFFFF;}
	.st1{opacity:0.71;}
	.st2{fill:#FFFFFF;}
	.st3{fill:#0C1E59;}
	.st4{fill:#FFE578;}
	.st5{fill:#FFF8D9;}
	.st6{opacity:0.55;}
	.st7{fill:#BC9D1B;}
	.st8{fill:#C0C5FF;}
	.st9{clip-path:url(#SVGID_2_);fill:#EFE88F;}
	.st10{fill:#F8F9FF;}
	.st11{fill:#B71E16;}
	.st12{fill:#EAEADF;}
	.st13{fill:#343638;}
	.st14{fill:#F4D122;}
	.st15{fill:#6695F2;}
	.st16{fill:#E23D4A;}
	.st17{fill:#A8EF8E;}
	.st18{fill:#DDDDD4;}
</style>
<g>
	<circle class="st3" cx="231.13" cy="197.11" r="152.97"/>
	<g>
		<path class="st2" d="M162.23,162.51l0.18,94.71c0.04,21.3,17.32,38.55,38.63,38.55h65.6c21.33,0,38.63-17.29,38.63-38.63v-94.49
			l-71.39-45.62L162.23,162.51z"/>
	</g>
	<path class="st11" d="M330.07,160.2l-82.66-58.51c-6.2-4.39-14.44-4.61-20.87-0.56l-35.07,22.1v-18.01
		c0-10.38-8.41-18.79-18.79-18.79s-18.79,8.41-18.79,18.79v41.69l-20.21,12.74c-8.78,5.53-11.41,17.13-5.88,25.91
		c3.57,5.67,9.67,8.77,15.91,8.77c3.42,0,6.89-0.93,10-2.89l82.24-51.81l72.41,51.25c8.47,5.99,20.19,3.99,26.19-4.48
		S338.54,166.19,330.07,160.2z"/>
	<path class="st11" d="M203.24,295.77l-0.12-51.87c-0.03-14.02,11.33-25.41,25.35-25.41h16.71c14,0,25.35,11.35,25.35,25.35v51.37
		L203.24,295.77z"/>
	<g>
		<path class="st2" d="M294.18,300.82c-5.2,0-10.11-2.01-13.81-5.67c-3.73-3.69-5.81-8.61-5.84-13.86
			c-0.02-4.11,1.21-8.04,3.52-11.34h-23.68c-11.73,0-21.27-9.54-21.27-21.27c0-11.73,9.54-21.27,21.27-21.27h24.29
			c-2.67-3.44-4.12-7.66-4.12-12.04c0-5.59,2.39-10.93,6.56-14.66c3.61-3.22,8.25-4.99,13.09-4.99c5.59,0,10.93,2.39,14.66,6.56
			l30.88,34.57c6.9,7.72,6.6,19.54-0.68,26.9l-30.87,31.24C304.43,298.75,299.47,300.82,294.18,300.82z"/>
		<path class="st3" d="M299.95,286.88l30.88-31.24c3.02-3.05,3.14-7.92,0.28-11.12l-30.88-34.57c-2.99-3.35-8.13-3.64-11.47-0.65
			c-1.8,1.6-2.71,3.83-2.71,6.06c0,1.93,0.68,3.86,2.07,5.41l16.21,18.15h-49.96c-5.38,0-9.75,4.37-9.75,9.75
			c0,5.38,4.37,9.75,9.75,9.75h50.87l-16.84,17.04c-3.15,3.19-3.12,8.34,0.07,11.49C291.66,290.1,296.8,290.07,299.95,286.88z"/>
	</g>
</g>
</svg>
