<?xml version="1.0" encoding="iso-8859-1"?>
<!-- Generator: Adobe Illustrator 19.0.0, SVG Export Plug-In . SVG Version: 6.00 Build 0)  -->
<svg version="1.1" id="Capa_1" xmlns="http://www.w3.org/2000/svg" xmlns:xlink="http://www.w3.org/1999/xlink" x="0px" y="0px"
	 viewBox="0 0 480 480" style="enable-background:new 0 0 480 480;" xml:space="preserve">
<path style="fill:#FFBCAB;" d="M56,8h304v400H56V8z"/>
<path style="fill:#44FFE8;" d="M296,88h16V56H104v96h176v-48C280,95.163,287.163,88,296,88z"/>
<path style="fill:#FF7956;" d="M40,408h16V8H40C22.327,8,8,22.327,8,40v400C8,422.327,22.327,408,40,408z"/>
<path style="fill:#57565C;" d="M40,472h320v-64H40c-17.673,0-32,14.327-32,32S22.327,472,40,472z"/>
<path style="fill:#96C8EF;" d="M456,88H296c-8.837,0-16,7.163-16,16v160l48-48h128c8.837,0,16-7.163,16-16v-96
	C472,95.163,464.837,88,456,88z"/>
<g>
	<path style="fill:#353535;" d="M352,400H64V16h288v48h16V8c0-4.418-3.582-8-8-8H40C17.92,0.026,0.026,17.92,0,40v400
		c0.026,22.08,17.92,39.974,40,40h320c4.418,0,8-3.582,8-8V240h-16V400z M40,16h8v384h-8c-8.684,0.029-17.117,2.914-24,8.208V40
		C16,26.745,26.745,16,40,16z M352,464H40c-13.255,0-24-10.745-24-24s10.745-24,24-24h312V464z"/>
	<path style="fill:#353535;" d="M96,200h160v16H96V200z"/>
	<path style="fill:#353535;" d="M96,248h160v16H96V248z"/>
	<path style="fill:#353535;" d="M96,296h224v16H96V296z"/>
	<path style="fill:#353535;" d="M96,344h224v16H96V344z"/>
	<path style="fill:#353535;" d="M456,80H320V56c0-4.418-3.582-8-8-8H104c-4.418,0-8,3.582-8,8v96c0,4.418,3.582,8,8,8h168v104
		c-0.001,3.235,1.947,6.153,4.936,7.392c0.971,0.405,2.012,0.611,3.064,0.608c2.122,0,4.156-0.844,5.656-2.344L331.312,224H456
		c13.255,0,24-10.745,24-24v-96C480,90.745,469.255,80,456,80z M272,104v40H112V64h192v16h-8C282.745,80,272,90.745,272,104z
		 M464,200c0,4.418-3.582,8-8,8H328c-2.122,0-4.156,0.844-5.656,2.344L288,244.688V104c0-4.418,3.582-8,8-8h160c4.418,0,8,3.582,8,8
		V200z"/>
	<path style="fill:#353535;" d="M304,112h16v16h-16V112z"/>
	<path style="fill:#353535;" d="M336,112h112v16H336V112z"/>
	<path style="fill:#353535;" d="M304,176h144v16H304V176z"/>
	<path style="fill:#353535;" d="M304,144v16h8h136v-16H312H304z"/>
</g>
<g>
</g>
<g>
</g>
<g>
</g>
<g>
</g>
<g>
</g>
<g>
</g>
<g>
</g>
<g>
</g>
<g>
</g>
<g>
</g>
<g>
</g>
<g>
</g>
<g>
</g>
<g>
</g>
<g>
</g>
</svg>
