<?xml version="1.0" encoding="iso-8859-1"?>
<!-- Generator: Adobe Illustrator 19.0.0, SVG Export Plug-In . SVG Version: 6.00 Build 0)  -->
<svg version="1.1" id="Layer_1" xmlns="http://www.w3.org/2000/svg" xmlns:xlink="http://www.w3.org/1999/xlink" x="0px" y="0px"
	 viewBox="0 0 512 512" style="enable-background:new 0 0 512 512;" xml:space="preserve">
<path style="fill:#89BBE4;" d="M488.416,218.097h-32.887c-7.016,0-13.21-4.678-15.02-11.456
	c-4.365-16.355-10.848-31.844-19.135-46.159c-3.522-6.084-2.472-13.781,2.5-18.752l23.269-23.269c6.084-6.084,6.084-15.948,0-22.032
	l-31.57-31.571c-6.084-6.084-15.948-6.084-22.033,0l-23.269,23.269c-4.971,4.971-12.668,6.021-18.752,2.5
	c-14.314-8.287-29.803-14.771-46.158-19.135c-6.779-1.809-11.456-8.003-11.456-15.019V23.584c0-8.603-6.975-15.579-15.58-15.579
	h-44.648c-8.604,0-15.58,6.976-15.58,15.579v32.887c0,7.016-4.678,13.21-11.456,15.019c-16.355,4.365-31.844,10.848-46.159,19.135
	c-6.083,3.521-13.781,2.471-18.751-2.5L118.46,64.857c-6.083-6.084-15.947-6.084-22.032,0l-31.572,31.57
	c-6.083,6.084-6.083,15.948,0,22.032l23.271,23.269c4.971,4.971,6.022,12.668,2.5,18.752c-8.287,14.315-14.771,29.803-19.135,46.159
	c-1.809,6.779-8.003,11.456-15.019,11.456H23.584c-8.604,0-15.579,6.976-15.579,15.58v44.648c0,8.604,6.974,15.58,15.579,15.58
	h32.887c7.016,0,13.21,4.678,15.019,11.456c4.365,16.355,10.848,31.844,19.135,46.159c3.522,6.084,2.471,13.781-2.5,18.752
	l-23.271,23.271c-6.083,6.083-6.083,15.947,0,22.032l31.571,31.571c6.084,6.084,15.948,6.084,22.032-0.001l23.271-23.269
	c4.97-4.971,12.668-6.022,18.751-2.5c14.315,8.287,29.804,14.77,46.159,19.135c6.779,1.809,11.456,8.003,11.456,15.02v32.886
	c0,8.604,6.976,15.579,15.58,15.579h44.647c8.603,0,15.58-6.974,15.58-15.579v-32.886c0-7.016,4.678-13.21,11.456-15.02
	c16.355-4.365,31.844-10.848,46.158-19.135c6.084-3.522,13.781-2.471,18.752,2.5l23.269,23.269
	c6.084,6.084,15.948,6.084,22.033,0.001l31.57-31.571c6.084-6.084,6.084-15.948,0-22.032l-23.269-23.271
	c-4.971-4.971-6.022-12.668-2.5-18.752c8.287-14.315,14.771-29.803,19.135-46.159c1.809-6.779,8.003-11.456,15.02-11.456h32.887
	c8.604,0,15.579-6.975,15.579-15.58v-44.648C503.993,225.071,497.019,218.097,488.416,218.097z M255.999,347.597
	c-50.589,0-91.597-41.009-91.597-91.597s41.009-91.597,91.597-91.597c50.588,0,91.597,41.009,91.597,91.597
	S306.587,347.597,255.999,347.597z"/>
<path style="fill:#1F84CE;" d="M488.416,218.097h-32.887c-7.016,0-13.21-4.678-15.02-11.456
	c-4.365-16.355-10.848-31.844-19.135-46.159c-3.522-6.084-2.472-13.781,2.5-18.752l23.269-23.269c6.084-6.084,6.084-15.948,0-22.032
	l-31.57-31.571c-6.084-6.084-15.948-6.084-22.033,0l-23.269,23.269c-4.971,4.971-12.668,6.021-18.752,2.5
	c-14.314-8.287-29.803-14.771-46.158-19.135c-6.779-1.809-11.456-8.003-11.456-15.019V23.584c0-8.603-6.975-15.579-15.58-15.579
	h-44.648c-8.604,0-15.58,6.976-15.58,15.579v32.887c0,7.016-4.678,13.21-11.456,15.019c-16.355,4.365-31.844,10.848-46.159,19.135
	c-6.083,3.521-13.781,2.471-18.751-2.5L118.46,64.857c-6.083-6.084-15.947-6.084-22.032,0l-31.572,31.57
	c-6.083,6.084-6.083,15.948,0,22.032l23.271,23.269c4.971,4.971,6.022,12.668,2.5,18.752c-8.287,14.315-14.771,29.803-19.135,46.159
	c-1.809,6.779-8.003,11.456-15.019,11.456H23.584c-8.604,0-15.579,6.976-15.579,15.58v44.648c0,8.604,6.974,15.58,15.579,15.58
	h32.887c7.016,0,13.21,4.678,15.019,11.456c4.365,16.355,10.848,31.844,19.135,46.159c3.522,6.084,2.471,13.781-2.5,18.752
	l-23.271,23.271c-6.083,6.083-6.083,15.947,0,22.032l31.571,31.571c6.084,6.084,15.948,6.084,22.032-0.001l23.271-23.269
	c4.97-4.971,12.668-6.022,18.751-2.5c14.315,8.287,29.804,14.77,46.159,19.135c6.779,1.809,11.456,8.003,11.456,15.02v32.886
	c0,8.604,6.976,15.579,15.58,15.579h44.647c8.603,0,15.58-6.974,15.58-15.579v-32.886c0-7.016,4.678-13.21,11.456-15.02
	c16.355-4.365,31.844-10.848,46.158-19.135c6.084-3.522,13.781-2.471,18.752,2.5l23.269,23.269
	c6.084,6.084,15.948,6.084,22.033,0.001l31.57-31.571c6.084-6.084,6.084-15.948,0-22.032l-23.269-23.271
	c-4.971-4.971-6.022-12.668-2.5-18.752c8.287-14.315,14.771-29.803,19.135-46.159c1.809-6.779,8.003-11.456,15.02-11.456h32.887
	c8.604,0,15.579-6.975,15.579-15.58v-44.648C503.993,225.071,497.019,218.097,488.416,218.097z M255.999,347.597
	c-50.589,0-91.597-41.009-91.597-91.597s41.009-91.597,91.597-91.597c50.588,0,91.597,41.009,91.597,91.597
	S306.587,347.597,255.999,347.597z"/>
<path style="fill:#384148;" d="M255.999,142.498c-62.686,0-113.502,50.816-113.502,113.502S193.314,369.5,255.999,369.5
	s113.502-50.816,113.502-113.501S318.685,142.498,255.999,142.498z M255.999,335.673c-44.003,0-79.673-35.671-79.673-79.673
	s35.671-79.673,79.673-79.673s79.673,35.671,79.673,79.673S300.002,335.673,255.999,335.673z"/>
<g>
	<circle style="fill:#89BBE4;" cx="405.198" cy="255.996" r="8.006"/>
	<circle style="fill:#89BBE4;" cx="361.499" cy="150.504" r="8.006"/>
	<circle style="fill:#89BBE4;" cx="255.996" cy="106.805" r="8.006"/>
	<circle style="fill:#89BBE4;" cx="150.504" cy="150.504" r="8.006"/>
	<circle style="fill:#89BBE4;" cx="106.805" cy="255.996" r="8.006"/>
	<circle style="fill:#89BBE4;" cx="150.504" cy="361.499" r="8.006"/>
	<circle style="fill:#89BBE4;" cx="255.996" cy="405.198" r="8.006"/>
	<circle style="fill:#89BBE4;" cx="361.499" cy="361.499" r="8.006"/>
</g>
<path style="opacity:0.1;fill:#FFFFFF;enable-background:new    ;" d="M176.327,255.999c0-4.756,0.44-9.405,1.239-13.933
	l-94.644,94.643c2.363,5.057,4.922,10.004,7.703,14.808c3.522,6.084,2.471,13.781-2.5,18.752l-23.271,23.272
	c-6.083,6.083-6.083,15.947,0,22.032l31.571,31.571c6.084,6.084,15.948,6.084,22.032-0.001l23.271-23.269
	c4.97-4.971,12.668-6.022,18.751-2.5c7.685,4.449,15.719,8.359,24.033,11.719l104.656-104.656
	c-10.101,4.634-21.328,7.236-33.169,7.236C211.998,335.673,176.327,300.002,176.327,255.999z M447.143,118.46
	c6.084-6.084,6.084-15.948,0-22.032l-31.57-31.571c-6.084-6.084-15.948-6.084-22.033,0l-23.269,23.269
	c-4.971,4.971-12.668,6.021-18.752,2.5c-4.803-2.782-9.751-5.34-14.807-7.703l-94.644,94.644c4.526-0.798,9.176-1.239,13.933-1.239
	c44.003,0,79.673,35.671,79.673,79.673c0,11.841-2.603,23.068-7.236,33.17l104.657-104.656c-3.36-8.314-7.271-16.346-11.719-24.032
	c-3.522-6.084-2.472-13.781,2.5-18.752L447.143,118.46z"/>
<path d="M255.999,168.322c-48.346,0-87.679,39.333-87.679,87.679s39.333,87.679,87.679,87.679s87.679-39.333,87.679-87.679
	S304.346,168.322,255.999,168.322z M255.999,327.667c-39.518,0-71.668-32.15-71.668-71.668s32.15-71.668,71.668-71.668
	c39.518,0,71.668,32.15,71.668,71.668S295.517,327.667,255.999,327.667z M488.416,210.091h-32.887c-3.422,0-6.418-2.268-7.285-5.515
	c-4.487-16.814-11.196-32.999-19.942-48.106c-1.694-2.927-1.188-6.661,1.232-9.08l23.269-23.269
	c4.454-4.454,6.908-10.377,6.908-16.677s-2.453-12.223-6.908-16.677l-31.57-31.571c-4.454-4.454-10.377-6.907-16.677-6.907
	s-12.223,2.453-16.677,6.908l-23.269,23.269c-1.437,1.437-3.343,2.228-5.368,2.228c-1.303,0-2.586-0.345-3.712-0.996
	c-15.104-8.744-31.289-15.455-48.104-19.941c-3.248-0.868-5.516-3.863-5.516-7.285V23.584C301.909,10.58,291.329,0,278.323,0
	h-44.648C220.67,0,210.09,10.58,210.09,23.584v32.887c0,3.422-2.268,6.418-5.515,7.285c-16.815,4.487-33.001,11.197-48.106,19.942
	c-1.126,0.651-2.41,0.996-3.714,0.996c-2.024,0-3.93-0.791-5.367-2.228l-23.269-23.269c-4.454-4.454-10.377-6.908-16.677-6.908
	s-12.223,2.453-16.677,6.908l-31.571,31.57c-9.195,9.196-9.195,24.158,0,33.353l23.271,23.269c2.42,2.42,2.927,6.154,1.232,9.08
	c-8.745,15.107-15.455,31.292-19.941,48.105c-0.868,3.248-3.863,5.516-7.285,5.516H23.583C10.58,210.091,0,220.672,0,233.676v44.648
	c0,13.005,10.58,23.585,23.584,23.585h32.887c3.422,0,6.418,2.268,7.285,5.515c4.487,16.814,11.196,32.999,19.942,48.106
	c1.694,2.927,1.188,6.661-1.232,9.08l-23.271,23.271c-9.195,9.195-9.195,24.156,0,33.353l31.571,31.571
	c4.454,4.454,10.377,6.907,16.676,6.907c6.3,0,12.223-2.454,16.677-6.908l23.271-23.269c1.437-1.437,3.342-2.228,5.367-2.228
	c1.303,0,2.586,0.345,3.712,0.997c15.106,8.744,31.29,15.454,48.105,19.941c3.248,0.868,5.516,3.863,5.516,7.285v32.886
	c0,13.005,10.58,23.584,23.585,23.584h44.648c13.005,0,23.585-10.58,23.585-23.584V455.53c0-3.422,2.268-6.418,5.515-7.285
	c16.816-4.488,33-11.197,48.104-19.942c1.126-0.651,2.41-0.997,3.714-0.997c2.024,0,3.931,0.792,5.368,2.229l23.269,23.269
	c4.454,4.454,10.377,6.908,16.677,6.908c6.299,0,12.222-2.453,16.677-6.908l31.57-31.571c4.454-4.454,6.908-10.377,6.908-16.677
	c0-6.3-2.453-12.223-6.908-16.676l-23.269-23.271c-2.42-2.42-2.927-6.154-1.232-9.08c8.745-15.107,15.455-31.292,19.941-48.105
	c0.868-3.248,3.863-5.516,7.285-5.516h32.887c13.004,0,23.584-10.58,23.584-23.585v-44.648
	C511.999,220.672,501.42,210.091,488.416,210.091z M495.988,278.324c0,4.177-3.398,7.574-7.573,7.574h-32.887
	c-10.662,0-20.019,7.154-22.755,17.399c-4.123,15.451-10.29,30.326-18.328,44.211c-5.323,9.195-3.774,20.883,3.767,28.424
	l23.269,23.271c1.43,1.43,2.218,3.331,2.218,5.354c0,2.024-0.788,3.925-2.218,5.356l-31.57,31.57
	c-1.43,1.43-3.332,2.219-5.355,2.219c-2.024,0-3.926-0.788-5.356-2.219l-23.269-23.269c-4.461-4.462-10.388-6.918-16.689-6.918
	c-4.117,0-8.174,1.09-11.735,3.151c-13.884,8.038-28.758,14.204-44.212,18.328c-10.244,2.735-17.398,12.092-17.398,22.754v32.886
	c0,4.176-3.398,7.573-7.574,7.573h-44.648c-4.177,0-7.574-3.398-7.574-7.573v-32.886c0-10.662-7.154-20.019-17.398-22.755
	c-15.453-4.123-30.328-10.291-44.212-18.328c-3.56-2.061-7.618-3.151-11.735-3.151c-6.302,0-12.229,2.457-16.689,6.918
	l-23.271,23.269c-1.43,1.43-3.332,2.218-5.355,2.218s-3.925-0.788-5.355-2.218l-31.571-31.57c-2.954-2.953-2.954-7.759-0.001-10.711
	l23.271-23.271c7.541-7.541,9.09-19.229,3.767-28.424c-8.039-13.886-14.205-28.76-18.328-44.212
	c-2.735-10.244-12.092-17.398-22.754-17.398H23.582c-4.176,0-7.573-3.398-7.573-7.574v-44.648c0-4.177,3.398-7.574,7.573-7.574
	h32.887c10.662,0,20.019-7.154,22.755-17.399c4.123-15.451,10.29-30.326,18.328-44.211c5.323-9.195,3.774-20.883-3.767-28.424
	l-23.269-23.269c-2.954-2.954-2.954-7.758-0.001-10.711l31.572-31.569c1.43-1.43,3.332-2.219,5.356-2.219
	c2.023,0,3.925,0.788,5.355,2.218l23.269,23.269c4.461,4.462,10.387,6.919,16.689,6.918c4.116,0,8.174-1.09,11.735-3.151
	c13.885-8.039,28.759-14.205,44.213-18.328c10.244-2.735,17.398-12.092,17.398-22.754V23.583c0-4.176,3.398-7.573,7.574-7.573
	h44.648c4.177,0,7.574,3.398,7.574,7.573V56.47c0,10.662,7.154,20.019,17.399,22.755c15.453,4.123,30.327,10.29,44.211,18.328
	c3.561,2.061,7.619,3.15,11.735,3.15c6.301,0,12.228-2.457,16.689-6.918l23.269-23.269c1.43-1.43,3.332-2.219,5.356-2.219
	c2.024,0,3.925,0.788,5.356,2.218l31.57,31.571c1.43,1.43,2.218,3.332,2.218,5.356c0,2.023-0.788,3.925-2.218,5.355l-23.269,23.269
	c-7.541,7.541-9.09,19.229-3.767,28.424c8.039,13.886,14.205,28.76,18.328,44.212c2.735,10.244,12.092,17.398,22.754,17.398h32.887
	c4.176,0,7.573,3.398,7.573,7.574v44.65H495.988z M255.999,134.492C189,134.492,134.492,189,134.492,256
	S189,377.506,255.999,377.506S377.507,322.999,377.507,256S322.999,134.492,255.999,134.492z M255.999,361.496
	c-58.17,0-105.496-47.325-105.496-105.495s47.326-105.496,105.496-105.496s105.496,47.326,105.496,105.496
	S314.17,361.496,255.999,361.496z"/>
<g>
</g>
<g>
</g>
<g>
</g>
<g>
</g>
<g>
</g>
<g>
</g>
<g>
</g>
<g>
</g>
<g>
</g>
<g>
</g>
<g>
</g>
<g>
</g>
<g>
</g>
<g>
</g>
<g>
</g>
</svg>
