<svg xmlns="http://www.w3.org/2000/svg" fill="#BF7636" enable-background="new 0 0 64 64" height="64" width="64" style=""><rect id="backgroundrect" width="100%" height="100%" x="0" y="0" fill="none" stroke="none"/><g class="currentLayer" style=""><title>Layer 1</title><g id="svg_1" class="selected" fill-opacity="1" fill="#f0e3d0" filter=""><path d="m22 15c0-2.546-.408-5.063-1.214-7.479l-.066-.199c-.862-2.586-3.271-4.322-5.995-4.322-1.948 0-3.781 1.038-4.784 2.709l-.608 1.014c-.453.755-1.211 1.271-2.081 1.415l-1.241.208c-1.747.291-3.017 1.787-3.021 3.557-.004 1.548.819 2.884 2.149 3.549.746.373 1.493.551 2.264.551h.005l13.597-.003c.549 0 .995-.448.995-1zm-8-5c-1.103 0-2-.897-2-2s.897-2 2-2 2 .897 2 2-.897 2-2 2z" id="svg_2" fill="#f0e3d0" filter=""/><path d="m16 22.618c-.037-.019-.07-.043-.106-.063-.569.656-.894 1.478-.894 2.356 0 .208.036.413.072.618l5.066-1.9c-.039-.208-.071-.418-.093-.63h-2.427c-.559.001-1.118-.131-1.618-.381z" id="svg_3" fill="#f0e3d0" filter=""/><path d="m20.793 20.793c.133-.134.207-.312.207-.5v-2.293l-5 .001v1.381c0 .617.343 1.172.894 1.447.224.112.474.171.724.171h2.675c.189 0 .366-.073.5-.207z" id="svg_4" fill="#f0e3d0" filter=""/><path d="m26.155 32.965.272-.406c-.782-.194-1.576-.347-2.386-.437-1.254 1.62-2.753 3.005-4.472 4.126l-.429 2.145c-.021.104-.052.204-.088.301.04.048.081.093.121.14 2.815-1.239 5.241-3.259 6.982-5.869z" id="svg_5" fill="#f0e3d0" filter=""/><path d="m17.236 31.236c-.31-.154-.655-.236-1-.236-1.233 0-2.236 1.003-2.236 2.236v2.936c0 .263.107.521.293.707l.828.828c.189.189.441.293.708.293h1.352l.769-3.845c.033-.169.05-.342.05-.513v-1.17c0-.527-.292-1-.764-1.236z" id="svg_6" fill="#f0e3d0" filter=""/><path d="m12 36h-3.186c.237.664.233 1.367.009 2h3.798c-.403-.521-.621-1.158-.621-1.828z" id="svg_7" fill="#f0e3d0" filter=""/><path d="m20.763 25.532-4.951 1.856.817 1.635c.52.049 1.033.19 1.501.424.042.021.08.048.121.071l3.32-2.656c-.315-.418-.585-.863-.808-1.33z" id="svg_8" fill="#f0e3d0" filter=""/><path d="m22 30c5.426 0 10.527 2.113 14.364 5.95l.344.344 1.433.819c.87.498 1.487 1.324 1.736 2.27l1.472.981c-1.193-2.249-2.704-4.304-4.528-6.129l-.871-.871c-3.377-3.377-7.841-5.273-12.603-5.361l-2.496 1.997z" id="svg_9" fill="#f0e3d0" filter=""/><path d="m61 50.707c0-.188-.074-.366-.207-.5-.347-.347-1.018-.187-1.136.289l-.319 1.275 1.434.614c.137-.549.228-1.109.228-1.678z" id="svg_10" fill="#f0e3d0" filter=""/><path d="m23.514 44.959-3.324 4.155c-.123.153-.19.344-.19.54 0 .374.238.704.594.823l1.188.396c.841.277 1.807.058 2.372-.618l3.067-3.671c-1.292-.43-2.534-.969-3.707-1.625z" id="svg_11" fill="#f0e3d0" filter=""/><path d="m22.563 53c-.094 0-.187-.017-.281-.023l2.011 3.519c.177.311.51.504.868.504h.839c.551 0 1-.448 1-1v-.395c0-.198-.058-.39-.167-.554l-1.888-2.833c-.688.499-1.514.782-2.382.782z" id="svg_12" fill="#f0e3d0" filter=""/><path d="m6 36c-.154 0-.309.037-.448.106l-1.999.999c-.242.121-.416.321-.501.578-.084.254-.065.524.054.764.238.478.855.688 1.344.446l1.998-.999c.238-.119.416-.324.501-.578.084-.255.066-.525-.053-.763-.17-.341-.514-.553-.896-.553z" id="svg_13" fill="#f0e3d0" filter=""/><path d="m30.535 34.19c.038-.013.078-.014.117-.026-.718-.386-1.467-.705-2.23-.991l-.604.902c-1.812 2.717-4.281 4.873-7.193 6.296.526.498 1.081.962 1.658 1.397 2.164-.973 4.127-2.386 5.724-4.138.032-1.564 1.036-2.942 2.528-3.44z" id="svg_14" fill="#f0e3d0" filter=""/><path d="m28.244 40.239c-1.213 1.106-2.57 2.055-4.022 2.824.553.32 1.123.61 1.708.876 1.059-.447 2.065-.995 3.01-1.638-.318-.657-.539-1.351-.696-2.062z" id="svg_15" fill="#f0e3d0" filter=""/><path d="m21.534 32h-1.566c.021.155.032.312.032.472v.975c.541-.45 1.055-.93 1.534-1.447z" id="svg_16" fill="#f0e3d0" filter=""/><path d="m47.657 42.496-.567 2.263 1.414.566.138-.414c.238-.713.358-1.454.358-2.204 0-.188-.074-.366-.207-.5-.347-.348-1.017-.186-1.136.289z" id="svg_17" fill="#f0e3d0" filter=""/><path d="m50.377 54.031-.019.058c-.238.713-.358 1.454-.358 2.204 0 .188.074.366.207.5.347.347 1.017.186 1.136-.289l.414-1.655c-.329-.105-.642-.262-.919-.47z" id="svg_18" fill="#f0e3d0" filter=""/><path d="m53.251 50.378-2.408-.966c-.052.169-.101.34-.18.499l-.151.302c-.174.348-.409.649-.68.905l2.209 1.663c.522.393 1.352.198 1.646-.39l.188-.375c.082-.165.125-.349.125-.533 0-.489-.294-.923-.749-1.105z" id="svg_19" fill="#f0e3d0" filter=""/><path d="m48.251 47.378-2.516-1.006c-.153.35-.367.674-.645.953l-.599.6c-.088.088-.19.156-.285.234l2.778 1.667c.597.357 1.429.114 1.739-.507l.151-.302c.083-.166.126-.35.126-.534 0-.489-.294-.923-.749-1.105z" id="svg_20" fill="#f0e3d0" filter=""/><path d="m60.875 54.605-5.044-2.161c-.05.158-.094.317-.168.465l-.188.375c-.09.18-.201.344-.32.5l.621.248c1.604.643 3.292.968 5.019.968.113 0 .205-.092.205-.205 0-.082-.049-.157-.125-.19z" id="svg_21" fill="#f0e3d0" filter=""/><path d="m44 52.293c0 .188.074.366.207.5.347.348 1.017.186 1.136-.289l.29-1.158-1.381-.828c-.153.58-.252 1.172-.252 1.775z" id="svg_22" fill="#f0e3d0" filter=""/><path d="m53.657 46.496-.429 1.717.767.307c.237.095.452.222.654.365.232-.704.351-1.437.351-2.178 0-.188-.074-.366-.207-.5-.347-.348-1.018-.186-1.136.289z" id="svg_23" fill="#f0e3d0" filter=""/><path d="m57 58.293c0 .188.074.366.207.5.348.348 1.017.187 1.136-.289l.415-1.654c-.511-.068-1.018-.161-1.52-.28-.143.564-.238 1.138-.238 1.723z" id="svg_24" fill="#f0e3d0" filter=""/><path d="m39 59h-.839c-.763 0-1.48-.303-2.026-.807l-2.33.466c-.467.093-.805.505-.805.981v.36c0 .552.449 1 1 1h6c.551 0 1-.448 1-1 0-.535-.087-1.064-.251-1.573-.493.357-1.095.573-1.749.573z" id="svg_25" fill="#f0e3d0" filter=""/><path d="m37.248 41.723c.471-.315.752-.84.752-1.407 0-.604-.326-1.166-.852-1.467l-4.593-2.625c-.26-.148-.553-.224-.848-.224-.182 0-.364.029-.54.088-.698.232-1.167.884-1.167 1.62v.513c0 1.461.428 2.875 1.238 4.09.186.279.497.445.832.445h1.764c1.219 0 2.399-.358 3.414-1.033z" id="svg_26" fill="#f0e3d0" filter=""/><path d="m28.513 44.91 2.487.746v-1.12c-.348-.134-.677-.314-.954-.568-.497.337-1.008.652-1.533.942z" id="svg_27" fill="#f0e3d0" filter=""/><path d="m43.507 44.207-3.774-2.516c-.273.681-.746 1.276-1.376 1.696-.115.076-.239.132-.357.202v.911l2.887 2.165c.646.484 1.619.415 2.19-.156l.598-.599c.21-.209.325-.487.325-.783 0-.37-.184-.714-.493-.92z" id="svg_28" fill="#f0e3d0" filter=""/><path d="m38.161 57h.839c.551 0 1-.448 1-1v-.395c0-.198-.058-.39-.167-.554l-3.004-4.492c-.043.047-.076.102-.121.147-.576.576-1.287.958-2.058 1.149l2.644 4.641c.176.311.509.504.867.504z" id="svg_29" fill="#f0e3d0" filter=""/><path d="m36 44.451c-.702.193-1.427.305-2.166.305h-.834v4.658c0 .323.263.586.586.586.645 0 1.251-.251 1.707-.707s.707-1.063.707-1.707z" id="svg_30" fill="#f0e3d0" filter=""/><path d="m26 59h-.839c-.763 0-1.48-.303-2.026-.807l-2.33.466c-.467.093-.805.505-.805.981v.36c0 .552.449 1 1 1h6c.551 0 1-.448 1-1 0-.535-.087-1.064-.251-1.573-.493.357-1.095.573-1.749.573z" id="svg_31" fill="#f0e3d0" filter=""/></g></g><defs><filter xmlns:inkscape="http://www.inkscape.org/namespaces/inkscape" id="f001" inkscape:label="Matte jelly" x="0" y="0" width="1" height="1" inkscape:menu="ABCs" inkscape:menu-tooltip="Bulging, matte jelly covering" color-interpolation-filters="sRGB">
            <feColorMatrix values="1 0 0 0 0 0 1 0 0 0 0 0 1 0 0 0 0 0 0.85 0" result="result0" in="SourceGraphic"/>
            <feGaussianBlur in="SourceAlpha" stdDeviation="7"/>
            <feSpecularLighting surfaceScale="5" specularConstant=".9" specularExponent="25">
                <feDistantLight elevation="60" azimuth="225"/>
            </feSpecularLighting>
            <feComposite operator="atop" in2="result0"/>
        </filter></defs></svg>