<svg xmlns="http://www.w3.org/2000/svg" width="1920" height="1080" viewBox="0 0 1440 810" version="1.2"><path d="M.059 729h1439.824v81.16H.059zm0 0" fill="#407b26"/><path class="star" d="M118.672 81.285l4.305 8.711a.488.488 0 00.394.281l9.633 1.395c.414.066.59.59.281.871l-6.969 6.773c-.129.11-.171.286-.152.457l1.64 9.586c.063.414-.37.739-.742.543l-8.628-4.53a.48.48 0 00-.48 0l-8.63 4.53c-.37.196-.808-.129-.742-.543l1.637-9.586a.512.512 0 00-.153-.457l-6.945-6.773a.51.51 0 01.281-.871l9.637-1.395a.518.518 0 00.39-.28l4.305-8.712a.534.534 0 01.938 0zm425.449-28.969l4.3 8.711a.488.488 0 00.395.282l9.633 1.394c.414.067.59.59.285.871l-6.968 6.774c-.133.109-.176.285-.153.457l1.637 9.586c.066.414-.371.738-.742.543l-8.63-4.532a.48.48 0 00-.48 0l-8.628 4.532c-.372.195-.81-.13-.743-.543l1.641-9.586a.525.525 0 00-.156-.457l-6.946-6.774a.512.512 0 01.286-.87l9.632-1.395c.176-.02.305-.13.395-.282l4.3-8.71a.537.537 0 01.942 0zM320.934 248.703l4.3 8.715a.488.488 0 00.395.281l9.633 1.395c.414.066.59.586.285.87l-6.969 6.774c-.133.11-.176.285-.152.457l1.637 9.582c.066.414-.372.743-.743.547l-8.629-4.531a.48.48 0 00-.48 0l-8.629 4.531c-.371.196-.809-.133-.742-.547l1.64-9.582a.522.522 0 00-.156-.457l-6.945-6.773a.512.512 0 01.285-.871l9.633-1.395c.176-.02.305-.129.394-.281l4.301-8.715a.54.54 0 01.942 0zM66.3 498.02l4.302 8.714a.488.488 0 00.394.282l9.633 1.394c.414.067.59.586.285.871l-6.969 6.774c-.132.11-.175.285-.152.457l1.637 9.582c.066.414-.371.742-.743.547l-8.628-4.532a.48.48 0 00-.48 0l-8.63 4.532c-.37.195-.808-.133-.742-.547l1.637-9.582a.508.508 0 00-.153-.457l-6.945-6.774a.512.512 0 01.285-.87l9.633-1.395a.512.512 0 00.39-.282l4.305-8.714a.54.54 0 01.942 0zm361.325 103.43l4.305 8.71a.5.5 0 00.394.285l9.633 1.395c.414.062.59.586.281.87l-6.965 6.774c-.132.11-.175.282-.152.457l1.637 9.582c.066.414-.371.743-.742.543l-8.63-4.527a.462.462 0 00-.48 0l-8.629 4.527c-.37.2-.808-.129-.742-.543l1.637-9.582a.505.505 0 00-.152-.457l-6.946-6.773a.51.51 0 01.285-.871l9.633-1.395a.533.533 0 00.39-.285l4.305-8.71a.534.534 0 01.938 0zm146.902-181.817l4.301 8.71a.5.5 0 00.395.286l9.632 1.394c.415.063.59.586.286.872l-6.97 6.773c-.132.11-.175.281-.151.457l1.636 9.582c.067.414-.37.742-.742.547l-8.629-4.531a.48.48 0 00-.48 0l-8.63 4.53c-.37.196-.808-.132-.741-.546l1.64-9.582a.518.518 0 00-.156-.457l-6.945-6.773a.511.511 0 01.285-.872l9.633-1.394c.175-.024.304-.133.394-.285l4.3-8.711a.537.537 0 01.942 0zm311.45-291.778l4.304 8.715a.496.496 0 00.39.282l9.638 1.394c.414.066.586.586.28.871l-6.968 6.774c-.129.109-.172.28-.152.457l1.64 9.582c.063.414-.37.742-.746.547l-8.625-4.532a.48.48 0 00-.48 0l-8.63 4.532c-.37.195-.808-.133-.741-.547l1.636-9.582a.515.515 0 00-.152-.457l-6.945-6.774a.51.51 0 01.281-.87l9.633-1.395a.528.528 0 00.394-.282l4.305-8.715a.537.537 0 01.938 0zM855.57 650.441l4.305 8.711a.5.5 0 00.39.285l9.633 1.395c.418.063.59.586.286.871l-6.97 6.774c-.128.109-.171.28-.152.457l1.641 9.582c.063.414-.375.742-.746.547l-8.625-4.532a.462.462 0 00-.48 0l-8.63 4.532c-.37.195-.808-.133-.742-.547l1.637-9.582a.515.515 0 00-.152-.457l-6.945-6.774a.51.51 0 01.28-.871l9.634-1.394a.532.532 0 00.394-.286l4.305-8.71a.534.534 0 01.937 0zm161.055-259.777l4.3 8.711a.5.5 0 00.395.285l9.633 1.395c.414.062.59.586.285.87l-6.968 6.774c-.133.11-.176.281-.153.457l1.637 9.582c.066.414-.371.742-.742.547l-8.63-4.531a.462.462 0 00-.48 0l-8.629 4.531c-.37.195-.808-.133-.742-.547l1.637-9.582a.505.505 0 00-.152-.457l-6.946-6.773a.511.511 0 01.285-.871l9.633-1.395c.176-.023.305-.133.395-.285l4.3-8.71a.537.537 0 01.942 0zm304.918-112.992l4.3 8.715a.488.488 0 00.395.281l9.633 1.394c.414.067.59.59.285.872l-6.968 6.773c-.133.11-.176.285-.153.457l1.637 9.582c.066.414-.371.742-.742.547l-8.63-4.531a.48.48 0 00-.48 0l-8.629 4.531c-.37.195-.804-.133-.742-.547l1.64-9.582a.534.534 0 00-.151-.457l-6.95-6.773a.512.512 0 01.285-.872l9.633-1.394c.176-.02.305-.129.395-.281l4.3-8.715a.54.54 0 01.942 0zm30.407 343.801l4.3 8.71a.5.5 0 00.395.286l9.632 1.394c.414.063.59.586.285.871l-6.968 6.774c-.133.11-.176.281-.153.457l1.637 9.582c.067.414-.371.742-.742.543l-8.629-4.528a.462.462 0 00-.48 0l-8.63 4.528c-.37.2-.804-.13-.742-.543l1.641-9.582a.526.526 0 00-.152-.457l-6.95-6.774a.511.511 0 01.286-.87l9.632-1.395a.542.542 0 00.395-.285l4.3-8.711a.537.537 0 01.942 0zm0 0" fill="#fffacf"/><path d="M683.043 104.2c0-13.716 3.57-26.595 9.832-37.759-26.707 12.168-45.281 39.106-45.281 70.38 0 42.687 34.597 77.296 77.281 77.296 28.969 0 54.21-15.945 67.445-39.535-9.75 4.441-20.586 6.918-32 6.918-42.68-.004-77.277-34.613-77.277-77.3zm0 0" fill="#f5f5f5"/></svg>