<svg xmlns="http://www.w3.org/2000/svg" viewBox="0 0 512 512"><path d="M163.865 117.785c-.314 0-.629-.01-.946-.029-7.983-.482-14.184-6.94-14.515-14.76-1.361-2.517-7.484-9.822-23.799-20.534-14.125-9.276-27.087-15.263-31.4-16.387-8.261-2.156-13.213-10.601-11.058-18.862 2.155-8.26 10.601-13.208 18.862-11.058 10.216 2.665 28.967 12.405 44.583 23.16 23.806 16.394 34.511 30.357 33.691 43.941-.495 8.205-7.306 14.528-15.418 14.529zm-15.237-14.316zm-.209-2.077l-.001.011.001-.011zm334.712 341.789c-1.901 0-3.835-.353-5.71-1.099-18.958-7.542-27.655-20.474-34.643-30.865-6.107-9.08-9.951-14.364-17.958-17.379-7.991-3.009-12.029-11.926-9.02-19.917 3.011-7.992 11.93-12.027 19.917-9.02 17.644 6.645 26.003 19.073 32.72 29.06 5.78 8.596 10.346 15.385 20.415 19.391 7.933 3.156 11.806 12.147 8.65 20.08-2.412 6.059-8.224 9.749-14.371 9.749zM415.536 149.56c-6.293 0-12.206-3.87-14.509-10.118-2.952-8.012 1.15-16.9 9.161-19.853 2.708-.998 5.513-1.892 8.483-2.84 15.299-4.884 32.64-10.418 42.581-32.366 3.524-7.778 12.686-11.225 20.462-7.705 7.778 3.523 11.228 12.684 7.705 20.462-15.612 34.468-44.241 43.605-61.346 49.066-2.636.84-5.125 1.636-7.193 2.398a15.472 15.472 0 01-5.344.956zm-67.962-72.708c-1.723 0-3.474-.29-5.191-.901-8.042-2.867-12.238-11.711-9.373-19.754.118-.329.251-.712.4-1.142 1.753-5.055 5.401-15.572 12.547-26.283 9.517-14.261 21.739-23.72 36.327-28.113 8.175-2.457 16.799 2.17 19.262 10.346 2.462 8.176-2.171 16.8-10.346 19.262-18.386 5.536-26.057 27.652-28.577 34.92-.182.524-.343.99-.486 1.392-2.255 6.327-8.21 10.273-14.563 10.273zM72.669 475.299c-1.59 0-3.208-.248-4.801-.767-8.117-2.65-12.548-11.379-9.899-19.495 8.522-26.102 33.155-34.375 51.141-40.415 5.362-1.801 10.425-3.502 14.073-5.322 7.641-3.814 16.924-.709 20.737 6.93 3.813 7.641.71 16.925-6.93 20.737-5.572 2.78-11.909 4.909-18.037 6.966-16.848 5.659-28.148 10.156-31.59 20.7-2.13 6.524-8.185 10.666-14.694 10.666zM329.403 512a15.39 15.39 0 01-8.115-2.312c-19.155-11.843-35.192-39.323-37.303-63.921-.73-8.507 5.574-15.996 14.081-16.726 8.516-.726 15.997 5.575 16.726 14.081 1.265 14.737 11.898 33.553 22.755 40.266 7.263 4.49 9.511 14.018 5.02 21.28-2.922 4.729-7.984 7.332-13.164 7.332zM28.852 296.522a15.398 15.398 0 01-9.978-3.658c-6.518-5.516-7.331-15.271-1.817-21.789 21.686-25.631 47.305-36.216 70.279-29.042 8.151 2.546 12.694 11.216 10.15 19.365-2.546 8.152-11.218 12.695-19.365 10.15-12.233-3.818-27.365 7.57-37.458 19.5a15.428 15.428 0 01-11.811 5.474z" fill="#7fdbd5"/><path d="M401.027 139.441c2.303 6.249 8.216 10.119 14.509 10.119 1.774 0 3.58-.308 5.343-.957 2.067-.762 4.556-1.557 7.193-2.398 3.516-1.122 7.524-2.406 11.801-4.028l1.178-23.611a93.358 93.358 0 00-.101-10.977c-7.207 4.343-14.975 6.828-22.279 9.159-2.97.948-5.775 1.843-8.483 2.84-8.01 2.953-12.113 11.842-9.161 19.853zm-65.329 345.611c1.324 0 2.645-.03 3.964-.074a15.47 15.47 0 00-2.114-1.59c-10.857-6.712-21.49-25.528-22.755-40.266-.73-8.506-8.21-14.807-16.726-14.081-8.507.731-14.811 8.219-14.081 16.726.9 10.483 4.336 21.487 9.458 31.583 13.624 5.11 27.807 7.702 42.254 7.702zm100.018-120.151c-7.987-3.006-16.907 1.029-19.917 9.021-3.009 7.991 1.03 16.907 9.02 19.917 8.007 3.014 11.852 8.299 17.958 17.378.837 1.244 1.699 2.526 2.6 3.83a118.295 118.295 0 0010.397-37.254c-5.073-5.035-11.457-9.652-20.058-12.892zM333.41 55.055c-.149.431-.282.813-.4 1.142-2.866 8.043 1.331 16.887 9.373 19.754 1.716.611 3.467.901 5.191.901 6.353 0 12.308-3.947 14.563-10.274.143-.402.304-.868.486-1.392 2.37-6.835 9.299-26.801 25.41-33.759-11.77-5.383-24.645-8.273-37.72-8.273-.088 0-.175.004-.263.004a84.683 84.683 0 00-4.093 5.613c-7.146 10.712-10.793 21.23-12.547 26.284zM118.954 443.933c6.128-2.057 12.465-4.186 18.037-6.966 7.639-3.813 10.743-13.097 6.93-20.737-3.814-7.639-13.097-10.744-20.737-6.93-3.648 1.821-8.712 3.522-14.073 5.323-8.681 2.915-18.907 6.357-28.126 12.066a134.49 134.49 0 0028.34 20.642c2.967-1.125 6.174-2.238 9.629-3.398zm37.981-376.184l-3.32 6.441a22.505 22.505 0 01-15.437 11.726l-6.581 1.364c11.138 8.083 15.662 13.597 16.807 15.716.331 7.82 6.532 14.277 14.515 14.759.317.019.632.029.946.029 8.111-.001 14.923-6.324 15.418-14.529.676-11.194-6.485-22.648-22.348-35.506zM47.385 250.962a12.633 12.633 0 013.596 12.414l-5.97 22.905c9.782-9.961 22.529-18.035 33.109-14.733 8.148 2.546 16.82-1.998 19.366-10.15 2.544-8.15-1.999-16.82-10.15-19.366-13.876-4.333-28.716-2.177-43.073 5.85a93.57 93.57 0 003.122 3.08z" opacity=".15"/><path d="M335.699 470.051c-14.642 0-28.991-3.041-42.647-9.042l-19.183-8.428a92.19 92.19 0 00-37.303-7.833c-2.158 0-4.344.077-6.496.229l-47.714 3.349c-2.865.2-5.766.302-8.622.302-37.425 0-72.069-17.056-95.052-46.795-22.946-29.693-30.676-67.564-21.205-103.902l11.39-43.705a5.182 5.182 0 00-1.475-5.092l-9.761-9.129C36.863 220.575 28.74 191.5 36.43 164.123c7.691-27.377 29.765-47.968 57.609-53.74l62.287-12.911a5.157 5.157 0 003.555-2.701l14.235-27.616c13.062-25.344 38.915-41.089 67.468-41.089 21.552 0 42.157 9.25 56.532 25.376 1.346 1.51 3.012 1.735 3.885 1.735.843 0 1.655-.204 2.412-.606l10.396-5.514c10.983-5.825 23.26-8.904 35.505-8.904 20.663 0 40.742 8.649 55.089 23.726 14.373 15.108 21.713 34.974 20.668 55.938l-2.352 47.155a5.167 5.167 0 004.4 5.381l3.078.466c27.424 4.152 49.678 22.11 59.53 48.039 9.851 25.929 5.136 54.135-12.613 75.451l-36.992 44.424a5.21 5.21 0 00-1.177 3.786l1.091 11.922c2.751 30.013-6.85 58.726-27.035 80.847-20.161 22.094-48.701 34.763-78.302 34.763z" fill="#287d99"/><path d="M205.511 83.339l-14.235 27.618a40.501 40.501 0 01-27.782 21.103l-62.287 12.91c-32.152 6.664-43.428 46.808-19.449 69.239l9.762 9.132a40.503 40.503 0 0111.525 39.793l-11.389 43.704c-14.664 56.269 30.221 110.325 88.227 106.253l47.713-3.349a128.059 128.059 0 0160.481 10.503l19.182 8.427c49.185 21.609 103.506-17.511 98.602-71.009l-1.092-11.914a40.505 40.505 0 019.209-29.615l36.993-44.426c20.189-24.245 6.131-61.243-25.064-65.965l-3.075-.465c-20.563-3.113-35.427-21.293-34.391-42.065l2.352-47.153c1.566-31.392-31.666-52.527-59.432-37.799l-10.396 5.514c-16.481 8.742-36.802 5.096-49.215-8.831-18.911-21.213-53.218-16.866-66.239 8.395z" fill="#7fdbd5"/><circle cx="325.11" cy="379.37" r="18.874" fill="#287d99"/><circle cx="374.08" cy="296.33" r="18.874" opacity=".2"/><circle cx="248.54" cy="124.54" r="16.1" fill="#287d99"/><circle cx="142.17" cy="321.5" r="16.1" opacity=".2"/><g fill="#fff"><ellipse cx="189.64" cy="240.21" rx="25.788" ry="20.536"/><ellipse cx="329.42" cy="240.21" rx="25.788" ry="20.536"/></g><g fill="#495059"><path d="M193.95 223.457a7.499 7.499 0 01-7.5-7.5v-11.068c0-4.143 3.357-7.5 7.5-7.5s7.5 3.357 7.5 7.5v11.068c0 4.143-3.357 7.5-7.5 7.5z"/><ellipse cx="259.53" cy="224.43" rx="20.791" ry="23.266"/><path d="M325.107 223.457a7.499 7.499 0 01-7.5-7.5v-11.068c0-4.143 3.357-7.5 7.5-7.5s7.5 3.357 7.5 7.5v11.068c0 4.143-3.357 7.5-7.5 7.5z"/></g><path d="M236.566 444.749a92.19 92.19 0 0137.303 7.833l19.182 8.428c13.656 6.001 28.005 9.042 42.647 9.042 15.514 0 30.735-3.486 44.612-9.979-122.909-16.437-189.758-42.461-178.806-108.63 2.697-16.292 28.254-63.978-20.798-112.251-38.771-38.157-26.999-121.852-.39-182.066a76.598 76.598 0 00-6.202 10.032l-14.235 27.616a5.159 5.159 0 01-3.555 2.701l-62.287 12.911c-27.844 5.772-49.918 26.363-57.609 53.74s.432 56.452 21.2 75.882l9.761 9.129a5.18 5.18 0 011.475 5.092l-11.39 43.705c-9.471 36.338-1.741 74.209 21.205 103.902 22.983 29.74 57.627 46.795 95.052 46.795 2.856 0 5.757-.102 8.622-.302l47.714-3.35a92.179 92.179 0 016.499-.23z" opacity=".15"/><path d="M264.673 330.854a7.5 7.5 0 01-6.467-11.286c.789-1.35 1.536-2.74 2.259-4.085 4.662-8.678 10.45-19.494 29.924-18.503a7.498 7.498 0 017.115 7.865c-.207 4.136-3.7 7.341-7.865 7.115-9.984-.494-11.612 2.53-15.961 10.622-.785 1.461-1.597 2.973-2.522 4.556a7.503 7.503 0 01-6.483 3.716zm79.306-187.134a7.478 7.478 0 01-2.875-.576c-10.685-4.441-22.66-21.216-23.465-30.032a7.5 7.5 0 016.787-8.15c4.105-.38 7.748 2.641 8.147 6.743.59 3.553 8.7 15.267 14.287 17.588a7.5 7.5 0 01-2.881 14.427zM114.35 193.705c-1.413 0-2.893-.061-4.449-.191a7.501 7.501 0 011.256-14.948c8.796.739 13.535-1.551 19.033-4.202 5.349-2.579 11.397-5.507 20.452-5.263a7.5 7.5 0 11-.4 14.994c-5.383-.129-8.992 1.587-13.536 3.779-5.459 2.633-12.091 5.831-22.356 5.831zm49.019 181.042c-2.906 0-6.087-.567-9.584-1.95a7.5 7.5 0 01-4.218-9.732 7.5 7.5 0 019.731-4.218c5.303 2.096 7.941.373 13.92-4.074 5.129-3.813 11.518-8.547 20.808-8.468a7.5 7.5 0 01-.074 15l-.193-.001c-3.983 0-7.008 2.099-11.588 5.505-4.696 3.494-10.673 7.938-18.802 7.938zm251.432-120.502a7.472 7.472 0 01-2.724-.515c-6.429-2.508-21.869-9.082-26.369-15.953a7.5 7.5 0 0112.516-8.268c1.674 2.096 10.674 6.874 19.307 10.247a7.5 7.5 0 01-2.73 14.489z" opacity=".1"/></svg>