<?xml version="1.0" encoding="iso-8859-1"?>
<!-- Generator: Adobe Illustrator 19.0.0, SVG Export Plug-In . SVG Version: 6.00 Build 0)  -->
<svg version="1.1" id="Capa_1" xmlns="http://www.w3.org/2000/svg" xmlns:xlink="http://www.w3.org/1999/xlink" x="0px" y="0px"
	 viewBox="0 0 512 512" style="enable-background:new 0 0 512 512;" xml:space="preserve">
<g>
	<path style="fill:#7FDBD5;" d="M163.865,117.785c-0.314,0-0.629-0.01-0.946-0.029c-7.983-0.482-14.184-6.94-14.515-14.76
		c-1.361-2.517-7.484-9.822-23.799-20.534c-14.125-9.276-27.087-15.263-31.4-16.387c-8.261-2.156-13.213-10.601-11.058-18.862
		c2.155-8.26,10.601-13.208,18.862-11.058c10.216,2.665,28.967,12.405,44.583,23.16c23.806,16.394,34.511,30.357,33.691,43.941
		C178.788,111.461,171.977,117.784,163.865,117.785z M148.628,103.469L148.628,103.469L148.628,103.469z M148.419,101.392
		c0,0.003,0,0.007-0.001,0.011C148.419,101.399,148.419,101.395,148.419,101.392z"/>
	<path style="fill:#7FDBD5;" d="M483.131,443.181c-1.901,0-3.835-0.353-5.71-1.099c-18.958-7.542-27.655-20.474-34.643-30.865
		c-6.107-9.08-9.951-14.364-17.958-17.379c-7.991-3.009-12.029-11.926-9.02-19.917c3.011-7.992,11.93-12.027,19.917-9.02
		c17.644,6.645,26.003,19.073,32.72,29.06c5.78,8.596,10.346,15.385,20.415,19.391c7.933,3.156,11.806,12.147,8.65,20.08
		C495.09,439.491,489.278,443.181,483.131,443.181z"/>
	<path style="fill:#7FDBD5;" d="M415.536,149.56c-6.293,0-12.206-3.87-14.509-10.118c-2.952-8.012,1.15-16.9,9.161-19.853
		c2.708-0.998,5.513-1.892,8.483-2.84c15.299-4.884,32.64-10.418,42.581-32.366c3.524-7.778,12.686-11.225,20.462-7.705
		c7.778,3.523,11.228,12.684,7.705,20.462c-15.612,34.468-44.241,43.605-61.346,49.066c-2.636,0.84-5.125,1.636-7.193,2.398
		C419.116,149.252,417.311,149.56,415.536,149.56z"/>
	<path style="fill:#7FDBD5;" d="M347.574,76.852c-1.723,0-3.474-0.29-5.191-0.901c-8.042-2.867-12.238-11.711-9.373-19.754
		c0.118-0.329,0.251-0.712,0.4-1.142c1.753-5.055,5.401-15.572,12.547-26.283c9.517-14.261,21.739-23.72,36.327-28.113
		c8.175-2.457,16.799,2.17,19.262,10.346c2.462,8.176-2.171,16.8-10.346,19.262c-18.386,5.536-26.057,27.652-28.577,34.92
		c-0.182,0.524-0.343,0.99-0.486,1.392C359.882,72.906,353.927,76.852,347.574,76.852z"/>
	<path style="fill:#7FDBD5;" d="M72.669,475.299c-1.59,0-3.208-0.248-4.801-0.767c-8.117-2.65-12.548-11.379-9.899-19.495
		c8.522-26.102,33.155-34.375,51.141-40.415c5.362-1.801,10.425-3.502,14.073-5.322c7.641-3.814,16.924-0.709,20.737,6.93
		c3.813,7.641,0.71,16.925-6.93,20.737c-5.572,2.78-11.909,4.909-18.037,6.966c-16.848,5.659-28.148,10.156-31.59,20.7
		C85.233,471.157,79.178,475.299,72.669,475.299z"/>
	<path style="fill:#7FDBD5;" d="M329.403,512c-2.774,0-5.581-0.746-8.115-2.312c-19.155-11.843-35.192-39.323-37.303-63.921
		c-0.73-8.507,5.574-15.996,14.081-16.726c8.516-0.726,15.997,5.575,16.726,14.081c1.265,14.737,11.898,33.553,22.755,40.266
		c7.263,4.49,9.511,14.018,5.02,21.28C339.645,509.397,334.583,512,329.403,512z"/>
	<path style="fill:#7FDBD5;" d="M28.852,296.522c-3.528,0-7.074-1.201-9.978-3.658c-6.518-5.516-7.331-15.271-1.817-21.789
		c21.686-25.631,47.305-36.216,70.279-29.042c8.151,2.546,12.694,11.216,10.15,19.365c-2.546,8.152-11.218,12.695-19.365,10.15
		c-12.233-3.818-27.365,7.57-37.458,19.5C37.605,294.662,33.243,296.522,28.852,296.522z"/>
</g>
<path style="opacity:0.15;enable-background:new    ;" d="M401.027,139.441c2.303,6.249,8.216,10.119,14.509,10.119
	c1.774,0,3.58-0.308,5.343-0.957c2.067-0.762,4.556-1.557,7.193-2.398c3.516-1.122,7.524-2.406,11.801-4.028l1.178-23.611
	c0.184-3.692,0.145-7.355-0.101-10.977c-7.207,4.343-14.975,6.828-22.279,9.159c-2.97,0.948-5.775,1.843-8.483,2.84
	C402.178,122.541,398.075,131.43,401.027,139.441z"/>
<path style="opacity:0.15;enable-background:new    ;" d="M335.698,485.052c1.324,0,2.645-0.03,3.964-0.074
	c-0.652-0.577-1.349-1.117-2.114-1.59c-10.857-6.712-21.49-25.528-22.755-40.266c-0.73-8.506-8.21-14.807-16.726-14.081
	c-8.507,0.731-14.811,8.219-14.081,16.726c0.9,10.483,4.336,21.487,9.458,31.583C307.068,482.46,321.251,485.052,335.698,485.052z"
	/>
<path style="opacity:0.15;enable-background:new    ;" d="M435.716,364.901c-7.987-3.006-16.907,1.029-19.917,9.021
	c-3.009,7.991,1.03,16.907,9.02,19.917c8.007,3.014,11.852,8.299,17.958,17.378c0.837,1.244,1.699,2.526,2.6,3.83
	c5.471-11.726,8.979-24.263,10.397-37.254C450.701,372.758,444.317,368.141,435.716,364.901z"/>
<path style="opacity:0.15;enable-background:new    ;" d="M333.41,55.055c-0.149,0.431-0.282,0.813-0.4,1.142
	c-2.866,8.043,1.331,16.887,9.373,19.754c1.716,0.611,3.467,0.901,5.191,0.901c6.353,0,12.308-3.947,14.563-10.274
	c0.143-0.402,0.304-0.868,0.486-1.392c2.37-6.835,9.299-26.801,25.41-33.759c-11.77-5.383-24.645-8.273-37.72-8.273
	c-0.088,0-0.175,0.004-0.263,0.004c-1.413,1.782-2.781,3.647-4.093,5.613C338.811,39.483,335.164,50.001,333.41,55.055z"/>
<path style="opacity:0.15;enable-background:new    ;" d="M118.954,443.933c6.128-2.057,12.465-4.186,18.037-6.966
	c7.639-3.813,10.743-13.097,6.93-20.737c-3.814-7.639-13.097-10.744-20.737-6.93c-3.648,1.821-8.712,3.522-14.073,5.323
	c-8.681,2.915-18.907,6.357-28.126,12.066c8.588,8.157,18.111,15.075,28.34,20.642C112.292,446.206,115.499,445.093,118.954,443.933
	z"/>
<path style="opacity:0.15;enable-background:new    ;" d="M156.935,67.749l-3.32,6.441c-3.112,6.038-8.785,10.347-15.437,11.726
	l-6.581,1.364c11.138,8.083,15.662,13.597,16.807,15.716c0.331,7.82,6.532,14.277,14.515,14.759
	c0.317,0.019,0.632,0.029,0.946,0.029c8.111-0.001,14.923-6.324,15.418-14.529C179.959,92.061,172.798,80.607,156.935,67.749z"/>
<path style="opacity:0.15;enable-background:new    ;" d="M47.385,250.962L47.385,250.962c3.385,3.165,4.765,7.93,3.596,12.414
	l-5.97,22.905c9.782-9.961,22.529-18.035,33.109-14.733c8.148,2.546,16.82-1.998,19.366-10.15c2.544-8.15-1.999-16.82-10.15-19.366
	c-13.876-4.333-28.716-2.177-43.073,5.85C45.28,248.927,46.313,249.959,47.385,250.962z"/>
<path style="fill:#287D99;" d="M335.699,470.051c-14.642,0-28.991-3.041-42.647-9.042l-19.183-8.428
	c-11.83-5.197-24.381-7.833-37.303-7.833c-2.158,0-4.344,0.077-6.496,0.229l-47.714,3.349c-2.865,0.2-5.766,0.302-8.622,0.302
	c-37.425,0-72.069-17.056-95.052-46.795c-22.946-29.693-30.676-67.564-21.205-103.902l11.39-43.705
	c0.479-1.841-0.086-3.792-1.475-5.092l-9.761-9.129C36.863,220.575,28.74,191.5,36.43,164.123
	c7.691-27.377,29.765-47.968,57.609-53.74l62.287-12.911c1.54-0.319,2.835-1.303,3.555-2.701l14.235-27.616
	c13.062-25.344,38.915-41.089,67.468-41.089c21.552,0,42.157,9.25,56.532,25.376c1.346,1.51,3.012,1.735,3.885,1.735
	c0.843,0,1.655-0.204,2.412-0.606l10.396-5.514c10.983-5.825,23.26-8.904,35.505-8.904c20.663,0,40.742,8.649,55.089,23.726
	c14.373,15.108,21.713,34.974,20.668,55.938l-2.352,47.155c-0.133,2.667,1.759,4.981,4.4,5.381l3.078,0.466
	c27.424,4.152,49.678,22.11,59.53,48.039c9.851,25.929,5.136,54.135-12.613,75.451l-36.992,44.424
	c-0.873,1.05-1.303,2.429-1.177,3.786l1.091,11.922c2.751,30.013-6.85,58.726-27.035,80.847
	C393.84,457.382,365.3,470.051,335.699,470.051z"/>
<path style="fill:#7FDBD5;" d="M205.511,83.339l-14.235,27.618c-5.601,10.867-15.811,18.622-27.782,21.103l-62.287,12.91
	c-32.152,6.664-43.428,46.808-19.449,69.239l9.762,9.132c10.848,10.148,15.271,25.419,11.525,39.793l-11.389,43.704
	c-14.664,56.269,30.221,110.325,88.227,106.253l47.713-3.349c20.714-1.454,41.47,2.15,60.481,10.503l19.182,8.427
	c49.185,21.609,103.506-17.511,98.602-71.009l-1.092-11.914c-0.981-10.702,2.332-21.356,9.209-29.615l36.993-44.426
	c20.189-24.245,6.131-61.243-25.064-65.965l-3.075-0.465c-20.563-3.113-35.427-21.293-34.391-42.065l2.352-47.153
	c1.566-31.392-31.666-52.527-59.432-37.799l-10.396,5.514c-16.481,8.742-36.802,5.096-49.215-8.831l0,0
	C252.839,53.731,218.532,58.078,205.511,83.339z"/>
<circle style="fill:#287D99;" cx="325.11" cy="379.37" r="18.874"/>
<circle style="opacity:0.2;enable-background:new    ;" cx="374.08" cy="296.33" r="18.874"/>
<circle style="fill:#287D99;" cx="248.54" cy="124.54" r="16.1"/>
<circle style="opacity:0.2;enable-background:new    ;" cx="142.17" cy="321.5" r="16.1"/>
<g>
	<ellipse style="fill:#FFFFFF;" cx="189.64" cy="240.21" rx="25.788" ry="20.536"/>
	<ellipse style="fill:#FFFFFF;" cx="329.42" cy="240.21" rx="25.788" ry="20.536"/>
</g>
<g>
	<path style="fill:#495059;" d="M193.95,223.457c-4.143,0-7.5-3.357-7.5-7.5v-11.068c0-4.143,3.357-7.5,7.5-7.5s7.5,3.357,7.5,7.5
		v11.068C201.45,220.1,198.093,223.457,193.95,223.457z"/>
	<ellipse style="fill:#495059;" cx="259.53" cy="224.43" rx="20.791" ry="23.266"/>
	<path style="fill:#495059;" d="M325.107,223.457c-4.143,0-7.5-3.357-7.5-7.5v-11.068c0-4.143,3.357-7.5,7.5-7.5s7.5,3.357,7.5,7.5
		v11.068C332.607,220.1,329.25,223.457,325.107,223.457z"/>
</g>
<path style="opacity:0.15;enable-background:new    ;" d="M236.566,444.749c12.922,0,25.473,2.636,37.303,7.833l19.182,8.428
	c13.656,6.001,28.005,9.042,42.647,9.042c15.514,0,30.735-3.486,44.612-9.979c-122.909-16.437-189.758-42.461-178.806-108.63
	c2.697-16.292,28.254-63.978-20.798-112.251c-38.771-38.157-26.999-121.852-0.39-182.066c-2.296,3.148-4.377,6.493-6.202,10.032
	l-14.235,27.616c-0.72,1.398-2.016,2.382-3.555,2.701l-62.287,12.911c-27.844,5.772-49.918,26.363-57.609,53.74
	s0.432,56.452,21.2,75.882l9.761,9.129c1.389,1.3,1.955,3.252,1.475,5.092l-11.39,43.705c-9.471,36.338-1.741,74.209,21.205,103.902
	c22.983,29.74,57.627,46.795,95.052,46.795c2.856,0,5.757-0.102,8.622-0.302l47.714-3.35
	C232.223,444.826,234.408,444.749,236.566,444.749z"/>
<g style="opacity:0.1;">
	<path d="M264.673,330.854c-1.286,0-2.588-0.33-3.778-1.026c-3.575-2.09-4.78-6.684-2.689-10.26c0.789-1.35,1.536-2.74,2.259-4.085
		c4.662-8.678,10.45-19.494,29.924-18.503c4.137,0.206,7.322,3.727,7.115,7.865c-0.207,4.136-3.7,7.341-7.865,7.115
		c-9.984-0.494-11.612,2.53-15.961,10.622c-0.785,1.461-1.597,2.973-2.522,4.556C269.76,329.523,267.25,330.854,264.673,330.854z"/>
	<path d="M343.979,143.72c-0.959,0-1.934-0.185-2.875-0.576c-10.685-4.441-22.66-21.216-23.465-30.032
		c-0.377-4.124,2.662-7.773,6.787-8.15c4.105-0.38,7.748,2.641,8.147,6.743c0.59,3.553,8.7,15.267,14.287,17.588
		c3.825,1.59,5.638,5.979,4.048,9.804C349.709,141.98,346.918,143.72,343.979,143.72z"/>
	<path d="M114.35,193.705c-1.413,0-2.893-0.061-4.449-0.191c-4.128-0.347-7.192-3.975-6.846-8.102
		c0.348-4.128,3.969-7.191,8.102-6.846c8.796,0.739,13.535-1.551,19.033-4.202c5.349-2.579,11.397-5.507,20.452-5.263
		c4.141,0.11,7.407,3.557,7.297,7.697c-0.108,4.072-3.444,7.3-7.493,7.3c-0.068,0-0.136-0.001-0.204-0.003
		c-5.383-0.129-8.992,1.587-13.536,3.779C131.247,190.507,124.615,193.705,114.35,193.705z"/>
	<path d="M163.369,374.747c-2.906,0-6.087-0.567-9.584-1.95c-3.853-1.522-5.74-5.879-4.218-9.732
		c1.521-3.852,5.882-5.741,9.731-4.218c5.303,2.096,7.941,0.373,13.92-4.074c5.129-3.813,11.518-8.547,20.808-8.468
		c4.142,0.042,7.466,3.434,7.424,7.576c-0.042,4.115-3.392,7.424-7.498,7.424c-0.064,0-0.128-0.001-0.193-0.001
		c-3.983,0-7.008,2.099-11.588,5.505C177.475,370.303,171.498,374.747,163.369,374.747z"/>
	<path d="M414.801,254.245c-0.906,0-1.828-0.165-2.724-0.515c-6.429-2.508-21.869-9.082-26.369-15.953
		c-2.27-3.465-1.3-8.114,2.165-10.384c3.45-2.257,8.07-1.31,10.351,2.116c1.674,2.096,10.674,6.874,19.307,10.247
		c3.857,1.507,5.764,5.855,4.258,9.713C420.632,252.433,417.8,254.245,414.801,254.245z"/>
</g>
<g>
</g>
<g>
</g>
<g>
</g>
<g>
</g>
<g>
</g>
<g>
</g>
<g>
</g>
<g>
</g>
<g>
</g>
<g>
</g>
<g>
</g>
<g>
</g>
<g>
</g>
<g>
</g>
<g>
</g>
</svg>
