<?xml version="1.0" encoding="iso-8859-1"?>
<!-- Generator: Adobe Illustrator 19.0.0, SVG Export Plug-In . SVG Version: 6.00 Build 0)  -->
<svg version="1.1" id="Capa_1" xmlns="http://www.w3.org/2000/svg" xmlns:xlink="http://www.w3.org/1999/xlink" x="0px" y="0px"
	 viewBox="0 0 512.001 512.001" style="enable-background:new 0 0 512.001 512.001;" xml:space="preserve">
<path style="fill:#498A68;" d="M360.371,373.998c-11.538,0-22.407-4.653-30.552-13.682c-6.048-6.703-5.516-17.041,1.188-23.087
	c6.705-6.045,17.041-5.516,23.087,1.187c3.335,3.696,8.041,3.892,13.99,0.591c7.896-4.378,17.845-1.533,22.225,6.362
	s1.533,17.845-6.362,22.225C376.202,371.892,368.136,373.998,360.371,373.998z"/>
<path style="fill:#5CB38E;" d="M233.974,421.384c-76.284,0-164.073,0-228.341-41.032c-10.998-7.021-4.637-23.979,8.296-22.253
	c50.895,6.794,93.645-6.161,118.022-27.146L233.974,421.384z"/>
<path style="opacity:0.1;enable-background:new    ;" d="M103.176,348.265c0.85,24.362,4.59,48.679,19.607,68.899
	c37.188,4.219,75.452,4.22,111.191,4.22l-102.023-90.431C124.138,337.679,114.428,343.574,103.176,348.265z"/>
<g>
	<path style="fill:#498A68;" d="M206.814,495.793c-13.89,0-25.149-11.259-25.149-25.149c0-16.371-6.123-57.02-8.44-64.634
		c-4.863-12.734,1.323-27.083,14.01-32.253c12.862-5.236,27.538,0.939,32.78,13.802c5.376,13.199,11.948,65.318,11.948,83.085
		C231.963,484.534,220.704,495.793,206.814,495.793z M173.309,406.225c0.043,0.112,0.086,0.216,0.124,0.312
		C173.391,406.433,173.35,406.328,173.309,406.225z"/>
	<path style="fill:#498A68;" d="M302.829,495.795c-12.999,0.001-24.013-10.007-25.045-23.187
		c-0.901-11.505-10.466-58.218-13.256-66.352c-5.038-12.794,1.143-27.293,13.912-32.497c12.858-5.242,27.537,0.936,32.781,13.799
		c4.639,11.386,15.502,65.731,16.707,81.124c1.086,13.847-9.26,25.951-23.108,27.035
		C304.152,495.769,303.487,495.795,302.829,495.795z M264.58,406.386c0.022,0.054,0.043,0.106,0.061,0.154
		C264.621,406.489,264.6,406.438,264.58,406.386z"/>
</g>
<path style="opacity:0.1;enable-background:new    ;" d="M311.22,387.557c-5.243-12.863-19.923-19.041-32.781-13.799
	c-12.769,5.204-18.95,19.703-13.912,32.497c2.054,5.989,7.778,32.883,11.016,51.248c19.181-1.894,35.437-5.615,49.067-11.275
	C320.708,424.289,314.454,395.493,311.22,387.557z"/>
<path style="opacity:0.1;enable-background:new    ;" d="M220.015,387.56c-5.241-12.863-19.918-19.039-32.78-13.802
	c-12.687,5.17-18.873,19.519-14.01,32.253c1.67,5.489,5.318,28.142,7.224,46.494c14.604,3.662,31.51,5.746,50.969,6.321
	C229.74,436.129,224.469,398.496,220.015,387.56z"/>
<path style="fill:#5CB38E;" d="M357.729,332.652c0,58.712-7.975,101.195-114.819,101.195s-114.819-42.483-114.819-101.195
	s51.406-106.307,114.819-106.307C306.322,226.344,357.729,273.94,357.729,332.652z"/>
<path style="fill:#9BDFC1;" d="M357.729,332.652c0-0.468-0.013-0.933-0.019-1.4c-23.915-6.137-71.351-7.922-104.361,27.159
	c-24.055,25.564-27.536,53.151-24.955,75.152c4.624,0.188,9.459,0.284,14.517,0.284
	C349.754,433.846,357.729,391.363,357.729,332.652z"/>
<path style="opacity:0.05;enable-background:new    ;" d="M221.112,228.266c-52.987,9.43-93.022,52.575-93.022,104.386
	c0,54.364,6.851,94.809,92.686,100.501C173.118,384.779,182.336,284.901,221.112,228.266z"/>
<path style="fill:#5CB38E;" d="M348.302,73.241L348.302,73.241c-19.607-29.65-52.782-47.485-88.328-47.485h-43.695
	c-62.122,0-112.482,50.36-112.482,112.482v51.715c0,55.754,45.197,100.951,100.951,100.951h231.628
	c41.767,0,75.625-33.858,75.625-75.625v-35.196c0-41.766-33.858-75.625-75.625-75.625H406.37
	C383.001,104.458,361.192,92.733,348.302,73.241z"/>
<g>
	<circle style="fill:#FFFFFF;" cx="201.421" cy="83.961" r="28.897"/>
	<circle style="fill:#FFFFFF;" cx="292.291" cy="83.961" r="28.897"/>
</g>
<path style="opacity:0.1;enable-background:new    ;" d="M292.298,145.504c-4.352,0-8.704-0.462-12.977-1.39
	c-4.048-0.879-6.616-4.873-5.737-8.921s4.876-6.612,8.921-5.737c7.877,1.711,16.119,1.324,23.834-1.12
	c7.717-2.442,14.68-6.868,20.137-12.8c2.805-3.049,7.549-3.244,10.598-0.441c3.048,2.805,3.246,7.549,0.441,10.598
	c-7.227,7.854-16.441,13.714-26.649,16.944C304.841,144.544,298.569,145.504,292.298,145.504z"/>
<path style="opacity:0.1;enable-background:new    ;" d="M201.413,145.504c-6.272,0-12.542-0.959-18.568-2.867
	c-10.207-3.23-19.422-9.09-26.648-16.944c-2.805-3.049-2.606-7.793,0.441-10.598c3.05-2.805,7.794-2.607,10.598,0.441
	c5.457,5.932,12.42,10.357,20.136,12.8c7.717,2.444,15.959,2.831,23.835,1.12c4.054-0.88,8.042,1.689,8.921,5.737
	c0.879,4.048-1.689,8.042-5.737,8.921C210.117,145.042,205.765,145.504,201.413,145.504z"/>
<path style="fill:#495059;" d="M421.409,262.192L421.409,262.192c-15.543,0-27.425-13.86-25.051-29.221l0,0
	c1.192-7.711,1.192-15.559,0-23.27l0,0c-2.374-15.361,9.508-29.221,25.051-29.221l0,0c15.543,0,27.426,13.86,25.051,29.221l0,0
	c-1.192,7.711-1.192,15.559,0,23.27l0,0C448.834,248.332,436.952,262.192,421.409,262.192z"/>
<g style="opacity:0.1;">
	<circle cx="164.901" cy="214.53" r="7.741"/>
	<circle cx="219.931" cy="226.34" r="7.741"/>
	<circle cx="188.441" cy="252.75" r="7.741"/>
</g>
<g>
	<circle style="fill:#495059;" cx="396.741" cy="143.96" r="7.741"/>
	<circle style="fill:#495059;" cx="446.071" cy="143.96" r="7.741"/>
</g>
<path style="opacity:0.05;enable-background:new    ;" d="M191.29,28.547c-50.094,11.364-87.493,56.159-87.493,109.691v51.715
	c0,55.754,45.197,100.951,100.951,100.951h61.257C176.793,238.997,161.671,96.313,191.29,28.547z"/>
<path style="fill:#498A68;" d="M250.284,373.998c-11.538,0-22.407-4.653-30.552-13.682c-6.048-6.703-5.516-17.041,1.187-23.087
	c6.704-6.045,17.041-5.516,23.087,1.187c3.333,3.695,8.04,3.895,13.989,0.591c7.896-4.378,17.845-1.533,22.225,6.362
	s1.533,17.845-6.362,22.225C266.113,371.892,258.047,373.998,250.284,373.998z"/>
<g>
	<path style="fill:#A3E3FF;" d="M76.996,100.835c-4.143,0-7.5-3.357-7.5-7.5v-69.63c0-4.143,3.357-7.5,7.5-7.5s7.5,3.357,7.5,7.5
		v69.63C84.496,97.478,81.139,100.835,76.996,100.835z"/>
	<path style="fill:#A3E3FF;" d="M111.997,100.835c-4.143,0-7.5-3.357-7.5-7.5v-69.63c0-4.143,3.357-7.5,7.5-7.5s7.5,3.357,7.5,7.5
		v69.63C119.497,97.478,116.14,100.835,111.997,100.835z"/>
	<path style="fill:#A3E3FF;" d="M146.998,100.835c-4.143,0-7.5-3.357-7.5-7.5v-69.63c0-4.143,3.357-7.5,7.5-7.5s7.5,3.357,7.5,7.5
		v69.63C154.498,97.478,151.141,100.835,146.998,100.835z"/>
</g>
<g>
</g>
<g>
</g>
<g>
</g>
<g>
</g>
<g>
</g>
<g>
</g>
<g>
</g>
<g>
</g>
<g>
</g>
<g>
</g>
<g>
</g>
<g>
</g>
<g>
</g>
<g>
</g>
<g>
</g>
</svg>
