<svg xmlns="http://www.w3.org/2000/svg" viewBox="0 0 512.001 512.001"><path d="M360.371 373.998c-11.538 0-22.407-4.653-30.552-13.682-6.048-6.703-5.516-17.041 1.188-23.087 6.705-6.045 17.041-5.516 23.087 1.187 3.335 3.696 8.041 3.892 13.99.591 7.896-4.378 17.845-1.533 22.225 6.362s1.533 17.845-6.362 22.225c-7.745 4.298-15.811 6.404-23.576 6.404z" fill="#498a68"/><path d="M233.974 421.384c-76.284 0-164.073 0-228.341-41.032-10.998-7.021-4.637-23.979 8.296-22.253 50.895 6.794 93.645-6.161 118.022-27.146l102.023 90.431z" fill="#5cb38e"/><path d="M103.176 348.265c.85 24.362 4.59 48.679 19.607 68.899 37.188 4.219 75.452 4.22 111.191 4.22l-102.023-90.431c-7.813 6.726-17.523 12.621-28.775 17.312z" opacity=".1"/><path d="M206.814 495.793c-13.89 0-25.149-11.259-25.149-25.149 0-16.371-6.123-57.02-8.44-64.634-4.863-12.734 1.323-27.083 14.01-32.253 12.862-5.236 27.538.939 32.78 13.802 5.376 13.199 11.948 65.318 11.948 83.085 0 13.89-11.259 25.149-25.149 25.149zm-33.505-89.568c.043.112.086.216.124.312l-.124-.312zm129.52 89.57c-12.999.001-24.013-10.007-25.045-23.187-.901-11.505-10.466-58.218-13.256-66.352-5.038-12.794 1.143-27.293 13.912-32.497 12.858-5.242 27.537.936 32.781 13.799 4.639 11.386 15.502 65.731 16.707 81.124 1.086 13.847-9.26 25.951-23.108 27.035-.668.052-1.333.078-1.991.078zm-38.249-89.409l.061.154-.061-.154z" fill="#498a68"/><path d="M311.22 387.557c-5.243-12.863-19.923-19.041-32.781-13.799-12.769 5.204-18.95 19.703-13.912 32.497 2.054 5.989 7.778 32.883 11.016 51.248 19.181-1.894 35.437-5.615 49.067-11.275-3.902-21.939-10.156-50.735-13.39-58.671zm-91.205.003c-5.241-12.863-19.918-19.039-32.78-13.802-12.687 5.17-18.873 19.519-14.01 32.253 1.67 5.489 5.318 28.142 7.224 46.494 14.604 3.662 31.51 5.746 50.969 6.321-1.678-22.697-6.949-60.33-11.403-71.266z" opacity=".1"/><path d="M357.729 332.652c0 58.712-7.975 101.195-114.819 101.195s-114.819-42.483-114.819-101.195 51.406-106.307 114.819-106.307c63.412-.001 114.819 47.595 114.819 106.307z" fill="#5cb38e"/><path d="M357.729 332.652c0-.468-.013-.933-.019-1.4-23.915-6.137-71.351-7.922-104.361 27.159-24.055 25.564-27.536 53.151-24.955 75.152 4.624.188 9.459.284 14.517.284 106.843-.001 114.818-42.484 114.818-101.195z" fill="#9bdfc1"/><path d="M221.112 228.266c-52.987 9.43-93.022 52.575-93.022 104.386 0 54.364 6.851 94.809 92.686 100.501-47.658-48.374-38.44-148.252.336-204.887z" opacity=".05"/><path d="M348.302 73.241a105.895 105.895 0 00-88.328-47.485h-43.695c-62.122 0-112.482 50.36-112.482 112.482v51.715c0 55.754 45.197 100.951 100.951 100.951h231.628c41.767 0 75.625-33.858 75.625-75.625v-35.196c0-41.766-33.858-75.625-75.625-75.625H406.37a69.616 69.616 0 01-58.068-31.217z" fill="#5cb38e"/><g fill="#fff"><circle cx="201.421" cy="83.961" r="28.897"/><circle cx="292.291" cy="83.961" r="28.897"/></g><path d="M292.298 145.504c-4.352 0-8.704-.462-12.977-1.39a7.5 7.5 0 113.184-14.658 46.42 46.42 0 0023.834-1.12 46.425 46.425 0 0020.137-12.8 7.501 7.501 0 0111.039 10.157 61.455 61.455 0 01-26.649 16.944 61.573 61.573 0 01-18.568 2.867zm-90.885 0a61.542 61.542 0 01-18.568-2.867 61.452 61.452 0 01-26.648-16.944 7.501 7.501 0 0111.039-10.157 46.437 46.437 0 0020.136 12.8 46.425 46.425 0 0023.835 1.12 7.496 7.496 0 018.921 5.737 7.5 7.5 0 01-5.737 8.921 61.168 61.168 0 01-12.978 1.39z" opacity=".1"/><path d="M421.409 262.192c-15.543 0-27.425-13.86-25.051-29.221a76.16 76.16 0 000-23.27c-2.374-15.361 9.508-29.221 25.051-29.221s27.426 13.86 25.051 29.221a76.16 76.16 0 000 23.27c2.374 15.361-9.508 29.221-25.051 29.221z" fill="#495059"/><g opacity=".1"><circle cx="164.901" cy="214.53" r="7.741"/><circle cx="219.931" cy="226.34" r="7.741"/><circle cx="188.441" cy="252.75" r="7.741"/></g><g fill="#495059"><circle cx="396.741" cy="143.96" r="7.741"/><circle cx="446.071" cy="143.96" r="7.741"/></g><path d="M191.29 28.547c-50.094 11.364-87.493 56.159-87.493 109.691v51.715c0 55.754 45.197 100.951 100.951 100.951h61.257C176.793 238.997 161.671 96.313 191.29 28.547z" opacity=".05"/><path d="M250.284 373.998c-11.538 0-22.407-4.653-30.552-13.682-6.048-6.703-5.516-17.041 1.187-23.087 6.704-6.045 17.041-5.516 23.087 1.187 3.333 3.695 8.04 3.895 13.989.591 7.896-4.378 17.845-1.533 22.225 6.362s1.533 17.845-6.362 22.225c-7.745 4.298-15.811 6.404-23.574 6.404z" fill="#498a68"/><path d="M76.996 100.835a7.499 7.499 0 01-7.5-7.5v-69.63c0-4.143 3.357-7.5 7.5-7.5s7.5 3.357 7.5 7.5v69.63c0 4.143-3.357 7.5-7.5 7.5zm35.001 0a7.499 7.499 0 01-7.5-7.5v-69.63c0-4.143 3.357-7.5 7.5-7.5s7.5 3.357 7.5 7.5v69.63c0 4.143-3.357 7.5-7.5 7.5zm35.001 0a7.499 7.499 0 01-7.5-7.5v-69.63c0-4.143 3.357-7.5 7.5-7.5s7.5 3.357 7.5 7.5v69.63c0 4.143-3.357 7.5-7.5 7.5z" fill="#a3e3ff"/></svg>