<?xml version="1.0" encoding="utf-8"?>
<!-- Generator: Adobe Illustrator 24.0.2, SVG Export Plug-In . SVG Version: 6.00 Build 0)  -->
<svg version="1.1" id="Layer_1" xmlns="http://www.w3.org/2000/svg" xmlns:xlink="http://www.w3.org/1999/xlink" x="0px" y="0px"
	 viewBox="0 0 688 592" style="enable-background:new 0 0 688 592;" xml:space="preserve">
<style type="text/css">
	.st0{fill:#909FAF;}
	.st1{fill:#353535;}
	.st2{fill:#F0F4F7;}
	.st3{fill:#DD4752;}
	.st4{fill:#CCCCCC;}
	.st5{opacity:0.15;fill:#F0F4F7;}
</style>
<g>
	<g>
		<path class="st0" d="M126.95,479.34C126.95,479.34,126.94,479.34,126.95,479.34c-1.83,0-3.31-1.49-3.31-3.32l0.88-423.28
			c0-1.82,1.48-3.3,3.31-3.3c0,0,0,0,0.01,0c1.83,0,3.31,1.49,3.3,3.32l-0.88,423.28C130.25,477.87,128.77,479.34,126.95,479.34z"/>
	</g>
	<g>
		<path class="st0" d="M184.74,545.52h-8.82v-30.63c0-18.14-14.76-32.89-32.89-32.89h-29.94c-18.14,0-32.89,14.76-32.89,32.89v30.63
			h-8.82v-30.63c0-23,18.71-41.72,41.72-41.72h29.94c23,0,41.72,18.71,41.72,41.72V545.52z"/>
	</g>
	<circle class="st1" cx="74.89" cy="546.07" r="13.23"/>
	<circle class="st1" cx="179.22" cy="546.07" r="13.23"/>
	<g>
		<path class="st0" d="M86.73,68.56c-0.76,0-1.52-0.07-2.28-0.2c-7.04-1.27-12.3-8.38-11.98-16.18c0.07-1.83,1.62-3.25,3.44-3.17
			c1.83,0.07,3.25,1.62,3.17,3.44c-0.21,5.04,3.24,8.81,6.54,9.4c2,0.36,4.3-0.32,6.17-1.83c2.21-1.79,3.53-4.47,3.62-7.37
			c0.06-1.79,1.52-3.2,3.31-3.2h60.44c0.89,0,1.75,0.36,2.37,1c0.62,0.64,0.96,1.51,0.93,2.4c-0.07,2.62,0.98,5.12,2.89,6.88
			c1.69,1.55,3.8,2.32,5.78,2.09c3.45-0.39,7-4.06,6.77-8.91c-0.09-1.83,1.33-3.37,3.15-3.46c1.83-0.09,3.37,1.32,3.46,3.15
			c0.37,7.88-5.3,14.96-12.64,15.79c-3.89,0.44-7.9-0.94-11.01-3.8c-2.48-2.28-4.13-5.28-4.75-8.53h-54.51
			c-0.82,3.57-2.79,6.78-5.65,9.1C93.22,67.37,89.95,68.56,86.73,68.56z"/>
	</g>
	<path class="st2" d="M209.98,89.41v76.54c0,7.3-4.87,13.71-11.91,15.66l-32.53,9.02c-10.35,2.87-20.59-4.91-20.59-15.66V97.15
		c0-7.53,5.17-14.07,12.49-15.81l32.53-7.73C200.18,71.18,209.98,78.92,209.98,89.41z"/>
	<path class="st2" d="M186.74,71.78l-1.54-6.44c-0.3-0.86-0.62-1.73-0.95-2.62c-0.35-0.92-0.7-2.26-1.05-3.14
		c-0.21,0.53-0.49,1.13-0.88,1.76c-0.58,0.95-1.22,1.68-1.76,2.21c0.45,3.44-2,6.38-4.85,6.62c-3.3,0.27-6.21-3.17-5.73-5.73
		c0.22-1.18,1.26-2.69,2.65-3.09c0.88-0.26,1.42,0.08,2.21-0.44c0.48-0.32,0.77-0.81,1.32-1.76c0.41-0.7,0.69-1.32,0.88-1.76
		c-0.92-0.22-1.75-0.26-2.46-0.22c-6.15,0.38-9.75,7.69-10.2,8.63l-1.38,7.13c-1.47,7.6,5.4,14.19,12.93,12.4l2.92-0.69
		C184.57,83.27,188.11,77.52,186.74,71.78z"/>
	<polygon class="st2" points="170.4,186.2 175.7,194.58 191.58,189.73 195.11,180.02 	"/>
	<g>
		<path class="st3" d="M182.76,362.85c-1.43,0-2.72-0.32-3.9-0.95c-3.63-1.95-4.37-5.96-4.37-11.38c0-5.6,0.89-14.3,2.23-27.45
			c1.12-11,2.66-26.06,4.28-45.34c2.66-31.66,2.98-43.91,2.64-56.62c-0.46-17.45-2.23-34.98-5.25-52.11
			c-0.25-1.44,0.71-2.81,2.15-3.07c1.44-0.25,2.81,0.71,3.07,2.15c3.07,17.38,4.86,35.18,5.33,52.89c0.34,12.9,0.03,25.29-2.66,57.2
			c-1.62,19.33-3.16,34.41-4.29,45.43c-2.26,22.11-3.29,32.2-0.63,33.63c2.25,1.2,12.71,1.25,53.16-48.74
			c0.92-1.14,2.59-1.31,3.72-0.39c1.14,0.92,1.31,2.59,0.39,3.72c-17.06,21.08-30.76,35.76-40.72,43.64
			C191.62,360.43,186.69,362.85,182.76,362.85z"/>
	</g>
	<path class="st3" d="M157.11,100.18l38.76-7.75c5.06-1.01,9.77,2.89,9.71,8.05c-0.24,22.49-0.47,44.97-0.71,67.46
		c-0.04,3.73-2.61,6.95-6.24,7.82c-12.57,2.99-25.13,5.97-37.7,8.96c-5.09,1.21-9.97-2.63-10-7.86
		c-0.12-22.89-0.24-45.78-0.35-68.67C150.56,104.3,153.3,100.95,157.11,100.18z"/>
	<g>
		<g>
			<path class="st4" d="M165.77,113.61l-20.83,4.23v-2.25l20.39-4.14c0.6-0.12,1.18,0.26,1.3,0.86
				C166.75,112.91,166.36,113.49,165.77,113.61z"/>
		</g>
		<g>
			<path class="st4" d="M165.33,127.28l-20.39,4.14v-2.25l19.94-4.05c0.6-0.12,1.18,0.26,1.3,0.86
				C166.31,126.58,165.92,127.16,165.33,127.28z"/>
		</g>
		<g>
			<path class="st4" d="M165.33,140.52l-20.39,4.14v-2.25l19.94-4.05c0.6-0.12,1.18,0.26,1.3,0.86
				C166.31,139.82,165.92,140.4,165.33,140.52z"/>
		</g>
		<g>
			<path class="st4" d="M165.77,153.75l-20.83,4.23v-2.25l20.39-4.14c0.6-0.12,1.18,0.26,1.3,0.86
				C166.75,153.05,166.36,153.63,165.77,153.75z"/>
		</g>
		<g>
			<path class="st4" d="M165.33,167.43l-20.39,4.14v-2.25l19.94-4.05c0.6-0.12,1.18,0.26,1.3,0.86
				C166.31,166.73,165.92,167.31,165.33,167.43z"/>
		</g>
	</g>
	<path class="st5" d="M174.15,80.98c4.01-5.71,16.23-7.18,23.82-2.21c2.86,1.88,4.44,4.28,5.29,5.73
		c7.05,11.98,5.08,27.12,3.97,35.73c-4.42,34.17-2.74,44.11-7.06,45c-2.71,0.56-5.49-2.77-7.72-5.51
		c-11.44-14.05-5.12-26.67-11.91-51.61C176.11,91.83,170.44,86.27,174.15,80.98z"/>
</g>
<g>
	<g>
		<path class="st0" d="M332.97,489.05C332.96,489.05,332.96,489.05,332.97,489.05c-1.83,0-3.31-1.49-3.31-3.32l0.88-423.28
			c0-1.82,1.48-3.3,3.31-3.3c0,0,0,0,0.01,0c1.83,0,3.31,1.49,3.3,3.32l-0.88,423.28C336.27,487.57,334.79,489.05,332.97,489.05z"/>
	</g>
	<g>
		<path class="st0" d="M390.76,555.22h-8.82v-30.63c0-18.14-14.76-32.89-32.89-32.89H319.1c-18.14,0-32.89,14.76-32.89,32.89v30.63
			h-8.82v-30.63c0-23,18.71-41.72,41.72-41.72h29.94c23,0,41.72,18.71,41.72,41.72V555.22z"/>
	</g>
	<circle class="st1" cx="280.91" cy="555.77" r="13.23"/>
	<circle class="st1" cx="385.24" cy="555.77" r="13.23"/>
	<g>
		<path class="st0" d="M292.75,78.27c-0.76,0-1.52-0.07-2.28-0.2c-7.04-1.27-12.3-8.38-11.98-16.18c0.07-1.83,1.62-3.25,3.44-3.17
			c1.83,0.07,3.25,1.62,3.17,3.44c-0.21,5.04,3.24,8.81,6.54,9.4c2,0.36,4.3-0.32,6.17-1.83c2.21-1.79,3.53-4.47,3.62-7.37
			c0.06-1.79,1.52-3.2,3.31-3.2h60.44c0.89,0,1.75,0.36,2.37,1c0.62,0.64,0.96,1.51,0.93,2.4c-0.07,2.62,0.98,5.12,2.89,6.88
			c1.69,1.55,3.8,2.32,5.78,2.09c3.45-0.39,7-4.06,6.77-8.91c-0.09-1.83,1.33-3.37,3.15-3.46c1.83-0.09,3.37,1.32,3.46,3.15
			c0.37,7.88-5.3,14.96-12.64,15.79c-3.89,0.44-7.9-0.94-11.01-3.8c-2.48-2.28-4.13-5.28-4.75-8.53h-54.51
			c-0.82,3.57-2.79,6.78-5.65,9.1C299.23,77.08,295.97,78.27,292.75,78.27z"/>
	</g>
	<path class="st2" d="M415.99,99.12v76.54c0,7.3-4.87,13.71-11.91,15.66l-32.53,9.02c-10.35,2.87-20.59-4.91-20.59-15.66v-77.83
		c0-7.53,5.17-14.07,12.49-15.81l32.53-7.73C406.2,80.89,415.99,88.63,415.99,99.12z"/>
	<path class="st2" d="M392.76,81.49l-1.54-6.44c-0.3-0.86-0.62-1.73-0.95-2.62c-0.35-0.92-0.7-2.26-1.05-3.14
		c-0.21,0.53-0.49,1.13-0.88,1.76c-0.58,0.95-1.22,1.68-1.76,2.21c0.45,3.44-2,6.38-4.85,6.62c-3.3,0.27-6.21-3.17-5.73-5.73
		c0.22-1.18,1.26-2.69,2.65-3.09c0.88-0.26,1.42,0.08,2.21-0.44c0.48-0.32,0.77-0.81,1.32-1.76c0.41-0.7,0.69-1.32,0.88-1.76
		c-0.92-0.22-1.75-0.26-2.46-0.22c-6.15,0.38-9.75,7.69-10.2,8.63L369,82.63c-1.47,7.6,5.4,14.19,12.93,12.4l2.92-0.69
		C390.58,92.98,394.12,87.22,392.76,81.49z"/>
	<polygon class="st2" points="376.42,195.9 381.71,204.29 397.59,199.43 401.12,189.73 	"/>
	<g>
		<path class="st3" d="M388.77,372.56c-1.43,0-2.72-0.32-3.9-0.95c-3.63-1.95-4.37-5.96-4.37-11.38c0-5.6,0.89-14.3,2.23-27.45
			c1.12-11,2.66-26.06,4.28-45.34c2.66-31.66,2.98-43.91,2.64-56.62c-0.46-17.45-2.23-34.98-5.25-52.11
			c-0.25-1.44,0.71-2.81,2.15-3.07c1.44-0.25,2.81,0.71,3.07,2.15c3.07,17.38,4.86,35.18,5.33,52.89c0.34,12.9,0.03,25.29-2.66,57.2
			c-1.62,19.33-3.16,34.41-4.29,45.43c-2.26,22.11-3.29,32.2-0.63,33.63c2.25,1.2,12.71,1.25,53.16-48.74
			c0.92-1.14,2.59-1.31,3.72-0.39c1.14,0.92,1.31,2.59,0.39,3.72c-17.06,21.08-30.76,35.76-40.72,43.64
			C397.64,370.14,392.71,372.56,388.77,372.56z"/>
	</g>
	<path class="st3" d="M403.5,145.74c4.05-0.66,7.71,2.49,7.67,6.59c-0.09,8.44-0.18,16.87-0.27,25.31
		c-0.04,3.73-2.61,6.95-6.24,7.82c-12.56,2.99-25.13,5.97-37.7,8.96c-5.09,1.21-9.97-2.63-10-7.86c-0.05-9.2-0.1-18.4-0.14-27.6
		c-0.02-3.25,2.34-6.04,5.55-6.56C376.07,150.18,389.79,147.96,403.5,145.74z"/>
	<g>
		<g>
			<path class="st4" d="M371.79,123.31l-20.83,4.23v-2.25l20.39-4.14c0.6-0.12,1.18,0.26,1.3,0.86
				C372.77,122.61,372.38,123.19,371.79,123.31z"/>
		</g>
		<g>
			<path class="st4" d="M371.35,136.99l-20.39,4.14v-2.25l19.94-4.05c0.6-0.12,1.18,0.26,1.3,0.86
				C372.32,136.29,371.94,136.87,371.35,136.99z"/>
		</g>
		<g>
			<path class="st4" d="M371.35,150.22l-20.39,4.14v-2.25l19.94-4.05c0.6-0.12,1.18,0.26,1.3,0.86
				C372.32,149.52,371.94,150.1,371.35,150.22z"/>
		</g>
		<g>
			<path class="st4" d="M371.79,163.46l-20.83,4.23v-2.25l20.39-4.14c0.6-0.12,1.18,0.26,1.3,0.86
				C372.77,162.76,372.38,163.34,371.79,163.46z"/>
		</g>
		<g>
			<path class="st4" d="M371.35,177.13l-20.39,4.14v-2.25l19.94-4.05c0.6-0.12,1.18,0.26,1.3,0.86
				C372.32,176.43,371.94,177.01,371.35,177.13z"/>
		</g>
	</g>
	<path class="st5" d="M380.17,90.69c4.01-5.71,16.23-7.18,23.82-2.21c2.86,1.88,4.44,4.28,5.29,5.73
		c7.05,11.98,5.08,27.12,3.97,35.73c-4.42,34.17-2.74,44.11-7.06,45c-2.71,0.56-5.49-2.77-7.72-5.51
		c-11.44-14.05-5.12-26.67-11.91-51.61C382.13,101.54,376.46,95.97,380.17,90.69z"/>
</g>
<g>
	<g>
		<path class="st0" d="M533.69,489.05C533.69,489.05,533.68,489.05,533.69,489.05c-1.83,0-3.31-1.49-3.31-3.32l0.88-423.28
			c0-1.82,1.48-3.3,3.31-3.3c0,0,0,0,0.01,0c1.83,0,3.31,1.49,3.3,3.32L537,485.75C536.99,487.57,535.51,489.05,533.69,489.05z"/>
	</g>
	<g>
		<path class="st0" d="M591.48,555.22h-8.82v-30.63c0-18.14-14.76-32.89-32.89-32.89h-29.94c-18.14,0-32.89,14.76-32.89,32.89v30.63
			h-8.82v-30.63c0-23,18.71-41.72,41.72-41.72h29.94c23,0,41.72,18.71,41.72,41.72V555.22z"/>
	</g>
	<circle class="st1" cx="481.63" cy="555.77" r="13.23"/>
	<circle class="st1" cx="585.97" cy="555.77" r="13.23"/>
	<g>
		<path class="st0" d="M493.47,78.27c-0.76,0-1.52-0.07-2.28-0.2c-7.04-1.27-12.3-8.38-11.98-16.18c0.07-1.83,1.62-3.25,3.44-3.17
			c1.83,0.07,3.25,1.62,3.17,3.44c-0.21,5.04,3.24,8.81,6.54,9.4c2,0.36,4.3-0.32,6.17-1.83c2.21-1.79,3.53-4.47,3.62-7.37
			c0.06-1.79,1.52-3.2,3.31-3.2h60.44c0.89,0,1.75,0.36,2.37,1c0.62,0.64,0.96,1.51,0.93,2.4c-0.07,2.62,0.98,5.12,2.89,6.88
			c1.69,1.55,3.8,2.32,5.78,2.09c3.45-0.39,7-4.06,6.77-8.91c-0.09-1.83,1.33-3.37,3.15-3.46c1.83-0.09,3.37,1.32,3.46,3.15
			c0.37,7.88-5.3,14.96-12.64,15.79c-3.89,0.44-7.9-0.94-11.01-3.8c-2.48-2.28-4.13-5.28-4.75-8.53h-54.51
			c-0.82,3.57-2.79,6.78-5.65,9.1C499.96,77.08,496.69,78.27,493.47,78.27z"/>
	</g>
	<path class="st2" d="M616.72,99.12v76.54c0,7.3-4.87,13.71-11.91,15.66l-32.53,9.02c-10.35,2.87-20.59-4.91-20.59-15.66v-77.83
		c0-7.53,5.17-14.07,12.49-15.81l32.53-7.73C606.92,80.89,616.72,88.63,616.72,99.12z"/>
	<path class="st2" d="M593.48,81.49l-1.54-6.44c-0.3-0.86-0.62-1.73-0.95-2.62c-0.35-0.92-0.7-2.26-1.05-3.14
		c-0.21,0.53-0.49,1.13-0.88,1.76c-0.58,0.95-1.22,1.68-1.76,2.21c0.45,3.44-2,6.38-4.85,6.62c-3.3,0.27-6.21-3.17-5.73-5.73
		c0.22-1.18,1.26-2.69,2.65-3.09c0.88-0.26,1.42,0.08,2.21-0.44c0.48-0.32,0.77-0.81,1.32-1.76c0.41-0.7,0.69-1.32,0.88-1.76
		c-0.92-0.22-1.75-0.26-2.46-0.22c-6.15,0.38-9.75,7.69-10.2,8.63l-1.38,7.13c-1.47,7.6,5.4,14.19,12.93,12.4l2.92-0.69
		C591.31,92.98,594.85,87.22,593.48,81.49z"/>
	<polygon class="st2" points="577.14,195.9 582.44,204.29 598.32,199.43 601.85,189.73 	"/>
	<g>
		<path class="st2" d="M589.5,372.56c-1.43,0-2.72-0.32-3.9-0.95c-3.63-1.95-4.37-5.96-4.37-11.38c0-5.6,0.89-14.3,2.23-27.45
			c1.12-11,2.66-26.06,4.28-45.34c2.66-31.66,2.98-43.91,2.64-56.62c-0.46-17.45-2.23-34.98-5.25-52.11
			c-0.25-1.44,0.71-2.81,2.15-3.07c1.44-0.25,2.81,0.71,3.07,2.15c3.07,17.38,4.86,35.18,5.33,52.89c0.34,12.9,0.03,25.29-2.66,57.2
			c-1.62,19.33-3.16,34.41-4.29,45.43c-2.26,22.11-3.29,32.2-0.63,33.63c2.25,1.2,12.71,1.25,53.16-48.74
			c0.92-1.14,2.59-1.31,3.72-0.39c1.14,0.92,1.31,2.59,0.39,3.72c-17.06,21.08-30.76,35.76-40.72,43.64
			C598.36,370.14,593.43,372.56,589.5,372.56z"/>
	</g>
	<g>
		<g>
			<path class="st4" d="M572.51,123.31l-20.83,4.23v-2.25l20.39-4.14c0.6-0.12,1.18,0.26,1.3,0.86
				C573.49,122.61,573.11,123.19,572.51,123.31z"/>
		</g>
		<g>
			<path class="st4" d="M572.07,136.99l-20.39,4.14v-2.25l19.94-4.05c0.6-0.12,1.18,0.26,1.3,0.86
				C573.05,136.29,572.66,136.87,572.07,136.99z"/>
		</g>
		<g>
			<path class="st4" d="M572.07,150.22l-20.39,4.14v-2.25l19.94-4.05c0.6-0.12,1.18,0.26,1.3,0.86
				C573.05,149.52,572.66,150.1,572.07,150.22z"/>
		</g>
		<g>
			<path class="st4" d="M572.51,163.46l-20.83,4.23v-2.25l20.39-4.14c0.6-0.12,1.18,0.26,1.3,0.86
				C573.49,162.76,573.11,163.34,572.51,163.46z"/>
		</g>
		<g>
			<path class="st4" d="M572.07,177.13l-20.39,4.14v-2.25l19.94-4.05c0.6-0.12,1.18,0.26,1.3,0.86
				C573.05,176.43,572.66,177.01,572.07,177.13z"/>
		</g>
	</g>
	<path class="st5" d="M580.89,90.69c4.01-5.71,16.23-7.18,23.82-2.21c2.86,1.88,4.44,4.28,5.29,5.73
		c7.05,11.98,5.08,27.12,3.97,35.73c-4.42,34.17-2.74,44.11-7.06,45c-2.71,0.56-5.49-2.77-7.72-5.51
		c-11.44-14.05-5.12-26.67-11.91-51.61C582.86,101.54,577.18,95.97,580.89,90.69z"/>
</g>
</svg>
