<?xml version="1.0" encoding="utf-8"?>
<!-- Generator: Adobe Illustrator 24.0.2, SVG Export Plug-In . SVG Version: 6.00 Build 0)  -->
<svg version="1.1" id="Layer_1" xmlns="http://www.w3.org/2000/svg" xmlns:xlink="http://www.w3.org/1999/xlink" x="0px" y="0px"
	 viewBox="0 0 355 446" style="enable-background:new 0 0 355 446;" xml:space="preserve">
<style type="text/css">
	.st0{fill:#F4F4F4;}
	.st1{fill:#D6D6D6;}
	.st2{fill:#FCE0E3;}
	.st3{fill:#EDC3CC;}
	.st4{fill:#F2F995;}
	.st5{fill:#ED8170;}
</style>
<g>
	<g>
		<path class="st0" d="M259.29,179.27c-34.08,0-61.71,27.63-61.71,61.71c0,7.29,1.26,14.27,3.58,20.76l110.69-53.11
			C300.98,191.01,281.51,179.27,259.29,179.27z"/>
		<path class="st0" d="M319.15,225.96l-109.04,52.31c11.27,14.84,29.1,24.42,49.17,24.42c34.08,0,61.71-27.63,61.71-61.71
			C321,235.8,320.36,230.77,319.15,225.96z"/>
		<path class="st1" d="M311.85,208.63l-110.69,53.11c2.13,5.99,5.18,11.56,8.95,16.53l109.04-52.31
			C317.6,219.76,315.12,213.93,311.85,208.63z"/>
	</g>
	<g>
		<path class="st2" d="M122.26,148.87c0,20.55,16.67,37.22,37.22,37.22c2.64,0,5.21-0.28,7.7-0.8l-26.27-68.68
			C129.76,123.02,122.26,135.07,122.26,148.87z"/>
		<path class="st2" d="M159.48,111.64c-1.98,0-3.93,0.16-5.82,0.45l26.02,68.04c10.25-6.63,17.03-18.16,17.03-31.26
			C196.71,128.31,180.04,111.64,159.48,111.64z"/>
		<path class="st3" d="M140.91,116.6l26.27,68.68c4.52-0.95,8.74-2.72,12.5-5.15l-26.02-68.04
			C149.08,112.81,144.77,114.36,140.91,116.6z"/>
	</g>
	<g>
		<path class="st4" d="M103.84,183.7c-14.99-16.87-41.07-18.41-57.94-3.42l0,0c-16.87,14.99-18.41,41.07-3.41,57.94l33.21,37.37
			c20.86-18.78,43.09-34.45,63.5-52.11L103.84,183.7z"/>
		<path class="st5" d="M169.12,257.15l-29.91-33.66c-20.41,17.65-42.65,33.33-63.5,52.11l32.06,36.08
			c14.99,16.87,41.07,18.41,57.94,3.42l0,0C182.57,300.09,184.11,274.02,169.12,257.15z"/>
	</g>
</g>
</svg>
