<?xml version="1.0" encoding="utf-8"?>
<!-- Generator: Adobe Illustrator 24.0.2, SVG Export Plug-In . SVG Version: 6.00 Build 0)  -->
<svg version="1.1" id="Layer_1" xmlns="http://www.w3.org/2000/svg" xmlns:xlink="http://www.w3.org/1999/xlink" x="0px" y="0px"
	 viewBox="0 0 1024 446" style="enable-background:new 0 0 1024 446;" xml:space="preserve">
<style type="text/css">
	.st0{fill:#E8E8E8;}
	.st1{fill:#F7F7F7;}
	.st2{fill:#A0A0A0;}
	.st3{fill:#EA7171;}
	.st4{fill:#C9C9C9;stroke:#7C7C7C;stroke-width:5;stroke-miterlimit:10;}
	.st5{fill:#FFE473;}
</style>
<g>
	<g>
		<g>
			<path class="st0" d="M111.74,234.64c0,15.94-12.92,28.85-28.85,28.85c-15.94,0-28.85-12.92-28.85-28.85
				c0-14.12,10.14-25.86,23.53-28.37c1.73-0.32,3.51-0.49,5.32-0.49c6.81,0,13.06,2.35,18,6.3c3.43,2.74,6.23,6.25,8.11,10.27
				C110.75,226.08,111.74,230.25,111.74,234.64z"/>
		</g>
		<path class="st1" d="M100.88,212.09L88.73,228.7l-9.67-3.91l-1.49-18.51c1.73-0.32,3.51-0.49,5.32-0.49
			C89.69,205.79,95.95,208.14,100.88,212.09z"/>
		<path class="st1" d="M111.74,234.64H93.88l-1.75-3.47l16.87-8.81C110.75,226.08,111.74,230.25,111.74,234.64z"/>
	</g>
	<g>
		<g>
			<path class="st2" d="M192.35,112.48c-1.41,0-2.55-1.14-2.55-2.55V59.24c0-11.08,7.94-20.4,18.87-22.17l5.79-0.94
				c1.4-0.22,2.7,0.72,2.93,2.11c0.22,1.39-0.72,2.7-2.11,2.93l-5.79,0.94c-8.45,1.37-14.58,8.57-14.58,17.13v50.69
				C194.9,111.34,193.76,112.48,192.35,112.48z"/>
		</g>
		<g>
			<path class="st2" d="M284.47,111.25c-1.41,0-2.55-1.14-2.55-2.55V59.09c0-8.53-6.11-15.74-14.53-17.12l-4.83-0.8
				c-1.39-0.23-2.33-1.54-2.1-2.93c0.23-1.39,1.53-2.33,2.93-2.1l4.83,0.8c10.9,1.8,18.81,11.11,18.81,22.16v49.61
				C287.02,110.11,285.88,111.25,284.47,111.25z"/>
		</g>
	</g>
	<g>
		<g>
			<path class="st3" d="M225.05,44.56l-5.31,0.64c-4.61,0.55-8.83-2.76-9.39-7.37v0c-0.55-4.61,2.76-8.83,7.37-9.39l5.31-0.64
				c4.61-0.55,8.83,2.76,9.39,7.37v0C232.97,39.78,229.66,44.01,225.05,44.56z"/>
			<path class="st3" d="M213.63,43.35l-2.45,0.3c-3.15,0.38-6.03-1.89-6.41-5.03v0c-0.38-3.15,1.89-6.03,5.03-6.41l2.45-0.3
				c3.15-0.38,6.03,1.89,6.41,5.03l0,0C219.04,40.09,216.78,42.97,213.63,43.35z"/>
		</g>
		<g>
			<path class="st3" d="M252.44,45.11l5.31,0.64c4.61,0.55,8.83-2.76,9.39-7.37v0c0.55-4.61-2.76-8.83-7.37-9.39l-5.31-0.64
				c-4.61-0.55-8.83,2.76-9.39,7.37v0C244.51,40.33,247.83,44.55,252.44,45.11z"/>
			<path class="st3" d="M263.86,43.9l2.45,0.3c3.15,0.38,6.03-1.89,6.41-5.03l0,0c0.38-3.15-1.89-6.03-5.03-6.41l-2.45-0.3
				c-3.15-0.38-6.03,1.89-6.41,5.03v0C258.44,40.63,260.71,43.52,263.86,43.9z"/>
		</g>
		<g>
			<g>
				<path class="st3" d="M243.01,171.69h-9.21c-26.07,0-47.29-25.05-47.29-55.85v-5.91c0-3.22,2.61-5.83,5.83-5.83
					s5.83,2.61,5.83,5.83v5.91c0,24.36,15.98,44.19,35.62,44.19h9.21c19.64,0,35.62-19.82,35.62-44.19v-7.14
					c0-3.22,2.61-5.83,5.83-5.83s5.83,2.61,5.83,5.83v7.14C290.3,146.64,269.09,171.69,243.01,171.69z"/>
			</g>
			<g>
				<path class="st3" d="M158.87,417c-1.95,0-3.99-0.14-6.1-0.48c-25.12-3.97-44.98-32.14-59.05-83.72
					c-10.5-38.54-14.1-77.05-14.47-81.32c-0.28-3.21,2.09-6.04,5.3-6.32c3.2-0.28,6.04,2.09,6.32,5.3
					c4.45,50.67,23.5,148.18,63.72,154.54c9.05,1.43,16.59-2.12,20.21-3.83c26.73-12.6,45.26-53.58,53.6-118.51
					c6.31-49.13,5.04-97.36,4.2-115.81c-0.15-3.22,2.34-5.94,5.56-6.09c3.21-0.13,5.94,2.34,6.09,5.56
					c0.85,18.76,2.14,67.79-4.29,117.82c-8.99,70.07-29.25,112.99-60.19,127.58C176.19,413.42,168.59,417,158.87,417z"/>
			</g>
		</g>
	</g>
	<circle class="st4" cx="82.88" cy="234.64" r="14.38"/>
	<g>
		<g>
			<path class="st5" d="M40.57,226c-0.07,0-0.14,0-0.21-0.01c-2.01-0.12-3.55-1.84-3.43-3.85c0.23-3.96,1.37-9.91,5.49-15.76
				c4.68-6.63,10.88-9.68,14.15-10.91c1.89-0.71,3.99,0.25,4.69,2.13c0.71,1.89-0.25,3.99-2.13,4.69c-2.49,0.93-7.2,3.25-10.76,8.29
				c-3.13,4.44-4,8.96-4.17,11.97C44.09,224.51,42.48,226,40.57,226z"/>
		</g>
		<g>
			<path class="st5" d="M124.95,227.2c-1.92,0-3.52-1.5-3.64-3.43c-0.17-3.01-1.04-7.53-4.17-11.97c-3.55-5.03-8.27-7.35-10.76-8.29
				c-1.89-0.71-2.84-2.81-2.13-4.69s2.81-2.84,4.69-2.13c3.28,1.23,9.47,4.28,14.15,10.91c4.13,5.85,5.27,11.8,5.49,15.76
				c0.12,2.01-1.42,3.73-3.43,3.85C125.09,227.2,125.02,227.2,124.95,227.2z"/>
		</g>
	</g>
</g>
<g>
	<g>
		<g>
			<path class="st0" d="M474.06,232.53c0,15.94-12.92,28.85-28.85,28.85c-15.94,0-28.85-12.92-28.85-28.85
				c0-14.12,10.14-25.86,23.53-28.37c1.73-0.32,3.51-0.49,5.32-0.49c6.81,0,13.06,2.35,18,6.3c3.43,2.74,6.23,6.25,8.11,10.27
				C473.08,223.97,474.06,228.13,474.06,232.53z"/>
		</g>
		<path class="st1" d="M463.2,209.98l-12.15,16.61l-9.67-3.91l-1.49-18.51c1.73-0.32,3.51-0.49,5.32-0.49
			C452.01,203.68,458.27,206.03,463.2,209.98z"/>
		<path class="st1" d="M474.06,232.53H456.2l-1.75-3.47l16.87-8.81C473.08,223.97,474.06,228.13,474.06,232.53z"/>
	</g>
	<g>
		<g>
			<path class="st2" d="M554.67,110.37c-1.41,0-2.55-1.14-2.55-2.55V57.13c0-11.08,7.94-20.4,18.87-22.17l5.79-0.94
				c1.4-0.22,2.7,0.72,2.93,2.11c0.22,1.39-0.72,2.7-2.11,2.93L571.8,40c-8.45,1.37-14.58,8.57-14.58,17.13v50.69
				C557.22,109.23,556.08,110.37,554.67,110.37z"/>
		</g>
		<g>
			<path class="st2" d="M646.79,109.14c-1.41,0-2.55-1.14-2.55-2.55V56.98c0-8.53-6.11-15.74-14.53-17.12l-4.83-0.8
				c-1.39-0.23-2.33-1.54-2.1-2.93c0.23-1.39,1.53-2.33,2.93-2.1l4.83,0.8c10.9,1.8,18.81,11.11,18.81,22.16v49.61
				C649.34,108,648.2,109.14,646.79,109.14z"/>
		</g>
	</g>
	<g>
		<g>
			<path class="st3" d="M587.37,42.45l-5.31,0.64c-4.61,0.55-8.83-2.76-9.39-7.37v0c-0.55-4.61,2.76-8.83,7.37-9.39l5.31-0.64
				c4.61-0.55,8.83,2.76,9.39,7.37v0C595.29,37.67,591.98,41.89,587.37,42.45z"/>
			<path class="st3" d="M575.95,41.24l-2.45,0.3c-3.15,0.38-6.03-1.89-6.41-5.03v0c-0.38-3.15,1.89-6.03,5.03-6.41l2.45-0.3
				c3.15-0.38,6.03,1.89,6.41,5.03v0C581.36,37.98,579.1,40.86,575.95,41.24z"/>
		</g>
		<g>
			<path class="st3" d="M614.76,43l5.31,0.64c4.61,0.55,8.83-2.76,9.39-7.37v0c0.55-4.61-2.76-8.83-7.37-9.39l-5.31-0.64
				c-4.61-0.55-8.83,2.76-9.39,7.37v0C606.83,38.22,610.15,42.44,614.76,43z"/>
			<path class="st3" d="M626.18,41.79l2.45,0.3c3.15,0.38,6.03-1.89,6.41-5.03v0c0.38-3.15-1.89-6.03-5.03-6.41l-2.45-0.3
				c-3.15-0.38-6.03,1.89-6.41,5.03v0C620.77,38.52,623.03,41.41,626.18,41.79z"/>
		</g>
		<g>
			<g>
				<path class="st3" d="M605.33,169.58h-9.21c-26.07,0-47.29-25.05-47.29-55.85v-5.91c0-3.22,2.61-5.83,5.83-5.83
					s5.83,2.61,5.83,5.83v5.91c0,24.36,15.98,44.19,35.62,44.19h9.21c19.64,0,35.62-19.82,35.62-44.19v-7.14
					c0-3.22,2.61-5.83,5.83-5.83c3.22,0,5.83,2.61,5.83,5.83v7.14C652.62,144.52,631.41,169.58,605.33,169.58z"/>
			</g>
			<g>
				<path class="st3" d="M521.19,414.89c-1.95,0-3.99-0.14-6.1-0.48c-25.12-3.97-44.98-32.14-59.05-83.72
					c-10.5-38.54-14.1-77.05-14.47-81.32c-0.28-3.21,2.09-6.04,5.3-6.32c3.2-0.28,6.04,2.09,6.32,5.3
					c4.45,50.67,23.5,148.18,63.72,154.54c9.05,1.43,16.59-2.12,20.21-3.83c26.73-12.6,45.26-53.58,53.6-118.51
					c6.31-49.13,5.04-97.36,4.2-115.81c-0.15-3.22,2.34-5.94,5.56-6.09c3.21-0.13,5.94,2.34,6.09,5.56
					c0.85,18.76,2.14,67.79-4.29,117.82c-8.99,70.07-29.25,112.99-60.19,127.58C538.51,411.31,530.91,414.89,521.19,414.89z"/>
			</g>
		</g>
	</g>
	<circle class="st4" cx="445.2" cy="232.53" r="14.38"/>
	<g>
		<g>
			<path class="st5" d="M402.89,223.89c-0.07,0-0.14,0-0.21-0.01c-2.01-0.12-3.55-1.84-3.43-3.85c0.23-3.96,1.37-9.91,5.49-15.76
				c4.68-6.63,10.88-9.68,14.15-10.91c1.89-0.71,3.99,0.25,4.69,2.13c0.71,1.89-0.25,3.99-2.13,4.69c-2.49,0.93-7.2,3.25-10.76,8.29
				c-3.13,4.44-4,8.96-4.17,11.97C406.41,222.4,404.81,223.89,402.89,223.89z"/>
		</g>
		<g>
			<path class="st5" d="M384.53,218.39c-0.19,0-0.38-0.01-0.57-0.04c-1.99-0.31-3.35-2.18-3.04-4.16
				c0.92-5.92,3.45-14.69,10.21-22.89c7.7-9.34,17.05-13.06,21.94-14.45c1.93-0.55,3.95,0.57,4.5,2.51c0.55,1.94-0.57,3.95-2.51,4.5
				c-4.07,1.16-11.86,4.26-18.3,12.08c-5.71,6.93-7.85,14.36-8.63,19.38C387.84,217.1,386.29,218.39,384.53,218.39z"/>
		</g>
		<g>
			<path class="st5" d="M487.27,225.09c-1.92,0-3.52-1.5-3.64-3.43c-0.17-3.01-1.04-7.53-4.17-11.97
				c-3.55-5.03-8.27-7.35-10.76-8.29c-1.89-0.71-2.84-2.81-2.13-4.69c0.71-1.88,2.81-2.84,4.69-2.13
				c3.28,1.23,9.47,4.28,14.15,10.91c4.13,5.85,5.27,11.8,5.49,15.76c0.12,2.01-1.42,3.73-3.43,3.85
				C487.41,225.09,487.34,225.09,487.27,225.09z"/>
		</g>
		<g>
			<path class="st5" d="M505.63,219.58c-1.76,0-3.32-1.28-3.6-3.08c-0.79-5.02-2.92-12.46-8.63-19.38
				c-6.44-7.81-14.23-10.92-18.3-12.08c-1.94-0.55-3.06-2.57-2.51-4.5c0.55-1.94,2.57-3.06,4.5-2.51
				c4.89,1.39,14.23,5.11,21.94,14.45c6.76,8.2,9.28,16.97,10.21,22.89c0.31,1.99-1.05,3.85-3.04,4.16
				C506.01,219.57,505.82,219.58,505.63,219.58z"/>
		</g>
	</g>
</g>
<g>
	<g>
		<g>
			<path class="st0" d="M809.04,230.42c0,15.94-12.92,28.85-28.85,28.85c-15.94,0-28.85-12.92-28.85-28.85
				c0-14.12,10.14-25.86,23.53-28.37c1.73-0.32,3.51-0.49,5.32-0.49c6.81,0,13.06,2.35,18,6.3c3.43,2.74,6.23,6.25,8.11,10.27
				C808.06,221.86,809.04,226.02,809.04,230.42z"/>
		</g>
		<path class="st1" d="M798.19,207.86l-12.15,16.61l-9.67-3.91l-1.49-18.51c1.73-0.32,3.51-0.49,5.32-0.49
			C786.99,201.57,793.25,203.92,798.19,207.86z"/>
		<path class="st1" d="M809.04,230.42h-17.86l-1.75-3.47l16.87-8.81C808.06,221.86,809.04,226.02,809.04,230.42z"/>
	</g>
	<g>
		<g>
			<path class="st2" d="M889.65,108.26c-1.41,0-2.55-1.14-2.55-2.55V55.02c0-11.08,7.94-20.4,18.87-22.17l5.79-0.94
				c1.4-0.22,2.7,0.72,2.93,2.11c0.22,1.39-0.72,2.7-2.11,2.93l-5.79,0.94c-8.45,1.37-14.58,8.57-14.58,17.13v50.69
				C892.2,107.12,891.06,108.26,889.65,108.26z"/>
		</g>
		<g>
			<path class="st2" d="M981.77,107.03c-1.41,0-2.55-1.14-2.55-2.55V54.86c0-8.53-6.11-15.74-14.53-17.12l-4.83-0.8
				c-1.39-0.23-2.33-1.54-2.1-2.93c0.23-1.39,1.53-2.33,2.93-2.1l4.83,0.8c10.9,1.8,18.81,11.11,18.81,22.16v49.61
				C984.32,105.88,983.18,107.03,981.77,107.03z"/>
		</g>
	</g>
	<g>
		<g>
			<path class="st3" d="M922.35,40.34l-5.31,0.64c-4.61,0.55-8.83-2.76-9.39-7.37v0c-0.55-4.61,2.76-8.83,7.37-9.39l5.31-0.64
				c4.61-0.55,8.83,2.76,9.39,7.37v0C930.27,35.56,926.96,39.78,922.35,40.34z"/>
			<path class="st3" d="M910.93,39.13l-2.45,0.3c-3.15,0.38-6.03-1.89-6.41-5.03v0c-0.38-3.15,1.89-6.03,5.03-6.41l2.45-0.3
				c3.15-0.38,6.03,1.89,6.41,5.03v0C916.34,35.87,914.08,38.75,910.93,39.13z"/>
		</g>
		<g>
			<path class="st3" d="M949.74,40.88l5.31,0.64c4.61,0.55,8.83-2.76,9.39-7.37v0c0.55-4.61-2.76-8.83-7.37-9.39l-5.31-0.64
				c-4.61-0.55-8.83,2.76-9.39,7.37v0C941.81,36.11,945.13,40.33,949.74,40.88z"/>
			<path class="st3" d="M961.16,39.67l2.45,0.3c3.15,0.38,6.03-1.89,6.41-5.03v0c0.38-3.15-1.89-6.03-5.03-6.41l-2.45-0.3
				c-3.15-0.38-6.03,1.89-6.41,5.03v0C955.75,36.41,958.01,39.3,961.16,39.67z"/>
		</g>
		<g>
			<g>
				<path class="st3" d="M940.32,167.47h-9.21c-26.07,0-47.29-25.05-47.29-55.85v-5.91c0-3.22,2.61-5.83,5.83-5.83
					c3.22,0,5.83,2.61,5.83,5.83v5.91c0,24.36,15.98,44.19,35.62,44.19h9.21c19.64,0,35.62-19.82,35.62-44.19v-7.14
					c0-3.22,2.61-5.83,5.83-5.83c3.22,0,5.83,2.61,5.83,5.83v7.14C987.6,142.41,966.39,167.47,940.32,167.47z"/>
			</g>
			<g>
				<path class="st3" d="M856.17,412.78c-1.95,0-3.99-0.14-6.1-0.48c-25.12-3.97-44.98-32.14-59.05-83.72
					c-10.51-38.54-14.1-77.05-14.47-81.32c-0.28-3.21,2.09-6.04,5.3-6.32c3.2-0.28,6.04,2.09,6.32,5.3
					c4.45,50.67,23.5,148.18,63.72,154.54c9.05,1.43,16.59-2.12,20.21-3.83c26.73-12.6,45.26-53.58,53.6-118.51
					c6.31-49.13,5.04-97.36,4.2-115.81c-0.15-3.22,2.34-5.94,5.56-6.09c3.21-0.13,5.94,2.34,6.09,5.56
					c0.85,18.76,2.14,67.79-4.29,117.82c-8.99,70.07-29.25,112.99-60.19,127.58C873.49,409.2,865.89,412.78,856.17,412.78z"/>
			</g>
		</g>
	</g>
	<circle class="st4" cx="780.18" cy="230.42" r="14.38"/>
	<g>
		<g>
			<path class="st5" d="M719.51,216.28c-0.19,0-0.38-0.01-0.57-0.04c-1.99-0.31-3.35-2.18-3.04-4.16
				c0.92-5.92,3.45-14.69,10.21-22.89c7.7-9.34,17.05-13.06,21.94-14.45c1.93-0.55,3.95,0.57,4.5,2.51c0.55,1.94-0.57,3.95-2.51,4.5
				c-4.07,1.16-11.86,4.26-18.3,12.08c-5.71,6.93-7.85,14.36-8.63,19.38C722.82,214.99,721.27,216.28,719.51,216.28z"/>
		</g>
		<g>
			<path class="st5" d="M840.61,217.47c-1.76,0-3.32-1.28-3.6-3.08c-0.79-5.02-2.92-12.46-8.63-19.38
				c-6.44-7.81-14.23-10.92-18.3-12.08c-1.94-0.55-3.06-2.57-2.51-4.5c0.55-1.94,2.57-3.06,4.5-2.51
				c4.89,1.39,14.23,5.11,21.94,14.45c6.76,8.2,9.28,16.97,10.21,22.89c0.31,1.99-1.05,3.85-3.04,4.16
				C840.99,217.46,840.8,217.47,840.61,217.47z"/>
		</g>
	</g>
</g>
</svg>
