<?xml version="1.0" encoding="utf-8"?>
<!-- Generator: Adobe Illustrator 24.0.2, SVG Export Plug-In . SVG Version: 6.00 Build 0)  -->
<svg version="1.1" id="Layer_1" xmlns="http://www.w3.org/2000/svg" xmlns:xlink="http://www.w3.org/1999/xlink" x="0px" y="0px"
	 viewBox="0 0 1058 379" style="enable-background:new 0 0 1058 379;" xml:space="preserve">
<style type="text/css">
	.st0{fill:#D6DCE5;}
	.st1{fill:#9AA3AD;}
	.st2{fill:#D9DEE2;}
	.st3{fill:#DD2F2F;}
	.st4{fill:#6E83A0;}
	.st5{opacity:0.31;fill:#FFFFFF;}
</style>
<g>
	<g>
		<path class="st0" d="M352.1,302.58C352.1,302.58,352.1,302.57,352.1,302.58l-10.84-15.92l-100.29-76.42
			c-4.02-3.06-8.9-3.42-10.89-0.8c-2,2.62-0.36,7.22,3.66,10.29l100.92,76.91L352.1,302.58z"/>
		<g>
			
				<rect x="84.68" y="77.63" transform="matrix(0.6061 -0.7954 0.7954 0.6061 -47.028 116.219)" class="st1" width="18.3" height="55.92"/>
		</g>
		<g>
			<path class="st1" d="M43.36,110.59l41.9-54.99c3.06-4.02,8.8-4.79,12.82-1.73s4.79,8.8,1.73,12.82l-41.9,54.99
				c-3.06,4.02-8.8,4.79-12.82,1.73S40.3,114.61,43.36,110.59z"/>
		</g>
		<g>
			<path class="st1" d="M253.54,239.03l11.31-14.85c4.36-5.73,12.54-6.83,18.27-2.47l24.55,18.71c5.73,4.36,6.83,12.54,2.47,18.27
				l-11.31,14.85c-4.36,5.73-12.54,6.83-18.27,2.47L256,257.3C250.28,252.94,249.17,244.76,253.54,239.03z"/>
		</g>
		<g>
			<g>
				<path class="st2" d="M241.1,264.61l-138.31-105.4c-13.62-10.38-18.62-26.7-11.17-36.47l18.15-23.82
					c7.45-9.77,24.51-9.28,38.13,1.09l138.31,105.4c13.62,10.38,18.62,26.7,11.17,36.47l-18.15,23.82
					C271.78,275.47,254.72,274.98,241.1,264.61z"/>
			</g>
			<path class="st3" d="M103.19,131.56l18.36-23.01c4.38-5.49,12.35-6.49,17.95-2.25l142.41,107.85c5.62,4.25,6.8,12.21,2.68,17.92
				l-18.7,25.85c-4.3,5.94-12.67,7.13-18.46,2.63L105.36,149.86C99.67,145.43,98.69,137.2,103.19,131.56z"/>
			<g>
				<path class="st4" d="M218.45,247.34l-7.28-5.55l18.49-24.26c1.1-1.45,3.62-1.37,5.63,0.16s2.75,3.94,1.65,5.38L218.45,247.34z"
					/>
			</g>
			<g>
				<path class="st4" d="M182.06,219.61l-7.28-5.55l18.49-24.26c1.1-1.44,3.62-1.37,5.63,0.16c2.01,1.53,2.75,3.94,1.65,5.38
					L182.06,219.61z"/>
			</g>
			<g>
				<path class="st4" d="M145.67,191.88l-7.28-5.55l18.49-24.26c1.1-1.44,3.62-1.37,5.63,0.16s2.75,3.94,1.65,5.38L145.67,191.88z"
					/>
			</g>
			<path class="st5" d="M112.77,106.73l4.89-6.41c3.77-4.94,10.83-5.9,15.78-2.13l160,121.92c4.94,3.77,5.9,10.83,2.13,15.78
				l-4.89,6.41L112.77,106.73z"/>
		</g>
	</g>
</g>
<g>
	<g>
		<path class="st0" d="M663.1,301.58C663.1,301.58,663.1,301.57,663.1,301.58l-10.84-15.92l-100.29-76.42
			c-4.02-3.06-8.9-3.42-10.89-0.8c-2,2.62-0.35,7.22,3.66,10.29l100.92,76.91L663.1,301.58z"/>
		<g>
			
				<rect x="395.68" y="76.63" transform="matrix(0.6061 -0.7954 0.7954 0.6061 76.2656 363.1874)" class="st1" width="18.3" height="55.92"/>
		</g>
		<g>
			<path class="st1" d="M354.36,109.59l41.9-54.99c3.06-4.02,8.8-4.79,12.82-1.73s4.79,8.8,1.73,12.82l-41.9,54.99
				c-3.06,4.02-8.8,4.79-12.82,1.73C352.07,119.35,351.3,113.61,354.36,109.59z"/>
		</g>
		<g>
			<path class="st1" d="M564.54,238.03l11.31-14.85c4.36-5.73,12.54-6.83,18.27-2.47l24.55,18.71c5.73,4.36,6.83,12.54,2.47,18.27
				l-11.31,14.85c-4.36,5.73-12.54,6.83-18.27,2.47L567,256.3C561.28,251.94,560.17,243.76,564.54,238.03z"/>
		</g>
		<g>
			<g>
				<path class="st2" d="M552.1,263.61l-138.31-105.4c-13.62-10.38-18.62-26.7-11.17-36.47l18.15-23.82
					c7.45-9.77,24.51-9.28,38.13,1.09l138.31,105.4c13.62,10.38,18.62,26.7,11.17,36.47l-18.15,23.82
					C582.78,274.47,565.72,273.98,552.1,263.61z"/>
			</g>
			<path class="st3" d="M592.91,213.16l-72.26-54.72c-4.97-3.76-12.07-2.81-15.81,2.18c-6.66,8.88-13.61,17.54-20.89,25.94
				c-4.22,4.87-3.45,12.29,1.63,16.25l72.83,56.75c5.79,4.51,14.16,3.32,18.46-2.63l18.7-25.85
				C599.72,225.37,598.53,217.41,592.91,213.16z"/>
			<g>
				<path class="st4" d="M529.45,246.34l-7.28-5.55l18.49-24.26c1.1-1.45,3.62-1.37,5.63,0.16c2.01,1.53,2.75,3.94,1.65,5.38
					L529.45,246.34z"/>
			</g>
			<g>
				<path class="st4" d="M493.06,218.61l-7.28-5.55l18.49-24.26c1.1-1.44,3.62-1.37,5.63,0.16c2.01,1.53,2.75,3.94,1.65,5.38
					L493.06,218.61z"/>
			</g>
			<g>
				<path class="st4" d="M456.67,190.88l-7.28-5.55l18.49-24.26c1.1-1.44,3.62-1.37,5.63,0.16s2.75,3.94,1.65,5.38L456.67,190.88z"
					/>
			</g>
			<path class="st5" d="M423.77,105.73l4.89-6.41c3.77-4.94,10.83-5.9,15.78-2.13l160,121.92c4.94,3.77,5.9,10.83,2.13,15.78
				l-4.89,6.41L423.77,105.73z"/>
		</g>
	</g>
</g>
<g>
	<g>
		<path class="st0" d="M994.1,317.58C994.1,317.58,994.1,317.57,994.1,317.58l-10.84-15.92l-100.29-76.42
			c-4.02-3.06-8.9-3.42-10.89-0.8c-2,2.62-0.35,7.22,3.66,10.29l100.92,76.91L994.1,317.58z"/>
		<g>
			
				<rect x="726.68" y="92.63" transform="matrix(0.6061 -0.7954 0.7954 0.6061 193.9156 632.7595)" class="st1" width="18.3" height="55.92"/>
		</g>
		<g>
			<path class="st1" d="M685.36,125.59l41.9-54.99c3.06-4.02,8.8-4.79,12.82-1.73c4.02,3.06,4.79,8.8,1.73,12.82l-41.9,54.99
				c-3.06,4.02-8.8,4.79-12.82,1.73C683.07,135.35,682.3,129.61,685.36,125.59z"/>
		</g>
		<g>
			<path class="st1" d="M895.54,254.03l11.31-14.85c4.36-5.73,12.54-6.83,18.27-2.47l24.55,18.71c5.73,4.36,6.83,12.54,2.47,18.27
				l-11.31,14.85c-4.36,5.73-12.54,6.83-18.27,2.47L898,272.3C892.28,267.94,891.17,259.76,895.54,254.03z"/>
		</g>
		<g>
			<g>
				<path class="st2" d="M883.1,279.61l-138.31-105.4c-13.62-10.38-18.62-26.7-11.17-36.47l18.15-23.82
					c7.45-9.77,24.51-9.28,38.13,1.09l138.31,105.4c13.62,10.38,18.62,26.7,11.17,36.47l-18.15,23.82
					C913.78,290.47,896.72,289.98,883.1,279.61z"/>
			</g>
			<g>
				<path class="st4" d="M860.45,262.34l-7.28-5.55l18.49-24.26c1.1-1.45,3.62-1.37,5.63,0.16c2.01,1.53,2.75,3.94,1.65,5.38
					L860.45,262.34z"/>
			</g>
			<g>
				<path class="st4" d="M824.06,234.61l-7.28-5.55l18.49-24.26c1.1-1.44,3.62-1.37,5.63,0.16c2.01,1.53,2.75,3.94,1.65,5.38
					L824.06,234.61z"/>
			</g>
			<g>
				<path class="st4" d="M787.67,206.88l-7.28-5.55l18.49-24.26c1.1-1.44,3.62-1.37,5.63,0.16s2.75,3.94,1.65,5.38L787.67,206.88z"
					/>
			</g>
			<path class="st5" d="M754.77,121.73l4.89-6.41c3.77-4.94,10.83-5.9,15.78-2.13l160,121.92c4.94,3.77,5.9,10.83,2.13,15.78
				l-4.89,6.41L754.77,121.73z"/>
		</g>
	</g>
</g>
</svg>
