<?xml version="1.0" encoding="iso-8859-1"?>
<!-- Generator: Adobe Illustrator 19.0.0, SVG Export Plug-In . SVG Version: 6.00 Build 0)  -->
<svg version="1.1" id="Capa_1" xmlns="http://www.w3.org/2000/svg" xmlns:xlink="http://www.w3.org/1999/xlink" x="0px" y="0px"
	 viewBox="0 0 496 496" style="enable-background:new 0 0 496 496;" xml:space="preserve">
<g>
	<g>
		<path d="M248,0C111.033,0,0,111.033,0,248c0.154,136.903,111.097,247.846,248,248c136.967,0,248-111.033,248-248S384.967,0,248,0z
			 M248,480C119.87,480,16,376.13,16,248C16.146,119.93,119.93,16.146,248,16c128.13,0,232,103.87,232,232S376.13,480,248,480z"/>
	</g>
</g>
<g>
	<g>
		<path d="M272,56h-48c-4.418,0-8,3.582-8,8v272c0,4.418,3.582,8,8,8h48c4.418,0,8-3.582,8-8V64C280,59.582,276.418,56,272,56z
			 M264,328h-32V72h32V328z"/>
	</g>
</g>
<g>
	<g>
		<path d="M272,360h-48c-4.418,0-8,3.582-8,8v48c0,4.418,3.582,8,8,8h48c4.418,0,8-3.582,8-8v-48C280,363.582,276.418,360,272,360z
			 M264,408h-32v-32h32V408z"/>
	</g>
</g>
<g>
</g>
<g>
</g>
<g>
</g>
<g>
</g>
<g>
</g>
<g>
</g>
<g>
</g>
<g>
</g>
<g>
</g>
<g>
</g>
<g>
</g>
<g>
</g>
<g>
</g>
<g>
</g>
<g>
</g>
</svg>
