<svg id="Capa_1" enable-background="new 0 0 512 512" height="512" viewBox="0 0 512 512" width="512" xmlns="http://www.w3.org/2000/svg"><g><g><path d="m214.374 512h-172.748c-22.989 0-41.626-18.637-41.626-41.626v-172.748c0-22.989 18.637-41.626 41.626-41.626h172.748c22.989 0 41.626 18.637 41.626 41.626v172.748c0 22.989-18.637 41.626-41.626 41.626z" fill="#df75a5"/></g><g><path d="m214.374 256h-28.098c22.989 0 41.626 18.637 41.626 41.626v172.748c0 22.989-18.637 41.626-41.626 41.626h28.098c22.989 0 41.626-18.637 41.626-41.626v-172.748c0-22.989-18.637-41.626-41.626-41.626z" fill="#dd5790"/></g><g><path d="m41.626 459.967v-151.934c0-5.747 4.659-10.407 10.407-10.407h151.935c5.747 0 10.406 4.659 10.406 10.407v151.935c0 5.747-4.659 10.407-10.406 10.407h-151.935c-5.748-.001-10.407-4.66-10.407-10.408z" fill="#f9c6da"/></g><g><path d="m470.374 512h-172.748c-22.989 0-41.626-18.637-41.626-41.626v-172.748c0-22.989 18.637-41.626 41.626-41.626h172.748c22.989 0 41.626 18.637 41.626 41.626v172.748c0 22.989-18.637 41.626-41.626 41.626z" fill="#a2f4c1"/></g><g><path d="m297.626 459.967v-151.934c0-5.747 4.659-10.407 10.407-10.407h151.935c5.747 0 10.407 4.659 10.407 10.407v151.935c0 5.747-4.659 10.407-10.407 10.407h-151.935c-5.748-.001-10.407-4.66-10.407-10.408z" fill="#e4fbef"/></g><g><path d="m470.374 256h-28.098c22.989 0 41.626 18.637 41.626 41.626v172.748c0 22.989-18.637 41.626-41.626 41.626h28.098c22.989 0 41.626-18.637 41.626-41.626v-172.748c0-22.989-18.637-41.626-41.626-41.626z" fill="#86f1a7"/></g><g><path d="m342.374 256h-172.748c-22.989 0-41.626-18.637-41.626-41.626v-172.748c0-22.989 18.637-41.626 41.626-41.626h172.748c22.989 0 41.626 18.637 41.626 41.626v172.748c0 22.989-18.637 41.626-41.626 41.626z" fill="#ac80dd"/></g><g><path d="m342.374 0h-28.098c22.989 0 41.626 18.637 41.626 41.626v172.748c0 22.989-18.637 41.626-41.626 41.626h28.098c22.989 0 41.626-18.637 41.626-41.626v-172.748c0-22.989-18.637-41.626-41.626-41.626z" fill="#9d66d5"/></g><g><path d="m169.626 203.967v-151.934c0-5.747 4.659-10.407 10.406-10.407h151.935c5.747 0 10.407 4.659 10.407 10.407v151.935c0 5.747-4.659 10.406-10.407 10.406h-151.934c-5.748 0-10.407-4.659-10.407-10.407z" fill="#dddaec"/></g><g><path d="m167.615 422.291-30.526-80.886c-.027-.07-.054-.141-.083-.21-1.484-3.61-4.963-5.94-8.865-5.94-.003 0-.006 0-.009 0-3.905.003-7.385 2.341-8.864 5.956-.024.058-.047.117-.069.176l-30.805 80.883c-1.519 3.988.482 8.452 4.47 9.97 3.987 1.52 8.451-.483 9.97-4.47l5.777-15.167h38.83l5.716 15.145c1.168 3.095 4.108 5.001 7.23 5.001.906 0 1.828-.16 2.726-.5 3.993-1.508 6.008-5.966 4.502-9.958zm-53.118-25.142 13.619-35.757 13.494 35.757z" fill="#dd5790"/></g><g><path d="m403.744 378.224c3.537-4.517 5.653-10.198 5.653-16.366 0-14.669-11.934-26.603-26.604-26.603h-23.831c-4.267 0-7.726 3.459-7.726 7.726v82.038c0 2.055.819 4.026 2.275 5.475 1.448 1.442 3.408 2.251 5.451 2.251h.034c.002 0 21.917-.097 27.958-.097 16.437 0 29.809-13.372 29.809-29.809.001-10.213-5.165-19.241-13.019-24.615zm-20.951-27.517c6.148 0 11.151 5.002 11.151 11.15s-5.003 11.151-11.151 11.151c-1.748 0-16.104.022-16.104.022v-22.323zm4.162 66.489c-3.697 0-13.325.036-20.266.064v-28.748c2.37-.01 20.266-.029 20.266-.029 7.916 0 14.356 6.44 14.356 14.356s-6.44 14.357-14.356 14.357z" fill="#86f1a7"/></g><g><g><path d="m263.589 176.745c-26.878 0-48.745-21.867-48.745-48.745s21.867-48.745 48.745-48.745c9.767 0 19.194 2.88 27.26 8.329 3.536 2.389 4.466 7.192 2.077 10.727-2.388 3.536-7.191 4.466-10.727 2.077-5.502-3.717-11.937-5.681-18.61-5.681-18.358 0-33.293 14.935-33.293 33.293s14.935 33.293 33.293 33.293c6.918 0 12.764-2.082 17.375-6.188.897-.799 1.755-1.685 2.547-2.63 2.742-3.269 7.615-3.696 10.885-.955 3.269 2.742 3.697 7.616.955 10.885-1.272 1.516-2.654 2.942-4.109 4.238-7.422 6.61-16.984 10.102-27.653 10.102z" fill="#9d66d5"/></g></g></g></svg>