<svg height="512" viewBox="0 0 512 512" width="512" xmlns="http://www.w3.org/2000/svg"><path d="M214.374 512H41.626C18.637 512 0 493.363 0 470.374V297.626C0 274.637 18.637 256 41.626 256h172.748C237.363 256 256 274.637 256 297.626v172.748C256 493.363 237.363 512 214.374 512z" fill="#df75a5"/><path d="M214.374 256h-28.098c22.989 0 41.626 18.637 41.626 41.626v172.748c0 22.989-18.637 41.626-41.626 41.626h28.098C237.363 512 256 493.363 256 470.374V297.626C256 274.637 237.363 256 214.374 256z" fill="#dd5790"/><path d="M41.626 459.967V308.033c0-5.747 4.659-10.407 10.407-10.407h151.935c5.747 0 10.406 4.659 10.406 10.407v151.935c0 5.747-4.659 10.407-10.406 10.407H52.033c-5.748-.001-10.407-4.66-10.407-10.408z" fill="#f9c6da"/><path d="M470.374 512H297.626C274.637 512 256 493.363 256 470.374V297.626C256 274.637 274.637 256 297.626 256h172.748C493.363 256 512 274.637 512 297.626v172.748C512 493.363 493.363 512 470.374 512z" fill="#a2f4c1"/><path d="M297.626 459.967V308.033c0-5.747 4.659-10.407 10.407-10.407h151.935c5.747 0 10.407 4.659 10.407 10.407v151.935c0 5.747-4.659 10.407-10.407 10.407H308.033c-5.748-.001-10.407-4.66-10.407-10.408z" fill="#e4fbef"/><path d="M470.374 256h-28.098c22.989 0 41.626 18.637 41.626 41.626v172.748c0 22.989-18.637 41.626-41.626 41.626h28.098C493.363 512 512 493.363 512 470.374V297.626C512 274.637 493.363 256 470.374 256z" fill="#86f1a7"/><path d="M342.374 256H169.626C146.637 256 128 237.363 128 214.374V41.626C128 18.637 146.637 0 169.626 0h172.748C365.363 0 384 18.637 384 41.626v172.748C384 237.363 365.363 256 342.374 256z" fill="#ac80dd"/><path d="M342.374 0h-28.098c22.989 0 41.626 18.637 41.626 41.626v172.748c0 22.989-18.637 41.626-41.626 41.626h28.098C365.363 256 384 237.363 384 214.374V41.626C384 18.637 365.363 0 342.374 0z" fill="#9d66d5"/><path d="M169.626 203.967V52.033c0-5.747 4.659-10.407 10.406-10.407h151.935c5.747 0 10.407 4.659 10.407 10.407v151.935c0 5.747-4.659 10.406-10.407 10.406H180.033c-5.748 0-10.407-4.659-10.407-10.407z" fill="#dddaec"/><path d="M167.615 422.291l-30.526-80.886c-.027-.07-.054-.141-.083-.21a9.55 9.55 0 00-8.865-5.94h-.009a9.553 9.553 0 00-8.933 6.132L88.394 422.27a7.725 7.725 0 004.47 9.97 7.726 7.726 0 009.97-4.47l5.777-15.167h38.83l5.716 15.145a7.729 7.729 0 007.23 5.001 7.729 7.729 0 007.228-10.458zm-53.118-25.142l13.619-35.757 13.494 35.757z" fill="#dd5790"/><path d="M403.744 378.224a26.462 26.462 0 005.653-16.366c0-14.669-11.934-26.603-26.604-26.603h-23.831a7.726 7.726 0 00-7.726 7.726v82.038a7.725 7.725 0 007.726 7.726h.034c.002 0 21.917-.097 27.958-.097 16.437 0 29.809-13.372 29.809-29.809.001-10.213-5.165-19.241-13.019-24.615zm-20.951-27.517c6.148 0 11.151 5.002 11.151 11.15s-5.003 11.151-11.151 11.151c-1.748 0-16.104.022-16.104.022v-22.323zm4.162 66.489c-3.697 0-13.325.036-20.266.064v-28.748c2.37-.01 20.266-.029 20.266-.029 7.916 0 14.356 6.44 14.356 14.356s-6.44 14.357-14.356 14.357z" fill="#86f1a7"/><path d="M263.589 176.745c-26.878 0-48.745-21.867-48.745-48.745s21.867-48.745 48.745-48.745c9.767 0 19.194 2.88 27.26 8.329a7.726 7.726 0 012.077 10.727 7.725 7.725 0 01-10.727 2.077c-5.502-3.717-11.937-5.681-18.61-5.681-18.358 0-33.293 14.935-33.293 33.293s14.935 33.293 33.293 33.293c6.918 0 12.764-2.082 17.375-6.188a25.276 25.276 0 002.547-2.63 7.727 7.727 0 0111.84 9.93 40.874 40.874 0 01-4.109 4.238c-7.422 6.61-16.984 10.102-27.653 10.102z" fill="#9d66d5"/></svg>