<svg height="512pt" viewBox="0 0 512 512" width="512pt" xmlns="http://www.w3.org/2000/svg"><path d="M453.332 512H58.668C26.305 512 0 485.695 0 453.332v-352c0-32.363 26.305-58.664 58.668-58.664h394.664c32.363 0 58.668 26.3 58.668 58.664v352C512 485.695 485.695 512 453.332 512zM58.668 74.668C43.968 74.668 32 86.633 32 101.332v352C32 468.032 43.969 480 58.668 480h394.664c14.7 0 26.668-11.969 26.668-26.668v-352c0-14.7-11.969-26.664-26.668-26.664zm0 0"/><path d="M496 202.668H16c-8.832 0-16-7.168-16-16s7.168-16 16-16h480c8.832 0 16 7.168 16 16s-7.168 16-16 16zM122.668 128c-8.832 0-16-7.168-16-16V16c0-8.832 7.168-16 16-16s16 7.168 16 16v96c0 8.832-7.168 16-16 16zm266.664 0c-8.832 0-16-7.168-16-16V16c0-8.832 7.168-16 16-16s16 7.168 16 16v96c0 8.832-7.168 16-16 16zm0 0"/></svg>