<svg height="512" viewBox="0 0 512 512" width="512" xmlns="http://www.w3.org/2000/svg"><path d="M478.874 291.935a7.5 7.5 0 007.5-7.5V71.824c0-20.705-16.845-37.55-37.55-37.55h-32.066V22.807C416.757 10.231 406.526 0 393.95 0h-3.443C377.931 0 367.7 10.231 367.7 22.807v11.467H144.3V22.807C144.3 10.231 134.069 0 121.493 0h-3.443c-12.576 0-22.807 10.231-22.807 22.807v11.467H63.176c-20.705 0-37.55 16.845-37.55 37.55V474.5c0 20.678 16.822 37.5 37.5 37.5h385.748c20.678 0 37.5-16.822 37.5-37.5V314.435a7.5 7.5 0 00-15 0v36.137c0 9.441-7.681 17.122-17.122 17.122h-50.063c-17.712 0-32.122 14.41-32.122 32.122v50.063c0 9.441-7.681 17.122-17.122 17.122H63.176c-12.434 0-22.55-10.116-22.55-22.55V156.454h55.058a7.5 7.5 0 000-15H40.626v-69.63c0-12.434 10.116-22.55 22.55-22.55h32.066v22.052c0 12.576 10.231 22.807 22.807 22.807a7.5 7.5 0 000-15c-4.305 0-7.807-3.502-7.807-7.807V49.274H367.7v22.052c0 12.576 10.231 22.807 22.807 22.807a7.5 7.5 0 000-15c-4.305 0-7.807-3.502-7.807-7.807V49.274h66.124c12.434 0 22.55 10.116 22.55 22.55v69.629h-345.69a7.5 7.5 0 000 15h345.69v127.981a7.5 7.5 0 007.5 7.501zm-91.807 157.943v-50.063c0-9.441 7.681-17.122 17.122-17.122h50.063c2.605 0 5.136-.32 7.563-.908l-75.656 75.656c.589-2.427.908-4.957.908-7.563zM63.176 482H367.26c10.03 0 19.46-3.906 26.552-10.999l77.562-77.562v81.06c0 12.407-10.093 22.5-22.5 22.5H63.126c-12.407 0-22.5-10.093-22.5-22.5v-.047A37.345 37.345 0 0063.176 482zM129.3 34.274h-19.057V22.807c0-4.305 3.502-7.807 7.807-7.807h3.443c4.305 0 7.807 3.502 7.807 7.807zm272.457 0H382.7V22.807c0-4.305 3.502-7.807 7.807-7.807h3.443c4.305 0 7.807 3.502 7.807 7.807zM258.799 271.848c0-23.435-19.07-42.5-42.511-42.5-20.269 0-37.811 14.413-41.712 34.27a7.5 7.5 0 0014.719 2.891c2.523-12.841 13.875-22.162 26.994-22.162 15.169 0 27.511 12.336 27.511 27.5s-12.341 27.5-27.511 27.5a7.5 7.5 0 000 15c15.169 0 27.511 12.336 27.511 27.5s-12.341 27.5-27.511 27.5c-13.649 0-25.362-10.169-27.244-23.655a27.836 27.836 0 01-.266-3.845 7.5 7.5 0 00-15 0c0 1.978.138 3.969.41 5.918 2.911 20.855 21.01 36.582 42.101 36.582 23.44 0 42.511-19.065 42.511-42.5 0-14.504-7.309-27.327-18.433-35 11.122-7.672 18.431-20.496 18.431-34.999zm71.923 109.563a7.5 7.5 0 007.5-7.5V237.128a7.5 7.5 0 00-7.5-7.5h-29.245a7.5 7.5 0 000 15h21.745V373.91a7.5 7.5 0 007.5 7.501z"/></svg>