<svg id="Capa_1" enable-background="new 0 0 512 512" height="512" viewBox="0 0 512 512" width="512" xmlns="http://www.w3.org/2000/svg"><g><path d="m478.874 291.935c4.142 0 7.5-3.358 7.5-7.5v-212.611c0-20.705-16.845-37.55-37.55-37.55h-32.066v-11.467c-.001-12.576-10.232-22.807-22.808-22.807h-3.443c-12.576 0-22.807 10.231-22.807 22.807v11.467h-223.4v-11.467c0-12.576-10.231-22.807-22.807-22.807h-3.443c-12.576 0-22.807 10.231-22.807 22.807v11.467h-32.067c-20.705 0-37.55 16.845-37.55 37.55v402.676c0 20.678 16.822 37.5 37.5 37.5h385.748c20.678 0 37.5-16.822 37.5-37.5v-160.065c0-4.142-3.358-7.5-7.5-7.5s-7.5 3.358-7.5 7.5v36.137c0 9.441-7.681 17.122-17.122 17.122h-50.063c-17.712 0-32.122 14.41-32.122 32.122v50.063c0 9.441-7.681 17.122-17.122 17.122h-291.769c-12.434 0-22.55-10.116-22.55-22.55v-287.997h55.058c4.142 0 7.5-3.358 7.5-7.5s-3.358-7.5-7.5-7.5h-55.058v-69.63c0-12.434 10.116-22.55 22.55-22.55h32.066v22.052c0 12.576 10.231 22.807 22.807 22.807 4.142 0 7.5-3.358 7.5-7.5s-3.358-7.5-7.5-7.5c-4.305 0-7.807-3.502-7.807-7.807v-22.052h257.458v22.052c0 12.576 10.231 22.807 22.807 22.807 4.142 0 7.5-3.358 7.5-7.5s-3.358-7.5-7.5-7.5c-4.305 0-7.807-3.502-7.807-7.807v-22.052h66.124c12.434 0 22.55 10.116 22.55 22.55v69.629h-345.69c-4.142 0-7.5 3.358-7.5 7.5s3.358 7.5 7.5 7.5h345.69v127.981c0 4.143 3.358 7.501 7.5 7.501zm-91.807 157.943v-50.063c0-9.441 7.681-17.122 17.122-17.122h50.063c2.605 0 5.136-.32 7.563-.908l-75.656 75.656c.589-2.427.908-4.957.908-7.563zm-323.891 32.122h304.084c10.03 0 19.46-3.906 26.552-10.999l77.562-77.562v81.06c0 12.407-10.093 22.5-22.5 22.5h-385.748c-12.407 0-22.5-10.093-22.5-22.5v-.047c6.284 4.736 14.094 7.548 22.55 7.548zm66.124-447.726h-19.057v-11.467c0-4.305 3.502-7.807 7.807-7.807h3.443c4.305 0 7.807 3.502 7.807 7.807zm272.457 0h-19.057v-11.467c0-4.305 3.502-7.807 7.807-7.807h3.443c4.305 0 7.807 3.502 7.807 7.807zm-142.958 237.574c0-23.435-19.07-42.5-42.511-42.5-20.269 0-37.811 14.413-41.712 34.27-.798 4.064 1.849 8.007 5.914 8.805 4.064.797 8.006-1.849 8.805-5.914 2.523-12.841 13.875-22.162 26.994-22.162 15.169 0 27.511 12.336 27.511 27.5s-12.341 27.5-27.511 27.5c-4.142 0-7.5 3.358-7.5 7.5s3.358 7.5 7.5 7.5c15.169 0 27.511 12.336 27.511 27.5s-12.341 27.5-27.511 27.5c-13.649 0-25.362-10.169-27.244-23.655-.177-1.265-.266-2.558-.266-3.845 0-4.142-3.358-7.5-7.5-7.5s-7.5 3.358-7.5 7.5c0 1.978.138 3.969.41 5.918 2.911 20.855 21.01 36.582 42.101 36.582 23.44 0 42.511-19.065 42.511-42.5 0-14.504-7.309-27.327-18.433-35 11.122-7.672 18.431-20.496 18.431-34.999zm71.923 109.563c4.142 0 7.5-3.358 7.5-7.5v-136.783c0-4.142-3.358-7.5-7.5-7.5h-29.245c-4.142 0-7.5 3.358-7.5 7.5s3.358 7.5 7.5 7.5h21.745v129.282c0 4.143 3.358 7.501 7.5 7.501z"/></g></svg>