<?xml version="1.0" encoding="utf-8"?>
<!-- Generator: Adobe Illustrator 24.0.2, SVG Export Plug-In . SVG Version: 6.00 Build 0)  -->
<svg version="1.1" id="Layer_1" xmlns="http://www.w3.org/2000/svg" xmlns:xlink="http://www.w3.org/1999/xlink" x="0px" y="0px"
	 viewBox="0 0 200 200" style="enable-background:new 0 0 200 200;" xml:space="preserve" class="st0">
<g>
	<g>
		<path d="M104.77,187.3c-19.78,0-39.01-6.53-54.58-18.47l-12.75,3.04c-9.45,2.25-19-1.33-24.92-9.37
			c-6.41-8.7-6.98-20.34-1.46-29.66l7.33-12.38c-1.69-6.83-2.55-13.82-2.55-20.82C15.85,51.32,55.74,12,104.77,12
			c49.03,0,88.92,39.32,88.92,87.65S153.8,187.3,104.77,187.3z M51.96,153.68c1.69,0,3.34,0.59,4.66,1.69
			c13.43,11.22,30.53,17.41,48.15,17.41c41.02,0,74.39-32.8,74.39-73.13s-33.37-73.13-74.39-73.13c-41.02,0-74.4,32.8-74.4,73.13
			c0,6.7,0.95,13.39,2.81,19.89c0.55,1.92,0.29,3.99-0.73,5.71l-8.89,15c-3.09,5.22-1.58,10.61,0.66,13.64
			c1.17,1.59,4.47,5.14,9.86,3.86l16.2-3.87C50.83,153.75,51.4,153.68,51.96,153.68z"/>
	</g>
	<g>
		<path d="M98.52,120.02c-6.84-22.46,14.65-31.76,10.16-46.48c-2.26-7.44-8.21-10.18-14.82-8.17
			c-6.42,1.95-8.83,7.01-8.6,12.99c0.16,4.11-2.83,7.88-7.08,9.18l-2.07,0.63c-6.04,1.84-12.16-2.01-12.35-7.87
			c-0.48-14.88,7.81-27.64,24.18-32.62c19.19-5.84,36.53,2.53,41.24,18c7.2,23.65-14.42,32.5-9.21,49.61l0,0
			c1.45,4.76-1.56,9.9-6.73,11.47l-2.26,0.69c-5.17,1.57-10.53-1.02-11.98-5.78L98.52,120.02z M102.06,147.14
			c-2.01-6.6,1.48-14.17,8.6-16.33c7.38-2.25,14.4,2.26,16.37,8.73c2.17,7.12-1.52,14.04-8.77,16.24
			C111.41,157.87,104.23,154.26,102.06,147.14z"/>
	</g>
</g>
</svg>
