<svg xmlns="http://www.w3.org/2000/svg" viewBox="0 0 479.862 479.862"><path d="M359.862 151.047c-17.673 0-32 14.327-32 32s14.327 32 32 32c17.673 0 32-14.327 32-32s-14.327-32-32-32zm0 48c-8.837 0-16-7.163-16-16s7.163-16 16-16 16 7.163 16 16-7.164 16-16 16zm0 64c-17.673 0-32 14.327-32 32 0 17.673 14.327 32 32 32 17.673 0 32-14.327 32-32 0-17.673-14.327-32-32-32zm0 48c-8.837 0-16-7.163-16-16s7.163-16 16-16 16 7.163 16 16-7.164 16-16 16zm-56-104c-17.673 0-32 14.327-32 32s14.327 32 32 32c17.673 0 32-14.327 32-32s-14.327-32-32-32zm0 48c-8.837 0-16-7.163-16-16s7.163-16 16-16 16 7.163 16 16-7.164 16-16 16zm112-48c-17.673 0-32 14.327-32 32s14.327 32 32 32c17.673 0 32-14.327 32-32s-14.327-32-32-32zm0 48c-8.837 0-16-7.163-16-16s7.163-16 16-16 16 7.163 16 16-7.164 16-16 16zm-232-48h-32v-32a8 8 0 00-8-8h-48a8 8 0 00-8 8v32h-32a8 8 0 00-8 8v48a8 8 0 008 8h32v32a8 8 0 008 8h48a8 8 0 008-8v-32h32a8 8 0 008-8v-48a8 8 0 00-8-8zm-8 48h-32a8 8 0 00-8 8v32h-32v-32a8 8 0 00-8-8h-32v-32h32a8 8 0 008-8v-32h32v32a8 8 0 008 8h32v32z"/><path d="M360.83 119.103a7.821 7.821 0 00-.968-.056h-240a7.507 7.507 0 00-.96.056C52.159 120.187-1.068 175.171.016 241.913c1.071 65.93 54.787 118.835 120.726 118.902a119.888 119.888 0 0083.76-33.768h70.72c48.094 46.277 124.596 44.804 170.873-3.289a120.85 120.85 0 0033.767-83.831c-.194-65.953-53.089-119.645-119.032-120.824zm-1.84 225.72l-.008-.008a104.113 104.113 0 01-74.768-31.368 8 8 0 00-5.696-2.4h-77.312a8 8 0 00-5.696 2.4c-40.588 41.307-106.977 41.889-148.283 1.301S5.338 207.771 45.926 166.465a104.853 104.853 0 0174-31.362c.267 0 .535-.016.8-.048H358.99c.266.032.533.048.8.048 57.911.676 104.309 48.17 103.633 106.08-.668 57.269-47.161 103.408-104.433 103.64z"/></svg>