<?xml version="1.0" encoding="iso-8859-1"?>
<!-- Generator: Adobe Illustrator 19.0.0, SVG Export Plug-In . SVG Version: 6.00 Build 0)  -->
<svg version="1.1" id="Capa_1" xmlns="http://www.w3.org/2000/svg" xmlns:xlink="http://www.w3.org/1999/xlink" x="0px" y="0px"
	 viewBox="0 0 512.002 512.002" style="enable-background:new 0 0 512.002 512.002;" xml:space="preserve">
<g>
	<g>
		<path d="M352.374,0H66.639C59.774,0,54.19,5.585,54.19,12.449v47.127h-1.992c-15.249,0-27.656,12.405-27.656,27.655
			c0,15.249,12.406,27.656,27.656,27.656h1.992v29.072h-1.992c-15.249,0-27.656,12.406-27.656,27.655
			c0,15.249,12.406,27.656,27.656,27.656h1.992v29.072h-1.992c-15.249,0-27.656,12.406-27.656,27.655
			c0,15.249,12.406,27.656,27.656,27.656h1.992v29.072h-1.992c-15.249,0-27.656,12.405-27.656,27.655s12.406,27.656,27.656,27.656
			h1.992v29.072h-1.992c-15.249,0-27.656,12.406-27.656,27.655c0,15.249,12.406,27.656,27.656,27.656h1.992v47.134
			c0,6.865,5.585,12.449,12.449,12.449h73.854c4.125,0,7.47-3.344,7.47-7.469s-3.345-7.472-7.47-7.472H69.129v-44.644h22.179
			c4.125,0,7.47-3.344,7.47-7.469v-40.372c0-4.126-3.344-7.469-7.47-7.469H69.129v-29.072h22.179c4.125,0,7.47-3.344,7.47-7.469
			v-40.371c0-4.126-3.344-7.47-7.47-7.47H69.129v-29.072h22.179c4.125,0,7.47-3.344,7.47-7.469v-40.372
			c0-4.126-3.344-7.469-7.47-7.469H69.129v-29.072h22.179c4.125,0,7.47-3.344,7.47-7.47V151.43c0-4.126-3.344-7.47-7.47-7.47H69.129
			v-29.072h22.179c4.125,0,7.47-3.344,7.47-7.469V67.046c0-4.126-3.344-7.469-7.47-7.469H69.129V14.939h283.245
			c22.949,0,41.62,18.671,41.62,41.62v68.973c0,4.126,3.344,7.47,7.47,7.47c4.126,0,7.47-3.344,7.47-7.47V56.559
			C408.934,25.372,383.561,0,352.374,0z M83.839,412.045v25.432H52.197c-7.012,0.001-12.716-5.704-12.716-12.716
			c0-7.011,5.705-12.716,12.717-12.716H83.839z M83.839,327.663v25.432H52.197c-7.012,0-12.716-5.704-12.716-12.716
			c0-7.011,5.705-12.716,12.717-12.716H83.839z M83.839,243.28v25.432H52.197c-7.012,0.001-12.716-5.703-12.716-12.716
			c0-7.011,5.705-12.716,12.717-12.716H83.839z M83.839,158.898v25.432H52.197c-7.012,0-12.716-5.704-12.716-12.716
			c0-7.011,5.705-12.716,12.717-12.716H83.839z M83.839,74.515v25.432H52.197c-7.012,0.001-12.716-5.703-12.716-12.716
			c0-7.011,5.705-12.716,12.717-12.716H83.839z"/>
	</g>
</g>
<g>
	<g>
		<path d="M487.421,241.87c-0.423-8.649-4.189-16.617-10.605-22.433c-6.416-5.816-14.711-8.788-23.362-8.364
			c-8.65,0.423-16.617,4.19-22.433,10.605l-10.604,11.696l-11.483,12.666v-69.217c0-4.126-3.344-7.47-7.47-7.47
			c-4.126,0-7.47,3.344-7.47,7.47v84.821c0,0.278,0.018,0.551,0.047,0.821l-90.421,99.731c-0.19,0.209-0.362,0.427-0.523,0.651
			c-0.035,0.049-0.066,0.101-0.1,0.151c-0.136,0.198-0.262,0.401-0.377,0.609c-0.038,0.069-0.074,0.139-0.11,0.209
			c-0.11,0.215-0.209,0.434-0.297,0.657c-0.022,0.055-0.046,0.108-0.066,0.164c-0.104,0.284-0.193,0.573-0.262,0.865
			c-0.002,0.009-0.006,0.017-0.008,0.026l-11.562,49.899c-0.611,2.639,0.253,5.401,2.26,7.221c1.395,1.264,3.191,1.935,5.018,1.935
			c0.8,0,1.606-0.128,2.388-0.392l48.532-16.381c0.019-0.006,0.036-0.016,0.054-0.022c0.276-0.096,0.546-0.207,0.809-0.334
			c0.062-0.03,0.12-0.065,0.181-0.096c0.201-0.104,0.398-0.217,0.59-0.34c0.077-0.05,0.153-0.1,0.229-0.152
			c0.183-0.127,0.359-0.262,0.53-0.405c0.055-0.046,0.112-0.089,0.166-0.136c0.204-0.181,0.402-0.37,0.587-0.574l42.338-46.697
			v96.388c0,22.949-18.671,41.62-41.62,41.62H193.028c-4.125,0-7.47,3.344-7.47,7.469s3.344,7.469,7.47,7.469h159.346
			c31.187,0,56.559-25.372,56.559-56.559V344.639c0-0.625-0.085-1.229-0.23-1.809l59.75-65.902l10.604-11.695
			C484.874,258.817,487.844,250.519,487.421,241.87z M426.467,248.943l7.417,6.725L327.122,373.421l-7.417-6.724L426.467,248.943z
			 M307.892,405.753l5.668-24.462l18.123,16.431L307.892,405.753z M345.607,390.181l-7.417-6.725l106.763-117.753l7.417,6.724
			L345.607,390.181z M467.99,255.198l-5.586,6.161l-25.902-23.484l5.587-6.162c3.136-3.459,7.432-5.49,12.096-5.718
			c4.663-0.23,9.138,1.372,12.597,4.51c3.46,3.136,5.49,7.432,5.718,12.095C472.728,247.265,471.126,251.739,467.99,255.198z"/>
	</g>
</g>
<g>
</g>
<g>
</g>
<g>
</g>
<g>
</g>
<g>
</g>
<g>
</g>
<g>
</g>
<g>
</g>
<g>
</g>
<g>
</g>
<g>
</g>
<g>
</g>
<g>
</g>
<g>
</g>
<g>
</g>
</svg>
