<?xml version="1.0" encoding="utf-8"?>
<!-- Generator: Adobe Illustrator 24.0.2, SVG Export Plug-In . SVG Version: 6.00 Build 0)  -->
<svg version="1.1" id="Layer_1" xmlns="http://www.w3.org/2000/svg" xmlns:xlink="http://www.w3.org/1999/xlink" x="0px" y="0px"
	 viewBox="0 0 200 200" style="enable-background:new 0 0 200 200;" xml:space="preserve" class="st0">
<g>
	<path d="M150.73,15H66.44c-17.23,0-31.47,12.98-33.5,29.67H14.6c-3.86,0-6.98,3.13-6.98,6.98s3.13,6.98,6.98,6.98
		h18.06v35.78H14.6c-3.86,0-6.98,3.13-6.98,6.98s3.13,6.98,6.98,6.98h18.06v35.78H14.6c-3.86,0-6.98,3.13-6.98,6.98
		s3.13,6.98,6.98,6.98h18.95c3.46,14.97,16.88,26.18,32.89,26.18h111.09c3.86,0,6.98-3.13,6.98-6.98V48.78
		C184.5,30.15,169.35,15,150.73,15z M170.54,170.34H66.44c-10.93,0-19.82-8.89-19.82-19.81V48.78c0-10.93,8.89-19.82,19.82-19.82
		h84.29c10.93,0,19.81,8.89,19.81,19.82V170.34z"/>
	<path d="M61.79,84.36c0.26,0.23,0.57,0.44,0.93,0.6c0.87,0.48,1.8,0.72,2.76,0.72c0.28,0,0.56-0.02,0.85-0.06
		l0.09-0.01l0.08-0.02c0.67-0.19,1.27-0.5,1.81-0.94l0.06-0.05l0.02-0.02c0.11-0.08,0.26-0.2,0.39-0.4l0,0l0.16-0.16
		c0.24-0.24,0.44-0.48,0.59-0.7c0.14-0.21,0.26-0.43,0.35-0.65c0.09-0.16,0.18-0.31,0.26-0.46c0.09-0.16,0.18-0.31,0.28-0.48
		l0.02-0.04l0.02-0.04c0.09-0.17,0.16-0.34,0.23-0.49c0.04-0.09,0.09-0.2,0.15-0.32c0.14-0.27,0.22-0.55,0.26-0.84l0.02-0.03
		l0.02-0.06l0.78-1.82c1.32,0.02,2.64,0.02,3.96,0.02c0.85,0,1.7,0,2.55-0.01c2.16-0.02,4.32-0.02,6.49-0.03l0.72,1.69
		c0.06,0.29,0.15,0.59,0.29,0.92c0.06,0.21,0.15,0.42,0.26,0.61c0.06,0.1,0.11,0.21,0.17,0.31l0.02,0.03l0.04,0.08
		c0.1,0.17,0.19,0.32,0.27,0.47c0.06,0.11,0.12,0.23,0.17,0.36l0.04,0.09l0.05,0.09c0.12,0.2,0.24,0.38,0.35,0.56
		c0.16,0.24,0.36,0.48,0.59,0.71l0.16,0.16l0,0c0.13,0.18,0.27,0.31,0.4,0.4l0.08,0.07c0.53,0.44,1.14,0.75,1.81,0.94l0.08,0.02
		l0.09,0.01c0.28,0.04,0.57,0.06,0.85,0.06c0.96,0,1.89-0.24,2.76-0.72c0.35-0.16,0.67-0.36,0.94-0.61c0.26-0.24,0.49-0.51,0.67-0.8
		c0.36-0.52,0.57-1.16,0.57-1.86c0-0.29-0.01-0.55-0.03-0.78c-0.02-0.23-0.05-0.47-0.09-0.72c-0.09-0.43-0.19-0.79-0.31-1.16
		l-0.16-0.48L84.54,51.06l-0.31-0.82c-0.08-0.26-0.21-0.53-0.37-0.8c-0.03-0.06-0.09-0.16-0.13-0.33l-0.02-0.06l-0.02-0.06
		c-0.21-0.54-0.44-1.02-0.69-1.44c-0.34-0.5-0.62-0.9-0.89-1.25c-0.33-0.45-0.81-0.82-1.41-1.09l-0.05-0.02l-0.05-0.02
		c-0.64-0.23-1.37-0.34-2.18-0.34c-0.81,0-1.54,0.12-2.18,0.34L76.2,45.2l-0.05,0.02c-0.6,0.27-1.07,0.64-1.42,1.1l-0.41,0.51
		c-0.19,0.24-0.36,0.5-0.5,0.77c-0.24,0.41-0.46,0.87-0.66,1.39l-0.02,0.05l-0.02,0.06c-0.05,0.18-0.1,0.28-0.13,0.33
		c-0.16,0.28-0.29,0.55-0.39,0.85l-0.3,0.81L61.18,78.48l-0.19,0.56c-0.12,0.36-0.22,0.73-0.3,1.09c-0.06,0.33-0.09,0.56-0.11,0.79
		c-0.02,0.23-0.03,0.49-0.03,0.79c0,0.69,0.2,1.32,0.59,1.89C61.31,83.87,61.53,84.13,61.79,84.36z M75.64,68.34l0.23-0.55
		c0.45-1,0.92-2.07,1.41-3.19c0.37-0.85,0.75-1.71,1.16-2.58c0.4,0.88,0.79,1.73,1.16,2.58c0.48,1.11,0.96,2.18,1.42,3.22l0.21,0.51
		H75.64z"/>
	<path d="M100.63,68.67c0.48,0.43,0.95,0.73,1.46,0.95c0.5,0.21,1.02,0.35,1.56,0.42c0.37,0.05,0.75,0.07,1.14,0.07
		c0.13,0,0.25,0,0.38-0.01c0.45-0.02,0.89-0.05,1.32-0.08l10.45-0.05h0.5c0.36,0,0.79-0.03,1.26-0.09c0.53-0.06,1.08-0.21,1.64-0.42
		c0.66-0.25,1.21-0.62,1.63-1.1c0.36-0.42,0.62-0.95,0.8-1.64c0.15-0.59,0.23-1.16,0.23-1.7c0-0.53-0.09-1.06-0.26-1.55
		c-0.19-0.55-0.48-1.01-0.87-1.4c-0.71-0.66-1.45-1.12-2.25-1.39c-0.51-0.17-1.02-0.26-1.54-0.26h0c-0.29,0-0.59,0.03-0.88,0.09
		h-10.19c-0.58,0.02-1.11,0.03-1.63,0.03c-0.26,0-0.52,0-0.78-0.01l-0.15,0c-0.92,0-1.83,0.18-2.68,0.55
		c-0.89,0.32-1.59,0.92-2.08,1.77c-0.45,0.78-0.68,1.61-0.68,2.44c0,0.73,0.17,1.39,0.49,1.96C99.78,67.72,100.16,68.2,100.63,68.67
		z"/>
	<path d="M140.8,57.38c-0.81,1.2-1.6,2.36-2.37,3.49c-0.77,1.13-1.54,2.2-2.29,3.19l-5.01,7.28l-2.77,3.89l-0.06,0.08
		l-0.05,0.09c-0.04,0.08-0.08,0.16-0.13,0.22c-0.05,0.07-0.12,0.15-0.21,0.24l-0.09,0.09l-0.07,0.1c-0.09,0.13-0.19,0.3-0.3,0.49
		c-0.1,0.18-0.19,0.35-0.27,0.5l-0.03,0.05l-0.02,0.05c-0.04,0.09-0.09,0.18-0.15,0.28c-0.13,0.19-0.24,0.38-0.33,0.57
		c-0.14,0.17-0.25,0.36-0.34,0.56c-0.01,0.03-0.04,0.07-0.07,0.12l-0.1,0.15L126.08,79c-0.07,0.2-0.13,0.4-0.2,0.58
		c-0.12,0.34-0.19,0.7-0.19,1.07c0,0.11,0.01,0.22,0.03,0.33c-0.02,0.21-0.02,0.4,0.01,0.58c0.02,0.2,0.07,0.4,0.14,0.61
		c0.1,0.69,0.5,1.31,1.2,1.83c0.23,0.19,0.6,0.43,1.07,0.69l0.18,0.1l0.2,0.04c0.21,0.04,0.38,0.07,0.53,0.09
		c0.05,0.01,0.11,0.02,0.18,0.04c0.18,0.06,0.36,0.1,0.55,0.11l0.06,0.02l0.11,0.02c0.28,0.05,0.57,0.07,0.85,0.07h0.64h19.44
		c0.23,0,0.45-0.01,0.65-0.03c0.18-0.02,0.37-0.05,0.55-0.08c0.53-0.06,1.05-0.21,1.54-0.45c0.55-0.18,1.04-0.47,1.45-0.88
		c0.22-0.22,0.41-0.47,0.58-0.74c0.21-0.32,0.35-0.7,0.42-1.12c0.28-1.23,0.06-2.41-0.64-3.41l-0.04-0.06l-0.05-0.06
		c-0.37-0.42-0.84-0.79-1.38-1.11l-0.12-0.07l-0.13-0.04l-0.23-0.08l-0.23-0.12l-0.05-0.02l-0.05-0.02
		c-0.29-0.12-0.61-0.19-0.96-0.22c-0.18-0.01-0.32-0.03-0.46-0.06l-0.07-0.01l-0.08-0.01c-0.97-0.07-1.93-0.11-2.86-0.11h-2.76
		h-3.51c-0.85,0-1.52-0.01-2.01-0.03c-0.53-0.02-0.92-0.03-1.18-0.03h-0.14c1.71-2.5,3.47-5.04,5.26-7.58
		c2.23-3.18,4.47-6.37,6.72-9.59c0.49-0.7,1-1.4,1.53-2.11c0.53-0.71,1.07-1.47,1.59-2.25c0.24-0.34,0.55-0.79,0.91-1.34
		c0.4-0.61,0.74-1.25,1.01-1.9c0.29-0.71,0.45-1.42,0.47-2.11c0.03-0.91-0.32-1.74-1.03-2.4L155.44,47l-0.17-0.08
		c-0.14-0.07-0.25-0.14-0.36-0.22c-0.26-0.21-0.54-0.38-0.82-0.53c-0.83-0.47-1.81-0.73-2.87-0.73c-0.08,0-0.17,0-0.26,0
		c-0.28,0.01-0.56,0.02-0.84,0.02c-0.55,0-1.09-0.02-1.59-0.07c-0.3-0.03-0.6-0.04-0.92-0.04c-0.16,0-0.31,0-0.48,0.01
		c-0.41,0.02-0.8,0.03-1.18,0.03c-3.1,0-5.68-0.01-7.73-0.03c-0.69-0.01-1.32-0.01-1.9-0.01c-1.16,0-2.09,0.01-2.79,0.04l-0.22,0
		h-0.13l-0.13,0.03c-0.27,0.05-0.56,0.08-0.87,0.08c-0.41,0-0.83,0.02-1.24,0.05c-0.85,0.01-1.72,0.18-2.6,0.51
		c-0.77,0.31-1.41,0.79-1.91,1.44c-0.5,0.67-0.75,1.44-0.75,2.3c0,0.59,0.07,1.13,0.2,1.59c0.13,0.65,0.5,1.25,1.09,1.78
		c0.61,0.56,1.38,0.93,2.27,1.09c0.68,0.13,1.32,0.22,1.89,0.26c1.46,0.04,2.74,0.06,3.91,0.08l2.33,0.04l1.02,0.02
		c1.08,0.02,2.16,0.03,3.26,0.03h0.98c-0.05,0.07-0.1,0.14-0.15,0.21C142,55.58,141.45,56.39,140.8,57.38z"/>
	<path d="M152.22,101.4H64.95c-2.89,0-5.24,2.34-5.24,5.24s2.34,5.24,5.24,5.24h87.27c2.89,0,5.24-2.34,5.24-5.24
		S155.11,101.4,152.22,101.4z"/>
	<path d="M152.22,123.65H64.95c-2.89,0-5.24,2.34-5.24,5.24c0,2.89,2.34,5.24,5.24,5.24h87.27
		c2.89,0,5.24-2.34,5.24-5.24C157.45,125.99,155.11,123.65,152.22,123.65z"/>
	<path d="M152.22,145.9H64.95c-2.89,0-5.24,2.34-5.24,5.24c0,2.89,2.34,5.24,5.24,5.24h87.27
		c2.89,0,5.24-2.34,5.24-5.24C157.45,148.25,155.11,145.9,152.22,145.9z"/>
</g>
</svg>
