<svg xmlns="http://www.w3.org/2000/svg" viewBox="0 0 512.002 512.002"><path d="M352.374 0H66.639C59.774 0 54.19 5.585 54.19 12.449v47.127h-1.992c-15.249 0-27.656 12.405-27.656 27.655 0 15.249 12.406 27.656 27.656 27.656h1.992v29.072h-1.992c-15.249 0-27.656 12.406-27.656 27.655s12.406 27.656 27.656 27.656h1.992v29.072h-1.992c-15.249 0-27.656 12.406-27.656 27.655s12.406 27.656 27.656 27.656h1.992v29.072h-1.992c-15.249 0-27.656 12.405-27.656 27.655s12.406 27.656 27.656 27.656h1.992v29.072h-1.992c-15.249 0-27.656 12.406-27.656 27.655s12.406 27.656 27.656 27.656h1.992v47.134c0 6.865 5.585 12.449 12.449 12.449h73.854c4.125 0 7.47-3.344 7.47-7.469s-3.345-7.472-7.47-7.472H69.129v-44.644h22.179a7.47 7.47 0 007.47-7.469v-40.372a7.469 7.469 0 00-7.47-7.469H69.129v-29.072h22.179a7.47 7.47 0 007.47-7.469v-40.371a7.47 7.47 0 00-7.47-7.47H69.129v-29.072h22.179a7.47 7.47 0 007.47-7.469v-40.372a7.469 7.469 0 00-7.47-7.469H69.129v-29.072h22.179a7.47 7.47 0 007.47-7.47V151.43a7.47 7.47 0 00-7.47-7.47H69.129v-29.072h22.179a7.47 7.47 0 007.47-7.469V67.046a7.469 7.469 0 00-7.47-7.469H69.129V14.939h283.245c22.949 0 41.62 18.671 41.62 41.62v68.973a7.47 7.47 0 007.47 7.47 7.47 7.47 0 007.47-7.47V56.559C408.934 25.372 383.561 0 352.374 0zM83.839 412.045v25.432H52.197c-7.012.001-12.716-5.704-12.716-12.716 0-7.011 5.705-12.716 12.717-12.716h31.641zm0-84.382v25.432H52.197c-7.012 0-12.716-5.704-12.716-12.716 0-7.011 5.705-12.716 12.717-12.716h31.641zm0-84.383v25.432H52.197c-7.012.001-12.716-5.703-12.716-12.716 0-7.011 5.705-12.716 12.717-12.716h31.641zm0-84.382v25.432H52.197c-7.012 0-12.716-5.704-12.716-12.716 0-7.011 5.705-12.716 12.717-12.716h31.641zm0-84.383v25.432H52.197c-7.012.001-12.716-5.703-12.716-12.716 0-7.011 5.705-12.716 12.717-12.716h31.641zM487.421 241.87c-.423-8.649-4.189-16.617-10.605-22.433-6.416-5.816-14.711-8.788-23.362-8.364-8.65.423-16.617 4.19-22.433 10.605l-10.604 11.696-11.483 12.666v-69.217a7.47 7.47 0 00-7.47-7.47 7.47 7.47 0 00-7.47 7.47v84.821c0 .278.018.551.047.821l-90.421 99.731a7.27 7.27 0 00-.523.651c-.035.049-.066.101-.1.151a7.4 7.4 0 00-.377.609c-.038.069-.074.139-.11.209-.11.215-.209.434-.297.657-.022.055-.046.108-.066.164a7.61 7.61 0 00-.262.865l-.008.026-11.562 49.899a7.471 7.471 0 009.666 8.764l48.532-16.381c.019-.006.036-.016.054-.022.276-.096.546-.207.809-.334.062-.03.12-.065.181-.096a7.38 7.38 0 001.349-.897c.055-.046.112-.089.166-.136.204-.181.402-.37.587-.574l42.338-46.697v96.388c0 22.949-18.671 41.62-41.62 41.62H193.028a7.47 7.47 0 100 14.938h159.346c31.187 0 56.559-25.372 56.559-56.559V344.639a7.44 7.44 0 00-.23-1.809l59.75-65.902 10.604-11.695c5.817-6.416 8.787-14.714 8.364-23.363zm-60.954 7.073l7.417 6.725-106.762 117.753-7.417-6.724 106.762-117.754zm-118.575 156.81l5.668-24.462 18.123 16.431-23.791 8.031zm37.715-15.572l-7.417-6.725 106.763-117.753 7.417 6.724-106.763 117.754zM467.99 255.198l-5.586 6.161-25.902-23.484 5.587-6.162a17.365 17.365 0 0112.096-5.718 17.355 17.355 0 0112.597 4.51A17.36 17.36 0 01472.5 242.6a17.371 17.371 0 01-4.51 12.598z"/></svg>