<?xml version="1.0" encoding="utf-8"?>
<!-- Generator: Adobe Illustrator 24.0.2, SVG Export Plug-In . SVG Version: 6.00 Build 0)  -->
<svg version="1.1" id="Layer_1" xmlns="http://www.w3.org/2000/svg" xmlns:xlink="http://www.w3.org/1999/xlink" x="0px" y="0px"
	 viewBox="0 0 200 200" style="enable-background:new 0 0 200 200;" xml:space="preserve" class="st0">
<g>
	<g>
		<path d="M135.71,189.5H64.42c-20.59,0-37.33-14.12-37.33-31.47v-57.38c0-4.01,3.25-7.25,7.25-7.25
			s7.25,3.25,7.25,7.25v57.38c0,9.35,10.24,16.96,22.83,16.96h71.29c12.59,0,22.83-7.61,22.83-16.96v-57.38
			c0-4.01,3.25-7.25,7.25-7.25c4.01,0,7.25,3.25,7.25,7.25v57.38C173.04,175.39,156.29,189.5,135.71,189.5z"/>
	</g>
	<g>
		<path d="M181.65,77.09c-1.47,0-2.96-0.4-4.3-1.23l-77.28-48.09L22.78,75.85c-3.83,2.38-8.86,1.21-11.24-2.62
			c-2.38-3.83-1.21-8.86,2.62-11.24l81.59-50.77c2.64-1.64,5.98-1.64,8.62,0L185.96,62c3.83,2.38,5,7.41,2.62,11.24
			C187.04,75.72,184.37,77.09,181.65,77.09z"/>
	</g>
	<g>
		<path d="M123.8,160.49H76.32V98.83c0-4,3.24-7.24,7.24-7.24h33.01c4,0,7.24,3.24,7.24,7.24V160.49z"/>
	</g>
</g>
</svg>
