<svg version="1.1" id="Layer_1" xmlns="http://www.w3.org/2000/svg" xmlns:xlink="http://www.w3.org/1999/xlink" x="0px" y="0px"
	 viewBox="0 0 200 200" style="enable-background:new 0 0 200 200;" xml:space="preserve">
<g stroke="null" id="svg_7">
    <path stroke="null" id="svg_1" fill="#FFFFFF" d="m100.00264,116.203c15.78815,0 28.5869,-13.31275 28.5869,-29.73496c0,-16.42209 -12.79875,-29.73496 -28.5869,-29.73496c-15.78815,0 -28.58693,13.31287 -28.58693,29.73496c0,16.42221 12.79879,29.73496 28.58693,29.73496z" class="st0"/>
    <path stroke="null" id="svg_2" fill="#FFFFFF" d="m138.59793,184.9343l-77.19586,0l0,-46.00668c0,-10.35343 7.98959,-18.75304 17.8383,-18.75304l41.51921,0c9.84866,0 17.83835,8.39961 17.83835,18.75304l0,46.00668z" class="st0"/>
    <path stroke="null" id="svg_3" fill="#FFFFFF" d="m70.90115,26.9723l58.01898,0l0,16.57685c0,5.23154 -4.24095,9.47249 -9.47249,9.47249l-39.07401,0c-5.23154,0 -9.47249,-4.24095 -9.47249,-9.47249l0,-16.57685z" class="st0"/>
    <path stroke="null" id="svg_4" fill="#FFFFFF" d="m70.90115,20.17307c0,-4.1507 4.95979,-6.29367 7.98235,-3.44893l12.14669,11.43223l-20.12903,0l0,-7.98329z" class="st0"/>
    <path stroke="null" id="svg_5" fill="#FFFFFF" d="m96.26646,17.68384c1.74542,-3.49085 6.727,-3.49085 8.47243,0l5.23627,10.47252l-18.94497,0l5.23627,-10.47252z" class="st0"/>
    <path stroke="null" id="svg_6" fill="#FFFFFF" d="m120.83477,17.29664c2.98371,-2.98367 8.08524,-0.87053 8.08536,3.34901l0,7.51071l-18.94497,0l10.85961,-10.85972z" class="st0"/>
</g>
</svg>