<svg width="67" height="149" viewBox="0 0 67 149" fill="none" xmlns="http://www.w3.org/2000/svg">
<path d="M33.5777 90.3599C46.9116 90.3599 57.7208 79.1166 57.7208 65.2472C57.7208 51.3779 46.9116 40.1345 33.5777 40.1345C20.2438 40.1345 9.43457 51.3779 9.43457 65.2472C9.43457 79.1166 20.2438 90.3599 33.5777 90.3599Z" fill="white"/>
<path d="M66.1734 148.407H0.977539V109.552C0.977539 100.808 7.72516 93.7141 16.0429 93.7141H51.108C59.4257 93.7141 66.1734 100.808 66.1734 109.552V148.407Z" fill="white"/>
<path d="M9 15H58V29C58 33.4183 54.4183 37 50 37H17C12.5817 37 9 33.4183 9 29V15Z" fill="white"/>
<path d="M9 9.2577C9 5.75222 13.1888 3.94237 15.7415 6.3449L26 16H9V9.2577Z" fill="white"/>
<path d="M30.4223 7.15542C31.8964 4.20722 36.1036 4.20722 37.5777 7.15542L42 16H26L30.4223 7.15542Z" fill="white"/>
<path d="M51.1715 6.82841C53.6914 4.30855 57.9999 6.0932 58 9.65682L58 16H42L51.1715 6.82841Z" fill="white"/>
</svg>
