<svg xmlns="http://www.w3.org/2000/svg" viewBox="0 0 480.912 480.912"><path d="M440.456 152.664V88.456h-111.2l-16.8-9.688V40.456C312.3 18.365 294.265.584 272.174.74c-19.01.134-35.3 13.63-38.966 32.284L176.008 0l-51.056 88.456H88.456v63.2L.008 304.912l88.448 51.056v84.488h146.4l70.08 40.456 23.32-40.456h112.2v-194.4l40.448-70.072-40.448-23.32zm-16-48.208V143.4l-67.488-38.944h67.488zm-176-64c0-13.255 10.745-24 24-24s24 10.745 24 24v29.08l-48-27.712v-1.368zm-144 64h11.256l-11.256 19.504v-19.504zm0 320V365.2l102.648 59.256H104.456zm320 0h-86.952L424.456 273.8v150.656zm-125.408 34.592l-277.184-160 160-277.184 114.592 66.144v32.448c0 13.255-10.745 24-24 24s-24-10.745-24-24v-48h-16v48c0 22.091 17.909 40 40 40s40-17.909 40-40v-23.2l146.592 84.6-160 277.192z"/><path d="M280.456 112.456a8 8 0 01-8-8v-16h-16v16c0 13.255 10.745 24 24 24h8v-16h-8zm-98.361 71.216l7.998-13.858L314.81 241.8l-7.998 13.857zm-24 43.72l8-13.856 124.703 72-8 13.856zm-24.002 43.751l8-13.856 124.703 72-8 13.855z"/></svg>