<?xml version="1.0" encoding="iso-8859-1"?>
<!-- Generator: Adobe Illustrator 19.0.0, SVG Export Plug-In . SVG Version: 6.00 Build 0)  -->
<svg version="1.1" id="Capa_1" xmlns="http://www.w3.org/2000/svg" xmlns:xlink="http://www.w3.org/1999/xlink" x="0px" y="0px"
	 viewBox="0 0 480.912 480.912" style="enable-background:new 0 0 480.912 480.912;" xml:space="preserve" fill="rgba(0,0,0,0.3)">
<g>
	<g>
		<path d="M440.456,152.664V88.456h-111.2l-16.8-9.688V40.456C312.3,18.365,294.265,0.584,272.174,0.74
			c-19.01,0.134-35.3,13.63-38.966,32.284L176.008,0l-51.056,88.456H88.456v63.2L0.008,304.912l88.448,51.056v84.488h146.4
			l70.08,40.456l23.32-40.456h112.2v-194.4l40.448-70.072L440.456,152.664z M424.456,104.456V143.4l-67.488-38.944H424.456z
			 M248.456,40.456c0-13.255,10.745-24,24-24s24,10.745,24,24v29.08l-48-27.712V40.456z M104.456,104.456h11.256l-11.256,19.504
			V104.456z M104.456,424.456V365.2l102.648,59.256H104.456z M424.456,424.456h-86.952L424.456,273.8V424.456z M299.048,459.048
			l-277.184-160l160-277.184l114.592,66.144v32.448c0,13.255-10.745,24-24,24s-24-10.745-24-24v-48h-16v48c0,22.091,17.909,40,40,40
			c22.091,0,40-17.909,40-40v-23.2l146.592,84.6L299.048,459.048z"/>
	</g>
</g>
<g>
	<g>
		<path d="M280.456,112.456c-4.418,0-8-3.582-8-8v-16h-16v16c0,13.255,10.745,24,24,24h8v-16H280.456z"/>
	</g>
</g>
<g>
	<g>
		<rect x="240.452" y="140.747" transform="matrix(0.4999 -0.8661 0.8661 0.4999 -60.0084 321.5678)" width="16" height="144"/>
	</g>
</g>
<g>
	<g>
		<rect x="216.451" y="184.452" transform="matrix(0.5 -0.866 0.866 0.5 -109.8664 322.6128)" width="16" height="143.999"/>
	</g>
</g>
<g>
	<g>
		<rect x="192.452" y="228.204" transform="matrix(0.5 -0.866 0.866 0.5 -159.7573 323.7043)" width="16" height="143.999"/>
	</g>
</g>
<g>
</g>
<g>
</g>
<g>
</g>
<g>
</g>
<g>
</g>
<g>
</g>
<g>
</g>
<g>
</g>
<g>
</g>
<g>
</g>
<g>
</g>
<g>
</g>
<g>
</g>
<g>
</g>
<g>
</g>
</svg>
