<?xml version="1.0" encoding="utf-8"?>
<!-- Generator: Adobe Illustrator 24.0.2, SVG Export Plug-In . SVG Version: 6.00 Build 0)  -->
<svg version="1.1" id="Layer_1" xmlns="http://www.w3.org/2000/svg" xmlns:xlink="http://www.w3.org/1999/xlink" x="0px" y="0px"
	 viewBox="0 0 509 481" style="enable-background:new 0 0 509 481;" xml:space="preserve">
<style type="text/css">
	.st0{fill:#9CE8BB;}
	.st1{opacity:0.36;fill:#69AF85;}
	.st2{fill:#B460C6;}
	.st3{fill:#FFFFFF;}
	.st4{opacity:0.36;}
	.st5{fill:#69AF85;}
	.st6{font-family:'Poppins-Bold';}
	.st7{font-size:60px;}
	.st8{fill:none;}
</style>
<g>
	<path class="st0" d="M-212.23,1044.75h-165c-52.25,0-95-42.75-95-95v-165c0-52.25,42.75-95,95-95h165c52.25,0,95,42.75,95,95v165
		C-117.23,1002-159.98,1044.75-212.23,1044.75z"/>
	<g>
		<g>
			<path class="st1" d="M-254.8,814.57v105.37c3.37,8.37,11.54,13.8,20.25,14.13V800.42C-243.27,800.77-251.43,806.2-254.8,814.57z
				 M-254.8,948.96c0,12.18-9.9,22.08-22.08,22.08h-95.06c-12.18,0-22.1-9.9-22.1-22.08V785.54c0-12.18,9.92-22.08,22.1-22.08h95.06
				c12.18,0,22.08,9.9,22.08,22.08v0.16c5.9-3.35,12.67-5.34,19.9-5.53c-2.64-20.81-20.46-36.96-41.98-36.96h-95.06
				c-23.35,0-42.35,18.98-42.35,42.33v163.41c0,23.35,19,42.33,42.35,42.33h95.06c21.52,0,39.34-16.14,41.98-36.96
				c-7.23-0.19-13.99-2.19-19.9-5.53V948.96z"/>
		</g>
		<g>
			<g>
				<path class="st1" d="M-162.82,886.55l-57.31,42.99c-4.19,3.15-8.92,4.58-13.52,4.58c-0.3,0-0.6,0-0.9-0.04
					c-8.71-0.33-16.88-5.76-20.25-14.13c-1.06-2.59-1.64-5.46-1.64-8.57v-14.29h-59.66c-16.48,0-29.84-13.36-29.84-29.84
					c0-16.48,13.36-29.84,29.84-29.84h59.66v-14.29c0-3.08,0.58-5.96,1.64-8.55c3.37-8.37,11.53-13.8,20.25-14.15
					c0.3-0.04,0.6-0.04,0.9-0.04c4.6,0,9.32,1.43,13.52,4.58l57.31,42.99C-149.95,857.61-149.95,876.91-162.82,886.55z"/>
			</g>
		</g>
	</g>
	<g>
		<path class="st2" d="M-343.56,873.56c-2.44-1-4.39-2.48-5.85-4.44c-1.46-1.96-2.23-4.32-2.31-7.08h10.92
			c0.16,1.56,0.7,2.75,1.62,3.57c0.92,0.82,2.12,1.23,3.6,1.23c1.52,0,2.72-0.35,3.6-1.05c0.88-0.7,1.32-1.67,1.32-2.91
			c0-1.04-0.35-1.9-1.05-2.58c-0.7-0.68-1.56-1.24-2.58-1.68c-1.02-0.44-2.47-0.94-4.35-1.5c-2.72-0.84-4.94-1.68-6.66-2.52
			c-1.72-0.84-3.2-2.08-4.44-3.72c-1.24-1.64-1.86-3.78-1.86-6.42c0-3.92,1.42-6.99,4.26-9.21c2.84-2.22,6.54-3.33,11.1-3.33
			c4.64,0,8.38,1.11,11.22,3.33c2.84,2.22,4.36,5.31,4.56,9.27h-11.1c-0.08-1.36-0.58-2.43-1.5-3.21c-0.92-0.78-2.1-1.17-3.54-1.17
			c-1.24,0-2.24,0.33-3,0.99c-0.76,0.66-1.14,1.61-1.14,2.85c0,1.36,0.64,2.42,1.92,3.18c1.28,0.76,3.28,1.58,6,2.46
			c2.72,0.92,4.93,1.8,6.63,2.64c1.7,0.84,3.17,2.06,4.41,3.66c1.24,1.6,1.86,3.66,1.86,6.18c0,2.4-0.61,4.58-1.83,6.54
			c-1.22,1.96-2.99,3.52-5.31,4.68c-2.32,1.16-5.06,1.74-8.22,1.74C-338.36,875.06-341.12,874.56-343.56,873.56z"/>
		<path class="st2" d="M-313.71,848.78c1.3-2.6,3.07-4.6,5.31-6c2.24-1.4,4.74-2.1,7.5-2.1c2.36,0,4.43,0.48,6.21,1.44
			c1.78,0.96,3.15,2.22,4.11,3.78v-4.74h10.26v33.48h-10.26v-4.74c-1,1.56-2.39,2.82-4.17,3.78c-1.78,0.96-3.85,1.44-6.21,1.44
			c-2.72,0-5.2-0.71-7.44-2.13c-2.24-1.42-4.01-3.44-5.31-6.06c-1.3-2.62-1.95-5.65-1.95-9.09
			C-315.66,854.4-315.01,851.39-313.71,848.78z M-292.71,851.84c-1.42-1.48-3.15-2.22-5.19-2.22s-3.77,0.73-5.19,2.19
			c-1.42,1.46-2.13,3.47-2.13,6.03c0,2.56,0.71,4.59,2.13,6.09c1.42,1.5,3.15,2.25,5.19,2.25s3.77-0.74,5.19-2.22
			c1.42-1.48,2.13-3.5,2.13-6.06C-290.58,855.35-291.29,853.32-292.71,851.84z"/>
		<path class="st2" d="M-272.13,836.09c-1.14-1.06-1.71-2.37-1.71-3.93c0-1.6,0.57-2.93,1.71-3.99c1.14-1.06,2.61-1.59,4.41-1.59
			c1.76,0,3.21,0.53,4.35,1.59c1.14,1.06,1.71,2.39,1.71,3.99c0,1.56-0.57,2.87-1.71,3.93c-1.14,1.06-2.59,1.59-4.35,1.59
			C-269.52,837.68-270.99,837.15-272.13,836.09z M-262.62,841.16v33.48h-10.26v-33.48H-262.62z"/>
		<path class="st3" d="M-234.42,830.8c-2.38,0-4.66,0.35-6.83,1.06c-1.14-0.45-2.38-0.7-3.67-0.7h-6.79
			c-0.25-3.97-1.93-7.6-4.86-10.32c-3-2.79-6.86-4.26-11.16-4.26c-4.33,0-8.21,1.47-11.22,4.27c-2.91,2.71-4.6,6.35-4.85,10.31
			h-6.79c-1.14,0-2.23,0.19-3.25,0.54c-2.21-0.68-4.58-1.02-7.07-1.02c-4.45,0-8.59,1.13-12.3,3.33c-1.39-2.54-3.28-4.78-5.66-6.64
			c-4.63-3.62-10.47-5.45-17.38-5.45c-6.83,0-12.63,1.83-17.26,5.45c-5.3,4.14-8.1,10.05-8.1,17.09c0,4.03,0.9,7.6,2.68,10.64
			c-1.86,1.94-2.87,4.54-2.79,7.23c0.14,4.84,1.58,9.14,4.29,12.76c2.55,3.43,5.95,6.03,10.08,7.72c3.64,1.49,7.7,2.25,12.08,2.25
			c4.71,0,8.98-0.94,12.69-2.8c1.98-0.99,3.76-2.19,5.31-3.57c1.09,1.02,2.26,1.94,3.52,2.74c3.86,2.45,8.16,3.69,12.8,3.69
			c2.51,0,4.88-0.34,7.11-1.03c1.03,0.35,2.13,0.55,3.27,0.55h10.26c1.32,0,2.57-0.26,3.72-0.72c1.15,0.46,2.4,0.72,3.72,0.72h10.26
			c1.32,0,2.57-0.26,3.72-0.72c1.15,0.46,2.4,0.72,3.72,0.72h10.26c5.52,0,10-4.48,10-10v-12.98h0.5c5.52,0,10-4.48,10-10V840.8
			C-224.42,835.28-228.9,830.8-234.42,830.8z"/>
	</g>
	<text transform="matrix(1 0 0 1 -355.2402 874.6445)" class="st2 st6 st7">Sair</text>
</g>
<g>
	<path class="st0" d="M225.64,976.8h-165c-52.25,0-95-42.75-95-95v-165c0-52.25,42.75-95,95-95h165c52.25,0,95,42.75,95,95v165
		C320.64,934.05,277.89,976.8,225.64,976.8z"/>
	<g class="st4">
		<g>
			<path class="st5" d="M194.33,928.2H91.94c-29.57,0-53.62-20.27-53.62-45.19V800.6c0-5.75,4.66-10.42,10.42-10.42
				s10.42,4.66,10.42,10.42v82.41c0,13.43,14.71,24.36,32.79,24.36h102.39c18.08,0,32.79-10.93,32.79-24.36V800.6
				c0-5.75,4.66-10.42,10.42-10.42s10.42,4.66,10.42,10.42v82.41C247.95,907.93,223.9,928.2,194.33,928.2z"/>
		</g>
		<g>
			<path class="st5" d="M260.31,766.75c-2.11,0-4.25-0.57-6.18-1.77l-110.99-69.06L32.15,764.98c-5.5,3.42-12.72,1.74-16.14-3.76
				c-3.42-5.5-1.74-12.72,3.76-16.14l117.18-72.91c3.79-2.36,8.59-2.36,12.38,0l117.18,72.91c5.49,3.42,7.18,10.65,3.76,16.14
				C268.05,764.79,264.22,766.75,260.31,766.75z"/>
		</g>
		<g>
			<path class="st5" d="M177.23,886.54h-68.19v-91.72c0-4,3.24-7.24,7.24-7.24h53.72c4,0,7.24,3.24,7.24,7.24V886.54z"/>
		</g>
	</g>
	<g>
		<g>
			<path class="st2" d="M71.31,765.57v42.12H61.05v-42.12H71.31z"/>
			<path class="st2" d="M108.54,777.67c2.34,2.54,3.51,6.03,3.51,10.47v19.56h-10.2v-18.18c0-2.24-0.58-3.98-1.74-5.22
				c-1.16-1.24-2.72-1.86-4.68-1.86c-1.96,0-3.52,0.62-4.68,1.86c-1.16,1.24-1.74,2.98-1.74,5.22v18.18H78.75v-33.48h10.26v4.44
				c1.04-1.48,2.44-2.65,4.2-3.51c1.76-0.86,3.74-1.29,5.94-1.29C103.07,773.85,106.2,775.13,108.54,777.67z"/>
			<path class="st2" d="M132.09,765.88l-14.46,6.06v-7.08l14.46-6.96V765.88z M130.23,774.21v33.48h-10.26v-33.48H130.23z"/>
			<path class="st2" d="M138.54,781.83c1.42-2.6,3.4-4.6,5.94-6c2.54-1.4,5.45-2.1,8.73-2.1c4.2,0,7.71,1.1,10.53,3.3
				c2.82,2.2,4.67,5.3,5.55,9.3h-10.92c-0.92-2.56-2.7-3.84-5.34-3.84c-1.88,0-3.38,0.73-4.5,2.19c-1.12,1.46-1.68,3.55-1.68,6.27
				c0,2.72,0.56,4.81,1.68,6.27c1.12,1.46,2.62,2.19,4.5,2.19c2.64,0,4.42-1.28,5.34-3.84h10.92c-0.88,3.92-2.74,7-5.58,9.24
				c-2.84,2.24-6.34,3.36-10.5,3.36c-3.28,0-6.19-0.7-8.73-2.1c-2.54-1.4-4.52-3.4-5.94-6c-1.42-2.6-2.13-5.64-2.13-9.12
				C136.41,787.47,137.12,784.44,138.54,781.83z"/>
			<path class="st2" d="M175.5,769.15c-1.14-1.06-1.71-2.37-1.71-3.93c0-1.6,0.57-2.93,1.71-3.99c1.14-1.06,2.61-1.59,4.41-1.59
				c1.76,0,3.21,0.53,4.35,1.59c1.14,1.06,1.71,2.39,1.71,3.99c0,1.56-0.57,2.87-1.71,3.93c-1.14,1.06-2.59,1.59-4.35,1.59
				C178.11,770.73,176.64,770.21,175.5,769.15z M185.01,774.21v33.48h-10.26v-33.48H185.01z"/>
			<path class="st3" d="M231.57,776.84c-2.47-4.25-5.9-7.56-10.2-9.84c-4.09-2.17-8.65-3.27-13.56-3.27
				c-4.25,0-8.24,0.83-11.89,2.45c0.02-0.32,0.05-0.65,0.05-0.97c0-4.36-1.74-8.37-4.9-11.32c-3-2.79-6.86-4.26-11.16-4.26
				c-4.34,0-8.21,1.47-11.22,4.27c-3.16,2.94-4.9,6.96-4.9,11.31c0,0.16,0.02,0.31,0.02,0.46c-3.21-1.28-6.75-1.94-10.6-1.94
				c-4,0-7.72,0.74-11.12,2.18c0-0.01,0-0.02,0-0.04v-7.98c0-3.44-1.77-6.64-4.68-8.47c-1.62-1.02-3.47-1.53-5.32-1.53
				c-1.48,0-2.96,0.33-4.34,0.99l-14.46,6.96c-3.46,1.67-5.66,5.17-5.66,9.01v0.47c-2.6-0.97-5.44-1.47-8.48-1.47
				c-2.37,0-4.64,0.31-6.78,0.94c-1.05-0.37-2.18-0.58-3.36-0.58h-7.8c-0.66-4.88-4.84-8.64-9.9-8.64H61.05c-5.52,0-10,4.48-10,10
				v42.12c0,5.52,4.48,10,10,10h10.26c1.32,0,2.57-0.26,3.72-0.72c1.15,0.46,2.4,0.72,3.72,0.72h10.26c2.44,0,4.68-0.88,6.42-2.33
				c1.74,1.46,3.98,2.33,6.42,2.33h10.2c1.41,0,2.75-0.29,3.96-0.82c1.21,0.52,2.55,0.82,3.96,0.82h10.26
				c3.18,0,6.01-1.49,7.84-3.81c0.51,0.33,1.04,0.65,1.58,0.95c4.02,2.22,8.58,3.34,13.56,3.34c5.31,0,10.05-1.28,14.14-3.77
				c1.83,2.01,4.46,3.29,7.4,3.29h10.26c3.1,0,5.87-1.41,7.7-3.62c0.46,0.28,0.93,0.56,1.41,0.82c4.07,2.18,8.64,3.28,13.57,3.28
				c4.91,0,9.47-1.09,13.57-3.25c4.32-2.27,7.77-5.57,10.27-9.81c2.45-4.17,3.69-8.93,3.69-14.16
				C235.21,785.75,233.99,781,231.57,776.84z"/>
		</g>
	</g>
	<g>
		<text transform="matrix(1 0 0 1 58.3276 807.6948)" class="st2 st6 st7">Início</text>
	</g>
</g>
<g>
	<g>
		<path class="st0" d="M-222.36,1476.86h-165c-52.25,0-95-42.75-95-95v-165c0-52.25,42.75-95,95-95h165c52.25,0,95,42.75,95,95v165
			C-127.36,1434.11-170.11,1476.86-222.36,1476.86z"/>
		<g class="st4">
			<g>
				<path class="st5" d="M-193.12,1317.06l-7.77-5.34c-1.16-0.79-1.78-2.15-1.68-3.55c0.2-2.59,0.3-5.21,0.3-7.86
					c0-3.34-0.18-6.65-0.5-9.91c-0.15-1.54,0.59-3.02,1.93-3.8l5.28-3.05c16.84-9.72,22.66-31.44,12.94-48.28l-3.88-6.74
					c-9.72-16.84-31.44-22.66-48.28-12.94l-4.32,2.5c-1.37,0.79-3.07,0.66-4.34-0.29c-6.34-4.78-13.23-8.85-20.57-12.09
					c-1.43-0.63-2.37-2.02-2.37-3.58v-0.43c0-19.44-15.91-35.35-35.35-35.35h-2.4h-1.48h-2.4c-19.44,0-35.35,15.91-35.35,35.35v0.43
					c0,1.56-0.94,2.95-2.37,3.58c-7.34,3.23-14.23,7.3-20.57,12.09c-1.27,0.96-2.97,1.09-4.34,0.29l-4.32-2.5
					c-16.84-9.72-38.56-3.9-48.28,12.94l-3.88,6.74c-9.72,16.84-3.9,38.56,12.94,48.28l5.28,3.05c1.34,0.77,2.08,2.26,1.93,3.8
					c-0.31,3.26-0.5,6.57-0.5,9.91c0,2.65,0.1,5.27,0.3,7.86c0.11,1.4-0.52,2.75-1.68,3.55l-7.77,5.34
					c-16.02,11-20.13,33.13-9.13,49.14l4.4,6.41c11,16.02,33.13,20.13,49.14,9.13c1.42-0.98,3.3-0.89,4.66,0.17
					c7.05,5.48,14.84,10.06,23.17,13.59c0.61,0.26,1.01,0.85,1.01,1.51v0c0,19.44,15.91,35.35,35.35,35.35h2.4h1.48h2.4
					c19.44,0,35.35-15.91,35.35-35.35v0c0-0.66,0.4-1.25,1.01-1.51c8.34-3.53,16.13-8.1,23.17-13.59c1.36-1.06,3.24-1.15,4.66-0.17
					c16.02,11,38.14,6.89,49.14-9.13l4.4-6.41C-172.99,1350.19-177.1,1328.07-193.12,1317.06z M-304.86,1347.79
					c-27.27,0-49.38-22.11-49.38-49.38c0-27.27,22.11-49.38,49.38-49.38c27.27,0,49.38,22.11,49.38,49.38
					C-255.48,1325.68-277.59,1347.79-304.86,1347.79z"/>
			</g>
		</g>
	</g>
	<path class="st3" d="M-149.95,1298.69c-0.03-1.76-0.31-3.31-0.72-4.65c0.51-1.41,0.71-2.94,0.55-4.46
		c-0.5-4.75-2.61-8.85-6.11-11.86c-3.41-2.93-7.75-4.42-12.9-4.42c-3.23,0-6.19,0.59-8.8,1.76c-0.86,0.38-1.67,0.82-2.43,1.31
		c-0.31-0.19-0.63-0.38-0.95-0.56c-3.09-1.67-6.55-2.51-10.3-2.51c-2.17,0-4.24,0.29-6.21,0.85c-0.31-1.71-1.06-3.34-2.22-4.69
		c-1.9-2.23-4.68-3.52-7.62-3.52h-3.39c-1.05,0-2.07,0.16-3.02,0.47c-1.17-0.31-2.41-0.47-3.68-0.47c-5.05,0-10.78,2.43-13.67,8.89
		c-2.5-1-5.25-1.52-8.15-1.52c-3.21,0-6.21,0.63-8.94,1.85c-1.54-0.97-3.36-1.55-5.32-1.55h-6.59c-0.71,0-1.41,0.07-2.08,0.22
		c-1.45-0.35-2.97-0.53-4.55-0.53c-2.36,0-4.62,0.41-6.74,1.2c-1.38-0.71-2.94-1.13-4.6-1.13c-1.5,0-2.94,0.17-4.34,0.52
		c-0.77-0.19-1.58-0.29-2.41-0.29h-6.59c-0.82,0-1.61,0.11-2.37,0.29c-0.76-0.19-1.55-0.29-2.37-0.29h-6.59
		c-1.48,0-2.88,0.32-4.14,0.9c-1.26-0.58-2.67-0.9-4.14-0.9h-6.55c-0.79,0-1.56,0.1-2.29,0.27c-0.74-0.17-1.5-0.27-2.29-0.27h-6.59
		c-0.71,0-1.41,0.07-2.08,0.22c-1.45-0.35-2.97-0.53-4.55-0.53c-1.03,0-2.04,0.08-3.03,0.24c-0.7-2.11-1.92-4.03-3.6-5.6
		c-2.6-2.42-5.92-3.7-9.6-3.7c-1.73,0-3.38,0.29-4.91,0.83c-0.17-0.03-0.34-0.06-0.51-0.08c-0.61-0.07-1.3-0.1-2.17-0.1
		c-5.48,0-9.98,1.57-13.39,4.66c-1.19,1.08-2.49,2.6-3.54,4.61c-1.74-0.52-3.6-0.78-5.55-0.78c-1.49,0-2.93,0.16-4.31,0.47
		c-0.71-0.16-1.44-0.24-2.2-0.24h-6.59c-2.02,0-3.89,0.6-5.47,1.63c-2.84-1.29-5.93-1.94-9.22-1.94c-3.31,0-6.42,0.66-9.28,1.97
		c-0.98-1.1-2.07-2.11-3.27-3.01c-4.04-2.99-8.82-4.51-14.21-4.51c-4.36,0-8.38,1.03-11.96,3.05c-3.7,2.09-6.61,5.04-8.67,8.77
		c-1.98,3.58-2.98,7.61-2.98,11.98c0,4.38,1.01,8.42,2.99,11.99c2.06,3.71,4.97,6.65,8.66,8.73c3.58,2.02,7.6,3.05,11.96,3.05
		c5.14,0,9.72-1.39,13.64-4.11c0.83,0.62,1.7,1.19,2.64,1.69c3.14,1.68,6.64,2.53,10.4,2.53c3.3,0,6.42-0.66,9.27-1.96
		c1.58,1.04,3.46,1.65,5.5,1.65h6.59c1.47,0,2.87-0.32,4.13-0.89c1.26,0.57,2.65,0.89,4.13,0.89h6.55c0.91,0,1.78-0.13,2.62-0.36
		c0.84,0.23,1.71,0.36,2.62,0.36h6.59c1.16,0,2.28-0.21,3.32-0.57c1.04,0.37,2.15,0.57,3.32,0.57h2.92c1.25,2.44,3.02,4.58,5.3,6.31
		c3.75,2.85,8.39,4.29,13.8,4.29c4.19,0,7.92-0.95,11.09-2.82c3.31-1.96,5.82-4.67,7.48-8.06c0.02-0.05,0.04-0.1,0.06-0.14
		c1.6,0.43,3.28,0.65,5.04,0.65c1.47,0,2.9-0.16,4.28-0.48c0.72,0.16,1.47,0.25,2.23,0.25h6.59c0.82,0,1.61-0.11,2.37-0.29
		c0.76,0.19,1.55,0.29,2.37,0.29h6.59c2.84,0,5.39-1.19,7.21-3.09c0.23,0.16,0.45,0.32,0.69,0.47c3.06,1.94,6.47,2.92,10.14,2.92
		c1.59,0,3.11-0.18,4.57-0.53c0.68,0.15,1.38,0.22,2.1,0.22h6.5v0.45c0,5.52,4.48,10,10,10h5.94c3.55,0,6.87-1.04,9.62-3.02
		c2.78-2,4.65-4.9,5.38-8.22c2.22,0.73,4.58,1.11,7.05,1.11c3.74,0,7.23-0.84,10.38-2.5c0.64-0.34,1.25-0.71,1.85-1.11
		c0.54,0.37,1.09,0.72,1.67,1.03c3.13,1.71,6.63,2.58,10.43,2.58c3.18,0,6.17-0.63,8.88-1.86c0.85-0.39,1.65-0.84,2.43-1.33
		c0.82,0.51,1.68,0.98,2.6,1.38c2.73,1.2,5.77,1.81,9.03,1.81c3.09,0,5.96-0.56,8.54-1.65c3.03-1.29,5.47-3.22,7.25-5.72
		c1.91-2.68,2.92-5.85,2.92-9.19C-149.94,1298.81-149.94,1298.75-149.95,1298.69z"/>
	<g>
		<text transform="matrix(1 0 0 1 -451.4395 1305.1118)" class="st2 st6" style="font-size:38.5529px;">Configurações</text>
	</g>
</g>
<g>
	<path class="st0" d="M-332,519h-165c-52.25,0-95-42.75-95-95V259c0-52.25,42.75-95,95-95h165c52.25,0,95,42.75,95,95v165
		C-237,476.25-279.75,519-332,519z"/>
	<g>
		<path class="st1" d="M-328.75,362.53l-25.05,15.09c-4.35,2.62-9.96,1.66-13.2-2.26l-13.94-16.88c-4.23-5.13-12.15-4.93-16.13,0.41
			l-10.19,13.71c-3.73,5.03-11.09,5.56-15.5,1.1l-15.98-16.12c-4.65-4.7-12.45-3.82-15.97,1.78l-7.54,12.02
			c-2.89,4.6-8.85,6.16-13.61,3.55l-24.73-13.54c-6.84-3.75-15.15,1.23-15.19,9.03c-0.32,74.81,54.29,127.76,98.61,128.62
			c44.93,0.86,102.78-51.37,103.95-127.52C-313.07,363.44-321.85,358.36-328.75,362.53z"/>
		<path class="st1" d="M-333.67,289.39c5.79-4.42,9.69-11.17,9.61-19.2c-0.05-7.07-3.25-14.16-8.47-18.94
			c-2.77-2.51-5.98-4.4-9.54-5.51c-0.15-0.07-0.28-0.08-0.45-0.12c5-8.45,5.49-19.39-0.56-27.87c-4.03-5.69-10.12-10.14-17.11-11.29
			c-4.81-0.78-9.34-0.08-13.89,0.88c-1.01-10.95-9.05-21.05-20.73-23c-15.95-2.69-34.69,9.08-34.51,25.91
			c-4.37,0.8-8.6,1.88-12.51,3.29c-24.6,8.85-42.46,30.56-49.23,48.15c-4.5,11.64-4.7,22.29-0.6,30.04
			c5.31,9.93,16.88,13.98,26.18,17.23c9.26,3.24,19.24,4.58,29.23,3.97c0.41,10.77-0.03,21.53-1.31,32.18
			c2.47,1.06,4.76,2.62,6.76,4.6l5.83,5.89c2.72-16.73,3.49-33.86,2.22-50.92c-0.13-1.96-1.08-3.77-2.62-4.98
			c-1.53-1.23-3.5-1.73-5.43-1.41c-3.4,0.55-6.81,0.83-10.21,0.83c-6.82,0-13.53-1.11-19.83-3.32c-7.4-2.56-15.73-5.49-18.47-10.66
			c-2.17-4.02-1.69-10.76,1.26-18.46c5.63-14.62,20.5-32.67,40.96-40.03c20.17-7.25,48.85-4.88,61.88,11.69
			c7.52,9.58,5.71,33.03,2.72,71.89c-1.24,16.2-2.52,27.09-3.78,37.46c1.44,1.03,2.79,2.29,3.97,3.68l8.45,10.24l4.23,5.13
			c0.73,0.08,1.46,0.1,2.17,0.05l18.84-11.35c0.8-1.34,1.41-2.79,1.86-4.3c1.79-5.99,0.73-12.42-2.26-17.83
			c8-3.95,13.81-11.62,14.62-21.61c0.55-7.22-2.04-14.52-6.81-19.92C-332.01,290.92-332.8,290.11-333.67,289.39z M-389.04,212.86
			c-8.2-2.82-17.08-4.07-25.86-3.97c0.32-3.27,4.23-6.57,6.64-7.98c3.15-1.86,6.92-2.87,10.52-2.29
			C-390.9,199.76-386.58,207.62-389.04,212.86z M-364.24,229.76c-2.37-3.02-5.1-5.64-8.03-7.97c6.03-1.41,12.03-2.12,16.52,3.34
			c4.28,5.25,2.71,12.91-2.64,16.76C-359.69,237.14-361.59,233.13-364.24,229.76z M-350.63,346.34c-0.9,4.51-5.83,6.59-9.43,5.44
			c-0.95-0.32-1.83-0.4-2.64-0.37c0.03-0.28,0.07-0.58,0.1-0.86c0.68-5.59,1.36-11.32,2.06-17.86c0.58,1.11,1.44,2.06,2.66,2.61
			C-353.39,337.28-349.73,341.59-350.63,346.34z M-352.22,321.91c-2.89-0.4-5.71,0.22-7.49,2.34c0.37-3.97,0.73-8.22,1.1-12.96
			c0.5-6.41,0.95-12.35,1.34-17.94c0.63,0.46,1.34,0.9,2.21,1.21c7.27,2.64,16,6.16,16.07,15.17
			C-338.95,316.53-345.22,322.89-352.22,321.91z M-351.16,280.43c-2.11-0.4-3.9-0.03-5.33,0.76c0.5-9.31,0.65-17.31,0.27-24.27
			c1.23,0.63,2.52,1.15,3.92,1.53c2.24,0.58,4.63,0.7,6.77,1.53c3.14,1.26,5.56,4.37,6.47,7.65
			C-337.22,274.24-343.83,281.81-351.16,280.43z"/>
		<path class="st1" d="M-447.85,242.42c-4.61,0-8.37,3.75-8.37,8.37c0,4.61,3.75,8.37,8.37,8.37c4.61,0,8.37-3.75,8.37-8.37
			C-439.46,246.16-443.21,242.42-447.85,242.42z"/>
		<path class="st1" d="M-394.85,250.79c0-4.61-3.75-8.37-8.37-8.37c-4.61,0-8.37,3.75-8.37,8.37s3.75,8.37,8.37,8.37
			C-398.58,259.15-394.85,255.4-394.85,250.79z"/>
		<path class="st1" d="M-425.24,288.5c0.58,0,1.18-0.03,1.76-0.1c8.53-1,15.12-9.25,14.69-18.36c-0.15-3.07-2.82-5.48-5.84-5.31
			c-3.07,0.15-5.46,2.76-5.31,5.84c0.17,3.62-2.41,6.46-4.85,6.74c-1.34,0.17-2.87-0.41-4.08-1.54c-0.86-0.8-2.31-2.54-2.24-5.33
			c0.08-3.09-2.34-5.64-5.43-5.73c-3.1-0.18-5.64,2.34-5.73,5.43c-0.15,5.28,1.99,10.32,5.86,13.86
			C-433.22,286.92-429.24,288.5-425.24,288.5z"/>
	</g>
	<g>
		<g>
			<path class="st3" d="M-458.36,309.16h-15.72l-2.52,7.44h-10.74l15.24-42.12h11.88l15.24,42.12h-10.86L-458.36,309.16z
				 M-459.2,266.02l-14.46,6.06V265l14.46-6.96V266.02z M-461,301.24l-5.22-15.42l-5.16,15.42H-461z"/>
			<path class="st3" d="M-425.6,284.35c1.8-1.06,3.8-1.59,6-1.59v10.86h-2.82c-2.56,0-4.48,0.55-5.76,1.65
				c-1.28,1.1-1.92,3.03-1.92,5.79v15.54h-10.26v-33.48h10.26v5.58C-428.9,286.86-427.4,285.41-425.6,284.35z"/>
			<path class="st3" d="M-383.3,302.32h-23.22c0.16,2.08,0.83,3.67,2.01,4.77c1.18,1.1,2.63,1.65,4.35,1.65
				c2.56,0,4.34-1.08,5.34-3.24h10.92c-0.56,2.2-1.57,4.18-3.03,5.94c-1.46,1.76-3.29,3.14-5.49,4.14c-2.2,1-4.66,1.5-7.38,1.5
				c-3.28,0-6.2-0.7-8.76-2.1c-2.56-1.4-4.56-3.4-6-6c-1.44-2.6-2.16-5.64-2.16-9.12c0-3.48,0.71-6.52,2.13-9.12
				c1.42-2.6,3.41-4.6,5.97-6c2.56-1.4,5.5-2.1,8.82-2.1c3.24,0,6.12,0.68,8.64,2.04c2.52,1.36,4.49,3.3,5.91,5.82
				c1.42,2.52,2.13,5.46,2.13,8.82C-383.12,300.28-383.18,301.28-383.3,302.32z M-393.62,296.62c0-1.76-0.6-3.16-1.8-4.2
				c-1.2-1.04-2.7-1.56-4.5-1.56c-1.72,0-3.17,0.5-4.35,1.5c-1.18,1-1.91,2.42-2.19,4.26H-393.62z"/>
			<path class="st3" d="M-377.81,290.74c1.3-2.6,3.07-4.6,5.31-6c2.24-1.4,4.74-2.1,7.5-2.1c2.36,0,4.43,0.48,6.21,1.44
				s3.15,2.22,4.11,3.78v-4.74h10.26v33.48h-10.26v-4.74c-1,1.56-2.39,2.82-4.17,3.78c-1.78,0.96-3.85,1.44-6.21,1.44
				c-2.72,0-5.2-0.71-7.44-2.13c-2.24-1.42-4.01-3.44-5.31-6.06c-1.3-2.62-1.95-5.65-1.95-9.09
				C-379.76,296.36-379.11,293.34-377.81,290.74z M-356.81,293.8c-1.42-1.48-3.15-2.22-5.19-2.22c-2.04,0-3.77,0.73-5.19,2.19
				c-1.42,1.46-2.13,3.47-2.13,6.03c0,2.56,0.71,4.59,2.13,6.09c1.42,1.5,3.15,2.25,5.19,2.25c2.04,0,3.77-0.74,5.19-2.22
				c1.42-1.48,2.13-3.5,2.13-6.06C-354.68,297.3-355.39,295.28-356.81,293.8z"/>
			<path class="st3" d="M-510.86,346.48v42.12h-10.26v-42.12H-510.86z"/>
			<path class="st3" d="M-473.63,358.57c2.34,2.54,3.51,6.03,3.51,10.47v19.56h-10.2v-18.18c0-2.24-0.58-3.98-1.74-5.22
				c-1.16-1.24-2.72-1.86-4.68-1.86s-3.52,0.62-4.68,1.86c-1.16,1.24-1.74,2.98-1.74,5.22v18.18h-10.26v-33.48h10.26v4.44
				c1.04-1.48,2.44-2.65,4.2-3.51c1.76-0.86,3.74-1.29,5.94-1.29C-479.1,354.76-475.97,356.03-473.63,358.57z"/>
			<path class="st3" d="M-446.18,363.64h-5.52v24.96h-10.26v-24.96h-3.72v-8.52h3.72v-0.96c0-4.12,1.18-7.25,3.54-9.39
				c2.36-2.14,5.82-3.21,10.38-3.21c0.76,0,1.32,0.02,1.68,0.06v8.7c-1.96-0.12-3.34,0.16-4.14,0.84c-0.8,0.68-1.2,1.9-1.2,3.66v0.3
				h5.52V363.64z"/>
			<path class="st3" d="M-441.47,362.74c1.3-2.6,3.07-4.6,5.31-6c2.24-1.4,4.74-2.1,7.5-2.1c2.36,0,4.43,0.48,6.21,1.44
				c1.78,0.96,3.15,2.22,4.11,3.78v-4.74h10.26v33.48h-10.26v-4.74c-1,1.56-2.39,2.82-4.17,3.78c-1.78,0.96-3.85,1.44-6.21,1.44
				c-2.72,0-5.2-0.71-7.44-2.13c-2.24-1.42-4.01-3.44-5.31-6.06c-1.3-2.62-1.95-5.65-1.95-9.09
				C-443.42,368.36-442.77,365.34-441.47,362.74z M-420.47,365.8c-1.42-1.48-3.15-2.22-5.19-2.22s-3.77,0.73-5.19,2.19
				c-1.42,1.46-2.13,3.47-2.13,6.03c0,2.56,0.71,4.59,2.13,6.09c1.42,1.5,3.15,2.25,5.19,2.25s3.77-0.74,5.19-2.22
				c1.42-1.48,2.13-3.5,2.13-6.06C-418.34,369.3-419.05,367.28-420.47,365.8z"/>
			<path class="st3" d="M-370.85,358.57c2.34,2.54,3.51,6.03,3.51,10.47v19.56h-10.2v-18.18c0-2.24-0.58-3.98-1.74-5.22
				c-1.16-1.24-2.72-1.86-4.68-1.86c-1.96,0-3.52,0.62-4.68,1.86c-1.16,1.24-1.74,2.98-1.74,5.22v18.18h-10.26v-33.48h10.26v4.44
				c1.04-1.48,2.44-2.65,4.2-3.51c1.76-0.86,3.74-1.29,5.94-1.29C-376.32,354.76-373.19,356.03-370.85,358.57z"/>
			<path class="st3" d="M-341.54,379.9v8.7h-5.22c-3.72,0-6.62-0.91-8.7-2.73c-2.08-1.82-3.12-4.79-3.12-8.91v-13.32h-4.08v-8.52
				h4.08v-8.16h10.26v8.16h6.72v8.52h-6.72v13.44c0,1,0.24,1.72,0.72,2.16c0.48,0.44,1.28,0.66,2.4,0.66H-341.54z"/>
			<path class="st3" d="M-335.09,350.05c-1.14-1.06-1.71-2.37-1.71-3.93c0-1.6,0.57-2.93,1.71-3.99c1.14-1.06,2.61-1.59,4.41-1.59
				c1.76,0,3.21,0.53,4.35,1.59c1.14,1.06,1.71,2.39,1.71,3.99c0,1.56-0.57,2.87-1.71,3.93c-1.14,1.06-2.59,1.59-4.35,1.59
				C-332.48,351.64-333.95,351.11-335.09,350.05z M-325.58,355.12v33.48h-10.26v-33.48H-325.58z"/>
			<g>
				<path class="st3" d="M-487.34,326.6h10.74c4.29,0,8.1-2.73,9.47-6.79l0.22-0.65h1.38l0.22,0.65c1.38,4.06,5.18,6.79,9.47,6.79
					h10.86c0.79,0,1.57-0.1,2.32-0.28c0.74,0.17,1.51,0.28,2.3,0.28h10.26c4.97,0,9.08-3.63,9.86-8.37
					c1.93,2.23,4.23,4.08,6.88,5.52c4.03,2.21,8.6,3.33,13.56,3.33c4.14,0,8.02-0.81,11.52-2.4c2.46-1.12,4.66-2.57,6.59-4.31
					c1.17,1.13,2.45,2.15,3.83,3.02c3.86,2.45,8.16,3.69,12.8,3.69c2.51,0,4.88-0.34,7.11-1.03c1.03,0.35,2.13,0.55,3.27,0.55h10.26
					c5.52,0,10-4.48,10-10v-33.48c0-5.52-4.48-10-10-10h-10.26c-1.14,0-2.23,0.19-3.25,0.54c-2.21-0.68-4.58-1.02-7.07-1.02
					c-4.65,0-8.96,1.22-12.8,3.62c-1.39,0.87-2.66,1.86-3.83,2.98c-1.44-1.29-3.03-2.42-4.78-3.36c-3.98-2.15-8.49-3.24-13.39-3.24
					c-4.69,0-9,1-12.85,2.94c-1.8-1.74-4.25-2.82-6.95-2.82c-2.38,0-4.66,0.35-6.83,1.06c-1.14-0.45-2.38-0.7-3.67-0.7h-10.26
					c-3.38,0-6.37,1.68-8.18,4.26l-2.19-6.05c0.98-1.56,1.53-3.39,1.53-5.31v-7.98c0-3.44-1.77-6.64-4.68-8.47
					c-1.62-1.02-3.47-1.53-5.32-1.53c-1.48,0-2.96,0.33-4.34,0.99l-14.46,6.96c-3.46,1.67-5.66,5.17-5.66,9.01v7.08
					c0,1.16,0.2,2.29,0.58,3.36l-13.66,37.76c-1.11,3.06-0.65,6.48,1.22,9.15C-493.65,325.01-490.6,326.6-487.34,326.6z"/>
				<path class="st3" d="M-307.88,334.2h-10.26c-0.64,0-1.27,0.07-1.88,0.18c-2.93-2.51-6.59-3.84-10.66-3.84
					c-4.33,0-8.21,1.47-11.22,4.27c-0.96,0.89-1.77,1.9-2.46,2.97c-1.21-0.52-2.55-0.82-3.95-0.82h-10.26c-5.52,0-10,4.48-10,10v0.1
					c-0.17,0.12-0.32,0.26-0.48,0.4c-3.28-1.77-7.06-2.7-11.18-2.7c-2.37,0-4.64,0.31-6.79,0.94c-1.05-0.37-2.18-0.58-3.36-0.58
					h-10.26c-1.32,0-2.57,0.26-3.72,0.72c-1.15-0.46-2.4-0.72-3.72-0.72h-10.26c-1.14,0-2.23,0.19-3.25,0.54
					c-2.21-0.68-4.58-1.02-7.07-1.02c-2.69,0-5.26,0.42-7.7,1.23v-4.25c0-5.1-3.84-9.38-8.91-9.94c-0.74-0.08-1.63-0.12-2.77-0.12
					c-7.1,0-12.85,1.95-17.1,5.8c-2.08,1.89-4.43,4.85-5.76,9.22c-0.39,0.24-0.75,0.5-1.1,0.79c-3.24-1.72-6.96-2.61-11.02-2.61
					c-2.37,0-4.64,0.31-6.78,0.94c-1.05-0.37-2.18-0.58-3.36-0.58h-7.8c-0.67-4.88-4.84-8.64-9.9-8.64h-10.26c-5.52,0-10,4.48-10,10
					v42.12c0,5.52,4.48,10,10,10h10.26c1.32,0,2.57-0.26,3.72-0.72c1.15,0.46,2.4,0.72,3.72,0.72h10.26c2.44,0,4.68-0.88,6.42-2.33
					c1.74,1.46,3.98,2.33,6.42,2.33h10.2c1.45,0,2.83-0.32,4.08-0.88c1.25,0.56,2.63,0.88,4.08,0.88h10.26
					c3.49,0,6.56-1.79,8.35-4.51c0.59,0.46,1.2,0.9,1.83,1.3c3.86,2.44,8.16,3.68,12.79,3.68c2.51,0,4.88-0.34,7.11-1.03
					c1.03,0.36,2.13,0.55,3.28,0.55h10.26c1.32,0,2.57-0.26,3.72-0.72c1.15,0.46,2.4,0.72,3.72,0.72h10.26
					c2.44,0,4.68-0.88,6.42-2.33c1.74,1.46,3.98,2.33,6.42,2.33h10.2c3.04,0,5.76-1.36,7.59-3.5c3.58,2.31,7.92,3.5,12.99,3.5h5.22
					c0.99,0,1.95-0.15,2.85-0.42c0.9,0.27,1.86,0.42,2.85,0.42h10.26c1.32,0,2.57-0.26,3.72-0.72c1.15,0.46,2.4,0.72,3.72,0.72
					h10.26c5.52,0,10-4.48,10-10v-44.4C-297.88,338.68-302.36,334.2-307.88,334.2z"/>
			</g>
			<path class="st3" d="M-307.88,344.2v44.4h-10.26v-44.4H-307.88z"/>
		</g>
	</g>
	<g>
		<text transform="matrix(1 0 0 1 -488.2993 316.5999)"><tspan x="0" y="0" class="st2 st6 st7">Área</tspan><tspan x="-36.54" y="72" class="st2 st6 st7">Infantil</tspan></text>
	</g>
</g>
<g>
	<path class="st0" d="M337,418H172c-52.25,0-95-42.75-95-95V158c0-52.25,42.75-95,95-95h165c52.25,0,95,42.75,95,95v165
		C432,375.25,389.25,418,337,418z"/>
	<g>
		<g>
			<g>
				<g>
					<path class="st1" d="M332.67,204.25c-0.86,0-1.73-0.15-2.58-0.48l-78.2-30c-3.72-1.42-5.57-5.59-4.15-9.31
						c1.43-3.72,5.6-5.57,9.31-4.15l78.2,30c3.72,1.42,5.57,5.59,4.15,9.31C338.3,202.49,335.57,204.25,332.67,204.25z"/>
				</g>
				<g>
					<path class="st1" d="M320.83,227.91l-77.31-29.66c0.76,1.08,1.36,2.27,1.7,3.55c1.26,4.62,2.73,9.18,3.54,13.9l66.91,25.67
						c0.85,0.33,1.72,0.48,2.58,0.48c2.9,0,5.63-1.76,6.73-4.63C326.41,233.5,324.55,229.34,320.83,227.91z"/>
				</g>
				<g>
					<path class="st1" d="M306.41,265.5l-54.76-21.01c1.48,5.19,1.78,10.65,1.81,16.13l47.79,18.33c0.85,0.33,1.72,0.48,2.58,0.48
						c2.9,0,5.63-1.76,6.73-4.63C311.98,271.1,310.13,266.93,306.41,265.5z"/>
				</g>
				<g>
					<path class="st1" d="M291.99,303.1l-66.75-25.61c-6.26-0.51-12.17-1.81-18-3.66c-1.21,0.8-2.2,1.96-2.76,3.42
						c-1.43,3.72,0.43,7.88,4.15,9.31l78.2,30c0.85,0.33,1.72,0.48,2.58,0.48c2.9,0,5.63-1.76,6.73-4.63
						C297.56,308.69,295.71,304.53,291.99,303.1z"/>
				</g>
			</g>
			<g>
				<path class="st1" d="M125.84,115.16L125.84,115.16c11.72-8.4,28.02-5.71,36.42,6.01l55.23,77.05l-42.43,30.41l-55.23-77.05
					C111.43,139.87,114.12,123.56,125.84,115.16z"/>
				<polygon class="st1" points="184.5,236.17 236.56,260.04 221.6,209.58 				"/>
			</g>
		</g>
		<path class="st1" d="M387.89,161.82l-120.97-46.4c-20.57-7.89-43.72,2.43-51.61,22.99l-4.65,12.13l13.41,18.71l9.19-23.95
			c4.09-10.68,16.11-16.03,26.78-11.93l111.99,42.96L305.9,348.7l-131.35-50.39l12.66-33l-8.45-4.66c-2.91-1.61-5.32-3.85-7.18-6.48
			c-0.2-0.08-0.39-0.17-0.59-0.26l-17.83,46.49c-0.91,2.38-0.84,5.03,0.19,7.35c1.04,2.33,2.96,4.15,5.34,5.06l149.3,57.27
			c1.13,0.43,2.3,0.64,3.44,0.64c3.86,0,7.51-2.35,8.98-6.17l73.01-190.33C395.32,169.27,392.84,163.72,387.89,161.82z"/>
	</g>
	<g>
		<g>
			<path class="st2" d="M204.94,246.89h-10.26l-17.16-25.98v25.98h-10.26v-42.12h10.26l17.16,26.1v-26.1h10.26V246.89z"/>
			<path class="st2" d="M218.77,245.27c-2.62-1.4-4.68-3.4-6.18-6c-1.5-2.6-2.25-5.64-2.25-9.12c0-3.44,0.76-6.47,2.28-9.09
				c1.52-2.62,3.6-4.63,6.24-6.03c2.64-1.4,5.6-2.1,8.88-2.1c3.28,0,6.24,0.7,8.88,2.1c2.64,1.4,4.72,3.41,6.24,6.03
				c1.52,2.62,2.28,5.65,2.28,9.09c0,3.44-0.77,6.47-2.31,9.09c-1.54,2.62-3.64,4.63-6.3,6.03c-2.66,1.4-5.63,2.1-8.91,2.1
				C224.34,247.37,221.39,246.67,218.77,245.27z M232.63,236.33c1.38-1.44,2.07-3.5,2.07-6.18c0-2.68-0.67-4.74-2.01-6.18
				c-1.34-1.44-2.99-2.16-4.95-2.16c-2,0-3.66,0.71-4.98,2.13c-1.32,1.42-1.98,3.49-1.98,6.21c0,2.68,0.65,4.74,1.95,6.18
				c1.3,1.44,2.93,2.16,4.89,2.16C229.58,238.49,231.25,237.77,232.63,236.33z"/>
			<path class="st2" d="M269.26,238.19v8.7h-5.22c-3.72,0-6.62-0.91-8.7-2.73c-2.08-1.82-3.12-4.79-3.12-8.91v-13.32h-4.08v-8.52
				h4.08v-8.16h10.26v8.16h6.72v8.52h-6.72v13.44c0,1,0.24,1.72,0.72,2.16c0.48,0.44,1.28,0.66,2.4,0.66H269.26z"/>
			<path class="st2" d="M274.87,221.03c1.3-2.6,3.07-4.6,5.31-6c2.24-1.4,4.74-2.1,7.5-2.1c2.36,0,4.43,0.48,6.21,1.44
				c1.78,0.96,3.15,2.22,4.11,3.78v-4.74h10.26v33.48H298v-4.74c-1,1.56-2.39,2.82-4.17,3.78c-1.78,0.96-3.85,1.44-6.21,1.44
				c-2.72,0-5.2-0.71-7.44-2.13c-2.24-1.42-4.01-3.44-5.31-6.06c-1.3-2.62-1.95-5.65-1.95-9.09
				C272.92,226.66,273.57,223.63,274.87,221.03z M295.87,224.09c-1.42-1.48-3.15-2.22-5.19-2.22s-3.77,0.73-5.19,2.19
				c-1.42,1.46-2.13,3.47-2.13,6.03c0,2.56,0.71,4.59,2.13,6.09c1.42,1.5,3.15,2.25,5.19,2.25s3.77-0.74,5.19-2.22
				c1.42-1.48,2.13-3.5,2.13-6.06C298,227.59,297.29,225.58,295.87,224.09z"/>
			<path class="st3" d="M352.88,237c-0.05-3.05-0.69-5.55-1.55-7.56c-0.01-0.02-0.01-0.04,0-0.06c1.07-1.83,1.54-3.96,1.32-6.1
				c-0.62-5.96-3.25-11.09-7.6-14.82c-4.28-3.67-9.81-5.53-16.45-5.53c-4.24,0-8.09,0.76-11.43,2.25c-0.68,0.3-1.33,0.64-1.95,0.99
				c-0.02,0.01-0.05,0.01-0.07-0.01c-1.79-1.7-4.21-2.75-6.88-2.75H298c-1.13,0-2.22,0.19-3.23,0.53c-0.01,0-0.02,0-0.04,0
				c-2.21-0.67-4.57-1.01-7.05-1.01c-4.24,0-8.18,1.02-11.76,3.02c-0.02,0.01-0.05,0.01-0.07-0.01c-0.98-0.88-2.14-1.57-3.41-2
				c-0.02-0.01-0.04-0.03-0.04-0.05c-0.66-4.88-4.85-8.64-9.91-8.64h-10.19c-5.56,0-10.07,4.51-10.07,10.07v0
				c0,0.02-0.01,0.04-0.03,0.05c-0.32,0.24-0.62,0.5-0.91,0.77c-0.02,0.02-0.05,0.02-0.07,0.01c-4.06-2.13-8.59-3.22-13.47-3.22
				c-4.57,0-8.84,0.96-12.71,2.84c-0.04,0.02-0.09-0.01-0.09-0.06v-0.88c0-5.56-4.51-10.07-10.07-10.07h-10.19
				c-3.6,0-6.76,1.91-8.52,4.77c-0.03,0.04-0.08,0.04-0.11,0l-0.15-0.23c-1.86-2.83-5.03-4.54-8.42-4.54h-10.15
				c-5.56,0-10.07,4.51-10.07,10.07v41.99c0,5.56,4.51,10.07,10.07,10.07h10.19c3.6,0,6.76-1.91,8.52-4.77
				c0.03-0.04,0.08-0.04,0.11,0l0.16,0.25c1.86,2.82,5.02,4.52,8.4,4.52h10.22c3.08,0,5.83-1.39,7.66-3.58
				c0.02-0.02,0.06-0.03,0.08-0.01c0.45,0.27,0.9,0.54,1.37,0.79c4.07,2.18,8.64,3.28,13.56,3.28c4.9,0,9.47-1.09,13.57-3.25
				c2.15-1.13,4.08-2.51,5.79-4.14c0.03-0.03,0.07-0.02,0.09,0.01c0.56,0.65,1.13,1.22,1.68,1.7c3.95,3.46,9.09,5.21,15.29,5.21
				h5.22c2.55,0,4.87-0.96,6.63-2.53c0.02-0.02,0.05-0.02,0.07-0.01c3.56,2,7.47,3.02,11.66,3.02c2.5,0,4.87-0.34,7.09-1.02
				c0.01,0,0.02,0,0.04,0c1.02,0.35,2.12,0.54,3.26,0.54h10.26c2.75,0,5.24-1.11,7.05-2.91c0.02-0.02,0.05-0.02,0.07-0.01
				c0.68,0.38,1.38,0.73,2.12,1.06c3.54,1.55,7.52,2.34,11.82,2.34c4.06,0,7.79-0.71,11.1-2.12c3.76-1.61,6.77-3.96,8.95-7.02
				c2.3-3.22,3.51-7.04,3.51-11.06C352.88,237.12,352.88,237.06,352.88,237z"/>
		</g>
	</g>
	<g>
		<text transform="matrix(1 0 0 1 163.5411 247.8945)" class="st2 st6 st7">Notas</text>
	</g>
</g>
<g>
	<path class="st0" d="M1816.77,1121.94h-165c-52.25,0-95-42.75-95-95v-165c0-52.25,42.75-95,95-95h165c52.25,0,95,42.75,95,95v165
		C1911.77,1079.19,1869.02,1121.94,1816.77,1121.94z"/>
	<g>
		<path class="st1" d="M1815.45,959.26c4.27,0,7.73-3.46,7.73-7.73c0-4.27-3.46-7.73-7.73-7.73h-38.66v-17.76
			c0-4.27-3.46-7.73-7.73-7.73c-4.27,0-7.73,3.46-7.73,7.73v17.76h-54.12v-17.76c0-4.27-3.46-7.73-7.73-7.73s-7.73,3.46-7.73,7.73
			v17.76h-38.66c-4.27,0-7.73,3.46-7.73,7.73c0,4.27,3.46,7.73,7.73,7.73h38.66v35.51h-38.66c-4.27,0-7.73,3.46-7.73,7.73
			c0,4.27,3.46,7.73,7.73,7.73h38.66v17.75c0,4.27,3.46,7.73,7.73,7.73s7.73-3.46,7.73-7.73v-17.75h54.12v17.75
			c0,4.27,3.46,7.73,7.73,7.73c4.27,0,7.73-3.46,7.73-7.73v-17.75h38.66c4.27,0,7.73-3.46,7.73-7.73c0-4.27-3.46-7.73-7.73-7.73
			h-38.66v-35.51H1815.45z M1761.33,994.77h-54.12v-35.51h54.12V994.77z"/>
		<g>
			<path class="st1" d="M1737.05,862.9c-0.5-1.14-1.02-2.29-1.57-3.48c-0.09-0.2-0.18-0.4-0.27-0.61c-0.09,0.21-0.18,0.41-0.27,0.62
				c-0.55,1.17-1.07,2.33-1.56,3.46c-0.5,1.14-0.99,2.25-1.46,3.3l-0.63,1.54h7.85l-0.62-1.52
				C1738.03,865.15,1737.54,864.05,1737.05,862.9z"/>
			<polygon class="st1" points="1724.2,882.51 1724.2,882.51 1724.2,882.51 			"/>
			<path class="st1" d="M1814.29,819.44h-160.04c-25.51,0-46.27,20.76-46.27,46.27v157.46c0,25.51,20.76,46.27,46.27,46.27h160.04
				c25.51,0,46.27-20.76,46.27-46.27V865.71C1860.56,840.2,1839.8,819.44,1814.29,819.44z M1769.94,877.42l0.11-4.29l0.05-8.01
				c0.04-1.17,0.06-2.37,0.06-3.6l0-3.77c-0.04-1.55-0.03-3.25,0.03-5.06c0.06-1.77,0.12-3.43,0.2-5c0.08-0.91,0.3-1.69,0.65-2.35
				c0.21-0.64,0.69-1.19,1.41-1.62c0.49-0.31,1.09-0.51,1.84-0.59c0.29-0.03,0.56-0.05,0.81-0.05c0.39,0,0.76,0.04,1.19,0.15
				c0.2,0.08,0.4,0.17,0.6,0.27c0.2,0.1,0.4,0.21,0.67,0.38c0.19,0.16,0.38,0.31,0.55,0.46c0.19,0.17,0.37,0.36,0.5,0.52
				c0.2,0.21,0.39,0.42,0.56,0.65c0.14,0.19,0.28,0.38,0.42,0.56l0.04,0.05l0.03,0.06c0.1,0.2,0.21,0.39,0.31,0.56
				c0.1,0.16,0.21,0.32,0.36,0.52l0.62,0.9l11.56,18.21v-1.42c0-1.17-0.01-2.38-0.03-3.6c-0.02-1.23-0.05-2.51-0.08-3.85
				c0-1.55,0.01-3.2,0.03-4.97c0.02-1.74,0.06-3.42,0.14-4.96c0-0.72,0.2-1.51,0.59-2.38c0.23-0.6,0.63-1.09,1.18-1.47
				c0.51-0.34,1.09-0.58,1.72-0.7c0.32-0.06,0.64-0.1,0.96-0.1c0.32,0,0.64,0.03,0.95,0.1c0.65,0.13,1.23,0.4,1.77,0.84
				c0.13,0.13,0.25,0.28,0.39,0.45c0.14,0.19,0.26,0.4,0.36,0.65c0.2,0.53,0.33,1.01,0.36,1.37c0.12,0.57,0.18,1.06,0.18,1.51
				c0,4.6,0.01,9.29,0.03,14.07c0.02,4.78,0.04,9.47,0.08,14.07c0,0.5,0.02,0.99,0.05,1.47c0.04,0.53,0.04,1.07,0,1.6
				c-0.04,0.64-0.12,1.34-0.26,2.07c-0.16,0.86-0.6,1.57-1.3,2.09c-0.53,0.44-1.15,0.72-1.82,0.81c-0.23,0.03-0.46,0.05-0.69,0.05
				c-0.4,0-0.79-0.05-1.18-0.14c-0.59-0.14-1.16-0.37-1.69-0.67c-0.56-0.32-1.01-0.73-1.34-1.17c-1.26-1.55-2.43-3.17-3.49-4.83
				c-1.05-1.64-2.11-3.28-3.17-4.93l-4.64-7.02c-0.63-0.99-1.3-2.12-2-3.36c-0.32-0.56-0.64-1.1-0.97-1.63l-0.15,18.94v0.5
				c0,0.65-0.12,1.31-0.34,1.95c-0.24,0.68-0.65,1.26-1.22,1.75c-0.45,0.36-1.03,0.61-1.71,0.73c-0.39,0.08-0.77,0.12-1.12,0.12
				c-0.59,0-1.12-0.11-1.58-0.34c-0.71-0.34-1.28-0.83-1.69-1.43c-0.4-0.58-0.67-1.27-0.82-2.04c-0.14-0.74-0.17-1.48-0.09-2.13
				L1769.94,877.42z M1717.52,880.05c0.02-0.22,0.05-0.44,0.1-0.72c0.08-0.35,0.18-0.7,0.29-1.06l0.18-0.53l11.47-28.23l0.32-0.86
				c0.09-0.26,0.2-0.5,0.34-0.74c0.08-0.13,0.15-0.3,0.23-0.56c0.2-0.51,0.42-0.97,0.63-1.32c0.13-0.25,0.28-0.5,0.46-0.72
				l0.43-0.54c0.28-0.38,0.68-0.69,1.24-0.94c0.58-0.21,1.26-0.31,2.01-0.31c0.75,0,1.43,0.11,2.06,0.33
				c0.5,0.23,0.9,0.54,1.18,0.91c0.26,0.34,0.55,0.74,0.87,1.22c0.24,0.39,0.46,0.85,0.68,1.43c0.05,0.2,0.12,0.37,0.21,0.51
				c0.14,0.23,0.25,0.47,0.32,0.71l0.32,0.87l11.49,28.29l0.17,0.5c0.12,0.35,0.21,0.7,0.3,1.09c0.04,0.24,0.07,0.47,0.09,0.69
				c0.02,0.22,0.03,0.47,0.03,0.75c0,0.57-0.17,1.1-0.48,1.55c-0.15,0.24-0.34,0.47-0.56,0.67c-0.24,0.21-0.52,0.39-0.78,0.5
				c-0.81,0.45-1.67,0.68-2.56,0.68c-0.25,0-0.51-0.02-0.86-0.07c-0.6-0.17-1.14-0.45-1.66-0.9c-0.14-0.07-0.26-0.18-0.35-0.34
				c-0.02-0.03-0.05-0.06-0.08-0.1l-0.05-0.03l-0.08-0.08c-0.22-0.22-0.39-0.43-0.52-0.62c-0.12-0.17-0.23-0.36-0.39-0.64
				c-0.06-0.16-0.14-0.31-0.21-0.45c-0.09-0.16-0.19-0.33-0.33-0.58c-0.06-0.12-0.12-0.24-0.19-0.35c-0.1-0.18-0.18-0.36-0.2-0.47
				c-0.16-0.36-0.26-0.67-0.31-0.96l-0.96-2.24c-2.4,0-4.78,0.01-7.16,0.03c-0.87,0.01-1.75,0.01-2.62,0.01
				c-1.51,0-3.03-0.01-4.54-0.03l-1,2.34c-0.04,0.08-0.06,0.16-0.08,0.24c-0.03,0.22-0.1,0.44-0.2,0.65
				c-0.07,0.13-0.12,0.26-0.17,0.37c-0.06,0.14-0.13,0.29-0.23,0.49c-0.11,0.18-0.2,0.35-0.29,0.51c-0.09,0.17-0.2,0.35-0.27,0.45
				c-0.09,0.22-0.2,0.44-0.34,0.64c-0.13,0.19-0.3,0.4-0.52,0.62l-0.08,0.08l-0.05,0.02c-0.03,0.04-0.05,0.07-0.08,0.1
				c-0.09,0.15-0.2,0.26-0.29,0.3l-0.2-0.26l0,0c-0.02,0.02-0.04,0.02-0.05,0.04l0.15,0.31c-0.48,0.39-1.02,0.67-1.7,0.85
				c-0.26,0.04-0.52,0.06-0.77,0.06c-0.89,0-1.75-0.23-2.49-0.65c-0.33-0.14-0.61-0.32-0.84-0.53c-0.23-0.21-0.42-0.43-0.54-0.63
				c-0.33-0.48-0.5-1.01-0.5-1.58C1717.49,880.52,1717.5,880.27,1717.52,880.05z M1667.55,874.89c0.27-0.84,0.89-1.53,1.83-2.04
				c0.55-0.32,1.09-0.48,1.6-0.48c0.3,0,0.58,0.05,0.86,0.16c0.64,0.25,1.26,0.64,1.92,1.23l1.59,1.43
				c0.48,0.44,1.02,0.72,1.63,0.85c0.72,0.18,1.38,0.26,1.95,0.26c0.52,0,0.98-0.07,1.38-0.22c0.84-0.31,1.48-0.78,1.96-1.45
				c0.5-0.7,0.86-1.56,1.08-2.58c0.23-1.07,0.37-2.17,0.43-3.26c0.05-1.11,0.06-2.2,0.03-3.25c-0.04-1.08-0.04-2.01,0-2.74
				c0.04-1.93,0.04-3.85,0-5.71c-0.04-1.87-0.06-3.77-0.06-5.71c-0.2-0.01-0.47-0.02-0.86-0.03c-0.69-0.02-1.44-0.03-2.24-0.03
				c-0.82,0-1.59-0.01-2.31-0.03c-0.71-0.02-1.17-0.03-1.39-0.03h-0.77l-0.64-0.05v-0.1c-0.13-0.03-0.26-0.06-0.4-0.09l-0.43-0.11
				l-0.49-0.12c-0.82-0.26-1.47-0.69-1.86-1.21c-0.28-0.28-0.47-0.67-0.59-1.2c-0.1-0.46-0.16-0.85-0.16-1.19v-0.61
				c0-0.28,0.04-0.54,0.13-0.79c0.12-0.54,0.45-1.02,1.01-1.44c0.36-0.27,0.78-0.47,1.26-0.6c0.29-0.08,0.57-0.14,0.86-0.19
				l0.83-0.11c0.29-0.04,0.57-0.06,0.86-0.06h0.83h5.3h0.77c0.27,0,0.58-0.02,0.99-0.06h4.25c1.4,0,2.77,0.02,4.08,0.06h0.33
				c0.41,0,0.82,0.01,1.22,0.03c0.38,0.02,0.76,0.03,1.19,0.03c0.92,0.04,1.79,0.22,2.5,0.52c0.73,0.18,1.33,0.58,1.79,1.17
				c0.45,0.59,0.68,1.21,0.67,1.72c0.04,0.27,0.06,0.6,0.04,0.97c-0.02,0.37-0.05,0.65-0.11,0.92c-0.14,0.48-0.47,0.95-0.94,1.38
				c-0.15,0.15-0.32,0.28-0.49,0.39c-0.19,0.12-0.41,0.22-0.69,0.32c-0.26,0.09-0.53,0.14-0.82,0.17c-0.21,0.02-0.44,0.04-0.68,0.08
				c-0.27,0.04-0.53,0.07-0.75,0.09c-0.24,0.02-0.5,0.03-0.78,0.03h-2.5v0.3c-0.04,3.27,0.03,6.6,0.19,9.89
				c0.16,3.33,0.14,6.69-0.09,10.03c-0.11,1.11-0.28,2.27-0.5,3.45c-0.23,1.22-0.61,2.37-1.13,3.42c-0.52,1.06-1.22,2.05-2.07,2.95
				c-0.87,0.91-1.99,1.63-3.33,2.14c-1.22,0.46-2.56,0.78-4.01,0.97c-0.8,0.11-1.61,0.16-2.42,0.16c-0.65,0-1.31-0.03-1.95-0.1
				c-1.46-0.15-2.87-0.48-4.21-0.97c-1.36-0.51-2.53-1.22-3.47-2.12c-0.52-0.48-1-1.07-1.43-1.76c-0.44-0.71-0.75-1.47-0.91-2.26
				C1667.25,876.49,1667.3,875.67,1667.55,874.89z M1839.94,1023.17c0,14.15-11.51,25.65-25.65,25.65h-160.04
				c-14.14,0-25.65-11.51-25.65-25.65V906.21h211.34V1023.17z"/>
		</g>
	</g>
	<path class="st3" d="M1892.91,924.1c-2.29-3.95-5.48-7.03-9.49-9.15c-3.78-2.01-8-3.02-12.55-3.02c-3.31,0-6.45,0.55-9.38,1.62
		c-0.21-3.85-1.83-7.39-4.66-10.02c-2.87-2.67-6.56-4.08-10.66-4.08c-4.13,0-7.84,1.41-10.72,4.09c-2.64,2.46-4.25,5.7-4.62,9.25
		c-0.91-0.28-1.88-0.43-2.89-0.43h-9.08c-1.15,0-2.25,0.2-3.28,0.56c-0.55-0.19-1.11-0.34-1.7-0.43v-4.58
		c0-3.44-1.77-6.64-4.68-8.47c-1.62-1.02-3.47-1.53-5.32-1.53c-1.48,0-2.96,0.33-4.34,0.99l-12.8,6.16
		c-0.93,0.45-1.76,1.03-2.49,1.72c-1.82-2.47-4.74-4.09-8.05-4.09h-9.08c-5.27,0-9.59,4.08-9.97,9.26
		c-4.02,0.14-7.75,1.27-11.11,3.37c-0.97,0.6-1.87,1.28-2.73,2.02c-3.82-3.46-8.73-5.29-14.33-5.29c-2.08,0-4.08,0.26-5.98,0.78
		c-0.95-0.3-1.96-0.46-3-0.46h-9.08c-2.66,0-5.08,1.05-6.87,2.75c-0.1-0.05-0.19-0.11-0.28-0.17c-3.7-1.99-7.87-3-12.4-3
		c-3.49,0-6.76,0.59-9.76,1.76v-1c0-5.52-4.48-10-10-10h-9.08c-5.41,0-9.81,4.3-9.98,9.67h-5.69c-1,0-1.97,0.15-2.89,0.42
		c-1.96-0.56-4.05-0.85-6.25-0.85c-4.26,0-8.21,1.1-11.75,3.27c-1.53-2.04-3.34-3.87-5.46-5.44c-4.9-3.63-10.73-5.47-17.32-5.47
		c-5.34,0-10.26,1.25-14.62,3.71c-4.47,2.53-8.01,6.1-10.5,10.62c-2.41,4.37-3.64,9.31-3.64,14.69c0,5.38,1.23,10.33,3.65,14.68
		c2.49,4.49,6.02,8.05,10.48,10.57c4.36,2.46,9.27,3.71,14.62,3.71c6.58,0,12.4-1.83,17.29-5.42c0.45-0.33,0.88-0.69,1.3-1.04
		c1.19,1.21,2.5,2.28,3.94,3.19c3.6,2.28,7.62,3.44,11.94,3.44c2.2,0,4.3-0.29,6.28-0.86c0.92,0.28,1.9,0.43,2.91,0.43h9.08
		c1.16,0,2.26-0.21,3.29-0.57c1.03,0.36,2.14,0.57,3.29,0.57h9.08c2.7,0,5.15-1.08,6.95-2.82c0.09,0.05,0.17,0.1,0.26,0.15
		c3.74,2.05,7.97,3.09,12.56,3.09c3.83,0,7.42-0.75,10.67-2.22c0.67-0.31,1.32-0.64,1.95-1c1.8,1.73,4.24,2.8,6.93,2.8h9.08
		c2.11,0,4.07-0.65,5.68-1.77c1.61,1.12,3.57,1.77,5.68,1.77h9.03c2.51,0,4.79-0.93,6.55-2.45c3.35,1.9,7.06,2.88,11.04,2.88
		c2.19,0,4.28-0.28,6.25-0.85c0.91,0.28,1.88,0.42,2.89,0.42h9.08c2.56,0,4.88-0.97,6.65-2.55c3.39,1.96,7.13,2.97,11.14,2.97
		c2.2,0,4.3-0.29,6.28-0.86c0.92,0.28,1.9,0.43,2.91,0.43h9.08c1.16,0,2.26-0.21,3.29-0.57c1.03,0.36,2.14,0.57,3.29,0.57h9.08
		c2.64,0,5.04-1.03,6.83-2.71c1.79,1.67,4.18,2.71,6.83,2.71h9.08c2.75,0,5.23-1.11,7.04-2.9c0.16,0.09,0.32,0.19,0.49,0.28
		c3.77,2.02,8,3.04,12.55,3.04c4.53,0,8.75-1.01,12.54-3.01c4.02-2.11,7.23-5.18,9.55-9.12c2.27-3.87,3.42-8.28,3.42-13.11
		C1896.28,932.36,1895.15,927.96,1892.91,924.1z"/>
	<g>
		<text transform="matrix(1 0 0 1 1581.7168 950.9902)" class="st2 st6" style="font-size:53.1178px;">Calendário</text>
	</g>
</g>
<g>
	<path class="st0" d="M1434.64,1498.98h-165c-52.25,0-95-42.75-95-95v-165c0-52.25,42.75-95,95-95h165c52.25,0,95,42.75,95,95v165
		C1529.64,1456.23,1486.89,1498.98,1434.64,1498.98z"/>
	<g>
		<g>
			<ellipse class="st1" cx="1286.76" cy="1254.05" rx="58.98" ry="58.35"/>
		</g>
		<g>
			<path class="st1" d="M1366.38,1447.27h-159.24v-102.9c0-13.35,10.83-24.18,24.18-24.18h110.88c13.35,0,24.18,10.83,24.18,24.18
				V1447.27z"/>
		</g>
		<g>
			<path class="st1" d="M1433.99,1435.56h-13.31c-13.33,0-24.17-10.84-24.17-24.17v-31.52c0-13.33,10.84-24.17,24.17-24.17h9.42
				c4.38,0,7.95-3.57,7.95-7.95v-49.63c0-4.38-3.57-7.95-7.95-7.95h-9.42c-13.33,0-24.17-10.84-24.17-24.17v-31.52
				c0-13.33,10.84-24.17,24.17-24.17h13.31c24.07,0,45.72,13.38,56.48,34.91c4.36,8.72,6.67,18.49,6.67,28.24v98.94
				c0,9.75-2.31,19.52-6.67,28.24C1479.7,1422.19,1458.06,1435.56,1433.99,1435.56z M1420.68,1373.26c-3.65,0-6.62,2.97-6.62,6.62
				v31.52c0,3.65,2.97,6.62,6.62,6.62h13.31c17.38,0,33.01-9.66,40.78-25.21c3.15-6.3,4.82-13.35,4.82-20.39v-98.94
				c0-7.04-1.67-14.09-4.81-20.39c-7.78-15.55-23.4-25.21-40.78-25.21h-13.31c-3.65,0-6.62,2.97-6.62,6.62v31.52
				c0,3.65,2.97,6.62,6.62,6.62h9.42c14.06,0,25.5,11.44,25.5,25.5v49.63c0,14.06-11.44,25.5-25.5,25.5H1420.68z"/>
		</g>
	</g>
	<g>
		<path class="st3" d="M1249.09,1305.64c-0.08,0-0.14,0-0.19,0.01c-0.2,0.31-0.37,0.98-0.37,2.11c0,1.1,0.17,1.83,0.36,2.11
			c0.05,0,0.12,0.01,0.2,0.01c0.41-0.77,0.91-1.48,1.48-2.11C1250,1307.13,1249.49,1306.42,1249.09,1305.64z"/>
		<path class="st3" d="M1482.79,1298.02c-2.47-4.25-5.9-7.56-10.2-9.84c-4.09-2.17-8.65-3.26-13.56-3.26
			c-4.91,0-9.48,1.1-13.57,3.27c-0.14,0.07-0.26,0.15-0.4,0.23c-1.09-1.12-2.44-1.99-3.96-2.5c-0.65-4.9-4.84-8.68-9.91-8.68h-10.26
			c-4.89,0-8.96,3.52-9.82,8.16h-9.5c-1.14,0-2.23,0.19-3.25,0.54c-2.21-0.68-4.58-1.02-7.07-1.02c-4.25,0-8.21,1.03-11.8,3.04
			c-1-0.9-2.18-1.6-3.48-2.04c-0.65-4.9-4.84-8.68-9.91-8.68h-10.26c-5.52,0-10,4.48-10,10v0.1c-0.17,0.12-0.32,0.26-0.48,0.4
			c-3.28-1.77-7.06-2.7-11.18-2.7c-2.37,0-4.64,0.31-6.78,0.94c-1.05-0.37-2.18-0.58-3.36-0.58h-10.26c-3.12,0-5.91,1.43-7.74,3.68
			c-0.5-0.31-1.02-0.61-1.55-0.89c-4.09-2.17-8.65-3.26-13.56-3.26c-4.91,0-9.48,1.1-13.57,3.27c-0.81,0.43-1.57,0.9-2.32,1.4
			c-1.84-2.84-4.16-5.31-6.96-7.38c-5.3-3.93-11.63-5.93-18.8-5.93c-5.81,0-11.15,1.35-15.87,4.02c-4.84,2.74-8.66,6.6-11.36,11.49
			c-2.62,4.74-3.95,10.11-3.95,15.96c0,5.86,1.33,11.23,3.96,15.96c2.7,4.86,6.52,8.71,11.35,11.44c4.72,2.67,10.06,4.02,15.87,4.02
			c7.15,0,13.47-1.98,18.77-5.88c0.94-0.69,1.81-1.45,2.65-2.23c1.88,2,4.06,3.68,6.54,5c4.07,2.18,8.64,3.28,13.56,3.28
			c4.9,0,9.47-1.09,13.57-3.25c0.56-0.3,1.11-0.61,1.64-0.94c1.83,2.26,4.63,3.71,7.77,3.71h10.26c2.44,0,4.68-0.88,6.42-2.33
			c1.74,1.46,3.98,2.33,6.42,2.33h10.2c3.04,0,5.76-1.36,7.59-3.5c3.58,2.31,7.92,3.5,12.99,3.5h5.22c2.56,0,4.89-0.97,6.66-2.56
			c3.57,2.01,7.49,3.04,11.69,3.04c2.51,0,4.88-0.34,7.11-1.03c1.03,0.36,2.13,0.55,3.27,0.55h10.26c3.1,0,5.87-1.41,7.7-3.62
			c3.61,2.39,8.02,3.62,13.18,3.62h5.22c2.78,0,5.29-1.13,7.1-2.96c0.09,0.05,0.18,0.11,0.28,0.16c4.07,2.18,8.64,3.28,13.56,3.28
			c4.9,0,9.47-1.09,13.57-3.25c4.32-2.27,7.77-5.58,10.26-9.81c2.45-4.16,3.69-8.93,3.69-14.16
			C1486.43,1306.93,1485.2,1302.18,1482.79,1298.02z M1248.89,1309.86c-0.19-0.28-0.36-1.01-0.36-2.11c0-1.13,0.17-1.8,0.37-2.11
			c0.05,0,0.11-0.01,0.19-0.01c0.41,0.78,0.91,1.5,1.48,2.13c-0.58,0.63-1.08,1.34-1.48,2.11
			C1249.01,1309.87,1248.94,1309.87,1248.89,1309.86z"/>
	</g>
	<g>
		<text transform="matrix(1 0 0 1 1226.1086 1328.8749)" class="st2 st6 st7">Contato</text>
	</g>
</g>
<g>
	<path class="st0" d="M1816.77,1494.54h-165c-52.25,0-95-42.75-95-95v-165c0-52.25,42.75-95,95-95h165c52.25,0,95,42.75,95,95v165
		C1911.77,1451.79,1869.02,1494.54,1816.77,1494.54z"/>
	<g>
		<g>
			<path class="st8" d="M1821.18,1204.66h-134.01c-17.37,0-31.5,14.13-31.5,31.5v161.76c0,17.37,14.13,31.5,31.5,31.5h165.51
				v-193.26C1852.68,1218.79,1838.55,1204.66,1821.18,1204.66z"/>
			<path class="st1" d="M1821.18,1182.46h-134.01c-27.4,0-50.06,20.63-53.29,47.17h-29.12c-6.13,0-11.1,4.97-11.1,11.1
				s4.97,11.1,11.1,11.1h28.71v56.88h-28.71c-6.13,0-11.1,4.97-11.1,11.1s4.97,11.1,11.1,11.1h28.71v56.88h-28.71
				c-6.13,0-11.1,4.97-11.1,11.1s4.97,11.1,11.1,11.1h30.09c5.5,23.81,26.86,41.62,52.32,41.62h176.61c6.13,0,11.1-4.97,11.1-11.1
				v-204.36C1874.88,1206.55,1850.79,1182.46,1821.18,1182.46z M1852.68,1429.42h-165.51c-17.37,0-31.5-14.13-31.5-31.5v-161.76
				c0-17.37,14.13-31.5,31.5-31.5h134.01c17.37,0,31.5,14.13,31.5,31.5V1429.42z"/>
		</g>
		<g>
			<g>
				<path class="st1" d="M1734.62,1287.26c-0.04-0.37-0.09-0.75-0.15-1.15c-0.15-0.68-0.31-1.26-0.5-1.84l-0.26-0.77l-17.75-43.71
					l-0.49-1.31c-0.14-0.4-0.33-0.84-0.59-1.26c-0.05-0.09-0.13-0.25-0.21-0.52l-0.03-0.1l-0.03-0.1c-0.33-0.85-0.7-1.62-1.1-2.28
					c-0.53-0.8-0.99-1.44-1.41-1.98c-0.53-0.71-1.29-1.3-2.23-1.73l-0.08-0.04l-0.09-0.03c-1.01-0.36-2.18-0.54-3.46-0.54
					c-1.29,0-2.45,0.18-3.47,0.54l-0.08,0.03l-0.08,0.04c-0.94,0.43-1.7,1.02-2.25,1.75l-0.65,0.81c-0.3,0.38-0.57,0.79-0.79,1.22
					c-0.38,0.65-0.73,1.39-1.05,2.21l-0.03,0.09l-0.03,0.09c-0.08,0.29-0.16,0.45-0.21,0.52c-0.26,0.44-0.46,0.88-0.61,1.36
					l-0.49,1.29l-17.69,43.53l-0.3,0.89c-0.19,0.58-0.35,1.16-0.48,1.73c-0.09,0.52-0.14,0.9-0.17,1.25
					c-0.03,0.37-0.05,0.79-0.05,1.25c0,1.09,0.31,2.11,0.93,3.01c0.27,0.44,0.62,0.85,1.04,1.23c0.41,0.37,0.92,0.7,1.49,0.95
					c1.38,0.76,2.85,1.14,4.38,1.14c0.44,0,0.9-0.03,1.35-0.1l0.13-0.02l0.14-0.03c1.06-0.3,2.02-0.81,2.87-1.5l0.1-0.07l0.04-0.04
					c0.18-0.13,0.41-0.33,0.62-0.63l0.25-0.25c0.38-0.38,0.7-0.76,0.94-1.12c0.22-0.33,0.41-0.68,0.56-1.03
					c0.15-0.26,0.29-0.5,0.42-0.73c0.14-0.25,0.28-0.5,0.44-0.76l0.04-0.06l0.03-0.07c0.14-0.27,0.26-0.53,0.36-0.77
					c0.06-0.15,0.14-0.32,0.23-0.5c0.22-0.44,0.36-0.88,0.43-1.34l0.02-0.06l0.04-0.09l1.24-2.89c2.1,0.03,4.2,0.04,6.3,0.04
					c1.35,0,2.7-0.01,4.05-0.02c3.43-0.02,6.87-0.03,10.32-0.04l1.15,2.69c0.09,0.46,0.25,0.94,0.47,1.46
					c0.1,0.35,0.24,0.67,0.41,0.97c0.1,0.17,0.18,0.33,0.27,0.5l0.03,0.06l0.07,0.12c0.16,0.26,0.3,0.51,0.43,0.75
					c0.1,0.17,0.19,0.37,0.27,0.58l0.06,0.15l0.09,0.14c0.18,0.31,0.37,0.61,0.56,0.89c0.26,0.38,0.57,0.76,0.94,1.13l0.25,0.25
					c0.21,0.29,0.43,0.49,0.64,0.63l0.12,0.11c0.85,0.69,1.82,1.2,2.88,1.5l0.13,0.03l0.14,0.02c0.45,0.07,0.9,0.1,1.35,0.1
					c1.52,0,3-0.38,4.38-1.14c0.57-0.25,1.07-0.58,1.49-0.96c0.42-0.37,0.79-0.8,1.07-1.27c0.57-0.82,0.9-1.85,0.9-2.96
					C1734.67,1288.04,1734.65,1287.62,1734.62,1287.26z M1698.7,1269.35l1.54-3.75c0.73-1.64,1.49-3.34,2.25-5.1
					c0.77-1.76,1.58-3.55,2.43-5.37c0.23-0.51,0.45-1.03,0.68-1.57c0.23-0.54,0.43-1.07,0.6-1.58c0.22,0.51,0.45,1.04,0.68,1.58
					c0.22,0.54,0.45,1.06,0.68,1.57c0.85,1.82,1.66,3.61,2.43,5.37c0.76,1.76,1.51,3.46,2.25,5.1l1.53,3.75H1698.7z"/>
			</g>
		</g>
		<g>
			<path class="st1" d="M1828.6,1283.23l-0.08-0.09c-0.6-0.67-1.34-1.26-2.2-1.77l-0.19-0.11l-0.21-0.07l-0.37-0.12l-0.37-0.19
				l-0.08-0.04l-0.08-0.03c-0.46-0.19-0.98-0.31-1.52-0.36c-0.28-0.02-0.52-0.05-0.73-0.09l-0.12-0.02l-0.12-0.01
				c-1.54-0.12-3.07-0.18-4.54-0.18h-4.39h-5.58c-1.35,0-2.42-0.01-3.2-0.04c-0.84-0.03-1.46-0.04-1.87-0.04h-0.23
				c2.72-3.97,5.52-8.01,8.36-12.05c3.55-5.05,7.11-10.13,10.69-15.24c0.78-1.11,1.59-2.23,2.43-3.35c0.85-1.13,1.7-2.33,2.53-3.58
				c0.38-0.53,0.87-1.26,1.45-2.13c0.64-0.97,1.18-1.98,1.6-3.01c0.46-1.12,0.71-2.25,0.75-3.35c0.05-1.45-0.52-2.77-1.64-3.81
				l-0.22-0.2l-0.26-0.13c-0.22-0.11-0.41-0.23-0.56-0.36c-0.41-0.33-0.85-0.61-1.31-0.84c-1.32-0.75-2.88-1.16-4.56-1.16
				c-0.13,0-0.27,0-0.41,0.01c-0.45,0.02-0.9,0.03-1.33,0.03c-0.88,0-1.73-0.04-2.54-0.11c-0.47-0.04-0.96-0.06-1.47-0.06
				c-0.25,0-0.5,0.01-0.76,0.02c-0.65,0.03-1.28,0.04-1.87,0.04c-4.93,0-9.02-0.01-12.28-0.04c-1.1-0.01-2.1-0.01-3.01-0.01
				c-1.85,0-3.32,0.02-4.44,0.06l-0.36,0h-0.21l-0.2,0.04c-0.42,0.09-0.89,0.13-1.38,0.13c-0.66,0-1.31,0.03-1.97,0.09
				c-1.35,0.01-2.74,0.29-4.13,0.82c-1.23,0.49-2.24,1.26-3.04,2.29c-0.8,1.07-1.2,2.29-1.2,3.65c0,0.94,0.1,1.79,0.31,2.53
				c0.21,1.03,0.8,1.99,1.73,2.84c0.97,0.89,2.19,1.47,3.62,1.74c1.09,0.21,2.1,0.35,3,0.41c2.32,0.06,4.36,0.1,6.21,0.13l3.7,0.06
				l1.62,0.03c1.71,0.03,3.44,0.04,5.18,0.04h1.56c-0.08,0.11-0.16,0.22-0.23,0.33c-0.77,1.07-1.65,2.36-2.69,3.94
				c-1.29,1.9-2.55,3.76-3.76,5.54c-1.22,1.79-2.45,3.5-3.64,5.06l-7.97,11.57l-4.41,6.19l-0.09,0.13l-0.07,0.14
				c-0.06,0.13-0.13,0.25-0.21,0.36c-0.09,0.12-0.2,0.25-0.33,0.38l-0.14,0.14l-0.11,0.17c-0.14,0.21-0.3,0.47-0.47,0.78
				c-0.16,0.29-0.3,0.55-0.43,0.8l-0.04,0.08l-0.03,0.08c-0.06,0.14-0.14,0.29-0.25,0.44c-0.2,0.29-0.38,0.6-0.53,0.9
				c-0.22,0.28-0.4,0.58-0.53,0.9c-0.02,0.04-0.06,0.12-0.1,0.18l-0.16,0.23l-0.09,0.27c-0.11,0.32-0.21,0.63-0.32,0.92
				c-0.2,0.54-0.3,1.11-0.3,1.7c0,0.18,0.02,0.36,0.05,0.52c-0.03,0.33-0.02,0.63,0.01,0.92c0.04,0.31,0.11,0.63,0.23,0.97
				c0.16,1.1,0.8,2.08,1.91,2.91c0.37,0.31,0.95,0.69,1.69,1.1l0.29,0.16l0.32,0.06c0.33,0.06,0.61,0.11,0.84,0.14
				c0.07,0.01,0.18,0.03,0.29,0.06c0.28,0.1,0.57,0.16,0.88,0.18l0.1,0.03l0.18,0.03c0.45,0.07,0.91,0.11,1.36,0.11h1.02h30.9
				c0.36,0,0.71-0.02,1.03-0.05c0.29-0.04,0.58-0.08,0.88-0.13c0.85-0.09,1.67-0.33,2.45-0.72c0.88-0.28,1.65-0.75,2.3-1.4
				c0.35-0.35,0.65-0.74,0.92-1.17c0.33-0.52,0.56-1.12,0.67-1.78c0.45-1.96,0.09-3.83-1.02-5.43L1828.6,1283.23z"/>
			<path class="st1" d="M1776.68,1259.51c-0.31-0.87-0.77-1.61-1.38-2.23c-1.13-1.05-2.31-1.77-3.57-2.21
				c-0.8-0.28-1.63-0.42-2.44-0.42h0c-0.46,0-0.93,0.05-1.39,0.14h-16.21c-0.93,0.04-1.76,0.06-2.59,0.06c-0.41,0-0.83,0-1.24-0.01
				l-0.24,0c-1.47,0-2.9,0.29-4.26,0.87c-1.41,0.51-2.53,1.46-3.3,2.82c-0.72,1.24-1.09,2.55-1.09,3.88c0,1.16,0.26,2.2,0.78,3.12
				c0.44,0.76,1.04,1.52,1.78,2.27c0.76,0.69,1.51,1.17,2.32,1.51c0.79,0.33,1.62,0.56,2.48,0.66c0.58,0.07,1.2,0.11,1.82,0.11
				c0.2,0,0.4,0,0.61-0.01c0.71-0.03,1.41-0.07,2.09-0.13l16.61-0.09h0.8c0.58,0,1.25-0.05,2.01-0.14c0.84-0.1,1.72-0.33,2.61-0.67
				c1.05-0.4,1.92-0.99,2.59-1.75c0.58-0.67,0.98-1.51,1.27-2.6c0.24-0.95,0.37-1.85,0.37-2.7
				C1777.09,1261.13,1776.95,1260.3,1776.68,1259.51z"/>
		</g>
		<path class="st1" d="M1823.54,1319.82H1684.8c-4.6,0-8.32,3.73-8.32,8.32c0,4.6,3.73,8.32,8.32,8.32h138.74
			c4.6,0,8.32-3.73,8.32-8.32C1831.87,1323.54,1828.14,1319.82,1823.54,1319.82z"/>
		<path class="st1" d="M1823.54,1355.19H1684.8c-4.6,0-8.32,3.73-8.32,8.32c0,4.6,3.73,8.32,8.32,8.32h138.74
			c4.6,0,8.32-3.73,8.32-8.32C1831.87,1358.92,1828.14,1355.19,1823.54,1355.19z"/>
		<path class="st1" d="M1823.54,1390.57H1684.8c-4.6,0-8.32,3.73-8.32,8.32c0,4.6,3.73,8.32,8.32,8.32h138.74
			c4.6,0,8.32-3.73,8.32-8.32C1831.87,1394.3,1828.14,1390.57,1823.54,1390.57z"/>
	</g>
	<g>
		<g>
			<path class="st3" d="M1620.48,1295.63c-0.76-1.4-1.85-2.47-3.27-3.21s-3.09-1.11-5.01-1.11c-3.32,0-5.98,1.09-7.98,3.27
				c-2,2.18-3,5.09-3,8.73c0,3.88,1.05,6.91,3.15,9.09c2.1,2.18,4.99,3.27,8.67,3.27c2.52,0,4.65-0.64,6.39-1.92
				c1.74-1.28,3.01-3.12,3.81-5.52h-13.02v-7.56h22.32v9.54c-0.76,2.56-2.05,4.94-3.87,7.14c-1.82,2.2-4.13,3.98-6.93,5.34
				c-2.8,1.36-5.96,2.04-9.48,2.04c-4.16,0-7.87-0.91-11.13-2.73c-3.26-1.82-5.8-4.35-7.62-7.59c-1.82-3.24-2.73-6.94-2.73-11.1
				c0-4.16,0.91-7.87,2.73-11.13c1.82-3.26,4.35-5.8,7.59-7.62c3.24-1.82,6.94-2.73,11.1-2.73c5.04,0,9.29,1.22,12.75,3.66
				c3.46,2.44,5.75,5.82,6.87,10.14H1620.48z"/>
			<path class="st3" d="M1648.5,1280.03v44.4h-10.26v-44.4H1648.5z"/>
			<path class="st3" d="M1662.33,1322.81c-2.62-1.4-4.68-3.4-6.18-6c-1.5-2.6-2.25-5.64-2.25-9.12c0-3.44,0.76-6.47,2.28-9.09
				c1.52-2.62,3.6-4.63,6.24-6.03c2.64-1.4,5.6-2.1,8.88-2.1c3.28,0,6.24,0.7,8.88,2.1c2.64,1.4,4.72,3.41,6.24,6.03
				c1.52,2.62,2.28,5.65,2.28,9.09c0,3.44-0.77,6.47-2.31,9.09c-1.54,2.62-3.64,4.63-6.3,6.03c-2.66,1.4-5.63,2.1-8.91,2.1
				S1664.95,1324.21,1662.33,1322.81z M1676.19,1313.88c1.38-1.44,2.07-3.5,2.07-6.18c0-2.68-0.67-4.74-2.01-6.18
				c-1.34-1.44-2.99-2.16-4.95-2.16c-2,0-3.66,0.71-4.98,2.13c-1.32,1.42-1.98,3.49-1.98,6.21c0,2.68,0.65,4.74,1.95,6.18
				c1.3,1.44,2.93,2.16,4.89,2.16S1674.81,1315.31,1676.19,1313.88z"/>
			<path class="st3" d="M1699.98,1323.42c-2.28-1-4.08-2.37-5.4-4.11s-2.06-3.69-2.22-5.85h10.14c0.12,1.16,0.66,2.1,1.62,2.82
				s2.14,1.08,3.54,1.08c1.28,0,2.27-0.25,2.97-0.75c0.7-0.5,1.05-1.15,1.05-1.95c0-0.96-0.5-1.67-1.5-2.13
				c-1-0.46-2.62-0.97-4.86-1.53c-2.4-0.56-4.4-1.15-6-1.77c-1.6-0.62-2.98-1.6-4.14-2.94c-1.16-1.34-1.74-3.15-1.74-5.43
				c0-1.92,0.53-3.67,1.59-5.25c1.06-1.58,2.62-2.83,4.68-3.75c2.06-0.92,4.51-1.38,7.35-1.38c4.2,0,7.51,1.04,9.93,3.12
				c2.42,2.08,3.81,4.84,4.17,8.28h-9.48c-0.16-1.16-0.67-2.08-1.53-2.76c-0.86-0.68-1.99-1.02-3.39-1.02
				c-1.2,0-2.12,0.23-2.76,0.69c-0.64,0.46-0.96,1.09-0.96,1.89c0,0.96,0.51,1.68,1.53,2.16c1.02,0.48,2.61,0.96,4.77,1.44
				c2.48,0.64,4.5,1.27,6.06,1.89c1.56,0.62,2.93,1.62,4.11,3c1.18,1.38,1.79,3.23,1.83,5.55c0,1.96-0.55,3.71-1.65,5.25
				s-2.68,2.75-4.74,3.63c-2.06,0.88-4.45,1.32-7.17,1.32C1704.86,1324.92,1702.26,1324.42,1699.98,1323.42z"/>
			<path class="st3" d="M1733.46,1323.42c-2.28-1-4.08-2.37-5.4-4.11c-1.32-1.74-2.06-3.69-2.22-5.85h10.14
				c0.12,1.16,0.66,2.1,1.62,2.82c0.96,0.72,2.14,1.08,3.54,1.08c1.28,0,2.27-0.25,2.97-0.75c0.7-0.5,1.05-1.15,1.05-1.95
				c0-0.96-0.5-1.67-1.5-2.13c-1-0.46-2.62-0.97-4.86-1.53c-2.4-0.56-4.4-1.15-6-1.77c-1.6-0.62-2.98-1.6-4.14-2.94
				c-1.16-1.34-1.74-3.15-1.74-5.43c0-1.92,0.53-3.67,1.59-5.25c1.06-1.58,2.62-2.83,4.68-3.75c2.06-0.92,4.51-1.38,7.35-1.38
				c4.2,0,7.51,1.04,9.93,3.12c2.42,2.08,3.81,4.84,4.17,8.28h-9.48c-0.16-1.16-0.67-2.08-1.53-2.76c-0.86-0.68-1.99-1.02-3.39-1.02
				c-1.2,0-2.12,0.23-2.76,0.69c-0.64,0.46-0.96,1.09-0.96,1.89c0,0.96,0.51,1.68,1.53,2.16c1.02,0.48,2.61,0.96,4.77,1.44
				c2.48,0.64,4.5,1.27,6.06,1.89s2.93,1.62,4.11,3c1.18,1.38,1.79,3.23,1.83,5.55c0,1.96-0.55,3.71-1.65,5.25
				c-1.1,1.54-2.68,2.75-4.74,3.63c-2.06,0.88-4.45,1.32-7.17,1.32C1738.34,1324.92,1735.74,1324.42,1733.46,1323.42z"/>
			<path class="st3" d="M1761.03,1298.57c1.3-2.6,3.07-4.6,5.31-6c2.24-1.4,4.74-2.1,7.5-2.1c2.36,0,4.43,0.48,6.21,1.44
				c1.78,0.96,3.15,2.22,4.11,3.78v-4.74h10.26v33.48h-10.26v-4.74c-1,1.56-2.39,2.82-4.17,3.78c-1.78,0.96-3.85,1.44-6.21,1.44
				c-2.72,0-5.2-0.71-7.44-2.13c-2.24-1.42-4.01-3.44-5.31-6.06c-1.3-2.62-1.95-5.65-1.95-9.09
				C1759.08,1304.2,1759.73,1301.17,1761.03,1298.57z M1782.03,1301.63c-1.42-1.48-3.15-2.22-5.19-2.22s-3.77,0.73-5.19,2.19
				c-1.42,1.46-2.13,3.47-2.13,6.03c0,2.56,0.71,4.59,2.13,6.09c1.42,1.5,3.15,2.25,5.19,2.25s3.77-0.74,5.19-2.22
				c1.42-1.48,2.13-3.5,2.13-6.06C1784.16,1305.13,1783.45,1303.12,1782.03,1301.63z M1784.94,1282.61l-14.46,6.06v-7.08l14.46-6.96
				V1282.61z"/>
			<path class="st3" d="M1816.62,1292.18c1.8-1.06,3.8-1.59,6-1.59v10.86h-2.82c-2.56,0-4.48,0.55-5.76,1.65
				c-1.28,1.1-1.92,3.03-1.92,5.79v15.54h-10.26v-33.48h10.26v5.58C1813.32,1294.7,1814.82,1293.25,1816.62,1292.18z"/>
			<path class="st3" d="M1828.29,1285.88c-1.14-1.06-1.71-2.37-1.71-3.93c0-1.6,0.57-2.93,1.71-3.99c1.14-1.06,2.61-1.59,4.41-1.59
				c1.76,0,3.21,0.53,4.35,1.59c1.14,1.06,1.71,2.39,1.71,3.99c0,1.56-0.57,2.87-1.71,3.93c-1.14,1.06-2.59,1.59-4.35,1.59
				C1830.9,1287.47,1829.43,1286.95,1828.29,1285.88z M1837.8,1290.95v33.48h-10.26v-33.48H1837.8z"/>
			<path class="st3" d="M1884.37,1293.58c-2.47-4.25-5.9-7.56-10.2-9.84c-4.09-2.17-8.65-3.26-13.56-3.26
				c-4.25,0-8.24,0.83-11.89,2.45c0.02-0.32,0.05-0.65,0.05-0.97c0-4.36-1.74-8.38-4.9-11.32c-3-2.79-6.86-4.26-11.16-4.26
				c-4.34,0-8.22,1.48-11.21,4.26c-3.03,2.82-4.74,6.63-4.88,10.78c-0.27,0.08-0.54,0.14-0.81,0.23c-1.14-0.45-2.38-0.7-3.67-0.7
				h-10.26c-1.32,0-2.57,0.26-3.72,0.72c-1-0.4-2.07-0.65-3.2-0.71v-6.33c0-3.44-1.77-6.64-4.68-8.47
				c-1.62-1.02-3.47-1.53-5.32-1.53c-1.48,0-2.96,0.33-4.34,0.99l-14.46,6.96c-3.46,1.67-5.66,5.17-5.66,9.01v2.86
				c-1,0.66-1.93,1.4-2.81,2.2c-0.23-0.21-0.44-0.44-0.69-0.65c-4.28-3.67-9.81-5.53-16.45-5.53c-4.24,0-8.08,0.76-11.43,2.25
				c-2.06,0.92-3.87,2.07-5.45,3.43c-0.05-0.05-0.1-0.1-0.16-0.15c-4.28-3.67-9.81-5.53-16.45-5.53c-4.24,0-8.09,0.76-11.43,2.25
				c-2.39,1.07-4.46,2.44-6.2,4.1c-1.39-1.18-2.91-2.21-4.57-3.09c-4.08-2.17-8.65-3.26-13.56-3.26c-4.61,0-8.91,0.98-12.8,2.89
				v-3.33c0-5.52-4.48-10-10-10h-10.26c-4.17,0-7.74,2.55-9.24,6.18c-4.81-2.9-10.45-4.38-16.8-4.38c-5.88,0-11.26,1.35-16,4.01
				c-4.86,2.73-8.7,6.59-11.42,11.46c-2.65,4.75-4,10.14-4,16.01c0,5.88,1.35,11.26,4.01,16c2.73,4.86,6.58,8.7,11.46,11.42
				c4.75,2.65,10.14,4,16.01,4c5.03,0,9.69-1.02,13.85-3.04c1.27-0.61,2.46-1.3,3.61-2.05c1.76,2.87,4.91,4.79,8.53,4.79h10.26
				c3.1,0,5.87-1.41,7.7-3.62c0.46,0.28,0.93,0.56,1.42,0.82c4.07,2.18,8.64,3.28,13.56,3.28c4.9,0,9.47-1.09,13.57-3.25
				c1.72-0.91,3.3-1.98,4.74-3.21c1.86,1.66,4.02,3.04,6.48,4.12c3.54,1.55,7.52,2.34,11.82,2.34c4.06,0,7.79-0.71,11.1-2.12
				c2.03-0.86,3.83-1.96,5.4-3.25c1.54,1.18,3.27,2.2,5.16,3.03c3.54,1.55,7.52,2.34,11.82,2.34c4.06,0,7.79-0.71,11.1-2.12
				c2.22-0.95,4.17-2.16,5.85-3.62c0.87,0.75,1.8,1.44,2.78,2.06c3.86,2.45,8.16,3.69,12.8,3.69c2.51,0,4.88-0.34,7.11-1.03
				c1.03,0.36,2.13,0.55,3.28,0.55h10.26c1.32,0,2.57-0.26,3.72-0.72c1.15,0.46,2.4,0.72,3.72,0.72h10.26c3.1,0,5.88-1.41,7.71-3.63
				c1.83,2.22,4.61,3.63,7.71,3.63h10.26c3.1,0,5.87-1.41,7.7-3.62c0.46,0.28,0.93,0.56,1.42,0.82c4.07,2.18,8.64,3.28,13.56,3.28
				c4.9,0,9.47-1.09,13.57-3.25c4.32-2.27,7.78-5.58,10.26-9.81c2.45-4.16,3.69-8.93,3.69-14.16
				C1888,1302.49,1886.78,1297.74,1884.37,1293.58z"/>
			<path class="st3" d="M1851.63,1322.81c-2.62-1.4-4.68-3.4-6.18-6c-1.5-2.6-2.25-5.64-2.25-9.12c0-3.44,0.76-6.47,2.28-9.09
				c1.52-2.62,3.6-4.63,6.24-6.03c2.64-1.4,5.6-2.1,8.88-2.1c3.28,0,6.24,0.7,8.88,2.1c2.64,1.4,4.72,3.41,6.24,6.03
				c1.52,2.62,2.28,5.65,2.28,9.09c0,3.44-0.77,6.47-2.31,9.09c-1.54,2.62-3.64,4.63-6.3,6.03c-2.66,1.4-5.63,2.1-8.91,2.1
				C1857.2,1324.92,1854.25,1324.21,1851.63,1322.81z M1865.49,1313.88c1.38-1.44,2.07-3.5,2.07-6.18c0-2.68-0.67-4.74-2.01-6.18
				c-1.34-1.44-2.99-2.16-4.95-2.16c-2,0-3.66,0.71-4.98,2.13c-1.32,1.42-1.98,3.49-1.98,6.21c0,2.68,0.65,4.74,1.95,6.18
				c1.3,1.44,2.93,2.16,4.89,2.16C1862.44,1316.03,1864.11,1315.31,1865.49,1313.88z"/>
		</g>
	</g>
	<g>
		<text transform="matrix(1 0 0 1 1588.8008 1324.4348)" class="st2 st6 st7">Glossário</text>
	</g>
</g>
<g>
	<path class="st0" d="M1434.64,1873.04h-165c-52.25,0-95-42.75-95-95v-165c0-52.25,42.75-95,95-95h165c52.25,0,95,42.75,95,95v165
		C1529.64,1830.29,1486.89,1873.04,1434.64,1873.04z"/>
	<g>
		<g>
			<path class="st1" d="M1358.86,1833.12c-31.04,0-61.24-10.26-85.66-28.99l-20.01,4.78c-14.84,3.54-29.83-2.09-39.12-14.7
				c-10.06-13.65-10.96-31.92-2.29-46.56l11.51-19.43c-2.66-10.72-4-21.69-4-32.68c0-75.86,62.61-137.58,139.57-137.58
				c76.96,0,139.57,61.72,139.57,137.58C1498.43,1771.4,1435.82,1833.12,1358.86,1833.12z M1275.97,1780.35
				c2.65,0,5.24,0.92,7.31,2.65c21.08,17.62,47.92,27.32,75.58,27.32c64.39,0,116.77-51.49,116.77-114.78
				s-52.38-114.78-116.77-114.78c-64.39,0-116.78,51.49-116.78,114.78c0,10.52,1.48,21.02,4.41,31.22c0.87,3.02,0.45,6.26-1.15,8.96
				l-13.95,23.55c-4.85,8.19-2.48,16.65,1.03,21.41c1.84,2.49,7.02,8.06,15.47,6.05l25.43-6.07
				C1274.19,1780.45,1275.08,1780.35,1275.97,1780.35z"/>
		</g>
		<g>
			<path class="st1" d="M1349.04,1727.51c-10.73-35.25,22.99-49.85,15.95-72.96c-3.55-11.67-12.88-15.98-23.26-12.82
				c-10.07,3.07-13.85,11-13.5,20.38c0.24,6.45-4.45,12.37-11.11,14.4l-3.25,0.99c-9.49,2.89-19.09-3.16-19.38-12.35
				c-0.75-23.36,12.25-43.38,37.95-51.21c30.12-9.17,57.35,3.97,64.74,28.25c11.3,37.12-22.63,51.02-14.46,77.87l0,0
				c2.28,7.48-2.45,15.54-10.56,18.01l-3.54,1.08c-8.11,2.47-16.53-1.59-18.8-9.07L1349.04,1727.51z M1354.6,1770.08
				c-3.15-10.36,2.33-22.24,13.5-25.64c11.58-3.52,22.61,3.55,25.7,13.71c3.4,11.17-2.39,22.03-13.77,25.5
				C1369.27,1786.92,1358,1781.25,1354.6,1770.08z"/>
		</g>
	</g>
	<g>
		<g>
			<path class="st3" d="M1304.2,1660.81v8.22h-17.16v8.88h12.84v7.98h-12.84v17.04h-10.26v-42.12H1304.2z"/>
			<path class="st3" d="M1309.99,1701.82c-1.14-1.06-1.71-2.37-1.71-3.93c0-1.6,0.57-2.94,1.71-4.02c1.14-1.08,2.61-1.62,4.41-1.62
				c1.76,0,3.21,0.54,4.35,1.62c1.14,1.08,1.71,2.42,1.71,4.02c0,1.56-0.57,2.87-1.71,3.93c-1.14,1.06-2.59,1.59-4.35,1.59
				C1312.6,1703.42,1311.13,1702.88,1309.99,1701.82z"/>
			<path class="st3" d="M1352.74,1695.49h-15.72l-2.52,7.44h-10.74l15.24-42.12h11.88l15.24,42.12h-10.86L1352.74,1695.49z
				 M1350.1,1687.57l-5.22-15.42l-5.16,15.42H1350.1z"/>
			<path class="st3" d="M1371.13,1701.82c-1.14-1.06-1.71-2.37-1.71-3.93c0-1.6,0.57-2.94,1.71-4.02c1.14-1.08,2.61-1.62,4.41-1.62
				c1.76,0,3.21,0.54,4.35,1.62c1.14,1.08,1.71,2.42,1.71,4.02c0,1.56-0.57,2.87-1.71,3.93c-1.14,1.06-2.59,1.59-4.35,1.59
				C1373.74,1703.42,1372.27,1702.88,1371.13,1701.82z"/>
			<g>
				<path class="st3" d="M1407.58,1679.51c-0.6,0-0.82,0.09-0.82,0.09c-0.08,0.12-0.34,0.77-0.34,2.15c0,1.05,0.16,1.88,0.42,2.18
					c0.03,0.01,0.27,0.06,0.74,0.06c0.35,0,0.55-0.04,0.64-0.06c0.42-0.52,0.46-1.69,0.46-2.18c0-1.05-0.16-1.89-0.43-2.18
					C1408.21,1679.56,1408,1679.51,1407.58,1679.51z"/>
				<path class="st3" d="M1437.76,1703.74l-3.7-4.45c0.67-1.04,1.29-2.13,1.85-3.26c2.13-4.35,3.21-9.15,3.21-14.27
					c0-5.88-1.41-11.3-4.2-16.11c-2.81-4.85-6.71-8.68-11.58-11.4c-4.79-2.67-10.09-4.03-15.76-4.03s-10.97,1.35-15.76,4.03
					c-4.85,2.71-8.75,6.51-11.6,11.32c-2.86,4.83-4.3,10.28-4.3,16.19c0,0.17,0.01,0.34,0.02,0.52c-0.13,0-0.26-0.02-0.4-0.02
					c-2.09,0-4.07,0.35-5.9,1.02l-9.36-25.87c-1.43-3.96-5.19-6.6-9.4-6.6H1339c-4.21,0-7.97,2.64-9.4,6.6l-9.36,25.86
					c-1.81-0.67-3.77-1.02-5.84-1.02c-1.58,0-3.09,0.2-4.52,0.59v-4.93c0-0.21-0.01-0.43-0.02-0.64c2.62-1.8,4.34-4.82,4.34-8.25
					v-8.22c0-5.52-4.48-10-10-10h-27.42c-5.52,0-10,4.48-10,10v42.12c0,5.52,4.48,10,10,10h10.26c5.52,0,10-4.48,10-10v-7.04h1.38
					c-0.08,0.66-0.14,1.32-0.14,2c0,4.32,1.74,8.32,4.9,11.25c3,2.79,6.88,4.27,11.22,4.27c2.13,0,4.15-0.36,6.01-1.07
					c1.06,0.38,2.19,0.59,3.35,0.59h10.74c4.29,0,8.1-2.73,9.47-6.79l0.22-0.65h1.38l0.22,0.65c1.38,4.06,5.19,6.79,9.47,6.79h10.86
					c1.16,0,2.29-0.21,3.36-0.59c1.87,0.71,3.91,1.07,6.06,1.07c4.3,0,8.16-1.48,11.16-4.26c0.66-0.61,1.24-1.28,1.78-1.98
					c1.06,0.78,2.17,1.51,3.35,2.16c4.79,2.67,10.09,4.03,15.76,4.03c0,0,0.01,0,0.01,0l2.04,2.75c1.89,2.54,4.86,4.03,8.02,4.03
					h12.42c3.88,0,7.41-2.24,9.05-5.76S1440.24,1706.72,1437.76,1703.74z M1408.22,1683.94c-0.09,0.02-0.29,0.06-0.64,0.06
					c-0.47,0-0.7-0.06-0.74-0.06c-0.26-0.29-0.42-1.13-0.42-2.18c0-1.38,0.26-2.03,0.34-2.15c0,0,0.23-0.09,0.82-0.09
					c0.42,0,0.64,0.05,0.67,0.06c0.26,0.29,0.43,1.13,0.43,2.18C1408.68,1682.25,1408.63,1683.42,1408.22,1683.94z"/>
			</g>
			<path class="st3" d="M1417.66,1710.13l-5.4-7.26c-1.6,0.32-3.16,0.48-4.68,0.48c-3.96,0-7.59-0.92-10.89-2.76
				s-5.92-4.41-7.86-7.71c-1.94-3.3-2.91-7.01-2.91-11.13s0.97-7.82,2.91-11.1c1.94-3.28,4.56-5.84,7.86-7.68s6.93-2.76,10.89-2.76
				s7.59,0.92,10.89,2.76c3.3,1.84,5.9,4.4,7.8,7.68c1.9,3.28,2.85,6.98,2.85,11.1c0,3.6-0.73,6.89-2.19,9.87
				c-1.46,2.98-3.49,5.45-6.09,7.41l9.24,11.1H1417.66z M1399.45,1690.67c2.02,2.22,4.73,3.33,8.13,3.33c3.36,0,6.05-1.12,8.07-3.36
				c2.02-2.24,3.03-5.2,3.03-8.88c0-3.72-1.01-6.69-3.03-8.91c-2.02-2.22-4.71-3.33-8.07-3.33c-3.4,0-6.11,1.1-8.13,3.3
				c-2.02,2.2-3.03,5.18-3.03,8.94C1396.42,1685.47,1397.43,1688.44,1399.45,1690.67z"/>
		</g>
	</g>
	<g>
		<text transform="matrix(1 0 0 1 1273.0574 1702.9348)" class="st2 st6 st7">F.A.Q</text>
	</g>
</g>
</svg>
