<?xml version="1.0" encoding="UTF-8"?>
<svg xmlns="http://www.w3.org/2000/svg" xmlns:xlink="http://www.w3.org/1999/xlink" width="1440pt" height="809.999993pt" viewBox="0 0 1440 809.999993" version="1.2">
<defs>
<clipPath id="clip1">
  <path d="M 322.585938 200.703125 L 498.835938 200.703125 L 498.835938 322.203125 L 322.585938 322.203125 Z M 322.585938 200.703125 "/>
</clipPath>
<clipPath id="clip2">
  <path d="M 639 0 L 803 0 L 803 5 L 639 5 Z M 639 0 "/>
</clipPath>
<clipPath id="clip3">
  <path d="M 638.113281 -115.507812 L 800.035156 -120.5 L 803.777344 0.945312 L 641.855469 5.933594 Z M 638.113281 -115.507812 "/>
</clipPath>
<clipPath id="clip4">
  <path d="M 638.113281 -115.507812 L 800.035156 -120.5 L 803.777344 0.945312 L 641.855469 5.933594 Z M 638.113281 -115.507812 "/>
</clipPath>
</defs>
<g id="surface1">
<rect x="0" y="0" width="1440" height="809.999993" style="fill:rgb(100%,100%,100%);fill-opacity:1;stroke:none;"/>
<rect x="0" y="0" width="1440" height="809.999993" style="fill:rgb(100%,100%,100%);fill-opacity:1;stroke:none;"/>
<rect x="0" y="0" width="1440" height="809.999993" style="fill:rgb(65.489197%,87.449646%,100%);fill-opacity:1;stroke:none;"/>
<path id="dinogotchi__inside__cloud_one" style=" stroke:none;fill-rule:nonzero;fill:rgb(100%,100%,100%);fill-opacity:1;" d="M 461.03125 230.132812 C 458.292969 230.132812 455.640625 230.457031 453.074219 231.027344 C 449.738281 214.417969 435.0625 201.90625 417.453125 201.90625 C 399.628906 201.90625 384.828125 214.742188 381.738281 231.660156 C 381.53125 231.65625 381.324219 231.628906 381.113281 231.628906 C 366.8125 231.628906 354.855469 241.535156 351.65625 254.84375 C 350.867188 254.769531 350.074219 254.722656 349.265625 254.722656 C 335.339844 254.722656 324.050781 266.003906 324.050781 279.917969 C 324.050781 293.828125 335.339844 305.109375 349.265625 305.109375 C 354.835938 305.109375 359.964844 303.28125 364.136719 300.226562 C 367.484375 310.214844 376.910156 317.421875 388.03125 317.421875 C 396.707031 317.421875 404.355469 313.046875 408.894531 306.378906 C 413.230469 315.039062 422.164062 320.996094 432.511719 320.996094 C 444.320312 320.996094 454.3125 313.253906 457.695312 302.574219 C 458.796875 302.675781 459.90625 302.742188 461.03125 302.742188 C 481.101562 302.742188 497.371094 286.488281 497.371094 266.433594 C 497.371094 246.382812 481.101562 230.132812 461.03125 230.132812 "/>
<path style=" stroke:none;fill-rule:nonzero;fill:rgb(78.039551%,100%,91.758728%);fill-opacity:1;" d="M 0.0273438 0 L 658.21875 0 L 658.21875 209.695312 L 0.0273438 209.695312 Z M 0.0273438 0 "/>
<path id="dinogotchi__inside__cloud_two" style=" stroke:none;fill-rule:nonzero;fill:rgb(100%,100%,100%);fill-opacity:1;" d="M 588.917969 425.441406 C 588.917969 425.441406 592.945312 409.917969 614.351562 406.265625 C 635.761719 402.613281 650.03125 418.136719 650.03125 418.136719 C 650.03125 418.136719 655.886719 405.535156 676.195312 413.9375 C 696.507812 422.335938 693.761719 440.050781 693.761719 440.050781 C 693.761719 440.050781 705.289062 438.40625 708.582031 450.460938 C 711.875 462.515625 704.921875 469.273438 699.800781 470.914062 C 699.800781 470.914062 692.664062 485.34375 672.71875 475.664062 C 672.71875 475.664062 672.535156 482.605469 661.925781 485.527344 C 651.3125 488.449219 644.542969 482.421875 644.542969 482.421875 C 644.542969 482.421875 637.953125 490.824219 628.441406 481.875 C 628.441406 481.875 625.332031 490.273438 611.058594 488.8125 C 596.785156 487.351562 595.140625 474.933594 595.140625 474.933594 C 595.140625 474.933594 583.246094 486.4375 563.304688 479.683594 C 543.359375 472.925781 546.46875 464.523438 546.46875 464.523438 C 546.46875 464.523438 529.636719 467.996094 525.609375 457.402344 C 521.585938 446.808594 541.53125 428.910156 554.335938 438.40625 C 554.335938 438.40625 556.167969 430.375 565.679688 423.980469 C 575.195312 417.589844 588.917969 425.441406 588.917969 425.441406 Z M 588.917969 425.441406 "/>
<path style=" stroke:none;fill-rule:nonzero;fill:rgb(78.039551%,100%,91.758728%);fill-opacity:1;" d="M 656.945312 0 L 1439.027344 0 L 1439.027344 686.621094 L 656.945312 686.621094 Z M 656.945312 0 "/>
<path style=" stroke:none;fill-rule:nonzero;fill:rgb(78.039551%,100%,91.758728%);fill-opacity:1;" d="M 0.0195312 491.246094 L 658.160156 491.246094 L 658.160156 688.046875 L 0.0195312 688.046875 Z M 0.0195312 491.246094 "/>
<path style=" stroke:none;fill-rule:nonzero;fill:rgb(70.588684%,55.288696%,43.139648%);fill-opacity:1;" d="M 0.0546875 685.257812 L 1439.910156 685.257812 L 1439.910156 813.992188 L 0.0546875 813.992188 Z M 0.0546875 685.257812 "/>
<path style="fill:none;stroke-width:1;stroke-linecap:butt;stroke-linejoin:miter;stroke:rgb(89.408875%,100%,96.078491%);stroke-opacity:1;stroke-miterlimit:4;" d="M 0.000209582 0.000235035 L 27.719482 0.000235035 " transform="matrix(0.000000000000000459,7.494926,-7.5,0.000000000000000459,585.595513,1.381242)"/>
<path style="fill:none;stroke-width:1;stroke-linecap:butt;stroke-linejoin:miter;stroke:rgb(89.408875%,100%,96.078491%);stroke-opacity:1;stroke-miterlimit:4;" d="M 0.000169918 -0.0000858636 L 28.025694 -0.0000858636 " transform="matrix(0.000000000000000459,7.493309,-7.5,0.000000000000000459,436.284512,1.381539)"/>
<path style="fill:none;stroke-width:1;stroke-linecap:round;stroke-linejoin:miter;stroke:rgb(65.098572%,49.01886%,36.079407%);stroke-opacity:1;stroke-miterlimit:4;" d="M 0.499996 -0.00083249 L 959.500044 -0.00083249 " transform="matrix(1.5,0,0,1.5,0.00000622222,730.790311)"/>
<path style="fill:none;stroke-width:1;stroke-linecap:round;stroke-linejoin:miter;stroke:rgb(65.098572%,49.01886%,36.079407%);stroke-opacity:1;stroke-miterlimit:4;" d="M 0.499996 -0.000282493 L 959.500044 -0.000282493 " transform="matrix(1.5,0,0,1.5,0.00000622222,775.426205)"/>
<path style="fill:none;stroke-width:1;stroke-linecap:round;stroke-linejoin:miter;stroke:rgb(65.098572%,49.01886%,36.079407%);stroke-opacity:1;stroke-miterlimit:4;" d="M 0.499909 -0.00082654 L 28.755802 -0.00082654 " transform="matrix(0.000000000000000093,1.512821,-1.5,0.000000000000000092,497.576885,686.149977)"/>
<path style="fill:none;stroke-width:1;stroke-linecap:round;stroke-linejoin:miter;stroke:rgb(65.098572%,49.01886%,36.079407%);stroke-opacity:1;stroke-miterlimit:4;" d="M 0.500929 0.00129677 L 28.756821 0.00129677 " transform="matrix(0.000000000000000093,1.512821,-1.5,0.000000000000000092,965.509758,687.660153)"/>
<path style="fill:none;stroke-width:1;stroke-linecap:round;stroke-linejoin:miter;stroke:rgb(65.098572%,49.01886%,36.079407%);stroke-opacity:1;stroke-miterlimit:4;" d="M 0.499304 -0.000901725 L 28.757779 -0.000901725 " transform="matrix(0.000000000000000093,1.512821,-1.5,0.000000000000000092,721.72521,731.545423)"/>
<path style="fill:none;stroke-width:1;stroke-linecap:round;stroke-linejoin:miter;stroke:rgb(65.098572%,49.01886%,36.079407%);stroke-opacity:1;stroke-miterlimit:4;" d="M 0.49985 -0.000442565 L 28.755742 -0.000442565 " transform="matrix(0.000000000000000093,1.512821,-1.5,0.000000000000000092,498.327461,776.181317)"/>
<path style="fill:none;stroke-width:1;stroke-linecap:round;stroke-linejoin:miter;stroke:rgb(65.098572%,49.01886%,36.079407%);stroke-opacity:1;stroke-miterlimit:4;" d="M 0.500884 -0.00125473 L 23.135903 -0.00125473 " transform="matrix(0.000000000000000091,1.49157,-1.5,0.000000000000000092,498.330149,776.178677)"/>
<path style="fill:none;stroke-width:1;stroke-linecap:round;stroke-linejoin:miter;stroke:rgb(65.098572%,49.01886%,36.079407%);stroke-opacity:1;stroke-miterlimit:4;" d="M 0.500884 -0.00125562 L 23.135903 -0.00125562 " transform="matrix(0.000000000000000091,1.49157,-1.5,0.000000000000000092,967.013742,776.178677)"/>
<path style="fill:none;stroke-width:1;stroke-linecap:round;stroke-linejoin:miter;stroke:rgb(81.959534%,74.508667%,68.629456%);stroke-opacity:1;stroke-miterlimit:4;" d="M 0.500093 0.000172424 L 23.133448 0.000172424 " transform="matrix(0.00000000000000069,11.265867,-11.249999,0.000000000000000689,515.947252,217.319145)"/>
<path style="fill:none;stroke-width:1;stroke-linecap:round;stroke-linejoin:miter;stroke:rgb(81.959534%,74.508667%,68.629456%);stroke-opacity:1;stroke-miterlimit:4;" d="M 0.50016 -0.000103086 L 23.133515 -0.000103086 " transform="matrix(-11.265867,-0.00000000000000138,0.000000000000001378,-11.249999,648.884734,350.256653)"/>
<path style="fill:none;stroke-width:1;stroke-linecap:butt;stroke-linejoin:miter;stroke:rgb(89.408875%,100%,96.078491%);stroke-opacity:1;stroke-miterlimit:4;" d="M -0.000120634 0.0000203303 L 91.183219 0.0000203303 " transform="matrix(0.000000000000000459,7.501413,-7.5,0.000000000000000459,1008.672027,1.379811)"/>
<path style="fill:none;stroke-width:1;stroke-linecap:butt;stroke-linejoin:miter;stroke:rgb(89.408875%,100%,96.078491%);stroke-opacity:1;stroke-miterlimit:4;" d="M -0.000120634 0.000126559 L 91.183219 0.000126559 " transform="matrix(0.000000000000000459,7.501413,-7.5,0.000000000000000459,865.274387,1.379811)"/>
<path style="fill:none;stroke-width:1;stroke-linecap:butt;stroke-linejoin:miter;stroke:rgb(89.408875%,100%,96.078491%);stroke-opacity:1;stroke-miterlimit:4;" d="M -0.000120634 -0.000187227 L 91.183219 -0.000187227 " transform="matrix(0.000000000000000459,7.501413,-7.5,0.000000000000000459,728.99469,1.379811)"/>

<path style=" stroke:none;fill-rule:nonzero;fill:rgb(81.959534%,74.508667%,68.629456%);fill-opacity:1;" d="M 375.78125 209.277344 L 375.78125 491.804688 L 658.308594 491.804688 L 658.308594 209.277344 Z M 644.078125 477.574219 L 389.714844 477.574219 L 389.714844 223.210938 L 644.078125 223.210938 Z M 644.078125 477.574219 "/>
<path style=" stroke:none;fill-rule:nonzero;fill:rgb(78.039551%,100%,91.758728%);fill-opacity:1;" d="M 0.0078125 209.277344 L 375.203125 209.277344 L 375.203125 492.5625 L 0.0078125 492.5625 Z M 0.0078125 209.277344 "/>
<path style="fill:none;stroke-width:1;stroke-linecap:butt;stroke-linejoin:miter;stroke:rgb(89.408875%,100%,96.078491%);stroke-opacity:1;stroke-miterlimit:4;" d="M -0.000199945 0.000237336 L 25.767512 0.000237336 " transform="matrix(0.00000000000000046,7.509549,-7.5,0.000000000000000459,436.286936,491.997595)"/>
<path style="fill:none;stroke-width:1;stroke-linecap:butt;stroke-linejoin:miter;stroke:rgb(89.408875%,100%,96.078491%);stroke-opacity:1;stroke-miterlimit:4;" d="M -0.000199945 -0.0000105985 L 25.767512 -0.0000105985 " transform="matrix(0.00000000000000046,7.509549,-7.5,0.000000000000000459,585.597577,491.997595)"/>
<path style="fill:none;stroke-width:1;stroke-linecap:butt;stroke-linejoin:miter;stroke:rgb(89.408875%,100%,96.078491%);stroke-opacity:1;stroke-miterlimit:4;" d="M 0.000183456 -0.00025896 L 91.183523 -0.00025896 " transform="matrix(0.000000000000000459,7.501413,-7.5,0.000000000000000459,287.634777,-0.00137618)"/>
<path style="fill:none;stroke-width:1;stroke-linecap:butt;stroke-linejoin:miter;stroke:rgb(89.408875%,100%,96.078491%);stroke-opacity:1;stroke-miterlimit:4;" d="M -0.000120634 -0.0000646434 L 91.183219 -0.0000646434 " transform="matrix(0.000000000000000459,7.501413,-7.5,0.000000000000000459,133.136234,1.379811)"/>
<path style="fill:none;stroke-width:1;stroke-linecap:butt;stroke-linejoin:miter;stroke:rgb(89.408875%,100%,96.078491%);stroke-opacity:1;stroke-miterlimit:4;" d="M 0.000183456 -0.0000538029 L 91.183523 -0.0000538029 " transform="matrix(0.000000000000000459,7.501413,-7.5,0.000000000000000459,1301.847253,-0.00137618)"/>
<path style="fill:none;stroke-width:1;stroke-linecap:butt;stroke-linejoin:miter;stroke:rgb(89.408875%,100%,96.078491%);stroke-opacity:1;stroke-miterlimit:4;" d="M 0.000183456 0.000153355 L 91.183523 0.000153355 " transform="matrix(0.000000000000000459,7.501413,-7.5,0.000000000000000459,1149.067556,-0.00137618)"/>
<path style="fill:none;stroke-width:1;stroke-linecap:round;stroke-linejoin:miter;stroke:rgb(65.098572%,49.01886%,36.079407%);stroke-opacity:1;stroke-miterlimit:4;" d="M 0.498775 -0.000460704 L 28.75725 -0.000460704 " transform="matrix(0.000000000000000093,1.512821,-1.5,0.000000000000000092,1377.061809,686.909505)"/>
<path style="fill:none;stroke-width:1;stroke-linecap:round;stroke-linejoin:miter;stroke:rgb(65.098572%,49.01886%,36.079407%);stroke-opacity:1;stroke-miterlimit:4;" d="M 0.498775 -0.000392827 L 28.75725 -0.000392827 " transform="matrix(0.000000000000000093,1.512821,-1.5,0.000000000000000092,81.745505,686.909505)"/>
<path style="fill:none;stroke-width:1;stroke-linecap:round;stroke-linejoin:miter;stroke:rgb(65.098572%,49.01886%,36.079407%);stroke-opacity:1;stroke-miterlimit:4;" d="M 0.499304 -0.000610606 L 28.757779 -0.000610606 " transform="matrix(0.000000000000000093,1.512821,-1.5,0.000000000000000092,269.963928,730.795423)"/>
<path style="fill:none;stroke-width:1;stroke-linecap:round;stroke-linejoin:miter;stroke:rgb(65.098572%,49.01886%,36.079407%);stroke-opacity:1;stroke-miterlimit:4;" d="M 0.498892 -0.000479133 L 28.757367 -0.000479133 " transform="matrix(0.000000000000000093,1.512821,-1.5,0.000000000000000092,1176.182875,732.296047)"/>
<path style="fill:none;stroke-width:1;stroke-linecap:round;stroke-linejoin:miter;stroke:rgb(65.098572%,49.01886%,36.079407%);stroke-opacity:1;stroke-miterlimit:4;" d="M 0.500278 0.000403246 L 28.756171 0.000403246 " transform="matrix(0.000000000000000093,1.512821,-1.5,0.000000000000000092,1378.563105,774.680669)"/>
<path style="fill:none;stroke-width:1;stroke-linecap:round;stroke-linejoin:miter;stroke:rgb(65.098572%,49.01886%,36.079407%);stroke-opacity:1;stroke-miterlimit:4;" d="M 0.500278 -0.000392827 L 28.756171 -0.000392827 " transform="matrix(0.000000000000000093,1.512821,-1.5,0.000000000000000092,81.745505,776.180669)"/>
</g>
</svg>
