<?xml version="1.0" encoding="utf-8"?>
<!-- Generator: Adobe Illustrator 24.0.2, SVG Export Plug-In . SVG Version: 6.00 Build 0)  -->
<svg version="1.1" id="Layer_1" xmlns="http://www.w3.org/2000/svg" xmlns:xlink="http://www.w3.org/1999/xlink" x="0px" y="0px"
	 viewBox="116 86 230 230" style="enable-background:new 0 0 462 379;" xml:space="preserve">
<style type="text/css">
	.st0{opacity:0.71;fill:#FFFFFF;}
	.st1{opacity:0.71;}
	.st2{fill:#FFFFFF;}
	.st3{fill:#0C1E59;}
	.st4{fill:#FFE578;}
	.st5{fill:#FFF8D9;}
	.st6{opacity:0.55;}
	.st7{fill:#BC9D1B;}
	.st8{fill:#C0C5FF;}
	.st9{clip-path:url(#SVGID_2_);fill:#EFE88F;}
	.st10{fill:#F8F9FF;}
	.st11{fill:#B71E16;}
	.st12{fill:#EAEADF;}
	.st13{fill:#343638;}
	.st14{fill:#F4D122;}
	.st15{fill:#6695F2;}
	.st16{fill:#E23D4A;}
	.st17{fill:#A8EF8E;}
	.st18{fill:#DDDDD4;}
</style>
<g>
	<polygon class="st0" points="227.5,134.4 273.08,134.4 232.93,183.24 279.6,183.24 199.29,280.91 223.16,210.37 177.58,209.29 	"/>
	<g class="st1">
		<path class="st2" d="M231.12,92.93c59.71,0,108.11,48.4,108.11,108.11s-48.4,108.11-108.11,108.11s-108.11-48.4-108.11-108.11
			S171.41,92.93,231.12,92.93 M231.12,86.93c-30.48,0-59.13,11.87-80.68,33.42s-33.42,50.21-33.42,80.68s11.87,59.13,33.42,80.68
			s50.21,33.42,80.68,33.42s59.13-11.87,80.68-33.42s33.42-50.21,33.42-80.68s-11.87-59.13-33.42-80.68S261.59,86.93,231.12,86.93
			L231.12,86.93z"/>
	</g>
</g>
</svg>
