<?xml version="1.0" encoding="utf-8"?>
<!-- Generator: Adobe Illustrator 24.0.2, SVG Export Plug-In . SVG Version: 6.00 Build 0)  -->
<svg version="1.1" id="Layer_1" xmlns="http://www.w3.org/2000/svg" xmlns:xlink="http://www.w3.org/1999/xlink" x="0px" y="0px"
	 viewBox="116 74 230 230" style="enable-background:new 0 0 462 379;" xml:space="preserve">
<style type="text/css">
	.st0{opacity:0.71;fill:#FFFFFF;}
	.st1{opacity:0.71;}
	.st2{fill:#FFFFFF;}
	.st3{fill:#0C1E59;}
	.st4{fill:#FFE578;}
	.st5{fill:#FFF8D9;}
	.st6{opacity:0.55;}
	.st7{fill:#BC9D1B;}
	.st8{fill:#C0C5FF;}
	.st9{clip-path:url(#SVGID_2_);fill:#EFE88F;}
	.st10{fill:#F8F9FF;}
	.st11{fill:#B71E16;}
	.st12{fill:#EAEADF;}
	.st13{fill:#343638;}
	.st14{fill:#F4D122;}
	.st15{fill:#6695F2;}
	.st16{fill:#E23D4A;}
	.st17{fill:#A8EF8E;}
	.st18{fill:#DDDDD4;}
</style>
<g>
	<circle class="st0" cx="171.92" cy="175.04" r="15.93"/>
	<circle class="st0" cx="290.84" cy="175.04" r="15.93"/>
	<path class="st0" d="M195.54,204.91h71.69c1.9,21.4-15.22,39.83-35.85,39.83S193.64,226.32,195.54,204.91z"/>
	<g class="st1">
		<path class="st2" d="M231.17,81.04c59.71,0,108.11,48.4,108.11,108.11s-48.4,108.11-108.11,108.11s-108.11-48.4-108.11-108.11
			S171.46,81.04,231.17,81.04 M231.17,75.04c-30.48,0-59.13,11.87-80.68,33.42c-21.55,21.55-33.42,50.21-33.42,80.68
			s11.87,59.13,33.42,80.68s50.21,33.42,80.68,33.42s59.13-11.87,80.68-33.42c21.55-21.55,33.42-50.21,33.42-80.68
			s-11.87-59.13-33.42-80.68C290.3,86.91,261.65,75.04,231.17,75.04L231.17,75.04z"/>
	</g>
</g>
</svg>
