<?xml version="1.0" encoding="utf-8"?>
<!-- Generator: Adobe Illustrator 24.0.2, SVG Export Plug-In . SVG Version: 6.00 Build 0)  -->
<svg version="1.1" id="Layer_1" xmlns="http://www.w3.org/2000/svg" xmlns:xlink="http://www.w3.org/1999/xlink" x="0px" y="0px"
	 viewBox="115 88 231 230" style="enable-background:new 0 0 462 379;" xml:space="preserve">
<style type="text/css">
	.st0{opacity:0.71;fill:#FFFFFF;}
	.st1{opacity:0.71;}
	.st2{fill:#FFFFFF;}
	.st3{fill:#0C1E59;}
	.st4{fill:#FFE578;}
	.st5{fill:#FFF8D9;}
	.st6{opacity:0.55;}
	.st7{fill:#BC9D1B;}
	.st8{fill:#C0C5FF;}
	.st9{clip-path:url(#SVGID_2_);fill:#EFE88F;}
	.st10{fill:#F8F9FF;}
	.st11{fill:#B71E16;}
	.st12{fill:#EAEADF;}
	.st13{fill:#343638;}
	.st14{fill:#F4D122;}
	.st15{fill:#6695F2;}
	.st16{fill:#E23D4A;}
	.st17{fill:#A8EF8E;}
	.st18{fill:#DDDDD4;}
</style>
<g>
	<path class="st0" d="M289.33,182.35c-2.93-9.51-13.02-24.08-28.62-25.37c-17.59-1.45-29.67,15-30.57,16.26
		c-0.89-1.26-12.98-17.71-30.57-16.26c-15.64,1.29-25.67,15.93-28.62,25.37c-7.29,23.33,15.6,56.87,58.54,81.62
		C273.1,239.21,296.5,205.68,289.33,182.35z"/>
	<g class="st1">
		<path class="st2" d="M230.44,95.15c59.71,0,108.11,48.4,108.11,108.11s-48.4,108.11-108.11,108.11s-108.11-48.4-108.11-108.11
			S170.74,95.15,230.44,95.15 M230.44,89.15c-30.48,0-59.13,11.87-80.68,33.42c-21.55,21.55-33.42,50.21-33.42,80.68
			s11.87,59.13,33.42,80.68c21.55,21.55,50.21,33.42,80.68,33.42c30.48,0,59.13-11.87,80.68-33.42s33.42-50.21,33.42-80.68
			s-11.87-59.13-33.42-80.68C289.57,101.02,260.92,89.15,230.44,89.15L230.44,89.15z"/>
	</g>
</g>
</svg>
