<?xml version="1.0" encoding="utf-8"?>
<!-- Generator: Adobe Illustrator 24.0.2, SVG Export Plug-In . SVG Version: 6.00 Build 0)  -->
<svg version="1.1" id="Layer_1" xmlns="http://www.w3.org/2000/svg" xmlns:xlink="http://www.w3.org/1999/xlink" x="0px" y="0px"
	 viewBox="95 35 310 310" style="enable-background:new 0 0 462 379;" xml:space="preserve">
<style type="text/css">
	.st0{opacity:0.71;fill:#FFFFFF;}
	.st1{opacity:0.71;}
	.st2{fill:#FFFFFF;}
	.st3{fill:#0C1E59;}
	.st4{fill:#FFE578;}
	.st5{fill:#FFF8D9;}
	.st6{opacity:0.55;}
	.st7{fill:#BC9D1B;}
	.st8{fill:#C0C5FF;}
	.st9{clip-path:url(#SVGID_2_);fill:#EFE88F;}
	.st10{fill:#F8F9FF;}
	.st11{fill:#B71E16;}
	.st12{fill:#EAEADF;}
	.st13{fill:#343638;}
	.st14{fill:#F4D122;}
	.st15{fill:#6695F2;}
	.st16{fill:#E23D4A;}
	.st17{fill:#A8EF8E;}
	.st18{fill:#DDDDD4;}
</style>
<g>
	<circle class="st3" cx="249.09" cy="189.11" r="152.97"/>
	<g>
		<g>
			<path class="st4" d="M235.3,199.25c-20.91-52.28,5.7-98.18,45.01-124.28c-15.55-0.77-40.14-0.44-55.81,5.19
				c-61.74,22.15-94.43,88.5-73.01,148.18s88.83,90.1,150.57,67.95c15.67-5.62,32.95-24.23,44.47-34.71
				C299.91,267.02,253.67,245.17,235.3,199.25z M171.16,173.91c-4.64,0-8.39-7.73-8.39-17.26c0-9.53,3.76-17.26,8.39-17.26
				s8.39,7.73,8.39,17.26C179.56,166.18,175.8,173.91,171.16,173.91z M194.3,131.29c-1.52,4.93-4.1,8.51-5.77,8
				c-1.67-0.51-1.8-4.93-0.28-9.86c1.52-4.93,4.1-8.51,5.77-8S195.82,126.36,194.3,131.29z M277.77,273.49
				c-3.65,2.86-11.37-0.91-17.25-8.42c-5.88-7.51-7.68-15.91-4.03-18.77c3.65-2.86,11.37,0.91,17.25,8.42
				C279.61,262.23,281.42,270.63,277.77,273.49z"/>
		</g>
		<g>
			<ellipse class="st5" cx="171.16" cy="156.65" rx="8.39" ry="17.26"/>
		</g>
		<g class="st6">
			<ellipse class="st7" cx="171.16" cy="156.65" rx="8.39" ry="17.26"/>
		</g>
		<g>
			
				<ellipse transform="matrix(0.7875 -0.6164 0.6164 0.7875 -103.4164 219.8818)" class="st5" cx="267.13" cy="259.9" rx="8.39" ry="17.26"/>
		</g>
		<g class="st6">
			
				<ellipse transform="matrix(0.7875 -0.6164 0.6164 0.7875 -103.4164 219.8818)" class="st7" cx="267.13" cy="259.9" rx="8.39" ry="17.26"/>
		</g>
		<g>
			
				<ellipse transform="matrix(0.2941 -0.9558 0.9558 0.2941 10.4267 274.8398)" class="st5" cx="191.27" cy="130.36" rx="9.34" ry="3.17"/>
		</g>
		<g class="st6">
			
				<ellipse transform="matrix(0.2941 -0.9558 0.9558 0.2941 10.4267 274.8398)" class="st7" cx="191.27" cy="130.36" rx="9.34" ry="3.17"/>
		</g>
	</g>
	<path class="st8" d="M175.76,107.4c3.96-6.03,11.5-15.8,24.07-23.75c12.29-7.77,23.3-9.96,32.62-11.72
		c13.69-2.58,31.16-5.87,47.82,3.17c5.61,3.04,9.58,6.65,12.04,9.18c-5.33,0.06-18.43,0.94-31.35,9.82
		c-17.52,12.04-22.13,30.13-23.12,34.53L175.76,107.4z"/>
	<g>
		<defs>
			<path id="SVGID_1_" d="M175.56,107.24c3.96-6.03,11.5-15.8,24.07-23.75c12.29-7.77,23.3-9.96,32.62-11.72
				c13.69-2.58,31.16-5.87,47.82,3.17c5.61,3.04,9.58,6.65,12.04,9.18c-5.33,0.06-18.43,0.94-31.35,9.82
				c-17.52,12.04-22.13,30.13-23.12,34.53L175.56,107.24z"/>
		</defs>
		<clipPath id="SVGID_2_">
			<use xlink:href="#SVGID_1_"  style="overflow:visible;"/>
		</clipPath>
		<polygon class="st9" points="204.58,70.66 214.75,86.54 229.35,88.66 218.78,98.95 221.28,113.49 208.38,102.02 195.16,113.49 
			200.78,96 187.09,88.66 201.69,86.54 		"/>
		<polygon class="st9" points="249.98,88.95 245.15,80.8 236.04,86.77 239.13,77.63 233.8,72.83 243.25,74.14 245.78,64.33 
			248.75,74.01 256.52,73.83 249.87,80.98 		"/>
		<polygon class="st9" points="245.75,121.07 244.8,110.25 233.89,113.84 241.63,108.03 237.11,100.33 245.12,106.13 250.95,99.22 
			250.25,107.03 256.29,112.04 247.33,110.25 		"/>
		<polygon class="st9" points="289.72,80.94 280.69,82.56 280.48,91.74 275.65,83.79 267.36,86.29 272.8,79.21 268.49,72.12 
			276.26,74.1 282.3,68.82 282.82,76.83 		"/>
	</g>
	<circle class="st2" cx="292.46" cy="84.12" r="7.13"/>
	<path class="st2" d="M159.15,123.46l77.56,23.24c2.59,0.78,5.39-0.22,6.9-2.46l2.97-4.4c2.04-3.02,1.05-7.13-2.14-8.88
		c-10.62-5.85-23.51-11.9-38.56-17.02c-13.71-4.67-26.39-7.6-37.42-9.46c-2.05-0.35-4.14,0.36-5.56,1.88l-6.5,6.96
		C153.27,116.67,154.75,122.14,159.15,123.46z"/>
	<g>
		<path class="st10" d="M286.62,163.55c5.36,1.5,11.03,2.25,16.39,3.64c2.68,0.64,6.32,2.57,6.32,5.78c0,4.28-5.14,6-8.68,6
			c-8.57,0-19.28-3.75-27.42-6.21c-4.18-1.18-6.96-3.43-6.21-8.14c0.75-4.5,1.93-9,3.32-13.39c2.68-8.68,5.78-15.32,10.5-23.03
			c0.21-0.32,0.32-0.64,0.32-1.07c0-0.86-0.75-1.07-1.39-1.18c-4.61-0.75-12.75,0.11-16.28-3.32c-0.96-0.96-1.71-2.03-1.71-3.53
			c0-3,3.11-5.14,5.78-5.68c1.29-0.21,2.68-0.32,3.96-0.32c-0.96,0,23.89-0.43,30.1,4.18c1.29,0.96,2.57,2.25,2.57,3.96
			c0,2.89-3.75,6.21-5.46,8.36c-6.21,8.14-11.46,21.1-13.92,31.06C284.8,162.05,285.01,163.02,286.62,163.55z"/>
	</g>
	<g>
		<path class="st10" d="M347.27,172.72c3.77-0.06,7.6-0.67,11.35-0.81c1.86-0.1,4.6,0.45,5.22,2.53c0.83,2.78-2.18,4.89-4.47,5.57
			c-5.56,1.66-13.24,1.3-19.01,1.27c-2.94,0.04-5.18-0.88-5.61-4.08c-0.38-3.07-0.49-6.22-0.43-9.34
			c0.06-6.15,0.79-11.06,2.36-16.98c0.08-0.25,0.08-0.48,0-0.76c-0.17-0.56-0.69-0.55-1.13-0.5c-3.14,0.4-8.26,2.54-11.21,0.99
			c-0.81-0.44-1.51-0.99-1.8-1.96c-0.58-1.95,1.02-3.94,2.66-4.81c0.79-0.39,1.68-0.73,2.51-0.98c-0.63,0.19,15.43-4.9,20.35-3.11
			c1.02,0.38,2.1,0.96,2.44,2.08c0.56,1.88-1.23,4.76-1.93,6.48c-2.46,6.49-3.36,15.92-3.03,22.86
			C345.8,172.1,346.13,172.69,347.27,172.72z"/>
	</g>
	<g>
		<path class="st10" d="M320.24,230.41c2.7,1.52,5.68,2.67,8.4,4.13c1.37,0.7,3.08,2.22,2.66,3.96c-0.56,2.32-3.57,2.57-5.49,2.11
			c-4.64-1.13-9.95-4.57-14.03-6.97c-2.11-1.19-3.32-2.77-2.29-5.23c1-2.34,2.23-4.62,3.56-6.81c2.59-4.35,5.15-7.53,8.71-11.09
			c0.16-0.15,0.26-0.31,0.32-0.54c0.11-0.46-0.27-0.68-0.6-0.82c-2.4-1.01-6.92-1.62-8.38-3.94c-0.4-0.65-0.66-1.33-0.46-2.14
			c0.39-1.62,2.36-2.38,3.88-2.31c0.72,0.05,1.49,0.18,2.19,0.35c-0.52-0.13,12.99,2.91,15.75,6.22c0.57,0.69,1.1,1.56,0.87,2.48
			c-0.38,1.57-2.85,2.87-4.06,3.81c-4.44,3.59-8.98,9.92-11.63,14.99C319.45,229.36,319.44,229.91,320.24,230.41z"/>
	</g>
</g>
</svg>
