<?xml version="1.0" encoding="utf-8"?>
<!-- Generator: Adobe Illustrator 24.0.2, SVG Export Plug-In . SVG Version: 6.00 Build 0)  -->
<svg version="1.1" id="Layer_1" xmlns="http://www.w3.org/2000/svg" xmlns:xlink="http://www.w3.org/1999/xlink" x="0px" y="0px"
	 viewBox="75 30 310 315" style="enable-background:new 0 0 462 379;" xml:space="preserve">
<style type="text/css">
	.st0{opacity:0.71;fill:#FFFFFF;}
	.st1{opacity:0.71;}
	.st2{fill:#FFFFFF;}
	.st3{fill:#0C1E59;}
	.st4{fill:#FFE578;}
	.st5{fill:#FFF8D9;}
	.st6{opacity:0.55;}
	.st7{fill:#BC9D1B;}
	.st8{fill:#C0C5FF;}
	.st9{clip-path:url(#SVGID_2_);fill:#EFE88F;}
	.st10{fill:#F8F9FF;}
	.st11{fill:#B71E16;}
	.st12{fill:#EAEADF;}
	.st13{fill:#343638;}
	.st14{fill:#F4D122;}
	.st15{fill:#6695F2;}
	.st16{fill:#E23D4A;}
	.st17{fill:#A8EF8E;}
	.st18{fill:#DDDDD4;}
</style>
<g>
	<circle class="st3" cx="231.11" cy="189.11" r="152.97"/>
	<g>
		<g>
			<path class="st12" d="M332.47,127.8c-17.56-12.77-44.96-10.85-66.94,5.74h-22.95h-22.95h-22.95
				c-21.98-16.59-49.37-18.51-66.94-5.74c-17.82,12.95-18.86,36.19-19.13,42.08c-1.42,31.53,21.3,52.31,24.86,55.46
				c2.05,5.68,5.55,13.94,11.48,22.95c7.49,11.39,13.35,20.29,21.04,21.04c10.14,0.98,22.08-12.39,28.69-32.51h22.95h22.95h22.95
				c6.61,20.13,18.55,33.5,28.69,32.51c7.69-0.74,13.54-9.65,21.04-21.04c5.93-9.01,9.43-17.27,11.48-22.95
				c3.56-3.15,26.28-23.93,24.86-55.46C351.33,163.99,350.29,140.76,332.47,127.8z"/>
		</g>
		<circle class="st13" cx="174.25" cy="208.15" r="20.95"/>
		<circle class="st13" cx="284.55" cy="210.28" r="20.95"/>
		<path class="st13" d="M179.96,154.97h-4.84c-2.51,0-4.55-2.04-4.55-4.55v-4.84c0-2.51-2.04-4.55-4.55-4.55h-1.35
			c-2.51,0-4.55,2.04-4.55,4.55v4.84c0,2.51-2.04,4.55-4.55,4.55h-4.55c-2.51,0-4.55,2.04-4.55,4.55v1.35
			c0,2.51,2.04,4.55,4.55,4.55h4.55c2.51,0,4.55,2.04,4.55,4.55v4.55c0,2.51,2.04,4.55,4.55,4.55h1.35c2.51,0,4.55-2.04,4.55-4.55
			v-4.55c0-2.51,2.04-4.55,4.55-4.55h4.84c2.51,0,4.55-2.04,4.55-4.55v-1.35C184.51,157.01,182.47,154.97,179.96,154.97z"/>
		<circle class="st14" cx="307.42" cy="150.22" r="6.63"/>
		<circle class="st15" cx="292.88" cy="163.47" r="6.63"/>
		<circle class="st16" cx="321.52" cy="163.47" r="6.63"/>
		<circle class="st17" cx="307.42" cy="178.86" r="6.63"/>
		<g>
			<path class="st18" d="M199.03,149.79h65.14c-0.95,3.48-1.85,8.11-1.94,13.61c-0.11,6.41,0.91,11.75,1.94,15.56
				c-21.71,0-43.43,0-65.14,0c1.28-3.07,3.1-8.55,2.92-15.56C201.79,157.41,200.24,152.69,199.03,149.79z"/>
		</g>
	</g>
</g>
</svg>
