<?xml version="1.0" encoding="utf-8"?>
<!-- Generator: Adobe Illustrator 24.0.2, SVG Export Plug-In . SVG Version: 6.00 Build 0)  -->
<svg version="1.1" id="Layer_1" xmlns="http://www.w3.org/2000/svg" xmlns:xlink="http://www.w3.org/1999/xlink" x="0px" y="0px"
	 viewBox="0 0 462 379" style="enable-background:new 0 0 462 379;" xml:space="preserve">
<style type="text/css">
	.st0{opacity:0.71;fill:#FFFFFF;}
	.st1{opacity:0.71;}
	.st2{fill:#FFFFFF;}
	.st3{fill:#0C1E59;}
	.st4{fill:#FFE578;}
	.st5{fill:#FFF8D9;}
	.st6{opacity:0.55;}
	.st7{fill:#BC9D1B;}
	.st8{fill:#C0C5FF;}
	.st9{clip-path:url(#SVGID_2_);fill:#EFE88F;}
	.st10{fill:#F8F9FF;}
	.st11{fill:#B71E16;}
	.st12{fill:#EAEADF;}
	.st13{fill:#343638;}
	.st14{fill:#F4D122;}
	.st15{fill:#6695F2;}
	.st16{fill:#E23D4A;}
	.st17{fill:#A8EF8E;}
	.st18{fill:#DDDDD4;}
</style>
<path class="st0" d="M-352.69,1188.69c-2.93-9.51-13.02-24.08-28.62-25.37c-17.59-1.45-29.67,15-30.57,16.26
	c-0.89-1.26-12.98-17.71-30.57-16.26c-15.64,1.29-25.67,15.93-28.62,25.37c-7.29,23.33,15.6,56.87,58.54,81.62
	C-368.92,1245.55-345.51,1212.01-352.69,1188.69z"/>
<circle class="st0" cx="-144.08" cy="1200.04" r="15.93"/>
<circle class="st0" cx="-25.16" cy="1200.04" r="15.93"/>
<path class="st0" d="M-120.46,1229.91h71.69c1.9,21.4-15.22,39.83-35.85,39.83S-122.36,1251.32-120.46,1229.91z"/>
<polygon class="st0" points="248.5,1142.4 294.08,1142.4 253.93,1191.24 300.6,1191.24 220.29,1288.91 244.16,1218.37 
	198.58,1217.29 "/>
<g class="st1">
	<path class="st2" d="M252.12,1100.93c59.71,0,108.11,48.4,108.11,108.11c0,59.71-48.4,108.11-108.11,108.11
		s-108.11-48.4-108.11-108.11C144.01,1149.34,192.41,1100.93,252.12,1100.93 M252.12,1094.93c-30.48,0-59.13,11.87-80.68,33.42
		s-33.42,50.21-33.42,80.68c0,30.48,11.87,59.13,33.42,80.68c21.55,21.55,50.21,33.42,80.68,33.42s59.13-11.87,80.68-33.42
		c21.55-21.55,33.42-50.21,33.42-80.68c0-30.48-11.87-59.13-33.42-80.68S282.59,1094.93,252.12,1094.93L252.12,1094.93z"/>
</g>
<g class="st1">
	<path class="st2" d="M-84.83,1106.04c59.71,0,108.11,48.4,108.11,108.11s-48.4,108.11-108.11,108.11s-108.11-48.4-108.11-108.11
		S-144.54,1106.04-84.83,1106.04 M-84.83,1100.04c-30.48,0-59.13,11.87-80.68,33.42c-21.55,21.55-33.42,50.21-33.42,80.68
		s11.87,59.13,33.42,80.68s50.21,33.42,80.68,33.42s59.13-11.87,80.68-33.42s33.42-50.21,33.42-80.68s-11.87-59.13-33.42-80.68
		C-25.7,1111.91-54.35,1100.04-84.83,1100.04L-84.83,1100.04z"/>
</g>
<g class="st1">
	<path class="st2" d="M-411.58,1101.49c59.71,0,108.11,48.4,108.11,108.11s-48.4,108.11-108.11,108.11
		c-59.71,0-108.11-48.4-108.11-108.11S-471.28,1101.49-411.58,1101.49 M-411.58,1095.49c-30.48,0-59.13,11.87-80.68,33.42
		c-21.55,21.55-33.42,50.21-33.42,80.68s11.87,59.13,33.42,80.68s50.21,33.42,80.68,33.42c30.48,0,59.13-11.87,80.68-33.42
		s33.42-50.21,33.42-80.68s-11.87-59.13-33.42-80.68C-352.44,1107.35-381.1,1095.49-411.58,1095.49L-411.58,1095.49z"/>
</g>
<g>
	<circle class="st3" cx="-350.91" cy="354.11" r="152.97"/>
	<g>
		<g>
			<path class="st4" d="M-364.7,364.25c-20.91-52.28,5.7-98.18,45.01-124.28c-15.55-0.77-40.14-0.44-55.81,5.19
				c-61.74,22.15-94.43,88.5-73.01,148.18c21.42,59.68,88.83,90.1,150.57,67.95c15.67-5.62,32.95-24.23,44.47-34.71
				C-300.09,432.02-346.33,410.17-364.7,364.25z M-428.84,338.91c-4.64,0-8.39-7.73-8.39-17.26c0-9.53,3.76-17.26,8.39-17.26
				s8.39,7.73,8.39,17.26C-420.44,331.18-424.2,338.91-428.84,338.91z M-405.7,296.29c-1.52,4.93-4.1,8.51-5.77,8
				s-1.8-4.93-0.28-9.86c1.52-4.93,4.1-8.51,5.77-8S-404.18,291.36-405.7,296.29z M-322.23,438.49c-3.65,2.86-11.37-0.91-17.25-8.42
				c-5.88-7.51-7.68-15.91-4.03-18.77c3.65-2.86,11.37,0.91,17.25,8.42C-320.39,427.23-318.58,435.63-322.23,438.49z"/>
		</g>
		<g>
			<ellipse class="st5" cx="-428.84" cy="321.65" rx="8.39" ry="17.26"/>
		</g>
		<g class="st6">
			<ellipse class="st7" cx="-428.84" cy="321.65" rx="8.39" ry="17.26"/>
		</g>
		<g>
			
				<ellipse transform="matrix(0.7875 -0.6164 0.6164 0.7875 -332.6336 -114.8633)" class="st5" cx="-332.87" cy="424.9" rx="8.39" ry="17.26"/>
		</g>
		<g class="st6">
			
				<ellipse transform="matrix(0.7875 -0.6164 0.6164 0.7875 -332.6336 -114.8633)" class="st7" cx="-332.87" cy="424.9" rx="8.39" ry="17.26"/>
		</g>
		<g>
			
				<ellipse transform="matrix(0.2941 -0.9558 0.9558 0.2941 -570.8255 -182.1518)" class="st5" cx="-408.73" cy="295.36" rx="9.34" ry="3.17"/>
		</g>
		<g class="st6">
			
				<ellipse transform="matrix(0.2941 -0.9558 0.9558 0.2941 -570.8255 -182.1518)" class="st7" cx="-408.73" cy="295.36" rx="9.34" ry="3.17"/>
		</g>
	</g>
	<path class="st8" d="M-424.24,272.4c3.96-6.03,11.5-15.8,24.07-23.75c12.29-7.77,23.3-9.96,32.62-11.72
		c13.69-2.58,31.16-5.87,47.82,3.17c5.61,3.04,9.58,6.65,12.04,9.18c-5.33,0.06-18.43,0.94-31.35,9.82
		c-17.52,12.04-22.13,30.13-23.12,34.53L-424.24,272.4z"/>
	<g>
		<defs>
			<path id="SVGID_1_" d="M-424.44,272.24c3.96-6.03,11.5-15.8,24.07-23.75c12.29-7.77,23.3-9.96,32.62-11.72
				c13.69-2.58,31.16-5.87,47.82,3.17c5.61,3.04,9.58,6.65,12.04,9.18c-5.33,0.06-18.43,0.94-31.35,9.82
				c-17.52,12.04-22.13,30.13-23.12,34.53L-424.44,272.24z"/>
		</defs>
		<clipPath id="SVGID_2_">
			<use xlink:href="#SVGID_1_"  style="overflow:visible;"/>
		</clipPath>
		<polygon class="st9" points="-395.42,235.66 -385.25,251.54 -370.65,253.66 -381.22,263.95 -378.72,278.49 -391.62,267.02 
			-404.84,278.49 -399.22,261 -412.91,253.66 -398.31,251.54 		"/>
		<polygon class="st9" points="-350.02,253.95 -354.85,245.8 -363.96,251.77 -360.87,242.63 -366.2,237.83 -356.75,239.14 
			-354.22,229.33 -351.25,239.01 -343.48,238.83 -350.13,245.98 		"/>
		<polygon class="st9" points="-354.25,286.07 -355.2,275.25 -366.11,278.84 -358.37,273.03 -362.89,265.33 -354.88,271.13 
			-349.05,264.22 -349.75,272.03 -343.71,277.04 -352.67,275.25 		"/>
		<polygon class="st9" points="-310.28,245.94 -319.31,247.56 -319.52,256.74 -324.35,248.79 -332.64,251.29 -327.2,244.21 
			-331.51,237.12 -323.74,239.1 -317.7,233.82 -317.18,241.83 		"/>
	</g>
	<circle class="st2" cx="-307.54" cy="249.12" r="7.13"/>
	<path class="st2" d="M-440.85,288.46l77.56,23.24c2.59,0.78,5.39-0.22,6.9-2.46l2.97-4.4c2.04-3.02,1.05-7.13-2.14-8.88
		c-10.62-5.85-23.51-11.9-38.56-17.02c-13.71-4.67-26.39-7.6-37.42-9.46c-2.05-0.35-4.14,0.36-5.56,1.88l-6.5,6.96
		C-446.73,281.67-445.25,287.14-440.85,288.46z"/>
	<g>
		<path class="st10" d="M-313.38,328.55c5.36,1.5,11.03,2.25,16.39,3.64c2.68,0.64,6.32,2.57,6.32,5.78c0,4.28-5.14,6-8.68,6
			c-8.57,0-19.28-3.75-27.42-6.21c-4.18-1.18-6.96-3.43-6.21-8.14c0.75-4.5,1.93-9,3.32-13.39c2.68-8.68,5.78-15.32,10.5-23.03
			c0.21-0.32,0.32-0.64,0.32-1.07c0-0.86-0.75-1.07-1.39-1.18c-4.61-0.75-12.75,0.11-16.28-3.32c-0.96-0.96-1.71-2.03-1.71-3.53
			c0-3,3.11-5.14,5.78-5.68c1.29-0.21,2.68-0.32,3.96-0.32c-0.96,0,23.89-0.43,30.1,4.18c1.29,0.96,2.57,2.25,2.57,3.96
			c0,2.89-3.75,6.21-5.46,8.36c-6.21,8.14-11.46,21.1-13.92,31.06C-315.2,327.05-314.99,328.02-313.38,328.55z"/>
	</g>
	<g>
		<path class="st10" d="M-252.73,337.72c3.77-0.06,7.6-0.67,11.35-0.81c1.86-0.1,4.6,0.45,5.22,2.53c0.83,2.78-2.18,4.89-4.47,5.57
			c-5.56,1.66-13.24,1.3-19.01,1.27c-2.94,0.04-5.18-0.88-5.61-4.08c-0.38-3.07-0.49-6.22-0.43-9.34
			c0.06-6.15,0.79-11.06,2.36-16.98c0.08-0.25,0.08-0.48,0-0.76c-0.17-0.56-0.69-0.55-1.13-0.5c-3.14,0.4-8.26,2.54-11.21,0.99
			c-0.81-0.44-1.51-0.99-1.8-1.96c-0.58-1.95,1.02-3.94,2.66-4.81c0.79-0.39,1.68-0.73,2.51-0.98c-0.63,0.19,15.43-4.9,20.35-3.11
			c1.02,0.38,2.1,0.96,2.44,2.08c0.56,1.88-1.23,4.76-1.93,6.48c-2.46,6.49-3.36,15.92-3.03,22.86
			C-254.2,337.1-253.87,337.69-252.73,337.72z"/>
	</g>
	<g>
		<path class="st10" d="M-279.76,395.41c2.7,1.52,5.68,2.67,8.4,4.13c1.37,0.7,3.08,2.22,2.66,3.96c-0.56,2.32-3.57,2.57-5.49,2.11
			c-4.64-1.13-9.95-4.57-14.03-6.97c-2.11-1.19-3.32-2.77-2.29-5.23c1-2.34,2.23-4.62,3.56-6.81c2.59-4.35,5.15-7.53,8.71-11.09
			c0.16-0.15,0.26-0.31,0.32-0.54c0.11-0.46-0.27-0.68-0.6-0.82c-2.4-1.01-6.92-1.62-8.38-3.94c-0.4-0.65-0.66-1.33-0.46-2.14
			c0.39-1.62,2.36-2.38,3.88-2.31c0.72,0.05,1.49,0.18,2.19,0.35c-0.52-0.13,12.99,2.91,15.75,6.22c0.57,0.69,1.1,1.56,0.87,2.48
			c-0.38,1.57-2.85,2.87-4.06,3.81c-4.44,3.59-8.98,9.92-11.63,14.99C-280.55,394.36-280.56,394.91-279.76,395.41z"/>
	</g>
</g>
<g>
	<circle class="st3" cx="231.13" cy="197.11" r="152.97"/>
	<g>
		<path class="st2" d="M162.23,162.51l0.18,94.71c0.04,21.3,17.32,38.55,38.63,38.55h65.6c21.33,0,38.63-17.29,38.63-38.63v-94.49
			l-71.39-45.62L162.23,162.51z"/>
	</g>
	<path class="st11" d="M330.07,160.2l-82.66-58.51c-6.2-4.39-14.44-4.61-20.87-0.56l-35.07,22.1v-18.01
		c0-10.38-8.41-18.79-18.79-18.79s-18.79,8.41-18.79,18.79v41.69l-20.21,12.74c-8.78,5.53-11.41,17.13-5.88,25.91
		c3.57,5.67,9.67,8.77,15.91,8.77c3.42,0,6.89-0.93,10-2.89l82.24-51.81l72.41,51.25c8.47,5.99,20.19,3.99,26.19-4.48
		S338.54,166.19,330.07,160.2z"/>
	<path class="st11" d="M203.24,295.77l-0.12-51.87c-0.03-14.02,11.33-25.41,25.35-25.41h16.71c14,0,25.35,11.35,25.35,25.35v51.37
		L203.24,295.77z"/>
	<g>
		<path class="st2" d="M294.18,300.82c-5.2,0-10.11-2.01-13.81-5.67c-3.73-3.69-5.81-8.61-5.84-13.86
			c-0.02-4.11,1.21-8.04,3.52-11.34h-23.68c-11.73,0-21.27-9.54-21.27-21.27c0-11.73,9.54-21.27,21.27-21.27h24.29
			c-2.67-3.44-4.12-7.66-4.12-12.04c0-5.59,2.39-10.93,6.56-14.66c3.61-3.22,8.25-4.99,13.09-4.99c5.59,0,10.93,2.39,14.66,6.56
			l30.88,34.57c6.9,7.72,6.6,19.54-0.68,26.9l-30.87,31.24C304.43,298.75,299.47,300.82,294.18,300.82z"/>
		<path class="st3" d="M299.95,286.88l30.88-31.24c3.02-3.05,3.14-7.92,0.28-11.12l-30.88-34.57c-2.99-3.35-8.13-3.64-11.47-0.65
			c-1.8,1.6-2.71,3.83-2.71,6.06c0,1.93,0.68,3.86,2.07,5.41l16.21,18.15h-49.96c-5.38,0-9.75,4.37-9.75,9.75
			c0,5.38,4.37,9.75,9.75,9.75h50.87l-16.84,17.04c-3.15,3.19-3.12,8.34,0.07,11.49C291.66,290.1,296.8,290.07,299.95,286.88z"/>
	</g>
</g>
<g>
	<circle class="st3" cx="1037.11" cy="750.11" r="152.97"/>
	<g>
		<g>
			<path class="st12" d="M1138.47,688.8c-17.56-12.77-44.96-10.85-66.94,5.74h-22.95h-22.95h-22.95
				c-21.98-16.59-49.37-18.51-66.94-5.74c-17.82,12.95-18.86,36.19-19.13,42.08c-1.42,31.53,21.3,52.31,24.86,55.46
				c2.05,5.68,5.55,13.94,11.48,22.95c7.49,11.39,13.35,20.29,21.04,21.04c10.14,0.98,22.08-12.39,28.69-32.51h22.95h22.95h22.95
				c6.61,20.13,18.55,33.5,28.69,32.51c7.69-0.74,13.54-9.65,21.04-21.04c5.93-9.01,9.43-17.27,11.48-22.95
				c3.56-3.15,26.28-23.93,24.86-55.46C1157.33,724.99,1156.29,701.76,1138.47,688.8z"/>
		</g>
		<circle class="st13" cx="980.25" cy="769.15" r="20.95"/>
		<circle class="st13" cx="1090.55" cy="771.28" r="20.95"/>
		<path class="st13" d="M985.96,715.97h-4.84c-2.51,0-4.55-2.04-4.55-4.55v-4.84c0-2.51-2.04-4.55-4.55-4.55h-1.35
			c-2.51,0-4.55,2.04-4.55,4.55v4.84c0,2.51-2.04,4.55-4.55,4.55h-4.55c-2.51,0-4.55,2.04-4.55,4.55v1.35
			c0,2.51,2.04,4.55,4.55,4.55h4.55c2.51,0,4.55,2.04,4.55,4.55v4.55c0,2.51,2.04,4.55,4.55,4.55h1.35c2.51,0,4.55-2.04,4.55-4.55
			v-4.55c0-2.51,2.04-4.55,4.55-4.55h4.84c2.51,0,4.55-2.04,4.55-4.55v-1.35C990.51,718.01,988.47,715.97,985.96,715.97z"/>
		<circle class="st14" cx="1113.42" cy="711.22" r="6.63"/>
		<circle class="st15" cx="1098.88" cy="724.47" r="6.63"/>
		<circle class="st16" cx="1127.52" cy="724.47" r="6.63"/>
		<circle class="st17" cx="1113.42" cy="739.86" r="6.63"/>
		<g>
			<path class="st18" d="M1005.03,710.79h65.14c-0.95,3.48-1.85,8.11-1.94,13.61c-0.11,6.41,0.91,11.75,1.94,15.56
				c-21.71,0-43.43,0-65.14,0c1.28-3.07,3.1-8.55,2.92-15.56C1007.79,718.41,1006.24,713.69,1005.03,710.79z"/>
		</g>
	</g>
</g>
</svg>
