<?xml version="1.0" encoding="utf-8"?>
<!-- Generator: Adobe Illustrator 24.0.2, SVG Export Plug-In . SVG Version: 6.00 Build 0)  -->
<svg version="1.1" id="Layer_1" xmlns="http://www.w3.org/2000/svg" xmlns:xlink="http://www.w3.org/1999/xlink" x="0px" y="0px"
	 viewBox="0 0 418 632" style="enable-background:new 0 0 418 632;" xml:space="preserve">
<style type="text/css">
	.st0{fill:#F7B7CC;}
	.st1{fill:#E89AB6;}
	.st2{opacity:0.26;fill:#FFD9E7;}
	.st3{opacity:0.7;fill:#E9FAFF;}
	.st4{fill:#E9FAFF;}
	.st5{opacity:0.29;fill:#E9FAFF;}
</style>
<g>
	<g>
		<path class="st0" d="M236.29,536.98c-0.22,0.07-0.44,0.13-0.66,0.2c-15.14,4.45-30.05,6.23-43.57,5.64
			c-28.13-1.22-50.23-12.69-55.81-31.66c-5.11-17.36,4.83-36.94,24.18-52.59c9.96-8.07,22.42-15.1,36.61-20.24
			c2.82-1.03,5.71-1.98,8.67-2.85c46.63-13.71,91.12-2.07,99.38,26.02C313.31,489.45,282.54,523.14,236.29,536.98z"/>
		
			<ellipse transform="matrix(0.9594 -0.2822 0.2822 0.9594 -128.2747 82.0391)" class="st1" cx="220.67" cy="486.33" rx="53.05" ry="31.95"/>
		<path class="st2" d="M236.29,536.98c-0.22,0.07-0.44,0.13-0.66,0.2c-15.14,4.45-30.05,6.23-43.57,5.64
			c-21.39-18.01-37.88-48.86-32.39-80.49c0.22-1.26,0.47-2.51,0.76-3.76c9.96-8.07,22.42-15.1,36.61-20.24
			c-1.2,13.19-1.65,30.31,4.63,49C209.25,509.87,223.6,525.63,236.29,536.98z"/>
	</g>
	<circle class="st3" cx="134.17" cy="511.83" r="29.5"/>
	<circle class="st3" cx="177.17" cy="532.83" r="20.5"/>
	<circle class="st3" cx="175.17" cy="493.83" r="11.5"/>
	<circle class="st3" cx="272.67" cy="448.33" r="19"/>
	<circle class="st3" cx="285.67" cy="493.33" r="21"/>
	<circle class="st3" cx="316.17" cy="456.83" r="18.5"/>
</g>
<g>
	<g>
		<g>
			<path class="st0" d="M224.29,242.98c-0.22,0.07-0.44,0.13-0.66,0.2c-15.14,4.45-30.05,6.23-43.57,5.64
				c-28.13-1.22-50.23-12.69-55.81-31.66c-5.11-17.36,4.83-36.94,24.18-52.59c9.96-8.07,22.42-15.1,36.61-20.24
				c2.82-1.03,5.71-1.98,8.67-2.85c46.63-13.71,91.12-2.07,99.38,26.02C301.31,195.45,270.54,229.14,224.29,242.98z"/>
			
				<ellipse transform="matrix(0.9594 -0.2822 0.2822 0.9594 -45.7954 66.7032)" class="st1" cx="208.67" cy="192.33" rx="53.05" ry="31.95"/>
			<path class="st2" d="M224.29,242.98c-0.22,0.07-0.44,0.13-0.66,0.2c-15.14,4.45-30.05,6.23-43.57,5.64
				c-21.39-18.01-37.88-48.86-32.39-80.49c0.22-1.26,0.47-2.51,0.76-3.76c9.96-8.07,22.42-15.1,36.61-20.24
				c-1.2,13.19-1.65,30.31,4.63,49C197.25,215.87,211.6,231.63,224.29,242.98z"/>
		</g>
		<circle class="st3" cx="122.17" cy="217.83" r="29.5"/>
		<circle class="st3" cx="165.17" cy="238.83" r="20.5"/>
		<circle class="st3" cx="163.17" cy="199.83" r="11.5"/>
		<circle class="st3" cx="260.67" cy="154.33" r="19"/>
		<circle class="st3" cx="273.67" cy="199.33" r="21"/>
		<circle class="st3" cx="304.17" cy="162.83" r="18.5"/>
	</g>
	<circle class="st3" cx="143.17" cy="161.83" r="21.5"/>
	<circle class="st3" cx="191.67" cy="100.33" r="13"/>
	<circle class="st3" cx="196.17" cy="163.83" r="17.5"/>
	<circle class="st3" cx="165.17" cy="211.83" r="30.5"/>
	<circle class="st3" cx="237.67" cy="140.33" r="19"/>
	<circle class="st4" cx="294.67" cy="183.33" r="14"/>
	<circle class="st4" cx="195.67" cy="235.33" r="24"/>
	<circle class="st3" cx="121.67" cy="100.33" r="39"/>
	<path class="st5" d="M115.67,69.33c1.49-0.19,17.21-1.94,28,10c8.02,8.88,8.06,19.49,8,22"/>
	<path class="st5" d="M109.67,197.33c13.41-6.74,28.34-1.29,33,9c3.33,7.36,1.29,16.91-5,24"/>
</g>
</svg>
