<?xml version="1.0" encoding="utf-8"?>
<!-- Generator: Adobe Illustrator 24.0.2, SVG Export Plug-In . SVG Version: 6.00 Build 0)  -->
<svg version="1.1" id="Layer_1" xmlns="http://www.w3.org/2000/svg" xmlns:xlink="http://www.w3.org/1999/xlink" x="0px" y="0px"
	 viewBox="0 0 861 856" style="enable-background:new 0 0 861 856;" xml:space="preserve">
<style type="text/css">
	.st0{fill:#B460C6;}
	.st1{fill:#69AF85;}
	.st2{fill:#3F7555;}
	.st3{fill:#232323;}
	.st4{fill:#539B70;}
	.st5{fill:#FFFFFF;}
	.st6{fill:#1E1E1E;}
	.st7{opacity:0.35;fill:#F2F9D9;}
	.st8{opacity:0.86;fill:#FFD2D6;}
	.st9{fill:#892727;}
	.st10{fill:#F4F1E9;}
</style>
<g>
	<path class="st0" d="M373.31,73.34c-6.48-17.57,21.46-56.11,60.91-58.38c43.38-2.49,74.79,40.37,68.53,58.38
		C493.15,100.99,383.76,101.67,373.31,73.34z"/>
	<path class="st1" d="M616.4,247.2c-11.04,76.38-77.05,184.01-185.51,184.01c-112.63,0-175.72-109.66-185.51-184.01
		c-2.4-18.23-11.44-86.94,41.53-138.33c46.72-45.31,112.32-45.51,143.98-45.69c32.13-0.18,99.72-0.55,146.75,45.69
		C629.08,159.45,618.96,229.48,616.4,247.2z"/>
	<path class="st1" d="M634.16,306.85c-15.08-11.9-47.51-33.12-197.39-33h-5.08h-5.08c-149.88-0.13-182.31,21.09-197.39,33
		c-7.41,5.86-65.66,53.17-58.38,111.68c6.17,49.54,55.69,77.84,106.02,106.6c31.27,17.87,82.29,46.19,154.14,45.69
		c0.23,0,0.46,0,0.69-0.03c0.23,0.03,0.46,0.03,0.69,0.03c71.85,0.51,122.87-27.82,154.14-45.69
		c50.33-28.76,99.85-57.06,106.02-106.6C699.82,360.02,641.57,312.71,634.16,306.85z"/>
	<path class="st1" d="M624.59,883c-22.59-0.41-44.72-0.81-66.52-1.24c-89.47-1.68-173.63-3.35-262.9-5.05
		c-23.45-0.43-47.26-0.89-71.6-1.32c25.08-52.06,51.9-119.44,71.07-200.51c8.86-37.46,14.9-72.89,18.93-105.74
		c0.89-7.01,1.65-13.88,2.34-20.63c2.03-19.92,3.32-38.76,4.11-56.37h215.74c-0.91,17.31-1.24,37.41-0.36,59.77
		c0.36,8.71,0.89,17.79,1.65,27.16c2.79,33.45,8.48,70.91,19.01,111.04C578.67,776.3,597.02,841.32,624.59,883z"/>
	<path class="st2" d="M294.63,108.88c-20.96,8.23-32.24,33.4-27.92,38.07c2.62,2.84,9.9-3.06,35.53-12.69
		c29.39-11.04,40.48-11.05,40.61-15.23C343.05,112.53,316.53,100.28,294.63,108.88z"/>
	<path class="st2" d="M565.3,108.88c20.96,8.23,32.24,33.4,27.92,38.07c-2.62,2.84-9.9-3.06-35.53-12.69
		c-29.39-11.04-40.48-11.05-40.61-15.23C516.88,112.53,543.4,100.28,565.3,108.88z"/>
	
		<ellipse transform="matrix(0.9126 -0.4089 0.4089 0.9126 -125.1217 185.8398)" class="st2" cx="372.05" cy="385.53" rx="8.88" ry="15.23"/>
	
		<ellipse transform="matrix(0.4089 -0.9126 0.9126 0.4089 -64.4027 671.6301)" class="st2" cx="486.26" cy="385.53" rx="15.23" ry="8.88"/>
	<path class="st3" d="M566.21,456.6c-1.88,18.27-12.46,31.83-24.44,42.41c-7.11,6.24-14.67,11.45-21.24,15.96
		c-10.08,6.93-45.69,30.58-96.45,27.92c-9.06-0.48-47.36-3.3-83.76-30.46c-6.83-5.1-15.74-11.75-23.91-20.1
		c-11.5-11.78-21.45-26.95-21.78-45.89c-0.13-7.41-0.41-23.91,10.15-33c8.96-7.69,20.43-5.51,34.9,0.18
		c24.14,9.47,56.63,28.66,99.62,27.74c34.34-0.74,60.31-13.99,80.31-21.9c15.2-6.02,26.98-8.93,36.45-0.94
		C568.98,429.44,566.72,451.57,566.21,456.6z"/>
	<g>
		<path class="st4" d="M535.75,324.62c-1.75,0-3.54-0.37-5.24-1.14c-33.72-15.32-68.98-22.62-104.73-21.71
			c-31.74,0.81-62.99,8.12-92.89,21.71c-6.38,2.9-13.91,0.08-16.81-6.3c-2.9-6.38-0.08-13.91,6.3-16.81
			c33.01-15.01,67.58-23.08,102.75-23.98c39.65-1.01,78.63,7.05,115.88,23.98c6.38,2.9,9.2,10.42,6.31,16.8
			C545.18,321.85,540.57,324.62,535.75,324.62z"/>
	</g>
	<g>
		<path class="st5" d="M383.07,225.93c0.12,29.49-11.31,76.89-35.38,80.26c-23.18,3.24-48.59-35.65-55.18-68.18
			c-2.24-11.02-10.4-51.26,14.83-68.22c17.95-12.07,45.39-7.36,60.91,7.61C382.92,191.58,383,211.14,383.07,225.93z"/>
		<path class="st6" d="M372.79,235.51c2.44,21.25-5.95,51.68-23.43,55.42c-18.54,3.97-43.29-22.96-44.87-49.77
			c-0.99-16.89,6.81-40.58,24.27-45.3c13.65-3.69,26.43,6.04,28.66,7.82C370.31,213.92,372.07,229.28,372.79,235.51z"/>
		<circle class="st5" cx="354.28" cy="209.13" r="16.5"/>
		<circle class="st5" cx="328.9" cy="224.36" r="6.35"/>
	</g>
	<g>
		<path class="st5" d="M485.39,225.93c-0.12,29.49,11.31,76.89,35.38,80.26c23.18,3.24,48.59-35.65,55.18-68.18
			c2.24-11.02,10.4-51.26-14.83-68.22c-17.95-12.07-45.39-7.36-60.91,7.61C485.53,191.58,485.45,211.14,485.39,225.93z"/>
		<path class="st6" d="M495.67,235.51c-2.44,21.25,5.95,51.68,23.43,55.42c18.54,3.97,43.29-22.96,44.87-49.77
			c0.99-16.89-6.81-40.58-24.27-45.3c-13.65-3.69-26.43,6.04-28.66,7.82C498.15,213.92,496.38,229.28,495.67,235.51z"/>
		<circle class="st5" cx="514.18" cy="209.13" r="16.5"/>
		<circle class="st5" cx="539.56" cy="224.36" r="6.35"/>
	</g>
	<path class="st7" d="M558.06,881.76c-89.47-1.68-173.63-3.35-262.9-5.05c14.26-40.99,27.89-85.48,40.08-133.3
		c11.83-46.4,20.91-90.59,27.92-131.98c17.39,4.26,40.81,8.15,68.53,7.61c23.1-0.43,42.89-3.83,58.38-7.61
		c5.33,41.07,13.35,86.27,25.38,134.52C527.89,795.94,542.66,841.32,558.06,881.76z"/>
	<path class="st4" d="M537.05,579.06c-20.58,23.43-58.12,51.24-102.82,52.67c-54.32,1.73-100.03-36.19-120.66-62.59
		c0.89-7.01,1.65-13.88,2.34-20.63c18.83,8.81,55.97,28.88,108.17,29.92c51.8,1.02,90.18-17.28,111.32-26.52
		C535.75,560.61,536.29,569.7,537.05,579.06z"/>
	<ellipse class="st4" cx="434.23" cy="324.62" rx="17.77" ry="7.61"/>
	
		<ellipse transform="matrix(0.3162 -0.9487 0.9487 0.3162 46.0003 740.9726)" class="st4" cx="537.02" cy="338.58" rx="3.81" ry="13.96"/>
	
		<ellipse transform="matrix(0.9862 -0.1654 0.1654 0.9862 -50.2076 61.4894)" class="st4" cx="344.13" cy="332.23" rx="8.88" ry="2.54"/>
	
		<ellipse transform="matrix(0.9498 -0.313 0.313 0.9498 -95.9967 109.5951)" class="st4" cx="293.36" cy="353.8" rx="13.96" ry="3.81"/>
	<ellipse class="st4" cx="490.07" cy="342.38" rx="7.61" ry="2.54"/>
	<ellipse class="st4" cx="377.12" cy="338.58" rx="13.96" ry="6.35"/>
	<circle class="st8" cx="246.86" cy="329.69" r="55.84"/>
	<circle class="st8" cx="621.6" cy="329.69" r="55.84"/>
	<path class="st9" d="M541.77,499.01c-7.11,6.24-14.67,11.45-21.24,15.96c-10.08,6.93-45.69,30.58-96.45,27.92
		c-9.06-0.48-47.36-3.3-83.76-30.46c-6.83-5.1-15.74-11.75-23.91-20.1c13.78-5.05,30.15-7.61,31.52-7.82
		c30.94-4.64,38,5.99,78.68,7.61c40.89,1.62,47.97-8.53,81.22-2.54C509.43,489.87,527.17,493.17,541.77,499.01z"/>
	<path class="st10" d="M523.06,436.29c-11.62,34.8-176.25,27.18-185.28-10.15c-1.09-4.49,0.18-8.91,1.9-12.51
		c24.14,9.47,56.63,28.66,99.62,27.74c34.34-0.74,60.31-13.99,80.31-21.9C522.71,424.64,524.92,430.73,523.06,436.29z"/>
</g>
</svg>
