<?xml version="1.0" encoding="utf-8"?>
<!-- Generator: Adobe Illustrator 24.0.2, SVG Export Plug-In . SVG Version: 6.00 Build 0)  -->
<svg version="1.1" id="Layer_1" xmlns="http://www.w3.org/2000/svg" xmlns:xlink="http://www.w3.org/1999/xlink" x="0px" y="0px"
	 viewBox="0 0 861 856" style="enable-background:new 0 0 861 856;" xml:space="preserve">
<style type="text/css">
	.st0{clip-path:url(#SVGID_2_);fill:#AAD7E8;}
	.st1{clip-path:url(#SVGID_2_);fill:#F3FCFF;}
	.st2{clip-path:url(#SVGID_2_);}
	.st3{fill:#F7637F;}
	.st4{fill:#F4B651;}
	.st5{fill:#D2F26D;}
	.st6{fill:#7C98E8;}
	.st7{opacity:0.48;clip-path:url(#SVGID_2_);fill:url(#SVGID_3_);}
	.st8{fill:#B460C6;}
	.st9{fill:#69AF85;}
	.st10{fill:#3F7555;}
	.st11{fill:#232323;}
	.st12{fill:#539B70;}
	.st13{fill:#FFFFFF;}
	.st14{fill:#1E1E1E;}
	.st15{opacity:0.35;fill:#F2F9D9;}
	.st16{opacity:0.86;fill:#FFD2D6;}
	.st17{fill:#892727;}
	.st18{fill:#F4F1E9;}
</style>
<g>
	<defs>
		<path id="SVGID_1_" d="M788,797.68H73.32c-6.6,0-12-5.4-12-12V71c0-6.6,5.4-12,12-12H788c6.6,0,12,5.4,12,12v714.68
			C800,792.28,794.6,797.68,788,797.68z"/>
	</defs>
	<clipPath id="SVGID_2_">
		<use xlink:href="#SVGID_1_"  style="overflow:visible;"/>
	</clipPath>
	<path class="st0" d="M789.03,797.68H74.35c-6.6,0-12-5.4-12-12V71c0-6.6,5.4-12,12-12h714.68c6.6,0,12,5.4,12,12v714.68
		C801.03,792.28,795.63,797.68,789.03,797.68z"/>
	<path class="st1" d="M-51.92,238.67C-67.77,175.2-36.74,125.61-8.07,121.44c24.66-3.59,58.76,24.77,73.38,70.7
		c3.2-61.5,57.93-102.68,106.5-93.97c39.19,7.03,71.84,46.1,72.49,93.97c19.02-40.33,64.56-52.55,91.28-35.8
		c19.27,12.08,29.04,39.38,23.27,67.12c-39.77,19.99-116.44,51.87-217.47,52.8C55.12,277.05-12.58,254.95-51.92,238.67z"/>
	<g class="st2">
		<g>
			<path class="st3" d="M-8.53,534.12l-62.52-26.98c19.67-45.59,99.98-199.47,307.6-265.78c210.72-67.3,465.62-16.4,634.28,126.65
				l-44.04,51.93C675.36,291.5,446.48,245.81,257.27,306.23C77.05,363.79,8.26,495.21-8.53,534.12z"/>
		</g>
		<g>
			<path class="st4" d="M30.01,571.61l-62.51-27c18.74-43.4,95.26-189.9,293-252.99c200.53-63.99,443.1-15.59,603.6,120.43
				l-44.02,51.95C676.8,342.57,460.23,299.36,281.2,356.49C110.86,410.84,45.88,534.89,30.01,571.61z"/>
		</g>
		<g>
			<path class="st5" d="M41.32,625.89l-62.51-27c18.74-43.4,95.26-189.9,293-252.99c200.52-63.98,443.09-15.59,603.6,120.43
				l-44.02,51.95C688.1,396.84,471.54,353.64,292.51,410.77C122.17,465.12,57.18,589.16,41.32,625.89z"/>
		</g>
		<g>
			<path class="st6" d="M56.01,675L-6.5,648c18.74-43.4,95.26-189.9,293-252.99c200.53-63.99,443.1-15.59,603.6,120.43l-44.02,51.95
				C702.79,445.95,486.23,402.75,307.2,459.88C136.86,514.23,71.87,638.27,56.01,675z"/>
		</g>
	</g>
	<path class="st1" d="M528.69,564.16c-18.84-75.42,18.04-134.33,52.1-139.3c29.3-4.27,69.82,29.43,87.19,84
		c3.8-73.07,68.83-122,126.54-111.65c46.56,8.35,85.35,54.77,86.13,111.65c22.6-47.92,76.7-62.44,108.46-42.53
		c22.9,14.35,34.5,46.79,27.65,79.75c-47.26,23.75-138.35,61.63-258.39,62.74C655.87,609.76,575.43,583.49,528.69,564.16z"/>
	<radialGradient id="SVGID_3_" cx="449.2294" cy="395.3261" r="441.5583" gradientUnits="userSpaceOnUse">
		<stop  offset="0" style="stop-color:#FFFFFF"/>
		<stop  offset="0.857" style="stop-color:#FFFFFF;stop-opacity:0.143"/>
		<stop  offset="1" style="stop-color:#FFFFFF;stop-opacity:0"/>
	</radialGradient>
	<circle class="st7" cx="449.23" cy="395.33" r="441.56"/>
	<g class="st2">
		<path class="st8" d="M384.23,143.6c-5.27-14.28,17.45-45.61,49.52-47.46c35.27-2.03,60.8,32.82,55.71,47.46
			C481.65,166.08,392.73,166.63,384.23,143.6z"/>
		<path class="st9" d="M581.85,284.94c-8.97,62.09-62.64,149.59-150.81,149.59c-91.57,0-142.85-89.15-150.81-149.59
			c-1.95-14.82-9.3-70.68,33.76-112.45c37.98-36.84,91.31-37,117.05-37.14c26.12-0.14,81.07-0.44,119.3,37.14
			C592.16,213.6,583.93,270.53,581.85,284.94z"/>
		<path class="st9" d="M596.28,333.43c-12.26-9.68-38.63-26.93-160.47-26.82h-4.13h-4.13c-121.84-0.1-148.21,17.15-160.47,26.82
			c-6.02,4.77-53.38,43.23-47.46,90.79c5.01,40.28,45.27,63.28,86.19,86.66c25.42,14.53,66.89,37.55,125.31,37.14
			c0.19,0,0.37,0,0.56-0.02c0.19,0.02,0.37,0.02,0.56,0.02c58.41,0.41,99.89-22.61,125.31-37.14
			c40.92-23.38,81.17-46.38,86.19-86.66C649.66,376.65,602.31,338.19,596.28,333.43z"/>
		<path class="st9" d="M588.51,801.81c-18.36-0.33-36.36-0.66-54.08-1.01c-72.73-1.36-141.15-2.72-213.72-4.11
			c-19.07-0.35-38.42-0.72-58.21-1.07c20.39-42.32,42.2-97.1,57.77-163.01c7.2-30.46,12.11-59.26,15.39-85.96
			c0.72-5.69,1.34-11.29,1.9-16.78c1.65-16.2,2.7-31.51,3.34-45.83h175.39c-0.74,14.07-1.01,30.41-0.29,48.59
			c0.29,7.08,0.72,14.46,1.34,22.08c2.27,27.2,6.89,57.65,15.45,90.27C551.18,715.06,566.1,767.93,588.51,801.81z"/>
		<path class="st10" d="M320.27,172.48c-17.04,6.69-26.21,27.15-22.7,30.95c2.13,2.31,8.05-2.49,28.89-10.32
			c23.9-8.98,32.91-8.98,33.01-12.38C359.63,175.45,338.07,165.5,320.27,172.48z"/>
		<path class="st10" d="M540.31,172.48c17.04,6.69,26.21,27.15,22.7,30.95c-2.13,2.31-8.05-2.49-28.89-10.32
			c-23.9-8.98-32.91-8.98-33.01-12.38C500.95,175.45,522.5,165.5,540.31,172.48z"/>
		
			<ellipse transform="matrix(0.9126 -0.4089 0.4089 0.9126 -128.9957 191.4387)" class="st10" cx="383.2" cy="397.39" rx="7.22" ry="12.38"/>
		
			<ellipse transform="matrix(0.4089 -0.9126 0.9126 0.4089 -81.2583 669.325)" class="st10" cx="476.05" cy="397.39" rx="12.38" ry="7.22"/>
		<path class="st11" d="M541.05,455.16c-1.53,14.86-10.13,25.87-19.87,34.48c-5.78,5.08-11.93,9.31-17.27,12.98
			c-8.19,5.63-37.14,24.86-78.41,22.7c-7.37-0.39-38.5-2.68-68.09-24.76c-5.55-4.15-12.79-9.55-19.44-16.34
			c-9.35-9.57-17.44-21.91-17.7-37.31c-0.1-6.03-0.33-19.44,8.25-26.82c7.28-6.25,16.61-4.48,28.37,0.14
			c19.62,7.7,46.03,23.3,80.99,22.55c27.92-0.6,49.03-11.37,65.28-17.81c12.36-4.89,21.93-7.26,29.63-0.76
			C543.3,433.09,541.46,451.08,541.05,455.16z"/>
		<g>
			<path class="st12" d="M516.28,347.87c-1.43,0-2.88-0.3-4.26-0.93c-27.41-12.45-56.08-18.39-85.14-17.65
				c-25.8,0.66-51.21,6.6-75.52,17.65c-5.18,2.36-11.3,0.06-13.66-5.12c-2.36-5.19-0.07-11.3,5.12-13.66
				c26.84-12.2,54.94-18.76,83.53-19.49c32.23-0.82,63.92,5.73,94.21,19.49c5.19,2.36,7.48,8.47,5.13,13.66
				C523.95,345.62,520.2,347.87,516.28,347.87z"/>
		</g>
		<g>
			<path class="st13" d="M392.16,267.65c0.1,23.98-9.19,62.51-28.77,65.25c-18.84,2.64-39.5-28.98-44.86-55.42
				c-1.82-8.96-8.46-41.67,12.05-55.46c14.6-9.81,36.9-5.99,49.52,6.19C392.05,239.72,392.11,255.62,392.16,267.65z"/>
			<path class="st14" d="M383.81,275.43c1.98,17.27-4.84,42.01-19.05,45.05c-15.07,3.22-35.19-18.67-36.47-40.46
				c-0.81-13.73,5.54-32.99,19.73-36.83c11.09-3,21.48,4.91,23.3,6.35C381.79,257.88,383.23,270.36,383.81,275.43z"/>
			<circle class="st13" cx="368.76" cy="253.99" r="13.41"/>
			<circle class="st13" cx="348.12" cy="266.37" r="5.16"/>
		</g>
		<g>
			<path class="st13" d="M475.35,267.65c-0.1,23.98,9.19,62.51,28.77,65.25c18.84,2.64,39.5-28.98,44.86-55.42
				c1.82-8.96,8.46-41.67-12.05-55.46c-14.6-9.81-36.9-5.99-49.52,6.19C475.46,239.72,475.4,255.62,475.35,267.65z"/>
			<path class="st14" d="M483.7,275.43c-1.98,17.27,4.84,42.01,19.05,45.05c15.07,3.22,35.19-18.67,36.47-40.46
				c0.81-13.73-5.54-32.99-19.73-36.83c-11.09-3-21.48,4.91-23.3,6.35C485.72,257.88,484.28,270.36,483.7,275.43z"/>
			<circle class="st13" cx="498.75" cy="253.99" r="13.41"/>
			<circle class="st13" cx="519.38" cy="266.37" r="5.16"/>
		</g>
		<path class="st15" d="M534.43,800.8c-72.73-1.36-141.15-2.72-213.72-4.11c11.6-33.32,22.68-69.49,32.58-108.37
			c9.62-37.72,17-73.64,22.7-107.29c14.13,3.47,33.18,6.62,55.71,6.19c18.78-0.35,34.87-3.12,47.46-6.19
			c4.33,33.39,10.85,70.13,20.63,109.36C509.89,731.03,521.9,767.93,534.43,800.8z"/>
		<path class="st12" d="M517.34,554.72c-16.73,19.04-47.25,41.66-83.59,42.81c-44.16,1.4-81.32-29.42-98.09-50.88
			c0.72-5.69,1.34-11.29,1.9-16.78c15.31,7.16,45.5,23.48,87.94,24.33c42.11,0.83,73.31-14.05,90.5-21.56
			C516.29,539.72,516.72,547.11,517.34,554.72z"/>
		<ellipse class="st12" cx="433.75" cy="347.87" rx="14.44" ry="6.19"/>
		
			<ellipse transform="matrix(0.3162 -0.9487 0.9487 0.3162 12.9457 736.3958)" class="st12" cx="517.32" cy="359.22" rx="3.1" ry="11.35"/>
		
			<ellipse transform="matrix(0.9862 -0.1654 0.1654 0.9862 -53.5923 64.4989)" class="st12" cx="360.51" cy="354.06" rx="7.22" ry="2.06"/>
		
			<ellipse transform="matrix(0.9498 -0.313 0.313 0.9498 -100.2658 118.5873)" class="st12" cx="319.24" cy="371.6" rx="11.35" ry="3.1"/>
		<ellipse class="st12" cx="479.15" cy="362.31" rx="6.19" ry="2.06"/>
		<ellipse class="st12" cx="387.33" cy="359.22" rx="11.35" ry="5.16"/>
		<circle class="st16" cx="281.43" cy="352" r="45.39"/>
		<circle class="st16" cx="586.08" cy="352" r="45.39"/>
		<path class="st17" d="M521.18,489.64c-5.78,5.08-11.93,9.31-17.27,12.98c-8.19,5.63-37.14,24.86-78.41,22.7
			c-7.37-0.39-38.5-2.68-68.09-24.76c-5.55-4.15-12.79-9.55-19.44-16.34c11.2-4.11,24.51-6.19,25.63-6.36
			c25.15-3.78,30.89,4.87,63.96,6.19c33.24,1.32,39-6.93,66.03-2.06C494.89,482.21,509.31,484.9,521.18,489.64z"/>
		<path class="st18" d="M505.97,438.66c-9.45,28.29-143.28,22.1-150.63-8.25c-0.89-3.65,0.14-7.24,1.55-10.17
			c19.62,7.7,46.03,23.3,80.99,22.55c27.92-0.6,49.03-11.37,65.28-17.81C505.68,429.19,507.48,434.14,505.97,438.66z"/>
	</g>
	<g class="st2">
		<g>
			<path class="st8" d="M223.52,762.73c-3.25,0-6.6,0-10.13-0.17c-3.49-0.19-7.05-0.55-10.3-1.06c-3.04-0.37-7.99-2.09-7.99-9.42
				v-4.61c0-3.15,0.02-6.28,0.04-9.4c0.04-6.06,0.08-12.34-0.04-18.54c-0.08-2.79-0.25-5.76-0.42-8.63
				c-0.17-2.92-0.34-5.95-0.43-8.92l-0.51-11.21l-0.68-10.28l-0.34-8.54l-0.68-17.61c-0.42-8.33-0.47-14.77-0.17-20.8
				c0.01-1.34,0.22-2.58,0.4-3.67c0.66-3.95,3.08-6.51,7.02-7.42l0.12-0.03c0.92-0.19,2.31-0.43,3.8-0.43
				c4.78,0,9.48-0.17,14.38-0.5c2.89-0.24,5.65-0.36,8.38-0.36c3.86,0,7.52,0.24,11.16,0.73c5.96,0.79,11.38,1.94,16.11,3.41
				c3.49,1.09,6.29,2.23,8.82,3.57c4.75,2.46,8.94,6.24,12.75,11.51c4.65,5.93,8.02,12.48,10.28,20.04l0.06,0.2l0.18,0.91
				c0.3,1.47,0.61,3,0.78,4.69c0.11,0.96,0.22,1.98,0.34,2.99c0.6,5.17,1.22,10.52,1.22,15.91c0,7.43-0.57,13.08-1.83,18.32
				c-2.32,9.07-5.22,17.02-8.89,24.36c-3.11,6.02-6.63,11.04-10.8,15.4c-1.73,1.94-3.6,3.52-5.54,4.7
				c-0.89,0.57-1.78,1.15-2.66,1.73c-3.38,2.21-6.87,4.49-10.75,6.36c-6.64,3.22-13.15,5.31-19.88,6.37
				C226.27,762.5,224.94,762.73,223.52,762.73z M238.78,693.02c0.29,2.42,0.46,4.81,0.61,6.92l0.07,1.05v3.06
				c1.18-1.34,1.98-2.8,2.44-4.46c0.94-3.61,1.22-7.6,0.87-12.48c-0.36-5.3-1.09-9.8-2.23-13.78l-0.05-0.17l-0.04-0.18
				c-0.31-1.55-1.01-2.95-2.43-4.85c-0.23-0.31-0.5-0.59-0.8-0.83c0.13,1.91,0.27,3.69,0.49,5.55c0.88,5.53,0.9,10.97,0.9,16.25
				C238.77,690.52,238.78,691.75,238.78,693.02z"/>
			<path class="st13" d="M225.95,625.62c3.49,0,6.99,0.21,10.56,0.69c5.13,0.68,10.42,1.71,15.38,3.25
				c2.73,0.85,5.47,1.88,8.03,3.25c4.61,2.39,8.2,5.98,11.28,10.25c4.44,5.64,7.52,11.79,9.57,18.63c0.34,1.71,0.68,3.25,0.85,4.95
				c0.68,6.15,1.54,12.3,1.54,18.46c0,5.81-0.34,11.62-1.71,17.26c-2.05,8.03-4.79,15.89-8.54,23.41
				c-2.73,5.3-5.98,10.08-10.08,14.35c-1.37,1.54-2.91,2.9-4.61,3.93c-4.27,2.73-8.37,5.64-12.99,7.86
				c-5.98,2.9-12.13,4.96-18.63,5.98c-1.03,0.17-2.05,0.34-3.08,0.34c-3.25,0-6.49,0-9.91-0.17c-3.25-0.17-6.66-0.51-9.91-1.03
				c-3.07-0.34-4.1-1.88-4.1-4.96v-4.61c0-9.4,0.17-18.62,0-28.02c-0.17-5.81-0.68-11.79-0.85-17.6l-0.51-11.28l-0.68-10.25
				l-0.34-8.54l-0.68-17.6c-0.34-6.84-0.51-13.67-0.17-20.51c0-1.03,0.17-2.05,0.34-3.08c0.34-2.05,1.37-3.25,3.59-3.76
				c0.85-0.17,1.88-0.34,2.91-0.34c4.95,0,9.74-0.17,14.7-0.51C220.56,625.75,223.25,625.62,225.95,625.62 M236.82,711.19
				c0.22,0,0.45-0.04,0.71-0.13l1.2-0.51c3.59-2.39,6.32-5.47,7.52-9.74c1.2-4.61,1.37-9.23,1.02-14.01
				c-0.34-4.96-1.02-9.91-2.39-14.7c-0.51-2.56-1.71-4.61-3.25-6.66c-1.54-2.05-3.76-3.25-6.15-3.76c-0.24-0.04-0.47-0.07-0.68-0.07
				c-1.45,0-2.25,0.99-2.4,2.63c0,0.17,0,0.51,0.17,0.68c0.17,2.91,0.34,5.64,0.68,8.54c0.85,5.3,0.85,10.59,0.85,15.89
				c0.17,1.37,0.17,2.56,0.17,3.93c0.34,2.73,0.51,5.47,0.68,7.86v7.18c0,0.51,0.17,1.2,0.34,1.71
				C235.69,710.81,236.17,711.19,236.82,711.19 M225.95,616.62c-2.84,0-5.7,0.12-8.75,0.37c-4.78,0.33-9.37,0.49-14.01,0.49
				c-1.89,0-3.58,0.3-4.69,0.52l-0.12,0.02l-0.12,0.03c-5.69,1.31-9.5,5.34-10.45,11.05c-0.2,1.18-0.44,2.63-0.46,4.29
				c-0.3,6.15-0.24,12.69,0.18,21.17l0.68,17.55l0.34,8.56l0,0.12l0.01,0.12l0.68,10.16l0.51,11.11c0.09,3,0.27,6.03,0.44,8.97
				c0.17,2.95,0.33,5.75,0.41,8.51c0.11,6.13,0.07,12.36,0.04,18.38c-0.02,3.13-0.04,6.27-0.04,9.43v4.61
				c0,7.66,4.54,12.96,11.87,13.87c3.38,0.53,7.07,0.91,10.66,1.1c3.67,0.18,7.09,0.18,10.39,0.18c1.77,0,3.36-0.26,4.52-0.46
				c7.16-1.13,14.06-3.35,21.11-6.77c4.12-1.98,7.74-4.35,11.23-6.64c0.86-0.56,1.72-1.12,2.58-1.68c2.29-1.39,4.46-3.23,6.46-5.46
				c4.45-4.66,8.2-10,11.47-16.34l0.03-0.05l0.03-0.05c3.82-7.64,6.83-15.88,9.21-25.21l0.01-0.05l0.01-0.05
				c1.36-5.6,1.96-11.57,1.96-19.38c0-5.65-0.63-11.13-1.25-16.43c-0.11-0.99-0.23-1.98-0.34-2.97c-0.19-1.89-0.52-3.51-0.84-5.08
				l-0.14-0.7l-0.08-0.41l-0.12-0.4c-2.42-8.08-6.02-15.1-11-21.46c-4.21-5.8-8.88-9.99-14.27-12.8c-2.77-1.47-5.8-2.7-9.54-3.87
				c-4.98-1.55-10.65-2.75-16.87-3.58C233.86,616.87,230.02,616.62,225.95,616.62L225.95,616.62z"/>
		</g>
		<g>
			<path class="st8" d="M332.37,765.63c-4.91,0-8.09-3.24-8.09-8.26v-15.04c0-4.02,0.18-7.88,0.35-11.61l0.34-15.32
				c0-0.96-0.04-2.06-0.08-3.15c-0.04-1.21-0.09-2.42-0.09-3.58v-0.13l0.69-12.33c0.01-0.48,0.07-0.9,0.11-1.25
				c0.02-0.15,0.05-0.31,0.05-0.48l0-0.18l0.51-12.47c0.06-0.97,0.1-1.82,0.13-2.67c0.08-1.78,0.15-3.61,0.39-5.56
				c0.18-3.81,0.53-7.46,0.86-10.99c0.27-3.58,0.07-7.37-0.65-11.85c-0.53-3.57-0.89-7.1-1.23-10.51c-0.06-0.63-0.13-1.21-0.2-1.79
				c-0.17-1.37-0.34-2.78-0.34-4.3c0-4.9,2.77-7.9,7.6-8.25l0.16-0.01h0.16c3.59,0,7.3-0.17,10.88-0.33l0.29-0.01h0.1
				c5.51,0,10.97-0.17,16.26-0.33l0.32-0.01c0.4,0,0.84-0.04,1.28-0.07c0.6-0.05,1.28-0.1,1.97-0.1c4.3,0,7.33,2.46,8.32,6.74
				l0.04,0.16l0.03,0.17c0.12,0.78,0.22,1.55,0.32,2.33c0.18,1.41,0.35,2.74,0.64,4.01l0.04,0.18l0.03,0.18
				c0.87,5.92,1.4,11.87,1.9,17.62l0.01,0.12c0.35,4.55,0.39,9.06,0.43,13.03c0.02,2.03,0.04,3.97,0.09,5.8l0,0.14
				c0,4.53,0,7.8-0.18,11.33c-0.16,5.89-0.34,12.09-0.87,18.27c-0.07,0.98-0.16,1.99-0.24,3c-0.45,5.58-0.88,10.85-0.6,16.2
				c0.11,2.6-0.02,5.03-0.15,7.39c-0.09,1.71-0.18,3.33-0.18,4.97c0,3.12-0.04,6.24-0.09,9.33c-0.04,3.01-0.08,6-0.08,8.95v0.45
				l-0.4,1.98c-0.65,4.93-3.49,7.58-8.45,7.87c-1.16,0.08-2.39,0.12-3.71,0.12c-3.16,0-6.28-0.23-9.3-0.46
				c-0.79-0.06-1.58-0.12-2.38-0.17c-1.77-0.08-3.4-0.15-5.02-0.15c-2.22,0-4.03,0.13-5.69,0.42
				C336.72,765.43,334.55,765.63,332.37,765.63z"/>
			<path class="st13" d="M364.16,629.56c2.22,0,3.42,1.02,3.93,3.25c0.34,2.22,0.51,4.44,1.03,6.66c0.85,5.81,1.37,11.62,1.88,17.43
				c0.51,6.66,0.34,13.16,0.51,18.62c0,4.44,0,7.69-0.17,11.11c-0.17,6.15-0.34,12.13-0.86,18.11c-0.51,6.66-1.2,13.16-0.85,19.82
				c0.17,4.1-0.34,8.03-0.34,12.13c0,6.15-0.17,12.3-0.17,18.28l-0.34,1.71c-0.34,2.9-1.37,3.93-4.27,4.1
				c-1.15,0.08-2.29,0.11-3.44,0.11c-3.81,0-7.62-0.36-11.42-0.63c-1.76-0.08-3.52-0.15-5.28-0.15c-2.17,0-4.34,0.12-6.51,0.49
				c-1.71,0.34-3.59,0.51-5.47,0.51c-2.39,0-3.59-1.2-3.59-3.76v-15.04c0-3.93,0.17-7.69,0.34-11.45l0.34-15.38
				c0-2.22-0.17-4.61-0.17-6.84l0.68-12.3c0-0.51,0.17-1.2,0.17-1.88l0.51-12.47c0.17-2.73,0.17-5.3,0.51-8.03
				c0.17-3.76,0.51-7.35,0.86-10.94c0.34-4.44,0-8.71-0.68-12.99c-0.51-3.42-0.85-6.83-1.2-10.25c-0.17-1.88-0.51-3.76-0.51-5.64
				c0-2.56,1.03-3.59,3.42-3.76c3.76,0,7.52-0.17,11.28-0.34c5.64,0,11.11-0.17,16.58-0.34
				C361.93,629.73,363.13,629.56,364.16,629.56 M364.16,620.56c-0.86,0-1.66,0.06-2.31,0.11c-0.32,0.02-0.77,0.06-0.94,0.06h-0.14
				l-0.14,0l-0.26,0.01c-5.22,0.16-10.63,0.33-16.04,0.33h-0.2l-0.2,0.01l-0.18,0.01c-3.7,0.17-7.19,0.32-10.69,0.32h-0.32
				l-0.32,0.02c-7.16,0.51-11.78,5.51-11.78,12.73c0,1.8,0.2,3.42,0.37,4.84c0.07,0.54,0.13,1.07,0.18,1.61l0,0.04l0,0.04
				c0.35,3.46,0.71,7.05,1.25,10.69l0.01,0.05l0.01,0.05c0.66,4.09,0.85,7.52,0.6,10.8c-0.33,3.5-0.68,7.12-0.86,10.95
				c-0.24,2.05-0.32,3.92-0.4,5.74c-0.04,0.82-0.07,1.64-0.12,2.48l-0.01,0.1l0,0.1l-0.51,12.47l0,0.12
				c-0.01,0.04-0.01,0.09-0.02,0.13c-0.05,0.4-0.13,0.98-0.15,1.66l-0.67,12.14l-0.01,0.25v0.25c0,1.28,0.05,2.53,0.09,3.75
				c0.04,1.06,0.08,2.07,0.08,2.99l-0.34,15.17c-0.17,3.77-0.35,7.66-0.35,11.75v15.04c0,7.51,5.18,12.76,12.59,12.76
				c2.48,0,4.87-0.22,7.1-0.66c1.39-0.24,2.95-0.35,4.88-0.35c1.53,0,3.1,0.07,4.77,0.14c0.77,0.05,1.54,0.11,2.3,0.17
				c3.1,0.23,6.3,0.47,9.62,0.47c1.41,0,2.73-0.04,4.02-0.13c7.04-0.43,11.61-4.66,12.58-11.62l0.28-1.41l0.18-0.88v-0.89
				c0-2.91,0.04-5.81,0.08-8.89c0.04-3.07,0.09-6.23,0.09-9.39c0-1.52,0.09-3.08,0.18-4.73c0.13-2.46,0.27-5.01,0.16-7.78l0-0.04
				l0-0.04c-0.26-5.06,0.16-10.18,0.6-15.61c0.08-1.01,0.16-2.01,0.24-3.02c0.54-6.27,0.71-12.48,0.88-18.49
				c0.18-3.6,0.18-6.9,0.18-11.46v-0.14l0-0.14c-0.06-1.76-0.07-3.68-0.09-5.7c-0.04-4.04-0.08-8.63-0.44-13.33l0-0.05l0-0.05
				l-0.01-0.07c-0.51-5.82-1.05-11.83-1.93-17.88l-0.05-0.36l-0.08-0.36c-0.24-1.05-0.4-2.27-0.56-3.57
				c-0.1-0.81-0.21-1.63-0.34-2.44l-0.05-0.33l-0.07-0.32C375.4,624.48,370.54,620.56,364.16,620.56L364.16,620.56z"/>
		</g>
		<g>
			<path class="st8" d="M492.63,764.14c-1.59,0-3.12-0.13-4.6-0.26c-0.52-0.04-1.03-0.09-1.54-0.13c-3.65-0.07-6.53-2.08-7.92-5.56
				l-0.06-0.16l-0.05-0.17c-0.25-0.79-0.51-1.59-0.78-2.39c-0.66-1.98-1.33-4.02-1.85-6.22c-3.08-11.42-6.33-22.18-9.64-31.96
				l-0.04-0.12c-0.52-1.7-1.02-3.3-1.51-4.84c0.05,1.99,0.01,3.98-0.11,5.96c-0.16,4.61,0.01,9.37,0.17,13.97l0,0.16
				c0,1.83,0,3.56,0.15,5.23l0.52,9.21c0.31,5.34-2.58,8.9-7.73,9.51l-5.88,0.82c-3.03,0.67-5.83,1.3-8.6,2.23l-0.16,0.05
				c-3.73,1.09-7.98,2-13.37,2.86c-0.62,0.09-1.15,0.13-1.66,0.13c-4.35,0-7.35-2.88-7.65-7.35l-0.35-7.02
				c-0.15-5.94-0.68-12.42-1.68-20.4l-0.1-0.99c-0.32-3.18-0.62-6.19-0.78-9.42c-0.17-4.2-0.34-8.5-0.68-12.68l-1.2-16.01l0-0.1
				c-0.17-5.33-0.34-10.83-0.68-16.26l-0.01-0.14v-0.14c0-1.58-0.04-3.17-0.08-4.75c-0.04-1.66-0.09-3.33-0.09-4.99l0.34-18.37
				c0-1.19,0.04-2.45,0.09-3.66c0.04-1.14,0.08-2.29,0.08-3.43c0-0.69,0.11-1.23,0.17-1.56v-0.22l0.07-0.4
				c0.71-3.9,2.9-6.21,6.52-6.87l0.62-0.12c2.47-0.46,5.02-0.94,7.73-1.13c3.41-0.52,6.29-1.17,9.04-2.04
				c2.95-0.87,6.05-1.34,10.17-1.57c1.03-0.07,2.11-0.1,3.27-0.1c3.13,0,6.16,0.25,9.09,0.5c1.2,0.1,2.4,0.2,3.59,0.28
				c1.97,0.01,3.88,0.18,5.72,0.34c1.94,0.06,5.19,0.82,7.15,4.94c0.57,0.98,0.84,1.99,1.04,2.77c2.81,8.74,6.54,17.08,9.83,24.1
				c0.85,1.81,1.63,3.64,2.36,5.47v-5.27c0-1.02,0.06-2.01,0.12-2.98c0.08-1.28,0.15-2.48,0.07-3.51l-0.01-0.15
				c-0.11-2.53-0.02-5.02,0.06-7.42c0.06-1.58,0.11-3.07,0.11-4.56c0-1.8,0.2-3.56,0.37-5.11l0.02-0.14
				c0.66-4.58,3.57-7.11,8.21-7.11c4.85,0,9.43,0,14.1,0.17c2.68,0.01,5.26,0.31,7.77,0.61c0.71,0.08,1.42,0.17,2.14,0.25
				c1.73,0.02,3.55,0.2,5.16,0.36c2.22,0.2,6.15,1.36,7.06,6.81l0.06,0.37v0.24l0.02,0.14c0.06,0.32,0.15,0.8,0.15,1.36
				c0,1.17-0.02,2.33-0.04,3.49c-0.04,2.27-0.07,4.41,0.03,6.53l0.52,16.97c0,2.02,0,4.1,0.16,6.15l0.01,0.11
				c0.06,1.06,0.13,2.12,0.2,3.18c0.15,2.17,0.31,4.41,0.31,6.7c0.11,2.83,0.08,5.56,0.04,8.2c-0.02,1.29-0.04,2.57-0.04,3.85v10.42
				c0,2.43,0.02,4.88,0.04,7.34c0.04,4.9,0.08,9.97-0.04,14.93c0,2.14-0.16,4.26-0.3,6.31c-0.08,1.08-0.16,2.16-0.21,3.27
				c-0.18,2.69-0.34,5.24-0.34,7.63l0,0.2c-0.17,3.83-0.17,7.69-0.17,11.42c0,2.59-0.96,6.11-5.54,8.2
				c-3.51,1.54-7.09,1.92-10.14,2.11c-3.75,0.17-7.69,0.51-11.49,0.85c-1.73,0.12-3.38,0.24-5.03,0.37
				c-3.46,0.27-7.03,0.54-10.69,0.66C493.72,764.13,493.18,764.14,492.63,764.14z"/>
			<path class="st13" d="M452.79,627.24c4.24,0,8.38,0.5,12.53,0.78c1.88,0,3.76,0.17,5.64,0.34c1.71,0,2.73,1.03,3.42,2.56
				c0.34,0.51,0.51,1.2,0.68,1.88c2.73,8.54,6.32,16.75,10.08,24.78c2.56,5.47,4.44,11.11,6.66,16.75c0.51,1.37,1.2,2.73,1.88,4.1
				l1.2,1.37c1.02-0.68,1.2-1.54,1.2-2.39v-4.44c0-1.88,0.17-3.59,0.17-5.47v-1.88c0-0.85-0.17-1.54-0.17-2.39v-7.35
				c0-2.22,0.34-4.61,0.17-6.84c-0.17-3.93,0.17-7.86,0.17-11.79c0-1.54,0.17-3.08,0.34-4.61c0.34-2.39,1.37-3.25,3.76-3.25
				c4.79,0,9.4,0,14.01,0.17c3.25,0,6.49,0.51,9.74,0.85c1.54,0,3.25,0.17,4.96,0.34c1.88,0.17,2.73,1.02,3.07,3.07
				c0,0.51,0.17,1.03,0.17,1.37c0,3.42-0.17,6.84,0,10.25l0.51,16.75c0,2.05,0,4.27,0.17,6.49c0.17,3.25,0.51,6.49,0.51,9.74
				c0.17,4.1,0,8.03,0,11.96v10.42c0,7.35,0.17,14.87,0,22.21c0,3.08-0.34,6.15-0.51,9.4c-0.17,2.56-0.34,5.3-0.34,7.86
				c-0.17,3.93-0.17,7.86-0.17,11.62c0,2.05-1.02,3.25-2.91,4.1c-2.73,1.2-5.64,1.54-8.54,1.71c-3.76,0.17-7.69,0.51-11.62,0.85
				c-5.13,0.34-10.25,0.85-15.55,1.02c-0.46,0.03-0.93,0.05-1.4,0.05c-1.97,0-4.02-0.25-5.95-0.39c-2.05,0-3.25-1.03-3.93-2.73
				c-0.86-2.73-1.88-5.47-2.56-8.37c-2.9-10.76-6.15-21.7-9.74-32.3c-1.37-4.44-2.73-8.71-4.27-13.16l-4.27-10.42
				c-0.34-1.02-0.86-2.22-2.39-2.9c-0.17,1.02-0.34,1.71-0.34,2.39c0,2.56,0.17,5.3,0.34,7.86c0.17,3.42,0.17,6.83,0.51,10.25
				c0.17,2.73,0.17,5.47,0,8.2c-0.17,4.78,0,9.57,0.17,14.35c0,1.88,0,3.76,0.17,5.64l0.51,9.06c0.17,2.9-0.86,4.44-3.76,4.78
				l-6.15,0.85c-3.08,0.68-6.15,1.37-9.23,2.39c-4.1,1.2-8.54,2.05-12.82,2.73c-0.33,0.05-0.65,0.07-0.95,0.07
				c-1.85,0-3.01-0.94-3.16-3.15l-0.34-6.83c-0.17-7.01-0.85-14.01-1.71-20.85c-0.34-3.42-0.68-6.66-0.85-10.08
				c-0.17-4.27-0.34-8.54-0.68-12.82l-1.2-15.89c-0.17-5.47-0.34-10.94-0.68-16.4c0-3.25-0.17-6.49-0.17-9.74l0.34-18.28
				c0-2.39,0.17-4.78,0.17-7.18c0-0.51,0.17-0.85,0.17-1.37c0.34-1.88,1.02-2.9,2.9-3.25c2.73-0.51,5.3-1.02,8.03-1.2
				c3.42-0.51,6.66-1.2,9.91-2.22c2.91-0.85,5.98-1.2,9.06-1.37C450.78,627.27,451.79,627.24,452.79,627.24 M452.79,618.24
				c-1.24,0-2.4,0.04-3.55,0.11c-4.46,0.25-7.87,0.78-11.06,1.71l-0.09,0.03l-0.09,0.03c-2.47,0.78-5.08,1.37-8.18,1.85
				c-2.9,0.21-5.53,0.71-8.07,1.18l-0.64,0.12c-2.52,0.46-8.64,2.42-10.1,10.48l-0.14,0.8v0.2c-0.08,0.48-0.17,1.16-0.17,1.97
				c0,1.04-0.04,2.12-0.08,3.27c-0.04,1.23-0.09,2.5-0.09,3.82l-0.34,18.2l0,0.08v0.08c0,1.74,0.05,3.45,0.09,5.11
				c0.04,1.61,0.08,3.13,0.08,4.63v0.28l0.02,0.28c0.34,5.37,0.51,10.84,0.67,16.12l0.01,0.2l0.01,0.2l1.2,15.89
				c0.33,4.14,0.49,8.2,0.67,12.5l0,0.05l0,0.05c0.17,3.34,0.49,6.54,0.8,9.63l0.09,0.89l0.01,0.11l0.01,0.11
				c0.98,7.83,1.5,14.17,1.64,19.95l0,0.12l0.01,0.12l0.34,6.83l0,0.07l0,0.07c0.45,6.8,5.44,11.55,12.14,11.55
				c0.72,0,1.47-0.05,2.22-0.16l0.07-0.01l0.07-0.01c5.58-0.89,10-1.84,13.91-2.98l0.17-0.05l0.16-0.05
				c2.52-0.84,5.18-1.44,7.98-2.06l5.71-0.79c7.49-0.93,12.03-6.51,11.58-14.23l-0.15-2.56c0.59,2.08,1.17,4.19,1.74,6.32
				c0.57,2.37,1.3,4.58,1.95,6.54c0.26,0.77,0.51,1.54,0.75,2.31l0.1,0.33l0.13,0.32c2.05,5.13,6.47,8.24,11.88,8.39
				c0.45,0.03,0.91,0.07,1.37,0.11c1.5,0.13,3.2,0.28,4.98,0.28c0.65,0,1.25-0.02,1.85-0.06c3.73-0.12,7.33-0.4,10.82-0.67
				c1.63-0.13,3.25-0.25,4.88-0.36l0.09-0.01l0.09-0.01c3.95-0.34,7.67-0.67,11.24-0.83l0.06,0l0.06,0
				c3.44-0.2,7.52-0.66,11.62-2.45l0.06-0.03l0.06-0.03c5.2-2.36,8.18-6.84,8.18-12.29c0-3.68,0-7.49,0.16-11.23l0.01-0.2v-0.2
				c0-2.24,0.15-4.72,0.32-7.26l0-0.06l0-0.06c0.05-1.05,0.13-2.08,0.21-3.18c0.15-2.11,0.31-4.3,0.32-6.58
				c0.11-5.01,0.08-10.1,0.04-15.02c-0.02-2.45-0.04-4.88-0.04-7.3v-10.42c0-1.26,0.02-2.52,0.04-3.79
				c0.04-2.68,0.08-5.44-0.04-8.36c-0.01-2.41-0.17-4.7-0.32-6.92c-0.07-1.03-0.15-2.07-0.2-3.1l-0.01-0.11l-0.01-0.11
				c-0.14-1.88-0.14-3.87-0.14-5.8v-0.14l0-0.14l-0.51-16.75l0-0.09l0-0.09c-0.1-1.98-0.06-4.04-0.03-6.23
				c0.02-1.19,0.04-2.38,0.04-3.57c0-0.79-0.09-1.45-0.17-1.9v-0.21l-0.12-0.73c-1.01-6.05-5.15-10-11.09-10.56
				c-1.64-0.16-3.47-0.35-5.3-0.38c-0.63-0.07-1.26-0.14-1.89-0.22c-2.6-0.31-5.3-0.63-8.2-0.64c-4.72-0.17-9.32-0.17-14.19-0.17
				c-6.85,0-11.7,4.2-12.67,10.97l-0.02,0.14l-0.02,0.14c-0.19,1.67-0.4,3.56-0.4,5.61c0,1-0.03,2.01-0.06,3.06
				c-1.3-3.23-2.55-6.58-3.64-9.98c-0.24-0.92-0.61-2.25-1.38-3.63c-2.19-4.44-6.19-7.14-10.85-7.32c-1.86-0.17-3.78-0.33-5.83-0.35
				c-1.13-0.08-2.26-0.17-3.39-0.27C459.23,618.5,456.1,618.24,452.79,618.24L452.79,618.24z"/>
		</g>
		<g>
			<path class="st8" d="M623.56,766.86c-0.56,0-1.13-0.01-1.69-0.03l-0.17-0.01l-0.42-0.05c-1.58-0.18-3.55-0.39-5.46-1.03
				c-6-1.86-10.88-4.29-14.85-7.39c-3.08-2.4-5.86-5.48-8.49-9.42c-4.31-6.46-7.83-13.79-10.77-22.4
				c-1.74-5.21-2.63-10.68-3.27-15.36c-0.15-1.04-0.31-2.11-0.48-3.19c-0.41-2.63-0.83-5.35-1.08-8.13
				c-0.36-3.23-0.36-6.49-0.36-9.63c0-1.78-0.05-3.56-0.11-5.45c-0.08-2.83-0.17-5.75-0.06-8.64c0-7.88,0.14-16.28,1.79-24.7
				c1.21-6.68,4.75-12.18,10.51-16.3c5.83-4.11,12.61-7.63,20.18-10.46c2.08-0.74,4.03-1.05,5.92-1.34c0.76-0.12,1.53-0.24,2.3-0.39
				c4.5-0.93,8.6-1.39,12.49-1.39c1.08,0,2.17,0.04,3.24,0.11c1.4,0,3.1,0.02,4.84,0.51c3.27,0.93,7.09,2.06,10.86,3.56
				c2.21,0.88,4.11,2.37,5.79,3.67l0.44,0.34l0.17,0.16c3.95,3.77,7.56,8.16,11.06,13.4c2.97,4.64,4.86,10.03,5.67,16.08
				c0.59,4.12,1.38,8.35,2.15,12.44c0.54,2.86,1.09,5.81,1.59,8.78c1.05,6.85,1.92,13.62,2.76,20.16c0.2,1.62,0.21,3.12,0.21,4.57
				c0.17,3.69,0.34,7.51,0.34,11.38c0,4.94-0.13,10.7-1.69,16.54c-0.88,3.53-2.09,6.69-3.62,10.33c-1.8,4.06-4.81,6.99-7.52,9.34
				c-2.97,2.65-6.35,4.37-9.61,6.04c-0.56,0.29-1.12,0.57-1.68,0.87c-4.8,2.48-10.4,4.3-17.15,5.56
				C633.07,766.15,628.45,766.86,623.56,766.86z M620.87,690.75c-0.19,4.21-0.08,7.61,0.31,10.68l0.01,0.11
				c0.15,1.4,1.24,2.56,2.77,2.94c0.42,0.11,0.77,0.16,1.1,0.16c0.99,0,1.8-0.42,2.49-1.29c0.3-0.49,0.65-1.32,0.95-2.05l0.3-0.72
				c1.25-2.96,1.28-6.1,1.18-7.7l-0.01-0.13v-0.13c0-7.08-1.22-13.32-2.28-17.97c-0.4-1.74-1.05-3.22-1.99-4.5l-0.11-0.15
				c-0.3-0.46-0.54-0.56-0.56-0.56c-0.08,0-0.36,0.08-0.77,0.45c-0.79,0.81-1,1.24-1.1,1.75l-0.05,0.23l-0.07,0.22
				c-1.31,4.23-1.83,8.8-2.19,14.35c0,0.35,0.02,0.7,0.03,1.04C620.95,688.45,621,689.55,620.87,690.75z"/>
			<path class="st13" d="M629.52,626.04c1.02,0,2.05,0.03,3.09,0.11c1.2,0,2.56,0,3.76,0.34c3.59,1.02,7.01,2.05,10.42,3.42
				c1.71,0.68,3.42,2.05,4.96,3.25c3.93,3.76,7.35,8.03,10.42,12.64c2.73,4.27,4.27,9.06,4.96,14.18
				c1.02,7.18,2.56,14.18,3.76,21.36c1.02,6.66,1.88,13.33,2.73,19.99c0.17,1.37,0.17,2.73,0.17,4.1c0.17,3.76,0.34,7.52,0.34,11.28
				c0,5.13-0.17,10.25-1.54,15.38c-0.86,3.42-2.05,6.49-3.42,9.74c-1.37,3.08-3.76,5.47-6.32,7.69c-3.08,2.73-6.84,4.44-10.42,6.32
				c-4.95,2.56-10.42,4.1-15.89,5.13c-4.29,0.77-8.58,1.39-12.99,1.39c-0.51,0-1.02-0.01-1.54-0.03c-1.54-0.17-3.25-0.34-4.79-0.86
				c-4.95-1.54-9.57-3.59-13.5-6.66c-3.08-2.39-5.47-5.3-7.52-8.37c-4.44-6.66-7.69-13.84-10.25-21.36
				c-1.54-4.61-2.39-9.57-3.08-14.52c-0.51-3.59-1.2-7.35-1.54-11.11c-0.34-3.07-0.34-6.15-0.34-9.23c0-4.61-0.34-9.4-0.17-14.01
				c0-8.03,0.17-16.06,1.71-23.92c1.02-5.64,3.93-10.08,8.71-13.5c5.81-4.1,12.3-7.35,19.14-9.91c2.39-0.85,4.96-1.03,7.52-1.54
				C621.84,626.53,625.65,626.04,629.52,626.04 M625.07,709.14c2.41,0,4.59-1.09,6.18-3.2c0.68-1.03,1.2-2.39,1.71-3.59
				c1.37-3.25,1.71-6.84,1.54-9.74c0-6.83-1.03-12.99-2.39-18.97c-0.51-2.22-1.37-4.27-2.73-6.15c-1.13-1.7-2.69-2.57-4.31-2.57
				c-1.31,0-2.67,0.56-3.89,1.71c-1.2,1.2-2.05,2.39-2.39,4.1c-1.54,4.96-2.05,10.25-2.39,15.55c0,1.37,0.17,2.73,0,4.1
				c-0.17,3.76-0.17,7.69,0.34,11.62c0.34,3.25,2.73,5.98,6.15,6.84C623.62,709.04,624.35,709.14,625.07,709.14 M629.52,617.04
				L629.52,617.04c-4.19,0-8.57,0.48-13.4,1.48c-0.64,0.13-1.34,0.24-2.09,0.35c-1.99,0.31-4.25,0.67-6.67,1.53l-0.07,0.02
				l-0.07,0.02c-7.93,2.97-15.05,6.67-21.17,10.98l-0.02,0.02l-0.02,0.02c-6.73,4.81-10.87,11.25-12.32,19.15
				c-1.71,8.77-1.86,17.37-1.87,25.43c-0.1,3.01-0.02,5.98,0.07,8.86c0.05,1.86,0.11,3.61,0.11,5.32c0,3.24,0,6.59,0.39,10.13
				c0.27,2.89,0.69,5.65,1.11,8.33c0.16,1.06,0.33,2.11,0.48,3.15c0.67,4.84,1.6,10.57,3.45,16.1l0.01,0.03l0.01,0.03
				c3.06,8.99,6.75,16.66,11.28,23.45c2.89,4.34,6,7.77,9.48,10.48c4.36,3.41,9.69,6.08,16.27,8.13c2.32,0.76,4.51,1.01,6.28,1.2
				l0.26,0.03l0.35,0.04l0.35,0.01c0.62,0.02,1.23,0.03,1.84,0.03c5.25,0,10.1-0.74,14.57-1.53l0.04-0.01l0.04-0.01
				c7.19-1.35,13.19-3.3,18.36-5.98c0.59-0.31,1.14-0.59,1.69-0.87c3.33-1.71,7.11-3.64,10.54-6.68c3.08-2.67,6.5-6.04,8.61-10.8
				l0.04-0.08l0.03-0.08c1.39-3.29,2.81-6.9,3.84-10.98c1.68-6.34,1.82-12.43,1.82-17.63c0-3.92-0.17-7.77-0.34-11.48
				c0-1.49-0.01-3.17-0.24-5.01c-0.85-6.61-1.72-13.41-2.77-20.24l-0.01-0.06l-0.01-0.06c-0.5-3.01-1.06-5.99-1.6-8.88
				c-0.79-4.21-1.54-8.19-2.12-12.24c-0.9-6.69-3.02-12.68-6.29-17.8l-0.04-0.07l-0.05-0.07c-3.68-5.52-7.5-10.15-11.69-14.16
				l-0.33-0.32l-0.36-0.28l-0.25-0.19c-1.82-1.42-4.09-3.19-6.89-4.31c-3.97-1.59-7.92-2.75-11.3-3.72
				c-2.25-0.64-4.41-0.68-5.93-0.69C631.79,617.07,630.66,617.04,629.52,617.04L629.52,617.04z M625.36,691.09
				c0.04-0.37,0.06-0.73,0.08-1.07c0.04,0.85,0.06,1.72,0.06,2.6v0.26l0.02,0.26c0.07,1.18,0,2.37-0.2,3.46
				C625.26,694.93,625.27,693.11,625.36,691.09L625.36,691.09z"/>
		</g>
	</g>
</g>
</svg>
