<svg xmlns="http://www.w3.org/2000/svg" viewBox="0 0 512 512"><circle cx="74.889" cy="75.911" r="74.889" fill="#fae17c"/><g opacity=".1"><circle cx="50.41" cy="57.25" r="21.269"/><path d="M102.925 78.018c0 16.261 13.182 29.442 29.442 29.442 4.078 0 7.962-.83 11.493-2.329 3.809-8.979 5.917-18.854 5.917-29.221a74.74 74.74 0 00-3.984-24.093 29.306 29.306 0 00-13.427-3.243c-16.259.002-29.441 13.183-29.441 29.444z"/></g><path d="M345.451 388.547c-5.766 0-11.198-3.514-13.367-9.225-2.803-7.381.909-15.638 8.29-18.441l.364-.138c4.417-1.686 17.859-6.819 33.689-6.094 7.887.36 13.989 7.046 13.628 14.934-.36 7.888-7.065 13.989-14.934 13.629-9.878-.443-18.822 2.96-22.187 4.244l-.409.156a14.284 14.284 0 01-5.074.935z" fill="#959ba0"/><path d="M255.481 442.923c-63.919 5.592-137.477 12.028-194.335-17.641-9.73-5.077-5.643-19.752 5.32-19.254 43.143 1.962 78.013-12.027 96.901-31.398l92.114 68.293z" fill="#e5e5e5"/><path d="M140.525 391.245c2.498 20.35 7.414 40.452 21.479 56.293 31.469.809 63.531-1.995 93.477-4.615l-92.114-68.293c-6.054 6.209-13.757 11.86-22.842 16.615z" opacity=".1"/><path d="M222.165 510.978a21.918 21.918 0 01-15.214-6.114c-8.771-8.404-9.068-22.327-.664-31.098 5.027-5.247 8.497-13.339 9.52-22.201 1.029-8.916-.788-15.122-1.83-16.729-6.602-10.197-3.687-23.815 6.51-30.416 10.194-6.601 23.814-3.688 30.415 6.509 14.594 22.541 12.905 66.39-12.854 93.271a21.924 21.924 0 01-15.883 6.778zm96.731-10.861a22.51 22.51 0 01-2.28-.117c-12.083-1.245-20.87-12.049-19.625-24.132 1.089-10.576-5.885-31.859-10.257-36.974-9.289-7.245-11.241-20.604-4.279-30.226 7.12-9.841 20.871-12.047 30.712-4.927 19.151 13.856 29.769 55.393 27.581 76.633-1.166 11.316-10.719 19.742-21.852 19.743zm-31.527-60.747z" fill="#959ba0"/><path d="M313.166 403.74c-9.841-7.12-23.591-4.914-30.712 4.927-6.962 9.622-5.01 22.98 4.279 30.226 3.687 4.314 9.224 20.126 10.216 31.318 16.921-3.499 30.819-8.571 42.006-15.362-3.84-19.814-12.868-41.76-25.789-51.109zm-92.678.68c-10.197 6.602-13.112 20.219-6.51 30.416 1.042 1.608 2.859 7.814 1.83 16.729-.957 8.294-4.058 15.912-8.572 21.156 9.944 2.056 21.045 3.08 33.364 3.08 4.666 0 9.593-.146 14.721-.431 7.961-23.248 5.641-48.906-4.417-64.442-6.603-10.196-20.222-13.108-30.416-6.508z" opacity=".1"/><path d="M352.67 359.502c4.304 49.195.736 85.376-88.789 93.208s-99.321-27.18-103.625-76.374 35.28-92.843 88.414-97.492 99.696 31.464 104 80.658z" fill="#e5e5e5"/><path d="M327.455 388.146c1.157 13.227-8.627 24.888-21.855 26.045-13.227 1.157-24.888-8.627-26.045-21.855-1.157-13.227 7.787-34.49 21.014-35.647 13.228-1.157 25.729 18.23 26.886 31.457z" fill="#5cb38e"/><g fill="#fae17c"><circle cx="313.82" cy="396.33" r="8.089"/><path d="M286.592 371.742a8.048 8.048 0 00-3.258 1.013 47.53 47.53 0 00-3.261 10.675c1.445 2.872 4.53 4.725 7.928 4.428a8.09 8.09 0 00-1.409-16.116z"/></g><path d="M230.547 282.052c-43.707 11.785-74.089 50.872-70.291 94.284 3.985 45.552 12.69 78.938 85.029 77.415-43.478-37.037-43.077-121.402-14.738-171.699z" opacity=".05"/><path d="M431.16 317.065l-246.66 21.58c-48.72 4.262-91.671-31.778-95.934-80.498L84.993 217.3c-7.924-90.57 59.074-170.415 149.644-178.338l95.109-8.321c90.57-7.924 170.414 59.074 178.338 149.644l3.574 40.847c4.262 48.72-31.778 91.671-80.498 95.933z" fill="#a3e3ff"/><path d="M325.755 142.833a89.068 89.068 0 00-77.491-33.312l-36.612 3.203c-52.052 4.554-90.557 50.442-86.003 102.494l3.791 43.332c4.087 46.716 45.271 81.274 91.987 77.187l194.081-16.98c34.996-3.062 60.884-33.914 57.822-68.91l-2.58-29.491c-3.062-34.996-33.914-60.884-68.91-57.822l-25.142 2.2a58.556 58.556 0 01-50.943-21.901z" fill="#5cb38e"/><circle cx="398.24" cy="265.76" r="17.861" fill="#495059"/><g opacity=".1"><circle cx="182.44" cy="274.67" r="6.511"/><circle cx="229.42" cy="280.53" r="6.511"/><circle cx="204.97" cy="304.96" r="6.511"/></g><g fill="#ffa8cb"><ellipse transform="rotate(-95.003 184.548 185.091)" cx="184.548" cy="185.093" rx="8.419" ry="16.411"/><ellipse transform="rotate(84.997 294.283 175.51)" cx="294.285" cy="175.51" rx="8.419" ry="16.411"/></g><g fill="#495059"><path d="M203.816 174.157a7.5 7.5 0 01-7.463-6.847l-.713-8.146a7.501 7.501 0 016.817-8.126c4.136-.347 7.765 2.692 8.126 6.818l.713 8.146a7.5 7.5 0 01-7.48 8.155zm68.277-5.974a7.5 7.5 0 01-7.463-6.847l-.713-8.146a7.5 7.5 0 1114.943-1.307l.713 8.146a7.5 7.5 0 01-7.48 8.154z"/><circle cx="371.53" cy="198.54" r="6.511"/><circle cx="412.86" cy="194.92" r="6.511"/></g><path d="M201.708 404.342c-5.083 0-10.003-2.716-12.589-7.5-3.756-6.946-1.168-15.62 5.777-19.375 15.413-8.332 27.469-9.191 36.273-9.818 1.124-.08 2.222-.158 3.297-.252 7.866-.685 14.799 5.132 15.487 12.996.688 7.866-5.13 14.8-12.996 15.488-1.225.107-2.477.197-3.758.288-7.566.539-14.713 1.048-24.705 6.45a14.23 14.23 0 01-6.786 1.723z" fill="#959ba0"/><path d="M208.411 43.4C131.506 62.857 77.856 135.723 84.993 217.3l3.574 40.847c4.263 48.72 47.214 84.76 95.934 80.498l83.228-7.281C152.587 248.52 177.948 106.556 208.411 43.4z" opacity=".1"/><path d="M436.773 468.402l-11.404 3.236c-4.074 1.156-8.04-2.139-7.648-6.356l1.096-11.803a6.03 6.03 0 00-.995-3.915l-6.602-9.845c-2.359-3.518-.45-8.307 3.682-9.238l11.564-2.605a6.022 6.022 0 003.415-2.157l7.324-9.321c2.617-3.331 7.762-2.995 9.923.647l6.051 10.194a6.033 6.033 0 003.106 2.582l11.128 4.085c3.976 1.459 5.247 6.456 2.451 9.638l-7.825 8.905a6.036 6.036 0 00-1.496 3.752l-.446 11.846c-.159 4.232-4.519 6.985-8.409 5.309l-10.887-4.69a6.02 6.02 0 00-4.028-.264zM52.048 363.415l-10.295 5.876c-3.678 2.099-8.318-.149-8.949-4.338l-1.765-11.722a6.03 6.03 0 00-1.905-3.562l-8.77-7.976c-3.133-2.85-2.428-7.957 1.36-9.851l10.603-5.301a6.028 6.028 0 002.799-2.913L40 312.824c1.742-3.861 6.817-4.768 9.789-1.751l8.318 8.445a6.03 6.03 0 003.635 1.762l11.783 1.298c4.21.464 6.642 5.01 4.69 8.769l-5.462 10.521a6.024 6.024 0 00-.552 4.001l2.407 11.607c.86 4.147-2.713 7.865-6.891 7.171l-11.694-1.943a6.029 6.029 0 00-3.975.711z" fill="#ff85b6"/></svg>