<svg xmlns="http://www.w3.org/2000/svg" viewBox="0 0 512 512"><path d="M150.541 412.151c-7.016 0-13.245-5.008-14.545-12.155-1.463-8.042 3.87-15.748 11.913-17.212 9.825-1.787 16.369-9.707 23.298-18.091 1.759-2.129 3.578-4.33 5.424-6.366 5.489-6.058 14.851-6.518 20.907-1.028 6.058 5.49 6.518 14.85 1.028 20.907-1.392 1.536-2.921 3.386-4.539 5.345-8.592 10.397-20.359 24.636-40.82 28.359-.895.162-1.787.241-2.666.241z" fill="#498a68"/><path d="M61.287 365.466a7.5 7.5 0 01-7.047-10.067l5.147-14.14c3.221-8.85 9.696-15.917 18.233-19.897 8.536-3.979 18.112-4.397 26.961-1.177a7.5 7.5 0 01-5.13 14.096c-10.497-3.82-22.147 1.611-25.968 12.109l-5.147 14.141a7.506 7.506 0 01-7.049 4.935z" fill="#495059"/><path d="M79.762 397.77l64.293 23.401c6.117 2.226 12.88-.928 15.106-7.044l2.132-5.857c2.226-6.117-.927-12.88-7.044-15.106l-64.293-23.4-10.194 28.006z" fill="#806c6c"/><path opacity=".1" d="M94.135 403.002l-14.364-5.228 10.194-28.008 14.363 5.228z"/><path d="M35.053 385.96l13.062-35.889a5.225 5.225 0 016.698-3.123l33.453 12.176a5.226 5.226 0 013.124 6.698l-13.063 35.889a5.225 5.225 0 01-6.698 3.123l-33.453-12.176a5.225 5.225 0 01-3.123-6.698zm-17.38 47.751l4.744-13.034a5.225 5.225 0 016.698-3.123l33.453 12.176a5.225 5.225 0 013.123 6.698l-4.744 13.034a5.225 5.225 0 01-6.698 3.123l-33.453-12.176a5.226 5.226 0 01-3.123-6.698z" fill="#959ba0"/><path d="M61.539 429.355a39.04 39.04 0 019.061-24.896l-31.395-11.427a39.035 39.035 0 01-9.061 24.895l31.395 11.428z" fill="#495059"/><path d="M282.786 444.622c69.073 0 148.564 0 206.757-37.153 9.958-6.358 4.199-21.712-7.512-20.149-46.084 6.152-84.793-5.578-106.866-24.58l-92.379 81.882z" fill="#5cb38e"/><path d="M401.221 378.415c-.77 22.059-4.156 44.078-17.754 62.386-33.673 3.821-68.32 3.821-100.681 3.821l92.379-81.883c7.076 6.091 15.867 11.429 26.056 15.676z" opacity=".1"/><path d="M313.71 512c-11.784.001-21.762-9.081-22.68-21.027-.281-3.645-1.743-61.909 4.397-76.979 4.746-11.647 18.033-17.242 29.681-12.496 11.17 4.552 16.774 16.962 13.026 28.245-1.633 8.405-2.571 46.358-1.696 57.738.965 12.539-8.419 23.486-20.958 24.451-.593.046-1.184.068-1.77.068zm23.904-80.846zM231.123 512c-11.784.001-21.762-9.081-22.68-21.027-.281-3.645-1.742-61.908 4.398-76.979 4.747-11.647 18.036-17.24 29.681-12.496 11.17 4.552 16.773 16.962 13.026 28.245-1.633 8.405-2.571 46.358-1.696 57.737.965 12.539-8.419 23.486-20.958 24.451-.594.047-1.185.069-1.771.069zm23.906-80.846l-.011.026.011-.026z" fill="#498a68"/><path d="M242.522 401.499c-11.645-4.744-24.934.849-29.681 12.496-3.897 9.564-4.732 36.521-4.75 55.876 12.803 4.302 27.866 6.99 45.447 8.144-.161-15.802.701-41.531 2.01-48.271 3.748-11.283-1.855-23.694-13.026-28.245zm82.586 0c-11.648-4.747-24.935.849-29.681 12.496-4.507 11.06-4.918 45.386-4.707 64.311 17.412-.83 32.472-3.07 45.392-6.807.081-15.581.881-35.882 2.022-41.755 3.748-11.284-1.856-23.694-13.026-28.245z" opacity=".1"/><path d="M170.73 364.278c0 53.162 7.221 91.63 103.966 91.63s103.966-38.467 103.966-91.63-46.547-96.259-103.966-96.259-103.966 43.096-103.966 96.259z" fill="#5cb38e"/><path d="M170.73 364.278c0-.424.011-.845.017-1.267 21.654-5.557 64.607-7.173 94.496 24.592 21.781 23.148 24.933 48.127 22.596 68.048-4.187.17-8.564.257-13.144.257-96.744-.001-103.965-38.468-103.965-91.63z" fill="#9bdfc1"/><path d="M294.433 269.759c47.979 8.538 84.229 47.606 84.229 94.519 0 49.226-6.203 85.847-83.925 91.001 43.153-43.801 34.807-134.238-.304-185.52z" opacity=".05"/><path d="M179.266 129.388a95.885 95.885 0 0179.979-42.996h39.565c56.25 0 101.849 45.6 101.849 101.849v46.827c0 50.484-40.925 91.409-91.409 91.409H99.517c-37.818 0-68.477-30.658-68.477-68.477v-31.87c0-37.818 30.658-68.476 68.477-68.476h27.17a63.036 63.036 0 0052.579-28.266z" fill="#5cb38e"/><g opacity=".1"><circle cx="345.33" cy="257.32" r="7.01"/><circle cx="295.5" cy="268.02" r="7.01"/><circle cx="324.02" cy="291.93" r="7.01"/></g><g fill="#ffa8cb"><ellipse cx="318.05" cy="167.54" rx="17.667" ry="9.06"/><ellipse cx="199.44" cy="167.54" rx="17.667" ry="9.06"/></g><g fill="#495059"><path d="M295.639 157.07a7.5 7.5 0 01-7.5-7.5v-8.804a7.5 7.5 0 0115 0v8.804a7.5 7.5 0 01-7.5 7.5zm-73.783 0a7.5 7.5 0 01-7.5-7.5v-8.804a7.5 7.5 0 0115 0v8.804a7.5 7.5 0 01-7.5 7.5zM113.069 283.45a26.043 26.043 0 01-19.637-8.943 7.5 7.5 0 0111.308-9.855c2.103 2.413 5.139 3.797 8.328 3.797s6.225-1.384 8.328-3.797a7.5 7.5 0 0111.308 9.855 26.039 26.039 0 01-19.635 8.943z"/><circle cx="135.4" cy="193.42" r="7.01"/><circle cx="90.73" cy="193.42" r="7.01"/></g><path d="M321.436 88.918c45.359 10.29 79.223 50.85 79.223 99.323v46.827c0 50.484-40.925 91.409-91.409 91.409h-55.467c80.78-47.001 94.472-176.198 67.653-237.559z" opacity=".05"/><path d="M278.44 394.775c-13.606 0-26.937-5.49-35.622-15.069-5.491-6.056-5.034-15.417 1.022-20.908 6.057-5.492 15.416-5.033 20.908 1.022 3.75 4.135 10.861 6.204 17.29 5.031 8.04-1.466 15.75 3.864 17.217 11.906s-3.864 15.751-11.906 17.217a49.717 49.717 0 01-8.909.801z" fill="#498a68"/><path d="M380.809 115.37c-15.923 4.362-30.61 2.956-53.848.897a10.004 10.004 0 00-6.275 1.529c-30.3 19.401-116.889 3.282-146.432-8.554-4.538-1.818-4.816-8.137-.471-10.378l12.52-6.458c2.786-1.437 4.654-4.158 5.081-7.263 9.743-70.822 93.36-115.135 165.252-61.111 22.322 16.774 34.2 44.049 31.766 71.865l-1.004 11.472c-.33 3.773-2.936 7-6.589 8.001z" fill="#fae17c"/><path d="M261.034 83.597a7.5 7.5 0 01-7.389-8.835c2.161-11.962 6.083-21.6 9.999-30.232a7.5 7.5 0 0113.66 6.196c-4.808 10.601-7.386 18.337-8.898 26.703a7.504 7.504 0 01-7.372 6.168zm-32.297-5.834a7.5 7.5 0 01-7.389-8.835c2.161-11.961 6.083-21.599 9.997-30.232a7.498 7.498 0 019.928-3.732 7.5 7.5 0 013.733 9.928c-4.809 10.602-7.386 18.338-8.898 26.704a7.501 7.501 0 01-7.371 6.167z" opacity=".1"/><path d="M173.783 98.864l12.52-6.458c1.575-.812 2.842-2.044 3.736-3.514 64.489.438 116.748 18.284 132.677 27.918a9.853 9.853 0 00-2.029.986c-30.3 19.401-116.889 3.282-146.432-8.554-4.539-1.818-4.817-8.137-.472-10.378z" opacity=".05"/></svg>