<?xml version="1.0" encoding="iso-8859-1"?>
<!-- Generator: Adobe Illustrator 19.0.0, SVG Export Plug-In . SVG Version: 6.00 Build 0)  -->
<svg version="1.1" id="Capa_1" xmlns="http://www.w3.org/2000/svg" xmlns:xlink="http://www.w3.org/1999/xlink" x="0px" y="0px"
	 viewBox="0 0 512 512" style="enable-background:new 0 0 512 512;" xml:space="preserve">
<path style="fill:#498A68;" d="M150.541,412.151c-7.016,0-13.245-5.008-14.545-12.155c-1.463-8.042,3.87-15.748,11.913-17.212
	c9.825-1.787,16.369-9.707,23.298-18.091c1.759-2.129,3.578-4.33,5.424-6.366c5.489-6.058,14.851-6.518,20.907-1.028
	c6.058,5.49,6.518,14.85,1.028,20.907c-1.392,1.536-2.921,3.386-4.539,5.345c-8.592,10.397-20.359,24.636-40.82,28.359
	C152.312,412.072,151.42,412.151,150.541,412.151z"/>
<path style="fill:#495059;" d="M61.287,365.466c-0.852,0-1.718-0.146-2.565-0.454c-3.892-1.417-5.899-5.721-4.482-9.613l5.147-14.14
	c3.221-8.85,9.696-15.917,18.233-19.897c8.536-3.979,18.112-4.397,26.961-1.177c3.893,1.417,5.899,5.721,4.483,9.613
	c-1.417,3.892-5.721,5.9-9.613,4.483c-10.497-3.82-22.147,1.611-25.968,12.109l-5.147,14.141
	C67.226,363.575,64.35,365.466,61.287,365.466z"/>
<path style="fill:#806C6C;" d="M79.762,397.77l64.293,23.401c6.117,2.226,12.88-0.928,15.106-7.044l2.132-5.857
	c2.226-6.117-0.927-12.88-7.044-15.106l-64.293-23.4L79.762,397.77z"/>
<rect x="84.407" y="371.481" transform="matrix(-0.9397 -0.342 0.342 -0.9397 46.4053 780.9496)" style="opacity:0.1;enable-background:new    ;" width="15.285" height="29.805"/>
<g>
	<path style="fill:#959BA0;" d="M35.053,385.96l13.062-35.889c0.987-2.712,3.986-4.111,6.698-3.123l33.453,12.176
		c2.712,0.987,4.111,3.986,3.124,6.698l-13.063,35.889c-0.987,2.712-3.986,4.111-6.698,3.123l-33.453-12.176
		C35.464,391.672,34.066,388.673,35.053,385.96z"/>
	<path style="fill:#959BA0;" d="M17.673,433.711l4.744-13.034c0.987-2.712,3.986-4.111,6.698-3.123l33.453,12.176
		c2.712,0.987,4.111,3.986,3.123,6.698l-4.744,13.034c-0.987,2.712-3.986,4.111-6.698,3.123l-33.453-12.176
		C18.084,439.422,16.686,436.423,17.673,433.711z"/>
</g>
<path style="fill:#495059;" d="M61.539,429.355L61.539,429.355c0.026-9.101,3.231-17.907,9.061-24.896l0,0l-31.395-11.427l0,0
	c-0.026,9.101-3.231,17.907-9.061,24.895l0,0L61.539,429.355z"/>
<path style="fill:#5CB38E;" d="M282.786,444.622c69.073,0,148.564,0,206.757-37.153c9.958-6.358,4.199-21.712-7.512-20.149
	c-46.084,6.152-84.793-5.578-106.866-24.58L282.786,444.622z"/>
<path style="opacity:0.1;enable-background:new    ;" d="M401.221,378.415c-0.77,22.059-4.156,44.078-17.754,62.386
	c-33.673,3.821-68.32,3.821-100.681,3.821l92.379-81.883C382.241,368.83,391.032,374.168,401.221,378.415z"/>
<g>
	<path style="fill:#498A68;" d="M313.71,512c-11.784,0.001-21.762-9.081-22.68-21.027c-0.281-3.645-1.743-61.909,4.397-76.979
		c4.746-11.647,18.033-17.242,29.681-12.496c11.17,4.552,16.774,16.962,13.026,28.245c-1.633,8.405-2.571,46.358-1.696,57.738
		c0.965,12.539-8.419,23.486-20.958,24.451C314.887,511.978,314.296,512,313.71,512z M337.614,431.154
		c-0.003,0.008-0.007,0.017-0.011,0.026C337.607,431.171,337.611,431.162,337.614,431.154z"/>
	<path style="fill:#498A68;" d="M231.123,512c-11.784,0.001-21.762-9.081-22.68-21.027c-0.281-3.645-1.742-61.908,4.398-76.979
		c4.747-11.647,18.036-17.24,29.681-12.496c11.17,4.552,16.773,16.962,13.026,28.245c-1.633,8.405-2.571,46.358-1.696,57.737
		c0.965,12.539-8.419,23.486-20.958,24.451C232.3,511.978,231.709,512,231.123,512z M255.029,431.154
		c-0.003,0.009-0.007,0.017-0.011,0.026C255.021,431.171,255.025,431.163,255.029,431.154z"/>
</g>
<path style="opacity:0.1;enable-background:new    ;" d="M242.522,401.499c-11.645-4.744-24.934,0.849-29.681,12.496
	c-3.897,9.564-4.732,36.521-4.75,55.876c12.803,4.302,27.866,6.99,45.447,8.144c-0.161-15.802,0.701-41.531,2.01-48.271
	C259.296,418.461,253.693,406.05,242.522,401.499z"/>
<path style="opacity:0.1;enable-background:new    ;" d="M325.108,401.499c-11.648-4.747-24.935,0.849-29.681,12.496
	c-4.507,11.06-4.918,45.386-4.707,64.311c17.412-0.83,32.472-3.07,45.392-6.807c0.081-15.581,0.881-35.882,2.022-41.755
	C341.882,418.46,336.278,406.05,325.108,401.499z"/>
<path style="fill:#5CB38E;" d="M170.73,364.278c0,53.162,7.221,91.63,103.966,91.63s103.966-38.467,103.966-91.63
	s-46.547-96.259-103.966-96.259S170.73,311.115,170.73,364.278z"/>
<path style="fill:#9BDFC1;" d="M170.73,364.278c0-0.424,0.011-0.845,0.017-1.267c21.654-5.557,64.607-7.173,94.496,24.592
	c21.781,23.148,24.933,48.127,22.596,68.048c-4.187,0.17-8.564,0.257-13.144,0.257C177.951,455.907,170.73,417.44,170.73,364.278z"
	/>
<path style="opacity:0.05;enable-background:new    ;" d="M294.433,269.759c47.979,8.538,84.229,47.606,84.229,94.519
	c0,49.226-6.203,85.847-83.925,91.001C337.89,411.478,329.544,321.041,294.433,269.759z"/>
<path style="fill:#5CB38E;" d="M179.266,129.388L179.266,129.388c17.753-26.847,47.793-42.996,79.979-42.996h39.565
	c56.25,0,101.849,45.6,101.849,101.849v46.827c0,50.484-40.925,91.409-91.409,91.409H99.517c-37.818,0-68.477-30.658-68.477-68.477
	v-31.87c0-37.818,30.658-68.476,68.477-68.476h27.17C147.846,157.654,167.594,147.038,179.266,129.388z"/>
<g style="opacity:0.1;">
	<circle cx="345.33" cy="257.32" r="7.01"/>
	<circle cx="295.5" cy="268.02" r="7.01"/>
	<circle cx="324.02" cy="291.93" r="7.01"/>
</g>
<g>
	<ellipse style="fill:#FFA8CB;" cx="318.05" cy="167.54" rx="17.667" ry="9.06"/>
	<ellipse style="fill:#FFA8CB;" cx="199.44" cy="167.54" rx="17.667" ry="9.06"/>
</g>
<g>
	<path style="fill:#495059;" d="M295.639,157.07c-4.142,0-7.5-3.358-7.5-7.5v-8.804c0-4.142,3.358-7.5,7.5-7.5s7.5,3.358,7.5,7.5
		v8.804C303.139,153.712,299.781,157.07,295.639,157.07z"/>
	<path style="fill:#495059;" d="M221.856,157.07c-4.142,0-7.5-3.358-7.5-7.5v-8.804c0-4.142,3.358-7.5,7.5-7.5s7.5,3.358,7.5,7.5
		v8.804C229.356,153.712,225.999,157.07,221.856,157.07z"/>
	<path style="fill:#495059;" d="M113.069,283.45c-7.527,0-14.684-3.259-19.637-8.943c-2.721-3.123-2.396-7.86,0.727-10.582
		c3.122-2.721,7.859-2.397,10.581,0.727c2.103,2.413,5.139,3.797,8.328,3.797s6.225-1.384,8.328-3.797
		c2.722-3.124,7.459-3.448,10.581-0.727c3.123,2.722,3.448,7.459,0.727,10.582C127.753,280.19,120.596,283.45,113.069,283.45z"/>
	<circle style="fill:#495059;" cx="135.4" cy="193.42" r="7.01"/>
	<circle style="fill:#495059;" cx="90.73" cy="193.42" r="7.01"/>
</g>
<path style="opacity:0.05;enable-background:new    ;" d="M321.436,88.918c45.359,10.29,79.223,50.85,79.223,99.323v46.827
	c0,50.484-40.925,91.409-91.409,91.409h-55.467C334.563,279.476,348.255,150.279,321.436,88.918z"/>
<path style="fill:#498A68;" d="M278.44,394.775c-13.606,0-26.937-5.49-35.622-15.069c-5.491-6.056-5.034-15.417,1.022-20.908
	c6.057-5.492,15.416-5.033,20.908,1.022c3.75,4.135,10.861,6.204,17.29,5.031c8.04-1.466,15.75,3.864,17.217,11.906
	s-3.864,15.751-11.906,17.217C284.396,394.512,281.412,394.775,278.44,394.775z"/>
<path style="fill:#FAE17C;" d="M380.809,115.37c-15.923,4.362-30.61,2.956-53.848,0.897c-2.202-0.195-4.413,0.337-6.275,1.529
	c-30.3,19.401-116.889,3.282-146.432-8.554c-4.538-1.818-4.816-8.137-0.471-10.378l12.52-6.458c2.786-1.437,4.654-4.158,5.081-7.263
	c9.743-70.822,93.36-115.135,165.252-61.111c22.322,16.774,34.2,44.049,31.766,71.865l-1.004,11.472
	C387.068,111.142,384.462,114.369,380.809,115.37z"/>
<g style="opacity:0.1;">
	<path d="M261.034,83.597c-0.443,0-0.891-0.04-1.342-0.121c-4.076-0.736-6.784-4.638-6.047-8.714
		c2.161-11.962,6.083-21.6,9.999-30.232c1.711-3.772,6.157-5.443,9.928-3.732c3.772,1.711,5.443,6.156,3.732,9.928
		c-4.808,10.601-7.386,18.337-8.898,26.703C267.75,81.054,264.592,83.597,261.034,83.597z"/>
	<path d="M228.737,77.763c-0.443,0-0.891-0.04-1.342-0.121c-4.076-0.736-6.784-4.638-6.047-8.714
		c2.161-11.961,6.083-21.599,9.997-30.232c1.711-3.773,6.156-5.444,9.928-3.732c3.773,1.71,5.443,6.156,3.733,9.928
		c-4.809,10.602-7.386,18.338-8.898,26.704C235.454,75.22,232.295,77.763,228.737,77.763z"/>
</g>
<path style="opacity:0.05;enable-background:new    ;" d="M173.783,98.864l12.52-6.458c1.575-0.812,2.842-2.044,3.736-3.514
	c64.489,0.438,116.748,18.284,132.677,27.918c-0.707,0.251-1.39,0.576-2.029,0.986c-30.3,19.401-116.889,3.282-146.432-8.554
	C169.716,107.424,169.438,101.105,173.783,98.864z"/>
<g>
</g>
<g>
</g>
<g>
</g>
<g>
</g>
<g>
</g>
<g>
</g>
<g>
</g>
<g>
</g>
<g>
</g>
<g>
</g>
<g>
</g>
<g>
</g>
<g>
</g>
<g>
</g>
<g>
</g>
</svg>
