<?xml version="1.0" encoding="iso-8859-1"?>
<!-- Generator: Adobe Illustrator 19.0.0, SVG Export Plug-In . SVG Version: 6.00 Build 0)  -->
<svg version="1.1" id="Capa_1" xmlns="http://www.w3.org/2000/svg" xmlns:xlink="http://www.w3.org/1999/xlink" x="0px" y="0px"
	 viewBox="0 0 300.742 300.742" style="enable-background:new 0 0 300.742 300.742;" xml:space="preserve">
<g id="XMLID_517_">
	<g id="XMLID_518_">
		<path id="XMLID_50_" style="fill:#8FB346;" d="M90.248,107.082l0.181,16.613c4.674-0.913,10.677-4.366,10.633-8.424
			S94.941,107.891,90.248,107.082z"/>
		<path id="XMLID_49_" style="fill:#8FB346;" d="M101.248,132.319c-0.044-4.057-6.121-7.379-10.814-8.19l0.181,16.613
			C95.289,139.831,101.292,136.376,101.248,132.319z"/>
		<path id="XMLID_48_" style="fill:#8FB346;" d="M90.062,90.033l0.181,16.613c4.674-0.912,10.677-4.366,10.633-8.423
			C100.831,94.166,94.755,90.843,90.062,90.033z"/>
		<path id="XMLID_47_" style="fill:#8FB346;" d="M89.403,29.692l0.096,8.762c4.674-0.912,10.677-4.366,10.633-8.423
			c-0.045-4.119-6.308-7.487-11.027-8.231C89.276,24.391,89.374,27.023,89.403,29.692z"/>
		<path id="XMLID_46_" style="fill:#8FB346;" d="M89.504,38.888l0.181,16.613c4.674-0.912,10.677-4.366,10.633-8.424
			C100.273,43.02,94.197,39.698,89.504,38.888z"/>
		<path id="XMLID_45_" style="fill:#8FB346;" d="M89.876,72.985l0.181,16.613c4.674-0.912,10.677-4.366,10.633-8.424
			S94.569,73.794,89.876,72.985z"/>
		<path id="XMLID_44_" style="fill:#8FB346;" d="M89.69,55.936l0.181,16.613c4.674-0.911,10.677-4.366,10.633-8.423
			C100.459,60.069,94.383,56.747,89.69,55.936z"/>
	</g>
	<path id="XMLID_42_" style="fill:#A4C867;" d="M110.732,300.742h-4.063c-7.293,0-13.205-5.912-13.205-13.205v-41.231h30.473v41.231
		C123.937,294.83,118.025,300.742,110.732,300.742z"/>
	<path id="XMLID_41_" style="fill:#9BC35C;" d="M167.57,300.742h-4.063c-7.293,0-13.205-5.912-13.205-13.205v-41.231h30.473v41.231
		C180.775,294.83,174.863,300.742,167.57,300.742z"/>
	<path id="XMLID_40_" style="fill:#9BC35C;" d="M198.043,300.742h-4.063c-7.293,0-13.205-5.912-13.205-13.205v-41.231h30.473v41.231
		C211.248,294.83,205.336,300.742,198.043,300.742z"/>
	<path id="XMLID_39_" style="fill:#A4C867;" d="M64.196,287.454l-3.78-1.49c-6.785-2.674-10.117-10.342-7.443-17.127l15.119-38.359
		l28.35,11.174l-15.119,38.359C78.649,286.795,70.981,290.128,64.196,287.454z"/>
	<path id="XMLID_519_" style="fill:#A4C867;" d="M271.248,190.742c8-27,8.25-32.75,20-50c4.946-7.261-18.667,1.333-28.297,30
		c-6.491,19.322-21.393,32.36-41.703-10c-5.868-12.239-14-41.5-60-40c-22.706,0.74-50.136,27.304-59.875,20
		c-12-9-10.204-29.624-10-60c0.208-31,3.875-76.667-20.125-80C32.243-4.675,8.821,20.845,8.821,35.505
		c0,21.01,10.859,27.351,32.426,25.237c18.042-1.769,0,72,17.932,144.383c17.785,71.79,34.711,55.617,112.068,55.617
		c58.651,0,47.302-31.104,60-30C242.748,231.742,260.067,228.478,271.248,190.742z"/>
	<circle id="XMLID_520_" style="fill:#272525;" cx="37.177" cy="31.321" r="10"/>
	<circle id="XMLID_36_" style="fill:#FFE477;" cx="100.949" cy="220.949" r="9.421"/>
	<circle id="XMLID_35_" style="fill:#FFE477;" cx="79.794" cy="200.949" r="9.421"/>
	<path id="XMLID_521_" style="fill:#9BC35C;" d="M262.951,170.742c-6.491,19.322-21.393,32.36-41.703-10
		c-5.868-12.239-14-41.5-60-40c-3.539,0.115-7.193,0.859-10.877,2.003v138.36c6.429-0.21,13.364-0.363,20.877-0.363
		c58.651,0,47.302-31.104,60-30c11.5,1,28.819-2.264,40-40c8-27,8.25-32.75,20-50C296.193,133.482,272.581,142.076,262.951,170.742z
		"/>
	<circle id="XMLID_33_" style="fill:#F6D563;" cx="198.043" cy="161.23" r="12.327"/>
	<circle id="XMLID_32_" style="fill:#F6D563;" cx="171.495" cy="152.325" r="9.421"/>
	<circle id="XMLID_3_" style="fill:#F6D563;" cx="187.425" cy="190.949" r="9.421"/>
</g>
<g>
</g>
<g>
</g>
<g>
</g>
<g>
</g>
<g>
</g>
<g>
</g>
<g>
</g>
<g>
</g>
<g>
</g>
<g>
</g>
<g>
</g>
<g>
</g>
<g>
</g>
<g>
</g>
<g>
</g>
</svg>
